<svg width="375" height="98" viewBox="0 0 375 98" fill="none" xmlns="http://www.w3.org/2000/svg">
<g clip-path="url(#clip0)">
<rect width="375" height="98" fill="white"/>
<rect width="375" height="98" fill="url(#paint0_linear)"/>
<rect x="12.5" y="10.5" width="350" height="77" fill="url(#paint1_linear)" stroke="#2C2A2A" stroke-width="3"/>
<path d="M28.0288 48.5987C28.9714 48.9274 29.2032 49.0021 29.3887 49.4205C29.5432 49.7343 29.7132 50.4066 29.9295 51.2284C28.6624 51.5272 27.148 51.8858 26.7771 51.8858C26.3908 51.8858 26.2053 51.7364 25.8499 51.5272L25.6799 51.6169C25.7417 51.9456 25.7727 52.1099 25.9272 52.349C26.2362 52.8122 27.0089 53.3351 27.4261 53.3351C27.8124 53.3351 28.0906 53.1259 28.5542 52.9466C29.0178 52.7673 29.6204 52.588 30.2231 52.4237C30.3622 52.9915 30.5476 53.7684 30.7331 54.6051C29.0023 55.0534 26.5917 55.6809 26.159 55.6809C25.8654 55.6809 25.6336 55.5763 25.1854 55.2476L25 55.3522C25.0309 55.7855 25.1082 56.0993 25.2627 56.3234C25.4636 56.6521 26.3753 57.2497 26.9625 57.2348C27.3489 57.2348 27.5807 56.9808 28.0751 56.7567C28.7705 56.4429 29.945 56.0395 30.9803 55.7556C31.0885 56.2785 31.1967 56.7716 31.2739 57.2348C31.4439 58.0566 31.4748 58.8634 31.5521 59.1473C31.6757 59.7748 32.1238 60.492 32.6801 60.4771C33.2519 60.4621 33.4991 60.1334 33.4991 59.7449C33.4991 59.1622 33.3292 58.7439 33.0819 57.8623C32.9428 57.3394 32.7265 56.5176 32.4638 55.3821C34.1945 54.9637 35.3999 54.7695 37.0379 54.635C37.656 54.5902 37.7796 54.2316 37.7796 53.9328C37.7796 53.4546 36.8679 53.0961 35.9562 53.111C35.8171 53.1259 35.6626 53.2455 35.2917 53.3799C34.6118 53.619 33.3755 53.9477 32.1856 54.2316C32.0311 53.5891 31.8766 52.8719 31.6911 52.08C32.5874 51.8709 33.8546 51.6169 34.7508 51.4525C35.3535 51.3479 35.508 51.064 35.508 50.7054C35.508 50.2572 34.4263 49.9584 33.8855 49.9733C33.7619 49.9733 33.3755 50.2572 32.6956 50.4813C32.3402 50.6009 31.9539 50.7054 31.4284 50.8399C31.3512 50.3917 31.2894 50.0331 31.2585 49.7044C31.2121 49.286 31.4439 49.0918 31.3821 48.7182C31.3203 48.3148 30.1149 47.8666 29.4814 47.8666C29.1414 47.8666 28.4924 48.1206 28.0133 48.3746L28.0288 48.5987Z" fill="#2C2A2A"/>
<path d="M45.6298 51.5422C46.1088 51.6916 46.5106 51.9007 46.6651 52.1846C46.8351 52.5133 47.0514 53.2305 47.2678 53.9626C46.2633 54.1868 45.1971 54.4408 44.7953 54.4408C44.3626 54.4408 44.1772 54.2465 43.899 54.0374L43.7754 54.0822C43.7445 54.381 43.7445 54.7396 43.8218 54.9488C43.9917 55.3522 44.6253 55.9349 45.1507 55.9349C45.4752 55.9349 45.707 55.6062 46.2788 55.3671C46.5415 55.2625 47.0205 55.0683 47.515 54.9189C47.9168 56.4429 48.2568 58.3404 48.3495 59.2967C48.3958 59.9989 48.8594 60.5518 49.5394 60.5518C50.0184 60.5518 50.2347 60.3127 50.2347 59.8346C50.2347 59.476 50.0184 58.8933 49.9102 58.5646C49.663 57.7428 49.1994 56.0843 48.7976 54.5454C49.8639 54.2316 50.961 53.9029 51.4401 53.7983C51.6101 53.7684 51.6719 53.7983 51.6101 53.9477C51.3937 54.5005 50.8374 55.5912 50.2038 56.4578L50.3584 56.5774C51.5637 55.9498 52.5527 55.0384 53.1554 54.5304C53.3717 54.3511 53.9589 54.3362 53.9589 54.0075C53.9589 53.4248 52.8154 52.4984 52.2436 52.4984C52.0427 52.4984 51.7646 52.7673 51.471 52.8719C51.0847 52.9765 49.6784 53.365 48.6122 53.6339C48.5349 53.2455 48.4886 52.8719 48.4731 52.6777C48.4422 52.3639 48.5504 52.0053 48.5504 51.7215C48.5504 51.318 47.3759 51.064 46.8351 51.064C46.3097 51.064 45.9852 51.2284 45.6143 51.3927L45.6298 51.5422Z" fill="#2C2A2A"/>
<path d="M61.16 49.3906C62.6435 50.4813 63.0298 51.0342 63.7561 52.0203C64.1424 52.5432 64.467 52.8122 64.9615 52.8122C65.5641 52.8122 65.9659 52.349 65.9659 51.8111C65.9659 50.2721 63.4316 49.3906 61.2991 49.1515L61.16 49.3906ZM62.8444 57.5784C62.2881 57.5784 61.7472 57.0107 61.3764 56.6521L61.16 56.7866C61.16 57.2198 61.3145 57.8026 61.5 58.1462C61.809 58.7439 62.8908 59.6254 63.7716 59.6254C64.2197 59.6254 64.4206 59.1323 64.9151 58.8335C68.5002 56.7118 71.3126 54.0822 73.0588 50.81L72.7807 50.6307C70.5554 53.5144 64.5133 57.5784 62.8444 57.5784Z" fill="#2C2A2A"/>
<path d="M87.6619 52.6179C88.6818 52.6179 89.5008 51.826 89.5008 50.8549C89.5008 49.8687 88.6818 49.0768 87.6619 49.0768C86.6575 49.0768 85.8385 49.8687 85.8385 50.8549C85.8385 51.826 86.6575 52.6179 87.6619 52.6179ZM87.6619 49.6894C88.3264 49.6894 88.8672 50.2124 88.8672 50.8549C88.8672 51.4973 88.3264 52.0053 87.6619 52.0053C86.9974 52.0053 86.472 51.4973 86.472 50.8549C86.472 50.2124 86.9974 49.6894 87.6619 49.6894ZM76.9684 55.5464C77.3702 56.0993 78.112 56.5624 78.7301 56.5624C79.2864 56.5624 79.5336 56.1291 79.8581 55.6361C80.3372 54.9039 81.4034 53.3351 81.8979 52.7225C82.1297 52.4386 82.2843 52.334 82.4388 52.334C82.6088 52.334 82.8251 52.4386 83.1187 52.7375C83.9995 53.5742 86.4102 56.174 87.3219 57.1451C88.5273 58.3703 89.3154 58.953 89.9026 58.953C90.3662 58.953 90.6598 58.6243 90.6598 58.1313C90.6598 57.5187 90.3198 56.8762 89.7326 56.5176C88.2182 55.5315 86.0239 53.5891 83.9068 51.6916C83.366 51.1985 82.9024 50.9744 82.377 50.9744C81.9288 50.9744 81.5734 51.2284 81.1717 51.6318C80.7081 52.095 79.3791 53.5891 78.591 54.2465C78.2047 54.5603 77.942 54.6948 77.7256 54.6948C77.5247 54.6948 77.1539 54.5454 76.8448 54.2764L76.6594 54.4109C76.6748 54.9039 76.7521 55.2476 76.9684 55.5464Z" fill="#2C2A2A"/>
<path d="M94.7239 52.8719C94.6776 53.2305 94.6312 53.6638 94.7703 54.0075C95.0484 54.7396 96.0065 55.7108 96.6092 55.7108C97.1964 55.7108 97.4282 55.3522 98.5408 55.2476C99.7307 55.1131 103.192 54.9039 104.367 54.9039C105.448 54.9039 105.989 54.9488 106.607 54.9488C107.256 54.9488 107.627 54.7396 107.627 54.3063C107.627 53.6638 106.824 53.2006 105.896 53.2006C105.526 53.2006 104.83 53.3202 103.795 53.4098C102.852 53.4845 98.1854 53.7834 96.5319 53.7834C95.7129 53.7834 95.4502 53.3799 94.9866 52.7823L94.7239 52.8719Z" fill="#2C2A2A"/>
<path d="M113.244 49.3906C114.727 50.4813 115.114 51.0342 115.84 52.0203C116.226 52.5432 116.551 52.8122 117.045 52.8122C117.648 52.8122 118.05 52.349 118.05 51.8111C118.05 50.2721 115.515 49.3906 113.383 49.1515L113.244 49.3906ZM114.928 57.5784C114.372 57.5784 113.831 57.0107 113.46 56.6521L113.244 56.7866C113.244 57.2198 113.398 57.8026 113.584 58.1462C113.893 58.7439 114.975 59.6254 115.855 59.6254C116.304 59.6254 116.504 59.1323 116.999 58.8335C120.584 56.7118 123.396 54.0822 125.143 50.81L124.865 50.6307C122.639 53.5144 116.597 57.5784 114.928 57.5784Z" fill="#2C2A2A"/>
<path d="M136.702 54.6948V50.7054H140.178V54.6948H136.702ZM131.324 54.6948V50.7054H134.77V54.6948H131.324ZM140.905 49.3458L140.039 50.2721H136.702V47.6574C137.119 47.5977 137.242 47.4333 137.273 47.2241L134.77 47V50.2721H131.463L129.408 49.4952V56.6073H129.686C130.474 56.6073 131.324 56.1889 131.324 56.0096V55.1281H134.77V61H135.125C135.867 61 136.702 60.5518 136.702 60.3575V55.1281H140.178V56.3831H140.503C141.137 56.3831 142.095 56.0544 142.11 55.9349V51.0192C142.435 50.9594 142.635 50.81 142.744 50.6905L140.905 49.3458Z" fill="#2C2A2A"/>
<path d="M150.733 59.8794C151.459 59.8794 152 59.3415 152 58.6841C152 58.0416 151.459 57.5037 150.733 57.5037C150.022 57.5037 149.497 58.0416 149.497 58.6841C149.497 59.3415 150.022 59.8794 150.733 59.8794ZM150.748 48.1953C150.053 48.1953 149.543 48.6286 149.543 49.54C149.543 50.2871 149.682 51.5123 150.177 54.1868L150.501 56.2038H150.996L151.32 54.1868C151.815 51.5123 151.938 50.2871 151.938 49.54C151.938 48.6286 151.444 48.1953 150.748 48.1953Z" fill="#2C2A2A"/>
<path d="M31.5575 27.552C32.5115 28.416 32.8355 29.118 33.6995 29.118C34.2035 29.118 34.5815 28.65 34.5815 28.164C34.5815 27.012 33.5195 26.418 32.2775 26.076C31.1795 25.824 30.3335 25.77 29.7395 25.752L29.6315 26.076C30.2075 26.418 30.8555 26.922 31.5575 27.552ZM29.7935 36.984C29.0915 36.984 28.4975 36.282 28.1015 35.868L27.8675 35.994C27.8855 36.48 28.0115 37.326 28.3175 37.794C28.8395 38.604 30.0455 39.414 30.8195 39.414C31.4315 39.414 31.6655 38.82 32.2595 38.478C36.1835 36.156 40.2515 32.466 42.0515 28.812L41.7275 28.596C38.6675 32.322 31.8635 36.984 29.7935 36.984ZM29.3795 31.476C30.2255 32.214 30.5675 33.006 31.4315 33.006C32.1695 33.006 32.3855 32.448 32.3855 32.016C32.3855 30.918 31.1435 30.198 29.8655 29.892C28.9115 29.658 28.1915 29.586 27.4535 29.532L27.3455 29.838C27.9035 30.162 28.5515 30.684 29.3795 31.476ZM48.5495 30.81C48.4955 31.242 48.4415 31.764 48.6035 32.178C48.9275 33.06 50.0435 34.23 50.7455 34.23C51.4295 34.23 51.6995 33.798 52.9955 33.672C54.3815 33.51 58.4135 33.258 59.7815 33.258C61.0415 33.258 61.6715 33.312 62.3915 33.312C63.1475 33.312 63.5795 33.06 63.5795 32.538C63.5795 31.764 62.6435 31.206 61.5635 31.206C61.1315 31.206 60.3215 31.35 59.1155 31.458C58.0175 31.548 52.5815 31.908 50.6555 31.908C49.7015 31.908 49.3955 31.422 48.8555 30.702L48.5495 30.81ZM76.1699 26.814C77.0159 27.012 77.5019 27.318 77.5379 27.822C77.6459 29.568 77.5739 34.158 77.4839 35.04C77.4119 35.76 77.1779 35.994 77.1779 36.408C77.1779 36.93 78.2399 38.262 78.9059 38.262C79.4099 38.262 79.7519 37.65 80.1659 37.38C82.3979 35.85 84.9359 33.582 86.4479 31.08L86.1599 30.846C84.1259 32.7 81.6599 34.41 79.6619 35.238C79.3919 35.346 79.2479 35.256 79.2479 34.968C79.2299 33.69 79.3559 29.892 79.4999 28.848C79.5899 28.182 80.0399 28.092 80.0399 27.606C80.0399 27.012 78.5819 26.112 77.6099 26.112C77.1059 26.112 76.7279 26.202 76.1519 26.508L76.1699 26.814ZM73.5779 30.036C73.5779 32.628 71.8319 36.48 69.0959 38.946L69.3299 39.216C73.0919 37.29 75.0539 34.176 75.6659 31.116C75.7559 30.666 76.1339 30.324 76.1339 29.874C76.1339 29.136 74.5139 28.254 73.6859 28.236C73.1459 28.236 72.6959 28.398 72.2999 28.542V28.848C72.9119 29.118 73.5779 29.46 73.5779 30.036ZM93.8099 27.804C93.9359 28.29 94.1699 28.776 94.4579 29.226C94.7999 29.748 95.3759 30.216 95.8799 30.216C96.4019 30.216 97.1759 30.036 98.3459 29.856C98.5979 30.306 98.7419 30.846 98.7419 31.638C98.7419 32.592 98.6879 34.05 98.6339 35.202C96.5279 35.382 94.4939 35.562 93.6839 35.562C92.9819 35.562 92.4419 35.238 91.9199 34.752L91.6859 34.86C91.6859 35.436 91.7399 35.742 91.8839 36.066C92.1179 36.624 93.1619 37.704 93.8819 37.704C94.3679 37.704 95.0339 37.362 95.8979 37.128C97.4459 36.714 100.146 36.39 101.964 36.426C104.448 36.462 106.23 37.074 106.932 37.074C107.436 37.074 107.778 36.696 107.778 36.21C107.778 35.472 105.996 34.428 105.042 34.428C104.754 34.428 104.52 34.662 103.494 34.77C102.72 34.824 101.64 34.914 100.47 35.022C100.56 33.87 100.686 32.736 100.812 31.98C100.902 31.476 101.208 31.08 101.208 30.72C101.208 30.324 100.686 29.946 100.02 29.64C102.072 29.406 103.656 29.334 104.358 29.262C105.006 29.208 105.258 28.83 105.258 28.398C105.258 27.804 103.728 27.138 102.72 27.138C102.306 27.138 102.252 27.696 99.8939 28.092C98.5079 28.308 96.9779 28.488 96.0059 28.488C95.2679 28.488 94.6379 28.146 94.0259 27.678L93.8099 27.804ZM121.476 27.93C121.71 27.588 121.944 27.264 122.142 26.922C122.448 26.454 122.682 26.382 122.682 25.986C122.682 25.536 121.296 24.78 120.108 24.726C119.514 24.69 119.19 24.762 118.848 24.834L118.794 25.086C119.37 25.392 119.802 25.824 119.802 26.166C119.802 27.318 117.444 30.882 114.528 33.276L114.762 33.6C117.084 32.592 119.172 30.81 120.738 28.902C121.062 29.154 121.35 29.334 121.566 29.334C121.908 29.334 122.196 29.226 122.574 29.1C123.096 28.938 124.392 28.65 124.77 28.65C124.986 28.65 125.076 28.74 124.986 28.992C123.474 32.754 119.298 37.308 114.726 39.756L114.942 40.098C120.828 38.046 124.536 34.392 127.182 29.802C127.506 29.262 128.208 29.082 128.208 28.578C128.208 27.84 126.372 26.886 125.832 26.886C125.436 26.886 125.13 27.318 124.68 27.462C124.176 27.642 122.106 27.93 121.476 27.93ZM138.022 26.742C138.004 27.228 138.04 27.696 138.166 28.056C138.382 28.722 139.228 29.766 140.02 29.766C140.524 29.766 140.74 29.334 141.334 29.136C142.234 28.83 144.538 28.146 145.258 28.074C145.456 28.074 145.564 28.146 145.456 28.416C143.998 31.926 139.57 36.516 135.34 38.712L135.538 39.09C139.912 37.74 142.702 35.238 144.358 33.546C146.032 34.662 146.734 35.94 147.562 37.308C148.174 38.262 148.642 38.802 149.344 38.802C150.064 38.802 150.46 38.19 150.46 37.632C150.46 35.652 147.814 33.942 144.862 33.024C146.032 31.728 146.968 30.18 147.58 29.28C147.796 28.974 148.624 28.704 148.624 28.182C148.624 27.606 147.004 26.22 146.23 26.22C145.852 26.22 145.546 26.742 145.096 26.85C144.232 27.066 141.082 27.66 139.84 27.66C139.228 27.66 138.724 27.138 138.328 26.616L138.022 26.742ZM160.513 25.842C161.161 27.12 161.737 27.786 162.871 27.786C164.383 27.786 167.281 27.3 168.721 26.976C169.297 26.85 169.459 26.616 169.459 26.256C169.459 25.536 168.703 25.158 167.515 25.158C167.263 25.158 166.993 25.41 166.111 25.644C165.355 25.842 163.969 26.202 162.655 26.202C162.061 26.202 161.431 26.13 160.693 25.68L160.513 25.842ZM157.975 29.676C157.939 30.108 157.957 30.54 158.083 30.864C158.299 31.476 159.199 32.34 159.811 32.34C160.333 32.322 160.981 32.016 161.593 31.818C162.169 31.638 163.465 31.35 164.671 31.17C164.779 31.368 164.815 31.584 164.815 31.782C164.815 33.186 163.447 37.164 159.523 39.846L159.793 40.17C163.843 38.442 165.643 35.724 166.543 33.672C166.957 32.79 167.407 32.592 167.407 32.142C167.407 31.746 166.975 31.368 166.327 30.972C167.551 30.846 168.703 30.792 169.495 30.792C170.521 30.792 171.439 30.99 171.835 30.99C172.321 30.99 172.591 30.846 172.591 30.252C172.591 29.532 171.385 28.938 170.251 28.938C170.071 28.938 169.693 29.154 168.469 29.298C166.039 29.568 160.765 30.36 159.541 30.36C158.983 30.36 158.659 30.018 158.191 29.586L157.975 29.676Z" fill="#2C2A2A"/>
<mask id="path-5-outside-1" maskUnits="userSpaceOnUse" x="153.264" y="7.26747" width="226.237" height="77.7715" fill="black">
<rect fill="white" x="153.264" y="7.26747" width="226.237" height="77.7715"/>
<path d="M197.819 49.9955C198.457 49.8987 198.924 49.5963 198.985 49.0776C196.712 47.6159 192.954 45.5919 192.954 45.5919L190.554 49.7538L179.02 51.5026C178.783 47.7868 178.245 43.9313 177.739 39.9784C178.806 39.6314 179.148 39.1164 179.181 38.4166L172.612 38.7642C173.319 43.4277 174.044 47.9032 174.325 52.2145L156.911 54.8549L157.52 56.1057L174.433 53.5414C174.936 63.9329 172.55 73.4192 160.677 82.7692L161.288 83.4176C176.424 74.3604 179.393 64.4151 179.088 53.484C181.73 62.3006 186.954 72.7637 199.444 77.6323C199.575 75.1113 200.803 73.6746 203.02 72.9215L203.036 72.4096C189.069 68.8765 182.646 60.9575 179.766 52.7327L197.819 49.9955Z"/>
<path d="M241.057 33.2498C241.695 33.153 242.116 32.8575 242.178 32.3387C240.251 31.0098 237.133 29.2128 237.133 29.2128L235.114 32.8076L217.289 35.5102L217.853 36.7679L241.057 33.2498ZM225.943 47.6766L224.961 41.202L235.081 39.6676L236.063 46.1422L225.943 47.6766ZM237.339 49.3299C239.482 49.005 240.778 48.021 240.751 47.8399L239.446 39.2373C240.383 38.9563 240.798 38.6156 241.016 38.2119L236.453 35.8004L234.752 38.4206L225.27 39.8583L220.391 38.7453L222.423 52.1472L223.153 52.0366C225.25 51.7187 226.409 50.7554 226.368 50.4838L226.142 48.9897L236.262 47.4552L236.564 49.4474L237.339 49.3299ZM210.86 42.321L213.368 41.9409L216.127 60.1421C216.203 60.6402 216.094 60.842 215.638 60.9111C215.227 60.9733 214.028 61.0625 213.703 61.0656L210.86 42.321ZM214.097 38.449L212.72 40.7422L211.033 40.998L210.127 35.0214C211.239 34.6675 211.581 34.1525 211.53 33.5118L205.704 33.8393L206.885 41.627L205.152 41.8896L201.251 40.7673L205.309 67.5259L205.81 67.4499C207.36 67.2149 208.597 66.1473 208.542 65.7851L205.117 43.1919L207.396 42.8463L212.352 75.5362L212.899 75.4532C214.404 75.2251 215.641 74.1575 215.645 73.879L213.806 61.7448C214.752 61.8329 215.255 62.0807 215.611 62.5826C216.013 63.0775 216.248 64.0145 216.406 65.0559C219.77 64.1753 219.961 62.6642 219.563 60.0381L216.844 42.1085C217.774 41.7823 218.396 41.2711 218.667 40.9058L214.097 38.449ZM236.064 67.6797L235.103 61.341L240.528 60.5184L241.489 66.8572L236.064 67.6797ZM226.077 62.7095L231.456 61.8939L232.417 68.2327L227.038 69.0483L226.077 62.7095ZM230.337 54.5138L231.257 60.5809L225.878 61.3965L224.958 55.3294L230.337 54.5138ZM239.409 53.1383L240.329 59.2054L234.904 60.0279L233.984 53.9608L239.409 53.1383ZM240.722 49.1875L239.027 51.8529L225.306 53.9335L220.479 52.8588L223.672 73.9126L224.401 73.802C226.452 73.4909 227.566 72.5346 227.518 72.2177L227.23 70.316L241.681 68.125L242.1 70.8868L242.784 70.7832C244.881 70.4652 246.177 69.4812 246.136 69.2096L243.644 52.7741C244.626 52.4862 245.041 52.1454 245.253 51.6964L240.722 49.1875Z"/>
<path d="M279.701 35.7276L280.491 40.9344L270.826 42.3997L270.037 37.1929L279.701 35.7276ZM272.817 55.53L272 50.1421L281.664 48.6767L282.481 54.0647L272.817 55.53ZM271.025 43.7127L280.69 42.2474L281.465 47.3637L271.801 48.829L271.025 43.7127ZM258.397 31.7786L258.96 33.0363L270.995 31.2115C271.151 32.8553 271.332 34.3564 271.433 35.6379L270.385 35.7969L265.506 34.684L269.391 60.3106L270.03 60.2139C272.172 59.889 273.332 58.9258 273.284 58.6088L273.016 56.843L282.68 55.3777L283.017 57.5963L283.701 57.4926C285.843 57.1677 287.21 56.0341 287.176 55.8077L284.087 35.4331C285.017 35.1069 285.516 34.707 285.78 34.2964L281.046 31.6793L279.32 34.4422L275.126 35.0781C275.116 33.7827 275.11 32.2087 275.052 30.5964L286.267 28.896C286.905 28.7993 287.372 28.4968 287.388 27.985C285.363 26.6246 282.056 24.81 282.056 24.81L279.913 28.5161L275.036 29.2557C274.991 27.7339 274.961 26.3027 274.912 25.0595C275.888 24.7263 276.359 24.1453 276.348 23.4523L270.202 23.8283C270.438 25.6916 270.663 27.7881 270.887 29.8847L258.397 31.7786ZM252.066 26.6245C251.417 35.5696 249.045 45.1465 246.393 51.3383L247.047 51.656C248.539 49.8086 249.899 47.7034 251.14 45.431L254.744 69.2013L255.519 69.0838C257.205 68.8281 258.748 67.6215 258.746 67.2976L254.688 40.539C255.534 40.2719 255.896 39.8927 255.971 39.4645L254.045 39.0618C255.278 35.8178 256.295 32.3751 257.05 28.7405C258.053 28.5884 258.552 28.1886 258.652 27.6176L252.066 26.6245ZM284.89 60.4155L266.336 63.2287L262.609 38.6434C263.675 38.2964 263.978 37.8336 264.019 37.179L258.329 37.4858L262.936 67.8666L263.711 67.7491C265.169 67.5279 266.817 66.3981 266.748 65.9453L266.535 64.5417L291.334 60.7816C291.973 60.6849 292.44 60.3824 292.455 59.8706C290.378 58.4718 287.026 56.6642 287.026 56.6642L284.89 60.4155Z"/>
<path d="M321.563 20.4872L287.51 25.6505L288.074 26.9082L305.716 24.2333L311.236 60.6359L312.056 60.5114C314.335 60.1658 315.643 58.9486 315.588 58.5863L311.538 31.873C315.594 33.7128 320.572 36.7098 323.006 39.5367C328.434 40.8905 328.372 30.9418 311.38 30.8317L310.275 23.5421L328.783 20.7358C329.467 20.6322 329.934 20.3297 329.995 19.811C327.676 18.3562 323.918 16.3322 323.918 16.3322L321.563 20.4872Z"/>
<path d="M361.355 13.6665C363.485 15.1037 364.63 16.5048 365.538 17.5714C366.393 18.5997 366.941 19.443 367.67 19.3324C368.498 19.2533 368.969 18.6723 368.891 17.8504C368.799 16.9379 368.423 16.3003 367.353 15.3971C366.015 14.2569 364.184 13.5618 361.851 12.9428L361.355 13.6665ZM343.919 34.0035C343.173 37.081 341.938 41.8537 341.169 43.5452C340.9 44.2343 340.49 44.2965 340.022 43.6727C339.429 42.8363 338.89 41.4358 338.602 39.5342C338.039 35.8215 339.037 31.6405 340.127 28.3719C340.715 26.7081 341.22 25.4272 341.041 24.25C340.691 21.9409 337.957 19.9006 336.603 19.2723C335.556 18.8288 334.674 18.5458 333.29 18.3387L332.832 19.0103C334.479 20.3354 335.872 21.8378 336.167 23.7847C336.792 27.9049 334.913 34.5817 335.833 40.6488C336.657 46.082 338.592 49.3088 340.132 51.1596C341.113 52.4004 342.2 53.1155 343.34 52.9427C344.571 52.7561 345.197 51.9663 345.019 50.7891C344.772 49.1592 343.832 48.19 343.598 46.6506C343.427 45.5187 343.472 44.5855 343.594 43.5479C343.776 41.6678 344.434 37.3993 344.984 34.259L343.919 34.0035ZM353.037 17.2436C354.211 17.2972 355.378 17.3055 356.313 17.627C356.94 17.7635 357.268 18.0843 357.556 19.0596C357.892 20.3519 358.406 22.8214 358.9 25.155C357.177 25.7868 355.44 26.3281 353.936 26.5561C351.52 26.9225 349.352 26.4638 346.604 25.2593L346.146 25.9308C349.032 29.8934 352.171 30.2975 354.952 29.8759C356.502 29.6409 358.077 29.2631 359.638 28.7948C360.459 32.9779 361.371 38.0735 360.683 41.837C359.947 47.1361 357.389 50.2567 353.331 53.3268L353.865 54.0796C359.271 51.5925 363.349 48.6582 364.664 43.1787C365.746 38.9386 364.313 32.2546 363.312 27.4967C365.639 26.5418 367.587 25.5516 368.736 24.8216C369.884 24.0917 370.205 23.4409 370.075 22.5806C369.889 21.3581 368.177 20.8304 366.764 21.0446C366.445 21.093 366.051 21.5696 364.513 22.4976C363.961 22.8591 363.266 23.1961 362.532 23.5853C362.267 22.1433 362.061 20.785 361.963 19.8273C361.768 18.2357 362.289 17.3692 362.18 16.6448C361.96 15.1959 358.556 14.2762 356.55 14.5803C355.502 14.7393 353.95 15.5767 352.822 16.4425L353.037 17.2436ZM364.453 10.4177C366.713 11.7888 367.778 12.9705 368.666 13.9013C369.605 14.8704 370.251 15.7452 370.98 15.6346C371.846 15.5033 372.22 14.8909 372.103 14.1211C371.998 13.1181 371.523 12.449 370.324 11.6119C369.012 10.6528 367.353 10.1634 364.904 9.70088L364.453 10.4177Z"/>
</mask>
<path d="M197.819 49.9955C198.457 49.8987 198.924 49.5963 198.985 49.0776C196.712 47.6159 192.954 45.5919 192.954 45.5919L190.554 49.7538L179.02 51.5026C178.783 47.7868 178.245 43.9313 177.739 39.9784C178.806 39.6314 179.148 39.1164 179.181 38.4166L172.612 38.7642C173.319 43.4277 174.044 47.9032 174.325 52.2145L156.911 54.8549L157.52 56.1057L174.433 53.5414C174.936 63.9329 172.55 73.4192 160.677 82.7692L161.288 83.4176C176.424 74.3604 179.393 64.4151 179.088 53.484C181.73 62.3006 186.954 72.7637 199.444 77.6323C199.575 75.1113 200.803 73.6746 203.02 72.9215L203.036 72.4096C189.069 68.8765 182.646 60.9575 179.766 52.7327L197.819 49.9955Z" fill="#2C2A2A"/>
<path d="M241.057 33.2498C241.695 33.153 242.116 32.8575 242.178 32.3387C240.251 31.0098 237.133 29.2128 237.133 29.2128L235.114 32.8076L217.289 35.5102L217.853 36.7679L241.057 33.2498ZM225.943 47.6766L224.961 41.202L235.081 39.6676L236.063 46.1422L225.943 47.6766ZM237.339 49.3299C239.482 49.005 240.778 48.021 240.751 47.8399L239.446 39.2373C240.383 38.9563 240.798 38.6156 241.016 38.2119L236.453 35.8004L234.752 38.4206L225.27 39.8583L220.391 38.7453L222.423 52.1472L223.153 52.0366C225.25 51.7187 226.409 50.7554 226.368 50.4838L226.142 48.9897L236.262 47.4552L236.564 49.4474L237.339 49.3299ZM210.86 42.321L213.368 41.9409L216.127 60.1421C216.203 60.6402 216.094 60.842 215.638 60.9111C215.227 60.9733 214.028 61.0625 213.703 61.0656L210.86 42.321ZM214.097 38.449L212.72 40.7422L211.033 40.998L210.127 35.0214C211.239 34.6675 211.581 34.1525 211.53 33.5118L205.704 33.8393L206.885 41.627L205.152 41.8896L201.251 40.7673L205.309 67.5259L205.81 67.4499C207.36 67.2149 208.597 66.1473 208.542 65.7851L205.117 43.1919L207.396 42.8463L212.352 75.5362L212.899 75.4532C214.404 75.2251 215.641 74.1575 215.645 73.879L213.806 61.7448C214.752 61.8329 215.255 62.0807 215.611 62.5826C216.013 63.0775 216.248 64.0145 216.406 65.0559C219.77 64.1753 219.961 62.6642 219.563 60.0381L216.844 42.1085C217.774 41.7823 218.396 41.2711 218.667 40.9058L214.097 38.449ZM236.064 67.6797L235.103 61.341L240.528 60.5184L241.489 66.8572L236.064 67.6797ZM226.077 62.7095L231.456 61.8939L232.417 68.2327L227.038 69.0483L226.077 62.7095ZM230.337 54.5138L231.257 60.5809L225.878 61.3965L224.958 55.3294L230.337 54.5138ZM239.409 53.1383L240.329 59.2054L234.904 60.0279L233.984 53.9608L239.409 53.1383ZM240.722 49.1875L239.027 51.8529L225.306 53.9335L220.479 52.8588L223.672 73.9126L224.401 73.802C226.452 73.4909 227.566 72.5346 227.518 72.2177L227.23 70.316L241.681 68.125L242.1 70.8868L242.784 70.7832C244.881 70.4652 246.177 69.4812 246.136 69.2096L243.644 52.7741C244.626 52.4862 245.041 52.1454 245.253 51.6964L240.722 49.1875Z" fill="#2C2A2A"/>
<path d="M279.701 35.7276L280.491 40.9344L270.826 42.3997L270.037 37.1929L279.701 35.7276ZM272.817 55.53L272 50.1421L281.664 48.6767L282.481 54.0647L272.817 55.53ZM271.025 43.7127L280.69 42.2474L281.465 47.3637L271.801 48.829L271.025 43.7127ZM258.397 31.7786L258.96 33.0363L270.995 31.2115C271.151 32.8553 271.332 34.3564 271.433 35.6379L270.385 35.7969L265.506 34.684L269.391 60.3106L270.03 60.2139C272.172 59.889 273.332 58.9258 273.284 58.6088L273.016 56.843L282.68 55.3777L283.017 57.5963L283.701 57.4926C285.843 57.1677 287.21 56.0341 287.176 55.8077L284.087 35.4331C285.017 35.1069 285.516 34.707 285.78 34.2964L281.046 31.6793L279.32 34.4422L275.126 35.0781C275.116 33.7827 275.11 32.2087 275.052 30.5964L286.267 28.896C286.905 28.7993 287.372 28.4968 287.388 27.985C285.363 26.6246 282.056 24.81 282.056 24.81L279.913 28.5161L275.036 29.2557C274.991 27.7339 274.961 26.3027 274.912 25.0595C275.888 24.7263 276.359 24.1453 276.348 23.4523L270.202 23.8283C270.438 25.6916 270.663 27.7881 270.887 29.8847L258.397 31.7786ZM252.066 26.6245C251.417 35.5696 249.045 45.1465 246.393 51.3383L247.047 51.656C248.539 49.8086 249.899 47.7034 251.14 45.431L254.744 69.2013L255.519 69.0838C257.205 68.8281 258.748 67.6215 258.746 67.2976L254.688 40.539C255.534 40.2719 255.896 39.8927 255.971 39.4645L254.045 39.0618C255.278 35.8178 256.295 32.3751 257.05 28.7405C258.053 28.5884 258.552 28.1886 258.652 27.6176L252.066 26.6245ZM284.89 60.4155L266.336 63.2287L262.609 38.6434C263.675 38.2964 263.978 37.8336 264.019 37.179L258.329 37.4858L262.936 67.8666L263.711 67.7491C265.169 67.5279 266.817 66.3981 266.748 65.9453L266.535 64.5417L291.334 60.7816C291.973 60.6849 292.44 60.3824 292.455 59.8706C290.378 58.4718 287.026 56.6642 287.026 56.6642L284.89 60.4155Z" fill="#2C2A2A"/>
<path d="M321.563 20.4872L287.51 25.6505L288.074 26.9082L305.716 24.2333L311.236 60.6359L312.056 60.5114C314.335 60.1658 315.643 58.9486 315.588 58.5863L311.538 31.873C315.594 33.7128 320.572 36.7098 323.006 39.5367C328.434 40.8905 328.372 30.9418 311.38 30.8317L310.275 23.5421L328.783 20.7358C329.467 20.6322 329.934 20.3297 329.995 19.811C327.676 18.3562 323.918 16.3322 323.918 16.3322L321.563 20.4872Z" fill="#2C2A2A"/>
<path d="M361.355 13.6665C363.485 15.1037 364.63 16.5048 365.538 17.5714C366.393 18.5997 366.941 19.443 367.67 19.3324C368.498 19.2533 368.969 18.6723 368.891 17.8504C368.799 16.9379 368.423 16.3003 367.353 15.3971C366.015 14.2569 364.184 13.5618 361.851 12.9428L361.355 13.6665ZM343.919 34.0035C343.173 37.081 341.938 41.8537 341.169 43.5452C340.9 44.2343 340.49 44.2965 340.022 43.6727C339.429 42.8363 338.89 41.4358 338.602 39.5342C338.039 35.8215 339.037 31.6405 340.127 28.3719C340.715 26.7081 341.22 25.4272 341.041 24.25C340.691 21.9409 337.957 19.9006 336.603 19.2723C335.556 18.8288 334.674 18.5458 333.29 18.3387L332.832 19.0103C334.479 20.3354 335.872 21.8378 336.167 23.7847C336.792 27.9049 334.913 34.5817 335.833 40.6488C336.657 46.082 338.592 49.3088 340.132 51.1596C341.113 52.4004 342.2 53.1155 343.34 52.9427C344.571 52.7561 345.197 51.9663 345.019 50.7891C344.772 49.1592 343.832 48.19 343.598 46.6506C343.427 45.5187 343.472 44.5855 343.594 43.5479C343.776 41.6678 344.434 37.3993 344.984 34.259L343.919 34.0035ZM353.037 17.2436C354.211 17.2972 355.378 17.3055 356.313 17.627C356.94 17.7635 357.268 18.0843 357.556 19.0596C357.892 20.3519 358.406 22.8214 358.9 25.155C357.177 25.7868 355.44 26.3281 353.936 26.5561C351.52 26.9225 349.352 26.4638 346.604 25.2593L346.146 25.9308C349.032 29.8934 352.171 30.2975 354.952 29.8759C356.502 29.6409 358.077 29.2631 359.638 28.7948C360.459 32.9779 361.371 38.0735 360.683 41.837C359.947 47.1361 357.389 50.2567 353.331 53.3268L353.865 54.0796C359.271 51.5925 363.349 48.6582 364.664 43.1787C365.746 38.9386 364.313 32.2546 363.312 27.4967C365.639 26.5418 367.587 25.5516 368.736 24.8216C369.884 24.0917 370.205 23.4409 370.075 22.5806C369.889 21.3581 368.177 20.8304 366.764 21.0446C366.445 21.093 366.051 21.5696 364.513 22.4976C363.961 22.8591 363.266 23.1961 362.532 23.5853C362.267 22.1433 362.061 20.785 361.963 19.8273C361.768 18.2357 362.289 17.3692 362.18 16.6448C361.96 15.1959 358.556 14.2762 356.55 14.5803C355.502 14.7393 353.95 15.5767 352.822 16.4425L353.037 17.2436ZM364.453 10.4177C366.713 11.7888 367.778 12.9705 368.666 13.9013C369.605 14.8704 370.251 15.7452 370.98 15.6346C371.846 15.5033 372.22 14.8909 372.103 14.1211C371.998 13.1181 371.523 12.449 370.324 11.6119C369.012 10.6528 367.353 10.1634 364.904 9.70088L364.453 10.4177Z" fill="#2C2A2A"/>
<path d="M197.819 49.9955C198.457 49.8987 198.924 49.5963 198.985 49.0776C196.712 47.6159 192.954 45.5919 192.954 45.5919L190.554 49.7538L179.02 51.5026C178.783 47.7868 178.245 43.9313 177.739 39.9784C178.806 39.6314 179.148 39.1164 179.181 38.4166L172.612 38.7642C173.319 43.4277 174.044 47.9032 174.325 52.2145L156.911 54.8549L157.52 56.1057L174.433 53.5414C174.936 63.9329 172.55 73.4192 160.677 82.7692L161.288 83.4176C176.424 74.3604 179.393 64.4151 179.088 53.484C181.73 62.3006 186.954 72.7637 199.444 77.6323C199.575 75.1113 200.803 73.6746 203.02 72.9215L203.036 72.4096C189.069 68.8765 182.646 60.9575 179.766 52.7327L197.819 49.9955Z" stroke="#F7B1B1" stroke-width="2" stroke-linecap="round" stroke-linejoin="round" mask="url(#path-5-outside-1)"/>
<path d="M241.057 33.2498C241.695 33.153 242.116 32.8575 242.178 32.3387C240.251 31.0098 237.133 29.2128 237.133 29.2128L235.114 32.8076L217.289 35.5102L217.853 36.7679L241.057 33.2498ZM225.943 47.6766L224.961 41.202L235.081 39.6676L236.063 46.1422L225.943 47.6766ZM237.339 49.3299C239.482 49.005 240.778 48.021 240.751 47.8399L239.446 39.2373C240.383 38.9563 240.798 38.6156 241.016 38.2119L236.453 35.8004L234.752 38.4206L225.27 39.8583L220.391 38.7453L222.423 52.1472L223.153 52.0366C225.25 51.7187 226.409 50.7554 226.368 50.4838L226.142 48.9897L236.262 47.4552L236.564 49.4474L237.339 49.3299ZM210.86 42.321L213.368 41.9409L216.127 60.1421C216.203 60.6402 216.094 60.842 215.638 60.9111C215.227 60.9733 214.028 61.0625 213.703 61.0656L210.86 42.321ZM214.097 38.449L212.72 40.7422L211.033 40.998L210.127 35.0214C211.239 34.6675 211.581 34.1525 211.53 33.5118L205.704 33.8393L206.885 41.627L205.152 41.8896L201.251 40.7673L205.309 67.5259L205.81 67.4499C207.36 67.2149 208.597 66.1473 208.542 65.7851L205.117 43.1919L207.396 42.8463L212.352 75.5362L212.899 75.4532C214.404 75.2251 215.641 74.1575 215.645 73.879L213.806 61.7448C214.752 61.8329 215.255 62.0807 215.611 62.5826C216.013 63.0775 216.248 64.0145 216.406 65.0559C219.77 64.1753 219.961 62.6642 219.563 60.0381L216.844 42.1085C217.774 41.7823 218.396 41.2711 218.667 40.9058L214.097 38.449ZM236.064 67.6797L235.103 61.341L240.528 60.5184L241.489 66.8572L236.064 67.6797ZM226.077 62.7095L231.456 61.8939L232.417 68.2327L227.038 69.0483L226.077 62.7095ZM230.337 54.5138L231.257 60.5809L225.878 61.3965L224.958 55.3294L230.337 54.5138ZM239.409 53.1383L240.329 59.2054L234.904 60.0279L233.984 53.9608L239.409 53.1383ZM240.722 49.1875L239.027 51.8529L225.306 53.9335L220.479 52.8588L223.672 73.9126L224.401 73.802C226.452 73.4909 227.566 72.5346 227.518 72.2177L227.23 70.316L241.681 68.125L242.1 70.8868L242.784 70.7832C244.881 70.4652 246.177 69.4812 246.136 69.2096L243.644 52.7741C244.626 52.4862 245.041 52.1454 245.253 51.6964L240.722 49.1875Z" stroke="#F7B1B1" stroke-width="2" stroke-linecap="round" stroke-linejoin="round" mask="url(#path-5-outside-1)"/>
<path d="M279.701 35.7276L280.491 40.9344L270.826 42.3997L270.037 37.1929L279.701 35.7276ZM272.817 55.53L272 50.1421L281.664 48.6767L282.481 54.0647L272.817 55.53ZM271.025 43.7127L280.69 42.2474L281.465 47.3637L271.801 48.829L271.025 43.7127ZM258.397 31.7786L258.96 33.0363L270.995 31.2115C271.151 32.8553 271.332 34.3564 271.433 35.6379L270.385 35.7969L265.506 34.684L269.391 60.3106L270.03 60.2139C272.172 59.889 273.332 58.9258 273.284 58.6088L273.016 56.843L282.68 55.3777L283.017 57.5963L283.701 57.4926C285.843 57.1677 287.21 56.0341 287.176 55.8077L284.087 35.4331C285.017 35.1069 285.516 34.707 285.78 34.2964L281.046 31.6793L279.32 34.4422L275.126 35.0781C275.116 33.7827 275.11 32.2087 275.052 30.5964L286.267 28.896C286.905 28.7993 287.372 28.4968 287.388 27.985C285.363 26.6246 282.056 24.81 282.056 24.81L279.913 28.5161L275.036 29.2557C274.991 27.7339 274.961 26.3027 274.912 25.0595C275.888 24.7263 276.359 24.1453 276.348 23.4523L270.202 23.8283C270.438 25.6916 270.663 27.7881 270.887 29.8847L258.397 31.7786ZM252.066 26.6245C251.417 35.5696 249.045 45.1465 246.393 51.3383L247.047 51.656C248.539 49.8086 249.899 47.7034 251.14 45.431L254.744 69.2013L255.519 69.0838C257.205 68.8281 258.748 67.6215 258.746 67.2976L254.688 40.539C255.534 40.2719 255.896 39.8927 255.971 39.4645L254.045 39.0618C255.278 35.8178 256.295 32.3751 257.05 28.7405C258.053 28.5884 258.552 28.1886 258.652 27.6176L252.066 26.6245ZM284.89 60.4155L266.336 63.2287L262.609 38.6434C263.675 38.2964 263.978 37.8336 264.019 37.179L258.329 37.4858L262.936 67.8666L263.711 67.7491C265.169 67.5279 266.817 66.3981 266.748 65.9453L266.535 64.5417L291.334 60.7816C291.973 60.6849 292.44 60.3824 292.455 59.8706C290.378 58.4718 287.026 56.6642 287.026 56.6642L284.89 60.4155Z" stroke="#F7B1B1" stroke-width="2" stroke-linecap="round" stroke-linejoin="round" mask="url(#path-5-outside-1)"/>
<path d="M321.563 20.4872L287.51 25.6505L288.074 26.9082L305.716 24.2333L311.236 60.6359L312.056 60.5114C314.335 60.1658 315.643 58.9486 315.588 58.5863L311.538 31.873C315.594 33.7128 320.572 36.7098 323.006 39.5367C328.434 40.8905 328.372 30.9418 311.38 30.8317L310.275 23.5421L328.783 20.7358C329.467 20.6322 329.934 20.3297 329.995 19.811C327.676 18.3562 323.918 16.3322 323.918 16.3322L321.563 20.4872Z" stroke="#F7B1B1" stroke-width="2" stroke-linecap="round" stroke-linejoin="round" mask="url(#path-5-outside-1)"/>
<path d="M361.355 13.6665C363.485 15.1037 364.63 16.5048 365.538 17.5714C366.393 18.5997 366.941 19.443 367.67 19.3324C368.498 19.2533 368.969 18.6723 368.891 17.8504C368.799 16.9379 368.423 16.3003 367.353 15.3971C366.015 14.2569 364.184 13.5618 361.851 12.9428L361.355 13.6665ZM343.919 34.0035C343.173 37.081 341.938 41.8537 341.169 43.5452C340.9 44.2343 340.49 44.2965 340.022 43.6727C339.429 42.8363 338.89 41.4358 338.602 39.5342C338.039 35.8215 339.037 31.6405 340.127 28.3719C340.715 26.7081 341.22 25.4272 341.041 24.25C340.691 21.9409 337.957 19.9006 336.603 19.2723C335.556 18.8288 334.674 18.5458 333.29 18.3387L332.832 19.0103C334.479 20.3354 335.872 21.8378 336.167 23.7847C336.792 27.9049 334.913 34.5817 335.833 40.6488C336.657 46.082 338.592 49.3088 340.132 51.1596C341.113 52.4004 342.2 53.1155 343.34 52.9427C344.571 52.7561 345.197 51.9663 345.019 50.7891C344.772 49.1592 343.832 48.19 343.598 46.6506C343.427 45.5187 343.472 44.5855 343.594 43.5479C343.776 41.6678 344.434 37.3993 344.984 34.259L343.919 34.0035ZM353.037 17.2436C354.211 17.2972 355.378 17.3055 356.313 17.627C356.94 17.7635 357.268 18.0843 357.556 19.0596C357.892 20.3519 358.406 22.8214 358.9 25.155C357.177 25.7868 355.44 26.3281 353.936 26.5561C351.52 26.9225 349.352 26.4638 346.604 25.2593L346.146 25.9308C349.032 29.8934 352.171 30.2975 354.952 29.8759C356.502 29.6409 358.077 29.2631 359.638 28.7948C360.459 32.9779 361.371 38.0735 360.683 41.837C359.947 47.1361 357.389 50.2567 353.331 53.3268L353.865 54.0796C359.271 51.5925 363.349 48.6582 364.664 43.1787C365.746 38.9386 364.313 32.2546 363.312 27.4967C365.639 26.5418 367.587 25.5516 368.736 24.8216C369.884 24.0917 370.205 23.4409 370.075 22.5806C369.889 21.3581 368.177 20.8304 366.764 21.0446C366.445 21.093 366.051 21.5696 364.513 22.4976C363.961 22.8591 363.266 23.1961 362.532 23.5853C362.267 22.1433 362.061 20.785 361.963 19.8273C361.768 18.2357 362.289 17.3692 362.18 16.6448C361.96 15.1959 358.556 14.2762 356.55 14.5803C355.502 14.7393 353.95 15.5767 352.822 16.4425L353.037 17.2436ZM364.453 10.4177C366.713 11.7888 367.778 12.9705 368.666 13.9013C369.605 14.8704 370.251 15.7452 370.98 15.6346C371.846 15.5033 372.22 14.8909 372.103 14.1211C371.998 13.1181 371.523 12.449 370.324 11.6119C369.012 10.6528 367.353 10.1634 364.904 9.70088L364.453 10.4177Z" stroke="#F7B1B1" stroke-width="2" stroke-linecap="round" stroke-linejoin="round" mask="url(#path-5-outside-1)"/>
<g clip-path="url(#clip1)">
<path d="M321.496 72.7906C321.422 72.1884 320.993 71.6901 320.408 71.528C319.823 71.3658 319.199 71.5718 318.825 72.0499L312.707 79.8806L282.843 58.8346C282.19 58.374 281.29 58.5071 280.797 59.1372L274.675 66.9735C274.422 67.2971 274.313 67.7102 274.373 68.1165C274.433 68.5227 274.657 68.8866 274.993 69.1231L304.736 90.0838L298.709 97.7977C298.336 98.2758 298.287 98.9318 298.586 99.4598C298.884 99.9879 299.472 100.284 300.074 100.21L323.006 97.3942C323.828 97.2932 324.413 96.5448 324.312 95.7225L321.496 72.7906Z" fill="#2C2A2A" stroke="url(#paint2_linear)" stroke-width="3" stroke-linecap="round" stroke-linejoin="round"/>
</g>
<g clip-path="url(#clip2)">
<path d="M231.984 0.729664L231.396 -4.06277L228.423 -0.257898L222.598 7.1977L193.124 -13.5741L191.567 -14.6707L190.395 -13.1706L184.273 -5.33431L182.98 -3.67856L184.697 -2.46817L214.011 18.1899L208.307 25.4899L205.335 29.2947L210.127 28.7063L233.059 25.8904L235.044 25.6467L234.8 23.6616L231.984 0.729664Z" fill="#2C2A2A" stroke="#F6A9A9" stroke-width="4"/>
</g>
</g>
<defs>
<linearGradient id="paint0_linear" x1="187.5" y1="-1.47725e-05" x2="187.5" y2="144.648" gradientUnits="userSpaceOnUse">
<stop stop-color="#F6A6A6"/>
<stop offset="0.25" stop-color="#F6A6A6" stop-opacity="0.8"/>
<stop offset="0.510417" stop-color="#F6A6A6" stop-opacity="0.6"/>
<stop offset="0.760417" stop-color="#F6A6A6" stop-opacity="0.4"/>
<stop offset="1" stop-color="#F6A6A6" stop-opacity="0.2"/>
</linearGradient>
<linearGradient id="paint1_linear" x1="187.5" y1="8.99999" x2="187.5" y2="127.08" gradientUnits="userSpaceOnUse">
<stop stop-color="#F6A6A6"/>
<stop offset="0.25" stop-color="#F6A6A6" stop-opacity="0.8"/>
<stop offset="0.510417" stop-color="#F6A6A6" stop-opacity="0.6"/>
<stop offset="0.760417" stop-color="#F6A6A6" stop-opacity="0.4"/>
<stop offset="1" stop-color="#F6A6A6" stop-opacity="0.2"/>
</linearGradient>
<linearGradient id="paint2_linear" x1="308" y1="63.5" x2="308" y2="99.5" gradientUnits="userSpaceOnUse">
<stop stop-color="#F6A9A9"/>
<stop offset="1" stop-color="#FBD3D3"/>
</linearGradient>
<clipPath id="clip0">
<rect width="375" height="98" fill="white"/>
</clipPath>
<clipPath id="clip1">
<rect width="71.9589" height="42.974" fill="white" transform="translate(259.008 71.355) rotate(-7.00035)"/>
</clipPath>
<clipPath id="clip2">
<rect width="60.3475" height="32.1449" fill="white" transform="translate(169 -0.64502) rotate(-7.00035)"/>
</clipPath>
</defs>
</svg>
