<svg width="918" height="160" viewBox="0 0 918 160" fill="none" xmlns="http://www.w3.org/2000/svg">
<g clip-path="url(#clip0)">
<rect width="918" height="160" fill="white"/>
<rect width="918" height="160" fill="url(#paint0_linear)"/>
<rect x="9.5" y="9.5" width="899" height="141" fill="url(#paint1_linear)" stroke="#2C2A2A" stroke-width="3"/>
<path d="M45.4405 76.4038C46.8992 77.7456 47.3947 78.8358 48.7158 78.8358C49.4864 78.8358 50.0644 78.109 50.0644 77.3542C50.0644 75.5651 48.4405 74.6426 46.5414 74.1115C44.8625 73.7201 43.5689 73.6362 42.6606 73.6083L42.4955 74.1115C43.3762 74.6426 44.3671 75.4253 45.4405 76.4038ZM42.7432 91.052C41.6698 91.052 40.7615 89.9618 40.156 89.3188L39.7982 89.5145C39.8257 90.2693 40.0184 91.5832 40.4863 92.31C41.2844 93.5679 43.1285 94.8259 44.312 94.8259C45.2478 94.8259 45.6056 93.9034 46.5139 93.3723C52.514 89.7661 58.7343 84.0354 61.4867 78.3606L60.9912 78.0251C56.3123 83.8118 45.9084 91.052 42.7432 91.052ZM42.1102 82.4979C43.4038 83.644 43.9267 84.874 45.2478 84.874C46.3763 84.874 46.7066 84.0074 46.7066 83.3365C46.7066 81.6313 44.8075 80.5131 42.8533 80.0379C41.3945 79.6745 40.2936 79.5626 39.1651 79.4788L39 79.954C39.8532 80.4572 40.8441 81.2679 42.1102 82.4979Z" fill="#2C2A2A"/>
<path d="M73.074 81.4636C72.9915 82.1345 72.9089 82.9452 73.1566 83.5881C73.652 84.9579 75.3585 86.775 76.4319 86.775C77.4778 86.775 77.8907 86.104 79.8723 85.9084C81.9916 85.6568 88.1569 85.2654 90.2487 85.2654C92.1753 85.2654 93.1386 85.3493 94.2396 85.3493C95.3956 85.3493 96.0561 84.9579 96.0561 84.1472C96.0561 82.9452 94.6249 82.0786 92.9735 82.0786C92.3129 82.0786 91.0744 82.3022 89.2303 82.4699C87.5514 82.6097 79.2393 83.1688 76.2943 83.1688C74.8355 83.1688 74.3676 82.414 73.5419 81.2958L73.074 81.4636Z" fill="#2C2A2A"/>
<path d="M116.959 75.2576C118.253 75.5651 118.996 76.0403 119.051 76.8231C119.216 79.5347 119.106 86.6631 118.969 88.0329C118.858 89.1511 118.501 89.5145 118.501 90.1575C118.501 90.9682 120.125 93.0368 121.143 93.0368C121.914 93.0368 122.437 92.0863 123.07 91.667C126.482 89.2909 130.363 85.7686 132.675 81.8829L132.235 81.5195C129.125 84.3988 125.354 87.0545 122.299 88.3404C121.886 88.5081 121.666 88.3684 121.666 87.9211C121.638 85.9363 121.831 80.0379 122.051 78.4165C122.189 77.3822 122.877 77.2424 122.877 76.4876C122.877 75.5651 120.647 74.1674 119.161 74.1674C118.391 74.1674 117.813 74.3072 116.932 74.7824L116.959 75.2576ZM112.996 80.2615C112.996 84.287 110.326 90.2693 106.143 94.0991L106.5 94.5184C112.253 91.5273 115.253 86.6911 116.189 81.9388C116.326 81.2399 116.904 80.7088 116.904 80.0099C116.904 78.8638 114.427 77.494 113.161 77.466C112.335 77.466 111.647 77.7176 111.042 77.9413V78.4165C111.978 78.8358 112.996 79.367 112.996 80.2615Z" fill="#2C2A2A"/>
<path d="M145.584 76.7951C145.776 77.5499 146.134 78.3047 146.575 79.0035C147.098 79.8142 147.978 80.5411 148.749 80.5411C149.547 80.5411 150.731 80.2615 152.52 79.982C152.905 80.6808 153.125 81.5195 153.125 82.7495C153.125 84.2311 153.043 86.4954 152.96 88.2845C149.74 88.5641 146.63 88.8436 145.391 88.8436C144.318 88.8436 143.492 88.3404 142.694 87.5856L142.336 87.7534C142.336 88.6479 142.419 89.1231 142.639 89.6263C142.997 90.4929 144.593 92.1702 145.694 92.1702C146.437 92.1702 147.455 91.6391 148.776 91.2757C151.143 90.6327 155.272 90.1295 158.052 90.1854C161.85 90.2413 164.575 91.1918 165.648 91.1918C166.419 91.1918 166.942 90.6047 166.942 89.85C166.942 88.7038 164.217 87.0825 162.758 87.0825C162.318 87.0825 161.96 87.4459 160.391 87.6136C159.208 87.6975 157.556 87.8372 155.767 88.005C155.905 86.2159 156.098 84.4547 156.29 83.2806C156.428 82.4979 156.896 81.8829 156.896 81.3238C156.896 80.7088 156.098 80.1217 155.079 79.6465C158.217 79.2831 160.639 79.1713 161.712 79.0595C162.703 78.9756 163.089 78.3885 163.089 77.7176C163.089 76.7951 160.749 75.7608 159.208 75.7608C158.575 75.7608 158.492 76.6274 154.887 77.2424C152.767 77.5779 150.428 77.8574 148.942 77.8574C147.813 77.8574 146.85 77.3263 145.914 76.5994L145.584 76.7951Z" fill="#2C2A2A"/>
<path d="M189.539 76.9908C189.897 76.4597 190.254 75.9565 190.557 75.4253C191.025 74.6985 191.383 74.5867 191.383 73.9717C191.383 73.2728 189.263 72.0987 187.447 72.0149C186.539 71.959 186.043 72.0708 185.52 72.1826L185.438 72.574C186.318 73.0492 186.979 73.7201 186.979 74.2512C186.979 76.0403 183.373 81.5754 178.915 85.2934L179.272 85.7965C182.823 84.2311 186.016 81.4636 188.41 78.5004C188.906 78.8917 189.346 79.1713 189.676 79.1713C190.199 79.1713 190.64 79.0035 191.218 78.8079C192.016 78.5563 193.998 78.109 194.576 78.109C194.906 78.109 195.043 78.2488 194.906 78.6401C192.594 84.4827 186.208 91.5552 179.217 95.357L179.548 95.8882C188.548 92.7013 194.218 87.0265 198.264 79.8981C198.759 79.0595 199.832 78.7799 199.832 77.9972C199.832 76.851 197.025 75.3694 196.199 75.3694C195.594 75.3694 195.126 76.0403 194.438 76.264C193.667 76.5435 190.502 76.9908 189.539 76.9908Z" fill="#2C2A2A"/>
<path d="M216.491 75.1458C216.463 75.9006 216.518 76.6274 216.711 77.1865C217.041 78.2208 218.335 79.8422 219.546 79.8422C220.316 79.8422 220.647 79.1713 221.555 78.8638C222.931 78.3885 226.454 77.3263 227.555 77.2144C227.858 77.2144 228.023 77.3263 227.858 77.7456C225.628 83.1967 218.858 90.3252 212.39 93.7357L212.692 94.3227C219.381 92.2261 223.647 88.3404 226.179 85.7127C228.739 87.4459 229.812 89.4306 231.078 91.5552C232.014 93.0368 232.729 93.8754 233.803 93.8754C234.904 93.8754 235.509 92.925 235.509 92.0584C235.509 88.9834 231.463 86.3277 226.95 84.902C228.739 82.8892 230.17 80.4851 231.106 79.0874C231.436 78.6122 232.702 78.1929 232.702 77.3822C232.702 76.4876 230.225 74.3351 229.041 74.3351C228.463 74.3351 227.995 75.1458 227.307 75.3135C225.986 75.649 221.17 76.5715 219.271 76.5715C218.335 76.5715 217.564 75.7608 216.959 74.9501L216.491 75.1458Z" fill="#2C2A2A"/>
<path d="M252.532 73.7481C253.523 75.7328 254.403 76.7672 256.137 76.7672C258.449 76.7672 262.881 76.0124 265.082 75.5092C265.963 75.3135 266.211 74.9501 266.211 74.391C266.211 73.2728 265.055 72.6858 263.238 72.6858C262.853 72.6858 262.44 73.0771 261.092 73.4406C259.936 73.7481 257.816 74.3072 255.807 74.3072C254.899 74.3072 253.935 74.1953 252.807 73.4965L252.532 73.7481ZM248.651 79.7024C248.596 80.3733 248.623 81.0442 248.816 81.5474C249.146 82.4979 250.523 83.8397 251.458 83.8397C252.257 83.8118 253.247 83.3365 254.183 83.029C255.064 82.7495 257.046 82.3022 258.89 82.0227C259.055 82.3302 259.11 82.6656 259.11 82.9731C259.11 85.1536 257.018 91.3316 251.018 95.4968L251.431 96C257.624 93.3163 260.376 89.0952 261.752 85.9084C262.385 84.5386 263.073 84.2311 263.073 83.5322C263.073 82.9172 262.413 82.3302 261.422 81.7152C263.293 81.5195 265.055 81.4356 266.266 81.4356C267.835 81.4356 269.238 81.7431 269.844 81.7431C270.587 81.7431 271 81.5195 271 80.597C271 79.4788 269.156 78.5563 267.422 78.5563C267.147 78.5563 266.569 78.8917 264.697 79.1154C260.981 79.5347 252.917 80.7647 251.045 80.7647C250.192 80.7647 249.697 80.2336 248.981 79.5626L248.651 79.7024Z" fill="#2C2A2A"/>
<path d="M664.604 73.0922C666.349 73.7279 666.778 73.8724 667.121 74.6816C667.407 75.2885 667.721 76.5889 668.122 78.1784C665.777 78.7563 662.975 79.4499 662.288 79.4499C661.573 79.4499 661.23 79.1609 660.573 78.7563L660.258 78.9297C660.373 79.5655 660.43 79.8834 660.716 80.3458C661.288 81.2416 662.717 82.2531 663.489 82.2531C664.204 82.2531 664.719 81.8485 665.577 81.5017C666.434 81.1549 667.55 80.8082 668.665 80.4903C668.922 81.5884 669.265 83.0912 669.608 84.7095C666.406 85.5765 661.945 86.7902 661.145 86.7902C660.601 86.7902 660.172 86.5879 659.343 85.9521L659 86.1544C659.057 86.9925 659.2 87.5994 659.486 88.0329C659.858 88.6686 661.545 89.8246 662.631 89.7957C663.346 89.7957 663.775 89.3044 664.69 88.8709C665.977 88.2641 668.15 87.4838 670.066 86.9347C670.266 87.9462 670.466 88.8998 670.609 89.7957C670.924 91.3851 670.981 92.9457 671.124 93.4947C671.353 94.7085 672.182 96.0956 673.211 96.0667C674.269 96.0378 674.727 95.4021 674.727 94.6507C674.727 93.5236 674.412 92.7145 673.955 91.0094C673.697 89.998 673.297 88.4085 672.811 86.2122C676.014 85.4031 678.244 85.0274 681.275 84.7673C682.419 84.6806 682.647 83.987 682.647 83.4091C682.647 82.4843 680.96 81.7907 679.273 81.8196C679.016 81.8485 678.73 82.0797 678.044 82.3398C676.786 82.8022 674.498 83.4379 672.296 83.987C672.01 82.7444 671.724 81.3572 671.381 79.8256C673.04 79.421 675.384 78.9297 677.043 78.6118C678.158 78.4096 678.444 77.8605 678.444 77.1669C678.444 76.2999 676.442 75.722 675.442 75.7509C675.213 75.7509 674.498 76.2999 673.24 76.7334C672.582 76.9646 671.867 77.1669 670.895 77.427C670.752 76.56 670.638 75.8665 670.581 75.2307C670.495 74.4215 670.924 74.0458 670.809 73.3234C670.695 72.5431 668.465 71.6761 667.292 71.6761C666.663 71.6761 665.462 72.1674 664.576 72.6587L664.604 73.0922Z" fill="#2C2A2A"/>
<path d="M697.173 78.7852C698.06 79.0742 698.803 79.4788 699.089 80.0279C699.404 80.6637 699.804 82.0508 700.204 83.4668C698.346 83.9003 696.373 84.3916 695.629 84.3916C694.828 84.3916 694.485 84.0159 693.971 83.6113L693.742 83.698C693.685 84.276 693.685 84.9696 693.828 85.3742C694.142 86.1544 695.315 87.2815 696.287 87.2815C696.887 87.2815 697.316 86.6457 698.374 86.1833C698.86 85.981 699.747 85.6054 700.662 85.3164C701.405 88.2641 702.034 91.9342 702.206 93.7837C702.292 95.142 703.149 96.2112 704.407 96.2112C705.294 96.2112 705.694 95.7488 705.694 94.8241C705.694 94.1305 705.294 93.0035 705.094 92.3677C704.636 90.7782 703.778 87.5705 703.035 84.5939C705.008 83.987 707.038 83.3513 707.925 83.149C708.239 83.0912 708.353 83.149 708.239 83.4379C707.839 84.5072 706.809 86.6168 705.637 88.2929L705.923 88.5241C708.153 87.3104 709.983 85.5476 711.099 84.565C711.499 84.2182 712.585 84.1893 712.585 83.5535C712.585 82.4265 710.469 80.6348 709.411 80.6348C709.04 80.6348 708.525 81.1549 707.982 81.3572C707.267 81.5595 704.665 82.3109 702.692 82.8311C702.549 82.0797 702.463 81.3572 702.434 80.9815C702.377 80.3747 702.577 79.6811 702.577 79.132C702.577 78.3518 700.404 77.8605 699.404 77.8605C698.431 77.8605 697.831 78.1784 697.145 78.4963L697.173 78.7852Z" fill="#2C2A2A"/>
<path d="M725.91 74.6238C728.655 76.7334 729.37 77.8027 730.714 79.71C731.429 80.7215 732.029 81.2416 732.944 81.2416C734.06 81.2416 734.803 80.3458 734.803 79.3054C734.803 76.3288 730.114 74.6238 726.168 74.1614L725.91 74.6238ZM729.027 90.4604C727.998 90.4604 726.997 89.3622 726.311 88.6686L725.91 88.9287C725.91 89.7668 726.196 90.8938 726.539 91.5585C727.111 92.7145 729.113 94.4195 730.743 94.4195C731.572 94.4195 731.944 93.4658 732.859 92.8879C739.492 88.7842 744.697 83.698 747.928 77.3692L747.413 77.0224C743.296 82.5999 732.115 90.4604 729.027 90.4604Z" fill="#2C2A2A"/>
<path d="M774.949 80.866C776.836 80.866 778.352 79.3343 778.352 77.4559C778.352 75.5486 776.836 74.0169 774.949 74.0169C773.091 74.0169 771.575 75.5486 771.575 77.4559C771.575 79.3343 773.091 80.866 774.949 80.866ZM774.949 75.2018C776.179 75.2018 777.18 76.2132 777.18 77.4559C777.18 78.6985 776.179 79.6811 774.949 79.6811C773.72 79.6811 772.747 78.6985 772.747 77.4559C772.747 76.2132 773.72 75.2018 774.949 75.2018ZM755.162 86.5301C755.906 87.5994 757.278 88.4952 758.422 88.4952C759.451 88.4952 759.909 87.6572 760.509 86.7035C761.396 85.2875 763.369 82.2531 764.284 81.0682C764.713 80.5192 764.998 80.3169 765.284 80.3169C765.599 80.3169 765.999 80.5192 766.543 81.0971C768.172 82.7155 772.633 87.7439 774.32 89.6223C776.55 91.992 778.009 93.1191 779.095 93.1191C779.953 93.1191 780.496 92.4833 780.496 91.5296C780.496 90.3448 779.867 89.1021 778.781 88.4085C775.979 86.5012 771.918 82.7444 768.001 79.0742C767 78.1206 766.142 77.6871 765.17 77.6871C764.341 77.6871 763.683 78.1784 762.94 78.9586C762.082 79.8545 759.623 82.7444 758.164 84.0159C757.45 84.6228 756.963 84.8829 756.563 84.8829C756.191 84.8829 755.505 84.5939 754.933 84.0737L754.59 84.3338C754.619 85.2875 754.762 85.9521 755.162 86.5301Z" fill="#2C2A2A"/>
<path d="M788.017 81.3572C787.931 82.0508 787.845 82.8889 788.102 83.5535C788.617 84.9696 790.39 86.848 791.505 86.848C792.592 86.848 793.021 86.1544 795.079 85.9521C797.281 85.6921 803.686 85.2875 805.859 85.2875C807.861 85.2875 808.862 85.3742 810.006 85.3742C811.207 85.3742 811.893 84.9696 811.893 84.1315C811.893 82.8889 810.406 81.993 808.69 81.993C808.004 81.993 806.717 82.2242 804.801 82.3976C803.057 82.5421 794.422 83.1201 791.362 83.1201C789.847 83.1201 789.361 82.3398 788.503 81.1838L788.017 81.3572Z" fill="#2C2A2A"/>
<path d="M822.286 74.6238C825.031 76.7334 825.746 77.8027 827.09 79.71C827.805 80.7215 828.405 81.2416 829.32 81.2416C830.435 81.2416 831.179 80.3458 831.179 79.3054C831.179 76.3288 826.489 74.6238 822.543 74.1614L822.286 74.6238ZM825.403 90.4604C824.373 90.4604 823.372 89.3622 822.686 88.6686L822.286 88.9287C822.286 89.7668 822.572 90.8938 822.915 91.5585C823.487 92.7145 825.488 94.4195 827.118 94.4195C827.948 94.4195 828.319 93.4658 829.234 92.8879C835.868 88.7842 841.072 83.698 844.303 77.3692L843.789 77.0224C839.671 82.5999 828.491 90.4604 825.403 90.4604Z" fill="#2C2A2A"/>
<path d="M865.692 84.8829V77.1669H872.125V84.8829H865.692ZM855.741 84.8829V77.1669H862.118V84.8829H855.741ZM873.469 74.5371L871.868 76.3288H865.692V71.2715C866.464 71.156 866.693 70.8381 866.75 70.4335L862.118 70V76.3288H855.998L852.195 74.8261V88.5819H852.71C854.168 88.5819 855.741 87.7728 855.741 87.426V85.721H862.118V97.0782H862.775C864.148 97.0782 865.692 96.2112 865.692 95.8355V85.721H872.125V88.1485H872.726C873.898 88.1485 875.671 87.5127 875.7 87.2815V77.7738C876.3 77.6582 876.672 77.3692 876.872 77.138L873.469 74.5371Z" fill="#2C2A2A"/>
<path d="M891.655 94.9108C892.999 94.9108 894 93.8704 894 92.5989C894 91.3562 892.999 90.3159 891.655 90.3159C890.34 90.3159 889.368 91.3562 889.368 92.5989C889.368 93.8704 890.34 94.9108 891.655 94.9108ZM891.684 72.3119C890.397 72.3119 889.454 73.15 889.454 74.9128C889.454 76.3577 889.711 78.7274 890.626 83.9003L891.226 87.8017H892.141L892.742 83.9003C893.657 78.7274 893.886 76.3577 893.886 74.9128C893.886 73.15 892.971 72.3119 891.684 72.3119Z" fill="#2C2A2A"/>
<mask id="path-5-outside-1" maskUnits="userSpaceOnUse" x="266.285" y="-6.81006" width="417.842" height="159.853" fill="black">
<rect fill="white" x="266.285" y="-6.81006" width="417.842" height="159.853"/>
<path d="M350.653 84.6532C351.811 84.4363 352.643 83.8554 352.722 82.9057C348.484 80.3849 341.505 76.9329 341.505 76.9329L337.393 84.673L316.476 88.5921C315.809 81.8326 314.584 74.8376 313.411 67.6629C315.333 66.9627 315.924 66.0022 315.941 64.724L303.986 65.7741C305.57 74.2316 307.176 82.3452 307.961 90.1876L276.38 96.105L277.57 98.3468L308.242 92.5998C309.817 111.513 306.069 128.96 285.015 146.759L286.171 147.902C313.191 130.43 317.973 112.11 316.725 92.2004C322.101 108.107 332.288 126.852 355.368 134.936C355.447 130.332 357.594 127.635 361.59 126.121L361.586 125.187C335.899 119.631 323.685 105.6 317.915 90.7874L350.653 84.6532Z"/>
<path d="M428.422 51.3829C429.579 51.1661 430.329 50.6006 430.408 49.6509C426.81 47.3501 421.013 44.2716 421.013 44.2716L417.559 50.9535L385.233 57.0103L386.341 59.2676L428.422 51.3829ZM401.781 78.6432L399.581 66.9012L417.934 63.4623L420.134 75.2043L401.781 78.6432ZM422.663 80.9351C426.548 80.2071 428.85 78.331 428.788 78.0025L425.865 62.4013C427.555 61.8297 428.289 61.1821 428.662 60.4322L420.191 56.3249L417.255 61.2097L400.059 64.4317L391.094 62.7118L395.648 87.0169L396.971 86.769C400.774 86.0564 402.827 84.2268 402.735 83.7341L402.227 81.0245L420.58 77.5856L421.257 81.1985L422.663 80.9351ZM373.944 69.8349L378.491 68.9829L384.676 101.992C384.845 102.895 384.659 103.27 383.832 103.425C383.088 103.564 380.908 103.803 380.314 103.829L373.944 69.8349ZM379.6 62.5705L377.234 66.8387L374.175 67.4118L372.144 56.5731C374.149 55.8574 374.739 54.8968 374.607 53.7318L364.005 54.6982L366.651 68.8215L363.51 69.4101L356.327 67.6112L365.419 116.139L366.329 115.969C369.14 115.442 371.328 113.417 371.205 112.76L363.527 71.7867L367.661 71.0122L378.769 130.297L379.761 130.111C382.489 129.6 384.677 127.575 384.668 127.067L380.544 105.061C382.275 105.162 383.209 105.581 383.89 106.474C384.653 107.351 385.142 109.044 385.496 110.933C391.573 109.114 391.825 106.347 390.932 101.585L384.84 69.0683C386.514 68.4145 387.616 67.4432 388.087 66.7599L379.6 62.5705ZM421.501 114.471L419.347 102.975L429.185 101.132L431.339 112.627L421.501 114.471ZM402.978 106.042L412.733 104.214L414.887 115.71L405.132 117.538L402.978 106.042ZM410.226 90.83L412.287 101.833L402.532 103.661L400.47 92.6579L410.226 90.83ZM426.678 87.7474L428.739 98.7504L418.901 100.594L416.84 89.5908L426.678 87.7474ZM428.821 80.4612L425.901 85.4281L401.016 90.0908L392.149 88.4374L399.303 126.619L400.626 126.372C404.346 125.674 406.317 123.86 406.209 123.286L405.563 119.837L431.77 114.926L432.709 119.935L433.949 119.703C437.752 118.99 440.053 117.114 439.961 116.621L434.376 86.8149C436.149 86.2278 436.883 85.5802 437.241 84.7483L428.821 80.4612Z"/>
<path d="M499.034 53.4514L500.803 62.8942L483.276 66.1782L481.507 56.7354L499.034 53.4514ZM487.738 89.9906L485.907 80.2193L503.434 76.9353L505.265 86.7066L487.738 89.9906ZM483.722 68.5595L501.249 65.2755L502.988 74.5541L485.461 77.8381L483.722 68.5595ZM459.942 47.6018L461.049 49.8592L482.875 45.7697C483.264 48.7567 483.689 51.4818 483.954 53.812L482.053 54.1682L473.087 52.4483L481.795 98.9236L482.953 98.7067C486.838 97.9786 488.892 96.149 488.784 95.5742L488.184 92.3719L505.711 89.0879L506.465 93.1113L507.705 92.879C511.59 92.1509 514.011 89.9975 513.934 89.5869L507.011 52.6367C508.685 51.9829 509.57 51.2222 510.025 50.4569L501.229 45.9855L498.257 51.1321L490.651 52.5572C490.551 50.1961 490.441 47.3269 490.233 44.391L510.571 40.5803C511.728 40.3635 512.561 39.7825 512.557 38.8483C508.779 36.4964 502.636 33.3977 502.636 33.3977L498.964 40.2903L490.118 41.9478C489.941 39.1762 489.794 36.5687 489.627 34.3052C491.384 33.636 492.207 32.5469 492.142 31.2842L480.962 32.3591C481.51 35.7412 482.052 39.5493 482.594 43.3574L459.942 47.6018ZM448.073 38.6065C447.457 54.9559 443.739 72.5664 439.296 84.0231L440.51 84.5607C443.113 81.0982 445.458 77.174 447.577 72.9522L455.654 116.061L457.059 115.798C460.118 115.224 462.854 112.927 462.829 112.337L453.736 63.8086C455.261 63.268 455.897 62.5538 456.007 61.7683L452.469 61.1562C454.513 55.1637 456.149 48.8226 457.294 42.1483C459.113 41.8076 459.997 41.0469 460.143 39.9996L448.073 38.6065ZM510.058 98.1326L476.41 104.437L468.056 59.8506C469.979 59.1504 470.502 58.2874 470.534 57.0914L460.181 58.0114L470.504 113.108L471.91 112.845C474.555 112.349 477.487 110.185 477.333 109.364L476.856 106.819L521.831 98.3917C522.988 98.1748 523.821 97.5938 523.817 96.6596C519.941 94.2411 513.715 91.1579 513.715 91.1579L510.058 98.1326Z"/>
<path d="M574.39 23.013L512.632 34.5844L513.74 36.8417L545.735 30.8469L558.104 96.8647L559.593 96.5859C563.726 95.8114 566.033 93.5092 565.91 92.8523L556.833 44.4064C564.345 47.5036 573.61 52.6521 578.227 57.6517C588.209 59.776 587.464 41.6418 556.479 42.5178L554.002 29.2978L587.567 23.0087C588.808 22.7763 589.64 22.1954 589.719 21.2457C585.398 18.7404 578.419 15.2884 578.419 15.2884L574.39 23.013Z"/>
<path d="M646.504 8.05605C650.478 10.5412 652.654 13.0232 654.377 14.9102C656.002 16.7307 657.054 18.2335 658.376 17.9856C659.88 17.7889 660.703 16.6998 660.508 15.2063C660.283 13.5486 659.557 12.4098 657.549 10.8311C655.036 8.8371 651.654 7.68591 647.363 6.70511L646.504 8.05605ZM616.004 46.2386C614.84 51.8965 612.89 60.6761 611.595 63.8087C611.149 65.0822 610.405 65.2216 609.512 64.1139C608.378 62.6266 607.307 60.1074 606.661 56.6587C605.399 49.9256 606.954 42.2397 608.734 36.2115C609.699 33.1409 610.539 30.7736 610.139 28.6387C609.355 24.451 604.24 20.9046 601.731 19.8448C599.795 19.1027 598.168 18.6425 595.632 18.3527L594.84 19.6061C597.926 21.9176 600.562 24.5685 601.224 28.0993C602.624 35.5715 599.622 47.8633 601.683 58.8663C603.529 68.7197 607.262 74.48 610.186 77.7568C612.053 79.9568 614.082 81.1916 616.148 80.8044C618.381 80.3861 619.473 78.9066 619.073 76.7717C618.519 73.8157 616.744 72.1083 616.221 69.3165C615.836 67.2637 615.859 65.5595 616.017 63.6601C616.228 60.2208 617.158 52.397 617.962 46.6368L616.004 46.2386ZM631.565 15.1048C633.709 15.1281 635.837 15.0693 637.562 15.5961C638.713 15.8053 639.332 16.3693 639.919 18.1292C640.613 20.464 641.707 24.9337 642.755 29.157C639.654 30.418 636.522 31.5148 633.794 32.026C629.412 32.847 625.43 32.1482 620.345 30.1263L619.553 31.3796C625.065 38.4212 630.814 38.9589 635.857 38.014C638.668 37.4873 641.516 36.6988 644.332 35.7461C646.094 43.3205 648.08 52.5527 647.064 59.4578C646.059 69.1655 641.593 75.017 634.389 80.8715L635.41 82.2101C645.107 77.3332 652.357 71.725 654.406 61.6517C656.111 53.8527 653.075 41.7575 650.948 33.1466C655.13 31.2582 658.619 29.3294 660.667 27.9258C662.714 26.5222 663.258 25.3154 662.966 23.7552C662.551 21.5382 659.396 20.6845 656.833 21.1647C656.254 21.2731 655.566 22.167 652.82 23.9564C651.838 24.6504 650.592 25.3088 649.279 26.0648C648.704 23.4528 648.242 20.9894 648.002 19.2496C647.546 16.3602 648.442 14.7474 648.196 13.4336C647.703 10.806 641.439 9.34491 637.802 10.0265C635.9 10.3828 633.124 12.0079 631.123 13.6578L631.565 15.1048ZM651.946 1.93657C656.153 4.29312 658.17 6.38004 659.847 8.02076C661.621 9.72811 662.854 11.2821 664.177 11.0342C665.747 10.7399 666.39 9.59964 666.128 8.20374C665.872 6.38179 664.965 5.19193 662.725 3.74176C660.273 2.07622 657.216 1.28911 652.723 0.601119L651.946 1.93657Z"/>
</mask>
<path d="M350.653 84.6532C351.811 84.4363 352.643 83.8554 352.722 82.9057C348.484 80.3849 341.505 76.9329 341.505 76.9329L337.393 84.673L316.476 88.5921C315.809 81.8326 314.584 74.8376 313.411 67.6629C315.333 66.9627 315.924 66.0022 315.941 64.724L303.986 65.7741C305.57 74.2316 307.176 82.3452 307.961 90.1876L276.38 96.105L277.57 98.3468L308.242 92.5998C309.817 111.513 306.069 128.96 285.015 146.759L286.171 147.902C313.191 130.43 317.973 112.11 316.725 92.2004C322.101 108.107 332.288 126.852 355.368 134.936C355.447 130.332 357.594 127.635 361.59 126.121L361.586 125.187C335.899 119.631 323.685 105.6 317.915 90.7874L350.653 84.6532Z" fill="#2C2A2A"/>
<path d="M428.422 51.3829C429.579 51.1661 430.329 50.6006 430.408 49.6509C426.81 47.3501 421.013 44.2716 421.013 44.2716L417.559 50.9535L385.233 57.0103L386.341 59.2676L428.422 51.3829ZM401.781 78.6432L399.581 66.9012L417.934 63.4623L420.134 75.2043L401.781 78.6432ZM422.663 80.9351C426.548 80.2071 428.85 78.331 428.788 78.0025L425.865 62.4013C427.555 61.8297 428.289 61.1821 428.662 60.4322L420.191 56.3249L417.255 61.2097L400.059 64.4317L391.094 62.7118L395.648 87.0169L396.971 86.769C400.774 86.0564 402.827 84.2268 402.735 83.7341L402.227 81.0245L420.58 77.5856L421.257 81.1985L422.663 80.9351ZM373.944 69.8349L378.491 68.9829L384.676 101.992C384.845 102.895 384.659 103.27 383.832 103.425C383.088 103.564 380.908 103.803 380.314 103.829L373.944 69.8349ZM379.6 62.5705L377.234 66.8387L374.175 67.4118L372.144 56.5731C374.149 55.8574 374.739 54.8968 374.607 53.7318L364.005 54.6982L366.651 68.8215L363.51 69.4101L356.327 67.6112L365.419 116.139L366.329 115.969C369.14 115.442 371.328 113.417 371.205 112.76L363.527 71.7867L367.661 71.0122L378.769 130.297L379.761 130.111C382.489 129.6 384.677 127.575 384.668 127.067L380.544 105.061C382.275 105.162 383.209 105.581 383.89 106.474C384.653 107.351 385.142 109.044 385.496 110.933C391.573 109.114 391.825 106.347 390.932 101.585L384.84 69.0683C386.514 68.4145 387.616 67.4432 388.087 66.7599L379.6 62.5705ZM421.501 114.471L419.347 102.975L429.185 101.132L431.339 112.627L421.501 114.471ZM402.978 106.042L412.733 104.214L414.887 115.71L405.132 117.538L402.978 106.042ZM410.226 90.83L412.287 101.833L402.532 103.661L400.47 92.6579L410.226 90.83ZM426.678 87.7474L428.739 98.7504L418.901 100.594L416.84 89.5908L426.678 87.7474ZM428.821 80.4612L425.901 85.4281L401.016 90.0908L392.149 88.4374L399.303 126.619L400.626 126.372C404.346 125.674 406.317 123.86 406.209 123.286L405.563 119.837L431.77 114.926L432.709 119.935L433.949 119.703C437.752 118.99 440.053 117.114 439.961 116.621L434.376 86.8149C436.149 86.2278 436.883 85.5802 437.241 84.7483L428.821 80.4612Z" fill="#2C2A2A"/>
<path d="M499.034 53.4514L500.803 62.8942L483.276 66.1782L481.507 56.7354L499.034 53.4514ZM487.738 89.9906L485.907 80.2193L503.434 76.9353L505.265 86.7066L487.738 89.9906ZM483.722 68.5595L501.249 65.2755L502.988 74.5541L485.461 77.8381L483.722 68.5595ZM459.942 47.6018L461.049 49.8592L482.875 45.7697C483.264 48.7567 483.689 51.4818 483.954 53.812L482.053 54.1682L473.087 52.4483L481.795 98.9236L482.953 98.7067C486.838 97.9786 488.892 96.149 488.784 95.5742L488.184 92.3719L505.711 89.0879L506.465 93.1113L507.705 92.879C511.59 92.1509 514.011 89.9975 513.934 89.5869L507.011 52.6367C508.685 51.9829 509.57 51.2222 510.025 50.4569L501.229 45.9855L498.257 51.1321L490.651 52.5572C490.551 50.1961 490.441 47.3269 490.233 44.391L510.571 40.5803C511.728 40.3635 512.561 39.7825 512.557 38.8483C508.779 36.4964 502.636 33.3977 502.636 33.3977L498.964 40.2903L490.118 41.9478C489.941 39.1762 489.794 36.5687 489.627 34.3052C491.384 33.636 492.207 32.5469 492.142 31.2842L480.962 32.3591C481.51 35.7412 482.052 39.5493 482.594 43.3574L459.942 47.6018ZM448.073 38.6065C447.457 54.9559 443.739 72.5664 439.296 84.0231L440.51 84.5607C443.113 81.0982 445.458 77.174 447.577 72.9522L455.654 116.061L457.059 115.798C460.118 115.224 462.854 112.927 462.829 112.337L453.736 63.8086C455.261 63.268 455.897 62.5538 456.007 61.7683L452.469 61.1562C454.513 55.1637 456.149 48.8226 457.294 42.1483C459.113 41.8076 459.997 41.0469 460.143 39.9996L448.073 38.6065ZM510.058 98.1326L476.41 104.437L468.056 59.8506C469.979 59.1504 470.502 58.2874 470.534 57.0914L460.181 58.0114L470.504 113.108L471.91 112.845C474.555 112.349 477.487 110.185 477.333 109.364L476.856 106.819L521.831 98.3917C522.988 98.1748 523.821 97.5938 523.817 96.6596C519.941 94.2411 513.715 91.1579 513.715 91.1579L510.058 98.1326Z" fill="#2C2A2A"/>
<path d="M574.39 23.013L512.632 34.5844L513.74 36.8417L545.735 30.8469L558.104 96.8647L559.593 96.5859C563.726 95.8114 566.033 93.5092 565.91 92.8523L556.833 44.4064C564.345 47.5036 573.61 52.6521 578.227 57.6517C588.209 59.776 587.464 41.6418 556.479 42.5178L554.002 29.2978L587.567 23.0087C588.808 22.7763 589.64 22.1954 589.719 21.2457C585.398 18.7404 578.419 15.2884 578.419 15.2884L574.39 23.013Z" fill="#2C2A2A"/>
<path d="M646.504 8.05605C650.478 10.5412 652.654 13.0232 654.377 14.9102C656.002 16.7307 657.054 18.2335 658.376 17.9856C659.88 17.7889 660.703 16.6998 660.508 15.2063C660.283 13.5486 659.557 12.4098 657.549 10.8311C655.036 8.8371 651.654 7.68591 647.363 6.70511L646.504 8.05605ZM616.004 46.2386C614.84 51.8965 612.89 60.6761 611.595 63.8087C611.149 65.0822 610.405 65.2216 609.512 64.1139C608.378 62.6266 607.307 60.1074 606.661 56.6587C605.399 49.9256 606.954 42.2397 608.734 36.2115C609.699 33.1409 610.539 30.7736 610.139 28.6387C609.355 24.451 604.24 20.9046 601.731 19.8448C599.795 19.1027 598.168 18.6425 595.632 18.3527L594.84 19.6061C597.926 21.9176 600.562 24.5685 601.224 28.0993C602.624 35.5715 599.622 47.8633 601.683 58.8663C603.529 68.7197 607.262 74.48 610.186 77.7568C612.053 79.9568 614.082 81.1916 616.148 80.8044C618.381 80.3861 619.473 78.9066 619.073 76.7717C618.519 73.8157 616.744 72.1083 616.221 69.3165C615.836 67.2637 615.859 65.5595 616.017 63.6601C616.228 60.2208 617.158 52.397 617.962 46.6368L616.004 46.2386ZM631.565 15.1048C633.709 15.1281 635.837 15.0693 637.562 15.5961C638.713 15.8053 639.332 16.3693 639.919 18.1292C640.613 20.464 641.707 24.9337 642.755 29.157C639.654 30.418 636.522 31.5148 633.794 32.026C629.412 32.847 625.43 32.1482 620.345 30.1263L619.553 31.3796C625.065 38.4212 630.814 38.9589 635.857 38.014C638.668 37.4873 641.516 36.6988 644.332 35.7461C646.094 43.3205 648.08 52.5527 647.064 59.4578C646.059 69.1655 641.593 75.017 634.389 80.8715L635.41 82.2101C645.107 77.3332 652.357 71.725 654.406 61.6517C656.111 53.8527 653.075 41.7575 650.948 33.1466C655.13 31.2582 658.619 29.3294 660.667 27.9258C662.714 26.5222 663.258 25.3154 662.966 23.7552C662.551 21.5382 659.396 20.6845 656.833 21.1647C656.254 21.2731 655.566 22.167 652.82 23.9564C651.838 24.6504 650.592 25.3088 649.279 26.0648C648.704 23.4528 648.242 20.9894 648.002 19.2496C647.546 16.3602 648.442 14.7474 648.196 13.4336C647.703 10.806 641.439 9.34491 637.802 10.0265C635.9 10.3828 633.124 12.0079 631.123 13.6578L631.565 15.1048ZM651.946 1.93657C656.153 4.29312 658.17 6.38004 659.847 8.02076C661.621 9.72811 662.854 11.2821 664.177 11.0342C665.747 10.7399 666.39 9.59964 666.128 8.20374C665.872 6.38179 664.965 5.19193 662.725 3.74176C660.273 2.07622 657.216 1.28911 652.723 0.601119L651.946 1.93657Z" fill="#2C2A2A"/>
<path d="M350.653 84.6532C351.811 84.4363 352.643 83.8554 352.722 82.9057C348.484 80.3849 341.505 76.9329 341.505 76.9329L337.393 84.673L316.476 88.5921C315.809 81.8326 314.584 74.8376 313.411 67.6629C315.333 66.9627 315.924 66.0022 315.941 64.724L303.986 65.7741C305.57 74.2316 307.176 82.3452 307.961 90.1876L276.38 96.105L277.57 98.3468L308.242 92.5998C309.817 111.513 306.069 128.96 285.015 146.759L286.171 147.902C313.191 130.43 317.973 112.11 316.725 92.2004C322.101 108.107 332.288 126.852 355.368 134.936C355.447 130.332 357.594 127.635 361.59 126.121L361.586 125.187C335.899 119.631 323.685 105.6 317.915 90.7874L350.653 84.6532Z" stroke="url(#paint2_linear)" stroke-width="8" stroke-linecap="round" stroke-linejoin="round" mask="url(#path-5-outside-1)"/>
<path d="M428.422 51.3829C429.579 51.1661 430.329 50.6006 430.408 49.6509C426.81 47.3501 421.013 44.2716 421.013 44.2716L417.559 50.9535L385.233 57.0103L386.341 59.2676L428.422 51.3829ZM401.781 78.6432L399.581 66.9012L417.934 63.4623L420.134 75.2043L401.781 78.6432ZM422.663 80.9351C426.548 80.2071 428.85 78.331 428.788 78.0025L425.865 62.4013C427.555 61.8297 428.289 61.1821 428.662 60.4322L420.191 56.3249L417.255 61.2097L400.059 64.4317L391.094 62.7118L395.648 87.0169L396.971 86.769C400.774 86.0564 402.827 84.2268 402.735 83.7341L402.227 81.0245L420.58 77.5856L421.257 81.1985L422.663 80.9351ZM373.944 69.8349L378.491 68.9829L384.676 101.992C384.845 102.895 384.659 103.27 383.832 103.425C383.088 103.564 380.908 103.803 380.314 103.829L373.944 69.8349ZM379.6 62.5705L377.234 66.8387L374.175 67.4118L372.144 56.5731C374.149 55.8574 374.739 54.8968 374.607 53.7318L364.005 54.6982L366.651 68.8215L363.51 69.4101L356.327 67.6112L365.419 116.139L366.329 115.969C369.14 115.442 371.328 113.417 371.205 112.76L363.527 71.7867L367.661 71.0122L378.769 130.297L379.761 130.111C382.489 129.6 384.677 127.575 384.668 127.067L380.544 105.061C382.275 105.162 383.209 105.581 383.89 106.474C384.653 107.351 385.142 109.044 385.496 110.933C391.573 109.114 391.825 106.347 390.932 101.585L384.84 69.0683C386.514 68.4145 387.616 67.4432 388.087 66.7599L379.6 62.5705ZM421.501 114.471L419.347 102.975L429.185 101.132L431.339 112.627L421.501 114.471ZM402.978 106.042L412.733 104.214L414.887 115.71L405.132 117.538L402.978 106.042ZM410.226 90.83L412.287 101.833L402.532 103.661L400.47 92.6579L410.226 90.83ZM426.678 87.7474L428.739 98.7504L418.901 100.594L416.84 89.5908L426.678 87.7474ZM428.821 80.4612L425.901 85.4281L401.016 90.0908L392.149 88.4374L399.303 126.619L400.626 126.372C404.346 125.674 406.317 123.86 406.209 123.286L405.563 119.837L431.77 114.926L432.709 119.935L433.949 119.703C437.752 118.99 440.053 117.114 439.961 116.621L434.376 86.8149C436.149 86.2278 436.883 85.5802 437.241 84.7483L428.821 80.4612Z" stroke="url(#paint3_linear)" stroke-width="8" stroke-linecap="round" stroke-linejoin="round" mask="url(#path-5-outside-1)"/>
<path d="M499.034 53.4514L500.803 62.8942L483.276 66.1782L481.507 56.7354L499.034 53.4514ZM487.738 89.9906L485.907 80.2193L503.434 76.9353L505.265 86.7066L487.738 89.9906ZM483.722 68.5595L501.249 65.2755L502.988 74.5541L485.461 77.8381L483.722 68.5595ZM459.942 47.6018L461.049 49.8592L482.875 45.7697C483.264 48.7567 483.689 51.4818 483.954 53.812L482.053 54.1682L473.087 52.4483L481.795 98.9236L482.953 98.7067C486.838 97.9786 488.892 96.149 488.784 95.5742L488.184 92.3719L505.711 89.0879L506.465 93.1113L507.705 92.879C511.59 92.1509 514.011 89.9975 513.934 89.5869L507.011 52.6367C508.685 51.9829 509.57 51.2222 510.025 50.4569L501.229 45.9855L498.257 51.1321L490.651 52.5572C490.551 50.1961 490.441 47.3269 490.233 44.391L510.571 40.5803C511.728 40.3635 512.561 39.7825 512.557 38.8483C508.779 36.4964 502.636 33.3977 502.636 33.3977L498.964 40.2903L490.118 41.9478C489.941 39.1762 489.794 36.5687 489.627 34.3052C491.384 33.636 492.207 32.5469 492.142 31.2842L480.962 32.3591C481.51 35.7412 482.052 39.5493 482.594 43.3574L459.942 47.6018ZM448.073 38.6065C447.457 54.9559 443.739 72.5664 439.296 84.0231L440.51 84.5607C443.113 81.0982 445.458 77.174 447.577 72.9522L455.654 116.061L457.059 115.798C460.118 115.224 462.854 112.927 462.829 112.337L453.736 63.8086C455.261 63.268 455.897 62.5538 456.007 61.7683L452.469 61.1562C454.513 55.1637 456.149 48.8226 457.294 42.1483C459.113 41.8076 459.997 41.0469 460.143 39.9996L448.073 38.6065ZM510.058 98.1326L476.41 104.437L468.056 59.8506C469.979 59.1504 470.502 58.2874 470.534 57.0914L460.181 58.0114L470.504 113.108L471.91 112.845C474.555 112.349 477.487 110.185 477.333 109.364L476.856 106.819L521.831 98.3917C522.988 98.1748 523.821 97.5938 523.817 96.6596C519.941 94.2411 513.715 91.1579 513.715 91.1579L510.058 98.1326Z" stroke="url(#paint4_linear)" stroke-width="8" stroke-linecap="round" stroke-linejoin="round" mask="url(#path-5-outside-1)"/>
<path d="M574.39 23.013L512.632 34.5844L513.74 36.8417L545.735 30.8469L558.104 96.8647L559.593 96.5859C563.726 95.8114 566.033 93.5092 565.91 92.8523L556.833 44.4064C564.345 47.5036 573.61 52.6521 578.227 57.6517C588.209 59.776 587.464 41.6418 556.479 42.5178L554.002 29.2978L587.567 23.0087C588.808 22.7763 589.64 22.1954 589.719 21.2457C585.398 18.7404 578.419 15.2884 578.419 15.2884L574.39 23.013Z" stroke="url(#paint5_linear)" stroke-width="8" stroke-linecap="round" stroke-linejoin="round" mask="url(#path-5-outside-1)"/>
<path d="M646.504 8.05605C650.478 10.5412 652.654 13.0232 654.377 14.9102C656.002 16.7307 657.054 18.2335 658.376 17.9856C659.88 17.7889 660.703 16.6998 660.508 15.2063C660.283 13.5486 659.557 12.4098 657.549 10.8311C655.036 8.8371 651.654 7.68591 647.363 6.70511L646.504 8.05605ZM616.004 46.2386C614.84 51.8965 612.89 60.6761 611.595 63.8087C611.149 65.0822 610.405 65.2216 609.512 64.1139C608.378 62.6266 607.307 60.1074 606.661 56.6587C605.399 49.9256 606.954 42.2397 608.734 36.2115C609.699 33.1409 610.539 30.7736 610.139 28.6387C609.355 24.451 604.24 20.9046 601.731 19.8448C599.795 19.1027 598.168 18.6425 595.632 18.3527L594.84 19.6061C597.926 21.9176 600.562 24.5685 601.224 28.0993C602.624 35.5715 599.622 47.8633 601.683 58.8663C603.529 68.7197 607.262 74.48 610.186 77.7568C612.053 79.9568 614.082 81.1916 616.148 80.8044C618.381 80.3861 619.473 78.9066 619.073 76.7717C618.519 73.8157 616.744 72.1083 616.221 69.3165C615.836 67.2637 615.859 65.5595 616.017 63.6601C616.228 60.2208 617.158 52.397 617.962 46.6368L616.004 46.2386ZM631.565 15.1048C633.709 15.1281 635.837 15.0693 637.562 15.5961C638.713 15.8053 639.332 16.3693 639.919 18.1292C640.613 20.464 641.707 24.9337 642.755 29.157C639.654 30.418 636.522 31.5148 633.794 32.026C629.412 32.847 625.43 32.1482 620.345 30.1263L619.553 31.3796C625.065 38.4212 630.814 38.9589 635.857 38.014C638.668 37.4873 641.516 36.6988 644.332 35.7461C646.094 43.3205 648.08 52.5527 647.064 59.4578C646.059 69.1655 641.593 75.017 634.389 80.8715L635.41 82.2101C645.107 77.3332 652.357 71.725 654.406 61.6517C656.111 53.8527 653.075 41.7575 650.948 33.1466C655.13 31.2582 658.619 29.3294 660.667 27.9258C662.714 26.5222 663.258 25.3154 662.966 23.7552C662.551 21.5382 659.396 20.6845 656.833 21.1647C656.254 21.2731 655.566 22.167 652.82 23.9564C651.838 24.6504 650.592 25.3088 649.279 26.0648C648.704 23.4528 648.242 20.9894 648.002 19.2496C647.546 16.3602 648.442 14.7474 648.196 13.4336C647.703 10.806 641.439 9.34491 637.802 10.0265C635.9 10.3828 633.124 12.0079 631.123 13.6578L631.565 15.1048ZM651.946 1.93657C656.153 4.29312 658.17 6.38004 659.847 8.02076C661.621 9.72811 662.854 11.2821 664.177 11.0342C665.747 10.7399 666.39 9.59964 666.128 8.20374C665.872 6.38179 664.965 5.19193 662.725 3.74176C660.273 2.07622 657.216 1.28911 652.723 0.601119L651.946 1.93657Z" stroke="url(#paint6_linear)" stroke-width="8" stroke-linecap="round" stroke-linejoin="round" mask="url(#path-5-outside-1)"/>
<path d="M303.956 6.12442C303.861 5.52524 303.414 5.04242 302.824 4.90109C302.234 4.75977 301.617 4.98776 301.261 5.47877L289.188 22.1131L245.411 -11.5259C245.047 -11.8059 244.574 -11.9034 244.129 -11.7905L219.132 -5.4541C218.571 -5.31207 218.142 -4.86071 218.029 -4.29386C217.916 -3.72701 218.139 -3.14554 218.601 -2.79918L276.059 40.2039L263.949 56.8897C263.593 57.3807 263.567 58.038 263.884 58.5551C264.202 59.0722 264.799 59.3473 265.398 59.2521L309.76 52.2026C310.578 52.0726 311.136 51.304 311.006 50.4858L303.956 6.12442Z" fill="#2C2A2A" stroke="#F6A6A6" stroke-width="3" stroke-linecap="round" stroke-linejoin="round"/>
<g clip-path="url(#clip1)">
<path d="M653.585 117.965C653.49 117.366 653.043 116.883 652.453 116.741C651.863 116.6 651.246 116.828 650.89 117.319L638.817 133.953L595.04 100.314C594.676 100.034 594.203 99.9369 593.758 100.05L568.761 106.386C568.2 106.528 567.771 106.98 567.658 107.546C567.545 108.113 567.768 108.695 568.23 109.041L625.688 152.044L613.578 168.73C613.222 169.221 613.196 169.878 613.513 170.395C613.831 170.913 614.428 171.188 615.027 171.092L659.389 164.043C660.207 163.913 660.765 163.144 660.635 162.326L653.585 117.965Z" fill="#2C2A2A" stroke="#F8B7B7" stroke-width="3" stroke-linecap="round" stroke-linejoin="round"/>
</g>
</g>
<defs>
<linearGradient id="paint0_linear" x1="459" y1="-2.41184e-05" x2="459" y2="236.16" gradientUnits="userSpaceOnUse">
<stop stop-color="#F6A6A6"/>
<stop offset="0.25" stop-color="#F6A6A6" stop-opacity="0.8"/>
<stop offset="0.510417" stop-color="#F6A6A6" stop-opacity="0.6"/>
<stop offset="0.760417" stop-color="#F6A6A6" stop-opacity="0.4"/>
<stop offset="1" stop-color="#F6A6A6" stop-opacity="0.2"/>
</linearGradient>
<linearGradient id="paint1_linear" x1="459" y1="7.99998" x2="459" y2="220.544" gradientUnits="userSpaceOnUse">
<stop stop-color="#F6A6A6"/>
<stop offset="0.25" stop-color="#F6A6A6" stop-opacity="0.8"/>
<stop offset="0.510417" stop-color="#F6A6A6" stop-opacity="0.6"/>
<stop offset="0.760417" stop-color="#F6A6A6" stop-opacity="0.4"/>
<stop offset="1" stop-color="#F6A6A6" stop-opacity="0.2"/>
</linearGradient>
<linearGradient id="paint2_linear" x1="670.5" y1="17" x2="281.5" y2="152.5" gradientUnits="userSpaceOnUse">
<stop stop-color="#F6A8A8" stop-opacity="0.25"/>
<stop offset="1" stop-color="#F6A8A8" stop-opacity="0"/>
</linearGradient>
<linearGradient id="paint3_linear" x1="670.5" y1="17" x2="281.5" y2="152.5" gradientUnits="userSpaceOnUse">
<stop stop-color="#F6A8A8" stop-opacity="0.25"/>
<stop offset="1" stop-color="#F6A8A8" stop-opacity="0"/>
</linearGradient>
<linearGradient id="paint4_linear" x1="670.5" y1="17" x2="281.5" y2="152.5" gradientUnits="userSpaceOnUse">
<stop stop-color="#F6A8A8" stop-opacity="0.25"/>
<stop offset="1" stop-color="#F6A8A8" stop-opacity="0"/>
</linearGradient>
<linearGradient id="paint5_linear" x1="670.5" y1="17" x2="281.5" y2="152.5" gradientUnits="userSpaceOnUse">
<stop stop-color="#F6A8A8" stop-opacity="0.25"/>
<stop offset="1" stop-color="#F6A8A8" stop-opacity="0"/>
</linearGradient>
<linearGradient id="paint6_linear" x1="670.5" y1="17" x2="281.5" y2="152.5" gradientUnits="userSpaceOnUse">
<stop stop-color="#F6A8A8" stop-opacity="0.25"/>
<stop offset="1" stop-color="#F6A8A8" stop-opacity="0"/>
</linearGradient>
<clipPath id="clip0">
<rect width="918" height="160" fill="white"/>
</clipPath>
<clipPath id="clip1">
<rect width="94.2892" height="81.5725" fill="white" transform="translate(565 94.9275) rotate(-9.02941)"/>
</clipPath>
</defs>
</svg>
