<svg width="386" height="27" viewBox="0 0 386 27" fill="none" xmlns="http://www.w3.org/2000/svg">
<path d="M326.499 15.2261C326.499 15.2261 323.237 16.3713 323.251 14.0675C323.265 11.7638 325.231 14.9971 327.544 13.6633C328.715 12.9897 329.008 13.4074 329.008 13.4074C329.008 13.4074 328.116 14.7411 326.499 15.2261Z" fill="#CBBCA9"/>
<path d="M329.584 4.02115C329.584 4.02115 331.359 5.44834 331.722 8.49123C332.072 11.5341 333.614 12.2208 333.614 12.2208C333.614 12.2208 332.538 12.4362 331.877 11.8303C331.877 11.8303 332.059 12.5978 331.255 13.0152C330.452 13.4325 330.426 14.3616 330.426 14.3616C330.426 14.3616 329.804 13.0286 330.491 11.6418C331.165 10.255 331.657 6.67357 329.584 4.02115Z" fill="#CBBCA9"/>
<path d="M315.768 1.16265C315.768 1.16265 323.388 -1.69039 327.857 5.17017C327.857 5.17017 326.607 4.24127 325.556 4.20146C324.505 4.17492 322.763 3.57777 322.258 2.22424C322.258 2.22424 322.377 3.79009 321.034 4.40051C321.047 4.38724 321.553 0.154133 315.768 1.16265Z" fill="#CBBCA9"/>
<path d="M327.362 14.7056C327.485 14.6521 330.457 13.354 331.516 10.5305C332.149 8.85777 331.97 7.02447 330.98 5.07074C325.917 -4.97895 308.1 1.32385 281.3 11.6813C254.032 22.2261 241.306 10.5305 241.168 10.4234L239.778 12.4173C240.329 12.8589 253.729 23.0826 281.561 12.337C307.825 2.18028 325.394 -3.7746 330.072 5.51233C330.925 7.21182 331.09 8.77748 330.567 10.1959C329.659 12.6314 326.99 13.7956 326.963 13.809L327.362 14.7056Z" fill="#CBBCA9"/>
<path d="M59.5008 15.2261C59.5008 15.2261 62.7624 16.3713 62.7485 14.0675C62.7346 11.7638 60.7692 14.9971 58.4553 13.6633C57.2845 12.9897 56.9918 13.4074 56.9918 13.4074C56.9918 13.4074 57.8839 14.7411 59.5008 15.2261Z" fill="#CBBCA9"/>
<path d="M56.416 4.02115C56.416 4.02115 54.6279 5.44834 54.278 8.49123C53.9282 11.5341 52.3863 12.2208 52.3863 12.2208C52.3863 12.2208 53.4617 12.4362 54.1226 11.8303C54.1226 11.8303 53.9412 12.5978 54.7445 13.0152C55.5479 13.4325 55.5738 14.3616 55.5738 14.3616C55.5738 14.3616 56.1957 13.0286 55.509 11.6418C54.8352 10.255 54.3428 6.67357 56.416 4.02115Z" fill="#CBBCA9"/>
<path d="M70.2324 1.16265C70.2324 1.16265 62.6118 -1.69039 58.1432 5.17017C58.1432 5.17017 59.3934 4.24127 60.444 4.20146C61.4947 4.17492 63.2369 3.57777 63.7423 2.22424C63.7423 2.22424 63.6226 3.79009 64.9659 4.40051C64.9526 4.38724 64.4472 0.154133 70.2324 1.16265Z" fill="#CBBCA9"/>
<path d="M58.6379 14.7056C58.5141 14.6521 55.5428 13.354 54.4836 10.5305C53.8508 8.85777 54.0296 7.02447 55.0201 5.07074C60.0822 -4.97895 77.8961 1.32385 104.693 11.6813C131.957 22.2261 144.53 10.4636 144.667 10.3699L146.222 12.4173C145.671 12.8589 132.273 23.0826 104.445 12.337C78.185 2.18028 60.6187 -3.7746 55.9417 5.51233C55.0888 7.21182 54.9238 8.77748 55.4465 10.1959C56.3544 12.6314 59.023 13.7956 59.0505 13.809L58.6379 14.7056Z" fill="#CBBCA9"/>
<path d="M236.007 14.3616C239.598 14.3616 242.583 11.7897 243.078 8.44897H373.51C373.95 9.74815 375.188 10.6894 376.687 10.6894C377.884 10.6894 378.93 10.0663 379.521 9.15159L382.506 13.2347L386 7.46796L382.506 1.70118L379.507 5.78432C378.916 4.86959 377.87 4.24652 376.674 4.24652C375.188 4.24652 373.936 5.18776 373.496 6.48694H243.064C242.569 3.14619 239.598 0.57434 235.994 0.57434C232.046 0.57434 228.841 3.66321 228.841 7.46796C228.841 11.2727 232.059 14.3616 236.007 14.3616ZM236.007 2.24472C238.992 2.24472 241.427 4.5912 241.427 7.46796C241.427 10.3447 238.992 12.6912 236.007 12.6912C233.022 12.6912 230.588 10.3447 230.588 7.46796C230.588 4.5912 233.009 2.24472 236.007 2.24472Z" fill="#CBBCA9"/>
<path d="M157.159 7.74853C157.159 3.78906 153.954 0.574577 150.006 0.574577C146.416 0.574577 143.431 3.25101 142.936 6.72762H12.5037C12.0635 5.37561 10.8255 4.39609 9.32614 4.39609C8.12939 4.39609 7.08393 5.0445 6.49243 5.99643L3.49371 1.74724L-0.000274658 7.74853L3.49371 13.7498L6.49243 9.51443C7.08393 10.4664 8.12939 11.1148 9.32614 11.1148C10.8118 11.1148 12.0635 10.1352 12.5037 8.78323H142.936C143.431 12.246 146.402 14.9363 150.006 14.9363C153.954 14.9225 157.159 11.708 157.159 7.74853ZM155.426 7.74853C155.426 10.7423 152.991 13.1842 150.006 13.1842C147.021 13.1842 144.586 10.7423 144.586 7.74853C144.586 4.75478 147.021 2.31288 150.006 2.31288C153.005 2.31288 155.426 4.75478 155.426 7.74853Z" fill="#CBBCA9"/>
<path d="M225 9.41865C221.725 6.83726 217.768 9.20935 215.448 11.0931C212.991 13.0466 210.126 14.2326 207.192 14.3721C196.548 14.721 195.32 2.37214 195.32 2.37214C195.32 2.37214 202.143 14.0233 210.194 9.97679C210.194 9.97679 215.789 7.46516 216.812 4.80649e-05C216.812 4.80649e-05 218.586 3.55819 216.403 6.90703C218.382 5.86051 221.725 4.95354 225 9.41865Z" fill="#CBBCA9"/>
<path d="M161 9.41865C164.275 6.83726 168.232 9.20935 170.552 11.0931C173.009 13.0466 175.874 14.2326 178.808 14.3721C189.452 14.721 190.68 2.37214 190.68 2.37214C190.68 2.37214 183.857 14.0233 175.806 9.97679C175.806 9.97679 170.211 7.46516 169.188 4.80649e-05C169.188 4.80649e-05 167.414 3.55819 169.597 6.90703C167.618 5.86051 164.275 4.95354 161 9.41865Z" fill="#CBBCA9"/>
<path d="M202.962 16.9534C199.209 17.651 195.798 12.9069 193.682 9.06965C193.41 8.58128 193.205 8.16267 193 7.74407C192.796 8.16267 192.591 8.58128 192.318 9.06965C190.203 12.9069 186.791 17.7208 183.039 16.9534C185.972 21.6278 190.544 19.1859 193 11.5813C195.456 19.1859 200.028 21.6278 202.962 16.9534Z" fill="#CBBCA9"/>
<path d="M191.567 21.5581C191.09 23.8605 193 27 193 27C193 27 194.911 23.8605 194.433 21.5581C194.16 19.814 191.84 19.814 191.567 21.5581Z" fill="#CBBCA9"/>
</svg>
