<svg width="64" height="27" viewBox="0 0 64 27" fill="none" xmlns="http://www.w3.org/2000/svg">
<path d="M64 17.5813C60.7249 20.1627 56.7676 17.7906 54.4478 15.9069C51.9915 13.9534 49.1258 12.7674 46.1919 12.6279C35.548 12.279 34.3198 24.6279 34.3198 24.6279C34.3198 24.6279 41.1429 12.9767 49.194 17.0232C49.194 17.0232 54.7889 19.5348 55.8124 27C55.8124 27 57.5863 23.4418 55.403 20.093C57.3817 21.1395 60.7249 22.0465 64 17.5813Z" fill="#CBBCA9"/>
<path d="M0 17.5813C3.27505 20.1627 7.23241 17.7906 9.55224 15.9069C12.0085 13.9534 14.8742 12.7674 17.8081 12.6279C28.452 12.279 29.6802 24.6279 29.6802 24.6279C29.6802 24.6279 22.8571 12.9767 14.806 17.0232C14.806 17.0232 9.21109 19.5348 8.18763 27C8.18763 27 6.41365 23.4418 8.59702 20.093C6.61834 21.1395 3.27505 22.0465 0 17.5813Z" fill="#CBBCA9"/>
<path d="M41.9618 10.0466C38.2091 9.34896 34.7976 14.0931 32.6825 17.9304C32.4096 18.4187 32.2049 18.8373 32.0002 19.2559C31.7955 18.8373 31.5908 18.4187 31.3179 17.9304C29.2028 14.0931 25.7912 9.27919 22.0386 10.0466C24.9725 5.37221 29.5439 7.81407 32.0002 15.4187C34.4565 7.81407 39.0279 5.37221 41.9618 10.0466Z" fill="#CBBCA9"/>
<path d="M30.5674 5.44186C30.0898 3.13953 32.0002 0 32.0002 0C32.0002 0 33.9107 3.13953 33.433 5.44186C33.1601 7.18605 30.8403 7.18605 30.5674 5.44186Z" fill="#CBBCA9"/>
</svg>
