<svg width="260" height="261" viewBox="0 0 260 261" fill="none" xmlns="http://www.w3.org/2000/svg">
<path d="M147.475 19.6337C147.305 19.6337 146.964 19.4634 146.793 19.4634C146.623 19.4634 146.282 19.4634 146.112 19.4634C145.941 19.4634 145.6 19.4634 145.43 19.4634C145.259 19.4634 144.918 19.4634 144.748 19.4634C144.748 19.1229 144.577 18.6121 144.407 17.931C144.236 17.4202 144.066 16.7391 143.895 16.2283C143.725 15.5472 143.554 15.0364 143.213 14.3554C143.213 13.504 143.043 12.9932 142.872 12.3121C142.361 12.3121 141.849 12.1419 141.167 12.1419C140.656 12.1419 139.974 11.9716 139.462 11.9716C138.951 11.9716 138.439 11.9716 137.928 11.8013C137.416 11.8013 136.905 11.8013 136.393 11.6311C135.712 12.9932 135.2 14.1851 134.518 15.2067C134.007 16.3986 133.495 17.2499 133.325 18.1013C132.984 18.1013 132.643 17.931 132.472 17.931C132.131 17.931 131.79 17.931 131.449 17.931C133.154 15.0364 134.689 12.3121 136.223 9.41758C137.757 6.52302 139.292 3.79872 140.997 0.733887H141.508C141.849 1.7555 142.19 2.77711 142.531 3.96899C142.872 5.16087 143.384 6.35275 143.725 7.54463C144.066 8.73651 144.577 9.92839 144.918 11.1203C145.259 12.3121 145.771 13.504 146.112 14.5256C146.452 15.5472 146.793 16.3986 147.134 17.2499C147.475 18.1013 147.305 19.1229 147.475 19.6337ZM136.905 10.7797C137.416 10.7797 137.757 10.7797 138.269 10.95C138.78 10.95 139.121 11.1203 139.633 11.1203C140.144 11.1203 140.656 11.1203 140.997 11.2905C141.508 11.2905 142.02 11.2905 142.361 11.2905L140.315 4.47979L136.905 10.7797Z" fill="#825B5E"/>
<path d="M154.466 9.9298C154.807 8.90819 154.977 7.71631 155.148 6.6947C155.318 5.67309 155.659 4.48121 155.83 3.45959C156.341 3.62986 156.682 3.80013 157.194 3.9704C157.705 4.14067 158.046 4.31094 158.558 4.31094C159.069 4.31094 159.581 4.48121 160.092 4.48121C160.603 4.48121 161.115 4.65147 161.456 4.82174C162.138 4.99201 162.82 5.16228 163.331 5.50282C164.013 5.84335 164.354 6.18389 164.866 6.52443C165.207 6.86496 165.548 7.37577 165.718 8.05684C165.889 8.56765 165.889 9.24872 165.718 10.1001C165.548 10.9514 165.207 11.4622 164.695 11.973C164.184 12.4838 163.672 12.8244 162.99 12.9946C162.308 13.1649 161.797 13.3352 161.115 13.5054C160.433 13.5054 159.921 13.5054 159.41 13.5054C159.58 13.846 159.751 14.1865 159.921 14.6973C160.092 15.2081 160.433 15.8892 160.774 16.4C161.115 16.9108 161.456 17.7621 161.626 18.4432C161.797 19.1243 162.308 19.8054 162.479 20.4864C162.82 21.1675 162.99 21.6783 163.331 22.1891C163.672 22.6999 163.843 23.2107 164.013 23.381C163.843 23.2107 163.502 23.2107 163.331 23.2107C163.161 23.2107 162.82 23.0405 162.649 23.0405C162.479 23.0405 162.138 22.8702 161.967 22.8702C161.797 22.8702 161.456 22.6999 161.285 22.6999C161.115 22.3594 160.944 21.6783 160.603 20.827C160.262 19.9756 159.921 19.1243 159.41 18.1027C158.899 17.4216 158.558 16.4 158.046 15.5487C157.535 14.527 157.194 13.846 156.853 13.1649L155.83 12.9946L155.318 14.6973C154.977 15.7189 154.807 16.9108 154.636 17.9324C154.466 18.954 154.125 19.9756 153.954 21.1675C153.613 20.9973 153.102 20.9973 152.761 20.827C152.249 20.6567 151.908 20.6567 151.567 20.6567C151.908 19.6351 152.249 18.6135 152.42 17.5919C152.761 16.5703 152.931 15.5487 153.272 14.3568L154.466 9.9298ZM156.171 11.8028C156.341 11.973 156.682 11.973 156.853 12.1433C157.194 12.1433 157.364 12.3136 157.705 12.3136C158.217 12.4838 158.728 12.4838 159.41 12.4838C159.921 12.4838 160.603 12.4838 161.115 12.3136C161.626 12.1433 162.138 11.8028 162.479 11.4622C162.82 11.1217 163.161 10.4406 163.331 9.75953C163.502 9.07845 163.502 8.56765 163.331 8.05684C163.161 7.54604 162.99 7.2055 162.649 6.86496C162.308 6.52443 161.967 6.18389 161.456 6.01362C161.115 5.84335 160.603 5.67309 160.092 5.50282C159.581 5.33255 159.069 5.33255 158.558 5.16228C158.217 5.16228 157.876 4.99201 157.535 4.99201C157.194 5.84335 157.023 6.86496 156.853 7.71631C156.682 8.56765 156.341 9.41899 156.171 10.4406V11.8028Z" fill="#825B5E"/>
<path d="M184.131 21.6784C185.154 19.4649 185.836 17.7622 186.347 16.5703C186.859 15.3785 187.2 14.5271 187.37 14.0163C187.541 14.1866 187.711 14.1866 187.882 14.3569C188.052 14.5271 188.223 14.5271 188.393 14.5271C188.564 14.6974 188.905 14.6974 189.075 14.6974C188.734 15.2082 188.393 15.8893 188.052 16.5703C187.711 17.2514 187.2 18.1028 186.859 18.9541C186.518 19.8054 186.006 20.6568 185.665 21.5081C185.324 22.3595 184.813 23.2108 184.472 24.0622C183.96 25.0838 183.449 25.9351 182.767 26.6162C182.085 27.2973 181.403 27.8081 180.551 28.1486C179.698 28.4891 178.846 28.6594 177.823 28.4891C176.8 28.4891 175.947 28.1486 174.754 27.6378C172.367 26.6162 171.003 25.4243 170.321 23.8919C169.639 22.3595 169.98 20.4865 171.003 18.1028C171.344 17.4217 171.685 16.7406 171.856 16.2298C172.197 15.719 172.367 15.0379 172.708 14.5271C173.219 13.165 173.731 11.9731 174.242 10.9515C174.583 9.92988 174.924 9.07853 175.265 8.39746C175.436 8.56773 175.606 8.56773 175.777 8.738C175.947 8.90827 176.118 8.90827 176.288 9.07853C176.459 9.07853 176.629 9.2488 176.8 9.2488C176.97 9.2488 177.141 9.41907 177.311 9.41907C177.141 9.75961 176.97 10.1001 176.629 10.7812C176.288 11.4623 176.118 11.9731 175.777 12.6542C175.436 13.3352 175.095 14.0163 174.754 14.8677C174.413 15.719 174.072 16.5703 173.56 17.4217C173.39 17.9325 173.049 18.4433 172.878 19.1244C172.708 19.8054 172.537 20.3163 172.367 20.8271C172.197 21.3379 172.197 22.0189 172.197 22.5297C172.197 23.0406 172.367 23.7216 172.537 24.2324C172.708 24.7432 173.049 25.254 173.56 25.7648C174.072 26.2757 174.754 26.6162 175.606 26.9567C176.459 27.2973 177.311 27.4675 177.993 27.4675C178.675 27.4675 179.357 27.2973 179.869 27.127C180.38 26.9567 180.892 26.6162 181.403 26.1054C181.915 25.5946 182.256 25.254 182.597 24.573C182.937 24.0622 183.278 23.5514 183.449 22.8703C183.619 22.7 183.79 22.1892 184.131 21.6784Z" fill="#825B5E"/>
<path d="M184.813 35.3C185.325 35.3 185.836 34.9595 186.348 34.6189C186.859 34.2784 187.371 33.7676 187.882 33.0865C188.393 32.4055 188.905 31.7244 189.416 30.873L192.997 24.9136C193.508 23.892 194.19 23.0407 194.702 22.0191C195.213 20.9975 195.725 20.1461 196.236 19.1245C196.407 19.2948 196.577 19.465 196.748 19.465C196.918 19.6353 197.089 19.6353 197.259 19.8056C197.43 19.9759 197.6 19.9759 197.771 20.1461C197.941 20.1461 198.112 20.3164 198.282 20.3164C197.6 21.1677 197.089 22.1893 196.407 23.0407C195.895 23.892 195.213 24.9136 194.702 25.765C194.361 26.4461 193.849 27.1271 193.508 27.8082C193.167 28.4893 192.656 29.1704 192.315 29.8514C191.974 30.5325 191.462 31.2136 191.121 31.8946C190.78 32.5757 190.439 33.0865 190.098 33.5973C189.757 34.2784 189.246 34.7892 188.734 35.1297C188.223 35.4703 187.541 35.8108 187.03 35.9811C186.348 36.1514 185.666 36.1514 184.984 36.1514C184.302 36.1514 183.62 35.8108 182.938 35.4703L183.108 34.7892C183.79 35.3 184.302 35.4703 184.813 35.3Z" fill="#825B5E"/>
<path d="M202.374 35.6405C202.374 35.3 202.544 34.7892 202.544 34.1081C202.544 33.427 202.715 32.7459 202.885 32.0649C203.056 31.3838 203.056 30.5324 203.226 29.6811C203.397 28.8298 203.397 27.9784 203.567 27.2973C203.738 26.6163 203.738 25.7649 203.738 25.2541C203.738 24.573 203.908 24.2325 203.908 23.892C204.079 24.0622 204.249 24.2325 204.42 24.4028C204.59 24.573 204.761 24.7433 204.931 24.9136C205.102 25.0838 205.272 25.2541 205.443 25.2541C205.613 25.2541 205.784 25.4244 206.125 25.5947C205.784 27.2973 205.613 28.8298 205.272 30.5324C205.102 32.0649 204.761 33.7675 204.59 35.6405C205.272 35.4702 205.954 35.1297 206.807 34.7892C207.659 34.4486 208.341 34.1081 209.193 33.7675C210.046 33.427 210.728 33.0865 211.58 32.7459C212.433 32.4054 213.115 32.0649 213.797 31.5541C214.138 31.8946 214.308 32.0649 214.479 32.2351C214.649 32.4054 214.99 32.5757 215.331 32.7459C213.967 33.2567 212.603 33.5973 211.58 34.1081C210.387 34.4486 209.364 34.9594 208.512 35.3C207.659 35.6405 206.807 35.981 206.125 36.3216C205.443 36.6621 204.761 36.8324 204.249 37.1729C203.908 37.6837 203.397 38.1945 203.056 38.7053C202.544 39.2161 202.203 39.8972 201.862 40.408C201.521 40.9188 201.01 41.4296 200.669 41.9404C200.328 42.4512 199.987 42.7918 199.816 43.1323C199.475 42.7918 199.134 42.6215 198.793 42.281C198.452 41.9404 198.111 41.7702 197.771 41.5999C198.452 40.9188 199.134 40.0675 199.816 39.2161C200.839 37.854 201.692 36.6621 202.374 35.6405Z" fill="#825B5E"/>
<path d="M216.695 58.6265C216.525 58.4563 216.354 58.286 216.184 58.1157C216.013 57.9455 215.843 57.7752 215.672 57.6049C215.502 57.4347 215.331 57.2644 215.161 57.0941C214.99 56.9239 214.82 56.7536 214.65 56.5833C214.82 56.2428 214.99 55.732 215.331 55.2212C215.672 54.7104 215.843 54.1996 216.184 53.5185C216.525 52.8374 216.695 52.3266 217.036 51.6455C217.377 50.9645 217.548 50.4537 217.889 49.9429C217.548 49.6023 217.207 49.0915 216.695 48.751C216.354 48.4104 215.843 47.8996 215.502 47.5591C215.161 47.2186 214.82 46.878 214.479 46.3672C214.138 46.0267 213.797 45.6861 213.286 45.3456C211.922 45.8564 210.728 46.3672 209.535 46.878C208.341 47.3888 207.489 47.8996 206.636 48.2402C206.466 48.0699 206.295 47.7294 205.954 47.5591C205.784 47.3888 205.443 47.0483 205.272 46.878C208.341 45.8564 211.41 44.6645 214.479 43.6429C217.548 42.6213 220.617 41.4294 223.686 40.2375L224.027 40.5781C223.686 41.5997 223.174 42.6213 222.663 43.8132C222.151 45.0051 221.64 46.0267 221.128 47.2186C220.617 48.4104 220.105 49.6023 219.594 50.7942C219.082 51.9861 218.571 53.0077 218.23 54.0293C217.889 55.0509 217.377 55.9023 217.207 56.7536C217.036 57.6049 216.866 58.286 216.695 58.6265ZM214.479 45.0051C214.82 45.3456 215.161 45.6861 215.502 46.0267C215.843 46.3672 216.184 46.7078 216.525 47.0483C216.866 47.3888 217.207 47.7294 217.548 48.0699C217.889 48.4104 218.23 48.751 218.571 49.0915L221.299 42.6213L214.479 45.0051Z" fill="#825B5E"/>
<path d="M229.312 64.9268C229.994 61.6916 230.846 58.6268 231.528 55.3917C231.187 55.562 230.505 56.0728 229.994 56.4133C229.312 56.9241 228.459 57.4349 227.266 58.2863C226.925 58.4565 226.584 58.7971 226.243 58.9674C225.731 59.3079 225.39 59.6484 224.879 59.989C224.367 60.3295 223.856 60.67 223.515 61.0106C223.003 61.3511 222.662 61.6916 222.151 62.0322C221.81 62.3727 221.299 62.543 221.128 62.8835C220.787 63.0538 220.617 63.2241 220.446 63.3943C220.276 63.2241 220.105 62.8835 219.935 62.543C219.764 62.2025 219.594 62.0322 219.423 61.8619C219.594 61.8619 219.935 61.6917 220.276 61.3511C220.617 61.1808 221.128 60.8403 221.639 60.4998C222.151 60.1592 222.833 59.8187 223.515 59.4782C224.197 59.1376 224.879 58.6268 225.39 58.2863C226.072 57.9457 226.584 57.4349 227.266 57.0944C227.948 56.7539 228.459 56.4133 228.8 56.0728C230.164 55.2214 231.358 54.3701 232.21 53.689C233.062 53.008 233.915 52.4972 234.426 52.1566L234.597 52.4972C234.256 54.0296 233.915 55.562 233.403 57.2647C233.062 58.9674 232.551 60.67 232.21 62.3727C231.869 64.0754 231.528 65.6078 231.187 67.1402C230.846 68.6727 230.505 69.8645 230.335 71.0564L233.233 69.1835C234.767 68.1619 236.131 67.1402 237.495 66.2889C238.859 65.4376 240.223 64.4159 241.417 63.3943C241.587 63.7349 241.587 63.9051 241.758 64.2457C241.928 64.4159 242.099 64.5862 242.269 64.9268C241.928 65.097 241.417 65.4376 240.735 65.7781C240.053 66.1186 239.371 66.6294 238.689 66.97C238.007 67.4808 237.325 67.8213 236.472 68.3321C235.62 68.8429 235.279 69.1835 234.767 69.3537C234.426 69.524 233.915 69.8645 233.574 70.2051C233.062 70.5456 232.551 70.8861 232.04 71.2267C231.528 71.5672 231.017 71.9078 230.505 72.2483C229.994 72.5888 229.482 72.9294 228.971 73.2699C228.459 73.6104 228.118 73.7807 227.777 74.1212C227.436 74.2915 227.266 74.4618 227.095 74.6321L226.925 74.2915C227.777 71.2267 228.63 68.1619 229.312 64.9268Z" fill="#825B5E"/>
<path d="M232.721 78.8887C232.551 79.2293 232.38 79.5698 232.38 80.0806C232.21 80.4211 232.21 80.9319 232.38 81.4427C232.38 81.9535 232.551 82.4643 232.721 82.8049C232.892 83.3157 233.233 83.6562 233.574 83.9968C233.915 84.3373 234.426 84.5076 234.767 84.6778C235.108 84.8481 235.62 84.8481 236.131 84.8481C236.643 84.8481 237.154 84.6778 237.495 84.5076C238.177 84.167 238.689 83.6562 238.859 83.1454C239.03 82.6346 239.2 81.9535 239.2 81.2725C239.2 80.5914 239.2 79.9103 239.2 79.2293C239.2 78.5482 239.2 77.6968 239.2 77.0158C239.2 76.3347 239.541 75.6536 239.882 74.9725C240.223 74.2915 240.905 73.7807 241.758 73.4401C242.439 73.0996 243.121 72.9293 243.633 72.9293C244.315 72.9293 244.826 73.0996 245.508 73.2699C246.02 73.6104 246.702 73.9509 247.213 74.4617C247.725 74.9725 248.066 75.6536 248.577 76.3347C248.918 77.0158 249.089 77.6968 249.259 78.3779C249.259 79.059 249.259 79.5698 249.089 80.2509C248.748 80.2509 248.407 80.2509 248.066 80.2509C247.725 80.2509 247.384 80.4211 246.872 80.4211L246.702 80.0806C246.872 79.9103 247.043 79.7401 247.213 79.3995C247.384 79.2292 247.554 78.8887 247.725 78.5482C247.895 78.2076 247.895 77.8671 247.895 77.5266C247.895 77.186 247.725 76.6752 247.554 76.3347C247.384 75.8239 247.043 75.4833 246.872 75.3131C246.531 74.9725 246.19 74.8023 245.849 74.632C245.508 74.4617 244.997 74.4617 244.656 74.4617C244.315 74.4617 243.803 74.632 243.462 74.8023C242.78 75.1428 242.269 75.6536 241.928 76.1644C241.757 76.6752 241.587 77.3563 241.587 78.0374C241.587 78.7184 241.587 79.3995 241.587 80.0806C241.587 80.7617 241.587 81.4427 241.587 82.2941C241.587 83.1454 241.246 83.6562 240.905 84.167C240.564 84.8481 240.053 85.1886 239.2 85.6994C238.518 86.04 237.836 86.2103 236.984 86.2103C236.302 86.2103 235.449 86.2102 234.767 85.8697C234.085 85.5292 233.403 85.1886 232.892 84.6778C232.38 84.167 231.869 83.3157 231.357 82.4643C230.846 81.4427 230.676 80.5914 230.676 79.9103C230.676 79.2292 230.676 78.5482 230.846 78.0374C231.187 78.0374 231.698 78.0374 231.869 77.8671C232.039 77.6968 232.551 77.6968 233.062 77.5266L233.233 77.8671C233.062 78.3779 232.892 78.5482 232.721 78.8887Z" fill="#825B5E"/>
<path d="M248.918 103.067C251.305 102.386 253.01 101.875 254.374 101.534C255.738 101.194 256.42 100.853 256.931 100.683C256.931 100.853 256.931 101.023 256.931 101.194C256.931 101.364 256.931 101.534 257.102 101.704C257.102 101.875 257.272 102.215 257.443 102.386C256.931 102.556 256.079 102.726 255.397 102.896C254.544 103.067 253.692 103.237 252.839 103.577C251.987 103.748 250.964 104.088 249.941 104.259C248.918 104.429 248.066 104.769 247.213 104.94C246.19 105.28 244.997 105.28 244.144 105.28C243.121 105.28 242.269 104.94 241.587 104.599C240.905 104.259 240.223 103.577 239.541 102.896C238.859 102.215 238.518 101.194 238.177 100.002C237.495 97.618 237.495 95.5748 238.348 94.2127C239.2 92.8505 240.734 91.6586 243.121 90.9776C243.974 90.8073 244.656 90.637 245.167 90.4668C245.849 90.2965 246.361 90.1262 247.043 89.956C248.407 89.6154 249.6 89.2749 250.623 88.9344C251.646 88.5938 252.498 88.2533 253.351 88.083C253.351 88.2533 253.351 88.5938 253.521 88.7641C253.521 88.9344 253.692 89.2749 253.692 89.4452C253.692 89.6154 253.862 89.7857 253.862 89.956C253.862 90.1262 254.033 90.2965 254.033 90.4668C253.692 90.4668 253.18 90.637 252.669 90.8073C252.157 90.9776 251.475 91.1478 250.623 91.3181C249.941 91.4884 249.089 91.6587 248.236 91.9992C247.384 92.1695 246.531 92.51 245.508 92.6803C244.997 92.8505 244.315 93.0208 243.803 93.1911C243.292 93.3613 242.61 93.5316 242.098 93.8721C241.587 94.2127 241.075 94.3829 240.564 94.8938C240.052 95.2343 239.711 95.7451 239.541 96.2559C239.2 96.7667 239.2 97.4478 239.029 98.1289C239.029 98.8099 239.029 99.6613 239.37 100.513C239.711 101.364 240.052 102.215 240.393 102.726C240.734 103.237 241.246 103.748 241.928 103.918C242.439 104.259 243.121 104.429 243.633 104.429C244.144 104.429 244.826 104.429 245.508 104.429C246.19 104.429 246.702 104.259 247.384 104.088C247.725 103.407 248.407 103.237 248.918 103.067Z" fill="#825B5E"/>
<path d="M256.59 121.456C257.613 121.285 258.806 121.285 259.829 121.115C259.829 121.285 259.829 121.626 259.829 121.796C259.829 121.966 259.829 122.137 259.829 122.477C259.829 122.648 259.829 122.818 259.829 123.158C259.829 123.499 259.829 123.499 260 123.839C258.806 123.839 257.784 123.839 256.761 123.839C255.738 123.839 254.544 123.839 253.521 123.839C251.305 124.01 249.6 124.01 247.895 124.18C246.361 124.18 244.826 124.35 243.633 124.35C243.633 125.542 243.803 126.734 243.803 127.756C243.803 128.777 243.974 129.969 244.315 131.331C243.974 131.331 243.803 131.161 243.462 131.161C243.292 131.161 243.121 131.161 242.78 131.331C242.78 130.48 242.78 129.799 242.78 128.947C242.78 128.096 242.78 127.415 242.61 126.564C242.61 125.712 242.61 125.031 242.439 124.18C242.439 123.499 242.439 122.648 242.269 121.796C243.292 121.796 244.485 121.796 245.508 121.796C246.531 121.796 247.725 121.796 248.747 121.796L253.18 121.626C254.544 121.626 255.567 121.626 256.59 121.456Z" fill="#825B5E"/>
<path d="M251.646 135.928C253.01 136.099 254.374 136.439 255.397 137.12C256.42 137.801 257.272 138.483 257.954 139.334C258.636 140.185 259.147 141.377 259.318 142.569C259.659 143.761 259.659 145.123 259.488 146.485C259.318 147.847 258.977 149.209 258.466 150.231C257.954 151.423 257.272 152.274 256.249 152.955C255.397 153.636 254.374 154.317 253.18 154.488C251.987 154.658 250.623 154.828 249.259 154.658C247.895 154.488 246.531 154.147 245.508 153.466C244.485 152.785 243.633 152.104 242.951 151.253C242.269 150.401 241.757 149.209 241.587 148.018C241.416 146.826 241.246 145.464 241.416 144.101C241.587 142.739 241.928 141.377 242.439 140.355C242.951 139.164 243.633 138.312 244.485 137.631C245.338 136.95 246.361 136.269 247.554 136.099C248.918 135.758 250.282 135.758 251.646 135.928ZM249.77 152.445C251.134 152.615 252.328 152.615 253.521 152.274C254.544 152.104 255.567 151.593 256.249 151.082C256.931 150.572 257.613 149.891 257.954 149.039C258.295 148.188 258.636 147.336 258.806 146.315C258.977 145.293 258.806 144.442 258.636 143.591C258.465 142.739 257.954 141.888 257.443 141.207C256.931 140.526 256.079 139.845 255.056 139.504C254.033 139.164 252.839 138.653 251.475 138.483C250.111 138.312 248.918 138.312 247.725 138.653C246.702 138.823 245.679 139.334 244.997 139.845C244.315 140.355 243.633 141.037 243.292 141.888C242.951 142.739 242.61 143.591 242.439 144.612C242.269 145.634 242.439 146.485 242.61 147.507C242.78 148.358 243.292 149.209 243.803 149.891C244.315 150.572 245.167 151.253 246.19 151.593C247.213 151.934 248.406 152.274 249.77 152.445Z" fill="#825B5E"/>
<path d="M238.177 162.491C239.2 162.32 240.564 162.32 242.098 162.15C243.633 161.98 245.167 161.809 246.872 161.639C248.577 161.469 250.282 161.299 251.987 161.128C253.692 160.958 255.397 160.788 256.931 160.618C256.761 160.788 256.761 161.128 256.59 161.299C256.42 161.469 256.42 161.639 256.42 161.98C256.42 162.15 256.249 162.32 256.249 162.661C256.249 162.831 256.249 163.172 256.079 163.342C254.885 163.342 253.692 163.512 252.328 163.512C250.964 163.512 249.6 163.682 248.236 163.853C246.872 164.023 245.508 164.023 244.144 164.193C242.78 164.363 241.246 164.534 239.882 164.534C240.394 165.045 241.076 165.555 241.757 166.236C242.439 166.747 243.292 167.428 243.974 168.109C244.826 168.79 245.508 169.301 246.361 169.982C247.213 170.663 247.895 171.174 248.748 171.685C249.43 172.196 250.282 172.707 250.794 173.217C251.476 173.728 251.987 174.069 252.498 174.409C252.328 174.75 252.157 175.09 252.157 175.261C252.157 175.431 251.987 175.771 251.987 176.282C249.6 174.239 247.043 172.026 244.656 170.153C242.269 168.109 239.712 166.236 237.325 164.193C237.495 164.023 237.495 163.682 237.666 163.342C238.177 163.001 238.177 162.661 238.177 162.491Z" fill="#825B5E"/>
<path d="M246.702 181.05C247.725 181.39 248.748 181.901 249.771 182.242C249.43 182.923 249.089 183.604 248.748 184.285C248.407 184.966 248.066 185.647 247.725 186.328C247.384 187.009 247.043 187.69 246.872 188.371C246.702 189.052 246.361 189.733 246.02 190.415C245.849 190.244 245.508 190.074 245.338 190.074C245.167 190.074 244.826 189.904 244.656 189.904C244.997 189.393 245.167 189.052 245.338 188.542C245.508 188.201 245.849 187.69 246.02 187.35C246.19 186.839 246.531 186.498 246.872 185.817C247.213 185.136 247.384 184.625 247.895 183.944C247.384 183.774 246.872 183.434 246.531 183.263C246.02 183.093 245.508 182.752 244.997 182.582C244.315 182.242 243.803 182.071 243.292 181.731C242.781 181.39 242.269 181.22 241.928 181.22C241.587 181.901 241.417 182.582 241.076 183.093C240.905 183.604 240.564 184.115 240.394 184.625C240.223 185.136 240.053 185.477 239.882 185.817C239.712 186.158 239.541 186.498 239.541 187.009C239.371 186.839 239.03 186.669 238.859 186.669C238.689 186.498 238.348 186.498 238.177 186.328C238.348 185.988 238.689 185.477 239.03 184.966C239.371 184.455 239.541 183.944 239.882 183.434C240.223 182.923 240.394 182.412 240.564 181.901C240.735 181.39 240.905 181.05 241.076 180.709C240.905 180.709 240.735 180.539 240.564 180.539C240.394 180.539 240.223 180.369 239.882 180.198L239.03 179.858L237.666 179.177C236.813 178.836 236.131 178.496 235.449 178.155C234.938 177.815 234.426 177.644 234.085 177.644C233.915 178.155 233.574 178.666 233.403 179.347C233.063 179.858 232.892 180.539 232.551 181.05C232.381 181.561 232.04 182.242 231.869 182.752C231.699 183.263 231.528 183.774 231.358 184.115C231.187 184.115 231.187 183.944 231.017 183.944C230.846 183.944 230.846 183.774 230.676 183.774C230.505 183.604 230.164 183.604 229.994 183.604C230.335 182.923 230.676 182.242 231.017 181.561C231.358 180.88 231.699 180.198 232.04 179.517C232.381 178.836 232.722 178.155 233.063 177.474C233.403 176.793 233.744 176.112 234.085 175.431C235.108 175.942 235.961 176.453 236.984 176.963C238.007 177.474 238.859 177.985 239.882 178.496L243.803 180.369C244.826 180.198 245.679 180.709 246.702 181.05Z" fill="#825B5E"/>
<path d="M229.482 189.052C229.141 189.052 228.629 189.223 228.288 189.223C227.947 189.393 227.436 189.563 227.095 189.904C226.754 190.244 226.413 190.585 226.072 191.096C225.731 191.606 225.561 192.117 225.561 192.458C225.561 192.968 225.561 193.479 225.561 193.82C225.731 194.331 225.902 194.671 226.243 195.012C226.584 195.352 226.924 195.693 227.265 196.033C227.947 196.374 228.629 196.544 229.141 196.544C229.823 196.374 230.334 196.204 230.846 195.863C231.357 195.523 232.039 195.182 232.551 194.671C233.062 194.16 233.744 193.82 234.426 193.479C235.108 193.139 235.79 192.968 236.472 192.968C237.154 192.968 238.006 193.139 238.859 193.82C239.541 194.16 239.882 194.671 240.223 195.182C240.564 195.693 240.734 196.374 240.905 196.885C241.075 197.566 240.905 198.247 240.734 198.928C240.564 199.609 240.223 200.29 239.882 201.141C239.37 201.822 239.029 202.333 238.518 202.844C238.006 203.185 237.495 203.525 236.813 203.695C236.643 203.355 236.472 203.185 236.302 202.844C236.131 202.504 235.79 202.333 235.449 201.993L235.62 201.652C235.79 201.652 236.131 201.822 236.472 201.822C236.813 201.822 237.154 201.822 237.495 201.822C237.836 201.822 238.177 201.652 238.518 201.482C238.859 201.312 239.2 200.971 239.37 200.631C239.541 200.29 239.711 199.779 239.882 199.439C239.882 199.098 240.052 198.587 239.882 198.247C239.711 197.906 239.711 197.395 239.37 197.055C239.029 196.714 238.859 196.374 238.347 196.204C237.665 195.693 236.983 195.693 236.472 195.693C235.79 195.863 235.279 196.033 234.767 196.374C234.256 196.714 233.574 197.055 233.062 197.566C232.551 198.077 231.869 198.417 231.187 198.758C230.505 199.098 229.993 199.268 229.141 199.268C228.459 199.268 227.777 199.098 226.925 198.587C226.243 198.247 225.731 197.736 225.22 197.055C224.708 196.374 224.538 195.693 224.367 195.012C224.197 194.331 224.197 193.479 224.367 192.628C224.538 191.777 224.879 190.925 225.39 190.244C225.902 189.393 226.584 188.712 227.095 188.371C227.606 188.031 228.288 187.69 228.8 187.52C228.97 187.86 229.311 188.201 229.482 188.371C229.652 188.542 229.993 188.882 230.334 189.223L230.164 189.563C230.164 189.052 229.823 189.052 229.482 189.052Z" fill="#825B5E"/>
<path d="M215.502 208.123C215.161 208.123 214.649 208.123 214.308 208.123C213.967 208.123 213.456 208.293 213.115 208.463C212.774 208.633 212.262 208.974 211.921 209.314C211.58 209.655 211.239 210.166 211.069 210.677C210.898 211.187 210.898 211.528 210.898 212.039C210.898 212.549 211.069 212.89 211.239 213.401C211.41 213.912 211.751 214.252 212.092 214.593C212.603 215.104 213.285 215.444 213.797 215.444C214.308 215.444 214.99 215.444 215.672 215.104C216.354 214.933 217.036 214.593 217.547 214.252C218.229 213.912 218.911 213.741 219.593 213.571C220.275 213.401 220.957 213.401 221.639 213.571C222.321 213.741 223.003 214.082 223.856 214.763C224.367 215.274 224.708 215.785 225.049 216.466C225.22 216.976 225.39 217.658 225.39 218.339C225.39 219.02 225.22 219.701 224.879 220.212C224.538 220.893 224.197 221.574 223.515 222.085C223.003 222.595 222.321 223.106 221.81 223.447C221.298 223.787 220.616 223.957 219.934 223.957C219.764 223.617 219.764 223.276 219.593 223.106C219.423 222.936 219.252 222.425 218.911 222.085L219.082 221.914C219.252 222.085 219.593 222.085 219.934 222.255C220.275 222.425 220.616 222.425 220.957 222.425C221.298 222.425 221.639 222.425 221.98 222.255C222.321 222.085 222.662 221.914 223.003 221.574C223.344 221.233 223.515 220.893 223.685 220.552C223.856 220.212 223.856 219.701 224.026 219.36C224.026 219.02 224.026 218.509 223.856 218.168C223.685 217.828 223.515 217.487 223.174 217.147C222.662 216.636 221.98 216.295 221.469 216.295C220.957 216.295 220.275 216.295 219.593 216.636C218.911 216.806 218.229 217.147 217.718 217.487C217.036 217.828 216.354 217.998 215.672 218.168C214.99 218.339 214.308 218.339 213.626 218.339C212.944 218.168 212.262 217.828 211.58 217.147C211.069 216.636 210.557 215.955 210.216 215.274C209.875 214.593 209.705 213.912 209.705 213.06C209.705 212.379 209.875 211.528 210.216 210.847C210.557 210.166 211.069 209.314 211.751 208.633C212.433 207.952 213.115 207.271 213.797 207.101C214.479 206.76 214.99 206.59 215.672 206.59C215.843 206.931 216.013 207.271 216.184 207.612C216.354 207.952 216.695 208.123 216.865 208.633L216.695 208.804C216.184 208.123 215.843 208.123 215.502 208.123Z" fill="#825B5E"/>
<path d="M192.485 224.979C192.656 224.809 192.826 224.809 192.997 224.639C193.167 224.468 193.338 224.298 193.508 224.298C193.679 224.298 193.849 223.957 194.02 223.957C194.19 223.787 194.361 223.617 194.531 223.447C194.872 223.617 195.213 223.957 195.724 224.298C196.236 224.639 196.747 224.979 197.259 225.32C197.77 225.66 198.452 226.001 198.964 226.341C199.475 226.682 200.157 227.022 200.669 227.363C201.18 227.022 201.521 226.682 202.033 226.341C202.544 226.001 202.885 225.66 203.397 225.32C203.738 224.979 204.249 224.639 204.59 224.298C204.931 223.957 205.442 223.617 205.783 223.276C205.442 221.914 204.931 220.552 204.59 219.36C204.249 218.168 203.908 217.147 203.567 216.466C203.738 216.295 204.079 216.125 204.42 215.955C204.761 215.785 204.931 215.614 205.102 215.274C205.783 218.509 206.636 221.574 207.318 224.809C208 227.874 208.852 231.109 209.705 234.344L209.364 234.684C208.511 234.174 207.488 233.663 206.295 232.982C205.272 232.301 204.079 231.79 203.056 231.109C202.033 230.428 200.839 229.917 199.816 229.236C198.793 228.555 197.77 228.044 196.747 227.533C195.724 227.022 194.872 226.511 194.19 226.171C193.508 225.49 192.997 225.149 192.485 224.979ZM206.295 224.298C205.954 224.639 205.613 224.809 205.272 225.149C204.931 225.49 204.59 225.66 204.079 226.001C203.738 226.341 203.397 226.512 202.885 226.852C202.544 227.193 202.203 227.533 201.692 227.703L207.829 231.109L206.295 224.298Z" fill="#825B5E"/>
<path d="M176.459 233.833C176.629 233.833 176.97 233.663 177.141 233.492C177.311 233.322 177.482 233.322 177.652 233.152C177.823 232.981 177.993 232.981 178.164 232.811C178.334 232.641 178.505 232.641 178.675 232.471C179.016 232.811 179.357 233.152 179.698 233.492C180.21 233.833 180.551 234.344 181.062 234.684C181.574 235.025 182.085 235.536 182.597 235.876C183.108 236.217 183.62 236.727 184.131 237.068C184.643 236.898 185.154 236.557 185.666 236.387C186.177 236.046 186.688 235.876 187.2 235.536C187.711 235.365 188.052 235.025 188.564 234.854C189.075 234.684 189.416 234.344 189.928 234.003C189.757 232.641 189.587 231.279 189.416 229.917C189.246 228.725 189.075 227.703 188.905 226.852C189.246 226.682 189.416 226.682 189.757 226.511C190.098 226.341 190.269 226.171 190.61 226C190.78 229.236 191.121 232.471 191.292 235.706C191.462 238.941 191.803 242.176 192.144 245.581L191.803 245.752C190.951 245.071 190.098 244.389 189.075 243.538C188.052 242.687 187.2 242.006 186.177 241.154C185.154 240.303 184.131 239.622 183.279 238.771C182.256 237.919 181.403 237.238 180.551 236.557C179.698 235.876 178.846 235.365 178.164 234.854C177.311 234.514 176.8 234.173 176.459 233.833ZM190.269 235.536C189.928 235.706 189.416 235.876 189.075 236.217C188.564 236.387 188.223 236.557 187.882 236.898C187.541 237.068 187.029 237.408 186.688 237.579C186.347 237.749 185.836 238.09 185.495 238.26L191.121 242.687L190.269 235.536Z" fill="#825B5E"/>
<path d="M172.538 243.028C172.879 243.198 173.219 243.538 173.731 243.879C174.242 244.219 174.754 244.73 175.436 245.241C176.118 245.752 176.629 246.263 177.311 246.773C177.993 247.284 178.675 247.795 179.187 248.306C179.698 248.817 180.38 249.157 180.892 249.668C181.403 250.179 181.744 250.349 182.085 250.519C181.915 250.519 181.574 250.69 181.403 250.69C181.233 250.69 180.892 250.86 180.721 250.86C180.551 250.86 180.21 251.03 180.039 251.2C179.869 251.371 179.698 251.371 179.357 251.541C178.164 250.349 176.97 249.327 175.606 248.306C174.413 247.284 173.049 246.092 171.685 245.071C171.515 245.752 171.344 246.603 171.174 247.455C171.003 248.306 170.833 249.157 170.833 250.009C170.662 250.86 170.662 251.711 170.492 252.563C170.321 253.414 170.321 254.265 170.321 255.117C169.81 255.117 169.639 255.287 169.298 255.287C169.128 255.287 168.787 255.457 168.446 255.798C168.787 254.265 169.128 253.073 169.298 251.882C169.639 250.69 169.81 249.668 169.98 248.646C170.151 247.625 170.321 246.944 170.492 246.092C170.662 245.411 170.662 244.73 170.833 244.049C170.662 243.538 170.321 242.857 170.151 242.176C169.98 241.495 169.639 240.814 169.298 240.133C168.957 239.452 168.787 238.941 168.616 238.43C168.446 237.919 168.275 237.409 168.105 237.068C168.446 236.898 168.957 236.898 169.298 236.728C169.639 236.557 170.151 236.387 170.492 236.217C170.662 237.068 171.003 238.09 171.515 239.282C171.685 240.473 172.026 241.665 172.538 243.028Z" fill="#825B5E"/>
<path d="M145.6 242.858C145.771 242.858 146.112 242.858 146.282 242.687C146.453 242.687 146.794 242.517 146.964 242.517C147.135 242.517 147.476 242.347 147.646 242.347C147.816 242.347 147.987 242.176 148.328 242.176C148.498 242.517 148.839 243.028 149.18 243.539C149.521 244.049 149.862 244.56 150.203 245.071C150.544 245.582 150.885 246.093 151.397 246.774C151.738 247.285 152.079 247.795 152.42 248.306C152.931 248.136 153.443 248.136 154.125 247.966C154.636 247.795 155.148 247.795 155.83 247.625C156.341 247.455 156.853 247.455 157.364 247.285C157.875 247.114 158.387 247.114 158.898 246.944C159.239 245.582 159.41 244.22 159.58 242.858C159.751 241.666 159.921 240.474 159.921 239.793C160.262 239.793 160.603 239.793 160.774 239.622C161.115 239.622 161.456 239.452 161.626 239.452C160.944 242.687 160.262 245.752 159.58 248.987C158.898 252.222 158.216 255.287 157.535 258.522L157.023 258.693C156.341 257.841 155.83 256.82 154.977 255.798C154.295 254.776 153.613 253.755 152.761 252.733C151.908 251.711 151.226 250.69 150.544 249.668C149.862 248.647 149.18 247.625 148.498 246.774C147.816 245.922 147.305 245.071 146.794 244.39C146.282 243.709 145.771 243.198 145.6 242.858ZM158.216 248.136C157.705 248.306 157.364 248.306 156.853 248.476C156.341 248.476 156 248.647 155.489 248.817C154.977 248.987 154.636 248.987 154.125 249.157C153.613 249.328 153.272 249.328 152.761 249.498L156.853 255.287L158.216 248.136Z" fill="#825B5E"/>
<path d="M135.371 253.244C135.2 251.711 136.393 250.519 137.757 250.519C139.292 250.349 140.485 251.541 140.485 252.903C140.656 254.435 139.462 255.627 138.098 255.627C136.564 255.798 135.371 254.606 135.371 253.244Z" fill="#825B5E"/>
<path d="M112.865 242.516C113.036 242.516 113.377 242.687 113.547 242.687C113.718 242.687 114.059 242.687 114.229 242.687C114.4 242.687 114.741 242.687 114.911 242.687C115.082 242.687 115.423 242.687 115.593 242.687C115.764 243.027 115.764 243.538 115.934 244.219C116.105 244.73 116.275 245.411 116.446 245.922C116.616 246.603 116.787 247.114 117.128 247.795C117.298 248.476 117.469 248.987 117.639 249.668C118.151 249.668 118.662 249.838 119.344 249.838C119.856 249.838 120.538 250.008 121.049 250.008C121.561 250.008 122.072 250.008 122.584 250.179C123.095 250.179 123.606 250.179 124.118 250.179C124.8 248.816 125.311 247.625 125.823 246.433C126.334 245.241 126.846 244.389 127.016 243.538C127.357 243.538 127.698 243.708 128.039 243.708C128.38 243.708 128.721 243.708 129.062 243.708C127.528 246.603 125.823 249.497 124.288 252.222C122.754 255.116 121.22 258.011 119.685 260.905H119.174C118.833 259.884 118.492 258.862 118.151 257.67C117.81 256.478 117.298 255.287 116.957 254.095C116.616 252.903 116.105 251.711 115.764 250.519C115.423 249.327 114.911 248.135 114.57 247.114C114.229 246.092 113.888 245.241 113.547 244.389C113.206 243.538 113.036 243.027 112.865 242.516ZM123.606 251.37C123.095 251.37 122.754 251.37 122.243 251.2C121.731 251.03 121.39 251.03 120.879 251.03C120.367 251.03 119.856 251.03 119.515 250.86C119.003 250.86 118.492 250.86 118.151 250.86L120.538 257.5L123.606 251.37Z" fill="#825B5E"/>
<path d="M106.216 252.222C105.875 253.244 105.705 254.436 105.534 255.457C105.364 256.479 105.193 257.671 104.852 258.692C104.341 258.522 104 258.352 103.488 258.181C102.977 258.011 102.636 257.841 102.124 257.841C101.613 257.671 101.101 257.671 100.76 257.5C100.249 257.5 99.7375 257.33 99.3965 257.16C98.7145 256.99 98.0326 256.819 97.5211 256.479C97.0096 256.138 96.4982 255.798 95.9867 255.457C95.6457 255.117 95.3047 254.606 95.1342 253.925C94.9637 253.414 94.9637 252.733 95.1342 251.882C95.3047 251.03 95.6457 250.519 96.1572 250.009C96.6686 249.498 97.1801 249.157 97.8621 248.987C98.5441 248.817 99.0555 248.646 99.7375 248.476C100.419 248.306 100.931 248.476 101.442 248.476C101.272 248.136 101.101 247.795 100.931 247.284C100.76 246.773 100.419 246.092 100.078 245.582C99.7375 245.071 99.3965 244.219 99.226 243.538C98.885 242.857 98.5441 242.176 98.3736 241.495C98.2031 240.814 97.8621 240.303 97.5211 239.792C97.1801 239.282 97.0096 238.771 96.8391 238.601C97.0096 238.771 97.3506 238.771 97.5211 238.771C97.6916 238.771 98.0326 238.941 98.2031 238.941C98.3736 238.941 98.7145 239.111 98.885 239.111C99.0555 239.111 99.3965 239.282 99.567 239.282C99.7375 239.622 99.908 240.303 100.249 241.155C100.59 242.006 100.931 242.857 101.442 243.709C101.783 244.73 102.295 245.582 102.806 246.603C103.318 247.625 103.659 248.306 104 248.987L105.023 249.157L105.534 247.284C105.875 246.263 106.046 245.071 106.216 244.049C106.387 243.028 106.557 242.006 106.898 240.814C107.239 240.984 107.751 240.984 108.092 241.155C108.603 241.325 108.944 241.325 109.285 241.325C108.944 242.347 108.774 243.368 108.433 244.39C108.092 245.411 107.921 246.433 107.58 247.625L106.216 252.222ZM104.511 250.349C104.341 250.179 104 250.179 103.829 250.009C103.488 250.009 103.318 249.838 102.977 249.838C102.465 249.668 101.954 249.668 101.272 249.668C100.76 249.668 100.078 249.668 99.567 249.838C99.0555 250.009 98.544 250.349 98.2031 250.69C97.8621 251.03 97.5211 251.711 97.3506 252.392C97.1801 253.073 97.1801 253.584 97.3506 254.095C97.5211 254.606 97.6916 254.946 98.0326 255.287C98.3736 255.627 98.7145 255.968 99.226 256.138C99.567 256.309 100.078 256.479 100.59 256.649C101.101 256.819 101.613 256.819 102.124 256.99C102.465 256.99 102.806 257.16 103.147 257.16C103.318 256.309 103.659 255.287 103.829 254.436C104 253.584 104.341 252.733 104.511 251.711V250.349Z" fill="#825B5E"/>
<path d="M76.3805 240.644C75.3576 242.857 74.6756 244.56 74.1641 245.752C73.6527 246.944 73.3117 247.795 73.1412 248.306C72.9707 248.136 72.8002 248.136 72.6297 247.965C72.4592 247.795 72.2887 247.795 72.1182 247.795C71.9478 247.625 71.6068 247.625 71.4363 247.625C71.7773 247.114 72.1182 246.433 72.4592 245.752C72.8002 245.071 73.1412 244.22 73.6527 243.368C73.9937 242.517 74.5051 241.666 74.8461 240.814C75.1871 239.963 75.6986 239.111 76.0396 238.26C76.551 237.239 77.0625 236.387 77.7445 235.706C78.4264 235.025 79.1084 234.514 79.9609 234.174C80.8133 233.833 81.6658 233.663 82.6887 233.833C83.7117 233.833 84.5641 234.174 85.7576 234.684C88.1445 235.706 89.5084 236.898 90.1904 238.43C90.8723 239.963 90.5314 241.836 89.6789 244.22C89.3379 244.901 88.9969 245.582 88.8264 246.092C88.4855 246.603 88.315 247.284 87.974 247.795C87.4625 249.157 86.951 250.349 86.4396 251.371C86.0986 252.392 85.7576 253.244 85.4166 253.925C85.2461 253.755 85.0756 253.755 84.9051 253.584C84.7346 253.414 84.5641 253.414 84.3937 253.244C84.2232 253.244 84.0527 253.073 83.8822 253.073C83.7117 253.073 83.5412 252.903 83.3707 252.903C83.5412 252.563 83.7117 252.052 84.0527 251.541C84.3937 251.03 84.5641 250.349 84.9051 249.668C85.2461 248.987 85.5871 248.306 85.9281 247.455C86.2691 246.603 86.61 245.752 87.1215 244.901C87.292 244.39 87.633 243.879 87.8035 243.198C87.974 242.687 88.1445 242.006 88.315 241.495C88.4855 240.984 88.4855 240.303 88.4855 239.793C88.4855 239.282 88.315 238.601 88.1445 238.09C87.974 237.579 87.4625 237.068 87.1215 236.557C86.61 236.047 85.9281 235.706 85.0756 235.366C84.2232 235.025 83.3707 234.855 82.6887 234.855C82.0068 234.855 81.3248 235.025 80.8133 235.195C80.3019 235.366 79.7904 235.706 79.2789 236.217C78.7674 236.728 78.4264 237.068 78.0855 237.749C77.7445 238.43 77.4035 238.771 77.233 239.452C77.0625 240.133 76.551 240.133 76.3805 240.644Z" fill="#825B5E"/>
<path d="M75.5279 226.852C75.0165 226.852 74.505 227.193 73.9935 227.533C73.482 227.874 72.9706 228.384 72.4591 229.065C71.9476 229.747 71.4361 230.428 70.9246 231.449L67.3443 237.409C66.8328 238.43 66.1509 239.282 65.6394 240.303C65.1279 241.325 64.6165 242.176 64.105 243.198C63.9345 243.027 63.764 242.857 63.5935 242.857C63.423 242.687 63.2525 242.687 63.082 242.517C62.9115 242.346 62.741 242.346 62.5706 242.176C62.4001 242.006 62.2296 242.006 62.0591 242.006C62.741 240.984 63.2525 240.133 63.9345 239.282C64.446 238.43 65.1279 237.409 65.6394 236.557C65.9804 235.876 66.4919 235.195 66.8329 234.514C67.1738 233.833 67.6853 233.152 68.0263 232.471C68.3673 231.79 68.8787 231.109 69.2197 230.428C69.5607 229.747 69.9017 229.236 70.2427 228.725C70.5837 228.044 71.0951 227.533 71.6066 227.193C72.1181 226.852 72.8001 226.511 73.3115 226.341C73.9935 226.171 74.6755 226.171 75.3574 226.171C76.0394 226.341 76.7214 226.511 77.4033 226.852L77.2328 227.533C76.7214 227.022 76.0394 226.852 75.5279 226.852Z" fill="#825B5E"/>
<path d="M57.9671 226.682C57.9671 227.023 57.7966 227.533 57.7966 228.214C57.7966 228.895 57.6261 229.577 57.6261 230.258C57.6261 230.939 57.4556 231.79 57.2851 232.641C57.1146 233.493 57.1146 234.344 56.9441 235.025C56.7736 235.876 56.7736 236.558 56.7736 237.068C56.7736 237.749 56.6031 238.09 56.6031 238.431C56.4326 238.26 56.2621 238.09 56.0917 237.92C55.9212 237.749 55.7507 237.579 55.5802 237.409C55.4097 237.239 55.2392 237.068 55.0687 237.068C54.8982 237.068 54.7277 236.898 54.3867 236.728C54.7277 235.025 54.8982 233.493 55.2392 231.79C55.4097 230.087 55.7507 228.555 55.9212 226.682C55.2392 226.852 54.5572 227.193 53.7048 227.533C52.8523 227.874 52.1703 228.214 51.3179 228.555C50.4654 228.895 49.7835 229.236 48.931 229.577C48.0785 229.917 47.3966 230.258 46.7146 230.768C46.3736 230.428 46.2031 230.258 46.0326 230.087C45.8621 229.917 45.5212 229.747 45.1802 229.577C46.5441 229.066 47.908 228.725 48.931 228.214C50.1244 227.874 51.1474 227.363 51.9998 227.023C52.8523 226.682 53.7048 226.341 54.3867 226.001C55.0687 225.66 55.7507 225.49 56.2621 225.15C56.6031 224.639 57.1146 224.128 57.4556 223.617C57.9671 223.106 58.308 222.425 58.649 221.914C58.99 221.404 59.5015 220.893 59.8425 220.382C60.1834 219.871 60.5244 219.531 60.6949 219.19C61.0359 219.531 61.3769 219.701 61.7179 220.042C62.0589 220.382 62.3998 220.552 62.7408 220.723C62.0589 221.404 61.3769 222.255 60.6949 223.106C60.013 223.958 58.8195 225.66 57.9671 226.682Z" fill="#825B5E"/>
<path d="M43.6461 203.866C43.8166 204.036 43.9871 204.206 44.1576 204.376C44.3281 204.547 44.4986 204.717 44.669 204.887C44.8395 205.057 45.01 205.228 45.1805 205.398C45.351 205.568 45.5215 205.739 45.692 205.909C45.5215 206.249 45.351 206.76 45.01 207.271C44.8395 207.782 44.4986 208.293 44.1576 208.974C43.8166 209.655 43.6461 210.166 43.3051 210.847C42.9641 211.528 42.7936 212.038 42.4526 212.549C42.7936 212.89 43.1346 213.401 43.6461 213.741C43.9871 214.082 44.4986 214.593 44.8395 214.933C45.1805 215.274 45.5215 215.614 45.8625 216.125C46.2035 216.465 46.5445 216.806 47.0559 217.147C48.4199 216.636 49.6133 216.125 50.8067 215.614C52.0002 215.103 52.8527 214.593 53.7051 214.252C53.8756 214.422 54.0461 214.763 54.3871 214.933C54.5576 215.103 54.8986 215.444 55.069 215.614C52.0002 216.636 48.9313 217.828 45.8625 218.849C42.7936 220.041 39.7248 221.063 36.6559 222.255L36.3149 221.914C36.6559 220.892 37.1674 219.871 37.6789 218.679C38.1904 217.487 38.7018 216.295 39.2133 215.274C39.7248 214.252 40.2363 212.89 40.7477 211.698C41.2592 210.506 41.6002 209.484 42.1117 208.463C42.4527 207.441 42.9641 206.59 43.1346 205.739C43.3051 204.887 43.4756 204.206 43.6461 203.866ZM45.8625 217.487C45.5215 217.147 45.1805 216.806 44.8395 216.465C44.4986 216.125 44.1576 215.784 43.8166 215.444C43.4756 215.103 43.1346 214.763 42.7936 214.422C42.4527 214.082 42.1117 213.741 41.7707 213.401L39.0428 220.041L45.8625 217.487Z" fill="#825B5E"/>
<path d="M31.0297 197.566C30.3478 200.801 29.6658 203.866 28.9838 207.101C29.3248 206.931 30.0068 206.42 30.5182 206.079C31.2002 205.569 32.0527 205.058 33.2461 204.206C33.5871 204.036 33.9281 203.696 34.2691 203.525C34.7805 203.185 35.1215 202.844 35.633 202.504C36.1445 202.163 36.656 201.823 36.9969 201.482C37.5084 201.142 37.8494 200.801 38.3609 200.461C38.7019 200.12 39.2133 199.95 39.3838 199.609C39.7248 199.439 39.8953 199.269 40.0658 199.098C40.2363 199.269 40.4068 199.609 40.5773 199.95C40.7478 200.29 40.9182 200.461 41.0887 200.631C40.9182 200.631 40.5773 200.801 40.2363 201.142C39.8953 201.312 39.3838 201.652 38.8723 201.993C38.3609 202.334 37.6789 202.674 37.1674 203.015C36.4855 203.355 35.8035 203.866 35.292 204.206C34.7805 204.547 34.0986 205.058 33.4166 205.398C32.7346 205.739 32.2232 206.079 31.8822 206.42C30.5182 207.271 29.3248 208.123 28.4723 208.804C27.6199 209.485 26.7674 209.996 26.256 210.336L26.0855 209.996C26.4264 208.463 26.7674 206.931 27.2789 205.228C27.6199 203.525 28.1314 201.823 28.4723 200.12C28.8133 198.417 29.1543 196.885 29.4953 195.353C29.8363 193.82 30.1773 192.628 30.3478 191.436L27.4494 193.309C25.915 194.331 24.551 195.353 23.1871 196.204C21.8232 197.225 20.4592 198.077 19.2658 199.098C19.0953 198.758 19.0953 198.588 18.9248 198.247C18.7543 198.077 18.5838 197.907 18.4133 197.566C18.7543 197.396 19.2658 197.055 19.9478 196.715C20.6297 196.374 21.3117 195.863 21.9937 195.523C22.6756 195.012 23.3576 194.671 24.2101 194.161C24.892 193.65 25.4035 193.309 25.915 193.139C26.256 192.969 26.7674 192.628 27.1084 192.288C27.6199 191.947 28.1314 191.607 28.6428 191.266C29.1543 190.926 29.6658 190.585 30.1773 190.244C30.6887 189.904 31.2002 189.563 31.7117 189.223C32.2232 188.882 32.5641 188.712 32.9051 188.372C33.2461 188.201 33.4166 188.031 33.5871 187.861L33.7576 188.201C32.3937 191.266 31.7117 194.331 31.0297 197.566Z" fill="#825B5E"/>
<path d="M27.6198 183.604C27.7903 183.263 27.9608 182.923 27.9608 182.412C28.1313 182.071 28.1313 181.56 27.9608 181.05C27.7903 180.539 27.7903 180.028 27.6198 179.687C27.4493 179.177 27.1083 178.836 26.7673 178.496C26.4264 178.155 25.9149 177.985 25.5739 177.815C25.0624 177.644 24.7214 177.644 24.21 177.644C23.6985 177.644 23.187 177.815 22.846 177.985C22.1641 178.325 21.6526 178.836 21.4821 179.347C21.3116 179.858 21.1411 180.539 21.1411 181.22C21.1411 181.901 21.1411 182.582 21.1411 183.263C21.1411 183.944 21.1411 184.796 21.1411 185.477C20.9706 186.158 20.8001 186.839 20.4591 187.52C20.1182 188.201 19.4362 188.712 18.5837 189.052C17.9018 189.393 17.2198 189.563 16.7083 189.563C16.0264 189.563 15.5149 189.393 14.8329 189.222C14.3214 188.882 13.6395 188.541 13.128 188.031C12.6165 187.52 12.105 186.839 11.7641 186.158C11.4231 185.477 11.2526 184.796 11.0821 184.114C10.9116 183.433 11.0821 182.923 11.2526 182.241C11.5936 182.241 11.9346 182.241 12.2755 182.241C12.6165 182.241 12.9575 182.071 13.469 182.071L13.6395 182.412C13.469 182.582 13.2985 182.752 13.128 183.093C12.9575 183.433 12.787 183.604 12.6165 183.944C12.446 184.285 12.446 184.625 12.446 184.966C12.446 185.306 12.6165 185.817 12.787 186.158C12.9575 186.668 13.2985 187.009 13.6395 187.179C13.9805 187.52 14.3214 187.69 14.6624 187.86C15.0034 188.031 15.5149 188.031 15.8559 188.031C16.1968 188.031 16.7083 187.86 17.0493 187.69C17.7313 187.35 18.2428 186.839 18.5837 186.328C18.7542 185.817 18.9247 185.136 18.9247 184.455C18.9247 183.774 18.9247 183.093 18.9247 182.412C18.9247 181.731 18.9247 181.05 18.9247 180.198C18.9247 179.517 19.2657 178.836 19.6067 178.325C19.9477 177.815 20.4591 177.304 21.3116 176.793C21.9936 176.452 22.6755 176.282 23.528 176.282C24.21 176.282 25.0624 176.282 25.7444 176.623C26.4264 176.963 27.1083 177.304 27.6198 177.815C28.1313 178.325 28.6428 179.177 29.1542 180.028C29.6657 181.05 29.8362 181.731 29.8362 182.582C29.8362 183.263 29.8362 183.944 29.6657 184.455C29.3247 184.455 28.8132 184.455 28.6427 184.625C28.3018 184.625 27.9608 184.796 27.4493 184.966L27.2788 184.625C27.1083 184.114 27.4493 183.944 27.6198 183.604Z" fill="#825B5E"/>
<path d="M11.2524 159.426C8.86549 160.107 7.16057 160.618 5.79664 160.958C4.60319 161.299 3.75073 161.639 3.23926 161.81C3.23926 161.639 3.23926 161.469 3.23926 161.299C3.23926 161.129 3.23926 160.958 3.06877 160.788C3.06877 160.618 2.89827 160.277 2.72778 160.107C3.23926 159.937 4.09172 159.766 4.77368 159.596C5.62614 159.426 6.4786 159.256 7.33106 158.915C8.18352 158.745 9.20647 158.404 10.2294 158.234C11.2524 158.064 12.1048 157.723 12.9573 157.553C13.9802 157.212 15.1737 157.212 16.0261 157.212C17.0491 157.212 17.9016 157.553 18.5835 157.893C19.436 158.234 19.9475 158.915 20.6294 159.596C21.1409 160.448 21.6524 161.299 21.9934 162.491C22.6753 164.874 22.6753 166.918 21.8229 168.28C20.9704 169.642 19.436 170.834 17.0491 171.515C16.1966 171.685 15.5147 171.856 15.0032 172.026C14.4917 172.196 13.8097 172.366 13.1278 172.537C11.7638 172.877 10.5704 173.388 9.54745 173.728C8.5245 174.069 7.67204 174.41 6.81959 174.58C6.81959 174.41 6.81959 174.069 6.64909 173.899C6.4786 173.728 6.81959 173.558 6.81959 173.388C6.81959 173.218 6.64909 173.047 6.64909 172.877C6.64909 172.707 6.4786 172.537 6.4786 172.366C6.81959 172.366 7.33106 172.196 7.84254 172.026C8.35401 171.856 9.03598 171.685 9.88844 171.515C10.7409 171.345 11.4229 171.174 12.2753 170.834C13.1278 170.493 13.9802 170.323 15.0032 170.153C15.5147 169.983 16.1966 169.812 16.7081 169.642C17.2196 169.472 17.9016 169.301 18.413 168.961C18.9245 168.62 19.436 168.45 19.9475 167.939C20.4589 167.599 20.7999 167.088 20.9704 166.577C21.3114 166.066 21.3114 165.385 21.4819 164.704C21.6524 164.023 21.4819 163.172 21.1409 162.32C20.7999 161.469 20.4589 160.618 20.1179 160.107C19.6065 159.596 19.2655 159.085 18.5835 158.915C18.072 158.575 17.3901 158.404 16.8786 158.404C16.3671 158.404 15.6852 158.404 15.0032 158.404C14.3212 158.404 13.6393 158.745 12.9573 158.915C12.2753 159.085 11.7638 159.256 11.2524 159.426Z" fill="#825B5E"/>
<path d="M3.40984 141.037C2.38689 141.207 1.19344 141.207 0.170492 141.377C0.170492 141.207 0.170492 140.866 0.170492 140.696C0.170492 140.526 0.170492 140.355 0.170492 140.015C0.170492 139.845 0.170492 139.674 0.170492 139.334C0.170492 138.993 0.170492 138.993 0 138.653C1.19344 138.653 2.21639 138.653 3.23934 138.653C4.2623 138.653 5.45574 138.653 6.47869 138.483C8.69508 138.312 10.4 138.312 12.1049 138.142C13.6393 137.972 15.1738 137.972 16.3672 137.972C16.3672 136.78 16.1967 135.588 16.1967 134.566C16.1967 133.545 16.0262 132.353 15.6852 130.991C16.0262 130.991 16.1967 131.161 16.5377 131.161C16.7082 131.161 16.8787 131.161 17.2197 130.991C17.2197 131.842 17.2197 132.523 17.2197 133.374C17.2197 134.226 17.2197 134.907 17.3902 135.758C17.3902 136.61 17.3902 137.291 17.5607 138.142C17.7312 138.993 17.7311 139.674 17.7311 140.526C16.7082 140.526 15.5148 140.526 14.4918 140.526C13.4689 140.526 12.2754 140.526 11.2525 140.696L6.81967 140.866C5.62623 140.866 4.43279 141.037 3.40984 141.037Z" fill="#825B5E"/>
<path d="M8.35549 126.734C6.99156 126.564 5.62762 126.223 4.60467 125.542C3.58172 124.861 2.72926 124.18 2.04729 123.329C1.36533 122.477 0.853851 121.285 0.683359 120.094C0.342375 118.902 0.342375 117.54 0.512867 116.177C0.683359 114.815 1.02434 113.453 1.53582 112.431C2.04729 111.24 2.72926 110.388 3.58172 109.707C4.43418 109.026 5.45713 108.345 6.65057 108.004C7.84402 107.664 9.20795 107.664 10.5719 107.664C11.9358 107.834 13.2998 108.175 14.3227 108.856C15.3457 109.537 16.1981 110.218 16.8801 111.069C17.562 111.921 18.0735 113.113 18.244 114.304C18.4145 115.496 18.585 116.858 18.4145 118.221C18.244 119.583 17.903 120.945 17.3916 121.966C16.8801 122.988 16.1981 124.01 15.3457 124.861C14.4932 125.712 13.4702 126.223 12.2768 126.564C11.0834 126.734 9.71943 126.904 8.35549 126.734ZM10.2309 110.218C8.86697 110.048 7.50303 110.048 6.48008 110.218C5.45713 110.388 4.43418 110.899 3.75221 111.41C3.07024 111.921 2.38828 112.602 2.04729 113.453C1.70631 114.304 1.36533 115.156 1.19483 116.177C1.02434 117.199 1.19483 118.05 1.36533 118.902C1.53582 119.753 2.04729 120.604 2.55877 121.285C3.07024 121.966 3.9227 122.648 4.94565 122.988C5.96861 123.329 7.16205 123.839 8.52598 124.01C9.88992 124.18 11.0834 124.18 12.2768 123.839C13.2998 123.669 14.3227 123.158 15.0047 122.648C15.6866 122.137 16.3686 121.456 16.7096 120.604C17.0506 119.753 17.3916 118.902 17.562 117.88C17.7325 116.858 17.562 116.007 17.3916 114.985C17.2211 113.964 16.7096 113.283 16.1981 112.602C15.6866 111.921 14.8342 111.24 13.8112 110.899C12.7883 110.559 11.5948 110.388 10.2309 110.218Z" fill="#825B5E"/>
<path d="M21.6523 100.002C20.6293 100.172 19.2654 100.172 17.731 100.342C16.1966 100.513 14.6621 100.683 12.9572 100.853C11.2523 101.023 9.54737 101.194 7.84245 101.364C6.13754 101.534 4.43262 101.705 2.89819 101.875C3.06869 101.705 3.06869 101.364 3.23918 101.194C3.40967 101.023 3.40967 100.853 3.40967 100.513C3.40967 100.172 3.40967 100.172 3.40967 100.002C3.40967 99.8316 3.40967 99.491 3.58016 99.3208C4.7736 99.3208 5.96705 99.1505 7.33098 99.1505C8.69491 99.1505 10.0588 98.9802 11.4228 98.81C12.7867 98.6397 14.1507 98.6397 15.5146 98.4694C16.8785 98.2991 18.2425 98.1289 19.7769 97.9586C19.2654 97.4478 18.5834 96.937 17.731 96.2559C17.049 95.7451 16.1966 95.064 15.5146 94.383C14.6621 93.7019 13.9802 93.1911 13.1277 92.51C12.2752 91.8289 11.5933 91.3181 10.7408 90.8073C10.0588 90.2965 9.20639 89.7857 8.69491 89.2749C8.01295 88.7641 7.50147 88.4236 6.99 88.083C7.16049 87.7425 7.33098 87.402 7.33098 87.2317C7.33098 87.0614 7.50147 86.7209 7.50147 86.2101C9.88836 88.2533 12.4457 90.2965 14.8326 92.3397C17.2195 94.383 19.7769 96.2559 22.1638 98.1289C21.9933 98.2991 21.9933 98.6397 21.8228 98.9802C21.8228 99.491 21.6523 99.8316 21.6523 100.002Z" fill="#825B5E"/>
<path d="M13.1277 81.4429C12.1047 81.1023 11.0818 80.5915 10.0588 80.251C10.3998 79.5699 10.7408 78.8889 11.0818 78.2078C11.4228 77.5267 11.7638 76.8456 12.1047 76.1646C12.4457 75.4835 12.7867 74.8024 12.9572 74.1213C13.2982 73.27 13.6392 72.5889 13.8097 71.9078C13.9802 72.0781 14.3211 72.2484 14.4916 72.2484C14.8326 72.4186 15.0031 72.5889 15.1736 72.5889C14.8326 73.0997 14.6621 73.4403 14.4916 73.9511C14.3211 74.2916 13.9802 74.8024 13.8097 75.1429C13.6392 75.6537 13.2982 75.9943 12.9572 76.6754C12.6162 77.3564 12.4457 77.8672 12.1047 78.5483C12.6162 78.7186 13.1277 79.0591 13.4687 79.2294C13.9801 79.3997 14.4916 79.7402 15.0031 79.9105C15.6851 80.251 16.1965 80.4213 16.708 80.7618C17.2195 81.1023 17.731 81.2726 18.072 81.2726C18.4129 80.5915 18.5834 79.9105 18.9244 79.3997C19.2654 78.8889 19.4359 78.378 19.6064 77.8672C19.7769 77.3564 19.9474 77.0159 20.1179 76.6754C20.2883 76.3348 20.4588 75.9943 20.4588 75.4835C20.6293 75.6537 20.9703 75.824 21.1408 75.824C21.3113 75.9943 21.6523 75.9943 21.8228 75.9943C21.6523 76.3348 21.3113 76.8456 21.1408 77.3564C20.9703 77.8672 20.6293 78.378 20.2883 78.8889C20.1179 79.3997 19.7769 79.9105 19.6064 80.4213C19.4359 80.9321 19.2654 81.2726 19.0949 81.6131C19.2654 81.6131 19.4359 81.7834 19.6064 81.7834C19.7769 81.7834 19.9474 81.9537 20.2883 82.124L21.1408 82.4645L22.5047 83.1456C23.3572 83.4861 24.0392 83.8266 24.7211 84.1672C25.4031 84.5077 25.7441 84.678 26.0851 84.678C26.2556 84.1672 26.5965 83.6564 26.767 82.9753C27.108 82.4645 27.2785 81.7834 27.449 81.2726C27.6195 80.7618 27.9605 80.0807 28.131 79.5699C28.3015 79.0591 28.472 78.5483 28.6424 78.2078C28.8129 78.2078 28.8129 78.378 28.9834 78.378C29.1539 78.378 29.1539 78.5483 29.3244 78.5483C29.4949 78.7186 29.8359 78.7186 30.0064 78.7186C29.6654 79.3997 29.3244 80.0807 28.9834 80.7618C28.6424 81.4429 28.3015 82.124 27.9605 82.805C27.6195 83.4861 27.2785 84.1672 26.9375 84.8483C26.5965 85.5293 26.2556 86.2104 26.0851 87.0617C25.0621 86.5509 24.2097 86.0401 23.1867 85.5293C22.1638 85.0185 21.3113 84.5077 20.2883 84.1672L16.0261 82.805C15.0031 82.2942 13.9801 81.9537 13.1277 81.4429Z" fill="#825B5E"/>
<path d="M30.3478 73.4403C30.6887 73.4403 31.2002 73.27 31.5412 73.0998C31.8822 72.9295 32.3937 72.7592 32.7347 72.4187C33.0756 72.0781 33.4166 71.7376 33.7576 71.2268C34.0986 70.716 34.2691 70.2052 34.2691 69.8647C34.2691 69.3539 34.2691 68.843 34.2691 68.5025C34.0986 67.9917 33.9281 67.6512 33.5871 67.3106C33.2461 66.9701 32.9051 66.6296 32.5642 66.289C31.8822 65.9485 31.2002 65.7782 30.6887 65.7782C30.1773 65.7782 29.4953 66.1187 28.9838 66.4593C28.4724 66.7998 27.7904 67.1404 27.2789 67.6512C26.7674 68.162 26.0855 68.5025 25.4035 68.843C24.551 69.0133 23.8691 69.1836 23.1871 69.1836C22.5051 69.1836 21.6527 69.0133 20.8002 68.3322C20.1183 67.9917 19.7773 67.4809 19.2658 66.9701C18.9248 66.4593 18.7543 65.7782 18.5838 65.2674C18.4133 64.7566 18.5838 63.9053 18.5838 63.2242C18.7543 62.5431 19.0953 61.862 19.4363 61.0107C19.9478 60.3296 20.2887 59.8188 20.8002 59.308C21.3117 58.9675 21.8232 58.6269 22.5051 58.4567C22.6756 58.7972 22.8461 58.9675 23.0166 59.308C23.1871 59.6485 23.5281 59.8188 23.8691 60.1594L24.0396 60.6702C23.8691 60.6702 23.5281 60.4999 23.1871 60.4999C22.8461 60.4999 22.5051 60.4999 22.1642 60.4999C21.8232 60.4999 21.4822 60.6702 21.1412 61.0107C20.8002 61.181 20.4592 61.5215 20.2887 61.862C20.1183 62.2026 19.9478 62.7134 19.7773 63.0539C19.7773 63.3945 19.7773 63.9053 19.7773 64.2458C19.7773 64.5863 19.9478 65.0971 20.2887 65.4377C20.4592 65.7782 20.8002 66.1187 21.3117 66.289C21.9937 66.6296 22.6756 66.7998 23.1871 66.7998C23.6986 66.7998 24.3806 66.4593 24.892 66.1187C25.4035 65.7782 26.0855 65.4377 26.5969 64.9269C27.1084 64.4161 27.7904 64.0755 28.4724 63.735C29.1543 63.3944 29.6658 63.2242 30.5183 63.2242C31.2002 63.2242 31.8822 63.3945 32.7347 63.9053C33.4166 64.2458 33.9281 64.7566 34.4396 65.4377C34.951 66.1187 35.1215 66.7998 35.292 67.4809C35.4625 68.162 35.4625 69.0133 35.292 69.8647C35.1215 70.716 34.7806 71.5673 34.2691 72.2484C33.7576 73.0998 33.0756 73.7808 32.5642 74.1214C32.0527 74.4619 31.3707 74.8024 30.8592 74.9727C30.6888 74.6322 30.3478 74.2916 30.1773 74.1214C30.0068 73.9511 29.6658 73.6106 29.1543 73.27L29.3248 72.9295C29.6658 73.4403 30.0068 73.4403 30.3478 73.4403Z" fill="#825B5E"/>
<path d="M44.1576 54.37C44.4985 54.37 45.01 54.37 45.351 54.37C45.692 54.37 46.2035 54.1997 46.5444 54.0295C46.8854 53.8592 47.3969 53.5187 47.7379 53.1781C48.0789 52.8376 48.4199 52.3268 48.5904 51.816C48.7608 51.3052 48.7608 50.9646 48.7608 50.4538C48.7608 49.943 48.5904 49.6025 48.4199 49.0917C48.2494 48.5809 47.9084 48.2403 47.5674 47.8998C47.0559 47.389 46.374 47.0485 45.8625 47.0485C45.1805 47.0485 44.669 47.0485 43.9871 47.389C43.3051 47.5593 42.6231 47.8998 42.1117 48.2403C41.4297 48.5809 40.7477 48.7511 40.0658 48.9214C39.3838 49.0917 38.7018 49.0917 38.0199 48.9214C37.3379 48.7511 36.6559 48.4106 35.8035 47.7295C35.292 47.2187 34.951 46.7079 34.61 46.0268C34.4395 45.516 34.269 44.835 34.269 44.1539C34.269 43.4728 34.4395 42.7917 34.7805 42.2809C35.1215 41.7701 35.4625 40.9188 36.1445 40.408C36.6559 39.8972 37.3379 39.3864 37.8494 39.0458C38.3608 38.7053 39.0428 38.535 39.7248 38.535C39.8953 38.8756 39.8953 39.2161 40.0658 39.3864C40.2363 39.5566 40.4067 40.0675 40.7477 40.408L40.5772 40.5783C40.4067 40.408 40.0658 40.408 39.7248 40.2377C39.3838 40.2377 39.2133 40.2377 38.8723 40.2377C38.5313 40.2377 38.1904 40.408 37.8494 40.408C37.5084 40.5783 37.1674 40.7485 36.8264 41.0891C36.4854 41.4296 36.3149 41.7701 36.1445 42.2809C35.8035 42.6215 35.8035 43.1323 35.8035 43.4728C35.8035 43.8134 35.8035 44.3242 35.974 44.6647C36.1445 45.0052 36.3149 45.3458 36.6559 45.6863C37.1674 46.1971 37.8494 46.5377 38.3608 46.5377C39.0428 46.5377 39.5543 46.5377 40.2363 46.1971C40.9182 45.8566 41.6002 45.6863 42.1117 45.3458C42.6231 45.0052 43.4756 44.835 44.1576 44.4944C44.8395 44.3242 45.5215 44.3242 46.2035 44.3242C46.8854 44.4944 47.5674 44.835 48.2494 45.516C48.7608 46.0268 49.2723 46.7079 49.6133 47.389C49.9543 48.0701 50.1248 48.7511 50.1248 49.6025C50.1248 50.2836 49.9543 51.1349 49.6133 51.816C49.2723 52.497 48.7608 53.3484 48.0789 54.0295C47.3969 54.7105 46.7149 55.3916 46.033 55.5619C45.351 55.9024 44.8395 56.0727 44.1576 56.0727C43.9871 55.7321 43.8166 55.3916 43.6461 55.0511C43.4756 54.7105 43.1346 54.5403 42.9641 54.0295L43.1346 53.8592C43.4756 54.1997 43.8166 54.37 44.1576 54.37Z" fill="#825B5E"/>
<path d="M67.1735 37.3432C67.003 37.5135 66.8325 37.5135 66.6621 37.6838C66.4916 37.854 66.3211 38.0243 66.1506 38.0243C65.9801 38.1946 65.8096 38.3649 65.6391 38.3649C65.4686 38.3649 65.2981 38.7054 65.1276 38.8757C64.7866 38.7054 64.4457 38.3649 63.9342 38.0243C63.4227 37.6838 62.9112 37.3432 62.3998 37.0027C61.8883 36.6622 61.2063 36.3216 60.6948 35.9811C60.1834 35.6406 59.5014 35.3 58.9899 34.9595C58.4784 35.3 58.1375 35.6406 57.626 35.9811C57.1145 36.3216 56.7735 36.6622 56.2621 37.0027C55.9211 37.3432 55.4096 37.6838 55.0686 38.0243C54.7276 38.3649 54.2162 38.7054 53.8752 39.0459C54.2162 40.4081 54.7276 41.7702 55.0686 42.9621C55.4096 44.154 55.7506 45.1756 56.0916 45.8567C55.9211 46.0269 55.5801 46.1972 55.2391 46.3675C54.8981 46.5377 54.7276 46.708 54.5571 47.0485C53.8752 43.8134 53.0227 40.7486 52.3407 37.5135C51.4883 34.4487 50.8063 31.2136 49.9539 27.9785L50.2948 27.6379C51.1473 28.1487 52.1703 28.6596 53.3637 29.3406C54.3866 30.0217 55.5801 30.5325 56.603 31.2136C57.626 31.8947 58.8194 32.4055 60.0129 33.0865C61.2063 33.7676 62.2293 34.2784 63.0817 34.7892C64.1047 35.3 64.9571 35.8108 65.6391 36.1514C66.1506 36.8324 66.6621 37.173 67.1735 37.3432ZM53.1932 38.0243C53.5342 37.6838 53.8752 37.5135 54.2162 37.173C54.5571 36.8324 54.8981 36.6622 55.2391 36.3216C55.5801 35.9811 55.9211 35.8108 56.4325 35.4703C56.7735 35.1298 57.1145 34.7892 57.4555 34.6189L51.1473 31.2136L53.1932 38.0243Z" fill="#825B5E"/>
<path d="M83.2001 28.3188C83.0297 28.3188 82.6887 28.4891 82.5182 28.6594C82.3477 28.8296 82.1772 28.8296 82.0067 28.9999C81.8362 29.1702 81.6657 29.1702 81.4952 29.3404C81.3247 29.5107 81.1542 29.5107 80.9838 29.681C80.6428 29.3404 80.3018 28.9999 79.9608 28.6594C79.4493 28.3188 79.1083 27.808 78.5969 27.4675C78.0854 27.1269 77.5739 26.6161 77.0624 26.2756C76.551 25.9351 76.0395 25.4243 75.528 25.0837C75.0165 25.254 74.5051 25.5945 73.9936 25.7648C73.4821 26.1053 72.9706 26.2756 72.4592 26.6161C71.9477 26.7864 71.6067 27.1269 71.0952 27.2972C70.5838 27.4675 70.2428 27.808 69.7313 28.1486C69.9018 29.5107 70.0723 30.8728 70.2428 32.235C70.4133 33.4269 70.5837 34.4485 70.7542 35.2998C70.4133 35.4701 70.2428 35.4701 69.9018 35.6404C69.5608 35.8106 69.3903 35.9809 69.0493 36.1512C68.8788 32.9161 68.5378 29.681 68.3674 26.4459C68.0264 23.2108 67.8559 19.9757 67.5149 16.7406L67.8559 16.4C68.7083 17.0811 69.5608 17.7622 70.5838 18.6135C71.6067 19.4649 72.4592 20.1459 73.4821 20.9973C74.5051 21.8486 75.528 22.5297 76.3805 23.381C77.4034 24.2324 78.2559 24.9134 79.1083 25.5945C79.9608 26.2756 80.8133 26.7864 81.4952 27.2972C82.1772 27.6377 82.8592 28.1486 83.2001 28.3188ZM69.3903 26.7864C69.7313 26.6161 70.2428 26.4459 70.5838 26.1053C70.9247 25.9351 71.4362 25.7648 71.7772 25.4243C72.1182 25.254 72.6297 24.9134 72.9706 24.7432C73.3116 24.5729 73.8231 24.2324 74.1641 24.0621L68.7083 19.8054L69.3903 26.7864Z" fill="#825B5E"/>
<path d="M86.9509 19.2946C86.6099 19.1243 86.2689 18.7837 85.7574 18.4432C85.2459 18.1027 84.7345 17.5919 84.0525 17.0811C83.3705 16.5703 82.8591 16.0595 82.1771 15.5486C81.4951 15.0378 80.8132 14.527 80.3017 14.0162C79.6197 13.5054 79.1082 13.1649 78.5968 12.6541C78.0853 12.3135 77.7443 11.973 77.4033 11.8027C77.5738 11.8027 77.9148 11.6325 78.0853 11.6325C78.2558 11.6325 78.5968 11.4622 78.7673 11.4622C78.9377 11.4622 79.2787 11.2919 79.4492 11.1217C79.6197 10.9514 79.7902 10.9514 80.1312 10.7811C81.3246 11.973 82.6886 12.9946 83.882 14.0162C85.0755 15.0378 86.4394 16.2297 87.8033 17.2513C87.9738 16.5703 88.1443 15.7189 88.3148 14.8676C88.4853 14.0162 88.6558 13.1649 88.6558 12.3135C88.8263 11.4622 88.8263 10.6109 88.9968 9.75952C89.1673 8.90817 89.1673 8.05683 89.1673 7.20549C89.6787 7.20549 89.8492 7.03522 90.1902 7.03522C90.3607 7.03522 90.7017 6.86495 91.0427 6.52441C90.7017 8.05683 90.3607 9.24871 90.1902 10.4406C90.0197 11.6325 89.6787 12.6541 89.5082 13.6757C89.3377 14.6973 89.1673 15.3784 88.9968 16.2297C88.8263 16.9108 88.8263 17.5919 88.6558 18.2729C88.8263 18.7837 89.1673 19.4648 89.3377 20.1459C89.6787 20.827 89.8492 21.508 90.1902 22.1891C90.5312 22.8702 90.7017 23.381 90.8722 23.8918C91.0427 24.4026 91.2132 24.9134 91.3836 25.254C91.0427 25.4242 90.5312 25.4242 90.1902 25.5945C89.8492 25.7648 89.3377 25.935 88.9968 26.1053C88.8263 25.254 88.4853 24.2323 87.9738 23.0405C87.9738 21.8486 87.4623 20.4864 86.9509 19.2946Z" fill="#825B5E"/>
<path d="M114.059 19.2949C113.889 19.2949 113.548 19.2949 113.377 19.4652C113.207 19.4652 112.866 19.6354 112.695 19.6354C112.525 19.6354 112.184 19.8057 112.013 19.8057C111.843 19.8057 111.672 19.976 111.331 19.976C111.161 19.6354 110.82 19.1246 110.479 18.6138C110.138 18.103 109.797 17.5922 109.456 17.0814C109.115 16.5706 108.774 16.0598 108.262 15.3787C107.751 14.6977 107.751 14.3571 107.41 13.8463C106.898 14.0166 106.387 14.0166 105.705 14.1869C105.194 14.3571 104.682 14.3571 104 14.5274C103.489 14.6977 102.977 14.6977 102.466 14.8679C101.954 15.0382 101.443 15.0382 100.931 15.2085C100.761 16.5706 100.42 17.9328 100.249 19.2949C100.079 20.6571 99.9083 21.6787 99.9083 22.3597C99.5673 22.3597 99.2263 22.3597 99.0558 22.53C98.7148 22.53 98.3739 22.7003 98.2034 22.7003C98.8853 19.4652 99.5673 16.4003 100.249 13.1652C100.931 9.93014 101.613 6.86531 102.295 3.45994L102.807 3.28967C103.489 4.14102 104 5.16263 104.853 6.18424C105.535 7.20585 106.216 8.22746 107.069 9.24907C107.751 10.2707 108.603 11.2923 109.285 12.3139C109.967 13.3355 110.649 14.3571 111.331 15.2085C112.013 16.0598 112.525 16.9112 113.036 17.5922C113.377 18.4436 113.718 18.9544 114.059 19.2949ZM101.272 14.0166C101.784 13.8463 102.125 13.8463 102.636 13.6761C103.148 13.6761 103.489 13.5058 104 13.3355C104.512 13.1652 104.853 13.1652 105.364 12.995C105.875 12.8247 106.216 12.8247 106.728 12.6544L102.636 6.86531L101.272 14.0166Z" fill="#825B5E"/>
<path d="M124.289 8.90836C124.459 10.4408 123.266 11.6327 121.902 11.6327C120.367 11.8029 119.174 10.611 119.174 9.2489C119.004 7.71648 120.197 6.5246 121.561 6.5246C122.925 6.35433 124.118 7.37595 124.289 8.90836Z" fill="#825B5E"/>
</svg>
