<svg width="260" height="231" viewBox="0 0 260 231" fill="none" xmlns="http://www.w3.org/2000/svg">
<g filter="url(#filter0_d)">
<rect width="224" height="195" transform="translate(18 14)" fill="url(#paint0_linear)"/>
<path d="M71.5636 54.1736C71.5636 53.8797 71.582 53.5491 71.6187 53.2185C72.5934 52.7777 73.4761 52.5573 74.3589 52.5205C73.9543 53.5859 72.906 55.0736 71.8762 56.1757C71.6923 55.643 71.5636 55.0002 71.5636 54.1736ZM67.6097 58.7288C67.2971 58.7288 67.1684 58.5635 67.1684 58.2145C67.1684 57.0573 68.2902 55.2757 70.1108 54.045C70.0924 54.2838 70.0924 54.5226 70.0924 54.743C70.0924 55.6798 70.1843 56.6533 70.3866 57.4982C69.4487 58.1961 68.3821 58.7288 67.6097 58.7288ZM73.7888 50.8123C74.2853 51.143 74.5244 51.4552 74.5244 51.8409C73.5313 51.8777 72.5934 52.0613 71.7107 52.3552C71.8026 51.7491 71.913 51.1062 72.0417 50.4817C73.9911 50.1511 75.8117 49.6368 76.676 49.3062C77.1541 49.1225 77.3932 48.8654 77.3932 48.4429C77.3932 47.9102 76.8599 47.6164 75.8852 47.6164C75.6645 47.6164 74.4692 48.3878 72.4279 48.8837L72.5199 48.4796C72.6854 47.8 73.1635 47.5796 73.1635 47.1021C73.1635 46.6245 71.8578 46 70.7912 46C70.4234 46 69.8717 46.2571 69.4855 46.4592L69.5039 46.7163C69.8717 46.7898 70.2579 46.8816 70.5337 46.9919C70.8464 47.1021 70.9199 47.2123 70.9199 47.5429C70.9199 47.9102 70.8464 48.498 70.7544 49.1776C70.2211 49.2511 69.6694 49.2878 69.0993 49.2878C68.0695 49.2878 67.3523 49.0123 66.4328 48.4062L66.2305 48.5898C66.6535 49.9858 67.2787 50.8123 68.7867 50.8123C69.3384 50.8123 69.9269 50.7756 70.5153 50.7021C70.405 51.4552 70.2763 52.245 70.2027 52.9981C67.7017 54.2471 65.5317 56.5063 65.5317 58.8941C65.5317 59.9962 66.1385 60.5656 67.058 60.5656C68.2166 60.5656 69.6142 59.9778 70.9383 58.8941C71.1958 59.3349 71.5268 59.5921 71.9314 59.5921C72.4463 59.5921 72.8141 59.3533 72.8141 58.7839C72.8141 58.3247 72.6302 57.9206 72.4279 57.4614C73.7888 55.9737 75.0393 54.1369 75.6094 52.6124C77.3196 52.9797 78.3311 54.2838 78.3311 55.9737C78.3311 58.4533 76.253 60.6207 71.4348 61.5207L71.5084 61.8697C76.7128 61.8513 80.3724 60.2901 80.3724 56.4879C80.3724 54.2655 78.6437 52.2634 75.7933 51.896C75.8117 51.6756 75.7381 51.4736 75.5726 51.2899C75.2048 50.9042 74.6531 50.7021 73.9359 50.5919L73.7888 50.8123Z" fill="#EA5A65"/>
<path d="M92.2339 60.088C90.8179 60.088 89.972 59.6472 89.972 58.9492C89.972 58.3798 90.4317 58.0308 91.1305 58.0308C92.142 58.0308 92.8776 58.8206 93.0982 60.0513C92.8224 60.0696 92.5466 60.088 92.2339 60.088ZM88.0962 46.9919C87.9858 47.451 87.9307 47.7633 87.9491 48.1858C88.0042 48.8286 88.8318 50.0776 89.9168 50.0776C90.303 50.0776 90.6156 49.8021 90.965 49.5817C91.6638 49.1776 92.804 48.5531 93.4844 48.4429C93.7787 48.3878 93.9626 48.5164 93.6499 48.9205C92.6937 50.2246 88.8318 53.8614 87.0296 55.6247C86.4227 56.2124 86.1284 56.6165 86.0917 57.1124C86.0549 57.8104 86.4595 58.288 86.864 58.3063C87.3238 58.3247 87.5077 58.1594 87.9491 57.59C89.5122 55.5696 91.2776 53.7328 93.7971 53.7328C95.9119 53.7328 96.9969 54.9818 96.9785 56.5982C96.9601 57.8655 96.3349 59.0411 94.8085 59.6656C94.3672 57.8655 92.8592 57.1676 91.6087 57.1676C90.2478 57.1676 89.1444 57.9574 89.1444 59.1696C89.1444 60.7676 90.7443 61.7044 92.896 61.7044C96.6843 61.7044 98.8727 59.7207 98.8911 57.2594C98.9095 54.5042 96.8314 52.9614 94.3488 52.9614C92.9327 52.9614 91.8845 53.3838 91.2776 53.5859C91.0937 53.641 90.9834 53.5124 91.1857 53.3103C91.8845 52.5756 94.1465 50.6287 95.3602 49.8388C95.9671 49.4164 96.6107 49.2694 96.6107 48.7552C96.6107 47.9653 95.1579 46.8082 94.2936 46.8082C93.9074 46.8082 93.9074 47.0837 93.1902 47.3225C92.1971 47.6347 90.2662 48.0939 89.6041 48.0939C89.126 48.0939 88.6663 47.5613 88.3536 46.9735L88.0962 46.9919Z" fill="#EA5A65"/>
<path d="M115.552 52.6124C115.994 52.6124 116.251 52.3185 116.251 51.9328C116.27 51.547 116.067 51.1981 115.663 50.8123C115.074 50.2613 114.118 49.7654 113.033 49.4715L112.831 49.7286C113.769 50.5184 114.284 51.3083 114.67 51.8777C114.982 52.3552 115.24 52.6124 115.552 52.6124ZM117.483 50.9042C117.87 50.9042 118.127 50.6287 118.127 50.2429C118.127 49.7837 117.888 49.3797 117.41 49.0123C116.858 48.5347 115.994 48.149 114.817 47.9102L114.633 48.1674C115.663 48.9021 116.178 49.6184 116.545 50.1327C116.895 50.647 117.116 50.9042 117.483 50.9042ZM107.718 47.7633C108.049 48.0572 108.141 48.3878 108.141 49.2878C108.141 50.6654 107.755 54.394 107.755 57.0206C107.755 60.4554 109.337 61.7962 111.911 61.7962C115.7 61.7962 118.421 59.2247 119.635 56.2308L119.304 55.992C117.686 58.0125 114.89 59.6656 112.205 59.6656C110.035 59.6656 109.465 58.8757 109.465 56.7818C109.465 54.6695 109.87 52.1532 110.256 50.3899C110.458 49.4531 110.955 49.1592 110.955 48.6449C110.955 47.8919 109.208 46.5327 107.957 46.5143C107.479 46.5143 107.001 46.6796 106.523 46.8633V47.1572C107.13 47.3776 107.406 47.5061 107.718 47.7633Z" fill="#EA5A65"/>
<path d="M130.375 50.1695C131.037 50.3899 131.552 50.8123 131.662 51.0878C131.736 51.2715 131.68 51.3817 131.478 51.4185C131.166 51.4919 130.43 51.5654 129.713 51.6205C129.179 51.6572 128.094 51.6021 128.076 52.7226C128.058 53.2369 128.425 53.5124 128.775 53.9716C128.922 54.1553 129.069 54.3757 129.253 54.6328C128.94 54.7798 128.646 54.9267 128.352 55.0736C127.874 55.3308 127.34 55.6247 126.973 55.6247C126.66 55.6247 126.421 55.3859 126.145 55.092L125.961 55.1655C125.851 55.9002 125.924 56.2308 126.163 56.5614C126.439 56.9655 127.193 57.388 127.727 57.388C128.186 57.388 128.444 57.039 128.885 56.6533C129.216 56.3777 129.584 56.0839 129.989 55.79C130.779 57.1308 131.129 58.4166 131.349 59.2615C131.552 60.0696 131.644 60.8044 131.809 61.337C131.993 61.9248 132.251 62.2003 132.729 62.2003C133.317 62.2003 133.685 61.7595 133.685 61.0982C133.685 60.5288 133.409 59.6472 133.115 58.9492C132.729 58.0676 131.993 56.3961 131.147 55.0002C132.655 54.0083 134.329 53.1634 135.45 53.1634C136.333 53.1634 137.142 53.7879 137.142 54.6695C137.142 55.7716 136.333 56.3777 135.23 56.3777C134.237 56.3777 133.372 56.0471 132.582 55.3308L132.398 55.4594C133.17 56.892 134.237 57.7737 135.597 57.7737C137.492 57.7737 138.687 56.6349 138.687 55.2022C138.687 53.7512 137.492 52.5573 135.524 52.5573C134.181 52.5573 132.342 53.2001 130.485 54.045C129.989 53.3838 129.418 52.7777 129.418 52.5205C129.418 52.1899 129.676 52.1532 129.989 52.1532C130.779 52.1715 131.754 52.2083 132.177 52.3001C132.416 52.3552 132.857 52.5205 133.152 52.5205C133.556 52.5205 133.85 52.2634 133.85 51.8226C133.85 51.4552 133.703 51.0878 133.372 50.7389C132.931 50.2429 131.975 49.7837 130.393 49.9858L130.375 50.1695Z" fill="#EA5A65"/>
<path d="M151.119 47.4878C151.321 47.6715 151.376 47.9286 151.211 48.296C150.659 49.3613 147.882 53.9899 146.668 56.0839C145.657 57.8288 144.664 59.1696 144.664 60.1247C144.664 60.786 145.05 61.484 145.749 61.484C146.429 61.484 146.76 60.988 146.963 60.437C147.275 59.5737 147.588 58.4533 148.048 57.388C148.71 55.8818 149.997 54.2471 151.486 54.2471C152.479 54.2471 152.755 54.8716 152.755 55.643C152.755 56.8186 152.535 57.8288 152.553 59.0962C152.571 60.6023 153.528 61.5758 155.293 61.5758C157.849 61.5758 160.056 59.7941 160.461 55.4777L160.167 55.4043C159.413 57.388 157.776 59.5553 155.826 59.5553C155.072 59.5553 154.576 59.2431 154.576 58.3247C154.576 57.3145 154.613 56.4879 154.558 55.6247C154.447 54.2104 153.583 53.4205 152.02 53.4205C151.431 53.4205 150.604 53.6226 149.721 54.0634C149.592 54.1369 149.555 54.0818 149.611 53.9716C150.365 52.7226 151.965 50.647 152.902 49.6919C153.417 49.1592 154.006 48.9572 154.006 48.5347C154.006 47.8 153.031 46.6429 151.578 46.4408C151.174 46.3674 150.493 46.4408 150.052 46.6061L150.015 46.8816C150.346 47.0102 150.843 47.249 151.119 47.4878Z" fill="#EA5A65"/>
<path d="M171.605 56.6716C170.759 56.6716 170.189 55.9553 170.189 55.1287C170.189 54.1553 170.796 53.4389 171.66 53.4389C172.433 53.4389 172.782 54.1736 172.782 55.0736C172.782 56.139 172.469 56.6716 171.605 56.6716ZM170.575 47.0286C171.09 47.1204 171.532 47.2123 171.826 47.3408C172.12 47.4694 172.212 47.598 172.267 47.9102C172.322 48.2776 172.377 48.8654 172.433 49.4899C170.355 49.747 166.879 50.1878 166.088 50.1511C165.444 50.1511 165.169 49.8388 164.507 49.0858L164.231 49.196C164.212 49.6001 164.212 50.1144 164.341 50.5184C164.543 51.2532 165.61 52.2266 166.327 52.2266C166.971 52.2266 167.357 51.8409 168.221 51.5838C169.104 51.3266 170.649 50.9593 172.525 50.7205C172.561 51.4001 172.598 52.0613 172.635 52.5389C172.396 52.4838 172.138 52.4654 171.863 52.4654C170.355 52.4654 169.214 53.6961 169.214 55.3124C169.214 57.1676 170.575 58.6921 172.414 58.1778C171.697 59.9043 169.821 61.0799 167.578 61.888L167.725 62.237C171.771 61.6676 174.878 59.7023 174.878 55.9002C174.878 54.9267 174.658 54.0267 174.106 53.3838C174.106 52.4654 174.106 51.4368 174.125 50.5368C177.508 50.2613 178.685 50.7756 179.494 50.7756C180.046 50.7756 180.414 50.6838 180.414 50.0593C180.414 49.2143 179.182 48.6817 178.207 48.6817C177.913 48.6817 177.545 48.9205 174.161 49.3062C174.161 48.9572 174.18 48.6817 174.198 48.5164C174.253 48.0755 174.566 47.6898 174.566 47.1939C174.566 46.5878 173.242 46.1102 172.194 46.1102C171.587 46.1102 170.98 46.4592 170.538 46.7714L170.575 47.0286Z" fill="#EA5A65"/>
<path d="M183.793 52.5022C183.737 52.943 183.682 53.4756 183.848 53.8981C184.179 54.7981 185.319 55.992 186.036 55.992C186.735 55.992 187.011 55.5512 188.335 55.4226C189.751 55.2573 193.87 55.0002 195.268 55.0002C196.555 55.0002 197.199 55.0553 197.935 55.0553C198.707 55.0553 199.148 54.7981 199.148 54.2655C199.148 53.4756 198.192 52.9062 197.089 52.9062C196.647 52.9062 195.82 53.0532 194.588 53.1634C193.466 53.2552 187.912 53.6226 185.944 53.6226C184.97 53.6226 184.657 53.1267 184.105 52.392L183.793 52.5022Z" fill="#EA5A65"/>
<path d="M44.9775 75.0026C45.1089 75.4749 45.2403 75.8947 45.4504 76.2883C45.897 77.0755 46.8428 77.9414 47.6572 77.9414C48.4454 77.9414 49.47 77.6003 50.3895 77.4953H50.442C50.8361 77.9676 51.0725 78.4924 51.0988 79.3846C51.1251 79.8569 51.0988 80.8015 51.0988 81.9036C48.6555 82.2184 45.5555 82.6908 44.2945 82.6908C43.4801 82.6908 42.9809 82.2447 42.3504 81.7199L42.0089 81.8511C41.9826 82.3759 42.0089 82.8744 42.1665 83.268C42.5343 84.2126 43.6902 85.2622 44.4784 85.2622C45.1877 85.2622 45.6343 84.8686 46.9479 84.4488C47.9462 84.1339 49.6013 83.7928 51.0725 83.5567C51.02 85.5246 50.9937 87.5976 51.02 88.6734C51.0725 91.0349 52.0446 92.0845 55.959 92.0845C58.4022 92.0845 60.2938 91.8484 61.1607 91.6647C61.9751 91.481 62.448 91.1661 62.448 90.5364C62.448 89.9329 61.5811 89.1719 60.0573 89.1719C59.5319 89.1719 58.8226 89.6705 55.5912 89.6705C53.4632 89.6705 53.0429 89.2244 53.0166 87.9124C52.9903 86.8891 53.0429 85.0261 53.1217 83.268C55.3547 82.9794 57.4827 82.7695 58.8226 82.7695C60.3463 82.7695 62.0802 83.0843 63.0523 83.0581C63.7353 83.0581 64.0506 82.6645 64.0506 82.061C64.0506 81.0901 62.0277 80.3817 61.0819 80.3817C60.6353 80.3817 60.1099 80.6441 58.6387 80.8802C57.4565 81.0639 55.4073 81.3263 53.253 81.6149C53.3056 80.9327 53.3581 80.3292 53.4369 79.8831C53.5158 79.3321 53.8573 79.0959 53.8573 78.5711C53.8573 78.2038 53.1742 77.6528 52.1496 77.2592C54.3827 76.9705 57.7454 76.6032 59.1378 76.4457C60.1624 76.2883 60.4514 75.8947 60.4514 75.4224C60.4514 74.7664 59.2692 74.0579 57.6666 74.0579C57.2988 74.0579 56.4056 74.609 54.5403 75.0026C52.6488 75.3699 49.1547 75.8422 47.4733 75.8685C46.7903 75.8685 46.0547 75.4749 45.3453 74.8451L44.9775 75.0026Z" fill="#EA5A65"/>
<path d="M87.616 78.886C88.1152 78.886 88.4305 78.5449 88.4305 78.0464C88.4305 77.5216 88.2203 77.0755 87.616 76.5245C86.8804 75.8422 85.7245 75.3174 84.3321 74.8451L84.0169 75.265C85.2253 76.1833 85.9084 77.0755 86.4338 77.7577C86.9067 78.4137 87.1957 78.886 87.616 78.886ZM90.033 76.7606C90.5059 76.7606 90.7949 76.472 90.7949 75.9472C90.7949 75.3962 90.5322 74.8714 89.8491 74.3466C89.1661 73.7955 88.0101 73.3232 86.5915 72.9559L86.3287 73.3495C87.616 74.2941 88.194 75.0026 88.7457 75.6323C89.2711 76.2621 89.5601 76.7606 90.033 76.7606ZM75.5049 80.1455C75.5049 81.9823 70.9337 87.3089 67.1243 89.9854L67.4659 90.4577C71.3803 88.6734 75.2947 85.4459 77.5804 82.612C78.1321 81.956 78.8414 81.6149 78.8414 81.0377C78.8414 80.0143 77.2388 78.0464 75.7151 77.8627C75.1108 77.7577 74.349 77.8364 73.9024 77.8889L73.7447 78.335C74.6117 78.7548 75.5049 79.4633 75.5049 80.1455ZM90.5847 87.1252C90.322 83.5829 85.777 79.5683 81.5999 77.679L81.2584 78.1251C84.3847 80.6966 86.2762 83.6354 87.5635 87.2827C87.9576 88.4897 88.2466 89.2244 89.1661 89.1982C90.033 89.1719 90.6635 88.2798 90.5847 87.1252Z" fill="#EA5A65"/>
<path d="M107.819 72.3261C108.765 72.7984 109.369 73.2445 109.369 73.7168C109.369 74.0055 109.132 74.504 108.659 75.2125C106.768 78.0464 101.698 83.2943 95.6551 86.7054L95.9703 87.2564C100.62 85.5771 104.482 82.6383 106.216 81.1689C106.4 81.4837 106.453 81.7986 106.479 82.2447C106.531 83.4255 106.453 86.9678 106.19 89.2244C106.085 90.0903 105.901 90.6413 105.901 91.1399C105.901 92.2682 106.453 93.5802 107.609 93.5802C108.397 93.5802 108.791 93.0291 108.791 91.9796C108.791 90.5364 108.607 86.6529 108.738 83.0056C108.791 82.2972 109.001 81.8773 109.001 81.4575C109.001 81.0114 108.37 80.5129 107.556 79.9618C109.159 78.4399 110.472 77.023 111.418 76.0521C112.154 75.2912 112.705 75.3174 112.705 74.6352C112.705 73.8218 111.313 72.4836 110.052 72.09C109.369 71.8538 108.633 71.8538 107.976 71.8801L107.819 72.3261Z" fill="#EA5A65"/>
<path d="M130.622 74.8976C131.91 75.1075 132.619 75.4749 132.645 76.1833C132.803 78.7023 132.671 85.5771 132.566 86.9416C132.461 87.9649 132.146 88.2535 132.146 88.7783C132.146 89.4343 133.486 91.0874 134.3 91.0874C134.957 91.0874 135.377 90.274 135.982 89.8804C139.371 87.755 143.128 84.5275 145.361 81.0639L144.888 80.6965C142.129 83.373 138.53 85.9969 135.22 87.3614C134.905 87.4926 134.721 87.3876 134.721 87.0203C134.694 85.1048 134.878 78.886 135.062 77.4953C135.167 76.5769 135.772 76.4982 135.772 75.8685C135.772 75.1075 133.801 73.9267 132.54 73.9267C131.883 73.9267 131.358 74.0579 130.596 74.4253L130.622 74.8976ZM127.076 79.3321C127.076 82.8482 124.475 88.3847 120.403 91.8484L120.797 92.3207C125.999 89.4343 128.678 85.0261 129.545 80.7753C129.677 80.1193 130.228 79.7519 130.228 79.1222C130.228 78.1776 128.074 77.023 126.971 76.9705C126.288 76.9443 125.683 77.128 125.158 77.3116V77.8102C125.946 78.0726 127.076 78.4924 127.076 79.3321Z" fill="#EA5A65"/>
<path d="M149.485 73.953C149.459 74.609 149.538 75.265 149.748 75.7635C150.142 76.7344 151.508 77.9676 152.349 77.9676C153.084 77.9676 153.295 77.3641 154.319 77.1017C157.078 76.472 164.04 75.3174 165.195 75.3174C165.721 75.3174 165.852 75.4224 165.563 75.9472C164.88 76.9968 163.225 78.6499 161.439 79.9618C160.861 79.647 159.967 79.3321 158.89 79.2534C158.339 79.2009 157.813 79.2534 157.13 79.3321L157.051 79.8044C158.155 80.2505 159.101 80.6966 159.101 81.51C159.101 83.268 155.712 89.7754 150.589 93.1079L150.983 93.6064C156.894 90.825 160.099 86.6792 162.148 81.3525C162.227 81.1426 162.253 80.9589 162.227 80.8015C164.486 79.6207 166.64 78.2825 167.796 77.5478C168.401 77.1542 169.688 77.0493 169.688 76.2621C169.688 75.3174 167.402 73.2445 166.509 73.2445C165.957 73.2445 165.616 73.6906 164.828 73.7956C163.12 74.0579 153.873 75.0813 151.771 75.0813C150.956 75.0813 150.615 74.609 149.958 73.7956L149.485 73.953Z" fill="#EA5A65"/>
<path d="M195.802 76.0521C197.378 76.0521 198.639 74.7927 198.639 73.192C198.639 71.6177 197.378 70.3582 195.802 70.3582C194.225 70.3582 192.938 71.6177 192.938 73.192C192.938 74.7927 194.225 76.0521 195.802 76.0521ZM195.802 71.3553C196.826 71.3553 197.667 72.1687 197.667 73.192C197.667 74.2416 196.826 75.055 195.802 75.055C194.777 75.055 193.936 74.2416 193.936 73.192C193.936 72.1687 194.777 71.3553 195.802 71.3553ZM176.729 74.8976L176.282 75.0813C176.308 75.7898 176.335 76.2358 176.492 76.7606C176.755 77.6003 178.095 79.1222 179.119 79.1222C179.671 79.1222 180.302 78.6236 180.958 78.4662C182.456 78.0988 188.945 76.9443 190.442 76.9443C190.679 76.9443 190.81 77.023 190.731 77.3116C189.286 83.2418 184.242 89.3294 176.913 93.0816L177.254 93.6326C185.451 90.7988 190.232 85.8657 193.201 79.4108C193.595 78.5449 194.488 78.2825 194.488 77.5216C194.488 76.6819 192.071 74.6352 191.047 74.6352C190.442 74.6352 190.337 75.055 189.444 75.2387C188.104 75.5274 180.722 76.3145 178.883 76.3145C177.937 76.3145 177.307 75.6061 176.729 74.8976Z" fill="#EA5A65"/>
<path d="M217.159 82.0348C217.264 80.4342 217.369 77.3904 217.448 75.8422C217.501 75.0288 218 74.8189 218 74.1891C218 73.5069 215.925 72.2999 214.847 72.2999C214.243 72.2999 213.324 72.746 212.667 73.1658L212.693 73.6381C213.324 73.7693 213.928 73.9005 214.269 74.1104C214.769 74.3991 214.821 74.7139 214.847 75.265C214.953 76.8918 214.953 79.8831 214.795 82.0085C214.427 87.2827 211.852 90.7725 206.835 93.4752L207.124 94C213.376 91.9796 216.818 88.2535 217.159 82.0348ZM205.469 74.9763C205.863 75.1862 205.941 75.3962 206.02 75.9734C206.125 76.9968 206.178 79.6732 206.152 80.9327C206.125 82.9007 205.81 83.7666 205.81 84.4488C205.81 85.7345 206.493 86.8366 207.255 86.8366C207.964 86.8366 208.437 86.3905 208.437 85.1573C208.437 83.6879 208.385 78.5711 208.463 77.4428C208.542 76.4195 208.989 76.0784 208.989 75.4749C208.989 74.6352 206.913 73.4807 205.836 73.4807C205.285 73.4807 204.575 73.7168 203.997 73.953V74.4253C204.575 74.5827 205.074 74.7664 205.469 74.9763Z" fill="#EA5A65"/>
<path d="M57.784 113.744H52.216V113.06H57.784V113.744ZM57.784 115.148H52.216V114.452H57.784V115.148ZM58.9 112.304H51.148V115.892H58.9V112.304ZM58.54 118.856C58.264 119.42 57.892 119.924 57.448 120.368C57.028 119.924 56.68 119.408 56.44 118.856H58.54ZM51.748 121.124V120.344H53.632V120.944L51.748 121.124ZM51.748 118.832H53.632V119.54H51.748V118.832ZM53.632 117.368V118.04H51.748V117.368H53.632ZM59.212 117.956L59.02 117.992H55.072V118.856H56.152L55.504 119.036C55.816 119.768 56.224 120.428 56.716 120.992C56.104 121.436 55.408 121.784 54.7 122V117.368H60.244V116.456H49.732V117.368H50.716V121.22C50.32 121.256 49.948 121.292 49.624 121.316L49.708 122.288C50.8 122.18 52.216 122.024 53.632 121.868V122.936H54.7V122.084C54.904 122.3 55.144 122.66 55.252 122.9C56.044 122.612 56.8 122.216 57.472 121.7C58.144 122.252 58.948 122.672 59.86 122.936C59.992 122.672 60.292 122.264 60.52 122.072C59.656 121.856 58.876 121.508 58.228 121.04C58.96 120.296 59.548 119.36 59.896 118.22L59.212 117.956ZM68.416 114.068C68.296 114.548 68.068 115.196 67.876 115.64L68.704 115.82H66.064L66.76 115.64C66.712 115.208 66.52 114.572 66.28 114.068H68.416ZM69.748 120.44C69.472 120.212 68.368 119.312 67.936 119.012V118.808H70.06V117.86H67.936V116.768H70.168V115.82H68.764C68.968 115.412 69.196 114.824 69.424 114.26L68.584 114.068H70.036V113.144H67.936V112.004H66.856V113.144H64.756V114.068H66.232L65.416 114.272C65.62 114.752 65.8 115.388 65.836 115.82H64.6V116.768H66.856V117.86H64.636V118.808H66.64C66.064 119.792 65.164 120.788 64.348 121.328C64.576 121.52 64.9 121.88 65.068 122.132C65.68 121.652 66.316 120.92 66.856 120.116V122.924H67.936V120.08C68.38 120.5 68.86 120.98 69.1 121.268L69.748 120.44ZM75.508 115.904H71.62V113.96C72.916 113.708 74.356 113.336 75.388 112.868L74.488 112.064C73.744 112.448 72.472 112.82 71.296 113.096L70.552 112.88V117.032C70.552 118.688 70.408 120.74 68.956 122.216C69.208 122.36 69.616 122.744 69.748 122.984C71.404 121.316 71.62 118.82 71.62 117.044V116.936H73.168V122.876H74.248V116.936H75.508V115.904ZM88 113.348C87.796 113.42 87.4 113.468 86.956 113.468H82.504C82.132 113.468 81.436 113.42 81.196 113.384V114.74C81.388 114.728 82.036 114.668 82.504 114.668H86.908C86.62 115.604 85.816 116.924 85 117.836C83.812 119.168 82.012 120.608 80.068 121.352L81.04 122.36C82.768 121.568 84.376 120.284 85.66 118.916C86.848 120.02 88.048 121.34 88.828 122.42L89.896 121.484C89.152 120.572 87.7 119.024 86.464 117.968C87.304 116.888 88.012 115.532 88.432 114.548C88.516 114.344 88.696 114.044 88.78 113.924L88 113.348ZM103.636 113.72C103.408 113.804 103.072 113.852 102.736 113.852H99.82L99.964 113.588C100.084 113.348 100.348 112.892 100.576 112.532L99.208 112.1C99.124 112.448 98.908 112.94 98.752 113.18C98.188 114.248 97 115.988 94.912 117.272L95.944 118.052C97.228 117.176 98.308 116.024 99.1 114.932H102.916C102.7 115.772 102.16 116.9 101.5 117.848C100.624 117.32 99.7 116.792 99.028 116.444L98.236 117.344C98.884 117.704 99.808 118.268 100.696 118.844C99.652 119.96 98.188 121.052 96.076 121.688L97.168 122.648C99.208 121.868 100.672 120.752 101.74 119.54C102.196 119.852 102.592 120.14 102.88 120.38L103.72 119.276C103.42 119.06 103.012 118.796 102.568 118.508C103.384 117.332 103.972 116.06 104.272 115.064C104.356 114.824 104.5 114.524 104.608 114.32L103.636 113.72ZM116.26 115.988C117.472 115.208 118.6 114.272 119.464 113.408L118.444 112.484C117.772 113.348 116.524 114.416 115.312 115.172C113.98 116 111.952 116.888 109.9 117.356L110.584 118.52C112.072 118.1 113.668 117.428 114.928 116.756V121.028C114.928 121.52 114.892 122.18 114.856 122.444H116.344C116.284 122.18 116.26 121.52 116.26 121.028V115.988ZM125.8 122.396C126.82 121.532 127.576 120.356 127.936 119.036C128.26 117.836 128.308 115.28 128.308 113.912C128.308 113.492 128.356 113.048 128.368 112.952H126.976C127.048 113.228 127.072 113.516 127.072 113.924C127.072 115.304 127.072 117.644 126.724 118.712C126.376 119.816 125.692 120.896 124.66 121.628L125.8 122.396ZM130.972 122.396C131.104 122.3 131.224 122.192 131.428 122.096C132.808 121.4 134.488 120.14 135.508 118.784L134.788 117.752C133.924 119.024 132.568 120.044 131.524 120.512V113.876C131.524 113.384 131.572 112.988 131.584 112.916H130.192C130.192 112.988 130.264 113.384 130.264 113.876V120.98C130.264 121.256 130.228 121.532 130.18 121.736L130.972 122.396ZM140.188 117.608C140.44 116.708 140.632 115.304 140.668 114.356L139.864 114.248C139.792 115.196 139.6 116.528 139.348 117.332L140.188 117.608ZM143.212 115.316C143.104 114.872 142.792 114.164 142.54 113.624L141.844 113.9V111.932H140.824V122.936H141.844V113.996C142.084 114.548 142.336 115.256 142.456 115.676L143.212 115.316ZM144.568 120.32V119.576H148.54V120.32H144.568ZM148.54 118.004V118.748H144.568V118.004H148.54ZM149.596 117.164H143.536V122.936H144.568V121.124H148.54V121.772C148.54 121.916 148.492 121.964 148.324 121.976C148.168 121.976 147.592 121.988 147.04 121.952C147.172 122.216 147.316 122.636 147.364 122.912C148.192 122.912 148.756 122.9 149.128 122.744C149.488 122.588 149.596 122.3 149.596 121.796V117.164ZM147.088 115.748V115.052H149.812V114.272H147.088V113.648H150.124V112.82H147.088V111.932H145.984V112.82H143.068V113.648H145.984V114.272H143.356V115.052H145.984V115.748H142.696V116.576H150.484V115.748H147.088ZM158.176 117.56H156.268L156.664 117.452C156.616 117.068 156.412 116.48 156.196 116.012H158.272C158.152 116.444 157.936 117.044 157.768 117.452L158.176 117.56ZM157.744 114.02H159.4V113.084H157.744V111.956H156.7V113.084H154.936V114.02H156.7V115.064H154.504V116.012H155.788L155.296 116.144C155.512 116.588 155.692 117.152 155.752 117.56H154.708V118.52H156.7V119.648H154.816V120.596H156.7V122.912H157.744V120.596H159.544V119.648H157.744V118.52H159.7V117.56H158.632C158.824 117.176 159.04 116.648 159.244 116.144L158.728 116.012H159.844V115.064H157.744V114.02ZM161.176 117.428C161.524 118.616 161.992 119.72 162.604 120.668C162.196 121.232 161.728 121.724 161.176 122.108V117.428ZM164.032 117.428C163.84 118.232 163.564 119.012 163.18 119.732C162.736 119.024 162.376 118.244 162.112 117.428H164.032ZM164.536 116.468L164.356 116.516H161.176V113.444H163.9V114.716C163.9 114.848 163.852 114.884 163.672 114.896C163.492 114.908 162.856 114.908 162.172 114.884C162.316 115.148 162.46 115.556 162.508 115.844C163.408 115.844 164.02 115.844 164.416 115.688C164.836 115.532 164.944 115.244 164.944 114.728V112.46H160.168V122.948H161.176V122.312C161.404 122.492 161.644 122.756 161.788 122.96C162.34 122.564 162.832 122.084 163.252 121.532C163.744 122.108 164.296 122.588 164.908 122.948C165.076 122.672 165.412 122.264 165.652 122.06C164.98 121.724 164.38 121.232 163.864 120.632C164.524 119.492 164.98 118.148 165.22 116.72L164.536 116.468ZM172.732 113.324C172.3 112.892 171.388 112.364 170.68 112.052L170.02 112.844C170.752 113.204 171.64 113.768 172.048 114.188L172.732 113.324ZM172.228 116.36C171.736 115.988 170.776 115.532 170.032 115.28L169.444 116.144C170.2 116.42 171.148 116.924 171.592 117.308L172.228 116.36ZM170.752 122.792C171.352 121.664 172.036 120.236 172.564 118.976L171.688 118.304C171.1 119.672 170.308 121.208 169.756 122.132L170.752 122.792ZM175.492 114.032H177.388V115.16H175.492V114.032ZM180.472 116.168V115.16H178.456V114.032H180.136V113.06H178.456V111.932H177.388V113.06H175.492V111.932H174.448V113.06H172.816V114.032H174.448V115.16H172.432V116.168H175.888V117.044H172.864V122.936H173.86V118.028H175.996V120.224H175.228V118.604H174.532V121.76H175.228V121.04H177.664V121.544H178.36V118.604H177.664V120.224H176.848V118.028H179.08V121.808C179.08 121.952 179.032 122 178.876 122C178.72 122 178.192 122 177.64 121.976C177.76 122.252 177.88 122.648 177.916 122.912C178.756 122.912 179.308 122.912 179.668 122.768C180.028 122.612 180.124 122.324 180.124 121.808V117.044H176.968V116.168H180.472ZM195.124 113.672C194.8 113.204 194.104 112.52 193.528 112.04L192.712 112.592C193.288 113.084 193.96 113.804 194.272 114.284L195.124 113.672ZM190.6 120.992H188.272V120.416H190.36V117.5H188.284V116.924H190.576V116.12H188.284V115.448H191.092C191.2 117.26 191.416 118.88 191.764 120.152C191.416 120.596 191.02 120.992 190.6 121.352V120.992ZM186.064 119.24H187.348V119.816H186.064V119.24ZM186.064 118.088H187.348V118.664H186.064V118.088ZM188.2 118.664V118.088H189.52V118.664H188.2ZM188.2 119.816V119.24H189.52V119.816H188.2ZM193.924 116.036C193.6 117.092 193.156 118.076 192.616 118.964C192.412 117.98 192.268 116.78 192.184 115.448H195.376V114.512H192.136C192.1 113.696 192.088 112.832 192.1 111.944H190.984C190.984 112.82 191.008 113.684 191.044 114.512H188.332V113.696H190.36V112.82H188.332V111.932H187.264V112.82H185.2V113.696H187.264V114.512H184.66V115.448H187.276V116.12H184.996V116.924H187.276V117.5H185.236V120.416H187.288V120.992H184.816V121.82H187.288V122.948H188.272V121.82H189.988C189.844 121.928 189.688 122.024 189.532 122.12C189.808 122.336 190.144 122.684 190.288 122.96C190.984 122.504 191.62 121.952 192.184 121.316C192.64 122.336 193.252 122.936 194.068 122.936C195.004 122.936 195.388 122.396 195.544 120.44C195.268 120.344 194.884 120.092 194.644 119.852C194.584 121.28 194.452 121.856 194.164 121.856C193.696 121.856 193.3 121.292 192.976 120.332C193.804 119.18 194.452 117.824 194.92 116.336L193.924 116.036ZM204.508 119.024H205.492L205.852 114.608L205.888 113.024H204.124L204.16 114.608L204.508 119.024ZM205 122.084C205.6 122.084 206.092 121.664 206.092 121.04C206.092 120.416 205.6 119.984 205 119.984C204.4 119.984 203.908 120.416 203.908 121.04C203.908 121.664 204.4 122.084 205 122.084Z" fill="#484848"/>
<rect x="38" y="152" width="184" height="36" rx="18" fill="#EA6A74"/>
<path d="M100.124 164.576H95.8957V165.836H100.124V164.576ZM100.656 166.452H95.1817V167.768H100.656V166.452ZM98.6957 173.564V175.174H97.2117V173.564H98.6957ZM100.138 172.248H95.7977V177.022H97.2117V176.476H100.138V172.248ZM95.8397 171.562H100.152V170.316H95.8397V171.562ZM95.8397 169.672H100.152V168.398H95.8397V169.672ZM108.286 172.5H105.234V171.086H107.768V169.616H105.234V168.286H108.062V166.774H106.55C106.9 166.186 107.32 165.374 107.712 164.576L106.088 164.114C105.878 164.856 105.458 165.892 105.122 166.564L105.752 166.774H103.022L103.694 166.508C103.54 165.864 103.134 164.926 102.686 164.198L101.342 164.702C101.692 165.332 102.028 166.144 102.196 166.774H100.922V168.286H103.596V169.616H101.202V171.086H103.596V172.5H100.474V174.012H103.596V177.218H105.234V174.012H108.286V172.5ZM113.914 164.898L111.66 164.87C111.786 165.43 111.842 166.102 111.842 166.76C111.842 167.964 111.702 171.646 111.702 173.522C111.702 175.916 113.186 176.924 115.482 176.924C118.674 176.924 120.662 175.048 121.558 173.704L120.284 172.164C119.276 173.69 117.806 175.02 115.496 175.02C114.404 175.02 113.564 174.558 113.564 173.144C113.564 171.408 113.676 168.272 113.732 166.76C113.76 166.2 113.83 165.486 113.914 164.898ZM132.996 165.906L131.358 164.464C131.134 164.8 130.686 165.248 130.28 165.654C129.342 166.564 127.424 168.118 126.318 169.014C124.918 170.19 124.806 170.932 126.206 172.122C127.48 173.214 129.538 174.964 130.392 175.846C130.812 176.266 131.218 176.714 131.61 177.148L133.248 175.65C131.82 174.264 129.16 172.164 128.11 171.282C127.354 170.624 127.34 170.47 128.082 169.826C129.02 169.028 130.868 167.6 131.778 166.872C132.1 166.606 132.562 166.242 132.996 165.906ZM140.276 165.402L140.346 167.208C140.71 167.152 141.2 167.11 141.48 167.096C142.124 167.054 143.328 167.012 143.888 166.984C143.566 167.642 143.16 168.594 142.768 169.518C139.954 169.644 137.98 171.296 137.98 173.466C137.98 174.88 138.904 175.734 140.136 175.734C141.088 175.734 141.76 175.342 142.32 174.502C142.81 173.732 143.398 172.332 143.902 171.142C145.106 171.31 146.226 171.73 147.22 172.276C146.758 173.55 145.778 174.88 143.664 175.79L145.148 177.008C147.024 176.028 148.088 174.796 148.704 173.214C149.138 173.536 149.544 173.858 149.908 174.194L150.72 172.248C150.314 171.968 149.81 171.646 149.222 171.31C149.362 170.526 149.432 169.658 149.488 168.72L147.654 168.51C147.696 168.93 147.696 169.49 147.654 170.036C147.64 170.19 147.626 170.344 147.612 170.512C146.702 170.12 145.666 169.784 144.574 169.616C145.078 168.426 145.61 167.208 145.974 166.606C146.086 166.41 146.254 166.228 146.45 166.018L145.33 165.15C145.092 165.248 144.728 165.332 144.378 165.346C143.72 165.402 142.236 165.472 141.438 165.472C141.13 165.472 140.654 165.444 140.276 165.402ZM139.618 173.2C139.618 172.318 140.5 171.366 142.068 171.128C141.676 172.01 141.298 172.892 140.934 173.41C140.682 173.76 140.486 173.9 140.206 173.9C139.884 173.9 139.618 173.662 139.618 173.2ZM156.74 174.348C156.74 173.998 157.076 173.676 157.608 173.676C158.364 173.676 158.882 174.264 158.966 175.174C158.714 175.202 158.448 175.216 158.154 175.216C157.314 175.216 156.74 174.866 156.74 174.348ZM154.36 165.332L154.416 167.152C154.738 167.11 155.186 167.068 155.564 167.04C156.306 166.998 158.238 166.914 158.952 166.9C158.266 167.502 156.81 168.678 156.026 169.322C155.2 170.008 153.506 171.436 152.512 172.234L153.786 173.55C155.284 171.842 156.684 170.708 158.826 170.708C160.478 170.708 161.738 171.562 161.738 172.822C161.738 173.676 161.346 174.32 160.576 174.726C160.38 173.396 159.33 172.332 157.594 172.332C156.11 172.332 155.088 173.382 155.088 174.516C155.088 175.916 156.558 176.812 158.504 176.812C161.892 176.812 163.572 175.062 163.572 172.85C163.572 170.806 161.766 169.322 159.386 169.322C158.938 169.322 158.518 169.364 158.056 169.476C158.938 168.776 160.408 167.544 161.164 167.012C161.486 166.774 161.822 166.578 162.144 166.368L161.234 165.122C161.066 165.178 160.744 165.22 160.17 165.276C159.372 165.346 156.376 165.402 155.634 165.402C155.242 165.402 154.752 165.388 154.36 165.332Z" fill="#FFDAD6"/>
</g>
<defs>
<filter id="filter0_d" x="0" y="0" width="260" height="231" filterUnits="userSpaceOnUse" color-interpolation-filters="sRGB">
<feFlood flood-opacity="0" result="BackgroundImageFix"/>
<feColorMatrix in="SourceAlpha" type="matrix" values="0 0 0 0 0 0 0 0 0 0 0 0 0 0 0 0 0 0 127 0"/>
<feOffset dy="4"/>
<feGaussianBlur stdDeviation="9"/>
<feColorMatrix type="matrix" values="0 0 0 0 0.395833 0 0 0 0 0.105556 0 0 0 0 0.105556 0 0 0 0.15 0"/>
<feBlend mode="normal" in2="BackgroundImageFix" result="effect1_dropShadow"/>
<feBlend mode="normal" in="SourceGraphic" in2="effect1_dropShadow" result="shape"/>
</filter>
<linearGradient id="paint0_linear" x1="112" y1="0" x2="112" y2="195" gradientUnits="userSpaceOnUse">
<stop stop-color="#FFD5D1"/>
<stop offset="1" stop-color="#FFEFEA"/>
</linearGradient>
</defs>
</svg>
