<svg width="411" height="102" viewBox="0 0 411 102" fill="none" xmlns="http://www.w3.org/2000/svg">
<g filter="url(#filter0_d)">
<rect x="18" y="14" width="375" height="66" fill="url(#paint0_linear)"/>
</g>
<path d="M218.784 43.744H213.216V43.06H218.784V43.744ZM218.784 45.148H213.216V44.452H218.784V45.148ZM219.9 42.304H212.148V45.892H219.9V42.304ZM219.54 48.856C219.264 49.42 218.892 49.924 218.448 50.368C218.028 49.924 217.68 49.408 217.44 48.856H219.54ZM212.748 51.124V50.344H214.632V50.944L212.748 51.124ZM212.748 48.832H214.632V49.54H212.748V48.832ZM214.632 47.368V48.04H212.748V47.368H214.632ZM220.212 47.956L220.02 47.992H216.072V48.856H217.152L216.504 49.036C216.816 49.768 217.224 50.428 217.716 50.992C217.104 51.436 216.408 51.784 215.7 52V47.368H221.244V46.456H210.732V47.368H211.716V51.22C211.32 51.256 210.948 51.292 210.624 51.316L210.708 52.288C211.8 52.18 213.216 52.024 214.632 51.868V52.936H215.7V52.084C215.904 52.3 216.144 52.66 216.252 52.9C217.044 52.612 217.8 52.216 218.472 51.7C219.144 52.252 219.948 52.672 220.86 52.936C220.992 52.672 221.292 52.264 221.52 52.072C220.656 51.856 219.876 51.508 219.228 51.04C219.96 50.296 220.548 49.36 220.896 48.22L220.212 47.956ZM228.416 44.068C228.296 44.548 228.068 45.196 227.876 45.64L228.704 45.82H226.064L226.76 45.64C226.712 45.208 226.52 44.572 226.28 44.068H228.416ZM229.748 50.44C229.472 50.212 228.368 49.312 227.936 49.012V48.808H230.06V47.86H227.936V46.768H230.168V45.82H228.764C228.968 45.412 229.196 44.824 229.424 44.26L228.584 44.068H230.036V43.144H227.936V42.004H226.856V43.144H224.756V44.068H226.232L225.416 44.272C225.62 44.752 225.8 45.388 225.836 45.82H224.6V46.768H226.856V47.86H224.636V48.808H226.64C226.064 49.792 225.164 50.788 224.348 51.328C224.576 51.52 224.9 51.88 225.068 52.132C225.68 51.652 226.316 50.92 226.856 50.116V52.924H227.936V50.08C228.38 50.5 228.86 50.98 229.1 51.268L229.748 50.44ZM235.508 45.904H231.62V43.96C232.916 43.708 234.356 43.336 235.388 42.868L234.488 42.064C233.744 42.448 232.472 42.82 231.296 43.096L230.552 42.88V47.032C230.552 48.688 230.408 50.74 228.956 52.216C229.208 52.36 229.616 52.744 229.748 52.984C231.404 51.316 231.62 48.82 231.62 47.044V46.936H233.168V52.876H234.248V46.936H235.508V45.904ZM247 43.348C246.796 43.42 246.4 43.468 245.956 43.468H241.504C241.132 43.468 240.436 43.42 240.196 43.384V44.74C240.388 44.728 241.036 44.668 241.504 44.668H245.908C245.62 45.604 244.816 46.924 244 47.836C242.812 49.168 241.012 50.608 239.068 51.352L240.04 52.36C241.768 51.568 243.376 50.284 244.66 48.916C245.848 50.02 247.048 51.34 247.828 52.42L248.896 51.484C248.152 50.572 246.7 49.024 245.464 47.968C246.304 46.888 247.012 45.532 247.432 44.548C247.516 44.344 247.696 44.044 247.78 43.924L247 43.348ZM261.636 43.72C261.408 43.804 261.072 43.852 260.736 43.852H257.82L257.964 43.588C258.084 43.348 258.348 42.892 258.576 42.532L257.208 42.1C257.124 42.448 256.908 42.94 256.752 43.18C256.188 44.248 255 45.988 252.912 47.272L253.944 48.052C255.228 47.176 256.308 46.024 257.1 44.932H260.916C260.7 45.772 260.16 46.9 259.5 47.848C258.624 47.32 257.7 46.792 257.028 46.444L256.236 47.344C256.884 47.704 257.808 48.268 258.696 48.844C257.652 49.96 256.188 51.052 254.076 51.688L255.168 52.648C257.208 51.868 258.672 50.752 259.74 49.54C260.196 49.852 260.592 50.14 260.88 50.38L261.72 49.276C261.42 49.06 261.012 48.796 260.568 48.508C261.384 47.332 261.972 46.06 262.272 45.064C262.356 44.824 262.5 44.524 262.608 44.32L261.636 43.72ZM273.26 45.988C274.472 45.208 275.6 44.272 276.464 43.408L275.444 42.484C274.772 43.348 273.524 44.416 272.312 45.172C270.98 46 268.952 46.888 266.9 47.356L267.584 48.52C269.072 48.1 270.668 47.428 271.928 46.756V51.028C271.928 51.52 271.892 52.18 271.856 52.444H273.344C273.284 52.18 273.26 51.52 273.26 51.028V45.988ZM281.8 52.396C282.82 51.532 283.576 50.356 283.936 49.036C284.26 47.836 284.308 45.28 284.308 43.912C284.308 43.492 284.356 43.048 284.368 42.952H282.976C283.048 43.228 283.072 43.516 283.072 43.924C283.072 45.304 283.072 47.644 282.724 48.712C282.376 49.816 281.692 50.896 280.66 51.628L281.8 52.396ZM286.972 52.396C287.104 52.3 287.224 52.192 287.428 52.096C288.808 51.4 290.488 50.14 291.508 48.784L290.788 47.752C289.924 49.024 288.568 50.044 287.524 50.512V43.876C287.524 43.384 287.572 42.988 287.584 42.916H286.192C286.192 42.988 286.264 43.384 286.264 43.876V50.98C286.264 51.256 286.228 51.532 286.18 51.736L286.972 52.396ZM295.188 47.608C295.44 46.708 295.632 45.304 295.668 44.356L294.864 44.248C294.792 45.196 294.6 46.528 294.348 47.332L295.188 47.608ZM298.212 45.316C298.104 44.872 297.792 44.164 297.54 43.624L296.844 43.9V41.932H295.824V52.936H296.844V43.996C297.084 44.548 297.336 45.256 297.456 45.676L298.212 45.316ZM299.568 50.32V49.576H303.54V50.32H299.568ZM303.54 48.004V48.748H299.568V48.004H303.54ZM304.596 47.164H298.536V52.936H299.568V51.124H303.54V51.772C303.54 51.916 303.492 51.964 303.324 51.976C303.168 51.976 302.592 51.988 302.04 51.952C302.172 52.216 302.316 52.636 302.364 52.912C303.192 52.912 303.756 52.9 304.128 52.744C304.488 52.588 304.596 52.3 304.596 51.796V47.164ZM302.088 45.748V45.052H304.812V44.272H302.088V43.648H305.124V42.82H302.088V41.932H300.984V42.82H298.068V43.648H300.984V44.272H298.356V45.052H300.984V45.748H297.696V46.576H305.484V45.748H302.088ZM312.176 47.56H310.268L310.664 47.452C310.616 47.068 310.412 46.48 310.196 46.012H312.272C312.152 46.444 311.936 47.044 311.768 47.452L312.176 47.56ZM311.744 44.02H313.4V43.084H311.744V41.956H310.7V43.084H308.936V44.02H310.7V45.064H308.504V46.012H309.788L309.296 46.144C309.512 46.588 309.692 47.152 309.752 47.56H308.708V48.52H310.7V49.648H308.816V50.596H310.7V52.912H311.744V50.596H313.544V49.648H311.744V48.52H313.7V47.56H312.632C312.824 47.176 313.04 46.648 313.244 46.144L312.728 46.012H313.844V45.064H311.744V44.02ZM315.176 47.428C315.524 48.616 315.992 49.72 316.604 50.668C316.196 51.232 315.728 51.724 315.176 52.108V47.428ZM318.032 47.428C317.84 48.232 317.564 49.012 317.18 49.732C316.736 49.024 316.376 48.244 316.112 47.428H318.032ZM318.536 46.468L318.356 46.516H315.176V43.444H317.9V44.716C317.9 44.848 317.852 44.884 317.672 44.896C317.492 44.908 316.856 44.908 316.172 44.884C316.316 45.148 316.46 45.556 316.508 45.844C317.408 45.844 318.02 45.844 318.416 45.688C318.836 45.532 318.944 45.244 318.944 44.728V42.46H314.168V52.948H315.176V52.312C315.404 52.492 315.644 52.756 315.788 52.96C316.34 52.564 316.832 52.084 317.252 51.532C317.744 52.108 318.296 52.588 318.908 52.948C319.076 52.672 319.412 52.264 319.652 52.06C318.98 51.724 318.38 51.232 317.864 50.632C318.524 49.492 318.98 48.148 319.22 46.72L318.536 46.468ZM325.732 43.324C325.3 42.892 324.388 42.364 323.68 42.052L323.02 42.844C323.752 43.204 324.64 43.768 325.048 44.188L325.732 43.324ZM325.228 46.36C324.736 45.988 323.776 45.532 323.032 45.28L322.444 46.144C323.2 46.42 324.148 46.924 324.592 47.308L325.228 46.36ZM323.752 52.792C324.352 51.664 325.036 50.236 325.564 48.976L324.688 48.304C324.1 49.672 323.308 51.208 322.756 52.132L323.752 52.792ZM328.492 44.032H330.388V45.16H328.492V44.032ZM333.472 46.168V45.16H331.456V44.032H333.136V43.06H331.456V41.932H330.388V43.06H328.492V41.932H327.448V43.06H325.816V44.032H327.448V45.16H325.432V46.168H328.888V47.044H325.864V52.936H326.86V48.028H328.996V50.224H328.228V48.604H327.532V51.76H328.228V51.04H330.664V51.544H331.36V48.604H330.664V50.224H329.848V48.028H332.08V51.808C332.08 51.952 332.032 52 331.876 52C331.72 52 331.192 52 330.64 51.976C330.76 52.252 330.88 52.648 330.916 52.912C331.756 52.912 332.308 52.912 332.668 52.768C333.028 52.612 333.124 52.324 333.124 51.808V47.044H329.968V46.168H333.472ZM347.124 43.672C346.8 43.204 346.104 42.52 345.528 42.04L344.712 42.592C345.288 43.084 345.96 43.804 346.272 44.284L347.124 43.672ZM342.6 50.992H340.272V50.416H342.36V47.5H340.284V46.924H342.576V46.12H340.284V45.448H343.092C343.2 47.26 343.416 48.88 343.764 50.152C343.416 50.596 343.02 50.992 342.6 51.352V50.992ZM338.064 49.24H339.348V49.816H338.064V49.24ZM338.064 48.088H339.348V48.664H338.064V48.088ZM340.2 48.664V48.088H341.52V48.664H340.2ZM340.2 49.816V49.24H341.52V49.816H340.2ZM345.924 46.036C345.6 47.092 345.156 48.076 344.616 48.964C344.412 47.98 344.268 46.78 344.184 45.448H347.376V44.512H344.136C344.1 43.696 344.088 42.832 344.1 41.944H342.984C342.984 42.82 343.008 43.684 343.044 44.512H340.332V43.696H342.36V42.82H340.332V41.932H339.264V42.82H337.2V43.696H339.264V44.512H336.66V45.448H339.276V46.12H336.996V46.924H339.276V47.5H337.236V50.416H339.288V50.992H336.816V51.82H339.288V52.948H340.272V51.82H341.988C341.844 51.928 341.688 52.024 341.532 52.12C341.808 52.336 342.144 52.684 342.288 52.96C342.984 52.504 343.62 51.952 344.184 51.316C344.64 52.336 345.252 52.936 346.068 52.936C347.004 52.936 347.388 52.396 347.544 50.44C347.268 50.344 346.884 50.092 346.644 49.852C346.584 51.28 346.452 51.856 346.164 51.856C345.696 51.856 345.3 51.292 344.976 50.332C345.804 49.18 346.452 47.824 346.92 46.336L345.924 46.036ZM355.508 49.024H356.492L356.852 44.608L356.888 43.024H355.124L355.16 44.608L355.508 49.024ZM356 52.084C356.6 52.084 357.092 51.664 357.092 51.04C357.092 50.416 356.6 49.984 356 49.984C355.4 49.984 354.908 50.416 354.908 51.04C354.908 51.664 355.4 52.084 356 52.084Z" fill="#484848"/>
<path d="M43.9401 35.0838C43.9401 34.8291 43.9564 34.5426 43.989 34.256C44.8529 33.874 45.6353 33.683 46.4177 33.6511C46.0591 34.5744 45.13 35.8638 44.2172 36.8189C44.0542 36.3573 43.9401 35.8001 43.9401 35.0838ZM40.4356 39.0316C40.1585 39.0316 40.0444 38.8883 40.0444 38.5859C40.0444 37.583 41.0387 36.0389 42.6524 34.9724C42.6361 35.1793 42.6361 35.3862 42.6361 35.5773C42.6361 36.3891 42.7176 37.2328 42.8969 37.9651C42.0656 38.57 41.1202 39.0316 40.4356 39.0316ZM45.9124 32.1707C46.3525 32.4572 46.5644 32.7278 46.5644 33.0621C45.6842 33.094 44.8529 33.2531 44.0705 33.5078C44.152 32.9825 44.2498 32.4254 44.3639 31.8841C46.0917 31.5976 47.7055 31.1519 48.4716 30.8654C48.8954 30.7062 49.1073 30.4833 49.1073 30.1172C49.1073 29.6555 48.6346 29.4008 47.7707 29.4008C47.5751 29.4008 46.5155 30.0694 44.7062 30.4992L44.7877 30.149C44.9344 29.56 45.3582 29.369 45.3582 28.9551C45.3582 28.5412 44.2009 28 43.2555 28C42.9295 28 42.4405 28.2229 42.0982 28.398L42.1145 28.6208C42.4405 28.6845 42.7828 28.7641 43.0273 28.8596C43.3044 28.9551 43.3696 29.0506 43.3696 29.3372C43.3696 29.6555 43.3044 30.1649 43.2229 30.7539C42.7502 30.8176 42.2612 30.8494 41.7559 30.8494C40.8431 30.8494 40.2074 30.6107 39.3924 30.0853L39.2131 30.2445C39.588 31.4543 40.1422 32.1707 41.4788 32.1707C41.9678 32.1707 42.4894 32.1388 43.011 32.0752C42.9132 32.7278 42.7991 33.4123 42.7339 34.065C40.5171 35.1475 38.5936 37.1055 38.5936 39.1749C38.5936 40.13 39.1316 40.6235 39.9466 40.6235C40.9735 40.6235 42.2123 40.1141 43.3859 39.1749C43.6141 39.5569 43.9075 39.7798 44.2661 39.7798C44.7225 39.7798 45.0485 39.5728 45.0485 39.0794C45.0485 38.6814 44.8855 38.3312 44.7062 37.9332C45.9124 36.6438 47.0209 35.052 47.5262 33.7307C49.0421 34.0491 49.9386 35.1793 49.9386 36.6438C49.9386 38.7928 48.0967 40.6712 43.826 41.4512L43.8912 41.7537C48.5042 41.7378 51.7479 40.3847 51.7479 37.0895C51.7479 35.1634 50.2157 33.4283 47.6892 33.1099C47.7055 32.9189 47.6403 32.7438 47.4936 32.5846C47.1676 32.2503 46.6785 32.0752 46.0428 31.9797L45.9124 32.1707Z" fill="#EA5A65"/>
<path d="M62.2616 40.2096C61.0064 40.2096 60.2566 39.8275 60.2566 39.2226C60.2566 38.7292 60.6641 38.4267 61.2835 38.4267C62.18 38.4267 62.8321 39.1112 63.0277 40.1778C62.7832 40.1937 62.5387 40.2096 62.2616 40.2096ZM58.594 28.8596C58.4962 29.2576 58.4473 29.5282 58.4636 29.8943C58.5125 30.4515 59.246 31.5339 60.2077 31.5339C60.55 31.5339 60.8271 31.2952 61.1368 31.1041C61.7562 30.7539 62.7669 30.2127 63.37 30.1172C63.6308 30.0694 63.7938 30.1809 63.5167 30.5311C62.6691 31.6613 59.246 34.8132 57.6486 36.3414C57.1107 36.8508 56.8499 37.201 56.8173 37.6308C56.7847 38.2357 57.1433 38.6496 57.5019 38.6655C57.9094 38.6814 58.0724 38.5381 58.4636 38.0447C59.8491 36.2936 61.4139 34.7017 63.6471 34.7017C65.5216 34.7017 66.4833 35.7842 66.467 37.1851C66.4507 38.2834 65.8965 39.3022 64.5436 39.8435C64.1524 38.2834 62.8158 37.6785 61.7073 37.6785C60.5011 37.6785 59.5231 38.363 59.5231 39.4137C59.5231 40.7986 60.9412 41.6104 62.8484 41.6104C66.2062 41.6104 68.1459 39.8912 68.1622 37.7581C68.1785 35.3703 66.3366 34.0332 64.1361 34.0332C62.881 34.0332 61.9518 34.3993 61.4139 34.5744C61.2509 34.6222 61.1531 34.5107 61.3324 34.3356C61.9518 33.6989 63.9568 32.0115 65.0326 31.327C65.5705 30.9609 66.141 30.8335 66.141 30.3878C66.141 29.7033 64.8533 28.7004 64.0872 28.7004C63.7449 28.7004 63.7449 28.9392 63.1092 29.1461C62.229 29.4168 60.5174 29.8147 59.9306 29.8147C59.5068 29.8147 59.0993 29.3531 58.8222 28.8437L58.594 28.8596Z" fill="#EA5A65"/>
<path d="M82.9302 33.7307C83.3214 33.7307 83.5496 33.476 83.5496 33.1417C83.5659 32.8074 83.3866 32.505 83.028 32.1707C82.5064 31.6931 81.6588 31.2633 80.6971 31.0086L80.5178 31.2315C81.3491 31.916 81.8055 32.6005 82.1478 33.094C82.4249 33.5078 82.6531 33.7307 82.9302 33.7307ZM84.6417 32.2503C84.984 32.2503 85.2122 32.0115 85.2122 31.6772C85.2122 31.2792 85.0003 30.929 84.5765 30.6107C84.0875 30.1968 83.3214 29.8625 82.2782 29.6555L82.1152 29.8784C83.028 30.5151 83.4844 31.136 83.8104 31.5817C84.1201 32.0274 84.3157 32.2503 84.6417 32.2503ZM75.9863 29.5282C76.2797 29.7829 76.3612 30.0694 76.3612 30.8494C76.3612 32.0433 76.0189 35.2748 76.0189 37.5512C76.0189 40.528 77.4207 41.69 79.7028 41.69C83.0606 41.69 85.4731 39.4614 86.5489 36.8667L86.2555 36.6597C84.821 38.4108 82.3434 39.8435 79.9636 39.8435C78.0402 39.8435 77.5348 39.159 77.5348 37.3442C77.5348 35.5136 77.8935 33.3327 78.2358 31.8046C78.4151 30.9927 78.8552 30.738 78.8552 30.2923C78.8552 29.6396 77.3066 28.4616 76.1982 28.4457C75.7744 28.4457 75.3506 28.589 74.9268 28.7482V29.0029C75.4647 29.1939 75.7092 29.3053 75.9863 29.5282Z" fill="#EA5A65"/>
<path d="M96.0682 31.6135C96.655 31.8046 97.1114 32.1707 97.2092 32.4095C97.2744 32.5686 97.2255 32.6642 97.0462 32.696C96.7691 32.7597 96.1171 32.8233 95.4814 32.8711C95.0087 32.9029 94.047 32.8552 94.0307 33.8262C94.0144 34.2719 94.3404 34.5107 94.6501 34.9087C94.7805 35.0679 94.9109 35.2589 95.0739 35.4818C94.7968 35.6091 94.536 35.7365 94.2752 35.8638C93.8514 36.0867 93.3787 36.3414 93.0526 36.3414C92.7755 36.3414 92.5636 36.1344 92.3191 35.8797L92.1561 35.9434C92.0583 36.5801 92.1235 36.8667 92.3354 37.1532C92.5799 37.5034 93.2483 37.8696 93.721 37.8696C94.1285 37.8696 94.3567 37.5671 94.7479 37.2328C95.0413 36.994 95.3673 36.7393 95.7259 36.4846C96.4268 37.6467 96.7365 38.761 96.9321 39.4933C97.1114 40.1937 97.1929 40.8304 97.3396 41.2921C97.5026 41.8015 97.7308 42.0402 98.1546 42.0402C98.6762 42.0402 99.0022 41.6582 99.0022 41.0851C99.0022 40.5916 98.7577 39.8275 98.4969 39.2226C98.1546 38.4585 97.5026 37.0099 96.7528 35.8001C98.0894 34.9405 99.5727 34.2083 100.567 34.2083C101.349 34.2083 102.067 34.7495 102.067 35.5136C102.067 36.4687 101.349 36.994 100.371 36.994C99.4912 36.994 98.7251 36.7075 98.0242 36.0867L97.8612 36.1981C98.5458 37.4397 99.4912 38.2038 100.697 38.2038C102.376 38.2038 103.436 37.2169 103.436 35.9752C103.436 34.7177 102.376 33.683 100.632 33.683C99.4423 33.683 97.8123 34.2401 96.166 34.9724C95.7259 34.3993 95.2206 33.874 95.2206 33.6511C95.2206 33.3646 95.4488 33.3327 95.7259 33.3327C96.4268 33.3487 97.2907 33.3805 97.6656 33.4601C97.8775 33.5078 98.2687 33.6511 98.5295 33.6511C98.8881 33.6511 99.1489 33.4283 99.1489 33.0462C99.1489 32.7278 99.0185 32.4095 98.7251 32.107C98.3339 31.6772 97.4863 31.2792 96.0845 31.4543L96.0682 31.6135Z" fill="#EA5A65"/>
<path d="M114.455 29.2894C114.634 29.4486 114.683 29.6715 114.536 29.9898C114.047 30.9131 111.586 34.9246 110.51 36.7393C109.614 38.2516 108.733 39.4137 108.733 40.2414C108.733 40.8145 109.076 41.4194 109.695 41.4194C110.298 41.4194 110.592 40.9896 110.771 40.512C111.048 39.7639 111.325 38.7928 111.733 37.8696C112.319 36.5642 113.461 35.1475 114.781 35.1475C115.661 35.1475 115.906 35.6887 115.906 36.3573C115.906 37.3761 115.71 38.2516 115.726 39.35C115.743 40.6553 116.59 41.499 118.155 41.499C120.421 41.499 122.377 39.9549 122.735 36.214L122.475 36.1503C121.806 37.8696 120.356 39.748 118.628 39.748C117.959 39.748 117.519 39.4773 117.519 38.6814C117.519 37.8059 117.552 37.0895 117.503 36.3414C117.405 35.1156 116.639 34.4311 115.254 34.4311C114.732 34.4311 113.998 34.6062 113.216 34.9883C113.102 35.052 113.069 35.0042 113.118 34.9087C113.787 33.8262 115.205 32.0274 116.036 31.1996C116.492 30.738 117.014 30.5629 117.014 30.1968C117.014 29.56 116.15 28.5572 114.862 28.382C114.504 28.3184 113.901 28.382 113.509 28.5253L113.477 28.7641C113.77 28.8755 114.21 29.0825 114.455 29.2894Z" fill="#EA5A65"/>
<path d="M132.613 37.2487C131.863 37.2487 131.358 36.6279 131.358 35.9116C131.358 35.0679 131.896 34.447 132.662 34.447C133.347 34.447 133.656 35.0838 133.656 35.8638C133.656 36.7871 133.379 37.2487 132.613 37.2487ZM131.7 28.8914C132.157 28.971 132.548 29.0506 132.809 29.1621C133.07 29.2735 133.151 29.3849 133.2 29.6555C133.249 29.9739 133.298 30.4833 133.347 31.0245C131.505 31.2474 128.424 31.6294 127.723 31.5976C127.153 31.5976 126.908 31.327 126.321 30.6743L126.077 30.7698C126.061 31.1201 126.061 31.5658 126.175 31.916C126.354 32.5527 127.299 33.3964 127.935 33.3964C128.506 33.3964 128.848 33.0621 129.614 32.8393C130.396 32.6164 131.766 32.298 133.428 32.0911C133.461 32.6801 133.493 33.2531 133.526 33.667C133.314 33.6193 133.086 33.6034 132.841 33.6034C131.505 33.6034 130.494 34.6699 130.494 36.0707C130.494 37.6785 131.7 38.9998 133.33 38.5541C132.695 40.0504 131.032 41.0692 129.044 41.7696L129.174 42.0721C132.76 41.5786 135.515 39.8753 135.515 36.5801C135.515 35.7365 135.319 34.9564 134.83 34.3993C134.83 33.6034 134.83 32.7119 134.846 31.9319C137.846 31.6931 138.889 32.1388 139.606 32.1388C140.095 32.1388 140.421 32.0593 140.421 31.518C140.421 30.7858 139.329 30.3241 138.465 30.3241C138.204 30.3241 137.878 30.5311 134.879 30.8654C134.879 30.5629 134.895 30.3241 134.912 30.1809C134.961 29.7988 135.238 29.4645 135.238 29.0347C135.238 28.5094 134.064 28.0955 133.135 28.0955C132.597 28.0955 132.059 28.398 131.668 28.6686L131.7 28.8914Z" fill="#EA5A65"/>
<path d="M143.416 33.6352C143.367 34.0172 143.318 34.4789 143.465 34.845C143.758 35.625 144.769 36.6597 145.404 36.6597C146.024 36.6597 146.268 36.2777 147.442 36.1663C148.697 36.023 152.348 35.8001 153.587 35.8001C154.728 35.8001 155.299 35.8479 155.951 35.8479C156.635 35.8479 157.027 35.625 157.027 35.1634C157.027 34.4789 156.179 33.9854 155.201 33.9854C154.81 33.9854 154.076 34.1128 152.984 34.2083C151.99 34.2879 147.067 34.6062 145.323 34.6062C144.459 34.6062 144.182 34.1764 143.693 33.5397L143.416 33.6352Z" fill="#EA5A65"/>
<path d="M39.6392 50.5356C39.7556 50.9449 39.872 51.3088 40.0583 51.6499C40.4542 52.3321 41.2925 53.0826 42.0144 53.0826C42.7129 53.0826 43.6211 52.7869 44.4361 52.696H44.4827C44.832 53.1053 45.0415 53.5601 45.0648 54.3333C45.0881 54.7427 45.0648 55.5613 45.0648 56.5164C42.8992 56.7893 40.1515 57.1987 39.0338 57.1987C38.3119 57.1987 37.8694 56.8121 37.3106 56.3573L37.0079 56.471C36.9846 56.9258 37.0079 57.3579 37.1476 57.699C37.4736 58.5176 38.4982 59.4273 39.1968 59.4273C39.8255 59.4273 40.2213 59.0862 41.3856 58.7223C42.2705 58.4494 43.7375 58.1538 45.0415 57.9491C44.995 59.6547 44.9717 61.4512 44.995 62.3836C45.0415 64.4303 45.9031 65.3399 49.3727 65.3399C51.5383 65.3399 53.2149 65.1352 53.9834 64.9761C54.7052 64.8169 55.1244 64.544 55.1244 63.9982C55.1244 63.4752 54.356 62.8157 53.0054 62.8157C52.5396 62.8157 51.9109 63.2478 49.0467 63.2478C47.1606 63.2478 46.788 62.8612 46.7647 61.7241C46.7414 60.8372 46.788 59.2226 46.8579 57.699C48.8372 57.4488 50.7233 57.2669 51.9109 57.2669C53.2615 57.2669 54.7984 57.5398 55.66 57.517C56.2654 57.517 56.5448 57.1759 56.5448 56.6529C56.5448 55.8115 54.7518 55.1975 53.9135 55.1975C53.5177 55.1975 53.0519 55.4249 51.7479 55.6296C50.7 55.7887 48.8837 56.0161 46.9743 56.2663C47.0209 55.675 47.0674 55.152 47.1373 54.7654C47.2071 54.2878 47.5099 54.0832 47.5099 53.6283C47.5099 53.31 46.9044 52.8324 45.9963 52.4913C47.9756 52.2412 50.9562 51.9228 52.1904 51.7863C53.0985 51.6499 53.3547 51.3088 53.3547 50.8994C53.3547 50.3309 52.3068 49.7169 50.8863 49.7169C50.5603 49.7169 49.7686 50.1945 48.1153 50.5356C46.4387 50.854 43.3417 51.2633 41.8514 51.286C41.2459 51.286 40.5939 50.9449 39.9652 50.3991L39.6392 50.5356Z" fill="#EA5A65"/>
<path d="M77.4324 53.9012C77.8748 53.9012 78.1543 53.6056 78.1543 53.1735C78.1543 52.7187 77.968 52.3321 77.4324 51.8546C76.7804 51.2633 75.7558 50.8085 74.5216 50.3991L74.2422 50.763C75.3134 51.5589 75.9188 52.3321 76.3845 52.9234C76.8037 53.4919 77.0598 53.9012 77.4324 53.9012ZM79.5747 52.0592C79.9939 52.0592 80.25 51.8091 80.25 51.3543C80.25 50.8767 80.0171 50.4219 79.4117 49.9671C78.8063 49.4895 77.7817 49.0802 76.5242 48.7618L76.2914 49.1029C77.4324 49.9216 77.9447 50.5356 78.4337 51.0814C78.8994 51.6271 79.1556 52.0592 79.5747 52.0592ZM66.6975 54.9928C66.6975 56.5847 62.6458 61.2011 59.2693 63.5206L59.572 63.93C63.0416 62.3836 66.5113 59.5865 68.5371 57.1304C69.0261 56.5619 69.6549 56.2663 69.6549 55.766C69.6549 54.8791 68.2344 53.1735 66.8838 53.0143C66.3482 52.9234 65.673 52.9916 65.2771 53.0371L65.1374 53.4237C65.9058 53.7875 66.6975 54.4015 66.6975 54.9928ZM80.0637 61.0419C79.8309 57.9719 75.8024 54.4925 72.0999 52.8552L71.7972 53.2418C74.5682 55.4704 76.2448 58.0173 77.3858 61.1783C77.7351 62.2244 77.9913 62.8612 78.8063 62.8384C79.5747 62.8157 80.1336 62.0425 80.0637 61.0419Z" fill="#EA5A65"/>
<path d="M95.3393 48.216C96.1776 48.6253 96.7132 49.0119 96.7132 49.4213C96.7132 49.6714 96.5036 50.1035 96.0845 50.7175C94.4079 53.1735 89.9137 57.7217 84.5579 60.678L84.8374 61.1556C88.959 59.7002 92.382 57.1532 93.9189 55.8797C94.0819 56.1526 94.1285 56.4255 94.1518 56.8121C94.1983 57.8354 94.1285 60.9054 93.8956 62.8612C93.8025 63.6116 93.6395 64.0892 93.6395 64.5212C93.6395 65.4991 94.1285 66.6361 95.1531 66.6361C95.8516 66.6361 96.2009 66.1586 96.2009 65.249C96.2009 63.9982 96.0379 60.6325 96.1544 57.4716C96.2009 56.8576 96.3872 56.4937 96.3872 56.1298C96.3872 55.7433 95.8283 55.3112 95.1065 54.8336C96.5269 53.5146 97.6912 52.2866 98.5295 51.4452C99.1815 50.7857 99.6705 50.8085 99.6705 50.2172C99.6705 49.5122 98.4364 48.3525 97.3187 48.0113C96.7132 47.8067 96.0612 47.8067 95.4791 47.8294L95.3393 48.216Z" fill="#EA5A65"/>
<path d="M115.552 50.4446C116.693 50.6265 117.321 50.9449 117.345 51.5589C117.484 53.7421 117.368 59.7002 117.275 60.8827C117.182 61.7696 116.902 62.0197 116.902 62.4746C116.902 63.0431 118.09 64.4758 118.812 64.4758C119.394 64.4758 119.766 63.7708 120.302 63.4297C123.306 61.5877 126.636 58.7905 128.615 55.7887L128.196 55.4704C125.751 57.7899 122.561 60.064 119.627 61.2466C119.347 61.3603 119.184 61.2693 119.184 60.9509C119.161 59.2908 119.324 53.9012 119.487 52.696C119.58 51.9 120.116 51.8318 120.116 51.286C120.116 50.6265 118.369 49.6032 117.251 49.6032C116.669 49.6032 116.204 49.7169 115.528 50.0353L115.552 50.4446ZM112.408 54.2878C112.408 57.3351 110.103 62.1334 106.493 65.1352L106.843 65.5446C111.453 63.0431 113.828 59.2226 114.597 55.5386C114.713 54.9701 115.202 54.6517 115.202 54.1059C115.202 53.2872 113.293 52.2866 112.315 52.2412C111.709 52.2184 111.174 52.3776 110.708 52.5368V52.9689C111.407 53.1963 112.408 53.5601 112.408 54.2878Z" fill="#EA5A65"/>
<path d="M132.271 49.6259C132.248 50.1945 132.318 50.763 132.504 51.1951C132.853 52.0365 134.064 53.1053 134.809 53.1053C135.461 53.1053 135.647 52.5823 136.556 52.3549C139.001 51.8091 145.171 50.8085 146.196 50.8085C146.662 50.8085 146.778 50.8994 146.522 51.3543C145.917 52.2639 144.45 53.6966 142.866 54.8336C142.354 54.5607 141.562 54.2878 140.607 54.2196C140.118 54.1741 139.653 54.2196 139.047 54.2878L138.977 54.6972C139.955 55.0838 140.794 55.4704 140.794 56.1753C140.794 57.699 137.79 63.3387 133.249 66.2268L133.598 66.6589C138.838 64.2484 141.679 60.6553 143.495 56.0389C143.565 55.857 143.588 55.6978 143.565 55.5613C145.567 54.538 147.477 53.3782 148.501 52.7415C149.037 52.4003 150.178 52.3094 150.178 51.6271C150.178 50.8085 148.152 49.0119 147.36 49.0119C146.871 49.0119 146.569 49.3985 145.87 49.4895C144.356 49.7169 136.16 50.6038 134.297 50.6038C133.575 50.6038 133.272 50.1945 132.69 49.4895L132.271 49.6259Z" fill="#EA5A65"/>
<path d="M173.324 51.4452C174.721 51.4452 175.839 50.3537 175.839 48.9665C175.839 47.602 174.721 46.5104 173.324 46.5104C171.927 46.5104 170.786 47.602 170.786 48.9665C170.786 50.3537 171.927 51.4452 173.324 51.4452ZM173.324 47.3746C174.232 47.3746 174.978 48.0796 174.978 48.9665C174.978 49.8761 174.232 50.5811 173.324 50.5811C172.416 50.5811 171.671 49.8761 171.671 48.9665C171.671 48.0796 172.416 47.3746 173.324 47.3746ZM156.419 50.4446L156.023 50.6038C156.046 51.2178 156.069 51.6044 156.209 52.0592C156.442 52.7869 157.629 54.1059 158.538 54.1059C159.027 54.1059 159.585 53.6738 160.168 53.5374C161.495 53.219 167.247 52.2184 168.574 52.2184C168.783 52.2184 168.9 52.2866 168.83 52.5368C167.549 57.6762 163.078 62.9521 156.582 66.2041L156.884 66.6816C164.15 64.2256 168.388 59.9503 171.019 54.3561C171.368 53.6056 172.16 53.3782 172.16 52.7187C172.16 51.991 170.018 50.2172 169.109 50.2172C168.574 50.2172 168.481 50.5811 167.689 50.7403C166.501 50.9904 159.958 51.6726 158.328 51.6726C157.49 51.6726 156.931 51.0586 156.419 50.4446Z" fill="#EA5A65"/>
<path d="M192.255 56.6301C192.348 55.243 192.441 52.605 192.511 51.2633C192.558 50.5583 193 50.3764 193 49.8306C193 49.2394 191.16 48.1933 190.206 48.1933C189.67 48.1933 188.855 48.5799 188.273 48.9437L188.296 49.3531C188.855 49.4668 189.391 49.5805 189.693 49.7624C190.136 50.0125 190.182 50.2854 190.206 50.763C190.299 52.1729 190.299 54.7654 190.159 56.6074C189.833 61.1783 187.551 64.2029 183.103 66.5452L183.36 67C188.902 65.249 191.952 62.0197 192.255 56.6301ZM181.893 50.5128C182.242 50.6948 182.312 50.8767 182.382 51.377C182.475 52.2639 182.521 54.5835 182.498 55.675C182.475 57.3806 182.195 58.131 182.195 58.7223C182.195 59.8366 182.801 60.7917 183.476 60.7917C184.105 60.7917 184.524 60.4051 184.524 59.3363C184.524 58.0628 184.477 53.6283 184.547 52.6505C184.617 51.7636 185.013 51.468 185.013 50.9449C185.013 50.2172 183.173 49.2166 182.219 49.2166C181.73 49.2166 181.101 49.4213 180.589 49.6259V50.0353C181.101 50.1717 181.543 50.3309 181.893 50.5128Z" fill="#EA5A65"/>
<path d="M381 47L369 53.9282L369 40.0718L381 47Z" fill="#EA6A74"/>
<defs>
<filter id="filter0_d" x="0" y="0" width="411" height="102" filterUnits="userSpaceOnUse" color-interpolation-filters="sRGB">
<feFlood flood-opacity="0" result="BackgroundImageFix"/>
<feColorMatrix in="SourceAlpha" type="matrix" values="0 0 0 0 0 0 0 0 0 0 0 0 0 0 0 0 0 0 127 0"/>
<feOffset dy="4"/>
<feGaussianBlur stdDeviation="9"/>
<feColorMatrix type="matrix" values="0 0 0 0 0.395833 0 0 0 0 0.105556 0 0 0 0 0.105556 0 0 0 0.15 0"/>
<feBlend mode="normal" in2="BackgroundImageFix" result="effect1_dropShadow"/>
<feBlend mode="normal" in="SourceGraphic" in2="effect1_dropShadow" result="shape"/>
</filter>
<linearGradient id="paint0_linear" x1="205.5" y1="14" x2="205.5" y2="80" gradientUnits="userSpaceOnUse">
<stop stop-color="#FFD5D1"/>
<stop offset="1" stop-color="#FFEFEA"/>
</linearGradient>
</defs>
</svg>
