<svg width="375" height="66" viewBox="0 0 375 66" fill="none" xmlns="http://www.w3.org/2000/svg">
<g clip-path="url(#clip0)">
<g filter="url(#filter0_d)">
<rect width="375" height="66" fill="#EA6A74"/>
</g>
<path d="M363 33L351 39.9282L351 26.0718L363 33Z" fill="#EA6A74"/>
<path d="M44.332 9.188C45.233 10.004 45.539 10.667 46.355 10.667C46.831 10.667 47.188 10.225 47.188 9.766C47.188 8.678 46.185 8.117 45.012 7.794C43.975 7.556 43.176 7.505 42.615 7.488L42.513 7.794C43.057 8.117 43.669 8.593 44.332 9.188ZM42.666 18.096C42.003 18.096 41.442 17.433 41.068 17.042L40.847 17.161C40.864 17.62 40.983 18.419 41.272 18.861C41.765 19.626 42.904 20.391 43.635 20.391C44.213 20.391 44.434 19.83 44.995 19.507C48.701 17.314 52.543 13.829 54.243 10.378L53.937 10.174C51.047 13.693 44.621 18.096 42.666 18.096ZM42.275 12.894C43.074 13.591 43.397 14.339 44.213 14.339C44.91 14.339 45.114 13.812 45.114 13.404C45.114 12.367 43.941 11.687 42.734 11.398C41.833 11.177 41.153 11.109 40.456 11.058L40.354 11.347C40.881 11.653 41.493 12.146 42.275 12.894ZM60.38 12.265C60.329 12.673 60.278 13.166 60.431 13.557C60.737 14.39 61.791 15.495 62.454 15.495C63.1 15.495 63.355 15.087 64.579 14.968C65.888 14.815 69.696 14.577 70.988 14.577C72.178 14.577 72.773 14.628 73.453 14.628C74.167 14.628 74.575 14.39 74.575 13.897C74.575 13.166 73.691 12.639 72.671 12.639C72.263 12.639 71.498 12.775 70.359 12.877C69.322 12.962 64.188 13.302 62.369 13.302C61.468 13.302 61.179 12.843 60.669 12.163L60.38 12.265ZM86.466 8.491C87.265 8.678 87.724 8.967 87.758 9.443C87.86 11.092 87.792 15.427 87.707 16.26C87.639 16.94 87.418 17.161 87.418 17.552C87.418 18.045 88.421 19.303 89.05 19.303C89.526 19.303 89.849 18.725 90.24 18.47C92.348 17.025 94.745 14.883 96.173 12.52L95.901 12.299C93.98 14.05 91.651 15.665 89.764 16.447C89.509 16.549 89.373 16.464 89.373 16.192C89.356 14.985 89.475 11.398 89.611 10.412C89.696 9.783 90.121 9.698 90.121 9.239C90.121 8.678 88.744 7.828 87.826 7.828C87.35 7.828 86.993 7.913 86.449 8.202L86.466 8.491ZM84.018 11.534C84.018 13.982 82.369 17.62 79.785 19.949L80.006 20.204C83.559 18.385 85.412 15.444 85.99 12.554C86.075 12.129 86.432 11.806 86.432 11.381C86.432 10.684 84.902 9.851 84.12 9.834C83.61 9.834 83.185 9.987 82.811 10.123V10.412C83.389 10.667 84.018 10.99 84.018 11.534ZM103.126 9.426C103.245 9.885 103.466 10.344 103.738 10.769C104.061 11.262 104.605 11.704 105.081 11.704C105.574 11.704 106.305 11.534 107.41 11.364C107.648 11.789 107.784 12.299 107.784 13.047C107.784 13.948 107.733 15.325 107.682 16.413C105.693 16.583 103.772 16.753 103.007 16.753C102.344 16.753 101.834 16.447 101.341 15.988L101.12 16.09C101.12 16.634 101.171 16.923 101.307 17.229C101.528 17.756 102.514 18.776 103.194 18.776C103.653 18.776 104.282 18.453 105.098 18.232C106.56 17.841 109.11 17.535 110.827 17.569C113.173 17.603 114.856 18.181 115.519 18.181C115.995 18.181 116.318 17.824 116.318 17.365C116.318 16.668 114.635 15.682 113.734 15.682C113.462 15.682 113.241 15.903 112.272 16.005C111.541 16.056 110.521 16.141 109.416 16.243C109.501 15.155 109.62 14.084 109.739 13.37C109.824 12.894 110.113 12.52 110.113 12.18C110.113 11.806 109.62 11.449 108.991 11.16C110.929 10.939 112.425 10.871 113.088 10.803C113.7 10.752 113.938 10.395 113.938 9.987C113.938 9.426 112.493 8.797 111.541 8.797C111.15 8.797 111.099 9.324 108.872 9.698C107.563 9.902 106.118 10.072 105.2 10.072C104.503 10.072 103.908 9.749 103.33 9.307L103.126 9.426ZM129.255 9.545C129.476 9.222 129.697 8.916 129.884 8.593C130.173 8.151 130.394 8.083 130.394 7.709C130.394 7.284 129.085 6.57 127.963 6.519C127.402 6.485 127.096 6.553 126.773 6.621L126.722 6.859C127.266 7.148 127.674 7.556 127.674 7.879C127.674 8.967 125.447 12.333 122.693 14.594L122.914 14.9C125.107 13.948 127.079 12.265 128.558 10.463C128.864 10.701 129.136 10.871 129.34 10.871C129.663 10.871 129.935 10.769 130.292 10.65C130.785 10.497 132.009 10.225 132.366 10.225C132.57 10.225 132.655 10.31 132.57 10.548C131.142 14.101 127.198 18.402 122.88 20.714L123.084 21.037C128.643 19.099 132.145 15.648 134.644 11.313C134.95 10.803 135.613 10.633 135.613 10.157C135.613 9.46 133.879 8.559 133.369 8.559C132.995 8.559 132.706 8.967 132.281 9.103C131.805 9.273 129.85 9.545 129.255 9.545ZM144.882 8.423C144.865 8.882 144.899 9.324 145.018 9.664C145.222 10.293 146.021 11.279 146.769 11.279C147.245 11.279 147.449 10.871 148.01 10.684C148.86 10.395 151.036 9.749 151.716 9.681C151.903 9.681 152.005 9.749 151.903 10.004C150.526 13.319 146.344 17.654 142.349 19.728L142.536 20.085C146.667 18.81 149.302 16.447 150.866 14.849C152.447 15.903 153.11 17.11 153.892 18.402C154.47 19.303 154.912 19.813 155.575 19.813C156.255 19.813 156.629 19.235 156.629 18.708C156.629 16.838 154.13 15.223 151.342 14.356C152.447 13.132 153.331 11.67 153.909 10.82C154.113 10.531 154.895 10.276 154.895 9.783C154.895 9.239 153.365 7.93 152.634 7.93C152.277 7.93 151.988 8.423 151.563 8.525C150.747 8.729 147.772 9.29 146.599 9.29C146.021 9.29 145.545 8.797 145.171 8.304L144.882 8.423ZM166.123 7.573C166.735 8.78 167.279 9.409 168.35 9.409C169.778 9.409 172.515 8.95 173.875 8.644C174.419 8.525 174.572 8.304 174.572 7.964C174.572 7.284 173.858 6.927 172.736 6.927C172.498 6.927 172.243 7.165 171.41 7.386C170.696 7.573 169.387 7.913 168.146 7.913C167.585 7.913 166.99 7.845 166.293 7.42L166.123 7.573ZM163.726 11.194C163.692 11.602 163.709 12.01 163.828 12.316C164.032 12.894 164.882 13.71 165.46 13.71C165.953 13.693 166.565 13.404 167.143 13.217C167.687 13.047 168.911 12.775 170.05 12.605C170.152 12.792 170.186 12.996 170.186 13.183C170.186 14.509 168.894 18.266 165.188 20.799L165.443 21.105C169.268 19.473 170.968 16.906 171.818 14.968C172.209 14.135 172.634 13.948 172.634 13.523C172.634 13.149 172.226 12.792 171.614 12.418C172.77 12.299 173.858 12.248 174.606 12.248C175.575 12.248 176.442 12.435 176.816 12.435C177.275 12.435 177.53 12.299 177.53 11.738C177.53 11.058 176.391 10.497 175.32 10.497C175.15 10.497 174.793 10.701 173.637 10.837C171.342 11.092 166.361 11.84 165.205 11.84C164.678 11.84 164.372 11.517 163.93 11.109L163.726 11.194Z" fill="#FFDAD6"/>
<g clip-path="url(#clip1)">
<path d="M207.475 -4.07575L201.227 3.92172L181.554 -11.1418L176.086 -4.14398L195.76 10.9195L189.512 18.917L209.99 16.4024L207.475 -4.07575Z" fill="#FFDAD6" fill-opacity="0.37"/>
</g>
<path d="M29.9649 46.5762L24.563 53.4903L7.55429 40.4673L2.82765 46.5172L19.8364 59.5403L14.4345 66.4544L32.1388 64.2805L29.9649 46.5762Z" fill="#FFDAD6" fill-opacity="0.37"/>
<path d="M27.3203 -0.408004L23.2275 4.83057L10.3408 -5.03644L6.75959 -0.452696L19.6464 9.41432L15.5536 14.6529L28.9674 13.0058L27.3203 -0.408004Z" fill="#FFDAD6" fill-opacity="0.37"/>
<g clip-path="url(#clip2)">
<path d="M248.043 -0.822641L244.149 4.16171L231.888 -5.22647L228.48 -0.865164L240.742 8.52302L236.847 13.5074L249.61 11.9402L248.043 -0.822641Z" fill="#FFDAD6" fill-opacity="0.37"/>
</g>
<g clip-path="url(#clip3)">
<path d="M253.965 41.7305L248.563 48.6446L231.554 35.6216L226.828 41.6715L243.836 54.6946L238.435 61.6087L256.139 59.4348L253.965 41.7305Z" fill="#FFDAD6" fill-opacity="0.37"/>
</g>
<g clip-path="url(#clip4)">
<path d="M307.965 9.73047L302.563 16.6446L285.554 3.62157L280.828 9.67148L297.836 22.6946L292.435 29.6087L310.139 27.4348L307.965 9.73047Z" fill="#FFDAD6" fill-opacity="0.37"/>
</g>
<path d="M326.965 43.7305L321.563 50.6446L304.554 37.6216L299.828 43.6715L316.836 56.6946L311.435 63.6087L329.139 61.4348L326.965 43.7305Z" fill="#FFDAD6" fill-opacity="0.37"/>
<g clip-path="url(#clip5)">
<path d="M363.965 -4.26953L358.563 2.64465L341.554 -10.3784L336.828 -4.32852L353.836 8.69455L348.435 15.6087L366.139 13.4348L363.965 -4.26953Z" fill="#FFDAD6" fill-opacity="0.37"/>
</g>
<g clip-path="url(#clip6)">
<path d="M372.965 40.7305L367.563 47.6446L350.554 34.6216L345.828 40.6715L362.836 53.6946L357.435 60.6087L375.139 58.4348L372.965 40.7305Z" fill="#FFDAD6" fill-opacity="0.37"/>
</g>
<path d="M70.3078 36.6968C70.8553 36.6968 71.2854 36.5032 71.4027 36.0774C69.6822 34.5677 66.7888 32.4 66.7888 32.4L64.2472 35.5742H54.3548C54.6285 32.4387 54.6676 29.1484 54.7458 25.7806C55.6842 25.6258 56.0361 25.2387 56.1534 24.6581L50.6011 24.1161C50.6011 28.1032 50.6402 31.9355 50.3274 35.5742H35.391L35.7429 36.6968H50.2492C49.3499 45.4452 46.1437 53.071 35 59.3806L35.4301 60C49.2717 54.3484 53.0254 46.4129 54.1593 37.2387C55.2541 44.9419 58.304 54.3484 68.1573 60C68.5874 57.9097 69.7995 56.8645 71.7546 56.5161L71.8328 56.0903C60.5718 51.3677 56.1925 43.9355 54.824 36.6968H70.3078Z" fill="#FFDAD6"/>
<path d="M108.689 28.1806C109.237 28.1806 109.628 27.9871 109.745 27.5613C108.298 26.2065 105.913 24.3097 105.913 24.3097L103.763 27.0581H88.4744L88.7872 28.1806H108.689ZM94.183 38.3226V32.7871H102.863V38.3226H94.183ZM103.528 41.1484C105.366 41.1484 106.578 40.4903 106.578 40.3355V32.9806C107.399 32.8645 107.79 32.6323 108.025 32.3226L104.506 29.729L102.746 31.7032H94.6132L90.664 30.1548V41.6129H91.2896C93.0882 41.6129 94.183 40.9548 94.183 40.7226V39.4452H102.863V41.1484H103.528ZM82.2183 31.9355H84.3688V47.4968C84.3688 47.9226 84.2515 48.0774 83.8605 48.0774C83.5086 48.0774 82.492 48 82.2183 47.9613V31.9355ZM85.4245 29.1097L83.9778 30.8516H82.5311V25.7419C83.5086 25.5871 83.8605 25.2 83.8996 24.6581L78.9729 24.1935V30.8516H77.4871L74.359 29.4194V52.2968H74.7891C76.1186 52.2968 77.2916 51.5613 77.2916 51.2516V31.9355H79.2466V59.8839H79.7158C81.0061 59.8839 82.1792 59.1484 82.2183 58.9161V48.5419C83.0003 48.7355 83.3913 49.0065 83.6259 49.471C83.8996 49.9355 83.9778 50.7484 83.9778 51.6387C86.9103 51.329 87.2622 50.0903 87.2622 47.8452V32.5161C88.0834 32.3613 88.6699 32.0129 88.9436 31.7419L85.4245 29.1097ZM100.126 56.3226V50.9032H104.779V56.3226H100.126ZM92.3844 50.9032H96.9983V56.3226H92.3844V50.9032ZM96.9983 44.5935V49.7806H92.3844V44.5935H96.9983ZM104.779 44.5935V49.7806H100.126V44.5935H104.779ZM106.382 41.4581L104.623 43.471H92.8536L88.9436 41.9613V59.9613H89.5692C91.3287 59.9613 92.3844 59.3032 92.3844 59.0323V57.4064H104.779V59.7677H105.366C107.164 59.7677 108.377 59.1097 108.377 58.8774V44.8258C109.237 44.7097 109.628 44.4774 109.862 44.129L106.382 41.4581Z" fill="#FFDAD6"/>
<path d="M140.776 35.1484V39.6H132.486V35.1484H140.776ZM132.486 50.8258V46.2194H140.776V50.8258H132.486ZM132.486 40.7226H140.776V45.0968H132.486V40.7226ZM123.415 29.1484L123.728 30.271H134.05C133.972 31.6645 133.933 32.9419 133.855 34.0258H132.956L129.006 32.4774V54.3871H129.554C131.392 54.3871 132.486 53.729 132.486 53.4581V51.9484H140.776V53.8452H141.362C143.2 53.8452 144.49 53.071 144.49 52.8774V35.4581C145.311 35.3032 145.781 35.0323 146.054 34.7226L142.418 31.9355L140.619 34.0258H137.022C137.178 32.9419 137.374 31.6258 137.53 30.271H147.149C147.697 30.271 148.127 30.0774 148.205 29.6516C146.68 28.2581 144.138 26.3226 144.138 26.3226L141.871 29.1484H137.687C137.843 27.871 138 26.671 138.117 25.6258C138.977 25.471 139.446 25.0452 139.524 24.4645L134.324 24C134.285 25.5871 134.207 27.3677 134.129 29.1484H123.415ZM118.762 24.0387C117.081 31.4323 113.874 39.1355 110.864 43.9742L111.372 44.3226C112.858 42.9677 114.265 41.3806 115.595 39.6387V59.9613H116.26C117.706 59.9613 119.153 59.1484 119.192 58.8774V36C119.935 35.8839 120.287 35.6129 120.404 35.2645L118.84 34.6839C120.287 32.129 121.577 29.3806 122.672 26.4387C123.532 26.4387 124.002 26.1677 124.158 25.7032L118.762 24.0387ZM141.988 56.4387H126.074V35.4194C127.012 35.2645 127.325 34.9161 127.442 34.3742L122.633 33.9097V59.8839H123.298C124.549 59.8839 126.074 59.1484 126.074 58.7613V57.5613H147.345C147.892 57.5613 148.322 57.3677 148.4 56.9419C146.836 55.5097 144.256 53.5742 144.256 53.5742L141.988 56.4387Z" fill="#FFDAD6"/>
<path d="M177.813 27.7161H148.604L148.917 28.8387H164.049V59.9613H164.753C166.708 59.9613 167.959 59.1097 167.959 58.8V35.9613C171.126 38.0129 174.919 41.1484 176.6 43.8194C180.98 45.6387 182.192 37.3161 167.959 35.071V28.8387H183.834C184.421 28.8387 184.851 28.6452 184.968 28.2194C183.208 26.7097 180.315 24.5419 180.315 24.5419L177.813 27.7161Z" fill="#FFDAD6"/>
<path d="M212.043 27.0581C213.646 28.529 214.428 29.8452 215.053 30.8516C215.64 31.8194 215.992 32.5935 216.618 32.5935C217.321 32.6323 217.791 32.2065 217.83 31.5097C217.869 30.7355 217.634 30.1548 216.852 29.2645C215.875 28.1419 214.428 27.329 212.551 26.5161L212.043 27.0581ZM194.838 41.8452C193.822 44.3226 192.18 48.1548 191.319 49.471C191.007 50.0129 190.655 50.0129 190.342 49.4323C189.951 48.6581 189.677 47.4194 189.677 45.7935C189.677 42.6194 191.046 39.2516 192.375 36.6581C193.079 35.3419 193.665 34.3355 193.665 33.329C193.665 31.3548 191.632 29.3032 190.577 28.6065C189.755 28.1032 189.052 27.7548 187.918 27.4065L187.448 27.9097C188.661 29.2258 189.638 30.6581 189.638 32.3226C189.638 35.8452 187.214 41.1871 187.214 46.3742C187.214 51.0194 188.426 53.9613 189.482 55.7032C190.146 56.8645 190.968 57.6 191.945 57.6C193.001 57.6 193.626 57.0194 193.626 56.0129C193.626 54.6194 192.962 53.6903 192.962 52.3742C192.962 51.4065 193.118 50.6323 193.353 49.7806C193.744 48.2323 194.838 44.7484 195.699 42.1935L194.838 41.8452ZM204.614 28.9935C205.591 29.1871 206.569 29.3419 207.312 29.729C207.82 29.9226 208.054 30.2323 208.172 31.0839C208.289 32.2065 208.406 34.3355 208.524 36.3484C206.999 36.6581 205.474 36.8903 204.184 36.8903C202.111 36.8903 200.352 36.2323 198.201 34.8774L197.732 35.3806C199.648 39.0581 202.228 39.7935 204.614 39.7935C205.943 39.7935 207.312 39.6774 208.68 39.4839C208.836 43.0839 208.954 47.4581 207.898 50.5161C206.608 54.8516 204.066 57.1355 200.273 59.1871L200.625 59.8839C205.474 58.4903 209.267 56.5548 211.065 52.1419C212.512 48.7355 212.16 42.9677 211.925 38.8645C213.998 38.3613 215.757 37.7806 216.813 37.3161C217.869 36.8516 218.221 36.3484 218.221 35.6129C218.221 34.5677 216.852 33.9097 215.64 33.9097C215.366 33.9097 214.975 34.2581 213.568 34.8387C213.059 35.071 212.434 35.2645 211.769 35.4968C211.73 34.2581 211.73 33.0968 211.769 32.2839C211.808 30.929 212.356 30.271 212.356 29.6516C212.356 28.4129 209.618 27.2129 207.898 27.2129C206.999 27.2129 205.591 27.7161 204.535 28.2968L204.614 28.9935ZM215.053 24.7355C216.774 26.1677 217.517 27.2903 218.142 28.1806C218.807 29.1097 219.237 29.9226 219.863 29.9226C220.606 29.9226 220.997 29.4581 220.997 28.8C221.036 27.9484 220.723 27.329 219.824 26.4774C218.846 25.5097 217.517 24.8903 215.523 24.1935L215.053 24.7355Z" fill="#FFDAD6"/>
<rect x="241" y="18" width="124" height="28" rx="14" fill="#FFDAD6"/>
<path d="M264.124 31.35L263.816 31.462H261.604L261.94 30.916C261.618 30.762 261.198 30.608 260.736 30.426C261.912 29.628 263.074 28.662 263.97 27.766L262.78 26.828L262.402 26.926H254.03V28.452H260.792C260.246 28.928 259.616 29.39 259.014 29.768C258.23 29.474 257.446 29.208 256.816 28.984L255.99 30.244C256.886 30.58 258.02 31.028 259.056 31.462H252.686V33.044H258.216V37.342C258.216 37.552 258.132 37.608 257.866 37.622C257.586 37.622 256.55 37.622 255.724 37.594C255.976 38.028 256.242 38.714 256.326 39.19C257.53 39.19 258.44 39.176 259.084 38.938C259.756 38.7 259.952 38.28 259.952 37.398V33.044H262.906C262.556 33.674 262.15 34.304 261.814 34.766L263.242 35.592C264.026 34.654 264.852 33.254 265.482 31.938L264.124 31.35ZM266.994 34.332C266.882 35.508 266.658 36.754 266.252 37.58C266.616 37.706 267.232 38 267.526 38.182C267.932 37.286 268.226 35.886 268.366 34.57L266.994 34.332ZM270.116 34.64C270.466 35.494 270.83 36.628 270.942 37.342L272.258 36.88C272.09 36.166 271.726 35.074 271.348 34.248L270.116 34.64ZM274.484 28.508C274.75 27.864 274.988 27.192 275.17 26.506L273.462 26.142C273.014 27.906 272.188 29.698 271.152 30.804L271.054 30.636L269.878 31.154C270.046 31.448 270.214 31.784 270.368 32.12L268.954 32.176C269.864 31.042 270.844 29.614 271.628 28.382L270.214 27.794C269.878 28.494 269.43 29.306 268.926 30.09C268.786 29.908 268.618 29.698 268.436 29.502C268.94 28.718 269.514 27.64 270.018 26.674L268.548 26.156C268.31 26.884 267.918 27.822 267.526 28.592C267.414 28.494 267.302 28.396 267.19 28.298L266.406 29.446C266.994 30.006 267.68 30.762 268.086 31.364C267.876 31.672 267.652 31.966 267.442 32.232L266.406 32.274L266.546 33.73L268.618 33.59V39.232H270.088V33.478L270.886 33.422C270.97 33.702 271.04 33.954 271.082 34.178L272.342 33.59C272.188 32.89 271.74 31.854 271.25 30.972C271.67 31.224 272.286 31.644 272.566 31.896C272.986 31.392 273.378 30.776 273.756 30.09H277.62C277.466 34.864 277.256 36.908 276.836 37.342C276.668 37.524 276.514 37.58 276.248 37.58C275.87 37.58 275.072 37.58 274.19 37.496C274.498 37.972 274.722 38.7 274.75 39.176C275.562 39.204 276.43 39.218 276.934 39.134C277.522 39.05 277.886 38.896 278.278 38.364C278.866 37.622 279.062 35.41 279.244 29.278C279.258 29.068 279.258 28.508 279.258 28.508H274.484ZM276.066 34.906C275.772 34.024 274.974 32.736 274.246 31.77L272.916 32.442C273.63 33.45 274.358 34.794 274.624 35.676L276.066 34.906ZM286.636 36.18C286.636 35.648 287.168 35.312 287.966 35.312C288.344 35.312 288.722 35.368 289.086 35.466C289.086 35.564 289.086 35.648 289.086 35.718C289.086 36.544 288.792 36.992 287.938 36.992C287.196 36.992 286.636 36.754 286.636 36.18ZM290.794 27.038H288.792C288.848 27.318 288.89 27.752 288.89 27.962C288.89 28.256 288.904 28.83 288.904 29.516C288.582 29.53 288.246 29.53 287.924 29.53C287.084 29.53 286.272 29.488 285.474 29.404V31.07C286.3 31.126 287.098 31.154 287.924 31.154C288.246 31.154 288.582 31.154 288.918 31.14C288.932 32.134 288.988 33.156 289.016 34.024C288.736 33.982 288.428 33.968 288.106 33.968C286.202 33.968 284.998 34.948 284.998 36.362C284.998 37.832 286.202 38.644 288.134 38.644C290.024 38.644 290.78 37.692 290.864 36.348C291.424 36.726 291.984 37.216 292.572 37.762L293.538 36.292C292.866 35.676 291.984 34.962 290.822 34.486C290.766 33.534 290.696 32.414 290.668 31.056C291.438 31 292.166 30.916 292.838 30.818V29.068C292.166 29.208 291.438 29.32 290.668 29.39C290.682 28.774 290.696 28.256 290.71 27.948C290.724 27.64 290.752 27.304 290.794 27.038ZM283.962 27.192L282.03 27.024C282.016 27.472 281.946 28.004 281.89 28.396C281.736 29.474 281.316 32.12 281.316 34.234C281.316 36.138 281.582 37.734 281.876 38.714L283.458 38.588C283.444 38.392 283.43 38.154 283.43 38.014C283.43 37.86 283.458 37.552 283.5 37.356C283.668 36.6 284.116 35.172 284.508 34.024L283.654 33.324C283.444 33.8 283.206 34.276 283.024 34.766C282.982 34.486 282.968 34.136 282.968 33.856C282.968 32.456 283.43 29.376 283.64 28.438C283.682 28.186 283.85 27.472 283.962 27.192ZM297.052 27.822V29.67C298.186 29.768 299.404 29.824 300.874 29.824C302.204 29.824 303.94 29.74 304.92 29.656V27.794C303.842 27.906 302.246 27.99 300.86 27.99C299.39 27.99 298.088 27.934 297.052 27.822ZM298.228 33.758L296.394 33.59C296.282 34.108 296.114 34.794 296.114 35.606C296.114 37.524 297.724 38.602 300.93 38.602C302.89 38.602 304.57 38.42 305.788 38.126L305.774 36.152C304.542 36.502 302.75 36.712 300.86 36.712C298.844 36.712 297.99 36.068 297.99 35.172C297.99 34.696 298.088 34.262 298.228 33.758ZM314.342 26.842L312.354 26.758C312.382 27.22 312.368 27.57 312.284 28.172C312.256 28.34 312.228 28.536 312.2 28.746C311.346 28.732 310.296 28.62 309.456 28.48V30.216C310.17 30.286 310.996 30.328 311.878 30.342C311.514 31.882 310.954 33.744 310.282 35.046L311.934 35.634C312.074 35.396 312.172 35.214 312.326 35.018C313.166 33.954 314.594 33.38 316.204 33.38C317.576 33.38 318.29 34.08 318.29 34.92C318.29 36.978 315.196 37.356 312.13 36.852L312.62 38.658C317.142 39.148 320.18 38.014 320.18 34.864C320.18 33.072 318.682 31.868 316.414 31.868C315.168 31.868 314.076 32.12 312.942 32.75C313.152 32.064 313.376 31.168 313.572 30.314C315.448 30.216 317.674 29.95 319.13 29.712L319.102 28.046C317.408 28.41 315.518 28.62 313.922 28.704C313.95 28.55 313.978 28.396 314.006 28.27C314.104 27.808 314.188 27.332 314.342 26.842ZM326.676 26.73L326.228 28.41C327.32 28.69 330.442 29.348 331.856 29.53L332.276 27.822C331.058 27.682 328.006 27.15 326.676 26.73ZM326.76 29.544L324.884 29.278C324.786 31.014 324.464 33.758 324.184 35.13L325.794 35.536C325.92 35.256 326.06 35.032 326.312 34.724C327.194 33.66 328.622 33.072 330.204 33.072C331.422 33.072 332.29 33.744 332.29 34.654C332.29 36.432 330.064 37.454 325.864 36.88L326.396 38.714C332.22 39.204 334.236 37.244 334.236 34.696C334.236 33.002 332.808 31.49 330.358 31.49C328.888 31.49 327.502 31.896 326.228 32.82C326.326 32.022 326.578 30.314 326.76 29.544Z" fill="#EA6A74"/>
<path d="M351 32L343.5 36.3301L343.5 27.6699L351 32Z" fill="#EA6A74"/>
</g>
<defs>
<filter id="filter0_d" x="-18" y="-14" width="411" height="102" filterUnits="userSpaceOnUse" color-interpolation-filters="sRGB">
<feFlood flood-opacity="0" result="BackgroundImageFix"/>
<feColorMatrix in="SourceAlpha" type="matrix" values="0 0 0 0 0 0 0 0 0 0 0 0 0 0 0 0 0 0 127 0"/>
<feOffset dy="4"/>
<feGaussianBlur stdDeviation="9"/>
<feColorMatrix type="matrix" values="0 0 0 0 0.395833 0 0 0 0 0.105556 0 0 0 0 0.105556 0 0 0 0.15 0"/>
<feBlend mode="normal" in2="BackgroundImageFix" result="effect1_dropShadow"/>
<feBlend mode="normal" in="SourceGraphic" in2="effect1_dropShadow" result="shape"/>
</filter>
<clipPath id="clip0">
<rect width="375" height="66" fill="white"/>
</clipPath>
<clipPath id="clip1">
<rect width="36.1802" height="35.7407" fill="white" transform="translate(178 -8.59058) rotate(-7.00035)"/>
</clipPath>
<clipPath id="clip2">
<rect width="22.0804" height="22.105" fill="white" transform="translate(225 -7.30884) rotate(-7.00035)"/>
</clipPath>
<clipPath id="clip3">
<rect width="30.6294" height="30.6635" fill="white" transform="translate(222 32.7329) rotate(-7.00035)"/>
</clipPath>
<clipPath id="clip4">
<rect width="30.6294" height="30.6635" fill="white" transform="translate(276 0.73291) rotate(-7.00035)"/>
</clipPath>
<clipPath id="clip5">
<rect width="30.6294" height="30.6635" fill="white" transform="translate(332 -13.2671) rotate(-7.00035)"/>
</clipPath>
<clipPath id="clip6">
<rect width="30.6294" height="30.6635" fill="white" transform="translate(341 31.7329) rotate(-7.00035)"/>
</clipPath>
</defs>
</svg>
