<svg width="260" height="231" viewBox="0 0 260 231" fill="none" xmlns="http://www.w3.org/2000/svg">
<g clip-path="url(#clip0)" filter="url(#filter0_d)">
<rect width="224" height="195" transform="translate(18 14)" fill="#EA6A74"/>
<rect x="38" y="153" width="184" height="36" rx="18" fill="#FFDAD6"/>
<path d="M100.124 170.35L99.816 170.462H97.604L97.94 169.916C97.618 169.762 97.198 169.608 96.736 169.426C97.912 168.628 99.074 167.662 99.97 166.766L98.78 165.828L98.402 165.926H90.03V167.452H96.792C96.246 167.928 95.616 168.39 95.014 168.768C94.23 168.474 93.446 168.208 92.816 167.984L91.99 169.244C92.886 169.58 94.02 170.028 95.056 170.462H88.686V172.044H94.216V176.342C94.216 176.552 94.132 176.608 93.866 176.622C93.586 176.622 92.55 176.622 91.724 176.594C91.976 177.028 92.242 177.714 92.326 178.19C93.53 178.19 94.44 178.176 95.084 177.938C95.756 177.7 95.952 177.28 95.952 176.398V172.044H98.906C98.556 172.674 98.15 173.304 97.814 173.766L99.242 174.592C100.026 173.654 100.852 172.254 101.482 170.938L100.124 170.35ZM102.994 173.332C102.882 174.508 102.658 175.754 102.252 176.58C102.616 176.706 103.232 177 103.526 177.182C103.932 176.286 104.226 174.886 104.366 173.57L102.994 173.332ZM106.116 173.64C106.466 174.494 106.83 175.628 106.942 176.342L108.258 175.88C108.09 175.166 107.726 174.074 107.348 173.248L106.116 173.64ZM110.484 167.508C110.75 166.864 110.988 166.192 111.17 165.506L109.462 165.142C109.014 166.906 108.188 168.698 107.152 169.804L107.054 169.636L105.878 170.154C106.046 170.448 106.214 170.784 106.368 171.12L104.954 171.176C105.864 170.042 106.844 168.614 107.628 167.382L106.214 166.794C105.878 167.494 105.43 168.306 104.926 169.09C104.786 168.908 104.618 168.698 104.436 168.502C104.94 167.718 105.514 166.64 106.018 165.674L104.548 165.156C104.31 165.884 103.918 166.822 103.526 167.592C103.414 167.494 103.302 167.396 103.19 167.298L102.406 168.446C102.994 169.006 103.68 169.762 104.086 170.364C103.876 170.672 103.652 170.966 103.442 171.232L102.406 171.274L102.546 172.73L104.618 172.59V178.232H106.088V172.478L106.886 172.422C106.97 172.702 107.04 172.954 107.082 173.178L108.342 172.59C108.188 171.89 107.74 170.854 107.25 169.972C107.67 170.224 108.286 170.644 108.566 170.896C108.986 170.392 109.378 169.776 109.756 169.09H113.62C113.466 173.864 113.256 175.908 112.836 176.342C112.668 176.524 112.514 176.58 112.248 176.58C111.87 176.58 111.072 176.58 110.19 176.496C110.498 176.972 110.722 177.7 110.75 178.176C111.562 178.204 112.43 178.218 112.934 178.134C113.522 178.05 113.886 177.896 114.278 177.364C114.866 176.622 115.062 174.41 115.244 168.278C115.258 168.068 115.258 167.508 115.258 167.508H110.484ZM112.066 173.906C111.772 173.024 110.974 171.736 110.246 170.77L108.916 171.442C109.63 172.45 110.358 173.794 110.624 174.676L112.066 173.906ZM122.636 175.18C122.636 174.648 123.168 174.312 123.966 174.312C124.344 174.312 124.722 174.368 125.086 174.466C125.086 174.564 125.086 174.648 125.086 174.718C125.086 175.544 124.792 175.992 123.938 175.992C123.196 175.992 122.636 175.754 122.636 175.18ZM126.794 166.038H124.792C124.848 166.318 124.89 166.752 124.89 166.962C124.89 167.256 124.904 167.83 124.904 168.516C124.582 168.53 124.246 168.53 123.924 168.53C123.084 168.53 122.272 168.488 121.474 168.404V170.07C122.3 170.126 123.098 170.154 123.924 170.154C124.246 170.154 124.582 170.154 124.918 170.14C124.932 171.134 124.988 172.156 125.016 173.024C124.736 172.982 124.428 172.968 124.106 172.968C122.202 172.968 120.998 173.948 120.998 175.362C120.998 176.832 122.202 177.644 124.134 177.644C126.024 177.644 126.78 176.692 126.864 175.348C127.424 175.726 127.984 176.216 128.572 176.762L129.538 175.292C128.866 174.676 127.984 173.962 126.822 173.486C126.766 172.534 126.696 171.414 126.668 170.056C127.438 170 128.166 169.916 128.838 169.818V168.068C128.166 168.208 127.438 168.32 126.668 168.39C126.682 167.774 126.696 167.256 126.71 166.948C126.724 166.64 126.752 166.304 126.794 166.038ZM119.962 166.192L118.03 166.024C118.016 166.472 117.946 167.004 117.89 167.396C117.736 168.474 117.316 171.12 117.316 173.234C117.316 175.138 117.582 176.734 117.876 177.714L119.458 177.588C119.444 177.392 119.43 177.154 119.43 177.014C119.43 176.86 119.458 176.552 119.5 176.356C119.668 175.6 120.116 174.172 120.508 173.024L119.654 172.324C119.444 172.8 119.206 173.276 119.024 173.766C118.982 173.486 118.968 173.136 118.968 172.856C118.968 171.456 119.43 168.376 119.64 167.438C119.682 167.186 119.85 166.472 119.962 166.192ZM133.052 166.822V168.67C134.186 168.768 135.404 168.824 136.874 168.824C138.204 168.824 139.94 168.74 140.92 168.656V166.794C139.842 166.906 138.246 166.99 136.86 166.99C135.39 166.99 134.088 166.934 133.052 166.822ZM134.228 172.758L132.394 172.59C132.282 173.108 132.114 173.794 132.114 174.606C132.114 176.524 133.724 177.602 136.93 177.602C138.89 177.602 140.57 177.42 141.788 177.126L141.774 175.152C140.542 175.502 138.75 175.712 136.86 175.712C134.844 175.712 133.99 175.068 133.99 174.172C133.99 173.696 134.088 173.262 134.228 172.758ZM150.342 165.842L148.354 165.758C148.382 166.22 148.368 166.57 148.284 167.172C148.256 167.34 148.228 167.536 148.2 167.746C147.346 167.732 146.296 167.62 145.456 167.48V169.216C146.17 169.286 146.996 169.328 147.878 169.342C147.514 170.882 146.954 172.744 146.282 174.046L147.934 174.634C148.074 174.396 148.172 174.214 148.326 174.018C149.166 172.954 150.594 172.38 152.204 172.38C153.576 172.38 154.29 173.08 154.29 173.92C154.29 175.978 151.196 176.356 148.13 175.852L148.62 177.658C153.142 178.148 156.18 177.014 156.18 173.864C156.18 172.072 154.682 170.868 152.414 170.868C151.168 170.868 150.076 171.12 148.942 171.75C149.152 171.064 149.376 170.168 149.572 169.314C151.448 169.216 153.674 168.95 155.13 168.712L155.102 167.046C153.408 167.41 151.518 167.62 149.922 167.704C149.95 167.55 149.978 167.396 150.006 167.27C150.104 166.808 150.188 166.332 150.342 165.842ZM162.676 165.73L162.228 167.41C163.32 167.69 166.442 168.348 167.856 168.53L168.276 166.822C167.058 166.682 164.006 166.15 162.676 165.73ZM162.76 168.544L160.884 168.278C160.786 170.014 160.464 172.758 160.184 174.13L161.794 174.536C161.92 174.256 162.06 174.032 162.312 173.724C163.194 172.66 164.622 172.072 166.204 172.072C167.422 172.072 168.29 172.744 168.29 173.654C168.29 175.432 166.064 176.454 161.864 175.88L162.396 177.714C168.22 178.204 170.236 176.244 170.236 173.696C170.236 172.002 168.808 170.49 166.358 170.49C164.888 170.49 163.502 170.896 162.228 171.82C162.326 171.022 162.578 169.314 162.76 168.544Z" fill="#EA6A74"/>
<path d="M59.6278 120.662C60.7258 121.058 60.9958 121.148 61.2118 121.652C61.3918 122.03 61.5898 122.84 61.8418 123.83C60.3658 124.19 58.6018 124.622 58.1698 124.622C57.7198 124.622 57.5038 124.442 57.0898 124.19L56.8918 124.298C56.9638 124.694 56.9998 124.892 57.1798 125.18C57.5398 125.738 58.4398 126.368 58.9258 126.368C59.3758 126.368 59.6998 126.116 60.2398 125.9C60.7798 125.684 61.4818 125.468 62.1838 125.27C62.3458 125.954 62.5618 126.89 62.7778 127.898C60.7618 128.438 57.9538 129.194 57.4498 129.194C57.1078 129.194 56.8378 129.068 56.3158 128.672L56.0998 128.798C56.1358 129.32 56.2258 129.698 56.4058 129.968C56.6398 130.364 57.7018 131.084 58.3858 131.066C58.8358 131.066 59.1058 130.76 59.6818 130.49C60.4918 130.112 61.8598 129.626 63.0658 129.284C63.1918 129.914 63.3178 130.508 63.4078 131.066C63.6058 132.056 63.6418 133.028 63.7318 133.37C63.8758 134.126 64.3978 134.99 65.0458 134.972C65.7118 134.954 65.9998 134.558 65.9998 134.09C65.9998 133.388 65.8018 132.884 65.5138 131.822C65.3518 131.192 65.0998 130.202 64.7938 128.834C66.8098 128.33 68.2138 128.096 70.1218 127.934C70.8418 127.88 70.9858 127.448 70.9858 127.088C70.9858 126.512 69.9238 126.08 68.8618 126.098C68.6998 126.116 68.5198 126.26 68.0878 126.422C67.2958 126.71 65.8558 127.106 64.4698 127.448C64.2898 126.674 64.1098 125.81 63.8938 124.856C64.9378 124.604 66.4138 124.298 67.4578 124.1C68.1598 123.974 68.3398 123.632 68.3398 123.2C68.3398 122.66 67.0798 122.3 66.4498 122.318C66.3058 122.318 65.8558 122.66 65.0638 122.93C64.6498 123.074 64.1998 123.2 63.5878 123.362C63.4978 122.822 63.4258 122.39 63.3898 121.994C63.3358 121.49 63.6058 121.256 63.5338 120.806C63.4618 120.32 62.0578 119.78 61.3198 119.78C60.9238 119.78 60.1678 120.086 59.6098 120.392L59.6278 120.662ZM80.1298 124.208C80.6878 124.388 81.1558 124.64 81.3358 124.982C81.5338 125.378 81.7858 126.242 82.0378 127.124C80.8678 127.394 79.6258 127.7 79.1578 127.7C78.6538 127.7 78.4378 127.466 78.1138 127.214L77.9698 127.268C77.9338 127.628 77.9338 128.06 78.0238 128.312C78.2218 128.798 78.9598 129.5 79.5718 129.5C79.9498 129.5 80.2198 129.104 80.8858 128.816C81.1918 128.69 81.7498 128.456 82.3258 128.276C82.7938 130.112 83.1898 132.398 83.2978 133.55C83.3518 134.396 83.8918 135.062 84.6838 135.062C85.2418 135.062 85.4938 134.774 85.4938 134.198C85.4938 133.766 85.2418 133.064 85.1158 132.668C84.8278 131.678 84.2878 129.68 83.8198 127.826C85.0618 127.448 86.3398 127.052 86.8978 126.926C87.0958 126.89 87.1678 126.926 87.0958 127.106C86.8438 127.772 86.1958 129.086 85.4578 130.13L85.6378 130.274C87.0418 129.518 88.1938 128.42 88.8958 127.808C89.1478 127.592 89.8318 127.574 89.8318 127.178C89.8318 126.476 88.4998 125.36 87.8338 125.36C87.5998 125.36 87.2758 125.684 86.9338 125.81C86.4838 125.936 84.8458 126.404 83.6038 126.728C83.5138 126.26 83.4598 125.81 83.4418 125.576C83.4058 125.198 83.5318 124.766 83.5318 124.424C83.5318 123.938 82.1638 123.632 81.5338 123.632C80.9218 123.632 80.5438 123.83 80.1118 124.028L80.1298 124.208ZM98.2198 121.616C99.9478 122.93 100.398 123.596 101.244 124.784C101.694 125.414 102.072 125.738 102.648 125.738C103.35 125.738 103.818 125.18 103.818 124.532C103.818 122.678 100.866 121.616 98.3818 121.328L98.2198 121.616ZM100.182 131.48C99.5338 131.48 98.9038 130.796 98.4718 130.364L98.2198 130.526C98.2198 131.048 98.3998 131.75 98.6158 132.164C98.9758 132.884 100.236 133.946 101.262 133.946C101.784 133.946 102.018 133.352 102.594 132.992C106.77 130.436 110.046 127.268 112.08 123.326L111.756 123.11C109.164 126.584 102.126 131.48 100.182 131.48ZM129.09 125.504C130.278 125.504 131.232 124.55 131.232 123.38C131.232 122.192 130.278 121.238 129.09 121.238C127.92 121.238 126.966 122.192 126.966 123.38C126.966 124.55 127.92 125.504 129.09 125.504ZM129.09 121.976C129.864 121.976 130.494 122.606 130.494 123.38C130.494 124.154 129.864 124.766 129.09 124.766C128.316 124.766 127.704 124.154 127.704 123.38C127.704 122.606 128.316 121.976 129.09 121.976ZM116.634 129.032C117.102 129.698 117.966 130.256 118.686 130.256C119.334 130.256 119.622 129.734 120 129.14C120.558 128.258 121.8 126.368 122.376 125.63C122.646 125.288 122.826 125.162 123.006 125.162C123.204 125.162 123.456 125.288 123.798 125.648C124.824 126.656 127.632 129.788 128.694 130.958C130.098 132.434 131.016 133.136 131.7 133.136C132.24 133.136 132.582 132.74 132.582 132.146C132.582 131.408 132.186 130.634 131.502 130.202C129.738 129.014 127.182 126.674 124.716 124.388C124.086 123.794 123.546 123.524 122.934 123.524C122.412 123.524 121.998 123.83 121.53 124.316C120.99 124.874 119.442 126.674 118.524 127.466C118.074 127.844 117.768 128.006 117.516 128.006C117.282 128.006 116.85 127.826 116.49 127.502L116.274 127.664C116.292 128.258 116.382 128.672 116.634 129.032ZM137.316 125.81C137.262 126.242 137.208 126.764 137.37 127.178C137.694 128.06 138.81 129.23 139.512 129.23C140.196 129.23 140.466 128.798 141.762 128.672C143.148 128.51 147.18 128.258 148.548 128.258C149.808 128.258 150.438 128.312 151.158 128.312C151.914 128.312 152.346 128.06 152.346 127.538C152.346 126.764 151.41 126.206 150.33 126.206C149.898 126.206 149.088 126.35 147.882 126.458C146.784 126.548 141.348 126.908 139.422 126.908C138.468 126.908 138.162 126.422 137.622 125.702L137.316 125.81ZM158.888 121.616C160.616 122.93 161.066 123.596 161.912 124.784C162.362 125.414 162.74 125.738 163.316 125.738C164.018 125.738 164.486 125.18 164.486 124.532C164.486 122.678 161.534 121.616 159.05 121.328L158.888 121.616ZM160.85 131.48C160.202 131.48 159.572 130.796 159.14 130.364L158.888 130.526C158.888 131.048 159.068 131.75 159.284 132.164C159.644 132.884 160.904 133.946 161.93 133.946C162.452 133.946 162.686 133.352 163.262 132.992C167.438 130.436 170.714 127.268 172.748 123.326L172.424 123.11C169.832 126.584 162.794 131.48 160.85 131.48ZM186.212 128.006V123.2H190.262V128.006H186.212ZM179.948 128.006V123.2H183.962V128.006H179.948ZM191.108 121.562L190.1 122.678H186.212V119.528C186.698 119.456 186.842 119.258 186.878 119.006L183.962 118.736V122.678H180.11L177.716 121.742V130.31H178.04C178.958 130.31 179.948 129.806 179.948 129.59V128.528H183.962V135.602H184.376C185.24 135.602 186.212 135.062 186.212 134.828V128.528H190.262V130.04H190.64C191.378 130.04 192.494 129.644 192.512 129.5V123.578C192.89 123.506 193.124 123.326 193.25 123.182L191.108 121.562ZM202.556 134.252C203.402 134.252 204.032 133.604 204.032 132.812C204.032 132.038 203.402 131.39 202.556 131.39C201.728 131.39 201.116 132.038 201.116 132.812C201.116 133.604 201.728 134.252 202.556 134.252ZM202.574 120.176C201.764 120.176 201.17 120.698 201.17 121.796C201.17 122.696 201.332 124.172 201.908 127.394L202.286 129.824H202.862L203.24 127.394C203.816 124.172 203.96 122.696 203.96 121.796C203.96 120.698 203.384 120.176 202.574 120.176Z" fill="#FFDAD6"/>
<path d="M63.272 45.188C64.173 46.004 64.479 46.667 65.295 46.667C65.771 46.667 66.128 46.225 66.128 45.766C66.128 44.678 65.125 44.117 63.952 43.794C62.915 43.556 62.116 43.505 61.555 43.488L61.453 43.794C61.997 44.117 62.609 44.593 63.272 45.188ZM61.606 54.096C60.943 54.096 60.382 53.433 60.008 53.042L59.787 53.161C59.804 53.62 59.923 54.419 60.212 54.861C60.705 55.626 61.844 56.391 62.575 56.391C63.153 56.391 63.374 55.83 63.935 55.507C67.641 53.314 71.483 49.829 73.183 46.378L72.877 46.174C69.987 49.693 63.561 54.096 61.606 54.096ZM61.215 48.894C62.014 49.591 62.337 50.339 63.153 50.339C63.85 50.339 64.054 49.812 64.054 49.404C64.054 48.367 62.881 47.687 61.674 47.398C60.773 47.177 60.093 47.109 59.396 47.058L59.294 47.347C59.821 47.653 60.433 48.146 61.215 48.894ZM80.34 48.265C80.289 48.673 80.238 49.166 80.391 49.557C80.697 50.39 81.751 51.495 82.414 51.495C83.06 51.495 83.315 51.087 84.539 50.968C85.848 50.815 89.656 50.577 90.948 50.577C92.138 50.577 92.733 50.628 93.413 50.628C94.127 50.628 94.535 50.39 94.535 49.897C94.535 49.166 93.651 48.639 92.631 48.639C92.223 48.639 91.458 48.775 90.319 48.877C89.282 48.962 84.148 49.302 82.329 49.302C81.428 49.302 81.139 48.843 80.629 48.163L80.34 48.265ZM107.446 44.491C108.245 44.678 108.704 44.967 108.738 45.443C108.84 47.092 108.772 51.427 108.687 52.26C108.619 52.94 108.398 53.161 108.398 53.552C108.398 54.045 109.401 55.303 110.03 55.303C110.506 55.303 110.829 54.725 111.22 54.47C113.328 53.025 115.725 50.883 117.153 48.52L116.881 48.299C114.96 50.05 112.631 51.665 110.744 52.447C110.489 52.549 110.353 52.464 110.353 52.192C110.336 50.985 110.455 47.398 110.591 46.412C110.676 45.783 111.101 45.698 111.101 45.239C111.101 44.678 109.724 43.828 108.806 43.828C108.33 43.828 107.973 43.913 107.429 44.202L107.446 44.491ZM104.998 47.534C104.998 49.982 103.349 53.62 100.765 55.949L100.986 56.204C104.539 54.385 106.392 51.444 106.97 48.554C107.055 48.129 107.412 47.806 107.412 47.381C107.412 46.684 105.882 45.851 105.1 45.834C104.59 45.834 104.165 45.987 103.791 46.123V46.412C104.369 46.667 104.998 46.99 104.998 47.534ZM125.126 45.426C125.245 45.885 125.466 46.344 125.738 46.769C126.061 47.262 126.605 47.704 127.081 47.704C127.574 47.704 128.305 47.534 129.41 47.364C129.648 47.789 129.784 48.299 129.784 49.047C129.784 49.948 129.733 51.325 129.682 52.413C127.693 52.583 125.772 52.753 125.007 52.753C124.344 52.753 123.834 52.447 123.341 51.988L123.12 52.09C123.12 52.634 123.171 52.923 123.307 53.229C123.528 53.756 124.514 54.776 125.194 54.776C125.653 54.776 126.282 54.453 127.098 54.232C128.56 53.841 131.11 53.535 132.827 53.569C135.173 53.603 136.856 54.181 137.519 54.181C137.995 54.181 138.318 53.824 138.318 53.365C138.318 52.668 136.635 51.682 135.734 51.682C135.462 51.682 135.241 51.903 134.272 52.005C133.541 52.056 132.521 52.141 131.416 52.243C131.501 51.155 131.62 50.084 131.739 49.37C131.824 48.894 132.113 48.52 132.113 48.18C132.113 47.806 131.62 47.449 130.991 47.16C132.929 46.939 134.425 46.871 135.088 46.803C135.7 46.752 135.938 46.395 135.938 45.987C135.938 45.426 134.493 44.797 133.541 44.797C133.15 44.797 133.099 45.324 130.872 45.698C129.563 45.902 128.118 46.072 127.2 46.072C126.503 46.072 125.908 45.749 125.33 45.307L125.126 45.426ZM152.275 45.545C152.496 45.222 152.717 44.916 152.904 44.593C153.193 44.151 153.414 44.083 153.414 43.709C153.414 43.284 152.105 42.57 150.983 42.519C150.422 42.485 150.116 42.553 149.793 42.621L149.742 42.859C150.286 43.148 150.694 43.556 150.694 43.879C150.694 44.967 148.467 48.333 145.713 50.594L145.934 50.9C148.127 49.948 150.099 48.265 151.578 46.463C151.884 46.701 152.156 46.871 152.36 46.871C152.683 46.871 152.955 46.769 153.312 46.65C153.805 46.497 155.029 46.225 155.386 46.225C155.59 46.225 155.675 46.31 155.59 46.548C154.162 50.101 150.218 54.402 145.9 56.714L146.104 57.037C151.663 55.099 155.165 51.648 157.664 47.313C157.97 46.803 158.633 46.633 158.633 46.157C158.633 45.46 156.899 44.559 156.389 44.559C156.015 44.559 155.726 44.967 155.301 45.103C154.825 45.273 152.87 45.545 152.275 45.545ZM168.922 44.423C168.905 44.882 168.939 45.324 169.058 45.664C169.262 46.293 170.061 47.279 170.809 47.279C171.285 47.279 171.489 46.871 172.05 46.684C172.9 46.395 175.076 45.749 175.756 45.681C175.943 45.681 176.045 45.749 175.943 46.004C174.566 49.319 170.384 53.654 166.389 55.728L166.576 56.085C170.707 54.81 173.342 52.447 174.906 50.849C176.487 51.903 177.15 53.11 177.932 54.402C178.51 55.303 178.952 55.813 179.615 55.813C180.295 55.813 180.669 55.235 180.669 54.708C180.669 52.838 178.17 51.223 175.382 50.356C176.487 49.132 177.371 47.67 177.949 46.82C178.153 46.531 178.935 46.276 178.935 45.783C178.935 45.239 177.405 43.93 176.674 43.93C176.317 43.93 176.028 44.423 175.603 44.525C174.787 44.729 171.812 45.29 170.639 45.29C170.061 45.29 169.585 44.797 169.211 44.304L168.922 44.423ZM191.183 43.573C191.795 44.78 192.339 45.409 193.41 45.409C194.838 45.409 197.575 44.95 198.935 44.644C199.479 44.525 199.632 44.304 199.632 43.964C199.632 43.284 198.918 42.927 197.796 42.927C197.558 42.927 197.303 43.165 196.47 43.386C195.756 43.573 194.447 43.913 193.206 43.913C192.645 43.913 192.05 43.845 191.353 43.42L191.183 43.573ZM188.786 47.194C188.752 47.602 188.769 48.01 188.888 48.316C189.092 48.894 189.942 49.71 190.52 49.71C191.013 49.693 191.625 49.404 192.203 49.217C192.747 49.047 193.971 48.775 195.11 48.605C195.212 48.792 195.246 48.996 195.246 49.183C195.246 50.509 193.954 54.266 190.248 56.799L190.503 57.105C194.328 55.473 196.028 52.906 196.878 50.968C197.269 50.135 197.694 49.948 197.694 49.523C197.694 49.149 197.286 48.792 196.674 48.418C197.83 48.299 198.918 48.248 199.666 48.248C200.635 48.248 201.502 48.435 201.876 48.435C202.335 48.435 202.59 48.299 202.59 47.738C202.59 47.058 201.451 46.497 200.38 46.497C200.21 46.497 199.853 46.701 198.697 46.837C196.402 47.092 191.421 47.84 190.265 47.84C189.738 47.84 189.432 47.517 188.99 47.109L188.786 47.194Z" fill="#FFDAD6"/>
<g clip-path="url(#clip1)">
<path d="M41.0071 39.9732L34.0102 48.9289L14.9793 34.0605L8.85699 41.8968L27.8879 56.7652L20.891 65.7209L43.823 62.9051L41.0071 39.9732Z" fill="#FFDAD6"/>
</g>
<path d="M69.7092 89.7822C70.2853 89.7217 70.7166 89.4697 70.7928 89.0071C68.8144 87.6033 65.5283 85.6343 65.5283 85.6343L63.2055 89.2673L52.7932 90.3617C52.7333 87.0205 52.4093 83.5417 52.1178 79.9769C53.0883 79.7095 53.4158 79.2619 53.4748 78.6357L47.5706 78.6777C48.0131 82.8879 48.4796 86.9303 48.5542 90.8072L32.8328 92.4596L33.3278 93.6061L48.5965 92.0013C48.6208 101.339 46.0925 109.746 35.0635 117.641L35.5849 118.248C49.5267 110.749 52.5969 101.954 52.7722 92.141C54.7794 100.154 59.0335 109.75 70.0319 114.627C70.2527 112.372 71.4125 111.135 73.4316 110.551L73.4666 110.092C61.0898 106.351 55.6555 98.9875 53.4116 91.4952L69.7092 89.7822Z" fill="#FFDAD6"/>
<path d="M109.163 76.5435C109.739 76.483 110.129 76.2353 110.205 75.7727C108.532 74.5021 105.811 72.7631 105.811 72.7631L103.852 75.9031L87.7606 77.5945L88.2144 78.7452L109.163 76.5435ZM95.0195 88.8578L94.4051 83.0125L103.542 82.0522L104.156 87.8975L95.0195 88.8578ZM105.169 90.8079C107.104 90.6046 108.306 89.7756 108.289 89.6121L107.473 81.8457C108.324 81.6322 108.71 81.3437 108.923 80.9908L104.931 78.6414L103.298 80.9207L94.7375 81.8204L90.409 80.6223L91.6807 92.7215L92.3392 92.6523C94.2323 92.4533 95.3116 91.6373 95.2858 91.3921L95.1441 90.0432L104.281 89.0829L104.47 90.8814L105.169 90.8079ZM81.7171 83.4369L83.9806 83.199L85.7077 99.631C85.7549 100.081 85.6487 100.257 85.2371 100.3C84.8667 100.339 83.7881 100.37 83.4957 100.359L81.7171 83.4369ZM84.7782 80.0983L83.4488 82.0977L81.926 82.2578L81.3589 76.8622C82.3706 76.5905 82.698 76.1428 82.6791 75.5663L77.4419 75.6208L78.1809 82.6514L76.617 82.8158L73.1656 81.6494L75.7046 105.807L76.1574 105.759C77.5566 105.612 78.7097 104.706 78.6753 104.379L76.5315 83.9819L78.5893 83.7656L81.6911 113.278L82.185 113.226C83.5431 113.083 84.6961 112.177 84.7115 111.927L83.5601 100.973C84.4047 101.09 84.8464 101.333 85.1448 101.798C85.4845 102.258 85.657 103.108 85.7558 104.048C88.8081 103.397 89.041 102.05 88.7918 99.6788L87.0905 83.492C87.9376 83.2377 88.5163 82.8049 88.7743 82.4885L84.7782 80.0983ZM103.273 107.207L102.671 101.485L107.569 100.97L108.17 106.693L103.273 107.207ZM94.5226 102.341L99.3789 101.831L99.9804 107.554L95.1241 108.064L94.5226 102.341ZM98.6787 95.1682L99.2543 100.646L94.398 101.156L93.8223 95.6786L98.6787 95.1682ZM106.869 94.3074L107.444 99.7847L102.547 100.299L101.971 94.8221L106.869 94.3074ZM108.208 90.8191L106.579 93.1393L94.1916 94.4413L89.9085 93.2797L91.9062 112.287L92.5647 112.218C94.4167 112.023 95.4549 111.211 95.4248 110.925L95.2444 109.208L108.291 107.837L108.553 110.331L109.17 110.266C111.063 110.067 112.266 109.238 112.24 108.993L110.681 94.1547C111.573 93.9369 111.959 93.6484 112.167 93.2546L108.208 90.8191Z" fill="#FFDAD6"/>
<path d="M143.708 80.3515L144.202 85.0522L135.477 85.9693L134.983 81.2685L143.708 80.3515ZM136.723 97.8232L136.212 92.959L144.937 92.042L145.448 96.9062L136.723 97.8232ZM135.602 87.1547L144.327 86.2376L144.812 90.8566L136.088 91.7736L135.602 87.1547ZM124.769 75.9363L125.223 77.0871L136.088 75.9452C136.161 77.4254 136.261 78.7786 136.299 79.9318L135.353 80.0312L131.024 78.8331L133.456 101.969L134.032 101.908C135.966 101.705 137.046 100.889 137.016 100.603L136.848 99.0086L145.573 98.0916L145.783 100.095L146.401 100.03C148.335 99.8263 149.607 98.8661 149.586 98.6617L147.652 80.2676C148.5 80.0132 148.963 79.6752 149.217 79.3179L145.08 76.7772L143.419 79.1834L139.633 79.5814C139.677 78.4196 139.737 77.0082 139.751 75.5602L149.875 74.4961C150.452 74.4355 150.883 74.1836 150.918 73.7253C149.158 72.4225 146.268 70.6598 146.268 70.6598L144.195 73.8947L139.791 74.3575C139.814 72.9913 139.845 71.7068 139.853 70.5902C140.741 70.3316 141.188 69.83 141.206 69.2082L135.68 69.293C135.815 70.9733 135.931 72.8622 136.046 74.7511L124.769 75.9363ZM119.305 71.0555C118.356 79.0488 115.836 87.5377 113.204 92.9803L113.778 93.2919C115.191 91.6969 116.497 89.8653 117.703 87.8788L119.958 109.339L120.658 109.265C122.181 109.105 123.613 108.087 123.624 107.796L121.085 83.6385C121.854 83.4337 122.194 83.1086 122.279 82.7278L120.569 82.2877C121.808 79.4298 122.861 76.3849 123.687 73.1572C124.592 73.0621 125.056 72.724 125.169 72.2162L119.305 71.0555ZM147.347 102.699L130.597 104.46L128.264 82.2641C129.235 81.9968 129.525 81.5943 129.588 81.009L124.475 81.0506L127.358 108.478L128.057 108.405C129.374 108.266 130.898 107.321 130.855 106.912L130.721 105.645L153.11 103.292C153.686 103.231 154.117 102.979 154.152 102.521C152.347 101.182 149.416 99.4234 149.416 99.4234L147.347 102.699Z" fill="#FFDAD6"/>
<path d="M181.867 68.4061L151.124 71.6373L151.577 72.7881L167.505 71.1141L170.959 103.978L171.699 103.9C173.757 103.684 174.98 102.646 174.945 102.319L172.411 78.2027C175.972 80.0187 180.312 82.9101 182.378 85.5445C187.189 86.9812 187.541 78.0588 172.312 77.2625L171.62 70.6815L188.329 68.9253C188.946 68.8604 189.378 68.6085 189.454 68.1459C187.434 66.7464 184.148 64.7774 184.148 64.7774L181.867 68.4061Z" fill="#FFDAD6"/>
<path d="M217.823 63.9244C219.673 65.3003 220.642 66.6036 221.413 67.5971C222.137 68.5542 222.594 69.3327 223.252 69.2635C223.997 69.2265 224.444 68.725 224.408 67.9849C224.363 67.1631 224.052 66.5759 223.13 65.7223C221.976 64.645 220.363 63.9467 218.297 63.2959L217.823 63.9244ZM201.355 81.4422C200.56 84.1707 199.257 88.3991 198.498 89.884C198.229 90.4909 197.858 90.5298 197.465 89.9513C196.967 89.177 196.542 87.8993 196.361 86.1825C196.009 82.8307 197.075 79.1231 198.187 76.2374C198.782 74.7697 199.287 73.6421 199.176 72.5793C198.956 70.4946 196.589 68.5531 195.4 67.9342C194.48 67.4936 193.701 67.2036 192.468 66.9612L192.03 67.5445C193.452 68.8001 194.64 70.2044 194.825 71.9621C195.216 75.6818 193.257 81.5908 193.833 87.0682C194.348 91.9732 195.951 94.9457 197.255 96.6683C198.084 97.8211 199.03 98.5069 200.058 98.3987C201.17 98.2819 201.764 97.5996 201.652 96.5368C201.497 95.0653 200.695 94.1578 200.549 92.768C200.441 91.7461 200.52 90.9113 200.672 89.9861C200.912 88.3078 201.678 84.5079 202.299 81.7149L201.355 81.4422ZM210.218 66.79C211.268 66.8863 212.314 66.9416 213.139 67.2682C213.696 67.4164 213.977 67.7174 214.195 68.6037C214.443 69.7761 214.803 72.0113 215.15 74.1239C213.579 74.6196 212 75.0335 210.642 75.1763C208.46 75.4055 206.535 74.9053 204.121 73.7126L203.683 74.2958C206.108 77.9671 208.906 78.4582 211.417 78.1944C212.816 78.0473 214.243 77.7733 215.662 77.4175C216.226 81.2016 216.835 85.8076 216.064 89.1536C215.187 93.8744 212.765 96.5673 209.001 99.1533L209.448 99.8501C214.397 97.8422 218.174 95.3788 219.578 90.52C220.722 86.7629 219.712 80.7113 219.009 76.4045C221.135 75.6438 222.922 74.836 223.982 74.2287C225.042 73.6214 225.356 73.0511 225.275 72.2745C225.159 71.1708 223.645 70.6273 222.369 70.7614C222.081 70.7917 221.708 71.2029 220.291 71.9717C219.782 72.2732 219.145 72.5468 218.471 72.8656C218.292 71.5619 218.164 70.3356 218.114 69.4729C218.005 68.0379 218.508 67.2825 218.44 66.6285C218.302 65.3204 215.288 64.3561 213.477 64.5464C212.531 64.6459 211.105 65.333 210.058 66.0629L210.218 66.79ZM220.734 61.1388C222.704 62.4608 223.61 63.5641 224.367 64.435C225.17 65.3425 225.713 66.1533 226.372 66.0841C227.154 66.0019 227.514 65.4681 227.441 64.7732C227.387 63.8696 226.989 63.2502 225.948 62.4505C224.812 61.5367 223.344 61.0298 221.167 60.5146L220.734 61.1388Z" fill="#FFDAD6"/>
<g clip-path="url(#clip2)">
<path d="M242.007 113.973L235.01 122.929L215.979 108.06L209.857 115.897L228.888 130.765L221.891 139.721L244.823 136.905L242.007 113.973Z" fill="#FFDAD6"/>
</g>
</g>
<defs>
<filter id="filter0_d" x="0" y="0" width="260" height="231" filterUnits="userSpaceOnUse" color-interpolation-filters="sRGB">
<feFlood flood-opacity="0" result="BackgroundImageFix"/>
<feColorMatrix in="SourceAlpha" type="matrix" values="0 0 0 0 0 0 0 0 0 0 0 0 0 0 0 0 0 0 127 0"/>
<feOffset dy="4"/>
<feGaussianBlur stdDeviation="9"/>
<feColorMatrix type="matrix" values="0 0 0 0 0.395833 0 0 0 0 0.105556 0 0 0 0 0.105556 0 0 0 0.15 0"/>
<feBlend mode="normal" in2="BackgroundImageFix" result="effect1_dropShadow"/>
<feBlend mode="normal" in="SourceGraphic" in2="effect1_dropShadow" result="shape"/>
</filter>
<clipPath id="clip0">
<rect width="224" height="195" fill="white" transform="translate(18 14)"/>
</clipPath>
<clipPath id="clip1">
<rect width="32.1449" height="32.1449" fill="white" transform="translate(8 34.9175) rotate(-7.00035)"/>
</clipPath>
<clipPath id="clip2">
<rect width="32.1449" height="32.1449" fill="white" transform="translate(209 108.917) rotate(-7.00035)"/>
</clipPath>
</defs>
</svg>
