<svg width="45" height="40" viewBox="0 0 45 40" fill="none" xmlns="http://www.w3.org/2000/svg">
<path d="M39.8017 33.0435H5.19853C4.76599 33.0435 4.3695 33.3922 4.00905 34.0897C3.6486 34.7871 3.46837 35.5978 3.46837 36.5217C3.46837 37.4457 3.6486 38.2563 4.00905 38.9538C4.3695 39.6513 4.76599 40 5.19853 40H39.8017C40.2343 40 40.6308 39.6513 40.9912 38.9538C41.3517 38.2563 41.5319 37.4457 41.5319 36.5217C41.5319 35.5978 41.3517 34.7871 40.9912 34.0897C40.6308 33.3922 40.2343 33.0435 39.8017 33.0435ZM3.46837 3.47827C2.51318 3.47827 1.69767 3.81794 1.02182 4.49729C0.345978 5.17664 0.00805664 5.99638 0.00805664 6.95653C0.00805664 7.91667 0.345978 8.73642 1.02182 9.41577C1.69767 10.0951 2.51318 10.4348 3.46837 10.4348L5.63107 29.538H39.3692L41.5319 10.4348C42.4871 10.4348 43.3026 10.0951 43.9784 9.41577C44.6543 8.73642 44.9922 7.91667 44.9922 6.95653C44.9922 5.99638 44.6543 5.17664 43.9784 4.49729C43.3026 3.81794 42.4871 3.47827 41.5319 3.47827C40.5767 3.47827 39.7612 3.81794 39.0853 4.49729C38.4095 5.17664 38.0716 5.99638 38.0716 6.95653C38.0716 7.97102 38.441 8.82247 39.1799 9.51087C36.4225 12.8261 34.5572 14.9683 33.584 15.9375C32.6107 16.9067 31.7997 17.3913 31.1509 17.3913C30.5382 17.3913 29.7902 16.789 28.9071 15.5842C28.024 14.3795 26.4921 11.9112 24.3114 8.17935C24.816 7.87138 25.217 7.45472 25.5144 6.92935C25.8118 6.40399 25.9604 5.83334 25.9604 5.2174C25.9604 4.25725 25.6225 3.43751 24.9467 2.75816C24.2708 2.07881 23.4553 1.73914 22.5001 1.73914C21.5449 1.73914 20.7294 2.07881 20.0536 2.75816C19.3777 3.43751 19.0398 4.25725 19.0398 5.2174C19.0398 5.83334 19.1885 6.40399 19.4859 6.92935C19.7832 7.45472 20.1842 7.87138 20.6889 8.17935C18.5081 11.9112 16.9762 14.3795 16.0931 15.5842C15.21 16.789 14.4621 17.3913 13.8493 17.3913C13.2005 17.3913 12.3895 16.9067 11.4163 15.9375C10.4431 14.9683 8.57775 12.8261 5.82031 9.51087C6.55923 8.82247 6.92869 7.97102 6.92869 6.95653C6.92869 5.99638 6.59077 5.17664 5.91493 4.49729C5.23908 3.81794 4.42357 3.47827 3.46837 3.47827Z" fill="#DFC37A"/>
</svg>
