<svg width="310" height="225" viewBox="0 0 310 225" fill="none" xmlns="http://www.w3.org/2000/svg">
<path d="M188.443 224.641C187.633 224.044 186.554 223.387 185.069 222.552C184.326 222.134 183.516 221.656 182.571 221.119C181.626 220.642 180.547 220.164 179.399 219.627C177.104 218.493 174.337 217.478 171.097 216.344C169.478 215.807 167.723 215.27 165.833 214.732C163.943 214.195 161.918 213.718 159.826 213.24C150.714 211.151 140.118 209.301 128.779 206.615C117.44 203.869 105.426 200.168 93.9517 194.737C92.5344 194.08 91.117 193.364 89.6996 192.647C88.9572 192.289 88.2822 191.931 87.6073 191.573L85.515 190.439L83.4227 189.305C82.7477 188.947 82.0728 188.529 81.3303 188.111C79.9805 187.275 78.5631 186.499 77.2132 185.664C71.8137 182.262 66.6166 178.561 61.7571 174.562C56.8975 170.562 52.3754 166.265 48.1908 161.907C44.0061 157.49 40.294 152.835 36.9193 148.179C33.5446 143.523 30.5748 138.748 27.9426 134.092C27.3351 132.898 26.6602 131.764 26.0527 130.571C25.7153 129.974 25.4453 129.437 25.1078 128.84C24.8378 128.243 24.5679 127.706 24.2304 127.109C23.6904 125.975 23.083 124.84 22.543 123.706C22.0031 122.572 21.5306 121.438 21.0582 120.304C17.1435 111.351 14.4438 103.054 12.5539 96.0702C10.6641 89.0269 9.58419 83.2967 8.84176 79.2975C8.50429 77.3278 8.23431 75.7758 8.09932 74.7014C7.96433 73.627 7.82935 73.0898 7.82935 73.0898L9.71918 72.8511C9.71918 72.8511 10.0566 74.8208 10.6641 78.4619C11.0016 80.2525 11.4065 82.461 12.014 85.0277C12.284 86.2812 12.6214 87.654 12.9589 89.0866C13.2964 90.5191 13.7013 92.071 14.1063 93.6229C15.7936 100.01 18.2234 107.531 21.5981 115.708C22.4081 117.797 23.4205 119.827 24.3654 121.975C24.8378 123.05 25.3778 124.064 25.9177 125.139C26.4577 126.213 26.9976 127.288 27.5376 128.362C28.145 129.437 28.7525 130.511 29.2924 131.585C29.6299 132.123 29.8999 132.66 30.2374 133.197C30.5748 133.734 30.9123 134.271 31.1823 134.809C31.8572 135.883 32.4647 137.017 33.1396 138.091C33.882 139.166 34.557 140.24 35.2994 141.374C35.9744 142.508 36.7843 143.583 37.5267 144.657C38.3366 145.732 39.0791 146.866 39.889 147.94C40.6989 149.015 41.5764 150.089 42.3863 151.163L42.9937 151.999L43.6687 152.775C44.1411 153.312 44.5461 153.849 45.0186 154.387C46.7734 156.535 48.7307 158.565 50.6881 160.654C51.7005 161.669 52.7129 162.683 53.7253 163.698C54.2652 164.176 54.7377 164.713 55.2777 165.19L56.8975 166.623L58.5174 168.115L59.3273 168.831L60.1372 169.548C61.2846 170.503 62.3645 171.398 63.5119 172.353C64.6593 173.308 65.8067 174.144 67.0216 175.039L68.7765 176.412L70.5988 177.665C75.3909 181.127 80.5204 184.231 85.7175 187.096C86.9998 187.813 88.3497 188.469 89.6321 189.185C90.3071 189.544 90.982 189.842 91.6569 190.2C92.3319 190.499 93.0068 190.857 93.6818 191.155C94.3567 191.454 95.0316 191.812 95.7066 192.11L96.179 192.349L96.449 192.468L96.5165 192.528C96.584 192.528 96.5165 192.528 96.5165 192.528L96.6515 192.588L97.6639 193.006C99.0138 193.602 100.364 194.14 101.714 194.737C102.388 195.035 103.063 195.333 103.738 195.572C104.413 195.811 105.088 196.05 105.763 196.348C107.113 196.826 108.463 197.363 109.813 197.84C111.163 198.258 112.58 198.736 113.93 199.154C115.28 199.571 116.63 200.049 118.047 200.407C128.981 203.571 139.645 205.6 149.297 207.45C160.096 209.539 169.343 211.33 177.307 213.36C177.779 213.479 178.319 213.598 178.792 213.718C179.264 213.837 179.737 214.016 180.209 214.136C181.154 214.374 182.099 214.673 183.044 214.912C183.989 215.21 184.866 215.389 185.811 215.688C186.689 215.986 187.633 216.284 188.443 216.523C192.088 217.598 194.99 218.791 197.96 219.866C200.592 220.88 190.873 226.432 188.443 224.641Z" fill="#CBBCA9"/>
<path d="M15.1187 100.368C14.8487 99.4127 15.3886 97.1445 15.9961 94.3988C16.3336 93.0259 16.671 91.5337 16.941 89.9818C17.211 88.4299 17.4135 86.878 17.4135 85.3857C17.4135 79.3571 16.7385 72.075 15.8611 66.1658C15.1862 66.882 13.2963 69.5084 12.0139 73.4479C11.6765 74.4029 11.4065 75.4773 11.204 76.6114C11.069 77.1486 10.934 77.7455 10.8665 78.3424C10.7991 78.9393 10.7316 79.5362 10.7316 80.1331C10.6641 81.3865 10.7316 82.64 10.8665 83.9532C11.0015 85.2663 11.339 86.6392 11.744 87.9524C11.744 87.9524 11.9464 88.7283 12.2164 89.9221C12.4864 91.0562 12.8914 92.6081 13.2963 94.16C13.7013 95.712 14.1737 97.2639 14.5112 98.398C14.8487 99.5918 15.1187 100.368 15.1187 100.368Z" fill="#CBBCA9"/>
<path d="M14.7137 100.428C14.4437 99.4725 12.6889 97.7415 10.7315 95.4733C9.71914 94.3392 8.70673 93.0857 7.69432 91.7129C6.68191 90.34 5.87198 88.9075 5.19704 87.4749C2.49728 81.6254 0.607446 73.9851 0 67.6581C0.877422 68.255 3.3747 70.5829 5.80449 74.1642C6.41193 75.0596 7.01938 76.0146 7.62682 77.0293C7.8968 77.5665 8.16678 78.1037 8.43675 78.6409C8.70673 79.1781 8.9767 79.775 9.24668 80.3122C9.78663 81.4463 10.1916 82.6998 10.5966 83.9533C11.0015 85.2067 11.339 86.5796 11.474 87.9524C11.474 87.9524 11.6765 88.7284 11.8789 89.9222C12.1489 91.0563 12.5539 92.6082 12.9589 94.1601C13.3638 95.7121 13.7688 97.264 14.1062 98.3981C14.5112 99.6515 14.7137 100.428 14.7137 100.428Z" fill="#CBBCA9"/>
<path d="M25.4453 126.452C25.2429 126.034 25.1754 125.199 25.1079 124.184C25.1079 123.647 25.1079 123.109 25.1079 122.453C25.1754 121.856 25.1754 121.14 25.2429 120.423C25.3104 118.991 25.3779 117.499 25.4453 115.947C25.5128 114.395 25.4453 112.843 25.1754 111.351C24.2979 105.441 22.5431 98.3383 20.9232 92.5484C20.6533 92.9065 20.0458 93.8616 19.5734 95.115C19.0334 96.4282 18.4935 98.1592 18.0885 100.129C17.751 102.158 17.616 104.427 17.8185 106.934C17.9535 108.187 18.2235 109.44 18.561 110.694C18.7634 111.351 18.9659 112.007 19.1684 112.664C19.4384 113.32 19.7084 113.977 20.0458 114.574C20.0458 114.574 20.3833 115.35 20.7883 116.424C21.1932 117.558 21.9357 119.05 22.5431 120.483C23.218 121.975 23.893 123.408 24.4329 124.542C25.0404 125.736 25.4453 126.452 25.4453 126.452Z" fill="#CBBCA9"/>
<path d="M25.1079 126.571C24.9054 126.094 24.298 125.557 23.4206 124.781C23.0156 124.423 22.4756 124.005 22.0032 123.587C21.4632 123.169 20.9233 122.692 20.3158 122.154C19.1684 121.14 17.8861 120.065 16.6712 118.812C15.5238 117.558 14.3764 116.245 13.4989 114.872C11.7441 112.127 10.0567 108.903 8.70686 105.561C8.36939 104.725 8.03192 103.889 7.69445 103.054C7.42448 102.218 7.08701 101.383 6.81703 100.547C6.27708 98.8756 5.80462 97.264 5.39966 95.712C5.87212 95.9508 6.74954 96.6074 7.96443 97.6221C9.17932 98.6368 10.5967 99.95 12.0141 101.562C13.4989 103.173 15.0513 105.083 16.3337 107.292C17.0086 108.366 17.6836 109.56 18.2235 110.754C18.4935 111.351 18.7635 112.007 19.0334 112.664C19.3034 113.32 19.5059 113.977 19.7759 114.634C19.7759 114.634 20.0459 115.409 20.5183 116.484C20.9233 117.618 21.5982 119.11 22.2732 120.543C22.9481 122.035 23.5555 123.527 24.163 124.602C24.7029 125.855 25.1079 126.571 25.1079 126.571Z" fill="#CBBCA9"/>
<path d="M40.564 150.626C39.9565 149.79 39.5516 147.522 39.2141 144.717C39.1466 144.001 39.0116 143.284 38.8766 142.568C38.8091 142.21 38.7416 141.852 38.6741 141.434C38.6066 141.076 38.5391 140.658 38.4717 140.3C38.2017 138.748 37.8642 137.256 37.3243 135.823C36.8518 134.391 36.3118 132.898 35.7044 131.406C35.097 129.914 34.4895 128.362 33.8146 126.81C33.1396 125.318 32.5322 123.766 31.8572 122.274C31.1823 120.781 30.5074 119.349 29.8999 117.976C29.6974 118.394 29.2925 119.349 28.955 120.722C28.6175 122.095 28.415 123.826 28.415 125.855C28.415 126.392 28.415 126.87 28.415 127.407C28.4825 127.944 28.55 128.481 28.6175 129.078C28.7525 130.212 29.0225 131.346 29.36 132.6C29.6974 133.794 30.2374 134.988 30.7773 136.241C31.3848 137.435 32.0597 138.688 33.0046 139.822C33.0046 139.822 33.4771 140.539 34.152 141.553C34.4895 142.091 34.8945 142.687 35.2994 143.284C35.7719 143.941 36.2443 144.597 36.7168 145.254C37.6617 146.567 38.6066 147.94 39.4166 148.895C40.024 149.97 40.564 150.626 40.564 150.626Z" fill="#CBBCA9"/>
<path d="M40.2939 150.805C39.6865 149.97 37.3242 148.895 34.6919 147.284C34.017 146.866 33.2745 146.448 32.5996 146.03C32.2621 145.791 31.8572 145.553 31.5197 145.314C31.1822 145.075 30.8448 144.836 30.4398 144.538C29.0224 143.523 27.6725 142.389 26.5251 141.136C25.3777 139.882 24.2978 138.509 23.1504 137.077C22.003 135.644 21.0581 134.092 20.0457 132.54C19.0333 130.988 18.1559 129.377 17.346 127.825C16.941 127.049 16.536 126.273 16.1311 125.497C15.7936 124.721 15.4561 123.945 15.1187 123.229C15.6586 123.408 16.671 123.945 17.9534 124.781C19.3033 125.616 20.9906 126.75 22.678 128.183C23.0829 128.541 23.5554 128.899 23.9604 129.317C24.4328 129.675 24.8378 130.093 25.3103 130.511C26.1877 131.347 27.1326 132.242 27.9425 133.257C28.8199 134.271 29.6974 135.286 30.4398 136.42C31.2497 137.554 31.9247 138.748 32.6671 140.001C32.6671 140.001 33.1396 140.718 33.747 141.732C34.0845 142.27 34.4894 142.867 34.8944 143.523C35.3669 144.18 35.8393 144.836 36.3118 145.493C37.2567 146.866 38.2016 148.239 38.944 149.194C39.754 150.149 40.2939 150.805 40.2939 150.805Z" fill="#CBBCA9"/>
<path d="M60.7446 171.697C60.3397 171.338 59.9347 170.622 59.4622 169.667C58.9898 168.712 58.5848 167.459 58.0449 166.145C56.965 163.519 55.8851 160.356 54.2652 157.789C51.0255 152.596 46.7734 146.508 43.1962 141.613C42.9262 142.508 42.4538 145.612 43.2637 149.552C43.6012 151.581 44.4786 153.73 45.626 155.998C46.1659 157.132 46.9759 158.207 47.7858 159.281C48.6632 160.356 49.6081 161.49 50.7555 162.445C50.7555 162.445 51.363 163.042 52.2404 163.937C52.7128 164.355 53.1853 164.892 53.7927 165.429C54.3327 165.966 55.0076 166.563 55.6151 167.1C56.2225 167.697 56.83 168.235 57.4374 168.772C58.0449 169.309 58.5848 169.786 59.0573 170.204C60.1372 171.159 60.7446 171.697 60.7446 171.697Z" fill="#CBBCA9"/>
<path d="M60.5422 171.935C60.1372 171.577 59.3273 171.279 58.1799 170.861C57.0325 170.503 55.7501 170.025 54.1977 169.488C51.1605 168.473 47.6508 166.921 44.8161 164.892C43.4662 163.877 42.0488 162.743 40.6314 161.49C39.2141 160.236 37.9317 158.923 36.5818 157.55C34.017 154.805 31.5872 151.88 29.7649 149.074C30.8448 149.313 34.2195 150.507 38.2691 152.715C40.2265 153.849 42.4538 155.163 44.5461 156.834C45.5585 157.67 46.7059 158.505 47.7183 159.52C48.7307 160.475 49.6756 161.549 50.688 162.683C50.688 162.683 51.2955 163.28 52.1729 164.176C52.6454 164.653 53.1178 165.131 53.6578 165.728C54.1977 166.265 54.8727 166.862 55.4801 167.399C56.0876 167.996 56.695 168.533 57.3024 169.07C57.9099 169.607 58.4498 170.145 58.9223 170.503C59.8672 171.398 60.5422 171.935 60.5422 171.935Z" fill="#CBBCA9"/>
<path d="M85.5148 188.589C85.0424 188.35 84.4349 187.753 83.8275 186.858C83.1525 185.962 82.4101 184.888 81.6002 183.694C81.1952 183.097 80.7903 182.5 80.3178 181.844C79.9128 181.187 79.4404 180.53 78.9679 179.874C78.4955 179.217 78.023 178.62 77.4831 177.964C77.2131 177.665 76.9431 177.367 76.6731 177.068C76.4031 176.77 76.1332 176.472 75.8632 176.173C71.4761 171.756 65.9416 166.563 61.2845 162.385C61.217 163.28 61.4195 166.444 63.2418 170.144C64.9292 173.905 68.3039 178.262 73.6359 181.366C73.6359 181.366 74.3783 181.844 75.4582 182.56C75.9982 182.918 76.6056 183.336 77.3481 183.754C77.6855 183.992 78.023 184.171 78.428 184.41C78.7654 184.649 79.1704 184.828 79.5754 185.067C81.0602 185.962 82.5451 186.798 83.6925 187.454C84.2325 187.813 84.7724 188.051 85.0424 188.23C85.3124 188.469 85.5148 188.589 85.5148 188.589Z" fill="#CBBCA9"/>
<path d="M85.3125 188.827C84.84 188.589 83.8951 188.41 82.7477 188.23C81.6003 188.051 80.1155 187.872 78.4956 187.634C77.6857 187.514 76.8082 187.395 75.9983 187.216C75.1209 187.037 74.2435 186.858 73.3661 186.619C72.4886 186.38 71.6112 186.141 70.7338 185.843C70.3288 185.724 69.8564 185.544 69.4514 185.425C69.0464 185.246 68.6415 185.067 68.2365 184.888C61.7571 182.023 54.6702 176.949 49.7432 172.174C50.8906 172.174 54.4677 172.831 58.9223 174.203C63.3769 175.696 68.6415 177.845 73.4335 181.605C73.4335 181.605 74.176 182.082 75.2559 182.799C75.7958 183.157 76.4033 183.575 77.1457 183.993C77.4832 184.231 77.8207 184.47 78.2256 184.649C78.5631 184.888 78.9681 185.067 79.3055 185.306C80.7904 186.201 82.2753 187.096 83.4227 187.753C83.9626 188.111 84.5026 188.35 84.7725 188.529C85.11 188.708 85.3125 188.827 85.3125 188.827Z" fill="#CBBCA9"/>
<path d="M113.592 200.586C113.053 200.407 112.378 199.929 111.5 199.213C111.095 198.855 110.623 198.437 110.15 198.019C109.678 197.542 109.138 197.064 108.598 196.527C107.518 195.512 106.371 194.378 105.156 193.304C103.941 192.23 102.658 191.095 101.376 190.2C100.701 189.723 100.026 189.305 99.2838 188.887L99.0138 188.708L98.8788 188.648C98.8788 188.648 99.1488 188.768 99.0138 188.708H98.9463L98.8788 188.648L98.3388 188.29C97.9339 188.051 97.5964 187.813 97.1914 187.574C96.449 187.096 95.6391 186.619 94.8292 186.141C94.0192 185.664 93.2093 185.186 92.5344 184.709C91.0495 183.754 89.6321 182.918 88.1473 182.082C86.6624 181.187 85.245 180.292 83.8276 179.516C83.8951 179.993 84.1651 180.948 84.7726 182.202C85.0425 182.858 85.4475 183.575 85.8525 184.351C86.3249 185.127 86.8649 185.902 87.4723 186.738C88.1473 187.574 88.8897 188.409 89.6996 189.305C89.9021 189.544 90.1046 189.723 90.3746 189.961C90.6445 190.14 90.847 190.379 91.117 190.558C91.5894 190.976 92.1294 191.394 92.6694 191.752C93.7493 192.528 94.8967 193.364 96.179 194.02C97.4614 194.677 98.8788 195.274 100.364 195.811C100.364 195.811 101.174 196.169 102.388 196.647C103.603 197.124 105.291 197.721 106.911 198.378C107.721 198.676 108.598 198.974 109.34 199.273C110.15 199.571 110.893 199.75 111.5 199.989C112.783 200.347 113.592 200.586 113.592 200.586Z" fill="#CBBCA9"/>
<path d="M113.457 200.884C112.917 200.705 112.04 200.705 110.825 200.765C110.218 200.765 109.543 200.825 108.868 200.884C108.125 200.884 107.383 200.944 106.573 200.944C104.953 201.004 103.131 201.004 101.309 200.884C99.4862 200.765 97.6638 200.467 95.909 200.049C95.0316 199.81 94.1541 199.631 93.2092 199.333L92.8718 199.213L92.6693 199.154L92.5343 199.094H92.4668H92.3993L91.7243 198.855C91.3194 198.736 90.8469 198.557 90.442 198.437C89.5645 198.139 88.6871 197.84 87.8097 197.482C86.9323 197.124 86.0548 196.826 85.1099 196.408C83.2876 195.572 81.4652 194.677 79.6429 193.841C77.9556 192.886 76.3357 191.991 74.8508 191.036C75.3908 190.916 76.6057 190.857 78.2255 190.916C79.0355 190.916 79.9804 190.976 80.9928 191.036C82.0052 191.095 83.1526 191.215 84.3 191.334C85.5149 191.454 86.7298 191.692 88.0122 191.931C88.3496 191.991 88.6196 192.051 88.9571 192.11C89.2946 192.17 89.632 192.23 89.902 192.289C90.5769 192.409 91.2519 192.588 91.9268 192.767C93.2767 193.125 94.6266 193.602 95.9765 194.08C97.3939 194.557 98.7437 195.154 100.161 195.871C100.161 195.871 100.971 196.229 102.186 196.766C103.401 197.243 105.088 197.84 106.708 198.497C107.518 198.795 108.395 199.094 109.138 199.392C109.948 199.691 110.69 199.87 111.298 200.109C112.648 200.646 113.457 200.884 113.457 200.884Z" fill="#CBBCA9"/>
<path d="M143.762 207.988C141.602 207.57 135.663 202.138 129.588 199.452C123.446 196.826 116.022 194.08 109.88 191.931C110.083 192.349 110.555 193.244 111.432 194.438C112.31 195.572 113.592 196.945 115.212 198.378C118.519 201.243 123.514 204.048 129.791 205.123C129.791 205.123 130.668 205.302 131.951 205.6C133.233 205.899 134.988 206.316 136.743 206.615C138.498 206.973 140.252 207.331 141.535 207.57C142.885 207.809 143.762 207.988 143.762 207.988Z" fill="#CBBCA9"/>
<path d="M143.627 208.286C141.467 207.868 133.436 210.494 126.281 210.017C119.127 209.599 110.42 207.51 103.738 204.884C104.278 204.705 105.426 204.406 106.978 204.167C108.598 203.869 110.69 203.57 113.052 203.511C117.777 203.272 123.649 203.451 129.656 205.301C129.656 205.301 130.533 205.481 131.816 205.779C133.098 206.077 134.853 206.495 136.608 206.853C138.363 207.211 140.118 207.57 141.4 207.868C142.75 208.107 143.627 208.286 143.627 208.286Z" fill="#CBBCA9"/>
<path d="M6.07457 35.9631C6.07457 35.9631 7.28946 38.5894 8.50435 42.1111C9.17929 43.8421 9.78674 45.8118 10.3267 47.7816C10.8666 49.7513 11.2716 51.7211 11.4066 53.5117C11.5416 55.3024 11.4741 57.3318 11.2716 59.5404C11.1366 61.7489 10.8666 64.0767 10.5967 66.4046C10.3942 68.7325 10.1242 71.0604 9.92173 73.1495C9.78674 75.2983 9.65175 77.2084 9.71924 78.82C9.17929 77.2681 8.50435 75.4177 7.62693 73.3883C6.817 71.3588 5.93958 69.1503 5.12965 66.8821C4.31972 64.6139 3.57729 62.2861 2.96984 60.0776C2.49738 57.9287 2.02493 55.8396 1.88994 53.9892C1.75495 52.1389 1.95743 50.1094 2.2949 48.08C2.69987 46.0506 3.17232 44.0211 3.71228 42.2305C4.85968 38.5894 6.07457 35.9631 6.07457 35.9631Z" fill="#CBBCA9"/>
<path d="M159.3 209.218C161.186 206.686 160.764 203.024 158.359 201.039C155.953 199.054 152.474 199.498 150.589 202.03C148.703 204.562 149.125 208.224 151.53 210.209C153.936 212.194 157.414 211.75 159.3 209.218Z" fill="#CBBCA9"/>
<path d="M170.827 191.538C167.25 184.149 155.371 200.489 155.371 205.32C155.371 210.223 167.453 225.995 170.962 218.464C174.472 211.004 174.404 198.926 170.827 191.538Z" fill="#CBBCA9"/>
<path d="M138.633 191.538C142.21 184.149 154.089 200.489 154.089 205.32C154.089 210.223 142.008 225.995 138.498 218.464C134.988 211.004 135.056 198.926 138.633 191.538Z" fill="#CBBCA9"/>
<path d="M120.866 224.641C121.676 224.044 122.756 223.387 124.241 222.552C124.983 222.134 125.793 221.656 126.738 221.119C127.683 220.642 128.763 220.164 129.91 219.627C132.205 218.493 134.972 217.478 138.212 216.344C139.832 215.807 141.587 215.27 143.477 214.732C145.367 214.195 147.391 213.718 149.484 213.24C158.595 211.151 169.192 209.301 180.531 206.615C191.87 203.869 203.884 200.168 215.358 194.737C216.775 194.08 218.193 193.364 219.61 192.647C220.352 192.289 221.027 191.931 221.702 191.573L223.795 190.439L225.887 189.305C226.562 188.947 227.237 188.529 227.979 188.111C229.329 187.275 230.746 186.499 232.096 185.664C237.496 182.262 242.693 178.561 247.552 174.562C252.412 170.562 256.934 166.265 261.119 161.907C265.303 157.49 269.016 152.835 272.39 148.179C275.765 143.523 278.735 138.748 281.367 134.092C281.974 132.898 282.649 131.764 283.257 130.571C283.594 129.974 283.864 129.437 284.202 128.84C284.472 128.243 284.742 127.706 285.079 127.109C285.619 125.975 286.227 124.84 286.767 123.706C287.306 122.572 287.779 121.438 288.251 120.304C292.166 111.351 294.866 103.054 296.756 96.0702C298.645 89.0269 299.725 83.2967 300.468 79.2975C300.805 77.3278 301.075 75.7758 301.21 74.7014C301.345 73.627 301.48 73.0898 301.48 73.0898L299.59 72.8511C299.59 72.8511 299.253 74.8208 298.645 78.4619C298.308 80.2525 297.903 82.461 297.296 85.0277C297.026 86.2812 296.688 87.654 296.351 89.0866C296.013 90.5191 295.608 92.071 295.203 93.6229C293.516 100.01 291.086 107.531 287.711 115.708C286.902 117.797 285.889 119.827 284.944 121.975C284.472 123.05 283.932 124.064 283.392 125.139C282.852 126.213 282.312 127.288 281.772 128.362C281.165 129.437 280.557 130.511 280.017 131.585C279.68 132.123 279.41 132.66 279.072 133.197C278.735 133.734 278.397 134.271 278.127 134.809C277.452 135.883 276.845 137.017 276.17 138.091C275.428 139.166 274.753 140.24 274.01 141.374C273.335 142.508 272.525 143.583 271.783 144.657C270.973 145.732 270.23 146.866 269.421 147.94C268.611 149.015 267.733 150.089 266.923 151.163L266.316 151.999L265.641 152.775C265.168 153.312 264.763 153.849 264.291 154.387C262.536 156.535 260.579 158.565 258.622 160.654C257.609 161.669 256.597 162.683 255.584 163.698C255.044 164.176 254.572 164.713 254.032 165.19L252.412 166.623L250.792 168.115L249.982 168.831L249.172 169.548C248.025 170.503 246.945 171.398 245.798 172.353C244.65 173.308 243.503 174.144 242.288 175.039L240.533 176.412L238.711 177.665C233.919 181.127 228.789 184.231 223.592 187.096C222.31 187.813 220.96 188.469 219.677 189.185C219.003 189.544 218.328 189.842 217.653 190.2C216.978 190.499 216.303 190.857 215.628 191.155C214.953 191.454 214.278 191.812 213.603 192.11L213.131 192.349L212.861 192.468L212.793 192.528C212.726 192.528 212.793 192.528 212.793 192.528L212.658 192.588L211.646 193.006C210.296 193.602 208.946 194.14 207.596 194.737C206.921 195.035 206.246 195.333 205.571 195.572C204.896 195.811 204.221 196.05 203.546 196.348C202.197 196.826 200.847 197.363 199.497 197.84C198.147 198.258 196.73 198.736 195.38 199.154C194.03 199.571 192.68 200.049 191.262 200.407C180.328 203.571 169.664 205.6 160.013 207.45C149.214 209.539 139.967 211.33 132.003 213.36C131.53 213.479 130.99 213.598 130.518 213.718C130.045 213.837 129.573 214.016 129.1 214.136C128.156 214.374 127.211 214.673 126.266 214.912C125.321 215.21 124.443 215.389 123.498 215.688C122.621 215.986 121.676 216.284 120.866 216.523C117.222 217.598 114.319 218.791 111.35 219.866C108.717 220.88 118.436 226.432 120.866 224.641Z" fill="#CBBCA9"/>
<path d="M294.191 100.368C294.461 99.4127 293.921 97.1445 293.313 94.3988C292.976 93.0259 292.638 91.5337 292.368 89.9818C292.099 88.4299 291.896 86.878 291.896 85.3857C291.896 79.3571 292.571 72.075 293.448 66.1658C294.123 66.882 296.013 69.5084 297.295 73.4479C297.633 74.4029 297.903 75.4773 298.105 76.6114C298.24 77.1486 298.375 77.7455 298.443 78.3424C298.51 78.9393 298.578 79.5362 298.578 80.1331C298.645 81.3865 298.578 82.64 298.443 83.9532C298.308 85.2663 297.97 86.6392 297.565 87.9524C297.565 87.9524 297.363 88.7283 297.093 89.9221C296.823 91.0562 296.418 92.6081 296.013 94.16C295.608 95.712 295.136 97.2639 294.798 98.398C294.461 99.5918 294.191 100.368 294.191 100.368Z" fill="#CBBCA9"/>
<path d="M294.596 100.428C294.866 99.4725 296.621 97.7415 298.578 95.4733C299.59 94.3392 300.603 93.0857 301.615 91.7129C302.628 90.34 303.438 88.9075 304.113 87.4749C306.812 81.6254 308.702 73.9851 309.31 67.6581C308.432 68.255 305.935 70.5829 303.505 74.1642C302.898 75.0596 302.29 76.0146 301.683 77.0293C301.413 77.5665 301.143 78.1037 300.873 78.6409C300.603 79.1781 300.333 79.775 300.063 80.3122C299.523 81.4463 299.118 82.6998 298.713 83.9533C298.308 85.2067 297.971 86.5796 297.836 87.9524C297.836 87.9524 297.633 88.7284 297.431 89.9222C297.161 91.0563 296.756 92.6082 296.351 94.1601C295.946 95.7121 295.541 97.264 295.203 98.3981C294.798 99.6515 294.596 100.428 294.596 100.428Z" fill="#CBBCA9"/>
<path d="M283.864 126.452C284.067 126.034 284.134 125.199 284.202 124.184C284.202 123.647 284.202 123.109 284.202 122.453C284.134 121.856 284.134 121.14 284.067 120.423C283.999 118.991 283.932 117.499 283.864 115.947C283.797 114.395 283.864 112.843 284.134 111.351C285.012 105.441 286.766 98.3383 288.386 92.5484C288.656 92.9065 289.264 93.8616 289.736 95.115C290.276 96.4282 290.816 98.1592 291.221 100.129C291.559 102.158 291.694 104.427 291.491 106.934C291.356 108.187 291.086 109.44 290.749 110.694C290.546 111.351 290.344 112.007 290.141 112.664C289.871 113.32 289.601 113.977 289.264 114.574C289.264 114.574 288.926 115.35 288.521 116.424C288.116 117.558 287.374 119.05 286.766 120.483C286.092 121.975 285.417 123.408 284.877 124.542C284.269 125.736 283.864 126.452 283.864 126.452Z" fill="#CBBCA9"/>
<path d="M284.202 126.571C284.404 126.094 285.012 125.557 285.889 124.781C286.294 124.423 286.834 124.005 287.306 123.587C287.846 123.169 288.386 122.692 288.994 122.154C290.141 121.14 291.423 120.065 292.638 118.812C293.786 117.558 294.933 116.245 295.811 114.872C297.565 112.127 299.253 108.903 300.603 105.561C300.94 104.725 301.278 103.889 301.615 103.054C301.885 102.218 302.223 101.383 302.493 100.547C303.032 98.8756 303.505 97.264 303.91 95.712C303.437 95.9508 302.56 96.6074 301.345 97.6221C300.13 98.6368 298.713 99.95 297.295 101.562C295.811 103.173 294.258 105.083 292.976 107.292C292.301 108.366 291.626 109.56 291.086 110.754C290.816 111.351 290.546 112.007 290.276 112.664C290.006 113.32 289.804 113.977 289.534 114.634C289.534 114.634 289.264 115.409 288.791 116.484C288.386 117.618 287.711 119.11 287.036 120.543C286.361 122.035 285.754 123.527 285.147 124.602C284.607 125.855 284.202 126.571 284.202 126.571Z" fill="#CBBCA9"/>
<path d="M268.746 150.626C269.353 149.79 269.758 147.522 270.096 144.717C270.163 144.001 270.298 143.284 270.433 142.568C270.501 142.21 270.568 141.852 270.635 141.434C270.703 141.076 270.77 140.658 270.838 140.3C271.108 138.748 271.445 137.256 271.985 135.823C272.458 134.391 272.998 132.898 273.605 131.406C274.213 129.914 274.82 128.362 275.495 126.81C276.17 125.318 276.777 123.766 277.452 122.274C278.127 120.781 278.802 119.349 279.41 117.976C279.612 118.394 280.017 119.349 280.355 120.722C280.692 122.095 280.895 123.826 280.895 125.855C280.895 126.392 280.895 126.87 280.895 127.407C280.827 127.944 280.76 128.481 280.692 129.078C280.557 130.212 280.287 131.346 279.95 132.6C279.612 133.794 279.072 134.988 278.532 136.241C277.925 137.435 277.25 138.688 276.305 139.822C276.305 139.822 275.833 140.539 275.158 141.553C274.82 142.091 274.415 142.687 274.01 143.284C273.538 143.941 273.065 144.597 272.593 145.254C271.648 146.567 270.703 147.94 269.893 148.895C269.286 149.97 268.746 150.626 268.746 150.626Z" fill="#CBBCA9"/>
<path d="M269.016 150.805C269.623 149.97 271.985 148.895 274.618 147.284C275.293 146.866 276.035 146.448 276.71 146.03C277.047 145.791 277.452 145.553 277.79 145.314C278.127 145.075 278.465 144.836 278.87 144.538C280.287 143.523 281.637 142.389 282.784 141.136C283.932 139.882 285.012 138.509 286.159 137.077C287.307 135.644 288.251 134.092 289.264 132.54C290.276 130.988 291.154 129.377 291.964 127.825C292.369 127.049 292.774 126.273 293.179 125.497C293.516 124.721 293.853 123.945 294.191 123.229C293.651 123.408 292.639 123.945 291.356 124.781C290.006 125.616 288.319 126.75 286.632 128.183C286.227 128.541 285.754 128.899 285.349 129.317C284.877 129.675 284.472 130.093 283.999 130.511C283.122 131.347 282.177 132.242 281.367 133.257C280.49 134.271 279.612 135.286 278.87 136.42C278.06 137.554 277.385 138.748 276.642 140.001C276.642 140.001 276.17 140.718 275.563 141.732C275.225 142.27 274.82 142.867 274.415 143.523C273.943 144.18 273.47 144.836 272.998 145.493C272.053 146.866 271.108 148.239 270.365 149.194C269.556 150.149 269.016 150.805 269.016 150.805Z" fill="#CBBCA9"/>
<path d="M248.565 171.697C248.97 171.338 249.375 170.622 249.847 169.667C250.32 168.712 250.725 167.459 251.265 166.145C252.345 163.519 253.425 160.356 255.044 157.789C258.284 152.596 262.536 146.508 266.113 141.613C266.383 142.508 266.856 145.612 266.046 149.552C265.708 151.581 264.831 153.73 263.684 155.998C263.144 157.132 262.334 158.207 261.524 159.281C260.646 160.356 259.701 161.49 258.554 162.445C258.554 162.445 257.947 163.042 257.069 163.937C256.597 164.355 256.124 164.892 255.517 165.429C254.977 165.966 254.302 166.563 253.694 167.1C253.087 167.697 252.48 168.235 251.872 168.772C251.265 169.309 250.725 169.786 250.252 170.204C249.172 171.159 248.565 171.697 248.565 171.697Z" fill="#CBBCA9"/>
<path d="M248.767 171.935C249.172 171.577 249.982 171.279 251.13 170.861C252.277 170.503 253.559 170.025 255.112 169.488C258.149 168.473 261.659 166.921 264.493 164.892C265.843 163.877 267.261 162.743 268.678 161.49C270.095 160.236 271.378 158.923 272.728 157.55C275.292 154.805 277.722 151.88 279.544 149.074C278.465 149.313 275.09 150.507 271.04 152.715C269.083 153.849 266.856 155.163 264.763 156.834C263.751 157.67 262.603 158.505 261.591 159.52C260.579 160.475 259.634 161.549 258.621 162.683C258.621 162.683 258.014 163.28 257.136 164.176C256.664 164.653 256.192 165.131 255.652 165.728C255.112 166.265 254.437 166.862 253.829 167.399C253.222 167.996 252.614 168.533 252.007 169.07C251.399 169.607 250.86 170.145 250.387 170.503C249.442 171.398 248.767 171.935 248.767 171.935Z" fill="#CBBCA9"/>
<path d="M223.795 188.589C224.267 188.35 224.874 187.753 225.482 186.858C226.157 185.962 226.899 184.888 227.709 183.694C228.114 183.097 228.519 182.5 228.992 181.844C229.397 181.187 229.869 180.53 230.341 179.874C230.814 179.217 231.286 178.62 231.826 177.964C232.096 177.665 232.366 177.367 232.636 177.068C232.906 176.77 233.176 176.472 233.446 176.173C237.833 171.756 243.368 166.563 248.025 162.385C248.092 163.28 247.89 166.444 246.068 170.144C244.38 173.905 241.005 178.262 235.673 181.366C235.673 181.366 234.931 181.844 233.851 182.56C233.311 182.918 232.704 183.336 231.961 183.754C231.624 183.992 231.286 184.171 230.881 184.41C230.544 184.649 230.139 184.828 229.734 185.067C228.249 185.962 226.764 186.798 225.617 187.454C225.077 187.813 224.537 188.051 224.267 188.23C223.997 188.469 223.795 188.589 223.795 188.589Z" fill="#CBBCA9"/>
<path d="M223.997 188.827C224.47 188.589 225.414 188.41 226.562 188.23C227.709 188.051 229.194 187.872 230.814 187.634C231.624 187.514 232.501 187.395 233.311 187.216C234.189 187.037 235.066 186.858 235.944 186.619C236.821 186.38 237.698 186.141 238.576 185.843C238.981 185.724 239.453 185.544 239.858 185.425C240.263 185.246 240.668 185.067 241.073 184.888C247.552 182.023 254.639 176.949 259.566 172.174C258.419 172.174 254.842 172.831 250.387 174.203C245.933 175.696 240.668 177.845 235.876 181.605C235.876 181.605 235.134 182.082 234.054 182.799C233.514 183.157 232.906 183.575 232.164 183.993C231.826 184.231 231.489 184.47 231.084 184.649C230.746 184.888 230.342 185.067 230.004 185.306C228.519 186.201 227.034 187.096 225.887 187.753C225.347 188.111 224.807 188.35 224.537 188.529C224.2 188.708 223.997 188.827 223.997 188.827Z" fill="#CBBCA9"/>
<path d="M195.717 200.586C196.257 200.407 196.932 199.929 197.809 199.213C198.214 198.855 198.687 198.437 199.159 198.019C199.632 197.542 200.172 197.064 200.712 196.527C201.792 195.512 202.939 194.378 204.154 193.304C205.369 192.23 206.651 191.095 207.933 190.2C208.608 189.723 209.283 189.305 210.026 188.887L210.296 188.708L210.431 188.648C210.431 188.648 210.161 188.768 210.296 188.708H210.363L210.431 188.648L210.971 188.29C211.376 188.051 211.713 187.813 212.118 187.574C212.861 187.096 213.67 186.619 214.48 186.141C215.29 185.664 216.1 185.186 216.775 184.709C218.26 183.754 219.677 182.918 221.162 182.082C222.647 181.187 224.065 180.292 225.482 179.516C225.414 179.993 225.144 180.948 224.537 182.202C224.267 182.858 223.862 183.575 223.457 184.351C222.985 185.127 222.445 185.902 221.837 186.738C221.162 187.574 220.42 188.409 219.61 189.305C219.407 189.544 219.205 189.723 218.935 189.961C218.665 190.14 218.463 190.379 218.193 190.558C217.72 190.976 217.18 191.394 216.64 191.752C215.56 192.528 214.413 193.364 213.131 194.02C211.848 194.677 210.431 195.274 208.946 195.811C208.946 195.811 208.136 196.169 206.921 196.647C205.706 197.124 204.019 197.721 202.399 198.378C201.589 198.676 200.712 198.974 199.969 199.273C199.159 199.571 198.417 199.75 197.809 199.989C196.527 200.347 195.717 200.586 195.717 200.586Z" fill="#CBBCA9"/>
<path d="M195.852 200.884C196.392 200.705 197.269 200.705 198.484 200.765C199.092 200.765 199.767 200.825 200.442 200.884C201.184 200.884 201.927 200.944 202.737 200.944C204.356 201.004 206.179 201.004 208.001 200.884C209.823 200.765 211.646 200.467 213.401 200.049C214.278 199.81 215.155 199.631 216.1 199.333L216.438 199.213L216.64 199.154L216.775 199.094H216.843H216.91L217.585 198.855C217.99 198.736 218.463 198.557 218.868 198.437C219.745 198.139 220.622 197.84 221.5 197.482C222.377 197.124 223.255 196.826 224.2 196.408C226.022 195.572 227.844 194.677 229.667 193.841C231.354 192.886 232.974 191.991 234.459 191.036C233.919 190.916 232.704 190.857 231.084 190.916C230.274 190.916 229.329 190.976 228.317 191.036C227.304 191.095 226.157 191.215 225.01 191.334C223.795 191.454 222.58 191.692 221.297 191.931C220.96 191.991 220.69 192.051 220.352 192.11C220.015 192.17 219.678 192.23 219.408 192.289C218.733 192.409 218.058 192.588 217.383 192.767C216.033 193.125 214.683 193.602 213.333 194.08C211.916 194.557 210.566 195.154 209.148 195.871C209.148 195.871 208.339 196.229 207.124 196.766C205.909 197.243 204.221 197.84 202.602 198.497C201.792 198.795 200.914 199.094 200.172 199.392C199.362 199.691 198.619 199.87 198.012 200.109C196.662 200.646 195.852 200.884 195.852 200.884Z" fill="#CBBCA9"/>
<path d="M165.547 207.988C167.707 207.57 173.647 202.138 179.721 199.452C185.863 196.826 193.287 194.08 199.429 191.931C199.227 192.349 198.754 193.244 197.877 194.438C196.999 195.572 195.717 196.945 194.097 198.378C190.79 201.243 185.795 204.048 179.518 205.123C179.518 205.123 178.641 205.302 177.359 205.6C176.076 205.899 174.321 206.316 172.567 206.615C170.812 206.973 169.057 207.331 167.775 207.57C166.425 207.809 165.547 207.988 165.547 207.988Z" fill="#CBBCA9"/>
<path d="M165.682 208.286C167.842 207.868 175.874 210.494 183.028 210.017C190.182 209.599 198.889 207.51 205.571 204.884C205.031 204.705 203.884 204.406 202.331 204.167C200.711 203.869 198.619 203.57 196.257 203.511C191.532 203.272 185.66 203.451 179.653 205.301C179.653 205.301 178.776 205.481 177.494 205.779C176.211 206.077 174.456 206.495 172.701 206.853C170.947 207.211 169.192 207.57 167.909 207.868C166.56 208.107 165.682 208.286 165.682 208.286Z" fill="#CBBCA9"/>
<path d="M303.235 35.9631C303.235 35.9631 302.02 38.5894 300.805 42.1111C300.13 43.8421 299.523 45.8118 298.983 47.7816C298.443 49.7513 298.038 51.7211 297.903 53.5117C297.768 55.3024 297.835 57.3318 298.038 59.5404C298.173 61.7489 298.443 64.0767 298.713 66.4046C298.915 68.7325 299.185 71.0604 299.388 73.1495C299.523 75.2983 299.658 77.2084 299.59 78.82C300.13 77.2681 300.805 75.4177 301.683 73.3883C302.493 71.3588 303.37 69.1503 304.18 66.8821C304.99 64.6139 305.732 62.2861 306.34 60.0776C306.812 57.9287 307.285 55.8396 307.42 53.9892C307.555 52.1389 307.352 50.1094 307.015 48.08C306.61 46.0506 306.137 44.0211 305.597 42.2305C304.45 38.5894 303.235 35.9631 303.235 35.9631Z" fill="#CBBCA9"/>
</svg>
