<svg width="178" height="95" viewBox="0 0 178 95" fill="none" xmlns="http://www.w3.org/2000/svg">
<path d="M74.1719 4.82459C74.1487 4.94162 74.107 4.98551 74.0469 4.95625L74.0817 4.78071C77.1307 5.95101 78.7719 7.94053 79.0054 10.7493L78.9857 12.0658H78.8539L78.9069 12.2414C78.8852 12.3877 78.5865 12.8412 78.0106 13.6019L78.1448 13.6458C76.2194 16.63 72.942 20.0971 68.3128 24.0468C63.0446 28.6695 57.8069 32.751 52.5998 36.2911C52.5998 36.2911 52.6599 36.3204 52.7801 36.3789C52.7089 36.7007 51.9962 37.0811 50.642 37.52C49.4429 38.6903 47.9642 39.5534 46.2059 40.1093L45.6278 39.9776C45.449 39.9191 45.1487 39.4948 44.7269 38.7049C44.7718 38.4416 44.8243 38.3245 44.8844 38.3538L44.8291 38.1344L44.8594 37.8711C47.7274 36.1156 50.483 34.17 53.1262 32.0342C53.0954 32.0049 53.1017 31.844 53.1451 31.5514C53.5305 31.6392 54.7956 30.8931 56.9402 29.3132L56.7902 28.9621L56.8599 28.611C57.1867 28.6988 59.0589 27.5139 62.4764 25.0562L66.4738 21.6331C72.4517 16.5715 75.9906 12.7827 77.0907 10.2665C76.6956 8.86214 75.473 7.88201 73.4227 7.32612C70.9268 6.65319 66.5983 7.07743 60.4369 8.59882C60.4571 8.42328 60.4972 8.35013 60.5573 8.37939C60.5139 8.67197 59.4057 9.05232 57.2327 9.52044C53.3676 10.6907 49.1688 12.4901 44.6365 14.9185L37.0485 19.4388L32.2253 23.0374L28.9712 25.539C22.8044 31.4783 19.4738 35.8962 18.9795 38.7927L18.8749 39.3193C18.5527 41.0162 20.4732 42.7424 24.6365 44.4979C25.5583 44.7612 26.3337 45.0245 26.9626 45.2879L26.9952 45.0684L27.5013 45.5073L27.6354 45.5512C27.6647 45.5512 27.7041 45.4634 27.7536 45.2879L28.1696 45.6828L28.6901 45.5512L28.6553 45.7267L28.9167 45.6828L29.6751 45.9023C29.8539 45.9608 29.9448 46.0193 29.9479 46.0778L30.1653 46.0339L31.7701 46.4728L32.3346 46.3411L32.2997 46.5167C32.4447 46.4874 32.5919 46.502 32.7415 46.5606C33.5724 46.7654 36.1177 47.2627 40.3774 48.0527L40.338 48.1405L40.5115 48.0966L45.5941 49.5009C50.914 50.9638 55.6784 53.0119 59.8871 55.645C61.69 57.0787 63.3107 58.6732 64.7493 60.4287C66.2623 63.6177 66.891 65.8559 66.6355 67.1433L66.4294 67.4066L66.5355 67.7577C65.7562 70.2446 63.8868 72.6145 60.9274 74.8673C59.2641 76.1254 57.7051 77.1348 56.2504 77.8954C56.2332 78.1295 55.8198 78.3489 55.0101 78.5537C54.9914 78.7585 54.1476 79.1535 52.4787 79.7387C51.3958 80.3238 49.3597 81.1723 46.3704 82.2841L41.3918 83.7323L39.0044 84.3029C39.0246 84.1273 39.0647 84.0542 39.1248 84.0834C39.0567 84.4638 36.8806 84.8734 32.5967 85.3123C31.6158 85.6048 30.1308 85.7804 28.1416 85.8389C28.1633 85.6926 28.2042 85.6341 28.2644 85.6633C28.2118 85.7804 26.6404 85.9852 23.5501 86.2778C23.5951 86.0144 23.5875 85.8681 23.5274 85.8389C23.4855 86.1607 23.1245 86.2631 22.4447 86.1461L22.4795 85.9705L18.5176 85.8389L18.5524 85.6633L17.7243 85.795L17.4008 85.4878C15.8697 85.3415 14.9108 85.2098 14.5238 85.0928L14.5193 85.005L14.3018 85.0489L13.4093 84.7856C13.1719 84.7271 13.0648 84.6393 13.088 84.5223C13.1759 84.5223 13.2098 84.6101 13.1896 84.7856C11.9565 84.1712 11.2953 83.8494 11.2059 83.8201C11.212 83.9371 11.0663 83.9518 10.7688 83.864C10.8122 83.5714 10.2459 83.1033 9.06998 82.4596C8.38706 82.2841 7.70685 80.7481 7.02938 77.8516L7.25365 77.9393C7.31624 76.8861 7.30208 76.3302 7.21116 76.2717C7.87982 73.3459 10.3619 70.3616 14.6573 67.3188L21.5785 63.5007C21.876 63.5885 22.3248 63.4861 22.9249 63.1935C23.8937 62.6669 24.4814 62.4182 24.688 62.4474L25.2684 62.623L24.9767 62.9302H24.8888C26.0409 62.5498 26.6642 62.1402 26.7587 61.7014C27.0562 61.7891 27.1918 61.8623 27.1656 61.9208L31.5381 60.6481C31.4901 60.8529 31.4653 60.9407 31.4638 60.9114C31.8002 60.6188 33.2153 60.2239 35.709 59.7265C35.6595 59.902 35.5901 59.9752 35.5007 59.9459C35.5719 59.6241 35.9166 59.4924 36.5349 59.5509L36.6091 59.2876L37.2335 59.4632L37.1661 59.8581H37.21C37.2393 59.8581 37.2656 59.7996 37.2888 59.6826C38.0642 59.9459 38.3713 60.5018 38.2102 61.3503C37.7354 61.2332 37.258 61.3503 36.7782 61.7014L36.3781 61.6136L36.4781 60.9992L36.7441 61.0431C36.7087 60.926 36.691 60.8675 36.691 60.8675L36.3417 60.9114C36.3619 60.7359 36.4021 60.6627 36.4622 60.692L36.3925 61.0431L36.5077 61.5697C33.0421 62.5352 29.6266 63.6177 26.261 64.8173C24.7123 65.461 23.5268 66.0461 22.7045 66.5728C21.3862 66.5728 18.232 68.4599 13.2421 72.2341C10.8934 74.3992 9.58975 76.0961 9.33118 77.3249C9.111 78.7293 9.53257 79.7972 10.5959 80.5286C11.7289 80.909 12.2853 81.1869 12.2651 81.3625C12.1757 81.3332 12.1426 81.2601 12.1658 81.143L13.5577 81.7136L14.2699 81.8891C14.3007 81.9184 14.3262 81.8452 14.3464 81.6697L14.8503 82.0647C20.0223 83.4983 28.3052 83.0594 39.699 80.7481C44.6204 79.607 49.7606 77.6029 55.1198 74.7356C55.3587 74.8234 55.9689 74.4431 56.9503 73.5946C61.415 70.9907 63.9091 68.2404 64.4328 65.3439C64.8141 63.0911 62.3086 60.2531 56.9163 56.83L52.7248 54.8112L52.7339 54.9867C51.863 54.5771 51.4392 54.3138 51.4625 54.1968C51.4933 54.2261 51.4971 54.2992 51.4738 54.4162L46.586 52.5291L45.5245 52.3975L40.0858 50.9053C40.0565 50.9053 40.0302 50.9638 40.007 51.0809C39.7095 50.9931 39.5723 50.8907 39.5956 50.7737L36.6285 50.3348L36.6679 50.247C36.2623 50.3348 35.3311 50.1739 33.8743 49.7643L33.3841 49.6326L32.7757 49.7643C32.7959 49.5887 32.8507 49.5156 32.9401 49.5448C32.8876 49.6619 32.7272 49.6765 32.459 49.5887L32.4544 49.5009L32.237 49.5448L32.0566 49.4571C31.8485 49.3985 31.7429 49.34 31.7399 49.2815L31.5225 49.3254L25.0155 47.5699L24.2941 47.2189L24.2593 47.3944L22.5348 46.3411C22.5393 46.4289 22.3789 46.4435 22.0536 46.385C22.1016 46.1802 21.2942 45.5804 19.6313 44.5857C17.3405 42.2158 16.3996 39.8898 16.8087 37.6077L17.0412 36.1595C17.3371 34.5211 18.7723 32.2536 21.3468 29.3571C21.2882 29.3571 21.2822 29.2401 21.3286 29.006C21.9534 28.6257 23.1773 27.3676 25.0002 25.2318C27.5974 22.7741 31.3438 19.8776 36.2392 16.5423C36.3888 16.6008 37.9361 15.6499 40.8814 13.6896C48.0827 9.62284 53.399 7.34075 56.8303 6.84337C58.4022 6.08267 61.176 5.3366 65.1517 4.60516C68.8775 4.13704 71.8842 4.21018 74.1719 4.82459ZM38.7155 60.0776L39.1618 60.2092L39.0618 60.8236L38.6155 60.692L38.7155 60.0776ZM37.2396 60.4287L37.3297 60.4725L37.3252 60.3848C37.2666 60.3848 37.2381 60.3994 37.2396 60.4287ZM25.3729 62.0963L25.7752 62.228L25.6752 62.8424L25.229 62.7108L25.3729 62.0963Z" fill="#302E39"/>
<path d="M102.925 40.6798H103.145L103.167 41.1186H102.948L102.925 40.6798ZM103.76 40.6798H103.98L104.023 41.5136H104.418L104.43 41.7331L104.066 42.3475H104.286C104.278 42.2012 104.333 42.128 104.45 42.128L104.462 42.3475L104.306 42.7424C104.423 42.7424 104.486 42.8156 104.493 42.9619C104.2 42.9619 103.698 43.7226 102.986 45.244C102.634 45.244 102.264 45.4488 101.875 45.8584L101.426 45.6828C101.469 46.502 101.212 46.9117 100.655 46.9117C100.678 47.3505 98.6908 49.4278 94.694 53.1435C92.5615 54.9575 90.543 55.8645 88.6387 55.8645H88.419C86.2217 55.8645 85.0443 54.3431 84.8865 51.3003C85.2633 50.6566 85.4472 50.247 85.4381 50.0715L85.8427 50.247C85.8306 50.013 85.9558 49.6033 86.2184 49.0182H85.9987C86.0139 49.3108 85.875 49.4571 85.582 49.4571L85.5593 49.0182L85.9669 48.4038L85.9464 48.0088C79.9454 54.8843 75.7144 58.3221 73.2534 58.3221H73.0337C71.2173 58.3221 70.1378 57.5614 69.7953 56.04L69.3679 55.4256L69.3361 54.8112C69.3905 50.7737 72.078 45.5365 77.3987 39.0999C80.7 35.5304 83.713 33.7457 86.4376 33.7457C89.3986 34.916 90.9383 36.6422 91.0566 38.9243C90.8566 40.1531 90.5369 40.7676 90.0974 40.7676C88.9543 39.6265 88.3479 38.3831 88.2781 37.0372C87.6634 36.4813 86.8872 36.2034 85.9497 36.2034C84.6021 36.2034 82.0839 38.2075 78.3952 42.2158C78.5416 42.2158 78.6187 42.2889 78.6263 42.4352C78.3919 42.4352 77.8603 42.918 77.0314 43.8835H77.2511C76.391 45.3756 75.7412 46.1217 75.3017 46.1217L75.3131 46.3411C75.3207 46.4874 75.3977 46.5606 75.5442 46.5606C75.0002 47.9357 74.406 48.6232 73.7615 48.6232L73.7728 48.8427H74.2123L74.2214 49.0182C73.8991 49.0182 73.5099 49.7058 73.0539 51.0809C73.2004 51.0809 73.2774 51.154 73.285 51.3003C73.0213 51.3003 72.8412 51.783 72.7448 52.7485L72.3379 52.5291L72.3493 52.7485C72.4801 53.0119 72.5493 53.2167 72.5569 53.363L72.1728 53.5824C72.1652 53.4361 72.0882 53.363 71.9417 53.363L71.9531 53.5824C72.0996 53.5824 72.1758 53.6409 72.1819 53.7579H71.9622C71.9698 53.9042 72.0468 53.9774 72.1933 53.9774L72.0281 55.0306L72.0918 56.2595C73.7032 56.2595 76.5623 54.0505 80.6692 49.6326C85.0712 44.6881 87.7555 42.2158 88.7223 42.2158H89.1618C89.3668 42.2158 89.7982 42.6254 90.4559 43.4446L90.5105 44.4979C90.1721 45.3171 89.915 45.7267 89.7392 45.7267C89.7317 45.5804 89.6693 45.5073 89.5521 45.5073L89.7506 45.9461L89.387 46.5606L89.4188 47.175C89.0177 47.3505 88.8339 47.7601 88.8673 48.4038L88.4164 48.1844L88.4278 48.4038H88.6475C88.2425 49.6326 87.9374 50.247 87.7323 50.247L87.9309 50.6859L87.9422 50.9053C87.5321 50.9053 87.3376 51.1101 87.3588 51.5197C87.519 51.783 87.6028 51.9878 87.6104 52.1341C87.319 52.1634 87.1793 52.295 87.1914 52.5291L87.246 53.5824H88.3007L88.6849 53.363L88.6962 53.5824C90.0535 53.202 91.5375 52.4413 93.1483 51.3003C93.9554 50.4811 94.9585 49.4863 96.1576 48.316C96.8183 47.4968 97.4903 46.897 98.1737 46.5167C98.1798 46.6337 98.2561 46.6922 98.4026 46.6922L98.1624 46.2972L98.151 46.0778H98.986C98.9784 45.9315 98.9013 45.8584 98.7549 45.8584C98.7382 45.5365 99.7469 44.3662 101.781 42.3475C102.167 41.8793 102.354 41.5283 102.342 41.2942H102.781L103.188 41.5136C103.218 40.9577 103.408 40.6798 103.76 40.6798ZM103.252 42.7424L103.274 43.1813H103.494L103.471 42.7424H103.252ZM99.6012 46.0778L99.6126 46.2972C100.023 46.2972 100.235 46.4289 100.248 46.6922H100.468L100.459 46.5167C100.297 46.2241 100.213 46.0047 100.205 45.8584C99.949 46.0047 99.7477 46.0778 99.6012 46.0778ZM86.1752 48.1844L86.198 48.6232H86.3738L86.351 48.1844H86.1752Z" fill="#302E39"/>
<path d="M129.38 40.6798H129.6L129.622 41.1186H129.403L129.38 40.6798ZM130.215 40.6798H130.435L130.478 41.5136H130.873L130.885 41.7331L130.521 42.3475H130.741C130.733 42.2012 130.788 42.128 130.905 42.128L130.917 42.3475L130.761 42.7424C130.879 42.7424 130.941 42.8156 130.948 42.9619C130.656 42.9619 130.153 43.7226 129.441 45.244C129.089 45.244 128.719 45.4488 128.33 45.8584L127.881 45.6828C127.924 46.502 127.667 46.9117 127.11 46.9117C127.133 47.3505 125.146 49.4278 121.149 53.1435C119.017 54.9575 116.998 55.8645 115.094 55.8645H114.874C112.677 55.8645 111.499 54.3431 111.342 51.3003C111.718 50.6566 111.902 50.247 111.893 50.0715L112.298 50.247C112.286 50.013 112.411 49.6033 112.674 49.0182H112.454C112.469 49.3108 112.33 49.4571 112.037 49.4571L112.014 49.0182L112.422 48.4038L112.401 48.0088C106.4 54.8843 102.169 58.3221 99.7085 58.3221H99.4888C97.6724 58.3221 96.5929 57.5614 96.2504 56.04L95.823 55.4256L95.7912 54.8112C95.8456 50.7737 98.5331 45.5365 103.854 39.0999C107.155 35.5304 110.168 33.7457 112.893 33.7457C115.854 34.916 117.393 36.6422 117.512 38.9243C117.312 40.1531 116.992 40.7676 116.553 40.7676C115.409 39.6265 114.803 38.3831 114.733 37.0372C114.118 36.4813 113.342 36.2034 112.405 36.2034C111.057 36.2034 108.539 38.2075 104.85 42.2158C104.997 42.2158 105.074 42.2889 105.081 42.4352C104.847 42.4352 104.315 42.918 103.486 43.8835H103.706C102.846 45.3756 102.196 46.1217 101.757 46.1217L101.768 46.3411C101.776 46.4874 101.853 46.5606 101.999 46.5606C101.455 47.9357 100.861 48.6232 100.217 48.6232L100.228 48.8427H100.667L100.676 49.0182C100.354 49.0182 99.965 49.7058 99.509 51.0809C99.6554 51.0809 99.7325 51.154 99.7401 51.3003C99.4764 51.3003 99.2963 51.783 99.1999 52.7485L98.793 52.5291L98.8044 52.7485C98.9352 53.0119 99.0044 53.2167 99.012 53.363L98.6279 53.5824C98.6203 53.4361 98.5433 53.363 98.3968 53.363L98.4081 53.5824C98.5546 53.5824 98.6309 53.6409 98.637 53.7579H98.4172C98.4248 53.9042 98.5019 53.9774 98.6483 53.9774L98.4832 55.0306L98.5469 56.2595C100.158 56.2595 103.017 54.0505 107.124 49.6326C111.526 44.6881 114.211 42.2158 115.177 42.2158H115.617C115.822 42.2158 116.253 42.6254 116.911 43.4446L116.966 44.4979C116.627 45.3171 116.37 45.7267 116.194 45.7267C116.187 45.5804 116.124 45.5073 116.007 45.5073L116.206 45.9461L115.842 46.5606L115.874 47.175C115.473 47.3505 115.289 47.7601 115.322 48.4038L114.872 48.1844L114.883 48.4038H115.103C114.698 49.6326 114.392 50.247 114.187 50.247L114.386 50.6859L114.397 50.9053C113.987 50.9053 113.793 51.1101 113.814 51.5197C113.974 51.783 114.058 51.9878 114.065 52.1341C113.774 52.1634 113.634 52.295 113.647 52.5291L113.701 53.5824H114.756L115.14 53.363L115.151 53.5824C116.509 53.202 117.993 52.4413 119.603 51.3003C120.41 50.4811 121.414 49.4863 122.613 48.316C123.273 47.4968 123.945 46.897 124.629 46.5167C124.635 46.6337 124.711 46.6922 124.858 46.6922L124.617 46.2972L124.606 46.0778H125.441C125.433 45.9315 125.356 45.8584 125.21 45.8584C125.193 45.5365 126.202 44.3662 128.236 42.3475C128.622 41.8793 128.809 41.5283 128.797 41.2942H129.236L129.643 41.5136C129.673 40.9577 129.863 40.6798 130.215 40.6798ZM129.707 42.7424L129.729 43.1813H129.949L129.926 42.7424H129.707ZM126.056 46.0778L126.068 46.2972C126.478 46.2972 126.69 46.4289 126.703 46.6922H126.923L126.914 46.5167C126.752 46.2241 126.668 46.0047 126.66 45.8584C126.404 46.0047 126.203 46.0778 126.056 46.0778ZM112.63 48.1844L112.653 48.6232H112.829L112.806 48.1844H112.63Z" fill="#302E39"/>
<path d="M138.812 35.2818C139.048 35.311 139.219 35.5012 139.325 35.8523C139.237 35.8523 139.196 35.8962 139.2 35.9839L139.457 35.8523H139.545C139.551 35.9693 139.647 36.1302 139.833 36.335L140.046 36.2034H140.178C140.19 36.4374 140.079 36.5545 139.845 36.5545L139.859 36.8178C140.151 36.8178 140.398 37.0518 140.598 37.52L140.621 37.9588L139.657 39.7143L139.668 39.9337C139.727 39.9337 139.759 39.9776 139.763 40.0654C139.595 40.2117 139.452 40.2848 139.335 40.2848L139.437 40.5481L139.441 40.6359L139.24 40.987C139.328 40.987 139.374 41.0309 139.378 41.1186H139.246L139.39 41.3381L139.403 41.6014H139.14L139.301 42.1719L139.088 42.3036L139.187 42.523L139.194 42.6547C138.903 42.6839 138.762 42.7863 138.771 42.9619H138.859C138.868 43.1374 138.654 43.5324 138.217 44.1468H138.349C138.37 44.0005 138.44 43.9274 138.557 43.9274L138.568 44.1468C138.347 45.5219 138.138 47.4237 137.941 49.852H137.81C137.814 49.9398 137.86 49.9837 137.948 49.9837L137.669 51.3881C137.757 51.3881 137.804 51.4319 137.808 51.5197C137.632 51.5197 137.548 51.5929 137.556 51.7392L137.574 52.0902H137.838L137.849 52.3097H137.585L137.604 52.6608C137.425 53.7433 137.341 54.3723 137.35 54.5479C137.203 54.5479 137.124 54.4309 137.112 54.1968L137.23 53.9335L137.225 53.8457H137.094C137.101 53.992 137.032 54.0651 136.885 54.0651C137.085 54.5333 137.244 54.7673 137.361 54.7673C137.285 55.5573 137.159 55.9522 136.983 55.9522C136.837 55.9522 136.767 56.0254 136.775 56.1717L136.793 56.5228H136.881L136.856 56.04H137.076C136.892 57.5907 136.742 58.366 136.625 58.366C136.629 58.4538 136.676 58.4977 136.763 58.4977C136.776 58.7317 136.331 60.6042 135.429 64.1151H135.165L135.158 63.9835L135.279 63.764H134.795C134.891 63.9103 134.941 64.0273 134.945 64.1151H134.813L134.957 64.3346L134.836 64.554H134.968C134.99 64.4077 135.059 64.3346 135.176 64.3346L135.188 64.554L134.531 67.1433H134.179L133.909 67.0116L133.835 67.2749L133.839 67.3627C134.074 67.3627 134.197 67.4797 134.209 67.7138C134.062 68.2697 133.915 68.5476 133.769 68.5476L133.912 68.7671C133.87 69.0889 133.65 69.3669 133.252 69.6009L133.351 69.8204C133.073 70.6688 132.861 71.0931 132.714 71.0931L132.86 71.3564C132.479 71.3564 132.294 71.4734 132.307 71.7075H132.175L131.948 71.5758L131.955 71.7075C132.043 71.7075 132.088 71.7367 132.091 71.7952C131.916 71.7952 131.83 71.8391 131.835 71.9269L131.864 72.4974H131.644L131.788 72.7169L131.468 73.3313C131.527 73.3313 131.557 73.3605 131.56 73.419C131.326 73.419 131.213 73.5068 131.222 73.6824C131.31 73.6824 131.356 73.7116 131.359 73.7701C131.095 73.7701 130.917 74.0042 130.824 74.4723H130.692L130.838 74.7356L130.842 74.8234L130.574 74.7356L130.578 74.8234L130.724 75.0867C130.402 75.0867 130.137 75.35 129.93 75.8767C129.796 76.1107 129.655 76.2278 129.509 76.2278L129.61 76.4911C129.376 76.4911 129.042 76.8275 128.608 77.5005C126.999 78.6708 126.062 79.2559 125.798 79.2559C125.371 79.49 124.867 79.6509 124.285 79.7387L124.274 79.5192L123.934 79.7387L123.571 79.5192C123.574 79.5778 123.546 79.607 123.488 79.607C123.485 79.5485 123.196 79.3583 122.623 79.0365L122.612 78.8171H122.963L122.956 78.6854C122.81 78.6854 122.734 78.6415 122.73 78.5537L122.517 78.6854H122.385L121.114 77.0616C121.108 76.9446 120.979 76.7105 120.726 76.3594C120.716 76.1546 120.616 75.6426 120.427 74.8234L120.654 74.9551L120.647 74.8234C120.576 74.5893 120.497 74.4723 120.409 74.4723L120.606 74.0334H120.518L120.592 73.7701L120.463 72.9802C120.698 72.9802 120.908 72.5121 121.094 71.5758H121.445L121.302 71.3564L121.295 71.2247H121.515L121.416 71.0053C121.533 71.0053 121.753 70.7273 122.076 70.1714L122.069 70.0398L121.907 69.4693H122.039L122.266 69.6009L122.252 69.3376L122.109 69.1182C122.49 69.1182 122.67 68.928 122.651 68.5476H122.914C122.751 68.7817 122.675 69.0158 122.687 69.2498L122.692 69.3376L122.837 69.6009H122.485L122.49 69.6887H122.973C123.114 69.5717 123.181 69.4546 123.175 69.3376H123.307L123.438 70.1714C123.35 70.1714 123.174 70.4494 122.91 71.0053L123.053 71.2247L122.951 71.7952H122.819L122.808 71.5758H122.72C122.738 71.9269 122.595 72.278 122.291 72.6291C122.294 72.6876 122.339 72.7169 122.427 72.7169C122.415 73.0387 122.306 73.1996 122.101 73.1996L122.244 73.419C122.273 73.9749 122.17 74.2529 121.936 74.2529L122.174 74.604L122.199 75.0867L121.62 74.9551L121.645 75.4378C121.893 75.7011 122.027 76.0083 122.045 76.3594L122.258 76.2278C122.392 76.5496 122.594 76.7837 122.865 76.9299C123.949 76.9299 125.049 76.3887 126.165 75.3062C126.341 75.3062 127.045 74.4869 128.279 72.8485C128.265 72.5852 128.551 72.161 129.136 71.5758C129.14 71.6636 129.186 71.7075 129.274 71.7075L129.129 71.4441L129.124 71.3564L129.349 71.4441H129.48C129.468 71.2101 129.722 70.742 130.243 70.0398H130.111L129.898 70.1714L129.891 70.0398C129.885 69.9228 129.996 69.8057 130.224 69.6887C130.229 69.7765 130.261 69.8204 130.319 69.8204C130.309 69.6155 130.495 69.2645 130.88 68.7671C131.764 66.602 132.2 65.4025 132.187 65.1684C132.305 65.1684 132.413 65.0075 132.514 64.6856H132.382C132.387 64.7734 132.36 64.8173 132.301 64.8173L132.269 64.2029H132.489C132.486 64.1444 132.44 64.1151 132.353 64.1151C133.364 62.1549 133.874 60.6774 133.881 59.6826H133.793L133.867 59.4193C133.801 59.273 133.765 59.156 133.761 59.0682C133.995 59.0682 134.263 58.2929 134.563 56.7422C134.475 56.7422 134.43 56.7129 134.427 56.6544C134.598 56.5667 134.713 56.5228 134.771 56.5228L134.765 56.3911L134.636 55.6012C134.812 55.6012 134.918 55.3964 134.956 54.9867L134.812 54.7673C134.8 54.5333 134.901 54.2261 135.116 53.8457C135.028 53.8457 134.982 53.8018 134.977 53.714C135.153 53.714 135.255 53.4068 135.281 52.7924C135.369 52.7924 135.411 52.7485 135.406 52.6608L135.402 52.573L135.256 52.3097C135.344 52.3097 135.387 52.2804 135.384 52.2219H135.252C135.522 51.2271 135.653 50.642 135.644 50.4664H135.512L135.827 49.7643L135.601 49.6326C135.694 48.6086 135.829 48.0966 136.005 48.0966L135.861 47.8772L135.843 47.5261C135.99 47.5261 136.061 47.4968 136.058 47.4383L135.957 47.175C136.162 46.6191 136.264 46.3119 136.261 46.2534C136.085 46.2534 135.993 46.1802 135.986 46.0339C136.157 45.9461 136.272 45.9023 136.33 45.9023L136.231 45.6828C136.378 45.6828 136.446 45.5951 136.437 45.4195C136.086 45.4195 135.713 45.8584 135.319 46.7361H135.231L135.33 46.9555C134.725 48.2721 134.29 48.9304 134.026 48.9304L134.033 49.0621L134.176 49.2815C133.446 50.4518 132.964 51.037 132.729 51.037C132.734 51.1247 132.78 51.1686 132.868 51.1686C131.78 52.7778 130.71 53.9042 129.659 54.5479C129.337 54.5479 129.18 54.621 129.187 54.7673H128.968L128.271 54.899C128.12 54.8112 128.001 54.7673 127.913 54.7673C127.837 55.0014 127.609 55.1184 127.228 55.1184C127.22 54.9721 126.904 54.8112 126.28 54.6357C125.792 54.2553 125.516 53.4507 125.452 52.2219C125.364 52.2219 125.273 51.8708 125.178 51.1686H125.265L125.164 50.9053L125.153 50.6859H125.372L125.211 50.1154L125.197 49.852L125.468 49.9837L125.324 49.7643L125.318 49.6326L125.544 49.7643L125.537 49.6326H125.45C125.501 49.4863 125.524 49.3693 125.519 49.2815L125.42 49.0621C125.408 48.828 125.519 48.711 125.753 48.711L125.608 48.4477L125.603 48.3599C125.75 48.3599 125.821 48.316 125.816 48.2282L125.717 48.0088C125.861 47.3944 125.991 47.0872 126.109 47.0872L126.12 47.3066H126.252L126.245 47.175C126.151 47.0579 126.099 46.9117 126.09 46.7361L126.347 46.6044C126.352 46.6922 126.383 46.7361 126.442 46.7361L126.435 46.6044C126.369 46.4582 126.331 46.2972 126.322 46.1217C126.615 46.1217 126.756 46.0047 126.743 45.7706C126.597 45.7706 126.522 45.7413 126.519 45.6828C127.171 44.6881 127.492 44.1029 127.483 43.9274C127.573 43.4007 127.846 42.7424 128.303 41.9525H128.084L128.077 41.8208C128.069 41.6745 128.139 41.6014 128.285 41.6014C128.288 41.6599 128.334 41.6892 128.422 41.6892L128.934 40.5481H128.714C128.814 40.2263 128.923 40.0654 129.041 40.0654L129.047 40.197L128.927 40.4165H129.059L129.455 39.5826H129.367C129.376 39.7582 129.293 39.8459 129.117 39.8459L129.11 39.7143L129.432 39.1438L129.7 39.2315L130.122 38.8804L130.623 39.2315C130.645 39.0852 130.714 39.0121 130.832 39.0121H130.963C130.968 39.0999 131.248 39.4071 131.802 39.9337C131.848 40.2555 131.944 40.4165 132.091 40.4165L130.919 42.3914C130.931 42.6254 130.849 42.7424 130.673 42.7424L130.817 42.9619C130.729 42.9619 130.41 43.5909 129.86 44.849L129.395 45.2001L129.401 45.3317L129.545 45.5512C129.4 45.5804 129.33 45.6536 129.336 45.7706C129.395 45.7706 129.426 45.8145 129.431 45.9023C129.289 45.99 129.174 46.0339 129.086 46.0339L129.116 46.6044C129.008 46.78 128.887 47.2774 128.754 48.0966L128.485 48.0088L128.409 48.2282L128.439 48.7988C128.292 48.7988 128.104 49.1206 127.873 49.7643L127.892 50.1154C127.833 50.1154 127.813 50.3055 127.833 50.6859L127.47 50.4664L127.482 50.6859H127.701L127.708 50.8175C127.711 50.8761 127.669 50.9053 127.581 50.9053L127.726 51.1686L127.731 51.2564H127.511L127.613 51.5197L127.411 51.8708L127.429 52.2219H127.561C128.814 51.5197 130.13 50.0715 131.511 47.8772L131.412 47.6577L131.405 47.5261C131.397 47.3798 131.467 47.3066 131.613 47.3066L131.624 47.5261H131.756C132.093 46.6776 132.486 46.0632 132.935 45.6828L132.79 45.4195C132.966 45.4195 133.228 45.1123 133.577 44.4979L133.434 44.2785L133.427 44.1468C133.632 44.1468 133.739 43.9566 133.749 43.5763C134.065 43.4593 134.22 43.3422 134.214 43.2252L134.069 42.9619C134.274 42.9619 134.578 42.6254 134.983 41.9525L134.838 41.6892C135.018 41.221 135.197 40.987 135.372 40.987C135.363 40.8114 135.326 40.6652 135.262 40.5481C135.311 40.3726 135.335 40.2555 135.332 40.197H135.463L135.688 40.2848C135.676 40.0507 135.787 39.9337 136.021 39.9337L135.922 39.7143C136.215 39.7143 136.355 39.5973 136.343 39.3632L136.2 39.1438C136.49 39.0852 136.794 38.7342 137.112 38.0905L138.164 36.335C138.105 36.335 138.073 36.2911 138.069 36.2034C138.215 36.2034 138.285 36.1302 138.277 35.9839C138.189 35.9839 138.143 35.9401 138.139 35.8523C138.314 35.8523 138.395 35.706 138.379 35.4134L138.604 35.5012C138.75 35.5012 138.82 35.428 138.812 35.2818ZM129.029 39.8459H129.117L129.128 40.0654H129.041L129.029 39.8459ZM128.385 40.987H128.605C128.614 41.1625 128.545 41.2503 128.399 41.2503L128.385 40.987ZM137.657 44.3662L137.675 44.7173H137.807L137.789 44.3662H137.657ZM135.818 44.4979L135.698 44.7173C135.841 44.6588 135.957 44.6296 136.045 44.6296L136.038 44.4979H135.818ZM136.181 44.7173L136.188 44.849H136.408L136.401 44.7173H136.181ZM137.927 45.3317C137.936 45.5073 137.914 45.6536 137.862 45.7706H138.081C138.078 45.7121 138.116 45.5951 138.195 45.4195L137.927 45.3317ZM137.506 45.6828L137.51 45.7706H137.73L137.725 45.6828H137.506ZM134.514 46.4728L134.528 46.7361H134.616L134.602 46.4728H134.514ZM135.927 46.6044H136.015L136.027 46.8239H135.939L135.927 46.6044ZM136.728 53.5824H136.86C137.007 53.5824 137.076 53.5092 137.069 53.363H136.937C136.792 53.3922 136.722 53.4654 136.728 53.5824ZM136.94 55.1184L136.951 55.3378H137.039L137.028 55.1184H136.94ZM136.387 55.4695L136.486 55.6889C136.495 55.8645 136.426 55.9522 136.28 55.9522L136.423 56.1717L136.178 56.5228H136.529C136.525 56.435 136.493 56.3911 136.435 56.3911L136.511 56.1717L136.412 55.9522C136.646 55.9522 136.759 55.8645 136.75 55.6889L136.732 55.3378H136.6L136.387 55.4695ZM136.185 56.6544C136.188 56.7129 136.164 56.83 136.115 57.0055H136.203L136.321 56.7422L136.316 56.6544H136.185ZM136.244 57.7955C136.339 57.9418 136.393 58.1319 136.405 58.366H136.537L136.595 57.7955L136.588 57.6638C136.447 57.7516 136.332 57.7955 136.244 57.7955ZM136.229 59.1998L136.235 59.3315C136.382 59.3315 136.451 59.2437 136.442 59.0682L136.437 58.9804C136.29 58.9804 136.221 59.0536 136.229 59.1998ZM135.95 60.6042L135.961 60.8236H136.049L136.038 60.6042H135.95ZM135.389 61.6575L135.396 61.7891H135.66C135.661 61.8184 135.625 61.9647 135.551 62.228L135.557 62.3597H135.689C135.81 61.8623 135.865 61.5112 135.854 61.3064C135.661 61.5405 135.506 61.6575 135.389 61.6575ZM135.079 62.4474L135.085 62.5791L135.448 62.7985H135.58L135.569 62.5791C135.393 62.5791 135.23 62.5352 135.079 62.4474ZM135.009 62.7985L135.016 62.9302H135.235L135.229 62.7985H135.009ZM135.115 63.1496L135.133 63.5007C135.309 63.5007 135.393 63.4276 135.385 63.2813L135.379 63.1496H135.115ZM133.755 65.7389L133.635 65.9583H133.766L133.843 65.7389H133.755ZM134.465 65.8706L134.476 66.09H134.564L134.553 65.8706H134.465ZM132.04 66.5728C132.053 66.8068 132.015 66.9238 131.927 66.9238C132.059 67.2164 132.184 67.3627 132.301 67.3627H132.433L132.422 67.1433H132.202L132.19 66.9238L132.415 67.0116H132.503C132.288 66.8361 132.178 66.6898 132.172 66.5728H132.04ZM133.451 66.6605L133.206 67.0116H133.689L133.685 66.9238C133.676 66.7483 133.598 66.6605 133.451 66.6605ZM133.136 67.3627L133.147 67.5821H133.367C133.36 67.4359 133.283 67.3627 133.136 67.3627ZM133.594 67.7138C133.604 67.9186 133.388 68.2697 132.945 68.7671L132.952 68.8987L133.209 68.7671H133.56C133.693 68.5038 133.754 68.2697 133.744 68.0649L133.726 67.7138H133.594ZM131.887 67.8455L131.766 68.0649H131.898L131.975 67.8455H131.887ZM123.383 69.1182H123.515L123.742 69.2498C123.691 69.3961 123.667 69.5131 123.672 69.6009H123.408L123.402 69.4693L123.522 69.2498C123.434 69.2498 123.388 69.2059 123.383 69.1182ZM130.941 69.952L130.821 70.1714H130.953L131.029 69.952H130.941ZM121.969 70.6542C122.064 70.8005 122.114 70.9175 122.119 71.0053C122.052 71.4149 122.02 71.649 122.023 71.7075L122.028 71.7952H122.16C122.276 71.2101 122.442 70.742 122.658 70.3909H122.526L122.647 70.1714L122.64 70.0398C122.427 70.4494 122.203 70.6542 121.969 70.6542ZM130.626 70.6542L130.631 70.742H130.718L130.828 70.3031C130.681 70.3031 130.614 70.4201 130.626 70.6542ZM132.483 70.8736C132.625 70.7859 132.74 70.742 132.828 70.742L132.81 70.3909C132.692 70.3909 132.584 70.5518 132.483 70.8736ZM121.658 71.4441L121.457 71.7952H121.545L121.79 71.4441H121.658ZM129.626 71.7075L129.505 71.9269H129.637C129.633 71.8391 129.66 71.7952 129.718 71.7952L129.725 71.9269C129.733 72.0732 129.663 72.1463 129.517 72.1463C129.612 72.2926 129.662 72.4096 129.667 72.4974C129.784 72.4974 129.895 72.3804 130 72.1463L129.982 71.7952C129.894 71.7952 129.775 71.766 129.626 71.7075ZM121.815 71.9269C121.829 72.1902 121.795 72.3804 121.713 72.4974C121.808 72.6437 121.858 72.7607 121.863 72.8485H121.951C121.94 72.6437 122.012 72.3365 122.167 71.9269H121.815ZM129.213 73.0679H129.345C129.491 73.0679 129.561 72.9948 129.553 72.8485H129.421C129.276 72.8778 129.207 72.9509 129.213 73.0679ZM131.11 73.1996H131.329L131.318 72.9802C131.171 72.9802 131.102 73.0533 131.11 73.1996ZM131.669 72.9802C131.816 72.9802 131.893 73.0533 131.901 73.1996H131.681L131.669 72.9802ZM121.566 73.9018L121.464 74.4723C121.61 74.4723 121.677 74.3553 121.665 74.1212L121.654 73.9018H121.566ZM126.272 74.8234H126.404L126.417 75.0867H126.285L126.272 74.8234ZM127.025 75.7889H127.245L127.231 75.5256C127.086 75.5548 127.017 75.6426 127.025 75.7889ZM126.673 75.7889C126.686 76.023 126.618 76.14 126.472 76.14L126.483 76.3594C126.764 76.1254 126.948 76.0083 127.036 76.0083L127.03 75.8767C126.942 75.8767 126.823 75.8474 126.673 75.7889ZM125.345 77.281L125.351 77.4127H125.571L125.564 77.281H125.345Z" fill="#302E39"/>
<path d="M170.425 40.6798H170.645L170.667 41.1186H170.448L170.425 40.6798ZM171.26 40.6798H171.48L171.523 41.5136H171.918L171.93 41.7331L171.566 42.3475H171.786C171.778 42.2012 171.833 42.128 171.95 42.128L171.962 42.3475L171.806 42.7424C171.923 42.7424 171.986 42.8156 171.993 42.9619C171.7 42.9619 171.198 43.7226 170.486 45.244C170.134 45.244 169.764 45.4488 169.375 45.8584L168.926 45.6828C168.969 46.502 168.712 46.9117 168.155 46.9117C168.178 47.3505 166.191 49.4278 162.194 53.1435C160.061 54.9575 158.043 55.8645 156.139 55.8645H155.919C153.722 55.8645 152.544 54.3431 152.387 51.3003C152.763 50.6566 152.947 50.247 152.938 50.0715L153.343 50.247C153.331 50.013 153.456 49.6033 153.718 49.0182H153.499C153.514 49.3108 153.375 49.4571 153.082 49.4571L153.059 49.0182L153.467 48.4038L153.446 48.0088C147.445 54.8843 143.214 58.3221 140.753 58.3221H140.534C138.717 58.3221 137.638 57.5614 137.295 56.04L136.868 55.4256L136.836 54.8112C136.89 50.7737 139.578 45.5365 144.899 39.0999C148.2 35.5304 151.213 33.7457 153.938 33.7457C156.899 34.916 158.438 36.6422 158.557 38.9243C158.357 40.1531 158.037 40.7676 157.597 40.7676C156.454 39.6265 155.848 38.3831 155.778 37.0372C155.163 36.4813 154.387 36.2034 153.45 36.2034C152.102 36.2034 149.584 38.2075 145.895 42.2158C146.042 42.2158 146.119 42.2889 146.126 42.4352C145.892 42.4352 145.36 42.918 144.531 43.8835H144.751C143.891 45.3756 143.241 46.1217 142.802 46.1217L142.813 46.3411C142.821 46.4874 142.898 46.5606 143.044 46.5606C142.5 47.9357 141.906 48.6232 141.261 48.6232L141.273 48.8427H141.712L141.721 49.0182C141.399 49.0182 141.01 49.7058 140.554 51.0809C140.7 51.0809 140.777 51.154 140.785 51.3003C140.521 51.3003 140.341 51.783 140.245 52.7485L139.838 52.5291L139.849 52.7485C139.98 53.0119 140.049 53.2167 140.057 53.363L139.673 53.5824C139.665 53.4361 139.588 53.363 139.442 53.363L139.453 53.5824C139.6 53.5824 139.676 53.6409 139.682 53.7579H139.462C139.47 53.9042 139.547 53.9774 139.693 53.9774L139.528 55.0306L139.592 56.2595C141.203 56.2595 144.062 54.0505 148.169 49.6326C152.571 44.6881 155.255 42.2158 156.222 42.2158H156.662C156.867 42.2158 157.298 42.6254 157.956 43.4446L158.011 44.4979C157.672 45.3171 157.415 45.7267 157.239 45.7267C157.232 45.5804 157.169 45.5073 157.052 45.5073L157.251 45.9461L156.887 46.5606L156.919 47.175C156.518 47.3505 156.334 47.7601 156.367 48.4038L155.916 48.1844L155.928 48.4038H156.148C155.742 49.6326 155.437 50.247 155.232 50.247L155.431 50.6859L155.442 50.9053C155.032 50.9053 154.838 51.1101 154.859 51.5197C155.019 51.783 155.103 51.9878 155.11 52.1341C154.819 52.1634 154.679 52.295 154.691 52.5291L154.746 53.5824H155.801L156.185 53.363L156.196 53.5824C157.553 53.202 159.037 52.4413 160.648 51.3003C161.455 50.4811 162.459 49.4863 163.658 48.316C164.318 47.4968 164.99 46.897 165.674 46.5167C165.68 46.6337 165.756 46.6922 165.903 46.6922L165.662 46.2972L165.651 46.0778H166.486C166.478 45.9315 166.401 45.8584 166.255 45.8584C166.238 45.5365 167.247 44.3662 169.281 42.3475C169.667 41.8793 169.854 41.5283 169.842 41.2942H170.281L170.688 41.5136C170.718 40.9577 170.908 40.6798 171.26 40.6798ZM170.752 42.7424L170.774 43.1813H170.994L170.971 42.7424H170.752ZM167.101 46.0778L167.113 46.2972C167.523 46.2972 167.735 46.4289 167.748 46.6922H167.968L167.959 46.5167C167.797 46.2241 167.713 46.0047 167.705 45.8584C167.449 46.0047 167.248 46.0778 167.101 46.0778ZM153.675 48.1844L153.698 48.6232H153.874L153.851 48.1844H153.675Z" fill="#302E39"/>
</svg>
