<svg width="84" height="540" viewBox="0 0 84 540" fill="none" xmlns="http://www.w3.org/2000/svg">
<g opacity="0.04">
<path d="M44.9999 19.7002C44.9999 21.4335 44.9666 23.2335 44.8999 25.1002C44.8332 26.9669 44.7999 28.7669 44.7999 30.5002C44.7999 32.3669 44.7999 34.2335 44.7999 36.1002C44.8666 37.9669 44.9332 39.8335 44.9999 41.7002L70.3999 30.6002L44.9999 19.7002ZM13.8999 64.0002C14.0332 63.0669 14.0999 62.1669 14.0999 61.3002C14.0999 60.5002 14.0999 59.6335 14.0999 58.7002C14.0999 57.7669 14.0999 56.8669 14.0999 56.0002C14.0999 55.2002 14.0332 54.3335 13.8999 53.4002C15.4332 52.9335 17.2666 52.3002 19.3999 51.5002C21.5999 50.7002 23.8666 49.8002 26.1999 48.8002C28.5999 47.8669 30.9999 46.9002 33.3999 45.9002C35.8666 44.9002 38.1999 43.9669 40.3999 43.1002C40.4666 40.9669 40.4999 38.8002 40.4999 36.6002C40.5666 34.4002 40.5999 32.2002 40.5999 30.0002C40.5999 27.9335 40.5666 25.9002 40.4999 23.9002C40.4999 21.9002 40.4666 19.8669 40.3999 17.8002C35.1999 15.6669 30.2332 13.7335 25.4999 12.0002C20.8332 10.2669 16.9666 8.96686 13.8999 8.10019C14.0332 6.96686 14.0999 5.73353 14.0999 4.40019C14.0999 3.06686 14.0332 1.83353 13.8999 0.700192C25.5666 6.10019 37.1666 11.3669 48.6999 16.5002C60.2332 21.6335 71.9666 26.8002 83.8999 32.0002L83.8999 33.9002C80.0332 35.5002 75.8332 37.2335 71.2999 39.1002C66.8332 40.9669 62.2999 42.8669 57.6999 44.8002C53.0999 46.7335 48.5332 48.6669 43.9999 50.6002C39.4666 52.5335 35.2332 54.3335 31.2999 56.0002C27.4332 57.7335 23.9666 59.2669 20.8999 60.6002C17.8332 62.0002 15.4999 63.1335 13.8999 64.0002Z" fill="#EA6A74"/>
<path d="M56.6999 75.4994C61.0999 75.4994 65.3999 75.3994 69.5999 75.1994C73.8666 75.0661 78.1999 74.8994 82.5999 74.6994C82.4666 76.6328 82.3332 78.5327 82.1999 80.3994C82.1332 82.2661 82.0999 84.1661 82.0999 86.0994C82.0999 88.0328 82.1666 89.9327 82.2999 91.7994C82.4999 93.6661 82.5999 95.5661 82.5999 97.4994C82.5999 100.299 82.3332 102.966 81.7999 105.499C81.2666 108.033 80.3666 110.233 79.0999 112.099C77.8999 114.033 76.2999 115.533 74.2999 116.599C72.2999 117.733 69.7999 118.299 66.7999 118.299C63.5999 118.299 60.8332 117.566 58.4999 116.099C56.2332 114.699 54.3332 112.966 52.7999 110.899C51.3332 108.833 50.1666 106.599 49.2999 104.199C48.4999 101.866 47.9666 99.7327 47.6999 97.7994C46.6999 98.5994 45.2999 99.6994 43.4999 101.099C41.6999 102.499 39.6999 104.066 37.4999 105.799C35.3666 107.533 33.0999 109.333 30.6999 111.199C28.3666 113.066 26.0999 114.866 23.8999 116.599C21.7666 118.333 19.7999 119.966 17.9999 121.499C16.1999 123.033 14.8332 124.266 13.8999 125.199C14.0332 124.199 14.0999 123.199 14.0999 122.199C14.0999 121.199 14.0999 120.199 14.0999 119.199C14.0999 118.266 14.0999 117.299 14.0999 116.299C14.0999 115.299 14.0332 114.333 13.8999 113.399C15.2999 112.399 17.3999 110.866 20.1999 108.799C22.9999 106.799 25.9999 104.566 29.1999 102.099C32.3999 99.6327 35.5666 97.0994 38.6999 94.4994C41.8999 91.9661 44.5999 89.6328 46.7999 87.4994L46.7999 83.6994L39.4999 83.6994C35.0999 83.6994 30.7666 83.7661 26.4999 83.8994C22.2332 84.0994 18.0332 84.2994 13.8999 84.4994C14.0332 82.9661 14.0999 81.3327 14.0999 79.5994C14.0999 77.8661 14.0332 76.2327 13.8999 74.6994C18.0332 74.8994 22.2332 75.0661 26.4999 75.1994C30.7666 75.3994 35.0999 75.4994 39.4999 75.4994L56.6999 75.4994ZM50.9999 83.6994C50.7999 84.6327 50.6666 85.6327 50.5999 86.6994C50.5332 87.8327 50.4999 89.0661 50.4999 90.3994C50.4999 92.4661 50.7332 94.5994 51.1999 96.7994C51.6666 99.0661 52.4666 101.133 53.5999 102.999C54.7999 104.866 56.3666 106.399 58.2999 107.599C60.2999 108.866 62.7999 109.499 65.7999 109.499C68.3999 109.499 70.5332 108.999 72.1999 107.999C73.9332 107.066 75.2999 105.833 76.2999 104.299C77.2999 102.766 77.9666 101.099 78.2999 99.2994C78.6999 97.4994 78.8999 95.7328 78.8999 93.9994C78.8999 91.6661 78.8332 89.7328 78.6999 88.1994C78.6332 86.6661 78.5332 85.3661 78.3999 84.2994C74.7332 84.1661 71.0999 84.0328 67.4999 83.8994C63.8999 83.7661 60.2999 83.6994 56.6999 83.6994L50.9999 83.6994Z" fill="#EA6A74"/>
<path d="M50.0999 188.732C59.5666 188.732 66.8666 188.699 71.9999 188.632C77.1332 188.566 80.6666 188.399 82.5999 188.132C82.4666 188.866 82.3332 189.566 82.1999 190.232C82.1332 190.899 82.0999 191.566 82.0999 192.232C82.0999 193.099 82.2666 194.099 82.5999 195.232C80.2666 195.032 77.4666 194.832 74.1999 194.632C70.9999 194.432 67.5332 194.266 63.7999 194.132C60.1332 193.999 56.3332 193.866 52.3999 193.732C48.5332 193.599 44.7666 193.499 41.0999 193.432C36.6332 193.366 32.6332 192.666 29.0999 191.332C25.5666 190.066 22.5666 188.232 20.0999 185.832C17.6332 183.432 15.7666 180.466 14.4999 176.932C13.2332 173.466 12.5999 169.466 12.5999 164.932C12.5999 154.932 14.8666 147.666 19.3999 143.132C23.9332 138.599 31.0999 136.332 40.8999 136.332C44.0332 136.332 46.7999 136.399 49.1999 136.532C51.6666 136.732 54.1666 136.832 56.6999 136.832C62.2999 136.832 67.2666 136.766 71.5999 136.632C75.9332 136.499 79.5999 136.366 82.5999 136.232C82.4666 137.032 82.3332 137.899 82.1999 138.832C82.1332 139.766 82.0999 140.632 82.0999 141.432C82.0999 142.166 82.1332 142.866 82.1999 143.532C82.3332 144.266 82.4666 144.999 82.5999 145.732C81.1332 145.599 79.1999 145.466 76.7999 145.332C74.4666 145.199 71.7999 145.066 68.7999 144.932C65.7999 144.799 62.5666 144.699 59.0999 144.632C55.6332 144.566 52.0332 144.532 48.2999 144.532C46.0332 144.532 43.6666 144.566 41.1999 144.632C38.7999 144.699 36.4332 144.932 34.0999 145.332C31.8332 145.732 29.6332 146.366 27.4999 147.232C25.4332 148.166 23.5999 149.466 21.9999 151.132C20.4666 152.799 19.2332 154.899 18.2999 157.432C17.4332 159.966 16.9999 163.099 16.9999 166.832C16.9999 170.499 17.5332 173.566 18.5999 176.032C19.6666 178.566 21.0666 180.632 22.7999 182.232C24.5332 183.832 26.5332 185.066 28.7999 185.932C31.0666 186.866 33.4332 187.532 35.8999 187.932C38.3666 188.332 40.8332 188.566 43.2999 188.632C45.7666 188.699 48.0332 188.732 50.0999 188.732Z" fill="#EA6A74"/>
<path d="M2.79989 201.964C2.79989 204.764 3.46655 206.998 4.79989 208.664C6.06655 210.331 7.86656 211.598 10.1999 212.464C12.5332 213.331 15.2999 213.864 18.4999 214.064C21.6999 214.331 25.2666 214.464 29.1999 214.464L56.6999 214.464C61.0999 214.464 65.3999 214.364 69.5999 214.164C73.8666 214.031 78.1999 213.864 82.5999 213.664C82.4666 214.531 82.3332 215.364 82.1999 216.164C82.1332 216.964 82.0999 217.764 82.0999 218.564C82.0999 219.364 82.1332 220.164 82.1999 220.964C82.3332 221.764 82.4666 222.598 82.5999 223.464C78.1999 223.264 73.8666 223.064 69.5999 222.864C65.3999 222.731 61.0999 222.664 56.6999 222.664C53.6999 222.664 50.5999 222.664 47.3999 222.664C44.1999 222.731 41.0332 222.764 37.8999 222.764C34.8332 222.831 31.8666 222.864 28.9999 222.864C26.1332 222.931 23.4999 222.964 21.0999 222.964C18.0999 222.964 15.3666 222.464 12.8999 221.464C10.3666 220.531 8.13322 219.164 6.19989 217.364C4.26656 215.564 2.76656 213.398 1.69989 210.864C0.566555 208.398 -0.000108143 205.698 -0.000108015 202.764L2.79989 201.964Z" fill="#EA6A74"/>
<path d="M41.9999 258.996C43.1332 258.33 44.7666 257.33 46.8999 255.996C49.0999 254.73 51.4999 253.296 54.0999 251.696C56.7666 250.163 59.5332 248.53 62.3999 246.796C65.3332 245.063 68.0999 243.396 70.6999 241.796C73.3666 240.263 75.7332 238.863 77.7999 237.596C79.9332 236.33 81.5332 235.363 82.5999 234.696C82.4666 235.63 82.3332 236.53 82.1999 237.396C82.1332 238.33 82.0999 239.263 82.0999 240.196C82.0999 241.13 82.1332 242.03 82.1999 242.896C82.3332 243.83 82.4666 244.763 82.5999 245.696C76.7999 248.696 71.0999 251.73 65.4999 254.796C59.8999 257.93 54.0666 261.23 47.9999 264.696C50.3999 266.23 53.0332 267.83 55.8999 269.496C58.7666 271.163 61.6999 272.83 64.6999 274.496C67.6999 276.163 70.6999 277.763 73.6999 279.296C76.7666 280.83 79.7332 282.263 82.5999 283.596C82.2666 285.263 82.0999 286.563 82.0999 287.496C82.0999 288.43 82.2666 289.73 82.5999 291.396C77.7332 288.196 73.3332 285.33 69.3999 282.796C65.4666 280.263 61.8999 278.03 58.6999 276.096C55.4999 274.163 52.5999 272.463 49.9999 270.996C47.4666 269.53 45.1666 268.263 43.0999 267.196C40.6332 267.196 37.9999 267.196 35.1999 267.196C32.3999 267.263 29.6332 267.33 26.8999 267.396C24.2332 267.463 21.7332 267.53 19.3999 267.596C17.1332 267.73 15.2999 267.863 13.8999 267.996C14.0332 266.463 14.0999 264.83 14.0999 263.096C14.0999 261.363 14.0332 259.73 13.8999 258.196C17.3666 258.596 21.5666 258.83 26.4999 258.896C31.4332 258.963 36.5999 258.996 41.9999 258.996Z" fill="#EA6A74"/>
<path d="M44.9999 308.86C44.9999 310.594 44.9666 312.394 44.8999 314.26C44.8332 316.127 44.7999 317.927 44.7999 319.66C44.7999 321.527 44.7999 323.394 44.7999 325.26C44.8666 327.127 44.9332 328.994 44.9999 330.86L70.3999 319.76L44.9999 308.86ZM13.8999 353.16C14.0332 352.227 14.0999 351.327 14.0999 350.46C14.0999 349.66 14.0999 348.794 14.0999 347.86C14.0999 346.927 14.0999 346.027 14.0999 345.16C14.0999 344.36 14.0332 343.494 13.8999 342.56C15.4332 342.094 17.2666 341.46 19.3999 340.66C21.5999 339.86 23.8665 338.96 26.1999 337.96C28.5999 337.027 30.9999 336.06 33.3999 335.06C35.8666 334.06 38.1999 333.127 40.3999 332.26C40.4666 330.127 40.4999 327.96 40.4999 325.76C40.5666 323.56 40.5999 321.36 40.5999 319.16C40.5999 317.094 40.5666 315.06 40.4999 313.06C40.4999 311.06 40.4666 309.027 40.3999 306.96C35.1999 304.827 30.2332 302.894 25.4999 301.16C20.8332 299.427 16.9666 298.127 13.8999 297.26C14.0332 296.127 14.0999 294.894 14.0999 293.56C14.0999 292.227 14.0332 290.994 13.8999 289.86C25.5666 295.26 37.1666 300.527 48.6999 305.66C60.2332 310.794 71.9666 315.96 83.8999 321.16L83.8999 323.06C80.0332 324.66 75.8332 326.394 71.2999 328.26C66.8332 330.127 62.2999 332.027 57.6999 333.96C53.0999 335.894 48.5332 337.827 43.9999 339.76C39.4666 341.694 35.2332 343.494 31.2999 345.16C27.4332 346.894 23.9666 348.427 20.8999 349.76C17.8332 351.16 15.4999 352.294 13.8999 353.16Z" fill="#EA6A74"/>
<path d="M12.5999 420.96C21.4665 413.293 30.5332 405.126 39.7999 396.46C49.1332 387.793 58.3999 379.126 67.5999 370.46C65.7332 370.393 63.2332 370.326 60.0999 370.26C56.9666 370.193 52.6999 370.16 47.2999 370.16C45.8999 370.16 44.1666 370.16 42.0999 370.16C40.0332 370.226 37.8666 370.26 35.5999 370.26C33.3332 370.326 31.0332 370.393 28.6999 370.46C26.3665 370.526 24.1999 370.593 22.1999 370.66C20.1999 370.726 18.4332 370.793 16.8999 370.86C15.4332 370.926 14.4332 370.993 13.8999 371.06C14.0332 369.993 14.0999 368.826 14.0999 367.56C14.0999 366.226 14.0332 364.993 13.8999 363.86C14.5666 363.993 15.7999 364.126 17.5999 364.26C19.3999 364.46 21.5332 364.626 23.9999 364.76C26.5332 364.893 29.2665 365.026 32.1999 365.16C35.1332 365.36 38.0666 365.493 40.9999 365.56C43.9332 365.693 46.7999 365.793 49.5999 365.86C52.3999 365.926 54.8999 365.96 57.0999 365.96C63.4999 365.96 68.9999 365.926 73.5999 365.86C78.1999 365.86 81.6332 365.793 83.8999 365.66L83.8999 367.26C79.4999 371.326 74.7666 375.66 69.6999 380.26C64.6999 384.926 59.7332 389.526 54.7999 394.06C49.9332 398.66 45.2999 402.993 40.8999 407.06C36.5666 411.193 32.8665 414.793 29.7999 417.86L43.3999 417.86C50.3999 417.86 57.1999 417.793 63.7999 417.66C70.4665 417.593 76.7332 417.393 82.5999 417.06C82.2666 418.393 82.0999 419.526 82.0999 420.46C82.0999 421.26 82.2666 422.326 82.5999 423.66C81.1332 423.526 78.9332 423.36 75.9999 423.16C73.0666 423.026 69.9332 422.86 66.5999 422.66C63.2666 422.526 59.9999 422.393 56.7999 422.26C53.5999 422.126 51.0332 422.06 49.0999 422.06C47.4332 422.06 45.4332 422.06 43.0999 422.06C40.8332 422.06 38.4665 422.06 35.9999 422.06C33.5332 422.126 31.0332 422.16 28.4999 422.16C26.0332 422.226 23.6999 422.26 21.4999 422.26C19.3665 422.326 17.4999 422.36 15.8999 422.36C14.4332 422.36 13.3332 422.36 12.5999 422.36L12.5999 420.96Z" fill="#EA6A74"/>
<path d="M26.8999 440.292C25.6999 440.825 24.4665 441.525 23.1999 442.392C21.9999 443.325 20.8999 444.425 19.8999 445.692C18.8999 447.025 18.0665 448.558 17.3999 450.292C16.7999 452.025 16.4999 453.958 16.4999 456.092C16.4999 458.292 16.8665 460.258 17.5999 461.992C18.3999 463.792 19.4332 465.292 20.6999 466.492C22.0332 467.758 23.5665 468.725 25.2999 469.392C27.0999 470.058 28.9999 470.392 30.9999 470.392C34.0665 470.392 36.4999 469.592 38.2999 467.992C40.0999 466.458 41.5999 464.525 42.7999 462.192C43.9999 459.858 45.0999 457.325 46.0999 454.592C47.0999 451.925 48.3332 449.425 49.7999 447.092C51.3332 444.758 53.2666 442.792 55.5999 441.192C57.9332 439.658 61.0666 438.892 64.9999 438.892C67.7999 438.892 70.3332 439.392 72.5999 440.392C74.9332 441.392 76.9332 442.825 78.5999 444.692C80.2666 446.625 81.5665 448.925 82.4999 451.592C83.4332 454.258 83.8999 457.258 83.8999 460.592C83.8999 463.792 83.4999 466.558 82.6999 468.892C81.9665 471.225 80.7999 473.392 79.1999 475.392C78.0665 474.792 76.8665 474.292 75.5999 473.892C74.3332 473.492 72.7332 473.092 70.7999 472.692L70.7999 471.492C71.7332 471.158 72.7332 470.692 73.7999 470.092C74.9332 469.558 75.9666 468.792 76.8999 467.792C77.8332 466.858 78.5999 465.725 79.1999 464.392C79.8665 463.058 80.1999 461.458 80.1999 459.592C80.1999 457.725 79.8999 455.992 79.2999 454.392C78.6999 452.858 77.8332 451.492 76.6999 450.292C75.6332 449.158 74.3332 448.258 72.7999 447.592C71.2665 446.992 69.5999 446.692 67.7999 446.692C64.6665 446.692 62.1999 447.458 60.3999 448.992C58.5999 450.592 57.0665 452.558 55.7999 454.892C54.5999 457.225 53.4999 459.725 52.4999 462.392C51.5665 465.125 50.3999 467.658 48.9999 469.992C47.5999 472.325 45.7999 474.258 43.5999 475.792C41.3999 477.392 38.4666 478.192 34.7999 478.192C31.7332 478.192 28.8332 477.625 26.0999 476.492C23.3665 475.425 20.9665 473.825 18.8999 471.692C16.8999 469.625 15.3332 467.058 14.1999 463.992C13.1332 460.992 12.5999 457.558 12.5999 453.692C12.5999 449.558 13.1332 446.192 14.1999 443.592C15.3332 441.058 16.5999 438.925 17.9999 437.192C19.5332 437.792 20.8999 438.192 22.0999 438.392C23.3665 438.658 24.9665 438.892 26.8999 439.092L26.8999 440.292Z" fill="#EA6A74"/>
<path d="M50.0999 544.592C59.5665 544.592 66.8665 544.558 71.9999 544.492C77.1332 544.425 80.6665 544.258 82.5999 543.992C82.4665 544.725 82.3332 545.425 82.1999 546.092C82.1332 546.758 82.0999 547.425 82.0999 548.092C82.0999 548.958 82.2665 549.958 82.5999 551.092C80.2665 550.892 77.4665 550.692 74.1999 550.492C70.9999 550.292 67.5332 550.125 63.7999 549.992C60.1332 549.858 56.3332 549.725 52.3999 549.592C48.5332 549.458 44.7665 549.358 41.0999 549.292C36.6332 549.225 32.6332 548.525 29.0999 547.192C25.5665 545.925 22.5665 544.092 20.0999 541.692C17.6332 539.292 15.7665 536.325 14.4999 532.792C13.2332 529.325 12.5999 525.325 12.5999 520.792C12.5999 510.792 14.8665 503.525 19.3999 498.992C23.9332 494.458 31.0999 492.192 40.8999 492.192C44.0332 492.192 46.7999 492.258 49.1999 492.392C51.6666 492.592 54.1665 492.692 56.6999 492.692C62.2999 492.692 67.2666 492.625 71.5999 492.492C75.9332 492.358 79.5999 492.225 82.5999 492.092C82.4665 492.892 82.3332 493.758 82.1999 494.692C82.1332 495.625 82.0999 496.492 82.0999 497.292C82.0999 498.025 82.1332 498.725 82.1999 499.392C82.3332 500.125 82.4665 500.858 82.5999 501.592C81.1332 501.458 79.1999 501.325 76.7999 501.192C74.4665 501.058 71.7999 500.925 68.7999 500.792C65.7999 500.658 62.5665 500.558 59.0999 500.492C55.6332 500.425 52.0332 500.392 48.2999 500.392C46.0332 500.392 43.6666 500.425 41.1999 500.492C38.7999 500.558 36.4332 500.792 34.0999 501.192C31.8332 501.592 29.6332 502.225 27.4999 503.092C25.4332 504.025 23.5999 505.325 21.9999 506.992C20.4665 508.658 19.2332 510.758 18.2999 513.292C17.4332 515.825 16.9999 518.958 16.9999 522.692C16.9999 526.358 17.5332 529.425 18.5999 531.892C19.6665 534.425 21.0665 536.492 22.7999 538.092C24.5332 539.692 26.5332 540.925 28.7999 541.792C31.0665 542.725 33.4332 543.392 35.8999 543.792C38.3665 544.192 40.8332 544.425 43.2999 544.492C45.7665 544.558 48.0332 544.592 50.0999 544.592Z" fill="#EA6A74"/>
</g>
</svg>
