<svg width="1440" height="150" viewBox="0 0 1440 150" fill="none" xmlns="http://www.w3.org/2000/svg">
<g clip-path="url(#clip0)">
<g opacity="0.04">
<path d="M17.8898 104.57C22.5698 104.57 27.4298 104.66 32.4698 104.84C37.5098 105.02 42.3698 105.11 47.0499 105.11C52.0898 105.11 57.1298 105.11 62.1698 105.11C67.2098 104.93 72.2498 104.75 77.2898 104.57L47.3199 35.99L17.8898 104.57ZM137.5 188.54C134.98 188.18 132.55 188 130.21 188C128.05 188 125.71 188 123.19 188C120.67 188 118.24 188 115.9 188C113.74 188 111.4 188.18 108.88 188.54C107.62 184.4 105.91 179.45 103.75 173.69C101.59 167.75 99.1599 161.63 96.4599 155.33C93.9399 148.85 91.3299 142.37 88.6299 135.89C85.9299 129.23 83.4099 122.93 81.0699 116.99C75.3099 116.81 69.4599 116.72 63.5199 116.72C57.5799 116.54 51.6398 116.45 45.6998 116.45C40.1198 116.45 34.6298 116.54 29.2298 116.72C23.8298 116.72 18.3398 116.81 12.7598 116.99C6.99984 131.03 1.77984 144.44 -2.90015 157.22C-7.58016 169.82 -11.0902 180.26 -13.4302 188.54C-16.4902 188.18 -19.8202 188 -23.4202 188C-27.0202 188 -30.3502 188.18 -33.4102 188.54C-18.8302 157.04 -4.61015 125.72 9.24985 94.58C23.1098 63.44 37.0599 31.76 51.0999 -0.459961H56.2298C60.5498 9.98003 65.2299 21.32 70.2699 33.56C75.3099 45.62 80.4398 57.86 85.6599 70.28C90.8798 82.7 96.0999 95.03 101.32 107.27C106.54 119.51 111.4 130.94 115.9 141.56C120.58 152 124.72 161.36 128.32 169.64C132.1 177.92 135.16 184.22 137.5 188.54Z" fill="#EA6A74"/>
<path d="M168.548 72.98C168.548 61.1 168.278 49.49 167.738 38.15C167.378 26.63 166.928 14.93 166.388 3.05002C171.608 3.41003 176.738 3.77003 181.778 4.13002C186.818 4.31003 191.948 4.40004 197.168 4.40004C202.388 4.40004 207.518 4.22003 212.558 3.86003C217.598 3.32002 222.728 3.05002 227.948 3.05002C235.508 3.05002 242.708 3.77003 249.548 5.21003C256.388 6.65004 262.328 9.08004 267.368 12.5C272.588 15.74 276.638 20.06 279.518 25.46C282.578 30.86 284.108 37.61 284.108 45.71C284.108 54.35 282.128 61.82 278.168 68.12C274.388 74.24 269.708 79.37 264.128 83.51C258.548 87.47 252.518 90.62 246.038 92.96C239.738 95.12 233.978 96.56 228.758 97.28C230.918 99.98 233.888 103.76 237.668 108.62C241.448 113.48 245.678 118.88 250.358 124.82C255.038 130.58 259.898 136.7 264.938 143.18C269.978 149.48 274.838 155.6 279.518 161.54C284.198 167.3 288.608 172.61 292.748 177.47C296.888 182.33 300.218 186.02 302.738 188.54C300.038 188.18 297.338 188 294.638 188C291.938 188 289.238 188 286.538 188C284.018 188 281.408 188 278.708 188C276.008 188 273.398 188.18 270.878 188.54C268.178 184.76 264.038 179.09 258.458 171.53C253.058 163.97 247.028 155.87 240.368 147.23C233.708 138.59 226.868 130.04 219.848 121.58C213.008 112.94 206.708 105.65 200.948 99.71H190.688V119.42C190.688 131.3 190.868 143 191.228 154.52C191.768 166.04 192.308 177.38 192.848 188.54C188.708 188.18 184.298 188 179.618 188C174.938 188 170.528 188.18 166.388 188.54C166.928 177.38 167.378 166.04 167.738 154.52C168.278 143 168.548 131.3 168.548 119.42V72.98ZM190.688 88.37C193.208 88.91 195.908 89.27 198.788 89.45C201.848 89.63 205.178 89.72 208.778 89.72C214.358 89.72 220.118 89.09 226.058 87.83C232.178 86.57 237.758 84.41 242.798 81.35C247.838 78.11 251.978 73.88 255.218 68.66C258.638 63.26 260.348 56.51 260.348 48.41C260.348 41.39 258.998 35.63 256.298 31.13C253.778 26.45 250.448 22.76 246.308 20.06C242.168 17.36 237.668 15.56 232.808 14.66C227.948 13.58 223.178 13.04 218.498 13.04C212.198 13.04 206.978 13.22 202.838 13.58C198.698 13.76 195.188 14.03 192.308 14.39C191.948 24.29 191.588 34.1 191.228 43.82C190.868 53.54 190.688 63.26 190.688 72.98V88.37Z" fill="#EA6A74"/>
<path d="M474.276 90.8C474.276 65.24 474.186 45.53 474.006 31.67C473.826 17.81 473.376 8.27003 472.656 3.05002C474.636 3.41003 476.526 3.77003 478.326 4.13002C480.126 4.31003 481.926 4.40004 483.726 4.40004C486.066 4.40004 488.766 3.95003 491.826 3.05002C491.286 9.35003 490.746 16.91 490.206 25.73C489.666 34.37 489.216 43.73 488.856 53.81C488.496 63.71 488.136 73.97 487.776 84.59C487.416 95.03 487.146 105.2 486.966 115.1C486.786 127.16 484.896 137.96 481.296 147.5C477.876 157.04 472.926 165.14 466.446 171.8C459.966 178.46 451.956 183.5 442.416 186.92C433.056 190.34 422.256 192.05 410.016 192.05C383.016 192.05 363.396 185.93 351.156 173.69C338.916 161.45 332.796 142.1 332.796 115.64C332.796 107.18 332.976 99.71 333.336 93.23C333.876 86.57 334.146 79.82 334.146 72.98C334.146 57.86 333.966 44.45 333.606 32.75C333.246 21.05 332.886 11.15 332.526 3.05002C334.686 3.41003 337.026 3.77003 339.546 4.13002C342.066 4.31003 344.406 4.40004 346.566 4.40004C348.546 4.40004 350.436 4.31003 352.236 4.13002C354.216 3.77003 356.196 3.41003 358.176 3.05002C357.816 7.01002 357.456 12.23 357.096 18.71C356.736 25.01 356.376 32.21 356.016 40.31C355.656 48.41 355.386 57.14 355.206 66.5C355.026 75.86 354.936 85.58 354.936 95.66C354.936 101.78 355.026 108.17 355.206 114.83C355.386 121.31 356.016 127.7 357.096 134C358.176 140.12 359.886 146.06 362.226 151.82C364.746 157.4 368.256 162.35 372.756 166.67C377.256 170.81 382.926 174.14 389.766 176.66C396.606 179 405.066 180.17 415.146 180.17C425.046 180.17 433.326 178.73 439.986 175.85C446.826 172.97 452.406 169.19 456.726 164.51C461.046 159.83 464.376 154.43 466.716 148.31C469.236 142.19 471.036 135.8 472.116 129.14C473.196 122.48 473.826 115.82 474.006 109.16C474.186 102.5 474.276 96.38 474.276 90.8Z" fill="#EA6A74"/>
<path d="M510.003 218.51C517.563 218.51 523.593 216.71 528.093 213.11C532.593 209.69 536.013 204.83 538.353 198.53C540.693 192.23 542.133 184.76 542.673 176.12C543.393 167.48 543.753 157.85 543.753 147.23V72.98C543.753 61.1 543.483 49.49 542.943 38.15C542.583 26.63 542.133 14.93 541.593 3.05002C543.933 3.41003 546.183 3.77003 548.343 4.13002C550.503 4.31003 552.663 4.40004 554.823 4.40004C556.983 4.40004 559.143 4.31003 561.303 4.13002C563.463 3.77003 565.713 3.41003 568.053 3.05002C567.513 14.93 566.973 26.63 566.433 38.15C566.073 49.49 565.893 61.1 565.893 72.98C565.893 81.08 565.893 89.45 565.893 98.09C566.073 106.73 566.163 115.28 566.163 123.74C566.343 132.02 566.433 140.03 566.433 147.77C566.613 155.51 566.703 162.62 566.703 169.1C566.703 177.2 565.353 184.58 562.653 191.24C560.133 198.08 556.443 204.11 551.583 209.33C546.723 214.55 540.873 218.6 534.033 221.48C527.373 224.54 520.083 226.07 512.163 226.07L510.003 218.51Z" fill="#EA6A74"/>
<path d="M663.989 112.67C662.189 109.61 659.489 105.2 655.889 99.44C652.469 93.5 648.599 87.02 644.279 80C640.139 72.8 635.729 65.33 631.049 57.59C626.369 49.67 621.869 42.2 617.549 35.18C613.409 27.98 609.629 21.59 606.209 16.01C602.789 10.25 600.179 5.93003 598.379 3.05002C600.899 3.41003 603.329 3.77003 605.669 4.13002C608.189 4.31003 610.709 4.40004 613.229 4.40004C615.749 4.40004 618.179 4.31003 620.519 4.13002C623.039 3.77003 625.559 3.41003 628.079 3.05002C636.179 18.71 644.369 34.1 652.649 49.22C661.109 64.34 670.019 80.09 679.379 96.47C683.519 89.99 687.839 82.88 692.339 75.14C696.839 67.4 701.339 59.48 705.839 51.38C710.339 43.28 714.659 35.18 718.799 27.08C722.939 18.8 726.809 10.79 730.409 3.05002C734.909 3.95003 738.419 4.40004 740.939 4.40004C743.459 4.40004 746.969 3.95003 751.469 3.05002C742.829 16.19 735.089 28.07 728.249 38.69C721.409 49.31 715.379 58.94 710.159 67.58C704.939 76.22 700.349 84.05 696.389 91.07C692.429 97.91 689.009 104.12 686.129 109.7C686.129 116.36 686.129 123.47 686.129 131.03C686.309 138.59 686.489 146.06 686.669 153.44C686.849 160.64 687.029 167.39 687.209 173.69C687.569 179.81 687.929 184.76 688.289 188.54C684.149 188.18 679.739 188 675.059 188C670.379 188 665.969 188.18 661.829 188.54C662.909 179.18 663.539 167.84 663.719 154.52C663.899 141.2 663.989 127.25 663.989 112.67Z" fill="#EA6A74"/>
<path d="M798.622 104.57C803.302 104.57 808.162 104.66 813.202 104.84C818.242 105.02 823.102 105.11 827.782 105.11C832.822 105.11 837.862 105.11 842.902 105.11C847.942 104.93 852.982 104.75 858.022 104.57L828.052 35.99L798.622 104.57ZM918.232 188.54C915.712 188.18 913.282 188 910.942 188C908.782 188 906.442 188 903.922 188C901.402 188 898.972 188 896.632 188C894.472 188 892.132 188.18 889.612 188.54C888.352 184.4 886.642 179.45 884.482 173.69C882.322 167.75 879.892 161.63 877.192 155.33C874.672 148.85 872.062 142.37 869.362 135.89C866.662 129.23 864.142 122.93 861.802 116.99C856.042 116.81 850.192 116.72 844.252 116.72C838.312 116.54 832.372 116.45 826.432 116.45C820.852 116.45 815.362 116.54 809.962 116.72C804.562 116.72 799.072 116.81 793.492 116.99C787.732 131.03 782.512 144.44 777.832 157.22C773.152 169.82 769.642 180.26 767.302 188.54C764.242 188.18 760.912 188 757.312 188C753.712 188 750.382 188.18 747.322 188.54C761.902 157.04 776.122 125.72 789.982 94.58C803.842 63.44 817.792 31.76 831.832 -0.459961H836.962C841.282 9.98003 845.962 21.32 851.002 33.56C856.042 45.62 861.172 57.86 866.392 70.28C871.612 82.7 876.832 95.03 882.052 107.27C887.272 119.51 892.132 130.94 896.632 141.56C901.312 152 905.452 161.36 909.052 169.64C912.832 177.92 915.892 184.22 918.232 188.54Z" fill="#EA6A74"/>
<path d="M1101.29 192.05C1080.59 168.11 1058.54 143.63 1035.14 118.61C1011.74 93.41 988.34 68.39 964.94 43.55C964.76 48.59 964.58 55.34 964.4 63.8C964.22 72.26 964.13 83.78 964.13 98.36C964.13 102.14 964.13 106.82 964.13 112.4C964.31 117.98 964.4 123.83 964.4 129.95C964.58 136.07 964.76 142.28 964.94 148.58C965.12 154.88 965.3 160.73 965.48 166.13C965.66 171.53 965.84 176.3 966.02 180.44C966.2 184.4 966.38 187.1 966.56 188.54C963.68 188.18 960.53 188 957.11 188C953.51 188 950.18 188.18 947.12 188.54C947.48 186.74 947.84 183.41 948.2 178.55C948.74 173.69 949.19 167.93 949.55 161.27C949.91 154.43 950.27 147.05 950.63 139.13C951.17 131.21 951.53 123.29 951.71 115.37C952.07 107.45 952.34 99.71 952.52 92.15C952.7 84.59 952.79 77.84 952.79 71.9C952.79 54.62 952.7 39.77 952.52 27.35C952.52 14.93 952.34 5.66004 951.98 -0.459961H956.3C967.28 11.42 978.98 24.2 991.4 37.88C1004 51.38 1016.42 64.79 1028.66 78.11C1041.08 91.25 1052.78 103.76 1063.76 115.64C1074.92 127.34 1084.64 137.33 1092.92 145.61V108.89C1092.92 89.99 1092.74 71.63 1092.38 53.81C1092.2 35.81 1091.66 18.89 1090.76 3.05002C1094.36 3.95003 1097.42 4.40004 1099.94 4.40004C1102.1 4.40004 1104.98 3.95003 1108.58 3.05002C1108.22 7.01002 1107.77 12.95 1107.23 20.87C1106.87 28.79 1106.42 37.25 1105.88 46.25C1105.52 55.25 1105.16 64.07 1104.8 72.71C1104.44 81.35 1104.26 88.28 1104.26 93.5C1104.26 98 1104.26 103.4 1104.26 109.7C1104.26 115.82 1104.26 122.21 1104.26 128.87C1104.44 135.53 1104.53 142.28 1104.53 149.12C1104.71 155.78 1104.8 162.08 1104.8 168.02C1104.98 173.78 1105.07 178.82 1105.07 183.14C1105.07 187.1 1105.07 190.07 1105.07 192.05H1101.29Z" fill="#EA6A74"/>
<path d="M1153.49 153.44C1154.93 156.68 1156.82 160.01 1159.16 163.43C1161.68 166.67 1164.65 169.64 1168.07 172.34C1171.67 175.04 1175.81 177.29 1180.49 179.09C1185.17 180.71 1190.39 181.52 1196.15 181.52C1202.09 181.52 1207.4 180.53 1212.08 178.55C1216.94 176.39 1220.99 173.6 1224.23 170.18C1227.65 166.58 1230.26 162.44 1232.06 157.76C1233.86 152.9 1234.76 147.77 1234.76 142.37C1234.76 134.09 1232.6 127.52 1228.28 122.66C1224.14 117.8 1218.92 113.75 1212.62 110.51C1206.32 107.27 1199.48 104.3 1192.1 101.6C1184.9 98.9 1178.15 95.57 1171.85 91.61C1165.55 87.47 1160.24 82.25 1155.92 75.95C1151.78 69.65 1149.71 61.19 1149.71 50.57C1149.71 43.01 1151.06 36.17 1153.76 30.05C1156.46 23.75 1160.33 18.35 1165.37 13.85C1170.59 9.35004 1176.8 5.84003 1184 3.32003C1191.2 0.800034 1199.3 -0.459961 1208.3 -0.459961C1216.94 -0.459961 1224.41 0.620032 1230.71 2.78003C1237.01 4.76003 1242.86 7.91004 1248.26 12.23C1246.64 15.29 1245.29 18.53 1244.21 21.95C1243.13 25.37 1242.05 29.69 1240.97 34.91H1237.73C1236.83 32.39 1235.57 29.69 1233.95 26.81C1232.51 23.75 1230.44 20.96 1227.74 18.44C1225.22 15.92 1222.16 13.85 1218.56 12.23C1214.96 10.43 1210.64 9.53004 1205.6 9.53004C1200.56 9.53004 1195.88 10.34 1191.56 11.96C1187.42 13.58 1183.73 15.92 1180.49 18.98C1177.43 21.86 1175 25.37 1173.2 29.51C1171.58 33.65 1170.77 38.15 1170.77 43.01C1170.77 51.47 1172.84 58.13 1176.98 62.99C1181.3 67.85 1186.61 71.99 1192.91 75.41C1199.21 78.65 1205.96 81.62 1213.16 84.32C1220.54 86.84 1227.38 89.9901 1233.68 93.7701C1239.98 97.55 1245.2 102.41 1249.34 108.35C1253.66 114.29 1255.82 122.21 1255.82 132.11C1255.82 140.39 1254.29 148.22 1251.23 155.6C1248.35 162.98 1244.03 169.46 1238.27 175.04C1232.69 180.44 1225.76 184.67 1217.48 187.73C1209.38 190.61 1200.11 192.05 1189.67 192.05C1178.51 192.05 1169.42 190.61 1162.4 187.73C1155.56 184.67 1149.8 181.25 1145.12 177.47C1146.74 173.33 1147.82 169.64 1148.36 166.4C1149.08 162.98 1149.71 158.66 1150.25 153.44H1153.49Z" fill="#EA6A74"/>
<path d="M1435.1 90.8C1435.1 65.24 1435.01 45.53 1434.83 31.67C1434.65 17.81 1434.2 8.27003 1433.48 3.05002C1435.46 3.41003 1437.35 3.77003 1439.15 4.13002C1440.95 4.31003 1442.75 4.40004 1444.55 4.40004C1446.89 4.40004 1449.59 3.95003 1452.65 3.05002C1452.11 9.35003 1451.57 16.91 1451.03 25.73C1450.49 34.37 1450.04 43.73 1449.68 53.81C1449.32 63.71 1448.96 73.97 1448.6 84.59C1448.24 95.03 1447.97 105.2 1447.79 115.1C1447.61 127.16 1445.72 137.96 1442.12 147.5C1438.7 157.04 1433.75 165.14 1427.27 171.8C1420.79 178.46 1412.78 183.5 1403.24 186.92C1393.88 190.34 1383.08 192.05 1370.84 192.05C1343.84 192.05 1324.22 185.93 1311.98 173.69C1299.74 161.45 1293.62 142.1 1293.62 115.64C1293.62 107.18 1293.8 99.71 1294.16 93.23C1294.7 86.57 1294.97 79.82 1294.97 72.98C1294.97 57.86 1294.79 44.45 1294.43 32.75C1294.07 21.05 1293.71 11.15 1293.35 3.05002C1295.51 3.41003 1297.85 3.77003 1300.37 4.13002C1302.89 4.31003 1305.23 4.40004 1307.39 4.40004C1309.37 4.40004 1311.26 4.31003 1313.06 4.13002C1315.04 3.77003 1317.02 3.41003 1319 3.05002C1318.64 7.01002 1318.28 12.23 1317.92 18.71C1317.56 25.01 1317.2 32.21 1316.84 40.31C1316.48 48.41 1316.21 57.14 1316.03 66.5C1315.85 75.86 1315.76 85.58 1315.76 95.66C1315.76 101.78 1315.85 108.17 1316.03 114.83C1316.21 121.31 1316.84 127.7 1317.92 134C1319 140.12 1320.71 146.06 1323.05 151.82C1325.57 157.4 1329.08 162.35 1333.58 166.67C1338.08 170.81 1343.75 174.14 1350.59 176.66C1357.43 179 1365.89 180.17 1375.97 180.17C1385.87 180.17 1394.15 178.73 1400.81 175.85C1407.65 172.97 1413.23 169.19 1417.55 164.51C1421.87 159.83 1425.2 154.43 1427.54 148.31C1430.06 142.19 1431.86 135.8 1432.94 129.14C1434.02 122.48 1434.65 115.82 1434.83 109.16C1435.01 102.5 1435.1 96.38 1435.1 90.8Z" fill="#EA6A74"/>
</g>
</g>
<defs>
<clipPath id="clip0">
<rect width="1440" height="150" fill="white"/>
</clipPath>
</defs>
</svg>
