<svg width="450" height="130" viewBox="0 0 450 130" fill="none" xmlns="http://www.w3.org/2000/svg">
<g clip-path="url(#clip0)">
<path d="M238.455 113.464C229.45 115.944 225.778 105.084 225.778 105.084C225.378 103.589 224.516 103.748 224.516 103.748C224.516 103.748 223.654 103.589 223.255 105.084C223.255 105.084 219.583 115.944 210.577 113.464C210.577 113.464 210.338 117.248 215.431 117.121C215.431 117.121 213.579 119.251 214.489 122.002C214.489 122.002 215.719 120.476 217.331 119.84C217.331 119.84 217.81 120.746 217.331 121.732C217.331 121.732 221.642 118.981 222.632 114.131C222.632 114.131 222.393 117.55 220.413 121.096C218.672 124.212 224.516 129.984 224.516 129.984C224.516 129.984 230.36 124.197 228.62 121.096C226.64 117.55 226.4 114.131 226.4 114.131C227.39 118.965 231.701 121.732 231.701 121.732C231.222 120.746 231.701 119.84 231.701 119.84C233.314 120.476 234.543 122.002 234.543 122.002C235.453 119.251 233.601 117.121 233.601 117.121C238.679 117.248 238.455 113.464 238.455 113.464Z" fill="#CBBCA9"/>
<path d="M295.967 96.911C290.426 94.0648 289.516 100.059 289.516 100.059C295.967 97.4993 297.483 104.448 294.498 105.815C288.957 107.882 282.666 93.3174 267.562 92.586C267.562 92.586 264.289 92.3793 259.834 94.669C269.957 89.1197 281.724 92.3316 281.724 92.3316C270.803 88.3088 262.836 91.3617 257.966 94.828C262.996 90.9801 272.943 86.2576 289.819 88.9448C289.819 88.9448 283.577 84.6198 280.367 82.9184C277.158 81.2171 271.538 78.9751 266.029 86.0032C266.029 86.0032 267.881 81.5987 264.449 76.4628C263.746 75.0635 262.628 73.9187 261.527 73.5212C260.425 73.1237 259.1 73.6961 259.259 74.7455C259.419 75.7155 261 75.7155 260.904 74.2049C262.836 74.6024 262.948 76.4151 262.82 78.8002C262.565 83.5068 261.75 89.5808 255.491 96.1796C270.468 74.3162 248.211 67.3199 248.211 67.3199C261.511 78.673 257.391 91.3617 255.092 96.1637C255.811 94.2556 256.37 91.9659 256.625 89.2469C257.136 83.793 255.443 78.4345 251.867 74.1572C248.578 70.2138 244.027 67.6856 239.333 67.145C239.221 67.1291 239.126 67.1132 239.014 67.0973C238.982 67.0973 238.966 67.0973 238.934 67.0814V67.0973C238.742 67.0814 238.551 67.0655 238.343 67.0814C238.343 67.0814 234.144 67.0337 235.118 69.7368C236.044 72.3127 236.906 68.2899 239.748 68.4648C243.916 69.1008 247.955 71.4223 250.909 74.9681C254.278 78.991 256.146 84.0474 255.683 89.1833C254.454 102.429 244.602 103.271 244.235 103.367C240.499 103.605 237.242 102.317 236.699 98.1035C236.699 98.1035 235.086 99.9957 235.916 102.429C229.067 96.5294 231.27 90.2804 235.789 89.2787C239.509 88.5791 241.026 93.5401 237.417 93.8899C237.417 93.8899 241.026 97.2131 244.331 94.1443C248.53 90.2486 246.869 78.673 235.884 79.4044C231.206 79.7065 227.007 82.9184 225.059 87.2275C226.113 83.8089 229.147 77.7984 234.99 77.2737C234.99 77.2737 231.573 73.3622 226.768 77.226C226.768 77.226 230.2 70.4842 224.5 66.032C218.8 70.4683 222.233 77.226 222.233 77.226C217.427 73.3622 214.01 77.2737 214.01 77.2737C219.854 77.7984 222.888 83.8089 223.941 87.2275C221.994 82.9184 217.794 79.7065 213.116 79.4044C202.131 78.673 200.455 90.2486 204.67 94.1443C207.975 97.2131 211.583 93.8899 211.583 93.8899C207.991 93.5401 209.508 88.5791 213.212 89.2787C217.73 90.2804 219.934 96.5294 213.084 102.429C213.898 99.9957 212.302 98.1035 212.302 98.1035C211.759 102.317 208.502 103.605 204.766 103.367C204.414 103.271 194.547 102.429 193.318 89.1833C192.839 84.0474 194.723 78.991 198.092 74.9681C201.061 71.4064 205.085 69.0849 209.252 68.4489C212.094 68.274 212.972 72.2968 213.883 69.7209C214.856 67.0178 210.657 67.0655 210.657 67.0655C210.45 67.0496 210.258 67.0655 210.067 67.0814V67.0814C210.035 67.0814 210.019 67.0973 209.987 67.0973C209.875 67.1132 209.763 67.1291 209.667 67.145C204.973 67.6856 200.439 70.2297 197.134 74.1572C193.557 78.4345 191.865 83.793 192.376 89.2469C192.631 91.9659 193.174 94.2397 193.908 96.1637C191.609 91.3617 187.49 78.673 200.79 67.3199C200.79 67.3199 178.533 74.3003 193.477 96.1478C187.234 89.5649 186.404 83.4909 186.149 78.7843C186.021 76.3992 186.133 74.5865 188.065 74.189C187.969 75.6996 189.549 75.7155 189.709 74.7296C189.869 73.6802 188.544 73.1078 187.442 73.5053C186.34 73.9028 185.223 75.0476 184.52 76.4469C181.103 81.5669 182.939 85.9873 182.939 85.9873C177.431 78.9751 171.827 81.2171 168.601 82.9025C165.392 84.6039 159.149 88.9289 159.149 88.9289C176.026 86.2417 185.973 90.9642 191.002 94.8121C186.117 91.3617 178.165 88.2929 167.244 92.3157C167.244 92.3157 179.012 89.1038 189.134 94.6531C184.68 92.3793 181.407 92.5701 181.407 92.5701C166.302 93.3015 160.011 107.867 154.471 105.799C151.485 104.416 153.002 97.4834 159.452 100.043C159.452 100.043 158.558 94.033 153.002 96.8951C147.462 99.7413 149.92 108.518 157.265 110.49C164.626 112.462 173.759 103.112 176.856 102.524C176.856 102.524 173.934 108.932 181.598 111.714C181.598 111.714 181.758 100.727 189.198 100.854C189.198 100.854 192.855 101.331 198.315 104.48C210.274 111.381 220.094 102.762 220.094 102.762C222.345 100.679 223.75 98.4374 224.484 96.1796C225.203 98.4215 226.608 100.679 228.875 102.762C228.875 102.762 238.695 111.381 250.654 104.48C256.114 101.331 259.77 100.854 259.77 100.854C267.211 100.727 267.371 111.714 267.371 111.714C275.034 108.932 272.113 102.524 272.113 102.524C275.21 103.112 284.343 112.462 291.704 110.49C299.064 108.534 301.507 99.7572 295.967 96.911Z" fill="#CBBCA9"/>
</g>
<path d="M4.70188 72.0238C7.68294 76.96 13.0354 77.9166 17.6635 75.1745C19.8654 73.8699 21.4289 72.1813 21.8594 71.1639L19.7486 67.3805L19.3532 67.6148C20.452 70.804 19.6504 73.1775 17.4272 74.4947C14.1137 76.4579 10.1835 74.0114 7.75263 69.9862C5.19378 65.7491 5.42028 61.8467 8.58407 59.9721C10.989 58.5473 13.477 59.2306 15.5809 61.4647L15.9764 61.2304L13.5984 57.6053C12.43 57.5209 10.5388 57.9942 8.08048 59.4507C3.62339 62.0915 1.67605 67.0135 4.70188 72.0238Z" fill="#CBBCA9"/>
<path d="M20.1608 51.5487L16.4374 54.1202L16.6494 54.5118L17.3638 54.3696C18.09 54.2491 18.2375 54.3388 18.5733 54.9588L25.4006 67.5659C25.813 68.3274 25.7325 68.6225 24.7138 69.4032L24.9435 69.8274L30.1101 67.0761L29.8803 66.6519C28.733 67.0386 28.4962 66.9405 28.1015 66.2117L24.3373 59.2609C24.3713 58.3319 24.9129 57.4269 25.9659 56.8661C27.4248 56.0892 28.7062 56.4719 29.6251 58.1689L32.6647 63.7817C33.0594 64.5105 33.017 64.7714 32.0523 65.4953L32.282 65.9195L37.4486 63.1682L37.2188 62.744C35.9779 63.1666 35.7183 63.0526 35.3059 62.2911L32.1073 56.3846C30.882 54.122 28.7901 53.8346 26.6292 54.9853C24.9399 55.8849 24.0755 57.3683 24.1135 58.8476L20.1608 51.5487Z" fill="#CBBCA9"/>
<path d="M44.2225 60.111C45.9142 59.2975 46.9225 57.9071 46.9041 56.681C47.6548 57.6785 48.8671 57.809 50.0547 57.238C50.8725 56.8448 51.4643 56.2721 51.7148 55.8223L51.5192 55.4223C51.4123 55.5149 51.2605 55.629 51.0813 55.7152C50.4203 56.0331 49.743 55.8648 49.2704 54.8982L46.5595 49.3545C45.3861 46.9548 43.1169 46.7287 40.4169 48.027C37.7617 49.3037 36.4564 51.3035 37.1572 52.7367C37.5157 53.4699 38.3869 53.7234 39.1151 53.3732C39.8657 53.0123 40.1879 52.1713 39.8348 51.4492C39.4871 50.7382 38.6719 50.4578 37.9946 50.7423C38.3752 50.1339 39.0111 49.5949 39.7953 49.2178C41.4982 48.3989 42.9316 48.6702 43.9529 50.7588L44.5233 51.9254L42.5108 53.4694C39.655 55.6659 38.9221 57.3081 39.7315 58.9635C40.5138 60.5633 42.374 60.9998 44.2225 60.111ZM42.2367 57.21C41.5956 55.8991 41.8828 54.7319 43.8396 53.1872L44.7786 52.4475L46.6637 56.3026C46.5918 57.1742 46.071 57.8637 45.1635 58.3C44.0656 58.828 42.8668 58.4988 42.2367 57.21Z" fill="#CBBCA9"/>
<path d="M54.4036 41.6781L50.5016 43.9262L50.6803 44.3338L51.4042 44.2505C52.1329 44.1786 52.2774 44.2914 52.5604 44.9368L55.8423 52.4211C56.1898 53.2137 56.0851 53.5012 55.0048 54.1959L55.1985 54.6374L60.5765 52.3185L60.3828 51.8769C59.2072 52.1684 58.9794 52.0512 58.6467 51.2926L55.4741 44.0574C55.5852 43.1343 56.2003 42.2767 57.2964 41.8041C58.8151 41.1492 60.0602 41.6356 60.8347 43.4019L63.3967 49.2444C63.7293 50.0031 63.6653 50.2596 62.6436 50.902L62.8373 51.3436L68.2152 49.0247L68.0216 48.5831C66.7497 48.9026 66.5005 48.7678 66.1529 47.9752L63.4569 41.8269C62.4242 39.4718 60.3634 39.0141 58.114 39.984C56.3556 40.7422 55.3464 42.1871 55.2725 43.6596L54.4036 41.6781Z" fill="#CBBCA9"/>
<path d="M69.0099 39.8455C69.7326 41.6997 71.5841 42.3402 73.6092 41.9876C71.7748 43.0348 70.9217 44.4076 71.4379 45.732C71.956 47.0954 73.6541 47.4108 75.5936 46.6674C73.0381 47.8852 72.1706 49.2899 72.6599 50.5452C73.3153 52.2266 75.9252 52.4838 79.235 51.2151C82.3591 50.0176 84.3856 47.3744 83.4231 44.8709C82.6061 42.7749 80.5733 42.2171 77.6118 43.3523L75.6259 44.1135C74.2903 44.6254 73.457 44.508 73.1697 43.7709C72.9183 43.126 73.2703 42.4881 74.1115 41.9406C74.6307 41.8343 75.0667 41.7201 75.4964 41.5554C78.1676 40.5315 79.931 38.2407 79.0287 35.9259C78.517 34.613 77.3536 33.8544 75.9643 33.8177L79.246 32.7848L78.9093 31.9211L75.155 33.6249C74.3827 33.6297 73.4792 33.7775 72.5501 34.1336C69.7744 35.1975 68.1121 37.5422 69.0099 39.8455ZM71.7523 38.662C71.0161 36.7733 71.33 35.2499 72.7468 34.7068C74.1985 34.1503 75.5393 35.1587 76.2755 37.0474C77.0162 38.9476 76.6469 40.4658 75.2765 40.9911C73.8829 41.5253 72.5019 40.5853 71.7523 38.662ZM74.9483 49.4298C74.5129 48.3127 74.8696 47.2758 76.1378 46.5912L78.1354 45.8255C79.9935 45.1133 81.0732 45.5201 81.5535 46.7524C82.1506 48.2841 81.0947 49.7875 79.0507 50.5709C77.0532 51.3366 75.478 50.7887 74.9483 49.4298Z" fill="#CBBCA9"/>
<path d="M85.0592 36.1523C86.2977 39.7383 89.6018 41.2263 92.9353 40.0941C94.9614 39.406 96.3206 38.0829 96.6986 36.6625L96.5295 36.2109C96.1271 37.0654 95.299 37.8687 94.0269 38.3008C91.4826 39.1649 89.0295 37.7403 87.7834 34.6659L95.2985 32.1134C95.2656 31.9419 95.2081 31.6612 95.1234 31.4159C94.1551 28.6126 91.6832 27.2857 88.6206 28.3259C85.2046 29.4861 83.873 32.7182 85.0592 36.1523ZM88.8267 28.9606C90.3344 28.4485 91.5811 29.6956 92.3033 31.7865C92.388 32.0318 92.4448 32.2343 92.4936 32.4135L87.586 34.1326C86.654 31.4343 87.1304 29.5367 88.8267 28.9606Z" fill="#CBBCA9"/>
<path d="M108.489 20.1538C109.387 19.8995 109.91 19.0193 109.664 18.1645C109.411 17.286 108.501 16.8246 107.603 17.0789C106.705 17.3331 106.178 18.2014 106.431 19.08C106.678 19.9348 107.591 20.408 108.489 20.1538ZM110.715 21.5905L106.525 23.3165L106.648 23.7439L107.377 23.7559C108.109 23.7797 108.237 23.9103 108.432 24.587L110.692 32.4345C110.931 33.2656 110.789 33.5369 109.626 34.0846L109.759 34.5476L115.518 32.9168L115.385 32.4538C114.117 32.5944 113.84 32.4417 113.601 31.6107L110.715 21.5905Z" fill="#CBBCA9"/>
<path d="M120.344 19.0173L116.123 20.5979L116.231 21.0292L116.959 21.0652C117.69 21.1132 117.814 21.2479 117.986 21.9307L119.981 29.8485C120.192 30.687 120.041 30.9535 118.86 31.4625L118.978 31.9296L124.667 30.5198L124.55 30.0527C123.342 30.1483 123.136 29.9956 122.934 29.193L121.005 21.5388C121.268 20.6464 122.017 19.9009 123.177 19.6135C124.783 19.2154 125.931 19.8983 126.402 21.7669L127.959 27.9479C128.162 28.7504 128.056 28.993 126.941 29.46L127.059 29.9272L132.749 28.5174L132.631 28.0502C131.323 28.1578 131.1 27.9841 130.889 27.1456L129.25 20.6413C128.622 18.1498 126.665 17.362 124.285 17.9517C122.425 18.4126 121.19 19.6732 120.873 21.1135L120.344 19.0173Z" fill="#CBBCA9"/>
<path d="M136.863 24.2509C137.402 26.7628 139.034 27.4281 140.836 27.0477C142.176 26.765 143.235 25.8851 143.563 25.1595L143.456 24.6644C143.176 25.077 142.66 25.4006 142.075 25.5239C141.04 25.7424 140.167 25.2954 139.807 23.6168L138.138 15.8396L141.277 15.3412L141.08 14.4234L138.008 15.2358L137.425 12.5186L137.133 12.5803L133.671 16.5553L133.751 16.9296L135.224 16.6186L136.863 24.2509Z" fill="#CBBCA9"/>
<path d="M153.864 24.5472C157.457 23.9189 159.798 20.8766 159.149 17.2288C158.488 13.5081 155.288 11.5852 151.745 12.2049C148.14 12.8353 145.806 15.8511 146.457 19.5111C147.121 23.2439 150.308 25.169 153.864 24.5472ZM153.819 23.8656C151.906 24.2001 150.251 22.2201 149.646 18.8155C149.06 15.5204 149.814 13.2196 151.776 12.8765C153.689 12.542 155.343 14.5219 155.948 17.9265C156.534 21.2217 155.78 23.5225 153.819 23.8656Z" fill="#CBBCA9"/>
<path d="M173.361 11.6172L177.802 20.8396L179.04 20.7112L181.538 11.0421L185.876 20.002L187.102 19.8748L189.519 10.3879C190.011 8.41262 190.361 8.05352 191.345 7.76527L191.293 7.27407L187.405 7.67747L187.457 8.16866C188.778 8.23024 189.027 8.5768 188.654 10.3783L187.321 16.612L184.66 10.7306C183.925 9.10609 184.069 8.69386 185.314 8.39091L185.263 7.89972L179.467 8.50095L179.519 8.99214C180.789 9.04659 180.99 9.41056 180.634 11.1359L179.247 17.4496L176.66 11.5605C175.95 9.93343 176.059 9.53734 177.364 9.21568L177.312 8.72448L171.146 9.36426L171.197 9.85545C172.235 9.95886 172.673 10.1989 173.361 11.6172Z" fill="#CBBCA9"/>
<path d="M199.231 0.526706L194.76 1.28951L194.784 1.73333L195.492 1.905C196.201 2.10134 196.297 2.24454 196.336 2.94725L197.128 17.2356C197.176 18.0986 196.977 18.332 195.72 18.6107L195.747 19.0915L201.603 18.7727L201.576 18.2919C200.371 18.1596 200.199 17.9711 200.153 17.1451L199.716 9.26741C200.144 8.44035 201.022 7.8485 202.215 7.78352C203.869 7.6935 204.865 8.579 204.972 10.5022L205.325 16.8636C205.371 17.6896 205.221 17.9079 204.037 18.1578L204.064 18.6386L209.92 18.3198L209.893 17.839C208.589 17.6998 208.402 17.4874 208.354 16.6244L207.983 9.93022C207.841 7.36595 206.069 6.22586 203.62 6.3592C201.705 6.46344 200.288 7.44327 199.69 8.79894L199.231 0.526706Z" fill="#CBBCA9"/>
<path d="M217.36 18.3994C219.24 18.3741 220.748 17.5389 221.256 16.4207C221.509 17.6398 222.551 18.2678 223.871 18.2501C224.78 18.2379 225.56 17.968 225.98 17.666L225.974 17.2216C225.837 17.2605 225.651 17.3 225.452 17.3027C224.717 17.3126 224.176 16.8754 224.161 15.8013L224.077 9.64077C224.04 6.9741 222.082 5.81505 219.081 5.85542C216.131 5.89513 214.094 7.15734 214.115 8.74994C214.126 9.56475 214.807 10.1606 215.616 10.1498C216.45 10.1385 217.102 9.51237 217.091 8.7099C217.08 7.91977 216.462 7.32304 215.727 7.29589C216.331 6.90496 217.138 6.6842 218.009 6.67247C219.902 6.647 221.084 7.49545 221.116 9.81645L221.133 11.1127L218.65 11.6648C215.125 12.4531 213.759 13.6322 213.784 15.4717C213.808 17.2495 215.306 18.4271 217.36 18.3994ZM216.802 14.9372C216.783 13.4804 217.542 12.544 219.974 11.968L221.141 11.693L221.2 15.977C220.762 16.7361 219.995 17.1415 218.987 17.1551C217.767 17.1715 216.822 16.3693 216.802 14.9372Z" fill="#CBBCA9"/>
<path d="M231.101 14.8073C231.05 17.3749 232.487 18.391 234.329 18.427C235.698 18.4538 236.931 17.8358 237.417 17.2032L237.427 16.697C237.059 17.0356 236.482 17.2343 235.885 17.2226C234.827 17.2019 234.08 16.5698 234.114 14.8539L234.272 6.90407L237.443 7.12669L237.462 6.18851L234.284 6.28685L234.34 3.50935L234.041 3.50351L229.758 6.59342L229.75 6.9761L231.256 7.00558L231.101 14.8073Z" fill="#CBBCA9"/>
<path d="M253.974 9.44952L257.266 19.5418C256.202 21.2914 254.5 23.5235 253.284 24.679L253.281 24.7159L255.651 24.9019L258.01 19.6002L259.521 16.6347L262.605 10.5354C263.511 8.73622 263.884 8.44347 264.93 8.32736L264.969 7.83502L260.898 7.51562L260.859 8.00796C262.294 8.33113 262.489 8.7056 261.746 10.3441L259.054 16.2265L257.284 9.91973C256.818 8.24828 257.045 7.90692 258.513 7.82392L258.552 7.33158L252.222 6.83496L252.182 7.3273C253.172 7.60311 253.484 7.9248 253.974 9.44952Z" fill="#CBBCA9"/>
<path d="M273.794 21.1826C277.417 21.6122 280.546 19.3721 280.99 15.6942C281.442 11.9428 278.941 9.18406 275.368 8.76029C271.733 8.32919 268.619 10.5463 268.174 14.2364C267.72 18.0001 270.209 20.7574 273.794 21.1826ZM273.95 20.5171C272.021 20.2884 271.016 17.9184 271.43 14.4857C271.83 11.1634 273.224 9.17743 275.202 9.41204C277.13 9.64078 278.136 12.0108 277.722 15.4434C277.321 18.7657 275.928 20.7517 273.95 20.5171Z" fill="#CBBCA9"/>
<path d="M290.808 10.9516L286.276 10.7415L286.204 11.1801L286.857 11.499C287.485 11.826 287.557 12.0003 287.442 12.6948L286.413 18.9334C285.988 21.5044 287.432 23.0023 289.803 23.3872C291.696 23.6942 293.284 23.0137 294.165 21.8054L293.815 23.9256L298.321 24.1439L298.393 23.7052L297.737 23.3986C297.1 23.0574 297.025 22.8952 297.142 22.1885L298.783 12.2458L294.25 12.0357L294.178 12.4743L294.844 12.7951C295.484 13.1241 295.544 13.2965 295.429 13.991L294.211 21.375C293.627 22.081 292.664 22.4877 291.534 22.3043C289.9 22.0391 289.159 20.9431 289.477 19.0179L290.808 10.9516Z" fill="#CBBCA9"/>
<path d="M314.037 17.8193L315.155 27.9787L316.367 28.2632L321.946 19.9557L323.055 29.8338L324.254 30.1155L329.697 21.9534C330.82 20.2505 331.27 20.0263 332.295 20.0766L332.409 19.596L328.605 18.7026L328.49 19.1832C329.716 19.6741 329.836 20.083 328.884 21.661L325.548 27.1077L324.997 20.6847C324.845 18.9107 325.118 18.5689 326.394 18.6909L326.509 18.2104L320.839 16.8788L320.724 17.3594C321.905 17.827 321.973 18.2364 321.062 19.748L317.649 25.2526L317.17 18.8467C317.042 17.0784 317.276 16.7401 318.616 16.8643L318.73 16.3837L312.697 14.9668L312.582 15.4474C313.527 15.8849 313.861 16.2552 314.037 17.8193Z" fill="#CBBCA9"/>
<path d="M336.368 33.5195C338.175 34.0347 339.862 33.6679 340.674 32.7433C340.561 33.9829 341.375 34.8831 342.643 35.2448C343.517 35.4939 344.343 35.4597 344.832 35.291L344.956 34.8638C344.814 34.8619 344.625 34.8463 344.433 34.7917C343.727 34.5903 343.336 34.0164 343.636 32.9841L345.353 27.063C346.096 24.5 344.56 22.8285 341.676 22.0061C338.84 21.1974 336.522 21.8209 336.078 23.3516C335.851 24.1348 336.328 24.9005 337.106 25.1223C337.908 25.3509 338.714 24.9385 338.938 24.1672C339.158 23.4078 338.74 22.6591 338.045 22.4222C338.738 22.2216 339.574 22.2417 340.411 22.4805C342.23 22.9992 343.114 24.1506 342.467 26.3814L342.106 27.6273L339.568 27.4432C335.963 27.186 334.312 27.9226 333.799 29.6907C333.303 31.3994 334.394 32.9564 336.368 33.5195ZM336.844 30.0452C337.25 28.6451 338.25 27.9667 340.747 28.1134L341.944 28.185L340.75 32.3025C340.109 32.9035 339.257 33.0716 338.288 32.7952C337.115 32.4608 336.445 31.4217 336.844 30.0452Z" fill="#CBBCA9"/>
<path d="M356.362 26.5469L351.944 25.6351L351.802 26.0568L352.397 26.4743C352.988 26.9036 353.019 27.0832 352.795 27.7509L350.196 35.4944C349.92 36.3144 349.649 36.459 348.377 36.2604L348.224 36.7173L353.788 38.554L353.941 38.0972C352.87 37.5353 352.779 37.2972 353.043 36.5123L355.556 29.0266C356.26 28.4133 357.296 28.1825 358.43 28.5569C360.001 29.0756 360.6 30.2623 359.986 32.0898L357.957 38.1346C357.694 38.9195 357.473 39.068 356.28 38.8693L356.127 39.3262L361.691 41.163L361.844 40.7061C360.683 40.1014 360.588 39.8359 360.863 39.0159L362.999 32.6547C363.817 30.218 362.592 28.5123 360.264 27.744C358.445 27.1435 356.721 27.5502 355.674 28.597L356.362 26.5469Z" fill="#CBBCA9"/>
<path d="M367.47 39.7505C366.567 42.1571 367.584 43.5869 369.311 44.2247C370.594 44.6987 371.964 44.5193 372.633 44.0814L372.811 43.607C372.351 43.806 371.741 43.8045 371.181 43.5977C370.189 43.2314 369.694 42.39 370.298 40.7817L373.097 33.3303L376.016 34.5795L376.346 33.7002L373.314 32.7518L374.292 30.1484L374.012 30.045L368.94 31.5578L368.805 31.9165L370.217 32.4379L367.47 39.7505Z" fill="#CBBCA9"/>
<path d="M385.99 46.9761C384.971 49.3368 385.918 50.8135 387.612 51.5329C388.871 52.0675 390.247 51.9537 390.937 51.5482L391.138 51.0828C390.669 51.2597 390.059 51.229 389.51 50.9957C388.537 50.5826 388.084 49.7186 388.765 48.141L391.922 40.8316L394.777 42.2186L395.149 41.356L392.167 40.2641L393.27 37.7104L392.995 37.5938L387.855 38.863L387.703 39.2148L389.088 39.8029L385.99 46.9761Z" fill="#CBBCA9"/>
<path d="M399.711 56.9364C403.012 58.4765 406.694 57.3289 408.285 53.9773C409.907 50.5587 408.41 47.1586 405.154 45.6395C401.842 44.0941 398.182 45.2247 396.586 48.5874C394.959 52.0172 396.444 55.412 399.711 56.9364ZM400.071 56.3535C398.313 55.5335 398.112 52.9699 399.596 49.8417C401.033 46.8141 402.986 45.365 404.789 46.206C406.547 47.026 406.748 49.5896 405.263 52.7177C403.827 55.7453 401.873 57.1945 400.071 56.3535Z" fill="#CBBCA9"/>
<path d="M431.854 66.2651C433.766 62.8269 432.809 59.7658 430.454 58.4781C428.873 57.6136 427.077 57.6468 425.837 58.5478L429.906 51.2556L425.706 49.5515L425.49 49.9408L426.009 50.4644C426.495 50.9977 426.488 51.1632 426.145 51.7795L418.311 65.8677L419.522 66.5294L421.477 65.8505C421.453 66.9934 422.215 68.2562 423.655 69.0432C426.468 70.5813 429.948 69.6925 431.854 66.2651ZM428.961 65.0498C427.416 67.8285 425.205 68.8896 423.351 67.8761C422.413 67.3634 421.9 66.42 421.928 65.6032L425.631 58.943C426.494 58.4138 427.487 58.3927 428.512 58.9531C430.224 59.8891 430.512 62.2603 428.961 65.0498Z" fill="#CBBCA9"/>
<path d="M436.262 68.9352C434.281 72.1773 435.249 75.6455 438.263 77.4559C440.095 78.5561 441.99 78.7419 443.331 78.1186L443.572 77.7004C442.653 77.9422 441.501 77.8272 440.35 77.1364C438.05 75.7546 437.579 72.9745 439.159 70.0548L445.953 74.136C446.065 74.0009 446.245 73.7772 446.381 73.5555C447.929 71.021 447.371 68.2892 444.602 66.626C441.513 64.7709 438.158 65.8304 436.262 68.9352ZM444.243 67.1899C445.606 68.0087 445.44 69.757 444.286 71.6473C444.15 71.8691 444.03 72.0422 443.922 72.1943L439.445 69.5626C440.935 67.1231 442.709 66.2687 444.243 67.1899Z" fill="#CBBCA9"/>
<defs>
<clipPath id="clip0">
<rect width="149" height="64" fill="white" transform="translate(150 66)"/>
</clipPath>
</defs>
</svg>
