<svg width="485" height="192" viewBox="0 0 485 192" fill="none" xmlns="http://www.w3.org/2000/svg">
<path d="M64.5998 61.6411L65.1241 61.7666L65.5519 61.4732C72.0756 60.3229 77.206 62.9223 80.9431 69.2714C81.306 70.3693 81.5501 71.2704 81.6756 71.9745L81.772 72.3932C82.0148 73.7665 81.7412 74.6499 80.9511 75.0434C80.528 75.118 79.9794 74.4885 79.3053 73.1549L79.3817 72.0522C78.867 69.0202 76.401 66.6772 71.9837 65.0233C70.0679 64.6712 68.2123 64.5808 66.417 64.7521L66.4773 65.0138C65.4064 64.9848 64.8725 64.8973 64.8757 64.7515C57.9775 66.9846 52.034 69.5395 47.0454 72.4162C38.8969 77.6656 33.5168 81.3921 30.9051 83.5955C30.5927 83.8322 30.2601 83.9816 29.9075 84.0438C29.8673 83.8693 29.8825 83.7758 29.953 83.7634C30.0624 84.3977 29.1011 85.4024 27.0693 86.7774C22.4212 90.9738 19.9604 93.5138 19.6868 94.3972C18.7347 94.5651 17.8062 95.4732 16.9014 97.1214C14.9722 98.6236 11.6533 103.094 6.94453 110.533C5.92503 113.436 5.18496 115.8 4.72432 117.624L4.99147 118.067C4.86873 119.287 4.88212 120.301 5.03166 121.11L5.19571 122.061C6.33219 124.766 9.54517 125.652 14.8347 124.719L15.3107 124.635C23.4213 123.205 40.0124 114.143 65.0841 97.4491C65.9657 97.2936 66.9071 98.0354 67.9083 99.6744C68.1199 99.6371 68.2658 99.7929 68.3462 100.142C64.4155 102.832 55.8121 110.25 42.5362 122.394C36.9544 127.954 31.7236 133.524 26.8439 139.105C19.9752 148.159 16.4157 153.816 16.1653 156.075C14.5673 159.334 13.979 162.198 14.4003 164.665C15.169 168.959 19.2234 170.95 26.5636 170.636C27.8379 170.593 28.9159 170.493 29.7975 170.338C29.9033 170.319 30.2535 170.167 30.848 169.88L31.4373 170.049C32.8781 169.613 33.6001 169.322 33.6033 169.177C33.9912 169.108 34.2012 169.144 34.2333 169.283C45.2462 166.434 55.9997 161.342 66.4938 154.009C77.8789 146.083 89.487 136.974 101.318 126.681C101.701 126.432 102.034 126.283 102.316 126.233L103.685 128.116C103.27 128.225 103.07 128.315 103.086 128.385L103.615 128.291L103.712 128.71C102.794 130.143 100.658 132.262 97.3047 135.069C84.3538 146.394 74.4441 154.114 67.5758 158.23C52.6292 166.784 42.1055 171.599 36.005 172.675L35.7405 172.721C35.67 172.734 35.6332 172.813 35.63 172.959C35.2421 173.027 35.0321 172.992 35 172.852L33.4084 173.35L30.9753 173.78C22.9 175.203 16.9164 173.281 13.0244 168.012C12.1433 166.098 11.5677 164.475 11.2976 163.142C9.84865 154.937 19.2304 140.701 39.4429 120.434C44.9417 115.471 47.6991 113.024 47.7152 113.093C33.8585 121.601 24.0667 126.486 18.3398 127.75L14.9545 128.347C10.0882 129.205 6.17597 127.753 3.21785 123.99C2.62729 122.859 2.27488 121.886 2.1606 121.071L1.82046 119.116C1.37675 116.871 1.61533 114.958 2.53618 113.38C2.39513 113.405 2.33732 113.233 2.36276 112.866L3.91411 109.324C4.54303 107.434 6.19504 104.728 8.87012 101.206L9.40644 101.384C9.41759 101.273 9.44081 101.215 9.47607 101.209L9.29797 100.913L9.18949 100.442C10.2474 100.256 10.7953 99.6869 10.8332 98.7361C13.6846 95.1832 17.0081 91.5289 20.8036 87.7732L21.1738 87.7079L21.4865 87.8707L21.5227 88.0277C21.3463 88.0588 21.214 87.8824 21.1256 87.4986L21.7075 87.396L21.996 87.454C22.0121 87.5238 22.3085 87.2174 22.8852 86.5347C22.9205 86.5285 22.8939 86.3335 22.8055 85.9496L23.2816 85.8657C23.5637 85.816 23.7128 85.826 23.7288 85.8958C24.639 85.2269 25.0941 84.8925 25.0941 84.8925L24.5651 84.9858L24.4446 84.4624C25.8658 83.304 26.8057 82.6844 27.2641 82.6036L27.3243 82.8653C27.3949 82.8528 27.5966 82.4541 27.9296 81.6692C28.409 81.8389 28.684 81.9175 28.7545 81.905L28.8121 81.677L29.0237 81.6397C28.9933 81.8266 28.8018 81.9511 28.4492 82.0133L28.3528 81.5946C28.2836 81.1347 29.2402 80.3488 31.2225 79.2367C31.1823 79.0623 31.453 78.724 32.0346 78.2221L32.7297 78.3718L32.573 77.6914C33.1724 77.5857 33.6117 77.5809 33.8907 77.6769C34.4419 77.3619 34.7095 77.1694 34.6935 77.0996C34.5171 77.1307 34.3888 76.9718 34.3085 76.6229L35.604 75.7953C35.7902 76.1256 35.9009 76.2876 35.9361 76.2814C35.8237 75.7929 35.9437 75.5175 36.2964 75.4553C36.6539 75.5739 36.9032 75.6207 37.0443 75.5958C37.8196 74.6602 38.6809 74.0182 39.6281 73.6696L39.5343 73.7406C39.358 73.7717 39.2649 73.6066 39.2551 73.2452C41.9137 71.7234 43.4689 70.6685 43.9206 70.0805C51.3709 66.2613 55.5193 64.2771 56.3656 64.1279L56.3897 64.2326C57.0691 63.6771 59.8058 62.8132 64.5998 61.6411ZM33.8277 76.9255L34.7269 76.7669L34.8595 77.3427L33.9603 77.5012L33.8277 76.9255ZM32.1217 79.0782C32.1489 79.0371 32.1978 79.0103 32.2683 78.9978L32.2804 79.0502L32.1217 79.0782ZM29.9778 80.7634L29.9537 80.6587L30.1124 80.6307L30.1365 80.7354L29.9778 80.7634Z" fill="#CAAE97"/>
<path d="M119.401 101.706L119.665 101.659L119.786 102.183L119.521 102.23L119.401 101.706ZM120.406 101.529L120.67 101.482L120.899 102.477L121.375 102.393L121.435 102.655L121.128 103.471L121.393 103.425C121.352 103.25 121.403 103.15 121.544 103.126L121.604 103.387L121.501 103.896C121.642 103.871 121.733 103.946 121.773 104.12C121.42 104.182 120.977 105.205 120.442 107.187C120.019 107.262 119.617 107.587 119.236 108.162L118.659 108.046C118.884 109.023 118.661 109.571 117.991 109.689C118.112 110.212 116.161 113.134 112.139 118.455C109.957 121.091 107.72 122.611 105.428 123.015L105.163 123.062C102.518 123.528 100.778 121.947 99.9427 118.318C100.26 117.463 100.394 116.931 100.346 116.722L100.87 116.847C100.806 116.568 100.87 116.048 101.061 115.288L100.797 115.335C100.877 115.684 100.741 115.89 100.389 115.952L100.268 115.428L100.628 114.602L100.52 114.131C94.7559 123.681 90.3928 128.716 87.4307 129.239L87.1663 129.285C84.9799 129.671 83.5192 128.984 82.784 127.226L82.1392 126.577L81.9705 125.844C81.179 120.973 83.3024 114.099 88.3405 105.222C91.5566 100.225 94.8044 97.4374 98.0839 96.8591C101.896 97.6393 104.116 99.3903 104.743 102.112C104.763 103.634 104.508 104.441 103.979 104.534C102.361 103.403 101.367 102.035 100.998 100.43C100.14 99.8917 99.1467 99.7218 98.0183 99.9208C96.3962 100.207 93.7905 103.154 90.2012 108.761C90.3776 108.73 90.4858 108.802 90.526 108.976C90.2439 109.026 89.7064 109.72 88.9137 111.058L89.1782 111.011C88.4595 112.99 87.8357 114.026 87.3068 114.119L87.367 114.381C87.4072 114.555 87.5155 114.627 87.6918 114.596C87.3289 116.366 86.7595 117.32 85.9837 117.457L86.044 117.719L86.573 117.625L86.6212 117.835C86.2333 117.903 85.9108 118.813 85.6537 120.565C85.83 120.534 85.9382 120.606 85.9784 120.78C85.661 120.836 85.5468 121.455 85.6356 122.638L85.0993 122.46L85.1596 122.722C85.3729 123.011 85.4997 123.243 85.5399 123.417L85.1241 123.763C85.0839 123.589 84.9757 123.517 84.7993 123.548L84.8596 123.81C85.0359 123.779 85.1401 123.833 85.1723 123.972L84.9078 124.019C84.948 124.194 85.0562 124.265 85.2325 124.234L85.2573 125.537L85.5948 127.003C87.5343 126.661 90.5069 123.395 94.5126 117.206C98.7615 110.32 101.468 106.774 102.632 106.569L103.16 106.476C103.407 106.432 104.014 106.834 104.979 107.68L105.268 108.937C105.035 109.994 104.812 110.542 104.601 110.579C104.561 110.405 104.47 110.33 104.329 110.355L104.661 110.841L104.354 111.658L104.522 112.391C104.077 112.687 103.943 113.219 104.119 113.987L103.53 113.818L103.59 114.08L103.855 114.033C103.628 115.598 103.391 116.403 103.144 116.446L103.477 116.932L103.537 117.194C103.043 117.281 102.853 117.569 102.965 118.057C103.214 118.34 103.358 118.569 103.398 118.743C103.054 118.841 102.914 119.029 102.978 119.308L103.267 120.564L104.537 120.34L104.952 119.995L105.013 120.256C106.565 119.51 108.19 118.28 109.887 116.564C110.685 115.407 111.681 113.997 112.876 112.334C113.497 111.207 114.179 110.343 114.921 109.74C114.953 109.88 115.057 109.934 115.233 109.903L114.86 109.478L114.8 109.217L115.805 109.039C115.765 108.865 115.657 108.793 115.48 108.824C115.392 108.441 116.358 106.818 118.378 103.956C118.743 103.311 118.893 102.849 118.829 102.569L119.358 102.476L119.894 102.654C119.812 101.979 119.982 101.604 120.406 101.529ZM120.232 104.12L120.352 104.643L120.617 104.596L120.496 104.073L120.232 104.12ZM116.546 108.909L116.606 109.171C117.1 109.084 117.383 109.197 117.455 109.511L117.719 109.464L117.671 109.255C117.414 108.937 117.266 108.691 117.226 108.517C116.949 108.747 116.722 108.878 116.546 108.909ZM100.832 114.294L100.953 114.817L101.165 114.78L101.044 114.257L100.832 114.294Z" fill="#CAAE97"/>
<path d="M120.459 94.112L122.145 94.7407L122.112 95.0734C122.219 95.3812 122.428 95.4897 122.737 95.3988L122.809 95.7129C122.901 95.9509 122.828 96.6718 122.592 97.8754C122.699 98.1833 122.545 98.3919 122.13 98.5014L122.402 98.7258L122.438 98.8829L122.215 100.066L122.374 100.038L124.501 97.321C124.56 97.4194 124.621 97.445 124.683 97.3977C124.576 97.0899 125.125 96.4483 126.332 95.473C126.356 95.5777 126.421 95.6207 126.527 95.6021C126.387 95.1547 127.52 94.3376 129.925 93.1509C129.901 93.0463 129.924 92.9877 129.995 92.9753C130.223 93.0077 130.389 93.0147 130.495 92.996L130.459 92.839C131.78 92.6787 133.134 92.9845 134.523 93.7563C136.191 95.423 137.079 96.4102 137.187 96.7181L137.403 96.4621L137.687 96.7388L137.531 97.2565L137.836 97.1482L137.908 97.4623C137.968 97.5607 137.945 97.6193 137.839 97.6379L138.07 97.924L138.183 98.1764L137.197 98.677C136.274 98.3315 135.605 97.9773 135.191 97.6146C134.203 96.1911 133.537 95.528 133.192 95.625L132.622 95.78C128.46 96.986 124.691 101.972 121.315 110.737C120.594 113.66 120.137 115.901 119.946 117.46C119.611 118.717 119.377 120.247 119.241 122.05L118.862 123.751C118.624 123.829 118.409 124.012 118.218 124.3L118.06 124.328C118.011 124.119 117.934 124.024 117.829 124.042L117.365 124.178C116.993 124.317 116.505 123.713 115.902 122.367C115.796 122.385 115.575 122.225 115.24 121.884L115.144 121.465L115.235 120.905C115.137 120.958 115.076 120.933 115.052 120.828C115.255 120.756 115.419 120.11 115.541 118.89C115.436 118.909 115.375 118.883 115.359 118.813C115.597 118.735 115.732 118.203 115.762 117.217C116.238 115.463 116.711 112.892 117.178 109.505C117.514 108.575 118.019 105.508 118.693 100.306C118.587 100.324 118.522 100.281 118.498 100.177C118.772 100.092 118.886 99.4729 118.841 98.319L119.767 94.452C120.111 94.3549 120.342 94.2416 120.459 94.112ZM119.703 95.6071C119.735 95.7467 119.736 95.9099 119.705 96.0968L119.864 96.0688L119.897 95.7361L119.861 95.5791L119.703 95.6071Z" fill="#CAAE97"/>
<path d="M141.511 90.4L143.197 91.0286L143.164 91.3613C143.271 91.6691 143.48 91.7776 143.789 91.6868L143.861 92.0008C143.953 92.2389 143.88 92.9597 143.644 94.1634C143.751 94.4712 143.598 94.6799 143.183 94.7894L143.454 95.0138L143.491 95.1708L143.268 96.3539L143.426 96.3259L145.553 93.6089C145.612 93.7074 145.673 93.7329 145.736 93.6856C145.628 93.3778 146.177 92.7362 147.384 91.761C147.408 91.8656 147.473 91.9087 147.579 91.89C147.439 91.4426 148.572 90.6256 150.977 89.4389C150.953 89.3342 150.977 89.2756 151.047 89.2632C151.275 89.2957 151.441 89.3026 151.547 89.2839L151.511 89.1269C152.832 88.9666 154.187 89.2724 155.575 90.0443C157.243 91.7109 158.131 92.6982 158.239 93.006L158.455 92.75L158.739 93.0267L158.583 93.5445L158.888 93.4362L158.961 93.7502C159.02 93.8487 158.997 93.9072 158.891 93.9259L159.122 94.2119L159.235 94.4643L158.25 94.9649C157.326 94.6194 156.657 94.2653 156.244 93.9025C155.255 92.4791 154.589 91.8159 154.244 91.913L153.674 92.0679C149.512 93.2739 145.743 98.2595 142.367 107.025C141.646 109.948 141.189 112.189 140.998 113.748C140.664 115.005 140.429 116.535 140.294 118.338L139.915 120.039C139.676 120.117 139.461 120.3 139.27 120.588L139.112 120.616C139.064 120.407 138.987 120.311 138.881 120.33L138.417 120.466C138.045 120.605 137.557 120.001 136.954 118.655C136.848 118.673 136.627 118.512 136.292 118.172L136.196 117.753L136.287 117.193C136.189 117.246 136.128 117.221 136.104 117.116C136.308 117.044 136.471 116.398 136.594 115.178C136.488 115.196 136.427 115.171 136.411 115.101C136.65 115.023 136.784 114.491 136.814 113.505C137.291 111.751 137.763 109.18 138.231 105.793C138.567 104.863 139.071 101.796 139.745 96.5938C139.639 96.6124 139.574 96.5694 139.55 96.4647C139.824 96.3801 139.939 95.7608 139.893 94.6069L140.819 90.7399C141.164 90.6428 141.394 90.5295 141.511 90.4ZM140.755 91.895C140.787 92.0346 140.788 92.1978 140.757 92.3847L140.916 92.3568L140.95 92.0241L140.913 91.867L140.755 91.895Z" fill="#CAAE97"/>
<path d="M168.228 81.1684L168.365 81.5254C168.473 81.8333 168.315 82.0245 167.892 82.0991L167.981 82.2468L168.298 82.1908L168.265 82.5235C168.371 82.5049 168.541 82.5293 168.777 82.5966C168.685 82.3586 168.914 82.1549 169.462 81.9857L169.746 82.2624C169.64 82.2811 169.599 82.3427 169.623 82.4474L169.782 82.4194C169.734 82.2101 169.798 82.0898 169.974 82.0587C170.058 82.2619 170.205 82.3448 170.417 82.3075L170.72 82.9076C169.712 83.63 168.359 85.085 166.661 87.2725C166.777 87.6153 166.383 87.9753 165.479 88.3525L165.32 88.3805C164.865 88.3155 164.457 88.0605 164.098 87.6155L164.379 87.4026L163.528 86.5723L163.439 86.4246C162.911 85.2469 164.507 83.4948 168.228 81.1684ZM160.763 92.0163L161.08 91.9603C161.186 91.9416 161.269 91.9815 161.328 92.08L161.556 91.8764L161.768 91.839C161.844 92.0073 162.293 92.3638 163.115 92.9087C162.974 92.9336 162.951 92.9921 163.046 93.0844L163.943 93.6342C164.015 93.9483 163.888 94.352 163.561 94.8453C163.704 95.1469 163.557 96.2622 163.121 98.191C161.811 101.908 161.474 105.544 162.11 109.099L162.268 109.071L162.213 109.789C162.631 110.805 163.439 111.207 164.638 110.995L164.727 111.143L165.008 110.93L165.313 110.822C165.419 110.803 165.502 110.843 165.561 110.942L165.79 110.738L166.196 110.83C169.172 109.252 171.485 107.664 173.135 106.066C174.685 104.667 177.626 101.026 181.959 95.1417L182.365 95.2334C182.206 94.862 182.593 94.231 183.525 93.3404L184.056 92.5387L184.41 92.6397C184.727 92.5838 184.798 92.3352 184.623 91.894L184.977 91.9951L184.693 91.7183C184.645 91.509 184.709 91.3887 184.885 91.3577L185.044 91.3297L185.595 92.0495L185.631 92.2065L185.278 92.1055C185.353 92.2737 185.335 92.513 185.223 92.8232L185.312 92.9709C185.76 92.5287 186.137 91.9357 186.443 91.1919L186.602 91.1639L186.568 91.4966L186.727 91.4686C186.668 91.3701 186.691 91.3116 186.797 91.2929L187.134 91.5603C186.824 91.6512 186.67 91.8599 186.672 92.1863C186.425 92.2299 186.248 92.4971 186.141 92.988C185.824 93.044 185.707 93.1735 185.79 93.3767C185.896 93.358 185.979 93.3979 186.038 93.4964L185.281 93.7933C185.408 94.0252 185.555 94.1081 185.723 94.0421L185.598 93.7374L185.757 93.7094C185.863 93.6907 185.945 93.7306 186.005 93.8291L186.954 93.1715L186.605 92.8517C186.711 92.8331 186.963 92.5709 187.36 92.0651L187.485 92.3698L187.644 92.3418C187.385 91.6975 187.744 91.3437 188.72 91.2805C188.544 91.3116 188.321 91.4598 188.052 91.7252L188.336 92.0019L188.425 92.1496L187.824 91.9288L187.961 92.2859L188.266 92.1776C188.252 92.4343 188.257 92.615 188.281 92.7196L187.805 92.8036L187.452 92.7025L187.418 93.0352L187.894 92.9513C187.97 93.1195 187.886 93.3158 187.644 93.54L187.454 93.1922L187.296 93.2202C187.135 93.3211 187.093 93.4557 187.168 93.6239L187.327 93.5959C187.31 93.9984 186.921 94.7023 186.162 95.7077L185.703 95.6253L185.97 96.0684L185.6 96.1337L185.633 95.801L185.544 95.6533L185.227 95.7092L185.511 95.986C185.193 96.0419 185.064 96.1191 185.124 96.2176C185.313 96.4021 185.42 96.5467 185.444 96.6514C183.808 98.7916 180.702 102.753 176.125 108.534C172.535 111.745 169.686 113.555 167.578 113.963L167.119 113.88C167.013 113.899 166.99 113.958 167.049 114.056C165.611 114.346 163.948 113.895 162.059 112.703C161.847 112.74 161.654 112.538 161.479 112.097L161.638 112.069C160.71 111.071 159.918 109.939 159.26 108.676C158.549 107.022 158.442 105.044 158.939 102.741L159.131 102.38L158.795 102.113C158.866 101.628 159.061 101.358 159.378 101.302L159.342 101.145L159.006 100.877C159.252 100.834 159.327 100.203 159.23 98.9859C159.505 98.9012 159.705 98.5754 159.831 98.0085C159.725 98.0271 159.66 97.9841 159.636 97.8794C159.979 97.4559 160.273 96.2604 160.517 94.2928L160.675 94.2648C160.735 94.3633 160.817 94.4032 160.923 94.3846C160.788 94.1178 160.765 93.3776 160.852 92.164L160.763 92.0163ZM186.193 90.5824L186.51 90.5265L186.635 90.8312L186.318 90.8871L186.193 90.5824ZM185.912 90.7954L186.196 91.0721C186.271 91.2404 186.188 91.4366 185.946 91.6608L185.787 91.6888L185.472 91.0364C185.613 91.0115 185.759 90.9312 185.912 90.7954ZM187.448 91.0147L187.766 90.9587L187.802 91.1157L187.484 91.1717L187.448 91.0147ZM188.528 91.6412L188.899 91.5759L188.988 91.7236L188.67 91.7796L188.528 91.6412ZM184.819 93.2212L184.961 93.3596L185.437 93.2756L185.348 93.1279L184.819 93.2212ZM184.569 93.8099L184.927 93.6923L184.749 93.3969C184.546 93.4691 184.486 93.6068 184.569 93.8099ZM181.643 97.5939L181.96 97.538C181.884 97.3697 182.196 96.9698 182.895 96.3383L183.179 96.615C182.791 96.6834 182.697 97.1538 182.898 98.0262C183.699 96.723 184.24 96.0466 184.522 95.9968L184.397 95.6921L184.186 95.7294C183.786 95.9087 183.662 96.1666 183.813 96.5031L183.655 96.5311C183.514 96.556 183.283 96.4331 182.964 96.1626L184.041 95.1013L183.867 94.5872C182.301 96.3885 181.559 97.3908 181.643 97.5939ZM185.861 94.3992L185.758 94.9075L185.794 95.0646L186.164 94.9993C186.037 94.7674 185.989 94.5581 186.019 94.3712L185.861 94.3992ZM184.13 95.249L184.166 95.406L184.873 95.6082L184.695 95.3128C184.554 95.3376 184.366 95.3164 184.13 95.249ZM184.854 95.2848L185.032 95.5802L185.191 95.5522L185.012 95.2568L184.854 95.2848ZM181.804 98.0557L182.083 98.5511L182.401 98.4951C182.534 98.4354 182.617 98.2391 182.65 97.9064L182.614 97.7494L181.804 98.0557Z" fill="#CAAE97"/>
<path d="M202.515 82.5845L203.345 82.6016C203.321 82.4969 203.362 82.4353 203.467 82.4166C203.483 82.4864 203.661 82.6186 203.999 82.8131L204.095 83.2318C204.413 83.1758 204.969 83.677 205.763 84.7352C205.621 86.0311 205.281 87.3438 204.743 88.6732C204.676 89.3386 204.431 89.7086 204.008 89.7832L203.849 89.8112L204.08 90.0973L204.189 90.5683C203.871 90.6243 203.688 91.1831 203.639 92.2448C203.216 92.3194 203.024 92.444 203.064 92.6184L203.382 92.5625L203.173 93.0895C203.197 93.1942 203.262 93.2372 203.368 93.2185C203.323 93.6621 203.213 93.8995 203.036 93.9306L202.964 93.6165L202.805 93.6445C202.853 93.8539 202.825 93.9679 202.719 93.9865L202.95 94.2726C202.878 94.7573 202.495 95.4058 201.802 96.218L202.083 96.005L202.4 95.9491L202.436 96.1061C202.485 96.3154 202.403 96.4388 202.191 96.4761C202.167 96.3714 202.102 96.3284 201.996 96.347L202.215 96.5808L202.288 96.8948L201.812 96.9788L202.043 97.2648L201.834 97.7919C201.94 97.7732 202.004 97.8162 202.029 97.9209C201.746 97.9706 201.638 98.1351 201.702 98.4142C201.772 98.4018 201.82 98.4479 201.844 98.5526C201.675 98.6186 201.611 98.7388 201.652 98.9133L201.76 99.3844C204.103 97.4463 205.831 95.7073 206.944 94.1675L207.482 93.6369L209.984 90.6359C210.008 90.7405 210.073 90.7836 210.178 90.7649C210.748 89.5751 211.705 88.3897 213.047 87.2089C213.624 86.5262 213.884 86.0628 213.828 85.8185L214.182 85.9196C214.686 84.9229 215.058 84.3853 215.296 84.3069L215.333 84.4639C215.461 85.0222 214.894 86.0662 213.632 87.596L213.791 87.568L214.581 86.9384L214.935 87.0395C214.846 86.6556 214.908 86.4451 215.12 86.4078L215.278 86.3798L215.375 86.7985L215.533 86.7705C215.397 86.1773 215.434 85.8621 215.646 85.8248L215.718 86.1388L215.824 86.1202C215.728 85.7014 215.891 85.4548 216.314 85.3801L216.35 85.5372C216.33 86.0855 216.231 86.3751 216.055 86.4062L216.274 86.64C215.962 87.6754 215.665 88.2179 215.383 88.2677L215.614 88.5538C215.418 88.6609 215.268 88.7237 215.162 88.7424L215.393 89.0284C215.241 89.1642 215.041 89.2539 214.794 89.2974L215.025 89.5835C214.786 89.6619 214.6 89.9671 214.466 90.4992C214.324 90.524 214.075 90.8766 213.718 91.5568C210.513 95.6442 208.426 98.1363 207.459 99.0332C206.092 100.908 204.55 102.179 202.832 102.845C201.034 103.162 199.834 102.574 199.234 101.083L199.393 101.055C198.939 100.517 198.663 100.039 198.567 99.6206C198.358 98.7134 199.3 95.3155 201.394 89.4271L201.235 89.4551C201.275 89.6296 200.36 90.7533 198.489 92.8261L195.031 97.4118C194.477 97.8727 193.057 99.5937 190.771 102.575C189.928 103.377 189.33 103.809 188.978 103.871L187.761 104.086C186.703 104.272 185.791 103.58 185.026 102.008L185.185 101.98C184.901 101.704 184.727 101.426 184.662 101.146C184.638 101.042 184.679 100.98 184.785 100.961L184.554 100.675C184.389 98.5258 184.465 97.0236 184.782 96.1689C184.676 96.1875 184.611 96.1445 184.587 96.0398C184.944 95.3596 185.272 93.9946 185.571 91.9448C185.41 91.2469 185.616 90.4663 186.187 89.603C186.483 89.7688 186.701 89.8393 186.842 89.8144L186.878 89.9714L186.832 90.2518L186.938 90.2332C186.914 90.1285 186.955 90.0668 187.061 90.0481C187.564 90.3225 188.193 90.9015 188.947 91.7853C188.792 92.8656 188.668 93.5229 188.575 93.7571L188.416 93.7851L188.647 94.0712C188.506 94.0961 188.396 94.3334 188.316 94.7832L188.547 95.0693C188.475 95.554 188.337 95.8325 188.134 95.9047L188.312 96.2001L187.911 97.0878C188.057 97.2436 188.142 97.3738 188.166 97.4785C187.822 98.3744 187.665 99.3643 187.694 100.448C188.76 99.4981 189.646 98.4884 190.354 97.4195L191.26 96.3338C191.154 96.3525 191.089 96.3095 191.065 96.2048C191.615 95.5632 191.96 95.23 192.101 95.2052L193.093 93.7775C193.117 93.8821 193.182 93.9252 193.288 93.9065C194.126 92.9236 194.521 92.3275 194.473 92.1181L194.436 91.9611L194.737 92.0715C195.852 90.0594 197.361 88.25 199.267 86.6432C200.127 85.4385 200.68 84.8144 200.927 84.7709L201.761 83.3711C202.36 83.2654 202.612 83.0032 202.515 82.5845ZM196.103 92.2664L196.139 92.4234L196.456 92.3674L196.42 92.2104L196.103 92.2664ZM203.09 92.0147L203.127 92.1717L203.444 92.1158L203.408 91.9587L203.09 92.0147ZM202.624 92.8594L202.661 93.0164L202.978 92.9605L202.942 92.8034L202.624 92.8594ZM212.048 92.6684L212.108 92.9301L212.267 92.9021L212.206 92.6404L212.048 92.6684ZM201.292 96.6346L201.874 96.532C201.826 96.3227 201.696 96.2367 201.484 96.274C201.316 96.3399 201.252 96.4602 201.292 96.6346Z" fill="#CAAE97"/>
<path d="M220.829 79.4098L220.988 79.3818C221.093 79.3631 221.158 79.4061 221.182 79.5108L221.517 79.2885C222.398 79.1331 223.412 80.1889 224.558 82.456C224.769 82.4187 224.995 81.3259 225.234 79.1777C225.928 79.1642 226.287 79.2099 226.311 79.3145L226.432 79.838L226.802 79.7727L226.716 80.1147C227.102 80.5186 227.437 80.6956 227.719 80.6459C227.855 81.2391 228.029 81.517 228.241 81.4797C227.7 82.9549 227.525 84.7468 227.717 86.8553C227.619 88.1799 227.481 88.8577 227.305 88.8888L227.536 89.1749L227.584 89.3842L227.267 89.4402L227.303 89.5972L227.62 89.5413L227.423 90.1206L227.582 90.0927L227.477 91.3095C227.618 91.2846 227.705 91.3419 227.737 91.4815C227.49 91.525 227.379 91.5991 227.403 91.7038C227.557 91.8945 227.65 92.0597 227.682 92.1993C227.506 92.2304 227.423 92.5898 227.435 93.2777C227.541 93.259 227.606 93.302 227.63 93.4067C227.453 93.4378 227.116 93.8059 226.618 94.511L226.654 94.6681L226.813 94.6401C226.733 94.2911 226.992 94.0638 227.592 93.9581L227.676 94.3245L227.306 94.3898L227.537 94.6759L227.573 94.8329L227.376 95.4123L227.619 95.7507C227.607 96.3338 227.442 96.6534 227.124 96.7094L227.16 96.8664C227.407 96.8229 227.543 96.8535 227.567 96.9581L227.353 97.7039L227.512 97.6759C227.511 98.1482 227.444 98.5774 227.313 98.9637C227.419 98.945 227.484 98.988 227.508 99.0927L227.174 99.315L227.47 99.6441C227.646 100.412 227.475 101.259 226.954 102.186L227.324 102.121L227.445 102.644C227.63 103.447 227.493 103.888 227.035 103.969L227.071 104.126L227.509 104.594C227.368 104.619 227.203 104.938 227.014 105.552L227.098 105.919L227.468 105.854L227.541 106.168L227.012 106.261L227.048 106.418L227.484 107.594C227.272 107.631 227.179 107.702 227.203 107.807L227.446 108.145C227.108 108.749 226.995 109.296 227.108 109.784L226.701 109.693L226.42 109.906L226.384 109.748L226.458 109.354L226.299 109.382L226.05 109.971L226.134 110.337L226.456 110.063C226.841 110.14 227.045 110.231 227.069 110.336C227.15 110.685 227.014 110.89 226.661 110.952L227.087 111.367L226.928 111.395L227.171 111.734L227.207 111.891C226.784 111.965 226.542 112.426 226.48 113.272L226.867 114.238L226.988 114.762L226.67 114.818C226.824 115.008 226.917 115.174 226.95 115.313C226.892 115.541 226.879 115.725 226.911 115.865L226.493 115.721L226.541 115.93C226.695 116.121 226.784 116.268 226.808 116.373C226.475 117.158 226.221 117.566 226.044 117.597L226.08 117.754C226.137 117.998 226.341 118.089 226.694 118.027L226.73 118.184C226.778 118.394 226.573 118.539 226.115 118.619L226.163 118.829L226.48 118.773C226.657 119.541 226.516 119.965 226.058 120.046L226.301 120.384L226.337 120.541C226.09 120.585 225.913 120.852 225.806 121.343L226.176 121.277L225.804 122.051L225.963 122.023C225.939 121.919 225.997 121.854 226.138 121.829L226.174 121.986C226.214 122.16 226.078 122.366 225.766 122.603L225.997 122.889L226.033 123.046L225.55 124.057L225.233 124.113L225.269 124.27L225.586 124.214L225.659 124.528L225.341 124.584L225.584 124.922C225.338 124.966 225.226 125.04 225.25 125.144L225.371 125.668C225.378 126.175 225.076 126.936 224.466 127.952L224.872 128.043C224.848 127.939 224.889 127.877 224.995 127.858L225.031 128.015C225.029 128.488 224.852 128.755 224.5 128.817L224.743 129.156L224.267 129.239L224.339 129.554L224.62 129.341L224.656 129.498C224.713 129.742 224.635 129.883 224.423 129.92C224.391 129.78 224.305 129.723 224.164 129.748L224.46 130.077C224.367 130.311 224.336 130.498 224.369 130.638L224.21 130.666L224.125 130.299L223.967 130.327L224.051 130.694C224.157 130.675 224.222 130.718 224.246 130.823C223.893 130.885 223.741 131.021 223.789 131.23L223.874 131.596L224.158 131.873L223.946 131.91L223.592 131.809L223.518 132.204L223.836 132.148C223.688 132.464 223.647 132.762 223.711 133.041L223.305 132.949L223.341 133.106L223.572 133.393L223.303 133.658C223.27 133.518 223.201 133.458 223.096 133.476L222.968 133.88L223.339 133.815C223.387 134.024 223.235 134.16 222.882 134.222L223.125 134.561C223.042 135.156 222.771 135.494 222.313 135.575L222.556 135.914L222.592 136.071L221.816 137.242L222.059 137.581C221.609 137.697 221.42 137.911 221.492 138.225L221.651 138.197C221.699 138.407 221.357 138.994 220.625 139.958C220.786 140.656 219.629 142.566 217.156 145.689C215.745 147.209 214.291 148.464 212.794 149.454L212.83 149.611L212.477 149.51C212.058 149.765 211.869 149.98 211.91 150.155C211.804 150.173 211.739 150.13 211.715 150.026C210.306 150.601 209.478 150.91 209.231 150.954L209.195 150.797L209.036 150.825L209.121 151.191L208.909 151.229L208.349 150.946L208.433 151.312L208.222 151.35C208.157 151.071 207.835 150.946 207.255 150.976L207.219 150.819L207.06 150.847L207.132 151.161L206.762 151.226C206.682 150.877 206.27 150.605 205.528 150.409L205.194 150.631C205.154 150.456 204.244 149.854 202.466 148.824C202.402 148.545 202.092 148.237 201.537 147.899L200.149 145.693L200.466 145.637L200.223 145.298L200.03 144.461L200.4 144.395L200.364 144.238L199.994 144.304L200.068 143.909L199.996 143.595C199.932 143.316 199.827 143.099 199.681 142.943C199.674 142.436 199.876 142.037 200.286 141.747L200.25 141.59L200.461 141.552C200.485 141.657 200.579 141.822 200.741 142.048C200.683 142.276 200.67 142.46 200.702 142.599L200.861 142.571L200.775 142.913L200.811 143.07L201.128 143.014L201.213 143.381L200.895 143.437L201.052 144.117C201.299 144.074 201.534 144.377 201.757 145.028C201.651 145.046 201.61 145.108 201.634 145.213L201.793 145.185C201.825 145.324 201.788 145.403 201.683 145.422C202.012 146.853 203.419 147.785 205.904 148.218C206.084 148.041 206.244 147.94 206.385 147.915C206.629 148.018 206.821 148.056 206.962 148.032C206.93 147.892 206.967 147.813 207.073 147.794C207.164 148.032 207.298 148.136 207.474 148.105C207.615 148.08 207.674 148.015 207.65 147.91L208.003 148.011L208.691 147.89L209.136 147.43C209.168 147.57 209.237 147.63 209.342 147.612C209.302 147.437 209.761 147.12 210.72 146.661C212.356 145.319 213.782 143.942 214.997 142.53L214.913 142.163L215.072 142.135L215.437 142.289L215.389 142.079C215.283 142.098 215.218 142.055 215.194 141.95C215.476 141.901 216.361 140.564 217.849 137.942C217.831 137.546 218.078 137.103 218.589 136.613L218.541 136.404C218.435 136.422 218.37 136.379 218.346 136.275C218.702 136.067 219.044 135.244 219.374 133.806C219.656 133.756 219.863 133.302 219.996 132.444C220.137 132.419 220.255 132.216 220.351 131.836L220.315 131.679L219.998 131.735C220.59 131.122 220.932 130.535 221.023 129.975C220.918 129.993 220.853 129.95 220.829 129.846C221.04 129.808 221.283 129.112 221.558 127.756C221.453 127.775 221.388 127.732 221.364 127.627C221.716 127.565 222.018 126.804 222.269 125.343C222.163 125.362 222.094 125.302 222.062 125.162C222.273 125.125 222.415 124.464 222.486 123.181C222.592 123.162 222.716 122.904 222.859 122.407C222.753 122.426 222.684 122.365 222.652 122.226C222.863 122.188 222.945 122.065 222.897 121.856L222.738 121.884C223.059 120.411 223.238 119.671 223.273 119.665L223.237 119.508L222.994 119.17C223.346 119.108 223.644 117.294 223.888 113.729C223.95 113.682 224.047 112.829 224.18 111.172L224.021 111.2C224.171 110.738 224.26 110.087 224.287 109.247L224.128 109.275C224.328 108.55 224.474 106.872 224.565 104.241L224.724 104.213C224.692 104.074 224.623 104.013 224.517 104.032C224.478 103.385 224.595 101.023 224.866 96.9441L224.708 96.9721L224.881 93.1833L225.251 93.118L225.215 92.961L224.845 93.0263L224.832 90.5777C224.609 90.7259 224.445 90.8093 224.339 90.828C224.363 90.9326 224.428 90.9756 224.534 90.957L224.373 91.6934C224.479 91.6747 224.544 91.7178 224.568 91.8224C224.15 92.0777 223.961 92.2926 224.001 92.4671C224.106 92.4484 224.171 92.4915 224.196 92.5961C224.054 92.621 223.812 93.0814 223.468 93.9772L222.901 94.6219C222.981 94.9708 222.638 95.7937 221.873 97.0907C221.979 97.072 222.044 97.115 222.068 97.2197L221.428 97.5503L221.659 97.8364C220.799 99.0411 220.281 99.659 220.105 99.6901L220.401 100.019C220.189 100.056 219.547 100.696 218.476 101.938C217.96 102.247 217.596 102.42 217.384 102.457C217.36 102.353 217.278 102.313 217.136 102.338L217.221 102.704L216.375 102.853L216.009 102.7L216.057 102.909C213.888 102.892 212.611 102.046 212.225 100.371C212.185 100.197 211.923 99.2989 211.44 97.6776C211.688 94.2932 212.577 90.9047 214.108 87.5121C215.373 85.0378 216.27 83.754 216.799 83.6607L216.556 83.3223L217.135 82.73C217.159 82.8346 217.224 82.8777 217.33 82.859L217.245 82.4926L217.611 82.646L217.861 82.0573L217.702 82.0853C218.256 80.8257 219.097 80.0964 220.226 79.8974L220.913 79.7762L220.829 79.4098ZM226.487 79.1202L226.645 79.0922L226.718 79.4063L226.559 79.4343L226.487 79.1202ZM218.272 86.2332C218.248 86.1285 218.183 86.0855 218.077 86.1042C216.998 88.11 216.49 89.2525 216.555 89.5317C216.043 90.0212 215.808 90.3532 215.848 90.5277L216.06 90.4904C215.881 91.466 215.58 91.9912 215.157 92.0658L215.4 92.4042C215.259 92.4291 214.969 93.2427 214.531 94.845L214.689 94.817C214.534 95.8974 214.273 96.8331 213.904 97.6242C214.151 97.5807 214.287 97.6113 214.311 97.716C214.152 98.1433 214.093 98.4443 214.133 98.6187L214.345 98.5814C214.187 99.0088 214.144 99.3795 214.216 99.6935L214.252 99.8506C214.393 99.8257 214.581 99.8469 214.817 99.9143C217.003 99.5288 219.7 95.2226 222.906 86.9956C223.268 86.4961 223.405 86.0544 223.316 85.6705L223.158 85.6985L223.244 85.3565L223.208 85.1995C222.891 85.2554 222.664 84.9868 222.527 84.3936L222.141 82.7187L222.216 82.3243L221.687 82.4176C221.158 82.5108 220.373 83.2483 219.334 84.6298C218.776 85.2365 218.534 85.6968 218.606 86.0109L218.272 86.2332ZM215.523 86.0098C215.564 86.1842 215.51 86.4297 215.363 86.7462L215.521 86.7182L215.894 85.9445L215.523 86.0098ZM214.87 86.9965C214.934 87.2756 214.893 87.5734 214.745 87.8899L214.904 87.8619C215.051 87.5454 215.121 87.3698 215.113 87.3349L215.029 86.9685L214.87 86.9965ZM214.263 88.9009L214.123 89.2523L214.335 89.215L214.421 88.873L214.263 88.9009ZM213.556 89.897L213.592 90.054L213.999 90.1457L213.963 89.9887L213.556 89.897ZM213.677 90.4204L213.59 90.7624L213.749 90.7344L213.888 90.3831L213.677 90.4204ZM224.398 88.6934L224.47 89.0074C224.682 88.9701 224.763 88.8468 224.715 88.6374L224.398 88.6934ZM223.867 89.4951L223.903 89.6521L224.22 89.5961L224.184 89.4391L223.867 89.4951ZM212.778 91.7771L212.826 91.9864C212.932 91.9678 213.103 91.9921 213.339 92.0595L213.303 91.9025L212.937 91.7491L212.778 91.7771ZM223.493 90.9772C223.647 91.1679 223.752 91.3854 223.808 91.6296L224.142 91.4073C223.953 91.2228 223.83 91.0085 223.774 90.7642L223.493 90.9772ZM212.721 93.2032L212.806 93.5696L212.964 93.5416L212.88 93.1752L212.721 93.2032ZM221.867 91.8084L221.781 92.1504L221.817 92.3074L221.976 92.2794C221.952 92.1748 221.986 92.0053 222.079 91.7711L221.867 91.8084ZM221.409 92.9241L221.335 93.3185L221.493 93.2905L221.62 92.8868L221.409 92.9241ZM226.505 98.5615L226.589 98.9279C226.801 98.8906 226.878 98.7498 226.822 98.5055L226.505 98.5615ZM226.486 99.4363C226.534 99.6456 226.444 99.9702 226.215 100.41L226.691 100.326C226.627 100.047 226.645 99.8077 226.746 99.6083L226.698 99.399L226.486 99.4363ZM226.196 101.285L226.725 101.192C226.701 101.087 226.714 100.903 226.763 100.64L226.605 100.668C226.428 100.699 226.292 100.905 226.196 101.285ZM226.313 103.225L226.666 103.326L226.546 102.803C226.342 102.875 226.265 103.016 226.313 103.225ZM225.092 104.856C225.181 105.24 225.174 105.532 225.073 105.731L225.285 105.694C225.408 105.273 225.45 104.975 225.41 104.8L225.092 104.856ZM226.29 105.517L226.449 105.489C226.631 105.166 226.714 104.97 226.698 104.9L226.662 104.743C226.486 104.774 226.362 105.032 226.29 105.517ZM225.067 107.856L225.14 108.17L225.298 108.142L225.226 107.828L225.067 107.856ZM226.231 107.651L226.145 107.993L226.193 108.203L226.352 108.175C226.319 108.035 226.35 107.848 226.443 107.614L226.231 107.651ZM224.759 110.58L224.795 110.737L225.165 110.671L225.129 110.514L224.759 110.58ZM224.829 111.602C224.861 111.742 224.848 111.926 224.791 112.154L224.827 112.311L224.986 112.283C224.962 112.178 224.974 111.994 225.024 111.731L224.988 111.574L224.829 111.602ZM225.989 112.814C226.021 112.953 226.008 113.137 225.951 113.365L226.109 113.337L226.236 112.934L226.2 112.776L225.989 112.814ZM227.047 112.627L227.167 113.151L226.638 113.244C226.598 113.069 226.734 112.864 227.047 112.627ZM224.33 113.978L224.378 114.187L224.855 114.103L224.982 113.699L224.77 113.737C224.583 113.879 224.436 113.959 224.33 113.978ZM226.833 113.373L227.203 113.308L227.239 113.465L226.869 113.53L226.833 113.373ZM224.573 114.316L224.609 114.473L224.927 114.417L224.891 114.26L224.573 114.316ZM224.535 114.867L224.607 115.182L224.766 115.154L224.694 114.84L224.535 114.867ZM225.645 116.578L225.729 116.945L225.888 116.917L225.803 116.55L225.645 116.578ZM226.489 117.137L226.806 117.081L226.854 117.291L226.537 117.347L226.489 117.137ZM224.1 119.193C223.958 119.69 223.898 119.991 223.923 120.095L223.959 120.252L224.117 120.224C224.069 120.015 224.128 119.714 224.295 119.322L224.259 119.165L224.1 119.193ZM225.985 119.732L226.356 119.666L226.271 119.3C226.033 119.378 225.937 119.522 225.985 119.732ZM223.677 120.465L223.714 120.622L224.031 120.566L223.995 120.409L223.677 120.465ZM223.798 120.989C223.838 121.163 223.767 121.412 223.584 121.734L223.955 121.669C223.931 121.565 223.943 121.381 223.993 121.118L223.957 120.961L223.798 120.989ZM223.303 121.947L223.339 122.104C223.371 122.244 223.44 122.305 223.546 122.286C223.619 122.6 223.426 122.797 222.967 122.878L223.015 123.088C223.227 123.05 223.357 123.136 223.405 123.346L223.617 123.308C223.552 123.029 223.607 122.548 223.779 121.864L223.303 121.947ZM223.172 123.768C223.244 124.082 223.157 124.261 222.91 124.304L222.838 123.99L222.679 124.018C222.735 124.263 222.735 124.499 222.677 124.727C222.783 124.708 222.971 124.729 223.242 124.79C223.374 124.404 223.415 124.106 223.367 123.897L223.331 123.74L223.172 123.768ZM222.693 126.467C222.725 126.606 222.712 126.79 222.654 127.018L222.813 126.99L222.952 126.639L222.904 126.43L222.693 126.467ZM224.597 126.131C224.688 126.369 224.84 126.47 225.051 126.432L224.967 126.066L224.597 126.131ZM222.208 128.186C222.312 128.64 222.188 128.898 221.836 128.96C221.919 129.163 222.067 129.246 222.278 129.209C222.23 128.999 222.271 128.702 222.403 128.315L222.367 128.158L222.208 128.186ZM200.238 138.433L200.45 138.395C200.498 138.605 200.575 138.7 200.681 138.682L200.624 140.108C200.388 140.04 200.218 140.016 200.112 140.035C199.949 139.01 199.992 138.476 200.238 138.433ZM199.973 140.386L200.184 140.349C200.404 140.346 200.538 140.45 200.586 140.659C200.634 140.868 200.552 140.992 200.341 141.029L200.057 140.752L199.973 140.386Z" fill="#CAAE97"/>
<path d="M307.073 15.0739L307.133 15.3356C307.063 15.3481 306.994 15.2876 306.926 15.1543C312.025 13.7106 316.41 14.9888 320.084 18.9889L320.637 20.1985C321.3 21.643 321.606 22.969 321.553 24.1764L321.912 24.0588L321.65 28.898L321.491 28.926L321.828 29.1934L320.751 33.3594L321.015 33.3128C319.78 37.67 318.941 39.9239 318.499 40.0745L318.824 40.2896L319.038 40.742C318.314 40.9424 317.972 41.6924 318.015 42.9922C317.706 43.083 317.442 43.6923 317.225 44.8199C316.571 45.0078 316.255 45.6264 316.276 46.6757L316.329 46.6663C318.347 45.5481 320.579 44.646 323.027 43.9603L326.075 43.096C332.392 41.3649 338.242 43.3471 343.627 49.0426C344.342 50.0783 344.847 50.9153 345.141 51.5534C346.232 53.9027 346.843 56.1553 346.972 58.3111C347.14 58.2452 347.326 58.4122 347.528 58.8123C347.183 58.9093 347.028 59.1909 347.062 59.657L347.314 59.558C347.744 62.0604 347.715 63.3725 347.23 63.4945L347.514 63.7712C347.255 68.864 346.707 73.3361 345.869 77.1875C344.926 81.8564 343.25 86.9269 340.84 92.3989C339.786 95.3082 339.051 96.8177 338.636 96.9272C338.593 97.6972 337.346 99.9323 334.895 103.632C333.239 106.321 332.151 107.729 331.63 107.857C331.888 108.502 329.468 111.616 324.369 117.199C321.315 120.352 317.554 123.139 313.084 125.561L312.567 125.707L312.478 125.559C312.057 125.96 311.413 126.273 310.548 126.499L309.05 126.926C303.632 127.3 300.633 126.867 300.054 125.626C298.914 125.936 296.465 124.225 292.707 120.494L292.972 120.447C291.525 119.105 290.29 117.325 289.266 115.11L288.861 114.309C286.326 108.874 284.971 103.231 284.798 97.3788L284.48 97.4347L284.648 91.4684C284.507 91.4933 284.353 91.3026 284.186 90.8963C284.742 90.7619 284.91 89.4978 284.689 87.1039C285.229 81.9614 285.726 78.2244 286.18 75.8931L286.75 75.7382L287.041 76.2859L286.883 76.3139L286.871 76.2616C286.56 76.026 286.329 75.7399 286.178 75.4034C286.769 75.2628 287.162 75.3751 287.356 75.7403L287.45 75.6693L287.048 75.3588C287.065 74.9563 287.07 74.7377 287.062 74.7028C286.956 74.7214 287.017 74.9831 287.243 75.4879L286.567 75.6615L286.103 74.5996C286.483 74.4963 286.559 74.1923 286.333 73.6875L286.956 73.5233L287.17 73.9757C287.346 73.9446 287.389 73.81 287.297 73.572L287.321 73.6767L286.8 74.041L286.508 73.4932C287.222 68.4654 288.176 63.9218 289.369 59.8623C289.06 59.1544 289.401 58.1683 290.394 56.9038L290.698 57.5039L290.604 57.5749C290.504 57.302 290.907 56.7408 291.813 55.8912L291.653 54.7211L292.324 54.7662L292.437 55.0185C292.261 55.0496 292.068 54.8477 291.857 54.4127C292.202 54.3157 292.337 54.183 292.261 54.0147L291.782 53.609C291.969 52.6682 292.2 52.1555 292.474 52.0709L291.967 51.7791C292.311 51.682 292.505 51.6478 292.548 51.6765C292.266 51.7262 292.046 51.5654 291.887 51.194C292.126 51.1156 292.568 50.3295 293.215 48.8356L293.62 49.6357C293.629 48.3996 293.633 47.7815 293.633 47.7815C293.253 47.8848 292.962 47.7364 292.76 47.3364C292.655 46.8827 292.877 46.5713 293.425 46.402L293.652 46.9068L293.705 46.8974C294.085 46.7941 294.232 46.0783 294.146 44.7499L293.602 44.3011C294.124 42.9019 294.313 42.0515 294.171 41.7499L295.077 41.8624L295.594 41.7168L295.152 41.468C295.419 40.8762 295.578 40.6121 295.63 40.6756L294.954 40.8492C294.795 40.4778 295.051 39.9969 295.723 39.4065C295.841 39.6034 295.848 39.7112 295.742 39.7299C295.726 39.6601 295.894 39.1947 296.246 38.3338L296.552 38.2255C296.702 38.562 296.451 38.8242 295.797 39.0121L295.518 38.5167L296.317 36.2516L297.053 36.3397L297.212 36.3117C296.993 35.8418 297.18 35.5366 297.771 35.396C297.847 35.5643 297.867 35.6515 297.832 35.6577L297.844 35.71L297.538 35.8184C297.396 35.5167 297.518 34.9324 297.905 34.0652L297.23 34.2388C297.905 32.2315 298.581 30.3875 299.259 28.7068C299.956 28.5475 300.732 28.8101 301.587 29.4945L302.794 29.7174C303.088 30.3555 302.257 32.6443 300.302 36.5838L297.467 45.3081C297.464 46.2527 297.242 46.8003 296.799 46.9509L297.148 47.2706C296.04 48.9911 294.628 54.015 292.913 62.3421C292.074 65.3948 291.336 68.7205 290.696 72.319C290.387 72.4099 290.189 74.097 290.101 77.3805L289.637 77.5168L289.466 77.4924L289.596 77.5785L289.721 77.8832C289.872 78.2197 289.511 82.1504 288.638 89.6754C288.722 89.8786 288.675 90.6312 288.498 91.9333L288.868 91.868C288.487 93.2424 288.585 97.0923 289.161 103.418C289.89 108.336 290.653 111.651 291.451 113.363L291.778 114.067C295.036 121.046 298.982 124.635 303.615 124.834C305.543 124.603 307.042 124.339 308.111 124.042L309.197 123.741L309.906 123.235L310.032 123.54C315.682 120.51 319.4 117.694 321.186 115.091C321.321 115.358 321.406 115.488 321.441 115.482C323.448 112.405 324.986 110.717 326.055 110.42L327.089 110.129C325.227 113.834 320.784 118.285 313.761 123.481C313.037 123.681 312.207 124.064 311.273 124.628L311.261 124.575L312.4 124.266C312.713 124.029 313.041 123.862 313.386 123.765L313.475 123.913C318.38 120.833 321.63 118.136 323.226 115.821C323.973 115.399 324.854 114.444 325.869 112.958C326.762 112.692 327.469 111.859 327.991 110.46C328.738 110.038 329.312 109.265 329.714 108.141C329.622 107.903 330.03 107.123 330.936 105.801C332.005 103.906 332.729 102.907 333.108 102.804C332.799 102.895 332.478 102.933 332.144 102.919C331.893 104.38 331.014 105.66 329.506 106.761C329.776 107.295 329.65 107.626 329.129 107.754L329.661 108.15L327.487 108.751C328.024 107.095 329.718 104.255 332.571 100.23C332.444 99.9979 333.339 98.3876 335.256 95.3988C335.173 95.1957 336.005 93.2333 337.754 89.5118C339.473 84.7062 340.921 80.2387 342.098 76.1095C344.508 64.9003 344.335 56.3432 341.581 50.4381C340.514 48.1935 337.944 46.595 333.872 45.6428C332.34 45.8403 331.468 45.7216 331.258 45.2867C331.293 45.2804 331.353 45.3789 331.436 45.5821C330.385 45.477 329.616 45.4855 329.13 45.6074L329.32 45.9551L328.361 45.852L326.135 46.4624C320.333 48.3569 315.67 50.9764 312.147 54.321C311.093 55.9592 309.482 57.968 307.315 60.3473L306.122 60.6665C305.884 60.7449 305.382 60.561 304.619 60.1146L304.72 59.1165C304.41 59.2073 304.172 59.0496 304.005 58.6433L303.714 58.0955C305.508 55.5279 307.596 52.9629 309.978 50.4005C309.792 50.0702 310.577 48.4612 312.334 45.5733C314.727 39.2327 316.012 36.0468 316.188 36.0157C318.385 28.1847 318.731 22.677 317.227 19.4926C316.497 17.9147 314.305 17.3208 310.652 17.7108L310.083 17.8657C307.079 18.6858 303.703 20.2796 299.955 22.6471L299.854 22.4471L290.98 29.5673C290.889 29.3293 290.878 29.2041 290.949 29.1916C291.1 29.5281 289.012 31.4576 284.686 34.9801C276.39 43.4145 269.6 50.6576 264.315 56.7094C253.868 69.1904 246.171 76.3211 241.224 78.1012L240.707 78.2468C238.048 78.9699 236.433 78.7282 235.861 77.5217L235.534 76.8169C235.71 76.7858 235.756 76.6687 235.673 76.4656C237.55 76.1709 238.526 76.1077 238.602 76.276C240.846 75.6624 248.719 67.8652 262.223 52.8843C269.763 44.0383 276.063 37.372 281.121 32.8853C290.821 23.6949 299.471 17.7578 307.073 15.0739ZM297.11 22.005L297.086 21.9003L297.391 21.792C297.945 21.3311 298.324 21.0646 298.528 20.9924L298.593 21.0354L298.487 21.0541C297.878 21.5972 297.419 21.9141 297.11 22.005ZM295.362 23.0212L295.386 23.1259C295.914 22.7061 296.314 22.4539 296.588 22.3693L296.442 22.4496L295.362 23.0212ZM293.166 24.7157L293.267 24.9158L293.12 24.9961L293.06 24.7344L293.166 24.7157ZM294.928 24.2416L294.851 24.1463L295.05 24.0566L295.086 24.2136L294.928 24.2416ZM296.795 34.2611L297.523 34.0781L297.927 34.8783L297.199 35.0612L296.795 34.2611ZM297.141 35.2892L297.344 35.6893C297.554 36.1243 297.31 36.4214 296.613 36.5806L296.411 36.1806C296.35 35.7556 296.593 35.4585 297.141 35.2892ZM296.989 38.6929L296.985 38.9116L296.826 38.9396L296.884 38.7116L296.989 38.6929ZM298.031 38.6728L298.067 38.8298L298.331 38.7831L298.295 38.6261L298.031 38.6728ZM295.162 39.1241L295.838 38.9505L296.189 39.76L295.567 39.9242L295.162 39.1241ZM294.564 40.5912L295.187 40.4269L295.603 41.2794L294.928 41.453L294.564 40.5912ZM294.631 44.2286L294.884 44.1296L294.631 44.2286ZM316.18 38.8494C316.232 38.913 316.228 39.0588 316.171 39.2868L316.012 39.3148L316.087 38.9204L316.075 38.8681L316.18 38.8494ZM293.288 44.8468L293.898 44.6302L294.25 45.4397L293.627 45.6039L293.288 44.8468ZM295.375 45.7859L295.387 45.8382C295.564 45.8071 295.787 45.8222 296.058 45.8833L295.808 45.2739L295.702 45.2925C295.409 45.4532 295.3 45.6176 295.375 45.7859ZM292.939 45.7252L293.656 45.4899L294.019 46.3518L293.356 46.5777L292.939 45.7252ZM294.955 47.5484L294.967 47.6007C295.108 47.5758 295.133 47.4444 295.042 47.2063L294.977 47.1633C294.887 47.2518 294.88 47.3801 294.955 47.5484ZM292.123 48.1567L292.852 47.9738L293.203 48.7833L292.475 48.9662L292.123 48.1567ZM292.085 48.7081L292.761 48.5345L293.1 49.2916L292.424 49.4652L292.085 48.7081ZM291.703 49.9192L292.314 49.7026L292.718 50.5027L292.055 50.7287L291.703 49.9192ZM313.784 44.9364C313.859 45.1047 313.438 45.9052 312.521 47.3379L312.533 47.3902C312.912 47.2869 313.298 46.4927 313.69 45.0074L313.678 44.9551L313.784 44.9364ZM294.185 50.8976L294.287 51.0977C294.428 51.0728 294.464 50.9937 294.397 50.8603L294.185 50.8976ZM293.65 53.1162C293.658 53.1511 293.626 53.2476 293.552 53.4059L294.228 53.2323L294.151 53.1369C294.08 53.1493 293.913 53.1424 293.65 53.1162ZM292.512 55.8223L292.524 55.8747L293.041 55.7291L292.851 55.3813L292.798 55.3906C292.532 55.5102 292.437 55.6541 292.512 55.8223ZM291.28 57.4013L291.381 57.6014L291.328 57.6107L291.239 57.463L291.28 57.4013ZM291.351 60.8201L291.669 60.7641C291.907 60.6857 292.03 60.5007 292.036 60.2091C291.938 60.2627 291.852 60.2053 291.776 60.037C291.472 60.3086 291.33 60.5696 291.351 60.8201ZM290.195 61.2963C290.338 61.5979 290.219 61.8004 289.839 61.9037L289.762 61.8083L290.226 61.672C290.21 61.6022 290.217 61.4739 290.248 61.287L290.195 61.2963ZM289.76 62.5167C290.054 63.1548 290.044 63.8284 289.73 64.5373L289.795 64.5803C289.795 64.5803 289.905 63.9436 290.126 62.6701L290.013 62.4177L289.76 62.5167ZM291.302 63.7154L291.514 63.6781C291.296 63.2082 291.247 62.8356 291.367 62.5603C291.022 62.6574 291.001 63.0424 291.302 63.7154ZM290.062 68.1281L290.098 68.2851L290.362 68.2385L290.326 68.0815L290.062 68.1281ZM290.068 70.3057L289.708 71.1317L289.496 71.169L289.856 70.343L290.068 70.3057ZM288.34 71.6453L288.2 71.9966L288.265 72.0396C288.214 71.9761 288.186 71.8539 288.181 71.6732L288.34 71.6453ZM289.076 72.9315L289.54 72.7952L289.463 72.6999L289.41 72.7092C289.171 72.7876 289.06 72.8617 289.076 72.9315ZM288.009 73.5554L288.11 73.7555L288.004 73.7741L287.968 73.6171L288.009 73.5554ZM287.553 83.7666L288.077 83.892L288.171 83.821C288.112 83.7225 288.079 83.583 288.075 83.4023L287.81 83.4489C287.579 83.5622 287.494 83.6681 287.553 83.7666ZM344.333 68.3626C344.238 70.3402 344.002 72.1064 343.626 73.6615L343.785 73.6335C343.666 73.4366 343.874 71.7114 344.41 68.458L344.333 68.3626ZM287.521 86.4956L287.68 86.4676L287.631 86.2582C287.506 86.3529 287.47 86.432 287.521 86.4956ZM342.844 76.9584C342.928 77.1616 342.841 77.5036 342.585 77.9845C342.691 77.9658 342.795 77.6207 342.897 76.9491L342.844 76.9584ZM342.583 78.6929L342.526 78.9209L342.42 78.9396L342.424 78.7209L342.583 78.6929ZM342.151 80.403L342.053 80.6927L342 80.7021L341.952 80.4927L342.151 80.403ZM341.32 82.2925C341.295 82.6601 340.958 83.8269 340.31 85.7931C340.001 85.8839 339.905 86.264 340.022 86.9332L339.969 86.9425C340.791 85.0911 341.227 83.5616 341.28 82.3542L341.267 82.3018L341.32 82.2925ZM339.294 88.3142L339.282 88.2619L339.799 88.1163L339.722 88.0209C339.578 88.1916 339.435 88.2894 339.294 88.3142ZM338.925 89.5777L338.949 89.6823C339.019 89.6699 339.071 89.4973 339.105 89.1646C338.901 89.2368 338.841 89.3745 338.925 89.5777ZM337.791 92.0651L337.714 91.9698L338.178 91.8335L338.166 91.7812C337.987 91.958 337.862 92.0527 337.791 92.0651ZM336.401 94.8703L336.312 94.7226L336.576 94.6759L336.653 94.7713L336.401 94.8703ZM335.754 96.128L336.207 97.1375L335.313 97.0774L334.645 98.7201C334.764 98.9171 334.876 99.0062 334.982 98.9875C334.645 98.3207 334.996 97.6959 336.036 97.1131C335.869 96.7068 335.927 96.4788 336.209 96.4291L335.795 96.0663L336.406 95.8497L336.418 95.9021L335.754 96.128ZM333.064 101.178L333.052 101.125C333.503 101.009 333.74 101.004 333.764 101.109C333.943 100.932 334.051 100.84 334.086 100.834L333.903 100.757C333.759 100.928 333.479 101.068 333.064 101.178ZM332.581 102.189L332.67 102.336L332.618 102.346L332.529 102.198L332.581 102.189ZM327.158 108.755L327.822 108.529L327.795 109.133C327.937 109.108 328.083 109.264 328.233 109.6L327.027 110.575L326.223 109.955L327.158 108.755Z" fill="#CAAE97"/>
<path d="M388.53 54.2513L388.794 54.2047L388.915 54.7281L388.651 54.7747L388.53 54.2513ZM389.535 54.0741L389.799 54.0275L390.028 55.022L390.505 54.938L390.565 55.1997L390.257 56.0164L390.522 55.9698C390.482 55.7953 390.532 55.6957 390.673 55.6708L390.734 55.9325L390.63 56.4409C390.771 56.416 390.862 56.4908 390.902 56.6653C390.55 56.7275 390.106 57.7497 389.572 59.7321C389.149 59.8067 388.747 60.1318 388.365 60.7074L387.788 60.5913C388.013 61.5683 387.791 62.1159 387.121 62.2341C387.241 62.7575 385.29 65.6795 381.268 71.0002C379.086 73.6362 376.849 75.1563 374.557 75.5605L374.293 75.6071C371.648 76.0735 369.908 74.4921 369.072 70.8631C369.389 70.0084 369.523 69.4764 369.475 69.267L369.999 69.3924C369.935 69.1133 369.999 68.5937 370.191 67.8336L369.926 67.8802C370.007 68.2292 369.871 68.4347 369.518 68.4969L369.398 67.9735L369.758 67.1475L369.649 66.6764C363.885 76.2258 359.522 81.2617 356.56 81.784L356.296 81.8306C354.109 82.2161 352.649 81.5296 351.913 79.771L351.269 79.1222L351.1 78.3894C350.308 73.5181 352.432 66.644 357.47 57.7673C360.686 52.7702 363.934 49.9826 367.213 49.4043C371.026 50.1845 373.245 51.9355 373.872 54.6573C373.892 56.1788 373.638 56.9862 373.109 57.0794C371.491 55.9486 370.497 54.5806 370.127 52.9755C369.269 52.4369 368.276 52.2671 367.148 52.466C365.526 52.752 362.92 55.6988 359.331 61.3063C359.507 61.2752 359.615 61.3469 359.655 61.5213C359.373 61.5711 358.836 62.265 358.043 63.603L358.308 63.5564C357.589 65.535 356.965 66.5709 356.436 66.6642L356.496 66.9259C356.537 67.1003 356.645 67.172 356.821 67.1409C356.458 68.9115 355.889 69.8652 355.113 70.002L355.173 70.2637L355.702 70.1705L355.751 70.3798C355.363 70.4482 355.04 71.3584 354.783 73.1103C354.959 73.0793 355.068 73.1509 355.108 73.3254C354.79 73.3814 354.676 74.0007 354.765 75.1833L354.229 75.0055L354.289 75.2672C354.502 75.5564 354.629 75.7882 354.669 75.9627L354.254 76.3083C354.213 76.1338 354.105 76.0621 353.929 76.0932L353.989 76.3549C354.165 76.3239 354.27 76.3781 354.302 76.5177L354.037 76.5643C354.077 76.7388 354.186 76.8105 354.362 76.7794L354.387 78.0822L354.724 79.5478C356.664 79.2058 359.636 75.9402 363.642 69.7509C367.891 62.8651 370.597 59.3197 371.761 59.1145L372.29 59.0212C372.537 58.9777 373.143 59.3791 374.108 60.2256L374.398 61.4818C374.164 62.5397 373.942 63.0873 373.73 63.1246C373.69 62.9501 373.599 62.8753 373.458 62.9002L373.79 63.3863L373.483 64.203L373.652 64.9358C373.206 65.2322 373.072 65.7642 373.249 66.5319L372.66 66.3635L372.72 66.6252L372.984 66.5785C372.758 68.1436 372.521 68.9479 372.274 68.9914L372.606 69.4775L372.666 69.7392C372.173 69.8262 371.982 70.114 372.094 70.6025C372.343 70.8855 372.488 71.1142 372.528 71.2887C372.183 71.3858 372.043 71.5739 372.107 71.853L372.396 73.1092L373.666 72.8854L374.082 72.5397L374.142 72.8014C375.695 72.0556 377.32 70.825 379.016 69.1097C379.814 67.9523 380.81 66.5421 382.005 64.879C382.627 63.7527 383.308 62.8881 384.05 62.2853C384.082 62.4249 384.186 62.4791 384.363 62.448L383.99 62.0236L383.93 61.7619L384.935 61.5847C384.894 61.4102 384.786 61.3385 384.61 61.3696C384.521 60.9858 385.487 59.363 387.507 56.5014C387.872 55.8561 388.022 55.3938 387.958 55.1147L388.487 55.0214L389.023 55.1992C388.941 54.5237 389.112 54.1487 389.535 54.0741ZM389.361 56.6647L389.481 57.1881L389.746 57.1415L389.625 56.6181L389.361 56.6647ZM385.675 61.4541L385.735 61.7158C386.229 61.6287 386.512 61.7422 386.584 62.0563L386.849 62.0097L386.801 61.8003C386.544 61.4824 386.396 61.2363 386.355 61.0618C386.078 61.2922 385.851 61.423 385.675 61.4541ZM369.962 66.8391L370.082 67.3625L370.294 67.3252L370.174 66.8018L369.962 66.8391Z" fill="#CAAE97"/>
<path d="M395.253 41.1377L395.39 41.4948C395.498 41.8026 395.34 41.9939 394.917 42.0685L395.006 42.2162L395.323 42.1602L395.29 42.4929C395.396 42.4743 395.566 42.4986 395.802 42.566C395.71 42.3279 395.939 42.1243 396.487 41.955L396.771 42.2318C396.665 42.2504 396.624 42.3121 396.648 42.4168L396.807 42.3888C396.759 42.1794 396.823 42.0592 396.999 42.0281C397.083 42.2312 397.23 42.3142 397.442 42.2769L397.745 42.877C396.737 43.5994 395.384 45.0543 393.686 47.2419C393.802 47.5846 393.408 47.9446 392.504 48.3219L392.345 48.3498C391.89 48.2849 391.483 48.0299 391.123 47.5849L391.404 47.3719L390.553 46.5417L390.464 46.394C389.936 45.2162 391.532 43.4641 395.253 41.1377ZM387.788 51.9856L388.106 51.9296C388.211 51.911 388.294 51.9509 388.353 52.0494L388.582 51.8457L388.793 51.8084C388.869 51.9767 389.318 52.3332 390.14 52.8781C389.999 52.9029 389.976 52.9615 390.071 53.0537L390.968 53.6036C391.04 53.9176 390.913 54.3213 390.586 54.8147C390.729 55.1163 390.582 56.2315 390.146 58.1603C388.836 61.877 388.5 65.5131 389.135 69.0685L389.293 69.0405L389.238 69.7583C389.656 70.774 390.464 71.1762 391.663 70.9647L391.752 71.1124L392.033 70.8995L392.339 70.7912C392.444 70.7725 392.527 70.8124 392.586 70.9109L392.815 70.7072L393.221 70.7989C396.197 69.2212 398.51 67.6332 400.16 66.0351C401.71 64.6362 404.651 60.9949 408.984 55.111L409.39 55.2028C409.231 54.8314 409.618 54.2004 410.55 53.3097L411.081 52.508L411.435 52.6091C411.752 52.5531 411.823 52.3046 411.648 51.8634L412.002 51.9644L411.718 51.6877C411.67 51.4783 411.734 51.3581 411.91 51.327L412.069 51.299L412.62 52.0189L412.656 52.1759L412.303 52.0748C412.378 52.2431 412.36 52.4823 412.248 52.7926L412.337 52.9403C412.785 52.4981 413.163 51.905 413.468 51.1612L413.627 51.1332L413.594 51.4659L413.752 51.438C413.693 51.3395 413.716 51.2809 413.822 51.2623L414.159 51.5297C413.849 51.6205 413.696 51.8292 413.697 52.1557C413.45 52.1992 413.273 52.4665 413.166 52.9574C412.849 53.0133 412.732 53.1429 412.816 53.346C412.921 53.3274 413.004 53.3673 413.063 53.4658L412.306 53.7627C412.433 53.9945 412.58 54.0774 412.749 54.0114L412.623 53.7067L412.782 53.6787C412.888 53.6601 412.97 53.7 413.03 53.7985L413.979 53.1409L413.63 52.8211C413.736 52.8024 413.988 52.5402 414.385 52.0345L414.51 52.3392L414.669 52.3112C414.41 51.6669 414.769 51.3131 415.745 51.2499C415.569 51.281 415.346 51.4292 415.077 51.6945L415.361 51.9713L415.45 52.1189L414.849 51.8982L414.986 52.2552L415.292 52.1469C415.277 52.4036 415.282 52.5843 415.306 52.689L414.83 52.7729L414.477 52.6719L414.443 53.0046L414.919 52.9206C414.995 53.0889 414.911 53.2851 414.67 53.5093L414.479 53.1616L414.321 53.1896C414.16 53.2905 414.118 53.425 414.193 53.5933L414.352 53.5653C414.335 53.9678 413.946 54.6717 413.187 55.677L412.728 55.5946L412.995 56.0377L412.625 56.103L412.658 55.7703L412.569 55.6226L412.252 55.6786L412.536 55.9553C412.218 56.0113 412.089 56.0885 412.149 56.187C412.338 56.3714 412.445 56.516 412.469 56.6207C410.833 58.761 407.727 62.7219 403.151 68.5034C399.56 71.7146 396.711 73.5242 394.603 73.9322L394.144 73.8498C394.038 73.8684 394.015 73.927 394.074 74.0255C392.636 74.3153 390.973 73.8642 389.084 72.6722C388.872 72.7095 388.679 72.5076 388.504 72.0664L388.663 72.0384C387.736 71.04 386.943 69.9088 386.285 68.645C385.574 66.9912 385.467 65.0129 385.964 62.7103L386.156 62.3496L385.82 62.0822C385.892 61.5975 386.086 61.3271 386.404 61.2712L386.367 61.1141L386.031 60.8467C386.277 60.8032 386.352 60.1727 386.256 58.9552C386.53 58.8706 386.73 58.5448 386.856 57.9778C386.75 57.9965 386.685 57.9535 386.661 57.8488C387.004 57.4252 387.298 56.2297 387.542 54.2622L387.7 54.2342C387.76 54.3327 387.842 54.3726 387.948 54.3539C387.813 54.0872 387.79 53.347 387.877 52.1333L387.788 51.9856ZM413.218 50.5518L413.535 50.4958L413.66 50.8005L413.343 50.8565L413.218 50.5518ZM412.937 50.7648L413.221 51.0415C413.296 51.2098 413.213 51.406 412.971 51.6302L412.812 51.6582L412.497 51.0057C412.638 50.9809 412.784 50.9005 412.937 50.7648ZM414.473 50.984L414.791 50.928L414.827 51.0851L414.509 51.141L414.473 50.984ZM415.553 51.6106L415.924 51.5453L416.013 51.693L415.695 51.7489L415.553 51.6106ZM411.844 53.1906L411.986 53.3289L412.462 53.245L412.373 53.0973L411.844 53.1906ZM411.594 53.7793L411.952 53.6616L411.774 53.3662C411.571 53.4384 411.511 53.5761 411.594 53.7793ZM408.668 57.5633L408.985 57.5073C408.91 57.3391 409.221 56.9392 409.92 56.3076L410.204 56.5844C409.816 56.6528 409.722 57.1232 409.923 57.9955C410.724 56.6924 411.265 56.0159 411.547 55.9662L411.422 55.6615L411.211 55.6988C410.812 55.8781 410.687 56.136 410.838 56.4725L410.68 56.5004C410.539 56.5253 410.308 56.4025 409.989 56.132L411.066 55.0707L410.893 54.5566C409.326 56.3579 408.584 57.3601 408.668 57.5633ZM412.886 54.3685L412.783 54.8769L412.819 55.0339L413.189 54.9686C413.062 54.7368 413.014 54.5274 413.044 54.3405L412.886 54.3685ZM411.155 55.2184L411.191 55.3754L411.898 55.5775L411.72 55.2821C411.579 55.307 411.391 55.2857 411.155 55.2184ZM411.879 55.2541L412.057 55.5495L412.216 55.5216L412.037 55.2262L411.879 55.2541ZM408.829 58.025L409.108 58.5205L409.426 58.4645C409.559 58.4047 409.642 58.2085 409.675 57.8758L409.639 57.7188L408.829 58.025Z" fill="#CAAE97"/>
<path d="M419.079 44.4529L419.238 44.4249C419.344 44.4063 419.409 44.4493 419.433 44.554L419.767 44.3317C420.648 44.1762 421.662 45.232 422.808 47.4991C423.02 47.4618 423.245 46.3691 423.484 44.2208C424.178 44.2074 424.537 44.253 424.561 44.3577L424.682 44.8811L425.052 44.8158L424.966 45.1578C425.352 45.5617 425.687 45.7388 425.969 45.689C426.106 46.2822 426.28 46.5602 426.491 46.5229C425.95 47.9981 425.776 49.7899 425.968 51.8984C425.869 53.223 425.731 53.9009 425.555 53.932L425.786 54.218L425.834 54.4274L425.517 54.4833L425.553 54.6404L425.871 54.5844L425.674 55.1638L425.832 55.1358L425.727 56.3526C425.868 56.3277 425.955 56.3851 425.987 56.5247C425.74 56.5682 425.629 56.6423 425.653 56.747C425.807 56.9377 425.9 57.1028 425.932 57.2424C425.756 57.2735 425.673 57.633 425.685 58.3208C425.791 58.3022 425.856 58.3452 425.88 58.4499C425.704 58.481 425.366 58.8491 424.868 59.5542L424.904 59.7112L425.063 59.6832C424.983 59.3343 425.242 59.107 425.842 59.0013L425.926 59.3676L425.556 59.4329L425.787 59.719L425.823 59.876L425.626 60.4554L425.869 60.7938C425.857 61.377 425.692 61.6966 425.374 61.7525L425.411 61.9095C425.657 61.866 425.793 61.8966 425.817 62.0013L425.603 62.747L425.762 62.719C425.761 63.1913 425.694 63.6206 425.563 64.0068C425.669 63.9882 425.734 64.0312 425.758 64.1359L425.424 64.3582L425.72 64.6872C425.897 65.4549 425.725 66.3022 425.204 67.2291L425.575 67.1639L425.695 67.6873C425.88 68.4898 425.743 68.9315 425.285 69.0124L425.321 69.1694L425.759 69.6368C425.618 69.6617 425.453 69.9813 425.264 70.5955L425.348 70.9619L425.719 70.8966L425.791 71.2107L425.262 71.304L425.298 71.461L425.734 72.6369C425.522 72.6742 425.429 72.7452 425.453 72.8498L425.696 73.1882C425.358 73.7925 425.245 74.3389 425.358 74.8274L424.951 74.7357L424.67 74.9486L424.634 74.7916L424.708 74.3972L424.55 74.4252L424.3 75.0139L424.384 75.3803L424.706 75.1057C425.091 75.1831 425.295 75.2741 425.32 75.3788C425.4 75.7277 425.264 75.9333 424.911 75.9955L425.337 76.4106L425.178 76.4386L425.421 76.777L425.458 76.934C425.034 77.0086 424.792 77.469 424.73 78.315L425.117 79.2815L425.238 79.805L424.921 79.8609C425.075 80.0516 425.168 80.2168 425.2 80.3564C425.142 80.5844 425.129 80.7682 425.162 80.9077L424.743 80.7637L424.791 80.973C424.945 81.1637 425.034 81.3114 425.059 81.4161C424.726 82.2011 424.471 82.6091 424.295 82.6402L424.331 82.7972C424.387 83.0414 424.591 83.1325 424.944 83.0703L424.98 83.2273C425.028 83.4367 424.823 83.5818 424.365 83.6626L424.413 83.872L424.73 83.816C424.907 84.5837 424.766 85.008 424.308 85.0888L424.551 85.4272L424.587 85.5842C424.34 85.6277 424.163 85.895 424.056 86.3859L424.426 86.3206L424.054 87.0943L424.213 87.0663C424.189 86.9617 424.247 86.8969 424.388 86.872L424.424 87.029C424.465 87.2035 424.329 87.4091 424.016 87.6457L424.247 87.9318L424.283 88.0888L423.8 89.0999L423.483 89.1558L423.519 89.3128L423.837 89.2569L423.909 89.5709L423.592 89.6269L423.835 89.9653C423.588 90.0088 423.476 90.0829 423.501 90.1876L423.621 90.711C423.628 91.2182 423.326 91.9795 422.716 92.9948L423.122 93.0866C423.098 92.9819 423.139 92.9202 423.245 92.9016L423.281 93.0586C423.28 93.5309 423.103 93.7981 422.75 93.8603L422.993 94.1987L422.517 94.2826L422.589 94.5967L422.87 94.3837L422.907 94.5407C422.963 94.785 422.885 94.9257 422.674 94.963C422.641 94.8235 422.555 94.7661 422.414 94.791L422.71 95.1201C422.617 95.3543 422.587 95.5412 422.619 95.6808L422.46 95.7088L422.376 95.3424L422.217 95.3704L422.301 95.7368C422.407 95.7181 422.472 95.7611 422.496 95.8658C422.144 95.928 421.991 96.0637 422.04 96.2731L422.124 96.6395L422.408 96.9162L422.196 96.9535L421.843 96.8525L421.768 97.2469L422.086 97.1909C421.938 97.5074 421.897 97.8052 421.961 98.0843L421.555 97.9926L421.591 98.1496L421.822 98.4357L421.553 98.701C421.521 98.5614 421.452 98.501 421.346 98.5196L421.219 98.9233L421.589 98.858C421.637 99.0674 421.485 99.2032 421.132 99.2653L421.375 99.6037C421.292 100.199 421.022 100.538 420.563 100.618L420.806 100.957L420.842 101.114L420.066 102.286L420.309 102.624C419.859 102.74 419.67 102.955 419.742 103.269L419.901 103.241C419.949 103.45 419.607 104.037 418.875 105.001C419.036 105.699 417.88 107.609 415.406 110.733C413.995 112.252 412.541 113.507 411.044 114.497L411.08 114.654L410.727 114.553C410.309 114.809 410.12 115.023 410.16 115.198C410.054 115.217 409.989 115.174 409.965 115.069C408.556 115.644 407.728 115.953 407.481 115.997L407.445 115.84L407.287 115.868L407.371 116.234L407.159 116.272L406.599 115.989L406.683 116.356L406.472 116.393C406.408 116.114 406.085 115.989 405.505 116.019L405.469 115.862L405.31 115.89L405.382 116.204L405.012 116.269C404.932 115.92 404.52 115.648 403.778 115.452L403.444 115.674C403.404 115.5 402.495 114.897 400.716 113.867C400.652 113.588 400.342 113.28 399.788 112.942L398.399 110.736L398.716 110.68L398.473 110.341L398.28 109.504L398.651 109.439L398.615 109.282L398.244 109.347L398.319 108.953L398.246 108.638C398.182 108.359 398.077 108.142 397.931 107.986C397.924 107.479 398.126 107.08 398.536 106.79L398.5 106.633L398.712 106.596C398.736 106.7 398.829 106.865 398.991 107.091C398.933 107.319 398.92 107.503 398.953 107.642L399.111 107.614L399.025 107.957L399.061 108.114L399.378 108.058L399.463 108.424L399.145 108.48L399.302 109.16C399.549 109.117 399.784 109.42 400.007 110.071C399.901 110.09 399.861 110.151 399.885 110.256L400.043 110.228C400.075 110.367 400.039 110.447 399.933 110.465C400.262 111.896 401.67 112.828 404.154 113.261C404.334 113.084 404.494 112.983 404.635 112.959C404.879 113.061 405.071 113.1 405.212 113.075C405.18 112.935 405.217 112.856 405.323 112.837C405.414 113.075 405.548 113.179 405.725 113.148C405.866 113.123 405.924 113.058 405.9 112.953L406.254 113.054L406.941 112.933L407.386 112.474C407.418 112.613 407.487 112.674 407.593 112.655C407.552 112.48 408.012 112.164 408.97 111.704C410.606 110.363 412.032 108.986 413.248 107.573L413.163 107.206L413.322 107.178L413.688 107.332L413.639 107.123C413.534 107.141 413.469 107.098 413.445 106.993C413.727 106.944 414.612 105.608 416.099 102.985C416.081 102.589 416.328 102.146 416.839 101.656L416.791 101.447C416.685 101.466 416.62 101.423 416.596 101.318C416.952 101.11 417.294 100.287 417.624 98.8491C417.906 98.7994 418.113 98.3452 418.246 97.4867C418.387 97.4618 418.505 97.2594 418.601 96.8794L418.565 96.7223L418.248 96.7783C418.841 96.1654 419.183 95.5786 419.274 95.0179C419.168 95.0366 419.103 94.9935 419.079 94.8889C419.29 94.8515 419.534 94.1551 419.809 92.7994C419.703 92.818 419.638 92.775 419.614 92.6703C419.966 92.6082 420.268 91.8469 420.519 90.3865C420.413 90.4052 420.344 90.3447 420.312 90.2051C420.524 90.1678 420.665 89.5074 420.737 88.224C420.842 88.2053 420.966 87.9474 421.109 87.4503C421.003 87.4689 420.934 87.4085 420.902 87.2689C421.114 87.2316 421.195 87.1082 421.147 86.8989L420.988 86.9269C421.31 85.4541 421.488 84.7146 421.523 84.7083L421.487 84.5513L421.244 84.2129C421.597 84.1507 421.895 82.3371 422.138 78.7721C422.2 78.7247 422.298 77.8724 422.43 76.2151L422.271 76.2431C422.422 75.7809 422.51 75.1298 422.537 74.2899L422.378 74.3179C422.578 73.5927 422.724 71.9149 422.815 69.2844L422.974 69.2564C422.942 69.1168 422.873 69.0564 422.767 69.075C422.728 68.4283 422.845 66.0657 423.117 61.9872L422.958 62.0152L423.131 58.2264L423.502 58.1612L423.466 58.0041L423.095 58.0694L423.082 55.6208C422.859 55.769 422.695 55.8524 422.589 55.8711C422.613 55.9758 422.678 56.0188 422.784 56.0001L422.623 56.7365C422.729 56.7179 422.794 56.7609 422.818 56.8656C422.4 57.1209 422.211 57.3358 422.251 57.5102C422.357 57.4916 422.422 57.5346 422.446 57.6393C422.305 57.6641 422.062 58.1245 421.718 59.0203L421.151 59.665C421.231 60.0139 420.889 60.8369 420.123 62.1338C420.229 62.1152 420.294 62.1582 420.318 62.2628L419.679 62.5935L419.91 62.8795C419.049 64.0842 418.531 64.7021 418.355 64.7332L418.651 65.0623C418.439 65.0996 417.798 65.7392 416.726 66.9812C416.21 67.2901 415.846 67.4632 415.634 67.5005C415.61 67.3958 415.528 67.3559 415.387 67.3807L415.471 67.7471L414.625 67.8964L414.259 67.743L414.307 67.9523C412.138 67.9353 410.861 67.0894 410.475 65.4145C410.435 65.24 410.173 64.3421 409.69 62.7207C409.938 59.3363 410.828 55.9478 412.358 52.5552C413.623 50.0809 414.52 48.7971 415.049 48.7038L414.806 48.3654L415.385 47.7731C415.409 47.8778 415.474 47.9208 415.58 47.9021L415.496 47.5357L415.861 47.6892L416.111 47.1005L415.952 47.1284C416.506 45.8688 417.347 45.1395 418.476 44.9405L419.164 44.8193L419.079 44.4529ZM424.737 44.1633L424.896 44.1354L424.968 44.4494L424.809 44.4774L424.737 44.1633ZM416.522 51.2763C416.498 51.1717 416.433 51.1286 416.327 51.1473C415.248 53.1532 414.74 54.2957 414.805 54.5748C414.294 55.0644 414.058 55.3964 414.098 55.5708L414.31 55.5335C414.131 56.5092 413.83 57.0343 413.407 57.1089L413.65 57.4473C413.509 57.4722 413.219 58.2858 412.781 59.8881L412.939 59.8602C412.785 60.9405 412.523 61.8762 412.155 62.6674C412.402 62.6239 412.537 62.6544 412.561 62.7591C412.403 63.1865 412.344 63.4874 412.384 63.6619L412.595 63.6246C412.437 64.0519 412.394 64.4226 412.466 64.7367L412.502 64.8937C412.643 64.8688 412.832 64.8901 413.067 64.9575C415.254 64.5719 417.95 60.2657 421.156 52.0388C421.518 51.5392 421.655 51.0975 421.567 50.7137L421.408 50.7416L421.494 50.3996L421.458 50.2426C421.141 50.2986 420.914 50.0299 420.777 49.4367L420.392 47.7618L420.466 47.3674L419.937 47.4607C419.408 47.554 418.624 48.2914 417.584 49.673C417.027 50.2796 416.784 50.74 416.856 51.054L416.522 51.2763ZM413.774 51.0529C413.814 51.2274 413.76 51.4729 413.613 51.7893L413.772 51.7613L414.144 50.9876L413.774 51.0529ZM413.12 52.0396C413.184 52.3188 413.143 52.6166 412.996 52.933L413.154 52.905C413.302 52.5886 413.371 52.4129 413.363 52.378L413.279 52.0116L413.12 52.0396ZM412.513 53.9441L412.374 54.2954L412.585 54.2581L412.672 53.9161L412.513 53.9441ZM411.806 54.9401L411.843 55.0971L412.249 55.1888L412.213 55.0318L411.806 54.9401ZM411.927 55.4635L411.841 55.8055L411.999 55.7775L412.139 55.4262L411.927 55.4635ZM422.648 53.7365L422.72 54.0506C422.932 54.0133 423.014 53.8899 422.965 53.6806L422.648 53.7365ZM422.117 54.5382L422.153 54.6952L422.471 54.6393L422.434 54.4822L422.117 54.5382ZM411.028 56.8202L411.077 57.0296C411.182 57.0109 411.353 57.0353 411.589 57.1026L411.553 56.9456L411.187 56.7922L411.028 56.8202ZM421.743 56.0203C421.897 56.211 422.002 56.4285 422.058 56.6728L422.392 56.4505C422.203 56.266 422.08 56.0516 422.024 55.8073L421.743 56.0203ZM410.972 58.2464L411.056 58.6127L411.215 58.5848L411.13 58.2184L410.972 58.2464ZM420.118 56.8515L420.031 57.1935L420.067 57.3506L420.226 57.3226C420.202 57.2179 420.236 57.0484 420.329 56.8142L420.118 56.8515ZM419.659 57.9672L419.585 58.3616L419.743 58.3336L419.871 57.9299L419.659 57.9672ZM424.755 63.6046L424.839 63.971C425.051 63.9337 425.129 63.7929 425.072 63.5487L424.755 63.6046ZM424.736 64.4794C424.785 64.6888 424.694 65.0134 424.465 65.4532L424.941 65.3692C424.877 65.0901 424.895 64.8508 424.996 64.6515L424.948 64.4421L424.736 64.4794ZM424.446 66.3279L424.975 66.2347C424.951 66.13 424.964 65.9462 425.014 65.6833L424.855 65.7112C424.679 65.7423 424.542 65.9479 424.446 66.3279ZM424.563 68.2682L424.916 68.3692L424.796 67.8458C424.592 67.918 424.515 68.0588 424.563 68.2682ZM423.342 69.8995C423.431 70.2834 423.425 70.5749 423.324 70.7743L423.535 70.737C423.658 70.3158 423.7 70.018 423.66 69.8436L423.342 69.8995ZM424.54 70.5598L424.699 70.5318C424.881 70.2091 424.965 70.0129 424.949 69.9431L424.912 69.7861C424.736 69.8172 424.612 70.0751 424.54 70.5598ZM423.318 72.8995L423.39 73.2136L423.549 73.1856L423.476 72.8716L423.318 72.8995ZM424.481 72.6943L424.395 73.0364L424.443 73.2457L424.602 73.2178C424.57 73.0782 424.6 72.8913 424.693 72.657L424.481 72.6943ZM423.009 75.6228L423.045 75.7798L423.415 75.7145L423.379 75.5575L423.009 75.6228ZM423.079 76.6453C423.111 76.7849 423.099 76.9687 423.041 77.1967L423.077 77.3537L423.236 77.3257C423.212 77.221 423.225 77.0372 423.274 76.7743L423.238 76.6173L423.079 76.6453ZM424.239 77.8569C424.271 77.9965 424.258 78.1803 424.201 78.4083L424.359 78.3803L424.487 77.9766L424.451 77.8196L424.239 77.8569ZM425.297 77.6704L425.417 78.1938L424.888 78.2871C424.848 78.1126 424.984 77.907 425.297 77.6704ZM422.58 79.0208L422.629 79.2302L423.105 79.1462L423.232 78.7425L423.02 78.7799C422.833 78.9218 422.686 79.0022 422.58 79.0208ZM425.083 78.4161L425.454 78.3508L425.49 78.5078L425.119 78.5731L425.083 78.4161ZM422.824 79.3592L422.86 79.5163L423.177 79.4603L423.141 79.3033L422.824 79.3592ZM422.785 79.9106L422.858 80.2247L423.016 80.1967L422.944 79.8826L422.785 79.9106ZM423.895 81.6213L423.979 81.9877L424.138 81.9597L424.054 81.5933L423.895 81.6213ZM424.739 82.1805L425.057 82.1245L425.105 82.3339L424.787 82.3899L424.739 82.1805ZM422.35 84.2357C422.208 84.7329 422.149 85.0338 422.173 85.1385L422.209 85.2955L422.368 85.2675C422.319 85.0582 422.379 84.7572 422.545 84.3648L422.509 84.2078L422.35 84.2357ZM424.236 84.7747L424.606 84.7095L424.522 84.3431C424.283 84.4215 424.187 84.5654 424.236 84.7747ZM421.928 85.5085L421.964 85.6655L422.281 85.6096L422.245 85.4525L421.928 85.5085ZM422.048 86.0319C422.088 86.2064 422.017 86.4549 421.835 86.7776L422.205 86.7123C422.181 86.6077 422.194 86.4239 422.243 86.1609L422.207 86.0039L422.048 86.0319ZM421.553 86.9906L421.59 87.1476C421.622 87.2872 421.691 87.3477 421.796 87.329C421.869 87.6431 421.676 87.8405 421.217 87.9213L421.266 88.1307C421.477 88.0934 421.607 88.1794 421.655 88.3888L421.867 88.3515C421.802 88.0723 421.857 87.5907 422.029 86.9067L421.553 86.9906ZM421.422 88.8111C421.495 89.1252 421.407 89.304 421.16 89.3475L421.088 89.0335L420.929 89.0614C420.986 89.3057 420.985 89.5418 420.927 89.7699C421.033 89.7512 421.222 89.7724 421.492 89.8336C421.624 89.4474 421.665 89.1496 421.617 88.9402L421.581 88.7832L421.422 88.8111ZM420.943 91.5101C420.975 91.6496 420.962 91.8334 420.905 92.0615L421.063 92.0335L421.203 91.6821L421.154 91.4728L420.943 91.5101ZM422.847 91.1743C422.939 91.4123 423.09 91.5127 423.302 91.4754L423.217 91.109L422.847 91.1743ZM420.458 93.2295C420.563 93.6831 420.438 93.9411 420.086 94.0032C420.169 94.2064 420.317 94.2893 420.528 94.252C420.48 94.0426 420.522 93.7448 420.653 93.3586L420.617 93.2015L420.458 93.2295ZM398.489 103.476L398.7 103.439C398.748 103.648 398.825 103.743 398.931 103.725L398.874 105.151C398.639 105.083 398.468 105.059 398.362 105.078C398.2 104.053 398.242 103.519 398.489 103.476ZM398.223 105.429L398.434 105.392C398.654 105.389 398.788 105.493 398.836 105.702C398.884 105.912 398.803 106.035 398.591 106.072L398.307 105.795L398.223 105.429Z" fill="#CAAE97"/>
<path d="M440.319 33.1913L440.457 33.5484C440.564 33.8562 440.406 34.0474 439.983 34.122L440.072 34.2697L440.39 34.2138L440.356 34.5465C440.462 34.5278 440.633 34.5522 440.868 34.6195C440.777 34.3815 441.005 34.1779 441.553 34.0086L441.837 34.2853C441.732 34.304 441.691 34.3656 441.715 34.4703L441.873 34.4423C441.825 34.233 441.889 34.1127 442.066 34.0817C442.149 34.2848 442.297 34.3677 442.508 34.3304L442.812 34.9305C441.804 35.6529 440.451 37.1079 438.753 39.2955C438.868 39.6382 438.474 39.9982 437.57 40.3754L437.412 40.4034C436.956 40.3384 436.549 40.0835 436.19 39.6385L436.471 39.4255L435.619 38.5953L435.53 38.4476C435.002 37.2698 436.599 35.5177 440.319 33.1913ZM432.855 44.0392L433.172 43.9832C433.278 43.9646 433.36 44.0045 433.42 44.1029L433.648 43.8993L433.86 43.862C433.935 44.0302 434.384 44.3868 435.207 44.9316C435.066 44.9565 435.043 45.015 435.137 45.1073L436.034 45.6572C436.107 45.9712 435.979 46.3749 435.653 46.8682C435.796 47.1699 435.649 48.2851 435.212 50.2139C433.903 53.9306 433.566 57.5666 434.201 61.122L434.36 61.0941L434.305 61.8118C434.722 62.8275 435.531 63.2297 436.729 63.0183L436.819 63.166L437.1 62.953L437.405 62.8447C437.511 62.8261 437.593 62.866 437.653 62.9644L437.881 62.7608L438.288 62.8525C441.263 61.2748 443.577 59.6868 445.227 58.0886C446.776 56.6898 449.717 53.0484 454.05 47.1646L454.457 47.2563C454.298 46.8849 454.684 46.2539 455.617 45.3633L456.148 44.5616L456.501 44.6627C456.819 44.6067 456.89 44.3581 456.715 43.9169L457.068 44.018L456.785 43.7413C456.736 43.5319 456.8 43.4117 456.977 43.3806L457.135 43.3526L457.686 44.0724L457.723 44.2294L457.369 44.1284C457.445 44.2966 457.426 44.5359 457.314 44.8461L457.403 44.9938C457.852 44.5516 458.229 43.9586 458.535 43.2148L458.693 43.1868L458.66 43.5195L458.819 43.4915C458.759 43.3931 458.783 43.3345 458.888 43.3158L459.225 43.5833C458.916 43.6741 458.762 43.8828 458.764 44.2093C458.517 44.2528 458.34 44.52 458.233 45.0109C457.915 45.0669 457.799 45.1965 457.882 45.3996C457.988 45.381 458.07 45.4209 458.13 45.5193L457.372 45.8163C457.499 46.0481 457.647 46.131 457.815 46.065L457.69 45.7603L457.849 45.7323C457.954 45.7137 458.037 45.7536 458.096 45.852L459.046 45.1944L458.697 44.8747C458.803 44.856 459.054 44.5938 459.451 44.088L459.577 44.3927L459.735 44.3648C459.477 43.7204 459.836 43.3667 460.812 43.3035C460.636 43.3345 460.413 43.4827 460.144 43.7481L460.428 44.0248L460.517 44.1725L459.915 43.9517L460.053 44.3088L460.358 44.2005C460.344 44.4572 460.349 44.6379 460.373 44.7426L459.897 44.8265L459.543 44.7254L459.51 45.0581L459.986 44.9742C460.061 45.1424 459.978 45.3387 459.736 45.5629L459.546 45.2152L459.387 45.2431C459.227 45.344 459.185 45.4786 459.26 45.6468L459.419 45.6189C459.401 46.0213 459.013 46.7253 458.254 47.7306L457.794 47.6482L458.061 48.0913L457.691 48.1566L457.725 47.8239L457.636 47.6762L457.318 47.7321L457.602 48.0089C457.285 48.0648 457.156 48.1421 457.215 48.2405C457.404 48.425 457.511 48.5696 457.535 48.6743C455.9 50.8145 452.794 54.7754 448.217 60.557C444.626 63.7682 441.777 65.5778 439.669 65.9857L439.21 65.9033C439.104 65.922 439.081 65.9805 439.141 66.079C437.703 66.3688 436.039 65.9178 434.15 64.7258C433.939 64.7631 433.745 64.5612 433.57 64.12L433.729 64.092C432.802 63.0935 432.01 61.9624 431.352 60.6986C430.64 59.0447 430.534 57.0665 431.031 54.7638L431.223 54.4032L430.886 54.1357C430.958 53.651 431.153 53.3807 431.47 53.3247L431.434 53.1677L431.097 52.9003C431.344 52.8568 431.419 52.2263 431.322 51.0088C431.596 50.9241 431.796 50.5983 431.923 50.0314C431.817 50.0501 431.752 50.0071 431.728 49.9024C432.071 49.4788 432.364 48.2833 432.608 46.3157L432.767 46.2878C432.826 46.3862 432.909 46.4261 433.015 46.4075C432.88 46.1408 432.856 45.4006 432.944 44.1869L432.855 44.0392ZM458.284 42.6053L458.602 42.5494L458.727 42.8541L458.41 42.9101L458.284 42.6053ZM458.003 42.8183L458.287 43.0951C458.363 43.2633 458.279 43.4595 458.037 43.6838L457.879 43.7117L457.563 43.0593C457.704 43.0344 457.851 42.9541 458.003 42.8183ZM459.54 43.0376L459.857 42.9816L459.893 43.1386L459.576 43.1946L459.54 43.0376ZM460.62 43.6641L460.99 43.5988L461.079 43.7465L460.762 43.8025L460.62 43.6641ZM456.91 45.2441L457.052 45.3825L457.528 45.2985L457.439 45.1508L456.91 45.2441ZM456.661 45.8328L457.019 45.7152L456.841 45.4198C456.637 45.492 456.577 45.6297 456.661 45.8328ZM453.734 49.6168L454.051 49.5609C453.976 49.3926 454.288 48.9927 454.986 48.3612L455.27 48.6379C454.882 48.7063 454.789 49.1767 454.99 50.0491C455.79 48.7459 456.332 48.0695 456.614 48.0197L456.489 47.715L456.277 47.7523C455.878 47.9316 455.754 48.1895 455.905 48.526L455.746 48.554C455.605 48.5789 455.375 48.4561 455.056 48.1855L456.132 47.1242L455.959 46.6101C454.392 48.4115 453.651 49.4137 453.734 49.6168ZM457.952 46.4221L457.849 46.9305L457.885 47.0875L458.256 47.0222C458.129 46.7904 458.081 46.581 458.111 46.3941L457.952 46.4221ZM456.222 47.2719L456.258 47.4289L456.965 47.6311L456.787 47.3357C456.646 47.3606 456.457 47.3393 456.222 47.2719ZM456.945 47.3077L457.123 47.6031L457.282 47.5751L457.104 47.2797L456.945 47.3077ZM453.895 50.0786L454.175 50.574L454.492 50.5181C454.625 50.4583 454.708 50.2621 454.742 49.9294L454.706 49.7723L453.895 50.0786Z" fill="#CAAE97"/>
<path d="M464.98 36.3049C465.65 36.1868 466.542 36.9553 467.657 38.6106C467.69 38.7501 467.653 38.8292 467.547 38.8479L467.899 39.6574L468.091 40.4948C468.292 41.3672 467.355 42.8759 465.281 45.021C465.034 45.0645 464.528 45.4986 463.764 46.3232L460.216 48.365L459.851 48.2116C459.53 48.4133 459.382 48.5665 459.406 48.6712L459.052 48.5702L457.942 48.766C457.518 48.8406 457.193 50.296 456.965 53.1321C457.119 53.3228 457.208 53.4705 457.233 53.5751C457.029 53.6473 456.951 53.7881 457 53.9975C457.211 53.9602 457.511 54.3067 457.899 55.0371C459.01 55.2406 459.592 55.3741 459.643 55.4377L459.924 55.2247L460.4 55.1408L460.364 54.9838L460.718 55.0848C460.823 55.0662 460.864 55.0045 460.84 54.8998C460.946 54.8812 461.011 54.9242 461.035 55.0289C463 54.3193 464.783 53.2969 466.383 51.9616L466.42 52.1186C467.088 51.674 467.394 51.3296 467.338 51.0853L467.703 51.2387L467.862 51.2107C467.733 50.6524 468.11 50.2956 468.991 50.1401C468.927 49.861 469.217 49.4467 469.861 48.8974C469.885 49.0021 469.95 49.0451 470.056 49.0265C470.391 48.568 470.538 48.2515 470.498 48.0771L470.656 48.0491L471.022 48.2025C470.942 47.8536 471.73 47.1336 473.387 46.0426C475.309 44.0333 476.27 42.8654 476.268 42.5389C476.621 42.4767 478.021 41.0679 480.469 38.3124L480.822 38.4134L480.897 38.0191C480.791 38.0377 480.726 37.9947 480.702 37.89L481.281 37.2977L481.317 37.4547L481.231 37.7967C481.337 37.7781 481.401 37.8211 481.426 37.9258C481.249 37.9569 480.995 38.3649 480.662 39.1498C480.803 39.125 480.973 39.1493 481.174 39.2229L481.138 39.0659L481.898 39.2587C482.074 39.2276 482.367 39.0669 482.777 38.7768L483.203 39.1919C482.415 40.7106 481.148 42.4591 479.402 44.4373C475.857 48.8024 471.643 52.8134 466.761 56.4702C464.974 57.4752 463.658 58.0523 462.811 58.2015C459.814 58.73 457.617 57.9554 456.222 55.8776C455.975 55.9211 455.518 54.8942 454.852 52.7967L455.01 52.7687C454.824 52.4384 454.678 52.2826 454.572 52.3013C454.594 50.482 455.044 48.5326 455.923 46.4531L455.814 45.982L455.973 45.9541L456.327 46.0551L456.096 45.7691L456.047 45.5597L456.413 45.7131C459.374 39.926 462.229 36.7899 464.98 36.3049ZM461.357 41.8457L461.588 42.1318C461.349 42.2102 460.912 42.9409 460.276 44.3238C460.089 44.4658 459.942 44.5461 459.836 44.5648L459.873 44.7218L460.031 44.6938C462.459 43.2854 464.382 41.4393 465.801 39.1557L465.681 38.6323C465.633 38.4229 465.503 38.3369 465.291 38.3742L464.762 38.4674C464.198 38.5669 463.358 39.4595 462.241 41.1451C462.274 41.2846 461.979 41.5182 461.357 41.8457ZM460.459 40.0977L460.531 40.4117C460.708 40.3806 460.826 40.1782 460.887 39.8044C460.707 39.9813 460.565 40.079 460.459 40.0977ZM459.772 41.4171C459.796 41.5218 459.518 41.9883 458.939 42.8168L458.975 42.9738C459.468 42.8868 459.787 42.3585 459.931 41.3891L459.772 41.4171ZM482.024 37.6568L482.342 37.6009L482.378 37.7579C482.434 38.0022 482.356 38.1429 482.145 38.1803L482.024 37.6568ZM481.51 38.2922L481.582 38.6062L481.265 38.6622C481.217 38.4528 481.298 38.3295 481.51 38.2922ZM481.705 38.4212L482.022 38.3653C482.046 38.4699 482.005 38.5316 481.9 38.5503L482.143 38.8887L482.179 39.0457L481.861 39.1017L481.705 38.4212ZM482.34 38.3093L482.657 38.2533L482.693 38.4104L482.376 38.4663L482.34 38.3093ZM480.895 38.7275L481.265 38.6622L481.313 38.8716L480.943 38.9368L480.895 38.7275ZM482.374 39.1747L482.299 39.5691L482.372 39.8832C482.583 39.8458 482.665 39.7225 482.617 39.5131C482.511 39.5318 482.442 39.4713 482.41 39.3318C482.516 39.3131 482.556 39.2514 482.532 39.1468L482.374 39.1747ZM458.48 43.9325L458.002 44.7249C458.439 44.3936 458.669 44.117 458.691 43.8952L458.48 43.9325ZM481.614 40.1801L481.932 40.1241L481.859 39.8101C481.656 39.8823 481.574 40.0056 481.614 40.1801ZM481.809 40.3091L481.894 40.6755L482.052 40.6475L481.968 40.2811L481.809 40.3091ZM454.753 48.7836L454.825 49.0976L454.508 49.1536C454.495 48.938 454.577 48.8146 454.753 48.7836ZM454.542 50.019L454.59 50.2284C454.578 50.8115 454.484 51.1187 454.307 51.1498L454.259 50.9404C454.272 50.3572 454.366 50.0501 454.542 50.019Z" fill="#CAAE97"/>
</svg>
