<svg width="1440" height="150" viewBox="0 0 1440 150" fill="none" xmlns="http://www.w3.org/2000/svg">
<g clip-path="url(#clip0)">
<g opacity="0.04">
<path d="M17.8898 50.57C22.5698 50.57 27.4298 50.66 32.4698 50.84C37.5098 51.02 42.3698 51.11 47.0499 51.11C52.0898 51.11 57.1298 51.11 62.1698 51.11C67.2098 50.93 72.2498 50.75 77.2898 50.57L47.3199 -18.01L17.8898 50.57ZM137.5 134.54C134.98 134.18 132.55 134 130.21 134C128.05 134 125.71 134 123.19 134C120.67 134 118.24 134 115.9 134C113.74 134 111.4 134.18 108.88 134.54C107.62 130.4 105.91 125.45 103.75 119.69C101.59 113.75 99.1599 107.63 96.4599 101.33C93.9399 94.85 91.3299 88.37 88.6299 81.89C85.9299 75.23 83.4099 68.93 81.0699 62.99C75.3099 62.81 69.4599 62.72 63.5199 62.72C57.5799 62.54 51.6398 62.45 45.6998 62.45C40.1198 62.45 34.6298 62.54 29.2298 62.72C23.8298 62.72 18.3398 62.81 12.7598 62.99C6.99984 77.03 1.77984 90.44 -2.90015 103.22C-7.58016 115.82 -11.0902 126.26 -13.4302 134.54C-16.4902 134.18 -19.8202 134 -23.4202 134C-27.0202 134 -30.3502 134.18 -33.4102 134.54C-18.8302 103.04 -4.61015 71.72 9.24985 40.58C23.1098 9.44004 37.0599 -22.24 51.0999 -54.46H56.2298C60.5498 -44.02 65.2299 -32.68 70.2699 -20.44C75.3099 -8.37996 80.4398 3.86005 85.6599 16.28C90.8798 28.7 96.0999 41.03 101.32 53.27C106.54 65.51 111.4 76.94 115.9 87.56C120.58 98 124.72 107.36 128.32 115.64C132.1 123.92 135.16 130.22 137.5 134.54Z" fill="#EA6A74"/>
<path d="M168.548 18.98C168.548 7.10004 168.278 -4.50996 167.738 -15.85C167.378 -27.37 166.928 -39.07 166.388 -50.95C171.608 -50.59 176.738 -50.23 181.778 -49.87C186.818 -49.69 191.948 -49.6 197.168 -49.6C202.388 -49.6 207.518 -49.78 212.558 -50.14C217.598 -50.68 222.728 -50.95 227.948 -50.95C235.508 -50.95 242.708 -50.23 249.548 -48.79C256.388 -47.35 262.328 -44.92 267.368 -41.5C272.588 -38.26 276.638 -33.94 279.518 -28.54C282.578 -23.14 284.108 -16.39 284.108 -8.28996C284.108 0.350038 282.128 7.82004 278.168 14.12C274.388 20.24 269.708 25.37 264.128 29.51C258.548 33.47 252.518 36.62 246.038 38.96C239.738 41.12 233.978 42.56 228.758 43.28C230.918 45.98 233.888 49.76 237.668 54.62C241.448 59.48 245.678 64.88 250.358 70.82C255.038 76.58 259.898 82.7 264.938 89.18C269.978 95.48 274.838 101.6 279.518 107.54C284.198 113.3 288.608 118.61 292.748 123.47C296.888 128.33 300.218 132.02 302.738 134.54C300.038 134.18 297.338 134 294.638 134C291.938 134 289.238 134 286.538 134C284.018 134 281.408 134 278.708 134C276.008 134 273.398 134.18 270.878 134.54C268.178 130.76 264.038 125.09 258.458 117.53C253.058 109.97 247.028 101.87 240.368 93.23C233.708 84.59 226.868 76.04 219.848 67.58C213.008 58.94 206.708 51.65 200.948 45.71H190.688V65.42C190.688 77.3 190.868 89 191.228 100.52C191.768 112.04 192.308 123.38 192.848 134.54C188.708 134.18 184.298 134 179.618 134C174.938 134 170.528 134.18 166.388 134.54C166.928 123.38 167.378 112.04 167.738 100.52C168.278 89 168.548 77.3 168.548 65.42V18.98ZM190.688 34.37C193.208 34.91 195.908 35.27 198.788 35.45C201.848 35.63 205.178 35.72 208.778 35.72C214.358 35.72 220.118 35.09 226.058 33.83C232.178 32.57 237.758 30.41 242.798 27.35C247.838 24.11 251.978 19.88 255.218 14.66C258.638 9.26003 260.348 2.51004 260.348 -5.58996C260.348 -12.61 258.998 -18.37 256.298 -22.87C253.778 -27.55 250.448 -31.24 246.308 -33.94C242.168 -36.64 237.668 -38.44 232.808 -39.34C227.948 -40.42 223.178 -40.96 218.498 -40.96C212.198 -40.96 206.978 -40.78 202.838 -40.42C198.698 -40.24 195.188 -39.97 192.308 -39.61C191.948 -29.71 191.588 -19.9 191.228 -10.18C190.868 -0.459963 190.688 9.26004 190.688 18.98V34.37Z" fill="#EA6A74"/>
<path d="M474.276 36.8C474.276 11.24 474.186 -8.46997 474.006 -22.33C473.826 -36.19 473.376 -45.73 472.656 -50.95C474.636 -50.59 476.526 -50.23 478.326 -49.87C480.126 -49.69 481.926 -49.6 483.726 -49.6C486.066 -49.6 488.766 -50.05 491.826 -50.95C491.286 -44.65 490.746 -37.09 490.206 -28.27C489.666 -19.63 489.216 -10.27 488.856 -0.18996C488.496 9.71004 488.136 19.97 487.776 30.59C487.416 41.03 487.146 51.2 486.966 61.1C486.786 73.16 484.896 83.96 481.296 93.5C477.876 103.04 472.926 111.14 466.446 117.8C459.966 124.46 451.956 129.5 442.416 132.92C433.056 136.34 422.256 138.05 410.016 138.05C383.016 138.05 363.396 131.93 351.156 119.69C338.916 107.45 332.796 88.1 332.796 61.64C332.796 53.18 332.976 45.71 333.336 39.23C333.876 32.57 334.146 25.82 334.146 18.98C334.146 3.86004 333.966 -9.54997 333.606 -21.25C333.246 -32.95 332.886 -42.85 332.526 -50.95C334.686 -50.59 337.026 -50.23 339.546 -49.87C342.066 -49.69 344.406 -49.6 346.566 -49.6C348.546 -49.6 350.436 -49.69 352.236 -49.87C354.216 -50.23 356.196 -50.59 358.176 -50.95C357.816 -46.99 357.456 -41.77 357.096 -35.29C356.736 -28.99 356.376 -21.79 356.016 -13.69C355.656 -5.58996 355.386 3.14004 355.206 12.5C355.026 21.86 354.936 31.58 354.936 41.66C354.936 47.78 355.026 54.17 355.206 60.83C355.386 67.31 356.016 73.7 357.096 80C358.176 86.12 359.886 92.06 362.226 97.82C364.746 103.4 368.256 108.35 372.756 112.67C377.256 116.81 382.926 120.14 389.766 122.66C396.606 125 405.066 126.17 415.146 126.17C425.046 126.17 433.326 124.73 439.986 121.85C446.826 118.97 452.406 115.19 456.726 110.51C461.046 105.83 464.376 100.43 466.716 94.31C469.236 88.19 471.036 81.8 472.116 75.14C473.196 68.48 473.826 61.82 474.006 55.16C474.186 48.5 474.276 42.38 474.276 36.8Z" fill="#EA6A74"/>
<path d="M510.003 164.51C517.563 164.51 523.593 162.71 528.093 159.11C532.593 155.69 536.013 150.83 538.353 144.53C540.693 138.23 542.133 130.76 542.673 122.12C543.393 113.48 543.753 103.85 543.753 93.23V18.98C543.753 7.10004 543.483 -4.50996 542.943 -15.85C542.583 -27.37 542.133 -39.07 541.593 -50.95C543.933 -50.59 546.183 -50.23 548.343 -49.87C550.503 -49.69 552.663 -49.6 554.823 -49.6C556.983 -49.6 559.143 -49.69 561.303 -49.87C563.463 -50.23 565.713 -50.59 568.053 -50.95C567.513 -39.07 566.973 -27.37 566.433 -15.85C566.073 -4.50996 565.893 7.10004 565.893 18.98C565.893 27.08 565.893 35.45 565.893 44.09C566.073 52.73 566.163 61.28 566.163 69.7401C566.343 78.0201 566.433 86.0301 566.433 93.7701C566.613 101.51 566.703 108.62 566.703 115.1C566.703 123.2 565.353 130.58 562.653 137.24C560.133 144.08 556.443 150.11 551.583 155.33C546.723 160.55 540.873 164.6 534.033 167.48C527.373 170.54 520.083 172.07 512.163 172.07L510.003 164.51Z" fill="#EA6A74"/>
<path d="M663.989 58.67C662.189 55.61 659.489 51.2 655.889 45.44C652.469 39.5 648.599 33.02 644.279 26C640.139 18.8 635.729 11.33 631.049 3.59004C626.369 -4.32996 621.869 -11.8 617.549 -18.82C613.409 -26.02 609.629 -32.41 606.209 -37.99C602.789 -43.75 600.179 -48.07 598.379 -50.95C600.899 -50.59 603.329 -50.23 605.669 -49.87C608.189 -49.69 610.709 -49.6 613.229 -49.6C615.749 -49.6 618.179 -49.69 620.519 -49.87C623.039 -50.23 625.559 -50.59 628.079 -50.95C636.179 -35.29 644.369 -19.9 652.649 -4.77996C661.109 10.34 670.019 26.09 679.379 42.47C683.519 35.99 687.839 28.88 692.339 21.14C696.839 13.4 701.339 5.48003 705.839 -2.61997C710.339 -10.72 714.659 -18.82 718.799 -26.92C722.939 -35.2 726.809 -43.21 730.409 -50.95C734.909 -50.05 738.419 -49.6 740.939 -49.6C743.459 -49.6 746.969 -50.05 751.469 -50.95C742.829 -37.81 735.089 -25.93 728.249 -15.31C721.409 -4.68996 715.379 4.94005 710.159 13.58C704.939 22.22 700.349 30.05 696.389 37.07C692.429 43.91 689.009 50.12 686.129 55.7C686.129 62.36 686.129 69.47 686.129 77.03C686.309 84.59 686.489 92.06 686.669 99.44C686.849 106.64 687.029 113.39 687.209 119.69C687.569 125.81 687.929 130.76 688.289 134.54C684.149 134.18 679.739 134 675.059 134C670.379 134 665.969 134.18 661.829 134.54C662.909 125.18 663.539 113.84 663.719 100.52C663.899 87.2 663.989 73.25 663.989 58.67Z" fill="#EA6A74"/>
<path d="M798.622 50.57C803.302 50.57 808.162 50.66 813.202 50.84C818.242 51.02 823.102 51.11 827.782 51.11C832.822 51.11 837.862 51.11 842.902 51.11C847.942 50.93 852.982 50.75 858.022 50.57L828.052 -18.01L798.622 50.57ZM918.232 134.54C915.712 134.18 913.282 134 910.942 134C908.782 134 906.442 134 903.922 134C901.402 134 898.972 134 896.632 134C894.472 134 892.132 134.18 889.612 134.54C888.352 130.4 886.642 125.45 884.482 119.69C882.322 113.75 879.892 107.63 877.192 101.33C874.672 94.85 872.062 88.37 869.362 81.89C866.662 75.23 864.142 68.93 861.802 62.99C856.042 62.81 850.192 62.72 844.252 62.72C838.312 62.54 832.372 62.45 826.432 62.45C820.852 62.45 815.362 62.54 809.962 62.72C804.562 62.72 799.072 62.81 793.492 62.99C787.732 77.03 782.512 90.44 777.832 103.22C773.152 115.82 769.642 126.26 767.302 134.54C764.242 134.18 760.912 134 757.312 134C753.712 134 750.382 134.18 747.322 134.54C761.902 103.04 776.122 71.72 789.982 40.58C803.842 9.44004 817.792 -22.24 831.832 -54.46H836.962C841.282 -44.02 845.962 -32.68 851.002 -20.44C856.042 -8.37996 861.172 3.86005 866.392 16.28C871.612 28.7 876.832 41.03 882.052 53.27C887.272 65.51 892.132 76.94 896.632 87.56C901.312 98 905.452 107.36 909.052 115.64C912.832 123.92 915.892 130.22 918.232 134.54Z" fill="#EA6A74"/>
<path d="M1101.29 138.05C1080.59 114.11 1058.54 89.63 1035.14 64.61C1011.74 39.41 988.34 14.39 964.94 -10.45C964.76 -5.40996 964.58 1.34003 964.4 9.80003C964.22 18.26 964.13 29.78 964.13 44.36C964.13 48.14 964.13 52.82 964.13 58.4C964.31 63.98 964.4 69.83 964.4 75.95C964.58 82.07 964.76 88.28 964.94 94.58C965.12 100.88 965.3 106.73 965.48 112.13C965.66 117.53 965.84 122.3 966.02 126.44C966.2 130.4 966.38 133.1 966.56 134.54C963.68 134.18 960.53 134 957.11 134C953.51 134 950.18 134.18 947.12 134.54C947.48 132.74 947.84 129.41 948.2 124.55C948.74 119.69 949.19 113.93 949.55 107.27C949.91 100.43 950.27 93.0501 950.63 85.1301C951.17 77.2101 951.53 69.29 951.71 61.37C952.07 53.45 952.34 45.71 952.52 38.15C952.7 30.59 952.79 23.84 952.79 17.9C952.79 0.620037 952.7 -14.23 952.52 -26.65C952.52 -39.07 952.34 -48.34 951.98 -54.46H956.3C967.28 -42.58 978.98 -29.8 991.4 -16.12C1004 -2.61997 1016.42 10.79 1028.66 24.11C1041.08 37.25 1052.78 49.76 1063.76 61.64C1074.92 73.34 1084.64 83.33 1092.92 91.61V54.89C1092.92 35.99 1092.74 17.63 1092.38 -0.18996C1092.2 -18.19 1091.66 -35.11 1090.76 -50.95C1094.36 -50.05 1097.42 -49.6 1099.94 -49.6C1102.1 -49.6 1104.98 -50.05 1108.58 -50.95C1108.22 -46.99 1107.77 -41.05 1107.23 -33.13C1106.87 -25.21 1106.42 -16.75 1105.88 -7.74997C1105.52 1.25004 1105.16 10.07 1104.8 18.71C1104.44 27.35 1104.26 34.28 1104.26 39.5C1104.26 44 1104.26 49.4 1104.26 55.7C1104.26 61.82 1104.26 68.21 1104.26 74.87C1104.44 81.53 1104.53 88.28 1104.53 95.12C1104.71 101.78 1104.8 108.08 1104.8 114.02C1104.98 119.78 1105.07 124.82 1105.07 129.14C1105.07 133.1 1105.07 136.07 1105.07 138.05H1101.29Z" fill="#EA6A74"/>
<path d="M1153.49 99.44C1154.93 102.68 1156.82 106.01 1159.16 109.43C1161.68 112.67 1164.65 115.64 1168.07 118.34C1171.67 121.04 1175.81 123.29 1180.49 125.09C1185.17 126.71 1190.39 127.52 1196.15 127.52C1202.09 127.52 1207.4 126.53 1212.08 124.55C1216.94 122.39 1220.99 119.6 1224.23 116.18C1227.65 112.58 1230.26 108.44 1232.06 103.76C1233.86 98.9 1234.76 93.77 1234.76 88.37C1234.76 80.09 1232.6 73.5201 1228.28 68.66C1224.14 63.8 1218.92 59.75 1212.62 56.51C1206.32 53.27 1199.48 50.3 1192.1 47.6C1184.9 44.9 1178.15 41.57 1171.85 37.61C1165.55 33.47 1160.24 28.25 1155.92 21.95C1151.78 15.65 1149.71 7.19004 1149.71 -3.42996C1149.71 -10.99 1151.06 -17.83 1153.76 -23.95C1156.46 -30.25 1160.33 -35.65 1165.37 -40.15C1170.59 -44.65 1176.8 -48.16 1184 -50.68C1191.2 -53.2 1199.3 -54.46 1208.3 -54.46C1216.94 -54.46 1224.41 -53.38 1230.71 -51.22C1237.01 -49.24 1242.86 -46.09 1248.26 -41.77C1246.64 -38.71 1245.29 -35.47 1244.21 -32.05C1243.13 -28.63 1242.05 -24.31 1240.97 -19.09H1237.73C1236.83 -21.61 1235.57 -24.31 1233.95 -27.19C1232.51 -30.25 1230.44 -33.04 1227.74 -35.56C1225.22 -38.08 1222.16 -40.15 1218.56 -41.77C1214.96 -43.57 1210.64 -44.47 1205.6 -44.47C1200.56 -44.47 1195.88 -43.66 1191.56 -42.04C1187.42 -40.42 1183.73 -38.08 1180.49 -35.02C1177.43 -32.14 1175 -28.63 1173.2 -24.49C1171.58 -20.35 1170.77 -15.85 1170.77 -10.99C1170.77 -2.52996 1172.84 4.13004 1176.98 8.99003C1181.3 13.85 1186.61 17.99 1192.91 21.41C1199.21 24.65 1205.96 27.62 1213.16 30.32C1220.54 32.84 1227.38 35.9901 1233.68 39.7701C1239.98 43.55 1245.2 48.41 1249.34 54.35C1253.66 60.29 1255.82 68.21 1255.82 78.11C1255.82 86.39 1254.29 94.2201 1251.23 101.6C1248.35 108.98 1244.03 115.46 1238.27 121.04C1232.69 126.44 1225.76 130.67 1217.48 133.73C1209.38 136.61 1200.11 138.05 1189.67 138.05C1178.51 138.05 1169.42 136.61 1162.4 133.73C1155.56 130.67 1149.8 127.25 1145.12 123.47C1146.74 119.33 1147.82 115.64 1148.36 112.4C1149.08 108.98 1149.71 104.66 1150.25 99.44H1153.49Z" fill="#EA6A74"/>
<path d="M1435.1 36.8C1435.1 11.24 1435.01 -8.46997 1434.83 -22.33C1434.65 -36.19 1434.2 -45.73 1433.48 -50.95C1435.46 -50.59 1437.35 -50.23 1439.15 -49.87C1440.95 -49.69 1442.75 -49.6 1444.55 -49.6C1446.89 -49.6 1449.59 -50.05 1452.65 -50.95C1452.11 -44.65 1451.57 -37.09 1451.03 -28.27C1450.49 -19.63 1450.04 -10.27 1449.68 -0.18996C1449.32 9.71004 1448.96 19.97 1448.6 30.59C1448.24 41.03 1447.97 51.2 1447.79 61.1C1447.61 73.16 1445.72 83.96 1442.12 93.5C1438.7 103.04 1433.75 111.14 1427.27 117.8C1420.79 124.46 1412.78 129.5 1403.24 132.92C1393.88 136.34 1383.08 138.05 1370.84 138.05C1343.84 138.05 1324.22 131.93 1311.98 119.69C1299.74 107.45 1293.62 88.1 1293.62 61.64C1293.62 53.18 1293.8 45.71 1294.16 39.23C1294.7 32.57 1294.97 25.82 1294.97 18.98C1294.97 3.86004 1294.79 -9.54997 1294.43 -21.25C1294.07 -32.95 1293.71 -42.85 1293.35 -50.95C1295.51 -50.59 1297.85 -50.23 1300.37 -49.87C1302.89 -49.69 1305.23 -49.6 1307.39 -49.6C1309.37 -49.6 1311.26 -49.69 1313.06 -49.87C1315.04 -50.23 1317.02 -50.59 1319 -50.95C1318.64 -46.99 1318.28 -41.77 1317.92 -35.29C1317.56 -28.99 1317.2 -21.79 1316.84 -13.69C1316.48 -5.58996 1316.21 3.14004 1316.03 12.5C1315.85 21.86 1315.76 31.58 1315.76 41.66C1315.76 47.78 1315.85 54.17 1316.03 60.83C1316.21 67.31 1316.84 73.7 1317.92 80C1319 86.12 1320.71 92.06 1323.05 97.82C1325.57 103.4 1329.08 108.35 1333.58 112.67C1338.08 116.81 1343.75 120.14 1350.59 122.66C1357.43 125 1365.89 126.17 1375.97 126.17C1385.87 126.17 1394.15 124.73 1400.81 121.85C1407.65 118.97 1413.23 115.19 1417.55 110.51C1421.87 105.83 1425.2 100.43 1427.54 94.31C1430.06 88.19 1431.86 81.8 1432.94 75.14C1434.02 68.48 1434.65 61.82 1434.83 55.16C1435.01 48.5 1435.1 42.38 1435.1 36.8Z" fill="#EA6A74"/>
</g>
</g>
<defs>
<clipPath id="clip0">
<rect width="1440" height="150" fill="white"/>
</clipPath>
</defs>
</svg>
