<svg width="486" height="190" viewBox="0 0 486 190" fill="none" xmlns="http://www.w3.org/2000/svg">
<path d="M148.388 8.75502L149.035 8.81458C149.317 8.86432 149.448 9.01449 149.427 9.26507C149.286 9.2402 149.2 9.29758 149.168 9.43721C149.748 9.46688 149.96 9.90373 149.804 10.7478C149.655 10.7578 149.564 10.8326 149.533 10.9723C149.682 10.9622 149.758 11.0302 149.761 11.176C149.612 11.186 149.522 11.2609 149.49 11.4005C149.929 11.4053 150.117 11.5473 150.053 11.8266L149.867 12.8832C148.96 13.1591 148.448 13.6318 148.332 14.3013L140.627 22.7474C140.188 23.5417 139.084 24.9266 137.312 26.902L137.088 26.9171L136.902 27.9737C136.427 28.2893 135.474 29.2471 134.045 30.8472L134.269 30.8321C132.3 33.027 130.372 35.4469 128.485 38.0919C128.344 38.067 127.832 38.5397 126.95 39.51L126.563 39.2782L126.467 39.6972L126.903 39.7194L126.807 40.1383C126.778 40.4238 126.474 40.5517 125.894 40.5221C125.865 40.8075 125.979 40.9546 126.233 40.9632C125.115 42.3275 124.499 43.0178 124.385 43.034C123.911 43.023 123.247 43.9228 122.393 45.7332C122.106 45.8643 121.893 45.9173 121.752 45.8925L121.867 46.3487L120.285 47.9762C119.91 48.8179 119.414 49.2207 118.799 49.1848L118.847 48.9754C118.525 49.1002 118.289 49.1676 118.14 49.1776L118.05 49.8153L118.273 49.8003C118.334 49.3752 118.509 49.17 118.799 49.1848C118.767 49.3245 118.822 49.4067 118.963 49.4316C118.839 50.136 118.412 50.4784 117.683 50.4588C117.393 50.4439 117.217 50.6491 117.157 51.0742L116.945 51.0369L117.036 50.3992C117.177 50.4241 117.264 50.3667 117.295 50.2271L116.425 50.1826L116.43 50.4013L116.468 51.4429L116.679 51.4802L117.109 51.2837L117.019 51.9213C116.509 51.9041 116.056 52.4416 115.66 53.5338L115.829 53.9994C114.186 56.2153 112.982 57.3104 112.218 57.2846L112.17 57.494L112.526 58.1016C111.616 58.2316 111.147 58.4394 111.119 58.7249C111.401 58.7746 111.514 58.9217 111.458 59.1661L109.212 62.2562C108.652 63.1016 108.064 63.5064 107.449 63.4705C107.671 63.9454 107.771 64.3081 107.751 64.5587L107.311 64.3177L106.875 64.2954L106.519 65.3764C106.604 65.6456 106.631 65.8501 106.599 65.9897C106.414 65.9935 105.575 67.0984 104.081 69.3044C103.823 69.1499 103.619 69.0777 103.47 69.0877L103.651 69.5009C103.253 70.1206 102.901 70.458 102.595 70.513L102.711 70.9692L102.716 71.188C102.426 71.1731 102.233 71.3752 102.137 71.7941L101.979 71.7661L101.538 71.5251L101.543 71.7439L101.931 71.9756C101.891 72.1501 101.211 73.1197 99.891 74.8842L99.8483 75.3125L99.461 75.0807C99.4291 75.2204 99.3387 75.2952 99.1896 75.3053L99.3175 75.7091L99.2748 76.1373C98.6478 77.1162 98.1324 77.6064 97.7286 77.6078L97.6807 77.8172L97.8086 78.2211C97.2285 78.1914 96.9082 78.3892 96.8479 78.8143L97.3308 78.6271L97.5424 78.6644L97.4946 78.8738L96.4859 79.6765L96.6667 80.0897L95.7487 80.2546L95.8646 80.7108C95.5746 80.696 95.2628 81.2584 94.9292 82.3979C94.5184 83.2334 94.168 83.6437 93.8779 83.6288C93.846 83.7685 93.9046 83.8333 94.0536 83.8232C93.174 85.2659 92.2301 86.5884 91.222 87.7906L89.7131 90.3026L89.2302 90.4898L89.411 90.903L89.3631 91.1124L88.2589 92.334C88.2623 92.4798 88.3345 92.5652 88.4756 92.5901C87.9362 93.1849 87.4014 94.1619 86.871 95.521L86.4837 95.2893L86.2721 95.252L86.2243 95.4614L86.6594 95.4837C86.1882 96.7442 85.79 97.364 85.4646 97.3429L85.6335 97.8084L85.5378 98.2274C85.5093 98.5128 85.3501 98.6482 85.06 98.6333L85.1879 99.0372C84.9261 99.8626 84.3627 101.125 83.4979 102.825L83.7094 102.862L82.9497 104.743C83.035 105.013 83.0617 105.217 83.0298 105.357L82.4868 107.494L84.37 110.332L84.3273 110.76L84.1157 110.723L84.5762 111.839L84.4806 112.258C82.1259 111.807 80.985 111.26 81.058 110.62C80.3993 110.612 79.9845 108.814 79.8134 105.225L79.8612 105.016L80.0728 105.053L79.9039 104.588L80.138 103.322C80.4215 101.919 80.673 101.219 80.8926 101.221C80.9245 101.082 80.8659 101.017 80.7169 101.027C81.146 99.4684 81.5056 98.6966 81.7957 98.7114L81.6149 98.2982C82.3762 97.0525 83.1165 95.6579 83.8357 94.1142L83.6241 94.0769C87.97 86.1278 90.9497 81.3512 92.563 79.7474C92.422 79.7225 92.3674 79.6403 92.3993 79.5006C92.6541 79.5092 93.2276 78.6843 94.1198 77.0259C94.3985 76.9298 95.7406 74.9876 98.1462 71.1993C101.117 67.1839 102.649 64.8938 102.741 64.329C103.326 64.1779 104.485 62.8753 106.219 60.4212L106.659 60.6622L106.871 60.6995L106.878 60.4284C106.439 60.4236 106.251 60.2815 106.315 60.0023L106.974 60.0095L106.793 59.5963L106.841 59.3868C107.421 59.4165 107.743 59.2917 107.806 59.0124L107.371 58.9902L107.414 58.5619C107.704 58.5768 108.071 58.0967 108.513 57.1216C110.368 54.9429 111.384 53.7058 111.561 53.4103L112.125 53.8364C112.156 53.6968 112.261 53.4792 112.439 53.1837L112.215 53.1987C112.218 53.3446 112.146 53.4225 111.997 53.4326L112.087 52.7949C114.289 50.0601 115.41 48.6054 115.45 48.4308C117.577 45.5377 118.896 44.0998 119.406 44.117L119.29 43.6608C121.609 41.0556 122.782 39.6102 122.811 39.3248C123.502 38.8657 124.136 38.1785 124.712 37.2632C125.827 35.7531 126.604 35.0004 127.043 35.0052L127.091 34.7958L126.656 34.7735C127.699 33.5775 128.257 32.8225 128.329 32.5083C129.681 31.4032 130.384 30.6555 130.436 30.2653L130.66 30.2502L130.564 30.6692L131.047 30.482L130.919 30.0781L130.967 29.8686L131.349 29.8816L131.234 29.4254C130.9 29.4392 128.879 31.062 125.17 34.2936C124.912 34.1391 124.708 34.0669 124.559 34.0769L124.607 33.8675L126.051 33.0871L126.098 32.8776L125.452 32.8181L125.542 32.1804C126.158 32.2163 127.104 31.7658 128.382 30.829C128.124 30.6746 127.924 30.5849 127.783 30.56L127.826 30.1318L128.913 30.4324C130.041 29.5057 130.817 28.68 131.239 27.9556L130.422 27.9204C128.238 29.9322 127.054 30.9399 126.87 30.9438L126.986 31.4C126.946 31.5745 126.481 31.7648 125.59 31.9709C125.53 32.3961 125.209 32.5938 124.629 32.5641L124.242 32.3324L124.019 32.3475L123.971 32.5569L124.406 32.5792L124.31 32.9981L123.513 33.838L123.737 33.823C123.769 33.6833 123.859 33.6085 124.008 33.5985L124.124 34.0547C123.94 34.0585 123.69 34.2687 123.375 34.6852L123.598 34.6701C123.63 34.5305 123.721 34.4556 123.87 34.4456L123.822 34.6551L124.788 34.2807L124.904 34.7369C124.763 34.712 123.84 35.4573 122.137 36.9727C120.136 38.5081 119.111 39.3806 119.064 39.59L118.681 39.5771L118.772 38.9394C118.8 38.6539 119.691 38.0483 121.443 37.1225C121.591 36.3134 122.15 35.6313 123.12 35.0761L123.168 34.8666L122.733 34.8444L119.484 37.2674L119.6 37.7236L119.605 37.9424L119.165 37.7014L118.73 37.6791C118.725 37.8599 117.612 38.8801 115.39 40.7398C115.329 41.1649 115.519 41.3799 115.958 41.3847C115.929 41.6702 115.766 41.8229 115.468 41.843C115.355 41.5326 115.315 41.3076 115.347 41.168L114.912 41.1458C114.875 41.4662 114.449 41.8085 113.632 42.1729L113.813 42.5861C113.43 43.136 113.02 43.4086 112.58 43.4038L112.533 43.6133L113.191 43.6204C113.223 43.4808 113.31 43.4234 113.451 43.4483L113.742 44.0989C109.766 47.5376 107.513 49.3736 106.982 49.607C106.898 50.1368 105.714 51.1446 103.431 52.6303C103.375 52.8747 102.101 53.9573 99.6081 55.8782C97.13 58.0559 94.6253 60.0292 92.0939 61.798C92.0335 62.2231 90.8497 63.2309 88.5424 64.8213C81.0481 70.6538 77.285 73.6399 77.2531 73.7795L76.7702 73.9667L76.3829 73.735L76.3351 73.9445C76.4762 73.9694 76.5307 74.0516 76.4989 74.1913C75.3543 75.1878 73.1511 76.724 69.8893 78.7998C69.8255 79.0791 68.6537 80.0345 66.3737 81.6661C65.9698 81.6675 65.2229 82.2076 64.1329 83.2864L62.6414 84.2763C62.2728 84.2839 61.7028 84.6918 60.9314 85.4999C59.003 86.3946 57.5411 87.3352 56.5455 88.3217C51.2155 90.9407 48.3878 92.2397 48.0625 92.2186C45.9317 92.7145 44.4489 92.9432 43.6139 92.905C39.3176 91.639 37.404 89.5767 37.8733 86.7179C37.7322 86.6931 37.7012 85.5437 37.7801 83.2698C38.265 81.4669 38.6349 80.5698 38.8897 80.5785L38.7738 80.1222C40.2055 76.7432 42.0683 73.404 44.3623 70.1044C45.6516 68.1529 46.5755 66.9177 47.1341 66.3988L46.9226 66.3615L50.7986 61.4344C52.3246 59.0888 53.4135 57.7738 54.0653 57.4893C54.145 57.1402 54.793 56.3103 56.0094 54.9995L56.105 54.5806L56.4923 54.8123L56.7995 54.4307C56.6585 54.4059 56.5862 54.3205 56.5829 54.1746C57.0186 54.0336 57.6364 53.4162 58.4363 52.3226L58.2128 52.3376C58.2686 52.0933 59.3273 50.9908 61.3889 49.0302L65.2599 43.8843C66.169 42.9552 66.8613 42.3328 67.3369 42.0172C67.477 41.243 68.348 39.9985 69.95 38.2837C69.801 38.2937 69.7248 38.2258 69.7214 38.0799C72.3316 35.1629 74.4827 32.3284 76.1748 29.5764L75.9513 29.5914C77.7218 26.8169 78.7313 24.7252 78.9795 23.3164C79.18 22.1171 78.4197 20.9481 76.6988 19.8094C76.7307 19.6698 76.6761 19.5875 76.5351 19.5627L76.0521 19.7499L76.0999 19.5404C75.9509 19.5504 75.8605 19.6253 75.8286 19.7649L70.3565 18.909C70.0346 19.0338 68.9146 19.1994 66.9966 19.406L67.0444 19.1965L62.3314 19.8362L61.8963 19.814L60.8503 19.5751C60.7581 20.1398 59.6398 20.3784 57.4955 20.2908C56.5968 20.5318 56.1315 20.7221 56.0996 20.8618L55.7003 20.6824L54.8301 20.6379C54.7538 21.1329 52.5901 21.5321 48.3389 21.8356L44.0063 22.9782L44.0012 22.7594L33.4488 24.8751C33.2997 24.8852 33.2412 24.8204 33.2731 24.6807C31.8362 25.19 28.3716 25.9046 22.8793 26.8245C21.3787 27.613 17.1923 28.4363 10.3201 29.2945L10.315 29.0757L4.9962 29.7175L4.77267 29.7326C3.61236 29.6733 3.05164 29.1568 3.09051 28.1831L2.63001 27.067L2.84159 27.1043L2.67276 26.6387L2.76839 26.2198C2.82877 25.7947 4.05343 25.4115 6.44238 25.0701L6.39456 25.2795C7.83479 24.9162 8.66468 24.7357 8.88423 24.7381L8.83641 24.9475C43.8497 18.1208 62.9029 14.7622 65.9959 14.8718L66.0009 15.0906L66.431 14.894C66.572 14.9189 66.6266 15.0012 66.5947 15.1408C67.8268 14.886 69.2249 14.7875 70.789 14.8454L73.6232 14.9638C77.0768 15.1007 79.3745 16.1232 80.5163 18.0313C80.3752 18.0064 80.2887 18.0638 80.2569 18.2035C81.3819 18.2566 81.8069 20.4922 81.5319 24.9104C81.0673 27.5884 79.7887 30.377 77.6961 33.2763L77.9197 33.2613C77.5088 34.0967 77.0839 34.512 76.6448 34.5072L76.4586 35.5638L75.1359 37.0192L75.2638 37.4231L74.303 38.0162L74.0367 38.4595C74.1857 38.4495 74.2443 38.5143 74.2124 38.6539C73.8791 38.6678 73.2152 39.5675 72.2206 41.3531C71.9771 41.4555 71.5203 42.0104 70.8501 43.018C69.5541 44.6778 68.6922 45.5608 68.2644 45.6669C68.1688 46.0858 67.4161 47.1333 66.0063 48.8094L66.1342 49.2133C65.6792 49.2783 64.7974 50.2486 63.4888 52.1241L61.376 54.1483C61.517 54.1731 61.5716 54.2554 61.5397 54.395C61.3634 54.3639 60.7632 54.9844 59.7392 56.2564C59.8882 56.2464 59.9468 56.3112 59.9149 56.4508C57.6359 58.8815 56.4446 60.3237 56.341 60.7775C53.4577 64.409 51.5774 66.6194 50.7002 67.4089L50.8281 67.8128C49.4889 69.5013 47.9556 71.7185 46.2282 74.4643C44.5943 76.3187 43.5036 78.1237 42.9561 79.8792C42.3518 81.08 41.9535 81.6997 41.7613 81.7384L41.8772 82.1947C41.8487 82.4802 41.6895 82.6155 41.3994 82.6006C41.3675 82.7403 41.4261 82.8051 41.5751 82.795C40.9445 84.7538 40.5848 86.0884 40.4959 86.7991C41.2886 87.6651 42.5586 88.2885 44.3058 88.6692C48.028 88.2724 52.5918 86.1175 57.9971 82.2045C59.533 81.4222 63.6304 78.6585 70.2895 73.9135L70.6768 74.1452L70.496 73.732C74.188 70.8968 76.3064 69.4909 76.8513 69.5144L76.7353 69.0582C76.9901 69.0668 79.2292 67.3735 83.4525 63.9783C84.8541 63.4629 85.6113 62.7975 85.724 61.9821L86.1762 62.1708C86.389 61.8815 87.2207 61.2111 88.6713 60.1595C88.7237 59.7693 89.9979 58.6867 92.4941 56.9116C93.0822 56.9064 93.5072 56.4911 93.769 55.6657C94.3697 55.4448 94.7059 55.1772 94.7776 54.8631L95.2127 54.8853L95.1171 55.3042L95.3406 55.2892C95.5126 54.3753 96.4825 53.4206 98.2505 52.425L98.6378 52.6567L98.6856 52.4473L98.4621 52.4623C98.5065 52.107 99.1812 51.4815 100.486 50.5859C100.454 50.7255 100.509 50.8078 100.65 50.8326C100.742 50.2679 100.863 49.9805 101.012 49.9704L101.659 50.03L101.802 49.4016C101.951 49.3916 102.04 49.2438 102.068 48.9583L102.456 49.1901L103.253 48.3501C103.34 47.9661 103.997 47.5008 105.222 46.9543C105.318 46.5354 105.493 46.3302 105.748 46.3388C105.751 46.4847 105.827 46.5526 105.976 46.5426C106.037 46.1174 106.212 45.9123 106.502 45.9271L106.55 45.7177L106.369 45.3045C107.779 44.7541 108.511 44.3567 108.567 44.1124C108.595 43.8269 108.914 43.5562 109.523 43.3004C109.618 42.8815 109.811 42.6795 110.101 42.6943L110.664 43.1204L110.712 42.9109C110.744 42.7713 110.689 42.6891 110.548 42.6642C110.743 41.9722 111.223 41.6392 111.987 41.665L111.859 41.2612L111.902 40.8329C112.27 40.8253 112.667 40.6955 113.091 40.4435L112.91 40.0303L112.97 39.7685C113.373 40.0936 113.702 40.2606 113.956 40.2692C113.879 39.965 113.856 39.7431 113.888 39.6035L115.151 38.4099C115.905 37.9982 116.421 37.5081 116.697 36.9395C117.628 36.5589 118.164 36.381 118.305 36.4059L118.189 35.9496L118.237 35.7402L118.624 35.9719C118.668 35.6166 119.371 34.8689 120.732 33.7289L120.78 33.5195L121.003 33.5044L121.39 33.7361C121.403 33.5204 121.653 33.3103 122.14 33.1056C122.108 33.2452 122.162 33.3275 122.303 33.3524C122.141 33.9047 121.879 34.1672 121.518 34.14L121.476 34.5682C122.399 33.8959 122.95 33.5752 123.126 33.6063L123.216 32.9686L123.005 32.9313C122.718 33.0623 122.5 33.1329 122.351 33.1429L122.394 32.7147C122.763 32.707 123.159 32.5772 123.583 32.3252L123.403 31.912L123.45 31.7026C123.748 31.6825 123.913 31.6026 123.945 31.463L124.036 30.8253C124.906 30.8698 125.418 30.3971 125.57 29.4072L126.217 29.4668L126.616 29.6461L126.664 29.4367C126.366 29.4568 126.249 29.3272 126.312 29.0479L126.355 28.6196C126.504 28.6096 126.74 28.5422 127.062 28.4174L127.014 28.6268L127.927 28.2431C128.047 28.5186 128.092 28.7261 128.06 28.8657C128.974 28.5549 129.486 28.0822 129.594 27.4477L129.383 27.4104C129.088 27.5763 128.87 27.6468 128.729 27.6219L128.772 27.1937C129.186 26.5041 129.873 25.8263 130.832 25.1602L130.927 24.7413L131.315 24.973C132.628 24.0424 133.336 23.3502 133.439 22.8964L135.452 21.0723L135.409 21.5006L136.847 20.5014L136.731 20.0452C137.998 18.9975 139.037 17.9823 139.848 16.9996C140.181 16.9857 140.59 16.6402 141.075 15.9631C141.839 15.9889 142.97 14.9718 144.468 12.9117L148.388 8.75502ZM135.584 21.695L135.7 22.1512L135.446 22.5421L135.658 22.5794L135.924 22.1361L136.02 21.7172L135.584 21.695ZM131.171 27.2899L131.382 27.3272C131.97 27.322 132.599 26.9789 133.268 26.2979L133.655 26.5296L133.703 26.3202L133.666 25.2786C133.49 25.2475 132.658 25.918 131.171 27.2899ZM130.439 26.3983L130.391 26.6077C130.532 26.6326 130.587 26.7148 130.555 26.8545C130.414 26.8296 130.345 26.8901 130.348 27.0359L130.56 27.0733L130.826 26.63L130.439 26.3983ZM128.065 27.396C128.633 27.6413 128.893 27.8687 128.845 28.0782C128.311 28.1657 128.005 28.2206 127.927 28.2431L127.811 27.7869L128.065 27.396ZM129.848 28.7453L129.705 29.3737L129.27 29.3514L129.317 29.142C129.416 28.8689 129.593 28.7367 129.848 28.7453ZM125.819 30.4861L125.729 31.1238L125.94 31.1611L126.031 30.5234L125.819 30.4861ZM122.202 35.2411L122.638 35.2633L122.59 35.4728L122.155 35.4505L122.202 35.2411ZM119.235 36.1885L119.187 36.398L119.622 36.4202L119.67 36.2108L119.235 36.1885ZM118.704 36.5852C118.708 36.731 118.603 36.9486 118.39 37.2379L118.614 37.2229L118.921 36.8413L118.916 36.6225L118.704 36.5852ZM127.541 37.1629L127.498 37.5912L127.657 37.6191L127.753 37.2002L127.541 37.1629ZM116.898 38.2278L117.334 38.25L117.429 37.8311C117.131 37.8512 116.954 37.9834 116.898 38.2278ZM116.197 38.6488L116.154 39.0771L116.325 39.0527L116.421 38.6338L116.197 38.6488ZM116.977 39.331L117.412 39.3533L117.364 39.5627L116.929 39.5405L116.977 39.331ZM118.241 39.3361L118.453 39.3734C118.456 39.5192 118.383 39.5972 118.234 39.6072L118.362 40.0111C118.334 40.2966 117.236 41.247 115.07 42.8623C114.921 42.8723 114.655 43.1523 114.273 43.7023C114.015 43.5478 113.815 43.4581 113.674 43.4332L113.669 43.2145C113.881 43.2518 114.217 42.9842 114.678 42.4118L114.889 42.4491L114.773 41.9929L114.816 41.5647L115.251 41.5869C115.223 41.8724 115.279 42.0276 115.42 42.0525C115.75 41.8928 115.968 41.8222 116.074 41.8409C116.161 41.4569 116.094 41.0274 115.873 40.5526C116.638 40.2518 117.033 40.0491 117.057 39.9443L117.444 40.176L117.879 40.1983L117.751 39.7944C117.823 39.4802 117.986 39.3275 118.241 39.3361ZM114.663 40.0669L113.866 40.9069L113.818 41.1163L114.042 41.1013C114.097 40.8569 114.375 40.5245 114.874 40.1042L114.663 40.0669ZM125.187 40.7243L125.193 40.9431L125.575 40.956L125.623 40.7466L125.187 40.7243ZM113.129 41.485L113.564 41.5072L113.606 41.079C113.308 41.0991 113.149 41.2344 113.129 41.485ZM122.74 42.5261L122.692 42.7356L122.904 42.7729C123.194 42.7877 123.357 42.6349 123.394 42.3145L123.442 42.1051L123.218 42.1201C122.92 42.1402 122.761 42.2755 122.74 42.5261ZM112.261 43.8378L112.266 44.0565C112.352 44.3258 112.378 44.5302 112.346 44.6699C112.566 44.6722 112.816 44.4621 113.096 44.0394L112.925 44.0637L112.442 44.2509L112.485 43.8227L112.261 43.8378ZM110.865 44.4087L111.046 44.8219L110.201 45.8713L110.425 45.8562L111.959 44.4381L111.476 44.6253L111.253 44.6404L110.865 44.4087ZM108.37 46.42C108.322 46.6294 108.508 46.8618 108.926 47.1172L109.15 47.1022C109.178 46.8167 109.408 46.6938 109.839 46.7335L109.935 46.3146L109.5 46.2923L108.37 46.42ZM105.881 46.9615L105.833 47.1709C105.945 47.4813 105.986 47.7063 105.954 47.8459L106.177 47.8309C106.214 47.5105 106.33 47.2405 106.527 47.021L105.881 46.9615ZM107.87 48.1293L108.257 48.361L109.314 47.3489L109.102 47.3116C108.329 47.6473 107.918 47.9199 107.87 48.1293ZM105.508 49.0747L105.513 49.2934L106.16 49.353C106.173 49.1373 106.509 48.8698 107.169 48.5504C107.137 48.69 107.195 48.7548 107.344 48.7448L107.339 48.526C107.225 48.5422 107.167 48.4774 107.164 48.3316C107.462 48.3115 107.642 48.1618 107.706 47.8826L107.754 47.6731C106.954 47.641 106.276 48.1207 105.72 49.112L105.508 49.0747ZM104.143 50.9583C104.892 50.7273 105.317 50.312 105.418 49.7124L105.194 49.7274C104.904 49.7126 104.554 50.1229 104.143 50.9583ZM117.688 50.6775L117.911 50.6625L117.768 51.2908L117.544 51.3059L117.688 50.6775ZM103.182 51.5515L103.617 51.5737L103.66 51.1455C103.362 51.1656 103.203 51.3009 103.182 51.5515ZM102.523 51.5443L101.998 52.1597L102.168 52.1353L102.747 51.5292L102.523 51.5443ZM101.678 52.5937C101.615 52.873 101.455 53.0083 101.201 52.9997L101.153 53.2091L101.811 53.2163C101.84 52.9308 101.999 52.7955 102.289 52.8103L102.337 52.6009L101.678 52.5937ZM97.7875 55.1759L97.6919 55.5948L98.1748 55.4076L98.127 55.6171L97.8607 56.0604L98.248 56.2921L98.4716 56.277L98.2908 55.8638C98.5808 55.8787 98.7578 55.7464 98.8215 55.4672L98.4342 55.2355L97.7875 55.1759ZM94.8349 58.4683L95.4816 58.5278L95.5243 58.0996L95.3128 58.0623C95.0147 58.0824 94.8554 58.2177 94.8349 58.4683ZM94.1284 58.6705L94.0857 59.0988L93.8741 59.0615L93.422 58.8728C93.5425 59.1483 93.5868 59.3558 93.5549 59.4954L94.2136 59.5026C94.2455 59.363 94.3462 59.1629 94.5157 58.9023L94.1284 58.6705ZM92.8536 59.9165L92.8057 60.1259L93.2409 60.1482L93.2887 59.9387L92.8536 59.9165ZM106.129 61.0589L106.086 61.4871L106.298 61.5244L106.34 61.0962L106.129 61.0589ZM90.8842 61.3123L90.7885 61.7312L91.0001 61.7685L91.0957 61.3496L90.8842 61.3123ZM88.505 63.7798L88.2815 63.7949L87.8942 63.5632L87.8464 63.7726L88.2337 64.0043C88.4532 64.0067 88.9527 63.5864 89.7321 62.7433C88.9824 62.9743 88.5734 63.3198 88.505 63.7798ZM83.1106 67.4042L83.0627 67.6137L83.7214 67.6209C83.8455 66.9165 84.0526 66.5717 84.3427 66.5865C84.3108 66.7262 84.3654 66.8084 84.5065 66.8333L84.597 66.1956L84.3854 66.1583C84.1659 66.1559 83.7409 66.5712 83.1106 67.4042ZM81.3477 68.6186L81.3528 68.8374C81.3243 69.1229 81.4374 69.2699 81.6922 69.2785L81.74 69.0691C81.7685 68.7836 81.6378 68.6334 81.3477 68.6186ZM80.392 69.4306L80.3441 69.64L81.0028 69.6472L80.9977 69.4284L80.392 69.4306ZM76.8234 72.2875L76.8285 72.5063L77.2636 72.5285L77.5299 72.0852C77.2079 72.2101 76.9725 72.2775 76.8234 72.2875ZM75.1254 73.4588L75.0776 73.6683L75.2892 73.7056L75.3848 73.2867C75.6669 73.3364 75.7801 73.4835 75.7243 73.7278C75.5832 73.703 75.4968 73.7604 75.4649 73.9L75.9051 74.141L75.9478 73.7128C75.9797 73.5731 75.9211 73.5084 75.7721 73.5184L76.0384 73.0751L76.0862 72.8656C75.4935 73.0516 75.1732 73.2494 75.1254 73.4588ZM63.0138 82.1631L62.6946 82.597L62.9181 82.582L63.2253 82.2004L63.0138 82.1631Z" fill="#9B74CD"/>
<path d="M148.875 56.9938L149.633 57.2908C149.657 57.1861 149.722 57.143 149.827 57.1617C149.811 57.2315 149.917 57.4135 150.143 57.7076L150.047 58.1265C150.365 58.1824 150.656 58.833 150.922 60.0783C150.22 61.2255 149.328 62.3211 148.246 63.365C147.891 63.956 147.502 64.2142 147.079 64.1396L146.92 64.1117L147.007 64.4538L146.899 64.9251C146.582 64.8691 146.167 65.3225 145.654 66.2851C145.23 66.2105 144.999 66.2604 144.959 66.435L145.276 66.4909L144.851 66.9062C144.828 67.011 144.868 67.0727 144.974 67.0913C144.738 67.4854 144.531 67.6668 144.355 67.6357L144.426 67.3216L144.268 67.2936C144.22 67.503 144.143 67.5984 144.037 67.5798L144.124 67.9219C143.844 68.3447 143.206 68.8131 142.208 69.3271L142.561 69.226L142.878 69.2819L142.843 69.439C142.795 69.6485 142.665 69.7346 142.453 69.6972C142.477 69.5925 142.436 69.5308 142.331 69.5122L142.43 69.802L142.358 70.1162L141.882 70.0322L141.969 70.3744L141.544 70.7897C141.65 70.8083 141.69 70.87 141.667 70.9748C141.384 70.925 141.212 71.0398 141.148 71.3191C141.218 71.3315 141.242 71.3901 141.218 71.4948C141.033 71.4986 140.921 71.5878 140.882 71.7623L140.774 72.2336C143.789 71.24 146.149 70.2217 147.854 69.1788L148.585 68.8718L152.214 66.9517C152.19 67.0564 152.231 67.1181 152.337 67.1367C153.387 66.2325 154.792 65.4633 156.551 64.8293C157.383 64.3951 157.828 64.0558 157.883 63.8114L158.165 64.0245C159.069 63.2761 159.649 62.9063 159.904 62.9149L159.868 63.072C159.74 63.6305 158.757 64.4014 156.919 65.3845L157.078 65.4125L158.084 65.0998L158.366 65.3128C158.454 64.9288 158.603 64.7555 158.815 64.7928L158.974 64.8207L158.878 65.2397L159.037 65.2676C159.172 64.6742 159.346 64.3961 159.557 64.4334L159.485 64.7476L159.591 64.7663C159.687 64.3473 159.946 64.1752 160.369 64.2498L160.334 64.4069C160.073 64.9057 159.855 65.1395 159.678 65.1084L159.777 65.3982C159.033 66.2475 158.52 66.6473 158.238 66.5975L158.325 66.9397C158.097 66.9722 157.931 66.9791 157.825 66.9605L157.912 67.3026C157.711 67.3763 157.488 67.3913 157.241 67.3478L157.328 67.69C157.073 67.6813 156.767 67.8996 156.408 68.3448C156.267 68.32 155.882 68.5607 155.253 69.0671C150.495 71.7507 147.472 73.3421 146.184 73.8413C144.098 75.1075 142.116 75.7566 140.237 75.7886C138.439 75.4715 137.592 74.5232 137.696 72.9437L137.854 72.9716C137.672 72.3222 137.629 71.7881 137.725 71.3692C137.932 70.4615 140.299 67.6468 144.825 62.9251L144.666 62.8972C144.626 63.0717 143.287 63.7978 140.647 65.0755L135.437 68.1333C134.723 68.3704 132.655 69.4765 129.232 71.4514C128.102 71.9056 127.36 72.1017 127.007 72.0395L125.791 71.825C124.733 71.6384 124.197 70.6906 124.184 68.9815L124.342 69.0095C124.203 68.658 124.165 68.3426 124.228 68.0633C124.252 67.9586 124.317 67.9156 124.423 67.9342L124.336 67.5921C125.131 65.5535 125.864 64.1937 126.533 63.5128C126.427 63.4941 126.386 63.4324 126.41 63.3277C127.039 62.8213 127.943 61.6734 129.122 59.8839C129.281 59.1858 129.815 58.5354 130.723 57.9329C130.922 58.1859 131.092 58.3248 131.233 58.3497L131.197 58.5068L131.032 58.7499L131.137 58.7686C131.161 58.6638 131.226 58.6208 131.332 58.6395C131.675 59.0632 132 59.8104 132.306 60.8811C131.687 61.8251 131.283 62.3894 131.094 62.5739L130.935 62.546L131.022 62.8881C130.881 62.8632 130.675 63.0447 130.403 63.4325L130.49 63.7747C130.21 64.1974 129.96 64.4076 129.74 64.4052L129.775 64.738L129.013 65.4209C129.079 65.6141 129.1 65.7631 129.076 65.8678C128.364 66.5774 127.783 67.4372 127.332 68.4472C128.734 67.9317 129.996 67.301 131.121 66.555L132.435 65.8607C132.329 65.8421 132.288 65.7804 132.312 65.6756C133.101 65.2701 133.567 65.0798 133.708 65.1047L135.252 64.1242C135.228 64.2289 135.269 64.2906 135.375 64.3093C136.581 63.6867 137.208 63.2706 137.256 63.0612L137.291 62.9041L137.52 63.1078C139.435 61.6297 141.625 60.4725 144.09 59.6362C145.414 58.8166 146.2 58.4286 146.447 58.4721L147.833 57.4636C148.432 57.5693 148.78 57.4127 148.875 56.9938ZM138.694 63.7506L138.658 63.9077L138.975 63.9636L139.011 63.8065L138.694 63.7506ZM145.249 65.887L145.213 66.044L145.531 66.1L145.567 65.9429L145.249 65.887ZM144.447 66.5081L144.411 66.6652L144.729 66.7212L144.764 66.5641L144.447 66.5081ZM153.222 69.5262L153.162 69.788L153.321 69.816L153.381 69.5541L153.222 69.5262ZM141.554 69.5387L142.136 69.6413C142.184 69.4318 142.102 69.3084 141.89 69.2711C141.706 69.275 141.594 69.3641 141.554 69.5387Z" fill="#9B74CD"/>
<path d="M171.618 53.5414L171.587 53.9172C171.551 54.2376 171.321 54.3605 170.898 54.2859L170.915 54.4523L171.232 54.5083L171.055 54.8038C171.161 54.8225 171.307 54.9028 171.495 55.0449C171.515 54.7943 171.816 54.6838 172.396 54.7135L172.536 55.065C172.43 55.0463 172.365 55.0894 172.341 55.1941L172.5 55.2221C172.548 55.0126 172.66 54.9234 172.836 54.9545C172.824 55.1702 172.923 55.2967 173.135 55.334L173.15 55.9903C171.902 56.315 170.013 57.1984 167.483 58.6406C167.438 58.9959 166.916 59.1944 165.916 59.236L165.757 59.208C165.366 58.9937 165.103 58.6205 164.968 58.0882L165.321 57.9871L164.901 56.9326L164.884 56.7662C164.916 55.5009 167.161 54.4259 171.618 53.5414ZM159.952 61.0169L160.269 61.0728C160.375 61.0915 160.434 61.1563 160.445 61.2672L160.745 61.1568L160.957 61.1941C160.952 61.3748 161.209 61.8559 161.728 62.6373C161.587 62.6125 161.54 62.6586 161.586 62.7758L162.171 63.5871C162.1 63.9012 161.804 64.2305 161.286 64.5748C161.284 64.9014 160.658 65.8803 159.405 67.5114C156.559 70.4958 154.646 73.7354 153.664 77.2301L153.823 77.2581L153.456 77.9015C153.393 78.9799 153.961 79.6248 155.16 79.8362L155.177 80.0026L155.531 79.9015L155.86 79.9051C155.966 79.9237 156.024 79.9885 156.036 80.0995L156.336 79.989L156.67 80.2114C160.11 79.7649 162.944 79.0842 165.17 78.1695C167.216 77.4044 171.533 75.0427 178.123 71.0842L178.457 71.3066C178.474 70.9102 179.109 70.4593 180.362 69.9538L181.205 69.3944L181.486 69.6074C181.804 69.6634 181.979 69.4582 182.012 68.992L182.293 69.205L182.153 68.8535C182.201 68.6441 182.313 68.5549 182.49 68.586L182.648 68.614L182.839 69.4647L182.803 69.6218L182.522 69.4087C182.517 69.5895 182.395 69.804 182.155 70.0522L182.172 70.2186C182.781 69.9628 183.39 69.5436 184 68.9612L184.158 68.9892L183.981 69.2847L184.14 69.3127C184.128 69.2017 184.175 69.1556 184.281 69.1742L184.474 69.535C184.149 69.514 183.915 69.6543 183.773 69.9561C183.526 69.9126 183.245 70.0991 182.93 70.5156C182.612 70.4596 182.447 70.5395 182.435 70.7551C182.54 70.7738 182.599 70.8386 182.61 70.9495L181.781 70.9667C181.796 71.2235 181.895 71.35 182.08 71.3462L182.098 71.0227L182.257 71.0507C182.363 71.0693 182.422 71.1341 182.433 71.2451L183.598 70.9603L183.418 70.5471C183.523 70.5658 183.871 70.4092 184.46 70.0773L184.441 70.4008L184.6 70.4288C184.646 69.7469 185.133 69.5422 186.061 69.8149C185.885 69.7838 185.614 69.845 185.249 69.9985L185.388 70.3499L185.405 70.5164L184.948 70.1089L184.917 70.4848L185.247 70.4884C185.12 70.7203 185.045 70.8886 185.021 70.9934L184.545 70.9094L184.264 70.6964L184.086 70.9919L184.562 71.0758C184.558 71.2566 184.395 71.4094 184.073 71.5342L184.05 71.149L183.892 71.121C183.7 71.1597 183.601 71.2695 183.597 71.4503L183.755 71.4782C183.562 71.8436 182.893 72.3612 181.75 73.0312L181.363 72.7995L181.414 73.2987L181.044 73.2334L181.221 72.9379L181.204 72.7715L180.887 72.7155L181.026 73.067C180.709 73.011 180.556 73.0385 180.567 73.1495C180.661 73.3838 180.695 73.5533 180.671 73.6581C178.22 75.0778 173.609 77.6784 166.84 81.4599C162.113 83.2047 158.688 83.908 156.564 83.5699L156.177 83.3382C156.071 83.3195 156.024 83.3657 156.035 83.4766C154.581 83.2566 153.246 82.2767 152.029 80.5369C151.817 80.4996 151.728 80.2478 151.761 79.7816L151.92 79.8095C151.505 78.5743 151.273 77.2623 151.223 75.8736C151.296 74.1071 152.069 72.2462 153.543 70.2908L153.879 70.0233L153.686 69.6625C153.966 69.2397 154.265 69.0563 154.582 69.1123L154.618 68.9552L154.425 68.5944C154.672 68.6379 155.019 68.0818 155.467 66.926C155.757 66.9408 156.085 66.7082 156.451 66.228C156.346 66.2094 156.305 66.1477 156.328 66.043C156.831 65.7685 157.629 64.7652 158.721 63.0332L158.88 63.0612C158.891 63.1721 158.95 63.2369 159.056 63.2556C159.049 62.9639 159.353 62.2731 159.969 61.1833L159.952 61.0169ZM184.037 68.3142L184.355 68.3701L184.336 68.6936L184.019 68.6377L184.037 68.3142ZM183.684 68.4153L183.824 68.7668C183.819 68.9475 183.656 69.1003 183.334 69.2251L183.176 69.1972L183.172 68.4884C183.313 68.5133 183.484 68.4889 183.684 68.4153ZM185.005 69.1384L185.322 69.1944L185.286 69.3514L184.969 69.2955L185.005 69.1384ZM185.725 70.0824L186.095 70.1477L186.112 70.3141L185.795 70.2581L185.725 70.0824ZM181.607 70.2824L181.677 70.4581L182.153 70.5421L182.136 70.3757L181.607 70.2824ZM181.117 70.7407L181.5 70.7537L181.466 70.4208C181.246 70.4184 181.13 70.5251 181.117 70.7407ZM176.75 73.239L177.068 73.295C177.072 73.1142 177.536 72.851 178.459 72.5053L178.598 72.8567C178.21 72.7884 177.917 73.1905 177.718 74.0632C179.031 73.1327 179.828 72.6923 180.11 72.742L180.129 72.4185L179.917 72.3812C179.47 72.4113 179.242 72.6071 179.233 72.9687L179.074 72.9407C178.933 72.9158 178.775 72.7245 178.6 72.3668L180.061 71.7528L180.128 71.2199C177.889 72.3503 176.763 73.0233 176.75 73.239ZM182.049 71.7221L181.73 72.156L181.694 72.3131L182.064 72.3784C182.049 72.1216 182.097 71.9122 182.208 71.75L182.049 71.7221ZM180.078 71.9193L180.042 72.0764L180.605 72.5025L180.571 72.1696C180.43 72.1448 180.266 72.0613 180.078 71.9193ZM180.73 72.1976L180.764 72.5304L180.922 72.5584L180.888 72.2256L180.73 72.1976ZM176.696 73.7196L176.735 74.2712L177.052 74.3272C177.201 74.3172 177.364 74.1644 177.542 73.8688L177.578 73.7118L176.696 73.7196Z" fill="#9B74CD"/>
<path d="M197.391 62.6069C198.493 63.5638 198.904 64.6532 198.625 65.875C198.943 65.931 199.075 66.3174 199.021 67.0342C198.774 68.1164 197.261 70.2463 194.481 73.4239C194.322 74.1221 193.944 74.4913 193.348 74.5314C192.644 74.0805 192.191 73.4923 191.99 72.7668L192.461 72.632C192.493 72.4923 192.438 72.4101 192.297 72.3852C192.448 71.7219 193.907 69.5098 196.673 65.7487C196.423 65.5594 196.228 65.4522 196.086 65.4274C192.623 66.7777 189.584 68.2027 186.967 69.7023L186.755 69.665L186.871 70.1212L185.458 70.5257L185.574 70.9819C185.045 70.8886 183.425 72.2008 180.714 74.9184L180.024 76.9756C179.642 78.6513 181.345 80.1864 185.135 81.581L185.347 81.6183C189.473 82.3457 196.176 80.6225 205.456 76.4485L205.831 76.7326C205.982 76.0693 206.847 75.4955 208.425 75.0111C208.393 75.1507 208.448 75.233 208.589 75.2579C208.684 74.8389 209.706 74.2202 211.654 73.4015L212.903 72.7503L213.114 72.7876L213.067 72.997C212.343 73.5957 211.965 73.9649 211.933 74.1045L212.356 74.1791C212.516 73.4809 212.948 73.194 213.653 73.3184L213.769 73.7746C212.604 75.0217 211.81 75.608 211.387 75.5334L211.291 75.9523L212.022 75.6453L212.445 75.7199L212.349 76.1388C210.502 77.4835 209.134 78.3318 208.247 78.6837L207.871 78.3997L207.824 78.6091C207.965 78.634 208.019 78.7163 207.987 78.8559L207.516 78.9907C207.548 78.8511 207.494 78.7688 207.353 78.744L207.305 78.9534L207.516 78.9907C207.477 79.1653 206.887 79.4971 205.748 79.9863L205.653 80.4052L205.277 80.1211C204.102 80.9307 203.285 81.2951 202.827 81.2143C202.739 81.5983 201.765 82.0076 199.905 82.4422C199.842 82.7215 199.355 82.9261 198.445 83.0562C198.357 83.4402 197.713 83.6898 196.513 83.805C196.449 84.0843 196.276 84.199 195.994 84.1493L195.619 83.8652L195.571 84.0747C195.712 84.0995 195.767 84.1818 195.735 84.3214L193.12 85.1678L192.909 85.1305L192.534 84.8464C192.486 85.0559 192.14 85.2854 191.496 85.535L191.284 85.4977L190.909 85.2136C190.704 85.468 190.586 85.665 190.554 85.8047L190.342 85.7674L189.967 85.4833C189.911 85.7277 189.511 85.8749 188.766 85.9251L188.813 85.7157L188.343 85.8505L188.131 85.8132L187.756 85.5291C187.66 85.948 186.907 86.0331 185.496 85.7844L184.862 85.6725C184.721 85.6476 184.666 85.5654 184.698 85.4257L184.227 85.5606C183.874 85.4984 183.271 85.2469 182.418 84.8059C182.386 84.9456 182.3 85.0029 182.159 84.9781C182.207 84.7686 181.37 84.2579 179.647 83.4458C177.789 81.3024 177.155 78.9391 177.745 76.3558L177.956 76.3931C177.988 76.2535 177.933 76.1712 177.792 76.1463C178.511 73.8036 180.056 71.5341 182.428 69.3377C185.035 67.4006 187.651 65.901 190.278 64.839L195.814 62.7647C195.854 62.5901 196.379 62.5375 197.391 62.6069ZM196.026 62.802L195.978 63.0114L196.401 63.086L196.449 62.8766L196.026 62.802ZM213.059 74.9567L213.012 75.1662C212.948 75.4455 212.775 75.5602 212.493 75.5105L212.541 75.301C212.64 75.028 212.813 74.9132 213.059 74.9567ZM210.042 76.6036C211.061 76.638 211.603 76.5156 211.667 76.2364L211.196 76.3712C211.055 76.3463 211 76.2641 211.032 76.1244C210.42 76.2344 210.09 76.3941 210.042 76.6036ZM208.581 77.2176L208.486 77.6365L208.697 77.6738L208.793 77.2549L208.581 77.2176ZM207.544 77.9061L207.496 78.1156L207.919 78.1902L207.967 77.9808L207.544 77.9061ZM204.104 79.4784L204.008 79.8973C204.801 79.6377 205.217 79.4206 205.257 79.246C204.735 79.4445 204.35 79.5219 204.104 79.4784Z" fill="#9B74CD"/>
<path d="M218.453 73.0209L218.771 73.0768L218.699 73.391L218.382 73.335L218.453 73.0209ZM219.511 73.2074L219.776 73.254L219.704 73.5682L219.44 73.5216L219.511 73.2074ZM219.935 73.282L220.358 73.3566L220.286 73.6708L219.863 73.5962L219.935 73.282ZM220.481 73.5417L220.639 73.5697L220.579 73.8315L220.421 73.8035L220.481 73.5417ZM220.868 73.7734L221.185 73.8294C222.925 75.0441 223.676 76.1751 223.437 77.2223C223.543 77.241 223.576 77.3376 223.536 77.5121C225.685 77.419 227.603 77.2124 229.29 76.8926L229.254 77.0497C229.658 77.0482 229.888 76.9253 229.943 76.681L230.225 76.894C230.257 76.7544 230.483 76.649 230.902 76.5777C230.839 76.857 230.895 77.0122 231.071 77.0433L231.167 76.6243L231.484 76.6803L231.448 76.8374C231.424 76.9421 230.896 77.2484 229.863 77.7562L230.144 77.9693L230.568 78.0439L231.062 77.8043L230.967 78.2232L231.644 77.9069L231.608 78.064L231.962 77.9629L232.385 78.0375L232.313 78.3517C231.925 78.2833 231.711 78.3364 231.672 78.5109L232.448 78.4844C232.589 78.5093 232.694 78.6912 232.763 79.0303C232.658 79.0116 232.509 79.0217 232.316 79.0604C232.332 78.9906 232.287 78.9463 232.182 78.9277L232.122 79.1895L231.893 78.9858C231.782 79.4745 230.131 80.0368 226.941 80.6727L226.648 80.5121L226.489 80.4841C226.417 80.7983 226.038 80.9312 225.352 80.8829C225.376 80.7781 225.335 80.7164 225.23 80.6978C225.206 80.8025 224.568 80.9443 223.317 81.1231C223.277 81.2976 223.204 81.3756 223.098 81.3569L223.185 81.6991C222.089 83.2853 221.204 84.273 220.528 84.6622C220.634 84.6809 220.675 84.7426 220.651 84.8473C220.27 85.0706 219.991 85.1667 219.815 85.1356L219.901 85.4778C217.115 87.238 215.477 88.1475 214.987 88.2063C213.533 89.112 211.794 89.6588 209.77 89.8467L209.489 89.6336C209.183 89.6886 209.018 89.7684 208.994 89.8732C208.888 89.8545 208.847 89.7928 208.871 89.6881L208.147 89.7239C208.042 89.7053 208.001 89.6436 208.025 89.5389L207.671 89.64C205.52 89.2607 204.312 87.8856 204.046 85.5146C204.114 85.0546 204.025 84.8028 203.778 84.7593L204.343 83.0069L204.439 82.588L204.704 82.6346L204.967 81.4826L205.197 81.1964L204.933 81.1498C205.313 80.1274 205.661 79.6441 205.979 79.7001C205.955 79.8048 205.996 79.8665 206.102 79.8852L206.515 79.5222L206.428 79.1801C206.499 78.8659 207.14 78.4704 208.349 77.9937L208.373 77.889L208.109 77.8423C208.157 77.6329 208.374 77.5623 208.762 77.6307C208.786 77.526 208.745 77.4643 208.639 77.4457C208.785 77.2898 208.87 77.1595 208.894 77.0547L209.052 77.0827L209.281 77.2864L210.549 76.3117L210.647 75.4028C210.788 75.4277 210.972 75.2606 211.201 74.9014L211.042 74.8735L211.261 74.6396L211.428 73.9065C211.688 73.7344 212.431 73.6113 213.659 73.5372C213.635 73.6419 213.658 73.7005 213.728 73.7129C213.784 73.4686 215.292 73.3713 218.252 73.4211L218.18 73.7353L218.481 73.6248L218.639 73.6528C218.745 73.6715 218.786 73.7332 218.762 73.8379L219.063 73.7274C219.215 73.8633 219.397 73.9498 219.609 73.9871C219.692 73.7839 219.821 73.6978 219.998 73.7289L220.156 73.7569C220.325 73.8229 220.389 73.9432 220.349 74.1177C220.549 74.0441 220.755 74.0259 220.967 74.0632L220.868 73.7734ZM218.385 74.0438L218.313 74.3579L218.472 74.3859L218.544 74.0717L218.385 74.0438ZM218.958 74.9074L218.668 75.4554C218.809 75.4803 218.906 75.6972 218.96 76.1061C218.861 76.3791 218.544 76.7227 218.009 77.1368L220.495 77.5752L221.524 77.6476L221.56 77.4906L221.473 77.1484L221.79 77.2044C221.335 76.1437 220.509 75.5076 219.31 75.2962C219.334 75.1915 219.216 75.0619 218.958 74.9074ZM231.424 76.9421L231.689 76.9888L231.653 77.1459L231.389 77.0992L231.424 76.9421ZM216.746 76.6418C216.742 76.8226 216.81 76.9254 216.951 76.9503L217.011 76.6885L216.746 76.6418ZM209.943 76.3138L210.261 76.3697C210.213 76.5792 210.083 76.6653 209.872 76.628L209.943 76.3138ZM212.412 78.2743C210.01 79.957 208.797 80.8508 208.774 80.9555C208.416 81.0741 208.135 81.4239 207.929 82.0049C207.04 82.6835 206.415 83.5719 206.055 84.6704C205.831 85.6478 206.513 86.2765 208.1 86.5563C209.967 86.4133 211.142 86.1666 211.626 85.8161C211.602 85.9208 211.625 85.9794 211.696 85.9919C214.048 84.8452 216.254 83.6182 218.313 82.3108C219.218 81.5624 219.69 81.101 219.73 80.9264L217.826 80.5907L218.003 80.2951L217.28 80.331C215.763 80.0636 214.141 79.3781 212.412 78.2743ZM207.336 78.5775L206.911 78.9929L207.069 79.0208L207.441 78.5962L207.336 78.5775Z" fill="#9B74CD"/>
<path d="M236.533 69.5088L237.811 70.6601L237.633 70.9556C237.597 71.276 237.741 71.4467 238.067 71.4678L237.995 71.782C237.974 72.0326 237.59 72.6729 236.841 73.7029C236.804 74.0233 236.571 74.1637 236.14 74.1239L236.291 74.4231L236.256 74.5802L235.528 75.5959L235.687 75.6238L238.846 73.8385C238.857 73.9495 238.902 73.9937 238.981 73.9713C239.017 73.6509 239.807 73.2454 241.349 72.7548C241.325 72.8595 241.366 72.9212 241.472 72.9398C241.54 72.4798 242.945 72.1102 245.687 71.831C245.711 71.7263 245.758 71.6801 245.829 71.6926C246.024 71.7997 246.175 71.8626 246.281 71.8812L246.317 71.7241C247.605 72.024 248.72 72.7653 249.661 73.9479C250.465 76.0506 250.848 77.2622 250.812 77.5826L251.124 77.4198L251.264 77.7713L250.892 78.1959L251.221 78.1995L251.149 78.5137C251.161 78.6246 251.114 78.6708 251.008 78.6521L251.095 78.9943L251.088 79.2654L249.958 79.3931C249.259 78.7613 248.798 78.208 248.576 77.7332C248.292 76.0852 247.97 75.2476 247.609 75.2204L247.016 75.1701C242.645 74.8716 236.971 78.1926 229.995 85.1331C228.041 87.5848 226.632 89.4971 225.769 90.8701C224.906 91.9164 224.015 93.2481 223.096 94.8654L221.996 96.3058C221.742 96.2971 221.463 96.3933 221.16 96.5941L221.002 96.5661C221.049 96.3567 221.02 96.2426 220.915 96.2239L220.427 96.1924C220.023 96.1938 219.839 95.4715 219.876 94.0253C219.77 94.0067 219.638 93.7836 219.478 93.3561L219.574 92.9372L219.905 92.4508C219.791 92.4671 219.747 92.4229 219.77 92.3181C219.99 92.3205 220.425 91.7799 221.076 90.6963C220.97 90.6777 220.925 90.6334 220.941 90.5636C221.196 90.5722 221.555 90.127 222.017 89.228C223.23 87.7714 224.798 85.5605 226.722 82.5951C227.443 81.8506 229.26 79.1932 232.174 74.6231C232.068 74.6044 232.027 74.5427 232.051 74.438C232.341 74.4528 232.72 73.9204 233.186 72.8406L235.745 69.5876C236.105 69.6149 236.368 69.5886 236.533 69.5088ZM235.176 70.6313C235.144 70.7709 235.073 70.9218 234.963 71.0839L235.121 71.1119L235.299 70.8164L235.335 70.6593L235.176 70.6313Z" fill="#9B74CD"/>
<path d="M271.274 78.576L272.032 78.873C272.056 78.7683 272.12 78.7253 272.226 78.7439C272.21 78.8137 272.315 78.9957 272.542 79.2898L272.446 79.7087C272.764 79.7647 273.055 80.4153 273.321 81.6605C272.619 82.8078 271.727 83.9033 270.645 84.9472C270.29 85.5383 269.901 85.7965 269.478 85.7219L269.319 85.6939L269.406 86.036L269.298 86.5073C268.981 86.4514 268.566 86.9047 268.052 87.8673C267.629 87.7927 267.398 87.8427 267.358 88.0172L267.675 88.0732L267.25 88.4885C267.226 88.5932 267.267 88.6549 267.373 88.6736C267.136 89.0676 266.93 89.2491 266.754 89.218L266.825 88.9038L266.667 88.8758C266.619 89.0853 266.542 89.1807 266.436 89.162L266.523 89.5042C266.243 89.9269 265.604 90.3953 264.607 90.9093L264.96 90.8082L265.277 90.8642L265.241 91.0213C265.194 91.2307 265.064 91.3168 264.852 91.2795C264.876 91.1747 264.835 91.1131 264.73 91.0944L264.828 91.3842L264.757 91.6984L264.281 91.6144L264.368 91.9566L263.943 92.3719C264.048 92.3906 264.089 92.4523 264.065 92.557C263.783 92.5072 263.61 92.622 263.547 92.9013C263.617 92.9137 263.641 92.9723 263.617 93.077C263.432 93.0808 263.32 93.17 263.28 93.3446L263.173 93.8159C266.188 92.8222 268.548 91.804 270.253 90.761L270.983 90.454L274.613 88.5339C274.589 88.6386 274.63 88.7003 274.736 88.719C275.786 87.8147 277.191 87.0456 278.949 86.4115C279.782 85.9773 280.227 85.638 280.282 85.3937L280.564 85.6067C281.468 84.8584 282.048 84.4885 282.303 84.4971L282.267 84.6542C282.139 85.2127 281.156 85.9836 279.318 86.9667L279.477 86.9947L280.483 86.682L280.765 86.895C280.853 86.511 281.002 86.3377 281.214 86.375L281.372 86.403L281.277 86.8219L281.436 86.8499C281.571 86.2564 281.745 85.9783 281.956 86.0156L281.884 86.3298L281.99 86.3485C282.086 85.9296 282.345 85.7574 282.768 85.832L282.732 85.9891C282.472 86.4879 282.253 86.7217 282.077 86.6906L282.176 86.9804C281.432 87.8297 280.919 88.2295 280.637 88.1797L280.724 88.5219C280.496 88.5544 280.329 88.5613 280.224 88.5427L280.311 88.8849C280.11 88.9585 279.887 88.9736 279.64 88.93L279.727 89.2722C279.472 89.2636 279.166 89.4819 278.807 89.9271C278.666 89.9022 278.281 90.143 277.652 90.6494C272.894 93.3329 269.871 94.9243 268.583 95.4235C266.497 96.6898 264.514 97.3389 262.636 97.3708C260.838 97.0537 259.991 96.1054 260.094 94.5259L260.253 94.5539C260.071 93.9045 260.028 93.3703 260.124 92.9514C260.331 92.0438 262.698 89.2291 267.224 84.5074L267.065 84.4794C267.025 84.6539 265.686 85.3801 263.046 86.6578L257.836 89.7155C257.122 89.9527 255.053 91.0587 251.631 93.0336C250.5 93.4879 249.759 93.6839 249.406 93.6217L248.189 93.4072C247.132 93.2207 246.596 92.2728 246.583 90.5637L246.741 90.5917C246.601 90.2402 246.563 89.9248 246.627 89.6456C246.651 89.5408 246.716 89.4978 246.822 89.5164L246.735 89.1743C247.53 87.1357 248.263 85.7759 248.932 85.095C248.826 85.0763 248.785 85.0146 248.809 84.9099C249.438 84.4035 250.342 83.2556 251.521 81.4662C251.68 80.768 252.214 80.1176 253.122 79.5151C253.321 79.7681 253.491 79.907 253.632 79.9319L253.596 80.089L253.431 80.3322L253.536 80.3508C253.56 80.2461 253.625 80.203 253.731 80.2217C254.074 80.6454 254.399 81.3926 254.705 82.4633C254.086 83.4073 253.682 83.9716 253.493 84.1562L253.334 84.1282L253.421 84.4703C253.28 84.4455 253.074 84.627 252.802 85.0148L252.889 85.3569C252.609 85.7797 252.359 85.9898 252.139 85.9874L252.173 86.3203L251.412 87.0031C251.478 87.1963 251.499 87.3453 251.475 87.45C250.763 88.1597 250.182 89.0195 249.731 90.0294C251.133 89.514 252.395 88.8832 253.519 88.1373L254.833 87.443C254.728 87.4243 254.687 87.3626 254.711 87.2579C255.5 86.8524 255.965 86.6621 256.107 86.6869L257.651 85.7064C257.627 85.8111 257.668 85.8728 257.774 85.8915C258.98 85.2689 259.607 84.8529 259.654 84.6434L259.69 84.4863L259.919 84.6901C261.834 83.212 264.024 82.0548 266.489 81.2185C267.813 80.3989 268.599 80.0108 268.846 80.0543L270.231 79.0458C270.831 79.1515 271.178 78.9949 271.274 78.576ZM261.093 85.3328L261.057 85.4899L261.374 85.5459L261.41 85.3888L261.093 85.3328ZM267.648 87.4692L267.612 87.6263L267.93 87.6822L267.965 87.5251L267.648 87.4692ZM266.846 88.0904L266.81 88.2474L267.128 88.3034L267.163 88.1463L266.846 88.0904ZM275.621 91.1084L275.561 91.3702L275.72 91.3982L275.78 91.1364L275.621 91.1084ZM263.953 91.1209L264.535 91.2235C264.583 91.0141 264.501 90.8907 264.289 90.8534C264.105 90.8572 263.993 90.9464 263.953 91.1209Z" fill="#9B74CD"/>
<path d="M390.65 53.8691C392.801 54.2484 394.708 55.4561 396.37 57.4924C398.039 60.147 398.574 62.7834 397.976 65.4016L397.669 65.7832C397.746 66.0873 397.761 66.3441 397.713 66.5536C395.174 71.4078 392.384 74.874 389.342 76.9522C388.42 78.097 384.318 81.0415 377.036 85.7856L372.399 88.0184C370.407 89.1924 368.341 90.208 366.201 91.0654C365.34 91.7851 364.592 92.089 363.957 91.977L364.049 92.538C363.449 92.4323 360.845 93.3166 356.235 95.1911C355.482 95.2762 354.454 95.6032 353.15 96.1723L353.221 95.8581C350.051 96.57 347.655 96.783 346.033 96.497C345.186 96.3477 344.679 95.6773 344.511 94.4856L344.246 94.4389C344.533 93.1822 345.47 92.6938 347.057 92.9736C352.575 93.5471 362.963 89.4231 378.219 80.6016C388.818 73.8639 394.695 67.9642 395.851 62.9024L395.91 62.6406C396.405 60.4762 394.647 58.6955 390.637 57.2986L390.161 57.2146C387.797 57.1246 386.419 57.1358 386.027 57.2482L385.392 57.1363C385.29 57.2635 384.364 57.4633 382.614 57.7359L382.65 57.5788C381.001 58.0507 380.001 58.2556 379.648 58.1934C379.688 58.0189 379.743 57.9378 379.814 57.9502C379.726 58.3342 378.372 58.8036 375.751 59.3582L375.798 59.1487C375.598 59.2224 375.498 59.2592 375.498 59.2592L375.614 59.7154L374.102 59.8301C374.15 59.6207 374.227 59.5253 374.333 59.5439C374.229 59.9978 372.972 60.5206 370.563 61.1126L370.467 61.5315L369.811 61.0344C369.659 61.6977 369.213 61.964 368.473 61.8334C368.512 61.6589 368.55 61.5747 368.585 61.5809C368.424 61.8066 368.311 62.0591 368.247 62.3384L367.824 62.2638C367.507 62.2078 367.364 62.11 367.396 61.9704C366.933 62.0703 366.697 62.1377 366.689 62.1727C366.866 62.2037 366.91 62.4113 366.822 62.7953L364.638 63.4451L364.398 63.2937L364.457 63.0319C364.598 63.0568 364.629 63.2438 364.549 63.5929C359.938 65.7939 357.617 66.9643 357.585 67.1039C357.473 67.5926 356.534 68.1715 354.768 68.8404C346.646 73.727 342.501 76.5368 342.333 77.2699C338.364 79.8746 335.718 81.9863 334.394 83.605C333.099 84.1391 332.04 85.0783 331.22 86.4225C330.041 87.0862 328.594 88.4469 326.877 90.5046C324.8 92.2084 322.228 94.8779 319.161 98.5132L315.15 103.308L314.991 103.28L315.1 104.007C313.961 104.496 312.484 106.306 310.669 109.435C310.564 109.417 310.519 109.373 310.535 109.303C310.676 109.328 310.71 109.497 310.639 109.811C309.332 111.034 307.253 114.516 304.402 120.26L304.719 120.316C304.361 120.761 303.744 122.177 302.868 124.565L303.239 124.63L302.689 125.35L302.211 127.445L302.426 128.191L302.108 128.135C302.026 132.514 302.631 135.326 303.924 136.571C305.625 138.76 308.183 140.572 311.596 142.01C311.632 142.016 311.673 141.914 311.721 141.705L314.628 142.708C314.652 142.603 314.858 142.585 315.246 142.653C315.214 142.793 315.163 142.856 315.093 142.844C315.124 142.704 315.352 142.672 315.775 142.746L315.751 142.851L316.04 142.793C316.533 142.88 316.764 142.993 316.732 143.133C320.154 143.41 322.632 143.483 324.165 143.354L324.129 143.511L325.189 143.208L325.117 143.522C332.601 142.554 339.205 141.267 344.927 139.661C357.84 135.801 370.915 130.027 384.152 122.338C390.629 118.069 395.911 114.298 399.996 111.024L399.88 110.567L406.067 105.884L405.887 106.67C401.846 110.714 398.699 113.573 396.446 115.246L396.279 115.979L395.716 115.553C394.131 116.871 393.303 117.687 393.231 118.001L393.337 118.02C393.417 117.671 394.35 117.037 396.137 116.117C396.233 115.698 397.67 114.463 400.45 112.411C401.09 112.015 402.397 110.793 404.368 108.744L405.01 108.585C405.296 108.781 405.562 108.9 405.809 108.944C406.061 108.48 406.842 107.873 408.15 107.123L407.983 107.856C405.781 110.591 401.615 114.378 395.485 119.216C386.361 125.596 379.77 129.645 375.709 131.362C372.598 133.101 369.788 134.404 367.279 135.269C360.7 138.539 353.144 141.346 344.612 143.691C344.668 143.447 344.749 143.334 344.855 143.353C344.791 143.632 343.994 143.909 342.464 144.184C334.132 146.455 326.447 147.497 319.41 147.309C319.128 147.26 318.999 147.182 319.023 147.078C318.223 147.046 317.63 146.995 317.242 146.927C309.836 145.621 304.565 142.44 301.427 137.384C300.409 135.098 299.826 133.071 299.68 131.302L299.257 131.227L299.729 130.602C299.554 130.245 299.492 129.072 299.542 127.083L299.754 127.121L299.672 125.309L299.831 125.337L299.785 125.056L300.466 122.071C300.538 121.757 300.662 121.616 300.838 121.647C300.823 121.717 300.726 121.736 300.55 121.705C301.7 118.276 303.546 114.607 306.089 110.698C305.984 110.679 305.97 110.495 306.05 110.146C306.494 109.97 306.716 109.882 306.716 109.882L306.67 109.602L306.825 108.921C307.319 109.008 307.945 108.193 308.704 106.474C309.026 106.35 309.65 105.624 310.577 104.299L310.471 104.28C310.542 103.966 310.936 103.527 311.652 102.963L311.44 102.926L314.15 99.9721C314.039 100.461 313.965 100.702 313.93 100.696L314.225 100.367C314.049 100.335 314.013 100.093 314.116 99.6392C314.598 98.8162 315.172 98.3909 315.838 98.3632C315.783 98.6075 315.684 98.7173 315.543 98.6924L315.444 98.4026L315.588 97.7743C315.993 97.4462 316.243 97.0727 316.339 96.6538L316.808 97.0089L316.76 97.2184L316.39 97.1531C316.937 96.5233 317.254 96.0164 317.342 95.6324L318.294 95.8003L317.579 96.7636L317.42 96.7356L317.893 96.1109C317.646 96.0673 317.575 95.8187 317.678 95.3649C318.529 94.2076 319.149 93.6632 319.537 93.7316L319.59 93.7409L319.566 93.8456L318.984 93.743C321.145 91.5094 322.366 90.4174 322.648 90.4672L323.071 90.5418L322.964 91.0131L322.805 90.9851C322.728 90.6809 322.733 90.3369 322.821 89.9529L322.928 89.4816L323.775 89.6308L323.595 90.4163L323.542 90.407C323.95 89.4257 324.365 88.9724 324.788 89.047L324.848 88.7852L324.43 88.9293L324.215 88.1833C324.354 87.7357 324.688 87.5585 325.217 87.6518C325.185 87.7914 325.134 87.855 325.063 87.8426L325.039 87.9473C324.863 87.9162 324.823 87.6912 324.918 87.2723C325.447 87.3656 325.787 87.0806 325.939 86.4173L326.574 86.5292L326.454 87.0529L326.295 87.0249L326.463 86.2918L327.097 86.4037L326.99 86.875L327.096 86.8937C327.112 86.8238 327.175 86.7079 327.285 86.5458C327.038 86.5022 326.979 86.2012 327.106 85.6427C327.388 85.6924 328.058 85.2477 329.116 84.3085L328.865 85.4082L328.635 85.6944L328.529 85.6757L328.784 85.2848L328.831 85.0753C328.839 85.0404 328.72 85.0012 328.473 84.9577L328.999 84.3422C328.921 84.0381 328.915 83.7464 328.978 83.4671C329.81 83.3595 330.738 82.6697 331.762 81.3977L332.704 81.1281C332.648 81.3724 332.585 81.4884 332.514 81.476C332.538 81.3712 332.605 81.2378 332.716 81.0757C332.645 81.0633 332.65 80.8825 332.73 80.5334L333.436 80.3311L333.729 80.4918L333.67 80.7537C333.493 80.7226 333.445 80.5325 333.525 80.1834L334.467 79.9137L334.335 80.4897L334.494 80.5177C334.542 80.3082 334.513 80.0309 334.409 79.6856L335.335 78.7596C335.23 78.7409 335.213 78.5745 335.284 78.2603L336.728 77.4799L336.812 77.1134L337.288 77.1973L337.516 77.401L337.469 77.6105C337.151 77.5545 337.056 77.2473 337.184 76.6887C337.854 76.8069 338.284 76.447 338.476 75.6092L339.481 75.7864C339.481 75.7864 339.505 75.6817 339.552 75.4722L339.696 74.8439L340.278 74.9465L340.11 75.6796L340.005 75.6609L340.208 74.7707L340.624 75.1165L340.564 75.3783C340.247 75.3224 340.144 75.05 340.256 74.5613L340.351 74.1424C340.845 74.2294 341.156 73.9937 341.283 73.4351L341.993 73.9416L342.31 73.9975C342.845 73.5834 343.183 73.3888 343.324 73.4137L343.3 73.5184L342.824 73.4345L343.015 72.5966C343.509 72.6837 343.879 72.1861 344.126 71.1039L344.836 71.6104L345.048 71.6477C345.159 71.159 345.515 70.9675 346.114 71.0732L345.995 71.5968L345.788 71.7783L345.63 71.7503L345.925 71.4211C345.572 71.3589 345.444 71.1183 345.539 70.6994L345.683 70.0711L346.087 70.4692L346.207 69.9455L346.863 70.4427C347.087 69.4652 347.657 69.0573 348.573 69.219C348.51 69.4983 348.585 69.7295 348.8 69.9126C348.824 69.8079 348.871 69.7618 348.942 69.7742C348.903 69.6221 348.884 69.5461 348.884 69.5461L348.648 69.6135L348.119 69.5202L348.311 68.6824C348.663 68.7446 348.892 68.5488 348.995 68.095L349.587 68.6351L349.481 68.6165L349.418 68.1696C350.816 67.5083 351.762 67.2211 352.256 67.3082L352.232 67.4129L351.597 67.301C351.948 66.8907 352.155 66.5459 352.219 66.2666L352.854 66.3785C352.734 66.9022 352.709 67.1702 352.78 67.1827L352.756 67.2874L352.333 67.2128C353.116 66.5156 353.539 66.0273 353.603 65.7481L354.29 65.8693L354.171 66.3929L354.966 66.0429C354.902 66.3222 354.835 66.4556 354.765 66.4432L354.741 66.5479L354.37 66.4826L354.896 65.8672L353.944 65.6993C355.678 64.3709 359.068 62.5356 364.115 60.1935L364.408 60.3542C364.544 59.7607 366.046 59.0451 368.915 58.2074C373.89 56.1795 378.041 54.9504 381.367 54.5201C383.852 53.7598 386.946 53.5428 390.65 53.8691ZM365.043 60.4661L364.959 60.8327C365.03 60.8451 365.089 60.7466 365.137 60.5371L365.149 60.4848L365.043 60.4661ZM351.159 68.2586C351.087 68.5728 350.857 68.6957 350.469 68.6273L350.493 68.5225L350.758 68.5692L351 68.2306L351.159 68.2586ZM341.92 73.0571L342.348 73.3505C342.364 73.2807 342.583 73.2831 343.007 73.3577L342.815 74.1955L341.704 73.9997L341.92 73.0571ZM338.547 76.9836C338.515 77.1232 338.43 77.2535 338.293 77.3745L338.187 77.3559L338.547 76.9836ZM339.205 78.6794L339.182 78.7841L339.023 78.7561L339.047 78.6514L339.205 78.6794ZM331.864 82.3962L331.912 82.1868L332.059 82.2671L332.011 82.4766L331.864 82.3962ZM331.144 83.1408L331.18 82.9837L331.338 83.0117L331.303 83.1688L331.144 83.1408ZM325.86 90.3798L325.771 90.5275L325.559 90.4902L325.701 90.3518L325.86 90.3798ZM406.787 106.828L407.633 106.978L407.49 107.606L406.643 107.457L406.787 106.828ZM320.892 93.099L320.868 93.2037L320.762 93.185L320.786 93.0803L320.892 93.099ZM406.713 107.632L406.618 108.051C406.522 108.47 406.192 108.63 405.628 108.53L405.723 108.112C405.854 107.699 406.184 107.539 406.713 107.632ZM406.029 108.22L405.838 109.058L404.991 108.908C405.154 108.356 405.5 108.127 406.029 108.22ZM318.909 95.0371L318.933 94.9324L319.091 94.9603L319.067 95.0651L318.909 95.0371ZM315.4 99.3208C315.384 99.3906 315.285 99.5003 315.104 99.65L314.999 99.6314L315.294 99.3021L315.4 99.3208ZM397.2 116.522L397.224 116.418L397.383 116.446L397.359 116.55L397.2 116.522ZM392.612 118.546C392.58 118.686 392.43 118.859 392.163 119.066L392.004 119.038L392.559 118.537L392.612 118.546ZM390.207 119.919L390.183 120.024L390.236 120.034C390.448 120.071 390.561 120.055 390.577 119.985L390.683 120.003C390.643 120.178 390.429 120.231 390.041 120.163C390.081 119.988 390.136 119.907 390.207 119.919ZM388.98 120.956L388.956 121.061L388.797 121.033L388.821 120.928L388.98 120.956ZM388.337 121.605C388.21 121.837 387.379 122.344 385.843 123.126L385.69 123.317L385.584 123.299C387.337 122.046 388.302 121.436 388.478 121.467L388.442 121.624L388.337 121.605ZM383.927 124.532L383.609 124.476C383.697 124.092 384.101 123.927 384.823 123.981L384.871 123.772C384.835 123.766 384.521 124.019 383.927 124.532ZM380.828 126.055C381.971 125.385 382.649 125.069 382.86 125.106L380.828 126.055ZM379.36 126.94L379.336 127.045L379.442 127.064L379.466 126.959L379.36 126.94ZM377.621 128.05C377.701 127.701 377.899 127.554 378.217 127.61L378.241 127.505C378.205 127.499 377.999 127.681 377.621 128.05ZM375.041 129.229C373.984 129.842 373.456 130.148 373.456 130.148L374.776 129.182L375.041 129.229ZM370.186 131.696L370.333 131.776C370.341 131.741 370.417 131.646 370.563 131.49L370.616 131.499C370.361 131.491 370.218 131.556 370.186 131.696ZM363.889 134.453L363.865 134.558L363.759 134.539L363.783 134.434L363.889 134.453ZM362.464 134.91L362.375 135.058L362.164 135.02L362.252 134.872L362.464 134.91ZM360.367 135.902L359.732 135.79L360.116 135.313L360.275 135.341L360.186 135.489C360.256 135.501 360.252 135.682 360.172 136.031C359.736 136.172 359.466 136.233 359.36 136.214L359.336 136.319C359.971 136.431 360.705 136.107 361.539 135.346L361.527 135.398L360.367 135.902ZM355.932 137.734L355.872 137.996L356.03 138.024L355.816 137.278L356.397 137.381L356.638 137.532L356.698 137.27L357.355 137.767L357.143 137.73L356.834 136.913L357.734 137.072L357.71 137.176L357.234 137.092C356.5 137.254 356.066 137.467 355.932 137.734ZM353.082 138.648L353.171 138.5C353.127 138.529 353.176 138.556 353.317 138.581L353.293 138.685L353.082 138.648ZM347.321 141.227L347.397 141.132C347.362 141.126 347.415 141.135 347.556 141.16L347.532 141.265L347.321 141.227ZM343.428 142.611L343.452 142.506L343.558 142.525L343.534 142.63L343.428 142.611ZM329.946 145.027L329.898 145.237L329.792 145.218L329.84 145.009L329.946 145.027Z" fill="#9B74CD"/>
<path d="M411.203 107.008L411.52 107.064L411.448 107.378L411.131 107.322L411.203 107.008ZM412.261 107.194L412.525 107.241L412.453 107.555L412.189 107.508L412.261 107.194ZM412.684 107.269L413.107 107.344L413.035 107.658L412.612 107.583L412.684 107.269ZM413.23 107.529L413.388 107.557L413.329 107.818L413.17 107.79L413.23 107.529ZM413.617 107.76L413.934 107.816C415.675 109.031 416.425 110.162 416.186 111.209C416.292 111.228 416.325 111.324 416.285 111.499C418.434 111.406 420.352 111.199 422.039 110.879L422.003 111.037C422.407 111.035 422.637 110.912 422.693 110.668L422.974 110.881C423.006 110.741 423.232 110.636 423.652 110.565C423.588 110.844 423.644 110.999 423.82 111.03L423.916 110.611L424.233 110.667L424.197 110.824C424.174 110.929 423.645 111.235 422.612 111.743L422.894 111.956L423.317 112.031L423.812 111.791L423.716 112.21L424.394 111.894L424.358 112.051L424.711 111.95L425.134 112.024L425.062 112.339C424.674 112.27 424.461 112.323 424.421 112.498L425.197 112.471C425.338 112.496 425.443 112.678 425.513 113.017C425.407 112.999 425.258 113.009 425.066 113.047C425.082 112.977 425.037 112.933 424.931 112.915L424.871 113.176L424.642 112.973C424.531 113.461 422.88 114.024 419.69 114.66L419.397 114.499L419.238 114.471C419.166 114.785 418.788 114.918 418.102 114.87C418.126 114.765 418.085 114.703 417.979 114.685C417.955 114.789 417.317 114.931 416.066 115.11C416.026 115.285 415.953 115.362 415.847 115.344L415.934 115.686C414.839 117.272 413.953 118.26 413.277 118.649C413.383 118.668 413.424 118.729 413.4 118.834C413.019 119.058 412.74 119.154 412.564 119.123L412.651 119.465C409.864 121.225 408.226 122.134 407.736 122.193C406.282 123.099 404.543 123.646 402.519 123.834L402.238 123.62C401.932 123.675 401.767 123.755 401.743 123.86C401.637 123.841 401.596 123.78 401.62 123.675L400.897 123.711C400.791 123.692 400.75 123.63 400.774 123.526L400.42 123.627C398.269 123.248 397.061 121.872 396.795 119.501C396.864 119.041 396.774 118.79 396.528 118.746L397.093 116.994L397.188 116.575L397.453 116.621L397.716 115.469L397.946 115.183L397.682 115.137C398.062 114.114 398.411 113.631 398.728 113.687C398.704 113.792 398.745 113.853 398.851 113.872L399.264 113.509L399.177 113.167C399.249 112.853 399.889 112.457 401.098 111.981L401.122 111.876L400.858 111.829C400.906 111.62 401.124 111.549 401.511 111.618C401.535 111.513 401.494 111.451 401.389 111.433C401.534 111.277 401.619 111.146 401.643 111.042L401.802 111.07L402.03 111.273L403.298 110.299L403.396 109.39C403.537 109.415 403.722 109.247 403.95 108.888L403.792 108.86L404.01 108.626L404.177 107.893C404.437 107.721 405.18 107.598 406.408 107.524C406.384 107.629 406.407 107.687 406.478 107.7C406.533 107.455 408.041 107.358 411.001 107.408L410.93 107.722L411.23 107.612L411.389 107.64C411.494 107.658 411.535 107.72 411.511 107.825L411.812 107.714C411.964 107.85 412.146 107.937 412.358 107.974C412.441 107.771 412.57 107.685 412.747 107.716L412.905 107.744C413.074 107.81 413.138 107.93 413.098 108.105C413.298 108.031 413.504 108.013 413.716 108.05L413.617 107.76ZM411.134 108.031L411.063 108.345L411.221 108.373L411.293 108.059L411.134 108.031ZM411.707 108.894L411.417 109.442C411.558 109.467 411.655 109.684 411.709 110.093C411.61 110.366 411.293 110.71 410.758 111.124L413.244 111.562L414.273 111.635L414.309 111.477L414.222 111.135L414.539 111.191C414.085 110.131 413.258 109.495 412.059 109.283C412.083 109.178 411.966 109.049 411.707 108.894ZM424.174 110.929L424.438 110.976L424.402 111.133L424.138 111.086L424.174 110.929ZM409.496 110.629C409.491 110.809 409.559 110.912 409.7 110.937L409.76 110.675L409.496 110.629ZM402.692 110.301L403.01 110.357C402.962 110.566 402.832 110.652 402.621 110.615L402.692 110.301ZM405.161 112.261C402.759 113.944 401.547 114.838 401.523 114.942C401.166 115.061 400.884 115.411 400.678 115.992C399.789 116.67 399.165 117.559 398.804 118.657C398.581 119.635 399.263 120.263 400.849 120.543C402.716 120.4 403.891 120.154 404.375 119.803C404.351 119.908 404.374 119.966 404.445 119.979C406.797 118.832 409.003 117.605 411.063 116.298C411.967 115.549 412.439 115.088 412.479 114.913L410.575 114.578L410.753 114.282L410.029 114.318C408.513 114.051 406.89 113.365 405.161 112.261ZM400.085 112.564L399.66 112.98L399.818 113.008L400.191 112.583L400.085 112.564Z" fill="#9B74CD"/>
<path d="M441.682 88.469L442.634 88.6369C442.775 88.6617 443.032 88.9795 443.407 89.5902L443.388 89.9137C443.159 90.2728 442.844 91.2522 442.442 92.8518C441.113 93.8522 439.275 95.6344 436.929 98.1985C436.647 98.1488 436.482 98.3919 436.433 98.928C436.15 98.8783 435.649 99.389 434.927 100.46C434.786 100.435 434.503 100.712 434.077 101.291L432.693 103.498C431.922 104.306 430.669 105.937 428.935 108.391C428.139 109.304 427.743 109.834 427.747 109.979C427.853 109.998 427.911 110.063 427.923 110.174C427.711 110.136 427.304 110.555 426.701 111.429C426.454 111.386 426.17 111.826 425.849 112.75L425.176 113.285C425.2 113.18 425.159 113.118 425.054 113.1C425.155 113.299 425.207 113.472 425.211 113.618L422.616 117.028C422.631 117.284 422.294 117.715 421.606 118.32C421.591 119.189 421.372 119.586 420.949 119.512C420.925 119.616 420.966 119.678 421.071 119.697C420.264 120.825 419.439 122.75 418.598 125.47C418.84 126.82 419.172 127.533 419.596 127.607C419.584 127.496 419.631 127.45 419.737 127.469L420.176 128.2L421.005 128.183L421.481 128.266C421.587 128.285 421.628 128.347 421.604 128.452C424.203 128.474 426.528 127.849 428.58 126.577C428.929 126.493 430.839 125.359 434.309 123.175C434.626 123.231 434.962 122.963 435.317 122.372L437.297 121.414C437.191 121.395 437.132 121.33 437.121 121.219L438.092 121.064L437.952 120.712L437.935 120.546L438.094 120.574L438.428 120.796C438.425 120.65 438.855 120.29 439.72 119.717C439.752 119.577 439.87 119.38 440.075 119.126L440.41 119.348C440.515 119.367 441.225 118.747 442.539 117.49C442.559 117.566 442.621 117.614 442.727 117.632C442.736 117.271 443.004 117.064 443.529 117.011C443.932 116.211 444.38 115.854 444.874 115.941C444.875 115.614 444.982 115.47 445.193 115.507C445.205 115.618 445.263 115.683 445.369 115.701C445.655 114.771 446.15 114.368 446.855 114.493L447.014 114.521C447.226 114.558 447.313 114.737 447.277 115.057L447.63 114.956L447.611 115.28C447.587 115.384 446.753 116.308 445.107 118.052C445.213 118.071 445.254 118.132 445.23 118.237L445.071 118.209L444.79 117.996C444.785 118.177 444.561 118.355 444.118 118.531C444.081 118.851 443.686 119.218 442.931 119.629C442.594 119.824 442.363 120.11 442.24 120.488L442.399 120.516L443.247 120.175L443.387 120.527C443.07 120.471 442.185 121.132 440.733 122.51C440.721 122.726 440.007 123.199 438.593 123.93L438.557 124.087C438.663 124.106 438.722 124.171 438.733 124.282C438.627 124.263 438.58 124.309 438.591 124.42L438.257 124.198L438.098 124.17L438.238 124.521L438.255 124.688C438.008 124.644 437.678 124.804 437.265 125.167C437.254 125.056 437.195 124.991 437.09 124.972C437.061 125.258 436.017 126.054 433.958 127.362C433.937 127.612 433.224 128.086 431.818 128.782L431.659 128.754L431.799 129.105C431.022 129.295 430.598 129.384 430.528 129.371L430.369 129.343L430.509 129.695L428.688 130.681C428.712 130.576 428.671 130.515 428.565 130.496C428.545 130.747 427.773 131.155 426.25 131.722L426.091 131.694L426.11 131.37C424.989 132.262 423.441 132.534 421.467 132.186C421.443 132.291 421.325 132.324 421.113 132.287C419.28 131.964 417.75 130.55 416.524 128.046C416.346 127.543 416.259 127.2 416.263 127.02L416.422 127.048L416.282 126.696L416.301 126.373C416.29 126.262 416.337 126.215 416.443 126.234L416.303 125.883L416.359 124.912C416.383 124.807 416.448 124.764 416.554 124.783L416.414 124.432C416.656 123.53 416.776 123.006 416.773 122.861L416.614 122.833C417.098 121.356 417.471 120.442 417.735 120.089L417.577 120.061C419.244 116.615 420.796 114.074 422.233 112.439C422.246 112.223 422.411 111.98 422.73 111.709L422.59 111.358C422.837 111.401 423.227 110.98 423.759 110.093C423.935 110.124 424.331 109.595 424.947 108.505C425.237 108.52 425.687 107.837 426.295 106.455C426.677 106.232 427.427 105.275 428.547 103.584C431.812 99.4025 434.514 96.084 436.652 93.6285C436.844 93.5898 438.521 91.8699 441.682 88.469ZM445.174 115.83L445.156 116.154L445.314 116.182L445.333 115.858L445.174 115.83ZM444.097 119.344L444.256 119.372L444.22 119.53C444.156 119.809 443.885 120.033 443.406 120.203L443.266 119.852L444.097 119.344ZM441.623 120.542L441.762 120.894L440.986 120.92L441.126 121.272L440.314 121.455C440.407 121.69 440.441 121.859 440.418 121.964L440.735 122.02L440.79 121.539L441.071 121.752C441.591 121.082 441.975 120.768 442.221 120.811L442.082 120.46C441.881 120.533 441.728 120.561 441.623 120.542ZM440.1 121.908L440.081 122.232L440.24 122.26L440.259 121.936L440.1 121.908ZM438.969 122.526C438.964 122.706 439.122 122.898 439.443 123.099C439.44 122.954 439.558 122.757 439.798 122.508L439.781 122.342L439.622 122.314C439.363 122.486 439.145 122.557 438.969 122.526ZM437.624 123.596L437.658 123.929L437.975 123.985C438.152 124.016 438.246 123.923 438.259 123.708L438.119 123.356C438.59 123.221 438.913 123.17 439.09 123.201L439.126 123.044L438.967 123.016C438.403 122.916 437.955 123.109 437.624 123.596ZM435.624 125.368L436.1 125.451L436.119 125.128L435.96 125.1C435.776 125.104 435.664 125.193 435.624 125.368ZM433.538 126.307C433.632 126.541 433.666 126.711 433.642 126.816L433.801 126.844C433.814 126.628 433.979 126.548 434.296 126.604L434.315 126.281L433.538 126.307ZM433.025 126.87L433.006 127.194C433.147 127.219 433.306 127.083 433.484 126.788C433.284 126.861 433.131 126.889 433.025 126.87ZM425.991 130.205L426.008 130.372L426.325 130.428L426.308 130.261L425.991 130.205ZM426.287 131.075L426.304 131.241L426.569 131.288L426.605 131.131L426.287 131.075Z" fill="#9B74CD"/>
<path d="M452.355 114.264L452.672 114.32L452.601 114.634L452.283 114.578L452.355 114.264ZM453.413 114.451L453.677 114.497L453.606 114.811L453.341 114.765L453.413 114.451ZM453.836 114.525L454.259 114.6L454.187 114.914L453.764 114.839L453.836 114.525ZM454.382 114.785L454.541 114.813L454.481 115.075L454.322 115.047L454.382 114.785ZM454.769 115.017L455.087 115.073C456.827 116.287 457.577 117.418 457.338 118.465C457.444 118.484 457.477 118.581 457.437 118.755C459.586 118.662 461.504 118.456 463.191 118.136L463.155 118.293C463.559 118.291 463.789 118.168 463.845 117.924L464.126 118.137C464.158 117.998 464.384 117.892 464.804 117.821C464.74 118.1 464.796 118.255 464.973 118.286L465.068 117.867L465.386 117.923L465.35 118.081C465.326 118.185 464.797 118.492 463.764 118.999L464.046 119.212L464.469 119.287L464.964 119.047L464.868 119.466L465.546 119.15L465.51 119.307L465.863 119.206L466.286 119.281L466.215 119.595C465.827 119.526 465.613 119.58 465.573 119.754L466.349 119.728C466.49 119.752 466.596 119.934 466.665 120.273C466.559 120.255 466.41 120.265 466.218 120.304C466.234 120.234 466.189 120.189 466.083 120.171L466.023 120.433L465.795 120.229C465.683 120.718 464.032 121.28 460.843 121.916L460.549 121.755L460.39 121.727C460.319 122.041 459.94 122.174 459.254 122.126C459.278 122.021 459.237 121.96 459.131 121.941C459.107 122.046 458.47 122.187 457.218 122.366C457.178 122.541 457.106 122.619 457 122.6L457.087 122.942C455.991 124.528 455.105 125.516 454.429 125.905C454.535 125.924 454.576 125.986 454.552 126.09C454.171 126.314 453.892 126.41 453.716 126.379L453.803 126.721C451.017 128.481 449.378 129.391 448.888 129.449C447.434 130.355 445.695 130.902 443.672 131.09L443.39 130.877C443.084 130.932 442.919 131.012 442.895 131.116C442.789 131.098 442.748 131.036 442.772 130.931L442.049 130.967C441.943 130.948 441.902 130.887 441.926 130.782L441.573 130.883C439.422 130.504 438.213 129.129 437.948 126.758C438.016 126.298 437.927 126.046 437.68 126.002L438.245 124.25L438.341 123.831L438.605 123.878L438.868 122.726L439.098 122.44L438.834 122.393C439.214 121.371 439.563 120.887 439.88 120.943C439.856 121.048 439.897 121.11 440.003 121.128L440.416 120.765L440.329 120.423C440.401 120.109 441.041 119.714 442.251 119.237L442.275 119.132L442.01 119.085C442.058 118.876 442.276 118.805 442.664 118.874C442.688 118.769 442.647 118.707 442.541 118.689C442.687 118.533 442.771 118.403 442.795 118.298L442.954 118.326L443.183 118.53L444.451 117.555L444.548 116.646C444.689 116.671 444.874 116.504 445.103 116.145L444.944 116.117L445.162 115.883L445.33 115.15C445.589 114.978 446.333 114.854 447.56 114.78C447.536 114.885 447.559 114.944 447.63 114.956C447.686 114.712 449.194 114.614 452.154 114.664L452.082 114.978L452.382 114.868L452.541 114.896C452.647 114.915 452.688 114.976 452.664 115.081L452.964 114.971C453.116 115.106 453.298 115.193 453.51 115.23C453.593 115.027 453.723 114.941 453.899 114.972L454.058 115C454.226 115.066 454.29 115.186 454.25 115.361C454.451 115.287 454.657 115.269 454.868 115.306L454.769 115.017ZM452.287 115.287L452.215 115.601L452.373 115.629L452.445 115.315L452.287 115.287ZM452.86 116.151L452.569 116.699C452.711 116.723 452.808 116.94 452.861 117.349C452.762 117.622 452.445 117.966 451.911 118.38L454.397 118.818L455.425 118.891L455.461 118.734L455.374 118.392L455.692 118.447C455.237 117.387 454.41 116.751 453.211 116.539C453.235 116.435 453.118 116.305 452.86 116.151ZM465.326 118.185L465.59 118.232L465.554 118.389L465.29 118.342L465.326 118.185ZM450.648 117.885C450.643 118.066 450.712 118.169 450.853 118.193L450.912 117.932L450.648 117.885ZM443.845 117.557L444.162 117.613C444.114 117.822 443.985 117.908 443.773 117.871L443.845 117.557ZM446.313 119.517C443.912 121.2 442.699 122.094 442.675 122.199C442.318 122.317 442.036 122.667 441.83 123.248C440.942 123.927 440.317 124.815 439.956 125.914C439.733 126.891 440.415 127.52 442.002 127.799C443.868 127.656 445.044 127.41 445.527 127.059C445.503 127.164 445.526 127.223 445.597 127.235C447.95 126.088 450.156 124.861 452.215 123.554C453.119 122.806 453.592 122.344 453.631 122.17L451.727 121.834L451.905 121.538L451.181 121.574C449.665 121.307 448.042 120.621 446.313 119.517ZM441.237 119.821L440.812 120.236L440.971 120.264L441.343 119.839L441.237 119.821Z" fill="#9B74CD"/>
<path d="M470.434 110.752L471.712 111.903L471.535 112.199C471.498 112.519 471.643 112.69 471.968 112.711L471.896 113.025C471.876 113.276 471.491 113.916 470.742 114.946C470.706 115.266 470.472 115.407 470.041 115.367L470.193 115.666L470.157 115.823L469.43 116.839L469.589 116.867L472.747 115.082C472.759 115.193 472.804 115.237 472.882 115.214C472.919 114.894 473.708 114.488 475.251 113.998C475.227 114.103 475.268 114.164 475.374 114.183C475.442 113.723 476.847 113.353 479.588 113.074C479.612 112.969 479.66 112.923 479.73 112.936C479.926 113.043 480.076 113.106 480.182 113.124L480.218 112.967C481.507 113.267 482.622 114.008 483.562 115.191C484.366 117.294 484.75 118.505 484.713 118.826L485.026 118.663L485.165 119.014L484.793 119.439L485.123 119.443L485.051 119.757C485.062 119.868 485.015 119.914 484.909 119.895L484.996 120.237L484.989 120.509L483.86 120.636C483.16 120.004 482.7 119.451 482.478 118.976C482.194 117.328 481.871 116.491 481.511 116.464L480.917 116.413C476.547 116.115 470.873 119.436 463.896 126.376C461.942 128.828 460.534 130.74 459.67 132.113C458.808 133.159 457.917 134.491 456.997 136.109L455.898 137.549C455.643 137.54 455.364 137.636 455.062 137.837L454.903 137.809C454.951 137.6 454.922 137.486 454.816 137.467L454.328 137.436C453.924 137.437 453.741 136.715 453.777 135.268C453.672 135.25 453.539 135.027 453.38 134.599L453.476 134.18L453.807 133.694C453.693 133.71 453.648 133.666 453.672 133.561C453.891 133.564 454.327 133.023 454.978 131.939C454.872 131.921 454.827 131.877 454.843 131.807C455.098 131.815 455.456 131.37 455.918 130.471C457.131 129.015 458.7 126.804 460.624 123.838C461.344 123.094 463.161 120.436 466.075 115.866C465.97 115.848 465.929 115.786 465.953 115.681C466.243 115.696 466.621 115.163 467.088 114.084L469.646 110.831C470.007 110.858 470.269 110.832 470.434 110.752ZM469.078 111.874C469.046 112.014 468.975 112.165 468.864 112.327L469.023 112.355L469.2 112.06L469.236 111.902L469.078 111.874Z" fill="#9B74CD"/>
</svg>
