<svg width="542" height="200" viewBox="0 0 542 200" fill="none" xmlns="http://www.w3.org/2000/svg">
<path d="M87.5389 64.8595L88.1736 64.7476C88.5968 64.673 88.8244 64.7055 88.8566 64.8451C88.4334 64.9197 88.2057 64.8872 88.1736 64.7476C91.9468 64.0823 95.11 66.266 97.6633 71.2988L98.2076 72.9457C99.1133 75.7635 98.9127 79.5934 97.6058 84.4353L96.1843 88.0629C96.2888 88.5165 94.778 91.597 91.6521 97.3043C89.3699 100.938 87.4181 103.697 85.7969 105.581C84.4516 107.706 82.0534 110.598 78.6026 114.257L77.2353 115.968C77.1309 115.515 77.2374 115.26 77.5547 115.204C77.4123 115.701 75.509 117.634 71.8448 121.004C71.7037 121.029 70.232 122.287 67.4297 124.778C62.8696 128.56 57.432 132.514 51.1167 136.641C51.0524 136.362 51.1614 136.198 51.4435 136.148C51.2145 136.588 48.5432 138.293 43.4296 141.265C39.5162 143.553 37.5243 144.703 37.4538 144.715C36.3888 146.464 35.9839 147.734 36.2392 148.524L36.2921 148.515L35.9071 148.038C35.6179 149.65 35.1664 150.638 34.5526 151C34.7356 151.476 34.7037 151.736 34.4569 151.779L34.4448 151.727C34.3846 152.9 34.042 153.723 33.4171 154.196C33.5729 154.713 32.9904 156.486 31.6696 159.515C31.4245 159.885 31.227 160.701 31.077 161.962C30.7244 162.024 30.5668 162.614 30.6043 163.733C30.0914 163.896 29.6743 164.714 29.3529 166.187C29.3177 166.193 29.3804 166.545 29.5411 167.243C29.1179 167.318 28.3622 168.976 27.274 172.218L27.89 172.981C27.1495 173.112 26.6355 174.146 26.348 176.085C26.1512 176.665 26.178 177.259 26.4284 177.868L25.7334 177.719C25.8218 178.102 25.62 178.501 25.1281 178.915C25.2518 179.292 24.963 180.269 24.2617 181.845C24.3122 183.18 24.2669 183.86 24.1258 183.884L24.0488 183.789L24.2778 184.784L23.2172 184.48L23.5346 184.424L23.4623 184.11L24.1841 184.855C23.6359 185.024 23.2083 185.717 22.9012 186.933C23.0472 187.088 23.1996 187.352 23.3585 187.723C22.6167 188.326 22.2915 188.747 22.383 188.985L22.2772 189.003C26.191 184.646 31.2084 180.221 37.3294 175.728C42.2341 171.85 49.129 167.929 58.014 163.966C60.6038 162.783 65.6083 161.011 73.0274 158.65L73.0395 158.702C73.0395 158.702 73.1453 158.683 73.3568 158.646L89.8259 154.871C89.8581 155.01 89.6625 155.117 89.2394 155.192L89.1309 154.721L90.1915 155.024L93.2594 154.483C93.1183 154.508 93.0117 154.363 92.9393 154.049L93.8821 154.319C94.0696 154.177 94.4101 154.062 94.9038 153.975C94.936 154.115 94.7405 154.222 94.3173 154.296L94.2088 153.825L95.2694 154.129L96.6447 153.886C96.5036 153.911 96.3969 153.766 96.3246 153.452L97.3852 153.755L101.775 152.981C103.64 153.27 104.824 154.187 105.326 155.732L102.451 157.111L102.338 156.858C101.613 157.059 101.291 157.333 101.372 157.682L100.429 157.413C100.277 157.548 99.8657 157.675 99.1957 157.794L99.2078 157.846L99.3015 157.775L98.9841 157.831C98.561 157.905 98.3534 157.96 98.3614 157.995L98.4552 157.924L97.8733 158.027L97.2674 158.025C97.2835 158.094 96.9389 158.191 96.2336 158.316L96.2456 158.368L96.3394 158.297L89.0399 159.584C89.2515 159.547 89.4503 159.693 89.6365 160.024L88.2994 159.715L87.6117 159.836L85.8736 160.415L85.8615 160.363L84.4862 160.605C83.7457 160.736 82.5668 161.034 80.9496 161.501C81.0121 161.454 80.9376 161.449 80.726 161.486C77.2671 162.241 75.6291 162.857 75.8121 163.333L74.6337 162.996L74.5279 163.015C74.669 162.99 74.7757 163.134 74.848 163.448L73.8403 163.136C73.6095 163.249 73.5223 163.428 73.5785 163.672L71.8256 163.709C68.2595 164.955 66.152 165.762 65.503 166.131C65.0446 166.212 64.8073 166.217 64.7912 166.148C56.1272 169.636 49.4004 173.092 44.6109 176.514C38.0153 181.018 33.0434 185.162 29.6952 188.948C27.8093 190.479 25.5913 192.958 23.0412 196.385C22.0864 197.498 20.798 198.197 19.1759 198.483L18.4882 198.604L17.3379 196.955L17.056 195.97L17.0152 196.032C16.8741 196.056 16.7393 195.79 16.6108 195.231L16.4615 194.822C16.4213 194.647 16.4789 194.419 16.6342 194.138C16.7752 194.113 16.7654 193.752 16.6047 193.054C16.9221 192.998 17.0341 192.688 16.9408 192.123C17.2582 192.067 17.5528 191.434 17.8246 190.224C17.8246 190.224 17.7644 189.963 17.6439 189.439C18.1067 188.74 18.3382 188.391 18.3382 188.391C18.5404 188.791 18.4828 189.019 18.1654 189.075C18.2752 187.639 18.4703 186.734 18.7506 186.357C19.4273 183.878 19.9083 182.54 20.1935 182.345L20.4078 182.797L21.0425 182.685C21.1099 182.819 20.7733 182.951 20.0328 183.081L19.5849 181.853C20.1491 181.753 20.481 181.84 20.5805 182.113L21.2681 181.992C21.3355 182.125 21.0166 182.254 20.3113 182.378L19.9431 181.735L20.8865 178.9L20.7057 178.115L21.7663 178.418C21.6605 178.437 21.6573 178.583 21.7569 178.856C21.4395 178.911 21.1844 178.521 20.9916 177.683C21.3089 177.627 21.4674 177.2 21.467 176.401C21.9205 176.14 22.1472 176.009 22.1472 176.009L21.6029 174.362C22.6911 173.989 23.1236 173.477 22.9005 172.826C22.7527 172.344 23.0335 171.332 23.7427 169.791L23.9543 169.753L24.0025 169.963C24.0347 170.102 23.9978 170.181 23.8921 170.2C23.5613 169.242 23.678 168.713 24.2422 168.613L24.2784 168.77L23.7635 168.208L25.3108 166.083C25.4697 166.454 25.4434 166.659 25.2318 166.696L25.7936 165.072L26.5435 164.504L25.8029 164.634L25.6342 163.902C26.2489 162.268 26.8206 161.405 27.3496 161.312C27.417 161.445 27.3096 161.536 27.0275 161.586L27.0684 161.525L27.0563 161.472L26.5655 161.014C26.9338 160.223 27.1179 159.827 27.1179 159.827L27.053 159.784C27.9305 158.177 28.293 157.042 28.1403 156.379C28.3519 156.342 28.5224 155.967 28.6519 155.254L29.4767 155.49L29.1594 155.546L29.2317 155.86L28.7938 155.392C28.8978 155.047 28.7933 154.594 28.4804 154.032L29.529 154.282L29.5578 154.168L29.0549 153.658L30.3143 152.673L30.471 153.354L29.7834 153.475L29.5377 152.647C29.9608 152.572 30.2222 152.671 30.3217 152.944C30.1454 152.975 29.9889 152.694 29.8524 152.101L30.7777 151.339C30.9125 151.606 30.8565 151.761 30.6096 151.804L30.552 152.032L30.2487 151.432C30.1907 150.861 30.5496 150.508 31.3254 150.371C31.3575 150.51 31.1444 150.621 30.6859 150.701L30.4235 150.04L30.9477 150.165C30.8884 150.067 30.958 149.891 31.1566 149.638C31.0187 149.517 30.8935 149.212 30.781 148.724L31.5215 148.593L31.4037 148.56L31.6086 149.449L31.3441 149.496C31.2312 148.209 31.3158 147.54 31.5979 147.491L31.237 147.118C31.6954 147.038 31.9744 147.134 32.0739 147.407L32.2855 147.369C27.3527 149.692 21.8458 151.752 15.7649 153.55C10.3955 154.933 7.41351 155.767 6.81895 156.054C6.49667 155.929 6.2121 155.888 5.96526 155.932L5.75368 155.969C5.89473 155.944 5.98535 156.019 6.02552 156.194C3.58253 156.261 2.21173 155.886 1.9131 155.067L1.94189 154.953C1.60041 154.904 1.27233 154.435 0.957632 153.547L0.861213 153.128C0.732655 152.57 0.968114 152.238 1.56759 152.132C1.84657 152.228 1.96843 152.279 1.93317 152.286L1.8247 151.814L2.88528 152.118C2.6737 152.155 2.53175 152.017 2.45944 151.703L3.40218 151.972C3.55439 151.836 3.96549 151.709 4.6355 151.591L4.67165 151.748C5.43138 151.542 5.77352 151.354 5.69808 151.186C6.40335 151.062 6.78566 151.049 6.84503 151.147C14.1329 149.172 18.829 147.654 20.9332 146.593L20.9934 146.855C24.9777 145.354 28.1798 143.881 30.5995 142.438C33.4411 141.392 34.7046 140.425 34.3899 139.536C35.1639 139.073 37.5325 133.663 41.4958 123.305L42.0247 123.212L41.854 123.188C41.6228 122.502 41.6442 122.117 41.9183 122.032L41.9303 122.085L41.5955 121.109C42.0187 121.034 42.432 120.598 42.8355 119.801C43.3645 119.708 43.8104 118.776 44.1733 117.005L44.409 117.072L44.5777 117.805C44.4639 117.789 44.072 117.84 43.402 117.958C43.9224 117.031 44.0952 116.347 43.9202 115.906L44.7136 115.766L44.8315 115.8C44.8953 115.28 45.3077 114.681 46.0688 114.002C45.7702 113.183 45.903 112.724 46.4672 112.625L46.2456 111.901L46.9754 109.812L47.7882 109.995C47.6824 110.014 47.6793 110.16 47.7788 110.433L47.2499 110.526C47.1628 109.67 47.4543 109.183 48.1243 109.064C48.1917 109.198 48.1196 109.283 47.908 109.32C47.9817 109.162 47.9888 109.034 47.9295 108.935L47.5103 107.593L48.6767 107.878C48.6767 107.878 50.801 104.035 55.0495 96.3509L54.9725 96.2556L54.3806 95.5974L55.64 94.6128C55.7123 94.9268 55.5193 95.1243 55.0608 95.2051L54.8031 94.3246L55.2744 94.4594C55.2825 94.4943 55.7728 94.1536 56.7454 93.4375C60.4213 87.8874 63.3309 83.8703 65.4744 81.3863C67.6531 78.8961 70.8221 75.6866 74.9814 71.7579C79.1406 67.8291 83.3265 65.5297 87.5389 64.8595ZM66.9414 86.0841L63.9686 88.9503L64.4185 89.4701C63.5932 89.8698 62.9866 90.1039 62.5987 90.1723C62.5665 90.0327 62.7621 89.9256 63.1852 89.851C63.2495 90.1301 63.1053 90.3008 62.7527 90.363L62.4494 89.7629L62.9783 89.6696L63.1953 90.6117L62.5029 90.9517C62.3168 90.6214 62.4177 90.422 62.8056 90.3537C62.6248 91.0028 62.6315 91.51 62.8257 91.8752L61.9794 92.0244L62.1501 92.0488C62.126 91.9441 61.4964 92.6361 60.2613 94.1247C60.1568 93.6711 60.2809 93.4132 60.6336 93.351C60.6514 93.7473 60.4497 94.146 60.0283 94.5471C60.1841 95.0643 60.0216 95.4742 59.5409 95.7768L59.7337 96.6143L59.3152 96.4702C59.3715 96.7145 58.8309 97.5542 57.6936 98.9893L57.6815 98.9369C57.7297 99.1463 57.2372 99.796 56.2038 100.886C56.1333 100.898 54.8844 103.442 52.457 108.518L52.3512 108.537L52.214 108.18L52.919 109.09C52.3548 109.19 51.8276 109.61 51.3375 110.35C51.1036 110.609 51.0302 111.166 51.1173 112.023C50.5178 112.128 49.9989 112.982 49.5605 114.585C49.6088 114.794 49.1162 115.444 48.0828 116.534C47.94 116.232 48.0802 116.044 48.5033 115.969L48.3661 115.612L48.8281 116.184C47.9103 117.617 47.5396 118.318 47.7159 118.287L47.6389 118.191L47.8077 118.924C47.4198 118.993 47.3158 119.338 47.4957 119.96L46.9593 119.782L46.7545 118.892L46.966 118.855C47.183 119.797 46.9703 120.706 46.328 121.582C45.9401 121.65 45.9146 122.018 46.2516 122.684L46.0401 122.722L46.17 122.808C45.4058 123.632 45.1433 124.405 45.3826 125.125L44.9112 124.99C45.0268 125.333 44.6889 125.937 43.8975 126.803C44.0131 127.146 43.8884 127.64 43.5232 128.285L43.7978 128.999C43.4099 129.068 42.9374 129.805 42.3803 131.21C41.9322 132.451 41.5815 133.239 41.3285 133.574L39.9003 133.826C39.8329 133.693 40.1694 133.561 40.91 133.43L41.2327 134.354L40.983 134.942C40.8772 134.961 40.9046 135.319 41.0653 136.017C40.748 136.073 40.4741 136.557 40.2438 137.469L39.3446 137.628C39.3124 137.488 39.4727 137.387 39.8253 137.325C39.7392 138.067 39.6432 138.447 39.5374 138.465L39.1645 138.041C41.9529 136.605 44.4368 135.042 46.6159 133.35C51.3385 130.593 54.0634 128.642 54.7905 127.497L54.9231 128.073C62.7797 122.512 69.0846 117.224 73.838 112.21C79.077 107.074 83.8498 100.949 88.1564 93.8357C91.2091 89.0854 93.4032 84.0325 94.7387 78.6772C95.1101 74.8717 95.0806 72.3533 94.6503 71.122C93.2062 68.8348 91.6027 67.8467 89.8395 68.1576C89.3489 68.0989 88.4865 68.1783 87.2523 68.3959C82.1811 69.7985 75.4108 75.6945 66.9414 86.0841ZM62.507 89.5348L62.5692 89.0881L61.8287 89.2187L61.7664 89.6654L62.507 89.5348ZM94.3604 85.879L94.2111 85.4696L93.5764 85.5815L93.7257 85.9909L94.3604 85.879ZM60.3925 92.3042L60.2479 91.6761L59.8247 91.7507L59.9694 92.3788L60.3925 92.3042ZM59.2442 94.2496L59.1478 93.8309C58.8657 93.8806 58.7568 94.0451 58.8211 94.3242L59.2442 94.2496ZM92.0739 90.5306L92.0016 90.2165C91.7548 90.26 91.6425 90.1709 91.6648 89.9491L91.7371 90.2631C91.984 90.2196 92.0962 90.3088 92.0739 90.5306ZM57.1104 96.6956C56.8876 96.8438 56.822 97.0369 56.9135 97.275L57.0722 97.247C57.0369 97.2532 57.0497 97.0694 57.1104 96.6956Z" fill="#EB838B"/>
<path d="M126.949 110.035L127.213 109.988L127.334 110.512L127.069 110.558L126.949 110.035ZM127.954 109.858L128.218 109.811L128.447 110.806L128.923 110.722L128.983 110.983L128.676 111.8L128.941 111.753C128.9 111.579 128.951 111.479 129.092 111.454L129.152 111.716L129.049 112.224C129.19 112.2 129.281 112.274 129.321 112.449C128.968 112.511 128.525 113.533 127.99 115.516C127.567 115.59 127.165 115.915 126.784 116.491L126.207 116.375C126.432 117.352 126.209 117.899 125.539 118.018C125.66 118.541 123.709 121.463 119.687 126.784C117.505 129.42 115.268 130.94 112.976 131.344L112.711 131.391C110.066 131.857 108.326 130.276 107.491 126.647C107.808 125.792 107.942 125.26 107.894 125.051L108.418 125.176C108.354 124.897 108.418 124.377 108.609 123.617L108.345 123.664C108.425 124.013 108.289 124.218 107.937 124.281L107.816 123.757L108.176 122.931L108.068 122.46C102.304 132.009 97.9408 137.045 94.9787 137.568L94.7143 137.614C92.5279 138 91.0672 137.313 90.332 135.555L89.6872 134.906L89.5185 134.173C88.727 129.302 90.8504 122.428 95.8885 113.551C99.1046 108.554 102.352 105.766 105.632 105.188C109.444 105.968 111.664 107.719 112.291 110.441C112.311 111.962 112.056 112.77 111.527 112.863C109.909 111.732 108.915 110.364 108.546 108.759C107.688 108.22 106.695 108.051 105.566 108.25C103.944 108.536 101.338 111.482 97.7492 117.09C97.9256 117.059 98.0338 117.13 98.074 117.305C97.7919 117.355 97.2544 118.049 96.4617 119.387L96.7262 119.34C96.0075 121.319 95.3837 122.354 94.8548 122.448L94.915 122.709C94.9552 122.884 95.0635 122.956 95.2398 122.925C94.8769 124.695 94.3075 125.649 93.5317 125.786L93.592 126.047L94.121 125.954L94.1692 126.163C93.7813 126.232 93.4588 127.142 93.2017 128.894C93.378 128.863 93.4862 128.935 93.5264 129.109C93.209 129.165 93.0948 129.784 93.1836 130.967L92.6473 130.789L92.7076 131.051C92.9209 131.34 93.0477 131.572 93.0879 131.746L92.6721 132.092C92.6319 131.917 92.5237 131.846 92.3473 131.877L92.4076 132.139C92.5839 132.107 92.6881 132.162 92.7203 132.301L92.4558 132.348C92.496 132.522 92.6042 132.594 92.7805 132.563L92.8053 133.866L93.1428 135.331C95.0823 134.989 98.0549 131.724 102.061 125.534C106.31 118.649 109.016 115.103 110.18 114.898L110.708 114.805C110.955 114.761 111.562 115.163 112.527 116.009L112.816 117.265C112.583 118.323 112.36 118.871 112.149 118.908C112.109 118.734 112.018 118.659 111.877 118.684L112.209 119.17L111.902 119.987L112.07 120.719C111.625 121.016 111.491 121.548 111.667 122.315L111.078 122.147L111.138 122.409L111.403 122.362C111.176 123.927 110.939 124.731 110.692 124.775L111.025 125.261L111.085 125.523C110.591 125.61 110.401 125.898 110.513 126.386C110.762 126.669 110.906 126.898 110.946 127.072C110.602 127.169 110.462 127.357 110.526 127.637L110.815 128.893L112.085 128.669L112.5 128.323L112.561 128.585C114.113 127.839 115.738 126.609 117.435 124.893C118.233 123.736 119.229 122.326 120.424 120.663C121.045 119.536 121.727 118.672 122.469 118.069C122.501 118.208 122.605 118.263 122.781 118.232L122.408 117.807L122.348 117.545L123.353 117.368C123.313 117.194 123.205 117.122 123.028 117.153C122.94 116.769 123.906 115.147 125.926 112.285C126.291 111.64 126.441 111.177 126.377 110.898L126.906 110.805L127.442 110.983C127.36 110.307 127.53 109.932 127.954 109.858ZM127.78 112.448L127.9 112.972L128.165 112.925L128.044 112.402L127.78 112.448ZM124.094 117.238L124.154 117.499C124.648 117.412 124.931 117.526 125.003 117.84L125.267 117.793L125.219 117.584C124.962 117.266 124.814 117.02 124.774 116.845C124.497 117.076 124.27 117.207 124.094 117.238ZM108.38 122.623L108.501 123.146L108.713 123.109L108.592 122.585L108.38 122.623Z" fill="#EB838B"/>
<path d="M142.992 102.74L143.822 102.757C143.798 102.652 143.839 102.59 143.945 102.572C143.961 102.642 144.138 102.774 144.476 102.968L144.573 103.387C144.89 103.331 145.446 103.832 146.24 104.89C146.098 106.186 145.758 107.499 145.22 108.828C145.153 109.494 144.908 109.864 144.485 109.938L144.326 109.966L144.557 110.252L144.666 110.724C144.348 110.779 144.165 111.338 144.116 112.4C143.693 112.475 143.501 112.599 143.542 112.774L143.859 112.718L143.65 113.245C143.674 113.349 143.739 113.392 143.845 113.374C143.8 113.817 143.69 114.055 143.513 114.086L143.441 113.772L143.282 113.8C143.331 114.009 143.302 114.123 143.196 114.142L143.427 114.428C143.355 114.913 142.972 115.561 142.279 116.373L142.56 116.16L142.877 116.104L142.914 116.261C142.962 116.471 142.88 116.594 142.668 116.631C142.644 116.527 142.579 116.484 142.474 116.502L142.693 116.736L142.765 117.05L142.289 117.134L142.52 117.42L142.311 117.947C142.417 117.928 142.482 117.971 142.506 118.076C142.224 118.126 142.115 118.29 142.179 118.569C142.25 118.557 142.297 118.603 142.321 118.708C142.153 118.774 142.089 118.894 142.129 119.068L142.237 119.54C144.58 117.601 146.308 115.862 147.421 114.323L147.959 113.792L150.461 110.791C150.485 110.896 150.55 110.939 150.656 110.92C151.226 109.73 152.182 108.545 153.525 107.364C154.101 106.681 154.362 106.218 154.305 105.974L154.659 106.075C155.163 105.078 155.535 104.54 155.774 104.462L155.81 104.619C155.938 105.177 155.371 106.221 154.109 107.751L154.268 107.723L155.059 107.094L155.412 107.195C155.324 106.811 155.385 106.6 155.597 106.563L155.756 106.535L155.852 106.954L156.011 106.926C155.874 106.333 155.912 106.017 156.123 105.98L156.195 106.294L156.301 106.275C156.205 105.857 156.368 105.61 156.791 105.535L156.828 105.692C156.807 106.241 156.709 106.53 156.532 106.561L156.751 106.795C156.439 107.831 156.142 108.373 155.86 108.423L156.091 108.709C155.896 108.816 155.745 108.879 155.639 108.898L155.87 109.184C155.718 109.319 155.518 109.409 155.271 109.453L155.502 109.739C155.264 109.817 155.077 110.122 154.943 110.654C154.802 110.679 154.553 111.032 154.196 111.712C150.99 115.799 148.904 118.291 147.936 119.188C146.57 121.063 145.027 122.334 143.309 123C141.511 123.317 140.311 122.73 139.711 121.238L139.87 121.21C139.416 120.673 139.141 120.195 139.044 119.776C138.835 118.869 139.778 115.471 141.871 109.582L141.712 109.61C141.752 109.785 140.837 110.908 138.966 112.981L135.508 117.567C134.954 118.028 133.534 119.749 131.248 122.73C130.405 123.532 129.807 123.964 129.455 124.027L128.238 124.241C127.18 124.428 126.269 123.735 125.503 122.163L125.662 122.135C125.378 121.859 125.204 121.581 125.139 121.302C125.115 121.197 125.156 121.135 125.262 121.117L125.031 120.831C124.866 118.681 124.942 117.179 125.259 116.324C125.154 116.343 125.089 116.3 125.064 116.195C125.422 115.515 125.749 114.15 126.048 112.1C125.887 111.402 126.093 110.622 126.665 109.758C126.96 109.924 127.178 109.994 127.319 109.97L127.355 110.127L127.309 110.407L127.415 110.388C127.391 110.284 127.432 110.222 127.538 110.203C128.041 110.478 128.67 111.057 129.424 111.94C129.269 113.021 129.145 113.678 129.052 113.912L128.894 113.94L129.125 114.226C128.984 114.251 128.873 114.489 128.793 114.938L129.024 115.224C128.952 115.709 128.815 115.988 128.611 116.06L128.789 116.355L128.388 117.243C128.534 117.399 128.619 117.529 128.643 117.634C128.299 118.53 128.142 119.52 128.171 120.604C129.237 119.653 130.123 118.644 130.831 117.575L131.737 116.489C131.631 116.508 131.567 116.465 131.542 116.36C132.092 115.718 132.437 115.385 132.578 115.36L133.571 113.933C133.595 114.037 133.66 114.08 133.765 114.062C134.603 113.079 134.998 112.483 134.95 112.273L134.914 112.116L135.214 112.227C136.329 110.215 137.839 108.405 139.744 106.798C140.604 105.594 141.157 104.97 141.404 104.926L142.238 103.526C142.837 103.421 143.089 103.158 142.992 102.74ZM136.58 112.422L136.616 112.579L136.934 112.523L136.898 112.366L136.58 112.422ZM143.568 112.17L143.604 112.327L143.921 112.271L143.885 112.114L143.568 112.17ZM143.102 113.015L143.138 113.172L143.455 113.116L143.419 112.959L143.102 113.015ZM152.525 112.824L152.585 113.085L152.744 113.057L152.684 112.796L152.525 112.824ZM141.769 116.79L142.351 116.687C142.303 116.478 142.173 116.392 141.961 116.429C141.793 116.495 141.729 116.615 141.769 116.79Z" fill="#EB838B"/>
<path d="M179.642 68.2816L181.229 68.0018C182.77 68.6378 183.665 69.4967 183.914 70.5785L184.011 70.9972C183.253 78.0661 181.125 85.7944 177.625 94.182C177.381 95.3508 176.312 97.8812 174.419 101.773C174.468 101.983 174.021 102.751 173.079 104.08C172.017 105.683 171.591 106.938 171.799 107.845C172.555 111.125 175.319 111.655 180.091 109.433C180.514 109.359 182.076 107.613 184.775 104.196L188.819 99.2889L188.867 99.4982L187.539 101.857L188.01 101.991L188.438 101.698L188.534 102.117L189.01 102.033C188.906 101.579 188.995 101.328 189.277 101.278L188.969 100.896L188.921 100.687L189.344 100.612L189.392 100.822C189.492 101.894 189.558 102.499 189.59 102.639L190.333 101.8L190.393 102.061C189.781 102.75 189.495 103.182 189.535 103.356C189.568 103.496 189.32 103.776 188.793 104.195C188.761 104.056 188.656 104.002 188.48 104.033C188.689 104.94 187.834 106.325 185.914 108.189C184.734 110.394 182.73 112.127 179.901 113.389C177.064 114.615 173.937 113.623 170.519 110.413C170.166 109.677 169.849 109.333 169.567 109.383C163.636 118.526 158.872 123.415 155.275 124.049L155.01 124.096C152.154 124.599 150.417 123.508 149.798 120.821L149.586 120.858L149.683 121.277L149.418 121.323C149.386 121.184 149.267 120.987 149.062 120.733C149.379 120.677 149.502 120.492 149.43 120.178C149.112 120.234 148.917 120.105 148.845 119.791C148.664 117.571 149.331 114.966 150.844 111.976C155.835 104.488 159.858 100.129 162.914 98.9001C162.882 98.7605 162.937 98.6783 163.078 98.6534L163.602 98.7789L163.977 98.4949C165.176 98.2835 166.616 98.7195 168.296 99.803C168.453 96.9793 168.78 95.2879 169.275 94.7285L169.383 95.1996C169.116 95.7914 168.917 96.6798 168.786 97.8648C168.962 97.8337 169.066 97.888 169.098 98.0276C168.64 98.1084 168.499 98.5326 168.676 99.3003L169.099 99.2257C168.906 98.3882 170.588 91.4287 174.144 78.347C174.771 76.1303 176.159 73.2349 178.309 69.6605L179.642 68.2816ZM179.323 69.0459C178.876 69.8146 178.661 70.2339 178.677 70.3037L178.889 70.2664L179.535 69.0086L179.323 69.0459ZM181.58 70.7178L181.688 71.1889C182.005 71.1329 182.128 70.9479 182.056 70.6339L181.58 70.7178ZM179.931 72.6425L179.407 72.517C179.527 73.0404 179.386 73.4647 178.984 73.7898L177.589 76.8136C177.758 77.5464 177.454 77.9812 176.678 78.118L177.051 78.5424C176.665 78.9373 175.183 84.3729 172.605 94.8494C172.746 94.8245 172.833 94.8818 172.865 95.0214C172.547 95.0774 172.207 95.9907 171.844 97.7613C171.985 97.7364 172.076 97.8112 172.116 97.9857L171.693 98.0603L171.85 98.7407C175.432 88.9587 177.888 81.9353 179.217 77.6703L179.641 77.5957L179.857 78.5378C180.767 77.0702 181.391 74.9994 181.729 72.3253L181.633 71.9066L181.421 71.9439C181.534 72.4324 181.441 73.0661 181.144 73.8448L180.932 73.8821L180.836 73.4634L181.313 71.4729L181.217 71.0541L181.005 71.0914C180.169 71.602 179.811 72.119 179.931 72.6425ZM177.403 71.9443L177.3 72.4527L177.512 72.4154L177.615 71.907L177.403 71.9443ZM177.084 72.7087L176.969 73.1648L177.181 73.1274L177.349 72.6621L177.084 72.7087ZM182.519 73.6023L182.567 73.8116L182.99 73.737L182.942 73.5277L182.519 73.6023ZM175.955 74.9775L175.852 75.4859L176.064 75.4486L176.22 74.9309L175.955 74.9775ZM180.238 74.9304L180.661 74.8558L180.721 75.1175L180.298 75.1921L180.238 74.9304ZM179.647 76.6686L179.912 76.6219L180.02 77.093L179.756 77.1396L179.647 76.6686ZM181.655 77.0226L181.703 77.2319L182.127 77.1573L181.982 76.5292C181.708 76.6138 181.599 76.7783 181.655 77.0226ZM181.764 77.4936L181.444 78.258L181.92 78.1741C181.88 77.9996 181.898 77.7603 181.975 77.4563L181.764 77.4936ZM179.482 78.8218C179.829 79.0512 179.97 79.0263 179.906 78.7472L179.482 78.8218ZM172.919 80.197L173.183 80.1504L173.292 80.6214L173.027 80.6681L172.919 80.197ZM175.388 92.8335C174.657 95.3953 175.934 91.539 179.219 81.2647C179.182 80.1457 178.717 81.1536 177.824 84.2885C176.923 87.3885 176.111 90.2369 175.388 92.8335ZM172.388 80.9987L172.864 80.9147C172.936 81.2288 172.814 81.4138 172.496 81.4698L172.388 80.9987ZM173.119 98.5169L173.591 98.6516L173.119 98.5169ZM176.188 96.0693L176.249 96.3311L176.672 96.2564L176.612 95.9947L176.188 96.0693ZM173.28 97.7805L173.328 97.9898L173.54 97.9525C173.751 97.9152 173.983 97.5658 174.234 96.9042L174.022 96.9415C173.471 97.2565 173.224 97.5362 173.28 97.7805ZM190.187 99.9735L190.399 99.9362L190.508 100.407C190.572 100.686 190.445 100.854 190.128 100.91C190.096 100.77 189.973 100.556 189.76 100.267L190.187 99.9735ZM187.111 102.15L187.159 102.359C187.335 102.328 187.444 102.4 187.484 102.574C187.308 102.606 187.235 102.691 187.268 102.83L187.532 102.784C187.814 102.734 187.919 102.552 187.847 102.238C187.706 102.263 187.46 102.234 187.111 102.15ZM185.626 103.828C184.423 105.456 183.837 106.34 183.87 106.48L184.081 106.442C185.316 104.954 185.902 104.07 185.837 103.791L185.626 103.828ZM152.406 115.895C152.447 116.069 152.555 116.141 152.731 116.11C152.027 117.832 151.755 119.041 151.916 119.739L152.229 121.1L153.34 120.904C155.51 120.449 158.2 118.105 161.408 113.872C163.56 111.423 165.438 108.985 167.045 106.56C167.95 105.71 168.206 104.43 167.812 102.721C167.571 101.674 166.463 101.324 164.489 101.673C163.889 101.778 162.348 102.976 159.867 105.265C157.75 107.708 156.153 109.933 155.073 111.939C154.721 112.001 154.19 112.802 153.48 114.344C153.269 114.381 152.999 114.882 152.671 115.848L152.406 115.895Z" fill="#EB838B"/>
<path d="M201.775 91.0131L202.568 90.8732C203.344 90.7364 203.988 91.222 204.5 92.33C204.359 92.3549 204.3 92.4196 204.324 92.5243C204.536 92.487 204.802 92.7669 205.123 93.3639C204.982 93.3887 204.928 93.471 204.96 93.6105L205.171 93.5732C205.297 95.0761 205.213 96.144 204.918 96.7769C204.967 96.9863 204.898 97.3252 204.712 97.7937C204.853 97.7688 204.94 97.8261 204.972 97.9657C204.367 99.1618 203.993 100.408 203.851 101.704C203.136 104.335 202.637 105.676 202.355 105.726C202.379 105.83 202.462 105.87 202.603 105.845L202.488 106.301L202.524 106.458L202.947 106.384L202.651 106.055C205.13 101.841 206.927 98.9646 208.04 97.4248C207.984 97.1805 208.449 96.5719 209.436 95.5991C209.339 95.1804 210.323 93.9539 212.387 91.9197C212.422 91.9135 212.653 91.8002 213.079 91.5798C214.064 92.3503 214.656 93.1717 214.857 94.044L214.646 94.0813L215.185 94.7488C215.166 96.4223 214.895 97.7955 214.372 98.8682L214.615 99.2066C214.25 99.852 214.075 100.21 214.091 100.279L214.303 100.242L213.986 101.496C214.092 101.477 214.161 101.538 214.193 101.677C213.791 102.003 213.576 103.62 213.549 106.53C213.408 106.555 213.35 106.619 213.374 106.724L213.585 106.687C213.524 107.06 213.519 107.915 213.57 109.249C213.785 109.865 214.245 110.111 214.95 109.986L215.321 109.921C216.484 109.716 219.827 105.985 225.349 98.7301C225.807 98.6493 226.604 97.728 227.74 95.9664C227.764 96.0711 227.829 96.1141 227.934 96.0955L227.898 95.9385C227.792 95.9571 227.723 95.8967 227.691 95.7571C228.185 95.67 228.376 95.3822 228.263 94.8937L228.722 94.9761C229.227 93.9794 229.675 93.374 230.066 93.1598L230.362 93.4889C230.426 93.768 230.335 93.9294 230.088 93.9729C230.056 93.8333 229.969 93.7759 229.828 93.8008L229.876 94.0102C230.017 93.9853 230.1 94.0252 230.124 94.1299L230.458 93.9076L230.828 93.8423L230.913 94.2087C230.515 94.7145 230.369 95.1942 230.473 95.6478C230.262 95.6851 229.962 96.1373 229.575 97.0045C229.942 96.6856 230.302 96.4951 230.654 96.4329L230.813 96.4049C230.885 96.719 230.64 97.089 230.078 97.515C230.046 97.3754 229.959 97.318 229.818 97.3429L230.126 97.7243L230.162 97.8813L229.58 97.9839C229.556 97.8793 229.615 97.8145 229.756 97.7896C229.558 97.5702 229.444 97.3907 229.411 97.2512C228.849 97.6771 228.588 97.9774 228.628 98.1518L228.676 98.3612L228.998 98.0865L229.58 97.9839L229.628 98.1933C229.649 98.4438 228.56 100.088 226.361 103.127C226.329 102.987 226.26 102.927 226.154 102.945C222.299 108.672 219.476 112.111 217.686 113.262L217.28 113.17C217.139 113.195 217.08 113.26 217.104 113.365C214.742 113.781 213.086 112.966 212.138 110.918L211.418 109.465C211.386 109.326 211.44 109.244 211.581 109.219L211.068 107.947C210.767 106.003 210.793 105 211.146 104.938C210.984 104.712 210.887 104.53 210.855 104.39C211.062 102.901 211.277 102.083 211.5 101.934L211.204 101.605L211.943 97.8804L211.822 97.357C211.374 97.7992 210.655 98.979 209.665 100.896C208.391 102.537 207.247 104.5 206.232 106.785C205.95 106.835 205.122 108.179 203.748 110.818C202.645 112.719 201.934 113.697 201.617 113.753C201.394 113.902 201.212 113.988 201.071 114.013L201.035 113.856L200.701 114.078L200.295 113.987L200.331 114.144C199.499 114.036 198.994 113.599 198.817 112.831L198.781 112.674C198.749 112.534 198.804 112.452 198.945 112.427L198.305 111.56C198.131 110.646 198.793 108.024 200.291 103.693L200.831 102.454L200.99 102.426C200.958 102.286 200.889 102.226 200.783 102.245C201.178 100.614 201.442 99.7682 201.575 99.7084L201.883 100.09L201.756 100.494L201.968 100.456C202.142 100.099 202.221 99.885 202.205 99.8152C202.064 99.8401 201.978 99.7827 201.946 99.6432L202.369 99.5685L202.284 99.2021L201.703 99.3047L201.618 98.9384C202.365 96.4464 202.707 95.0608 202.643 94.7817L202.272 94.847C202.312 95.0214 201.724 95.6518 200.506 96.7379L200.602 97.1567L200.184 97.0126C200.24 97.2568 199.668 97.957 198.466 99.1129C198.522 99.3572 197.674 100.614 195.922 102.884C195.425 103.916 195.089 104.447 194.913 104.478C192.948 108.056 191.985 109.932 192.025 110.107C190.832 112.097 189.627 114.669 188.409 117.825C187.651 118.358 187.113 118.653 186.796 118.709L186.425 118.774L186.019 118.682C186.043 118.787 185.985 118.852 185.844 118.877L185.045 118.037L185.009 117.88C184.976 117.741 185.031 117.658 185.172 117.634C185.084 117.25 184.845 117.092 184.458 117.16C184.2 116.044 184.804 112.052 186.269 105.185C186.85 101.815 187.178 100.05 187.251 99.8921L187.463 99.8548L187.415 99.6454C187.391 99.5407 187.308 99.5008 187.167 99.5257C187.514 97.6853 187.776 96.5134 187.954 96.01L188.165 95.9727C189.559 96.9253 190.328 97.7156 190.473 98.3437C190.367 98.3623 190.085 100.246 189.627 103.994L189.252 104.278L189.548 104.607C189.044 106.402 188.768 107.831 188.719 108.893C189.897 107.16 191.218 104.766 192.68 101.713C192.821 101.688 193.268 101.082 194.023 99.8964C195.099 98.0363 196.863 95.8189 199.316 93.244L199.723 93.3358C199.586 92.7426 199.938 92.281 200.78 91.9511L201.775 91.0131ZM202.067 98.26L202.037 99.0824C202.251 98.8993 202.429 98.7953 202.57 98.7705C202.373 98.5511 202.258 98.3716 202.226 98.232L202.067 98.26ZM201.539 99.5514L201.909 99.4861L201.946 99.6432L201.575 99.7084L201.539 99.5514ZM209.104 99.4158L209.14 99.5728L209.51 99.5076L209.474 99.3505L209.104 99.4158ZM208.563 100.655L208.612 100.864L209.035 100.79L208.987 100.58L208.563 100.655ZM195.018 103.261L194.89 103.665L195.102 103.628L195.229 103.224L195.018 103.261ZM230.515 92.4814L230.726 92.4441C230.775 92.6535 230.625 92.8796 230.277 93.1225L230.241 92.9654C230.212 92.6801 230.303 92.5187 230.515 92.4814ZM193.489 104.511L193.573 104.878C193.831 104.723 194.013 104.637 194.119 104.618L194.071 104.409L193.489 104.511ZM200.714 103.618L200.811 104.037L200.969 104.009L200.873 103.59L200.714 103.618ZM231.5 95.0855L231.711 95.0482L231.76 95.2576C231.8 95.4321 231.555 95.8021 231.024 96.3676L230.813 96.4049L230.728 96.0385C230.905 96.0075 231.162 95.6898 231.5 95.0855ZM227.893 99.2618L227.941 99.4712L228.311 99.4059L228.263 99.1966L227.893 99.2618Z" fill="#EB838B"/>
<path d="M236.711 78.7527L236.848 79.1098C236.956 79.4176 236.798 79.6088 236.375 79.6834L236.464 79.8311L236.781 79.7752L236.748 80.1079C236.853 80.0892 237.024 80.1136 237.26 80.1809C237.168 79.9429 237.397 79.7392 237.945 79.57L238.229 79.8467C238.123 79.8654 238.082 79.927 238.106 80.0317L238.265 80.0037C238.217 79.7944 238.281 79.6741 238.457 79.6431C238.541 79.8462 238.688 79.9291 238.9 79.8918L239.203 80.4919C238.195 81.2143 236.842 82.6693 235.144 84.8569C235.26 85.1996 234.866 85.5596 233.962 85.9368L233.803 85.9648C233.348 85.8998 232.94 85.6449 232.581 85.1999L232.862 84.9869L232.011 84.1567L231.922 84.009C231.393 82.8312 232.99 81.0791 236.711 78.7527ZM229.246 89.6006L229.563 89.5446C229.669 89.526 229.752 89.5659 229.811 89.6643L230.039 89.4607L230.251 89.4234C230.326 89.5916 230.776 89.9482 231.598 90.493C231.457 90.5179 231.434 90.5764 231.529 90.6687L232.426 91.2186C232.498 91.5326 232.371 91.9363 232.044 92.4296C232.187 92.7313 232.04 93.8465 231.604 95.7753C230.294 99.492 229.957 103.128 230.593 106.683L230.751 106.655L230.696 107.373C231.114 108.389 231.922 108.791 233.121 108.58L233.21 108.727L233.491 108.514L233.796 108.406C233.902 108.387 233.985 108.427 234.044 108.526L234.273 108.322L234.679 108.414C237.655 106.836 239.968 105.248 241.618 103.65C243.168 102.251 246.109 98.6098 250.442 92.726L250.848 92.8177C250.689 92.4463 251.076 91.8153 252.008 90.9247L252.539 90.123L252.893 90.2241C253.21 90.1681 253.281 89.9195 253.106 89.4783L253.46 89.5794L253.176 89.3027C253.128 89.0933 253.192 88.9731 253.368 88.942L253.527 88.914L254.078 89.6338L254.114 89.7908L253.761 89.6898C253.836 89.858 253.818 90.0973 253.706 90.4075L253.795 90.5552C254.243 90.113 254.62 89.52 254.926 88.7762L255.085 88.7482L255.051 89.0809L255.21 89.0529C255.151 88.9545 255.174 88.8959 255.28 88.8772L255.617 89.1447C255.307 89.2355 255.153 89.4442 255.155 89.7707C254.908 89.8142 254.731 90.0814 254.624 90.5723C254.307 90.6283 254.19 90.7579 254.273 90.961C254.379 90.9424 254.462 90.9823 254.521 91.0807L253.764 91.3777C253.891 91.6095 254.038 91.6924 254.206 91.6264L254.081 91.3217L254.24 91.2937C254.346 91.2751 254.428 91.315 254.488 91.4134L255.437 90.7558L255.088 90.4361C255.194 90.4174 255.446 90.1552 255.843 89.6494L255.968 89.9541L256.127 89.9262C255.868 89.2818 256.227 88.9281 257.203 88.8649C257.027 88.8959 256.804 89.0441 256.535 89.3095L256.819 89.5862L256.908 89.7339L256.307 89.5131L256.444 89.8702L256.749 89.7619C256.735 90.0186 256.74 90.1993 256.764 90.304L256.288 90.3879L255.935 90.2868L255.901 90.6195L256.377 90.5356C256.453 90.7038 256.369 90.9001 256.127 91.1243L255.937 90.7766L255.779 90.8045C255.618 90.9054 255.576 91.04 255.651 91.2082L255.81 91.1803C255.793 91.5827 255.404 92.2867 254.645 93.292L254.186 93.2096L254.453 93.6527L254.083 93.718L254.116 93.3853L254.027 93.2376L253.71 93.2935L253.994 93.5703C253.676 93.6262 253.547 93.7034 253.607 93.8019C253.796 93.9864 253.902 94.131 253.927 94.2357C252.291 96.3759 249.185 100.337 244.608 106.118C241.018 109.33 238.169 111.139 236.061 111.547L235.602 111.465C235.496 111.483 235.473 111.542 235.532 111.64C234.094 111.93 232.431 111.479 230.542 110.287C230.33 110.325 230.137 110.123 229.962 109.681L230.121 109.653C229.193 108.655 228.401 107.524 227.743 106.26C227.032 104.606 226.925 102.628 227.422 100.325L227.614 99.9646L227.278 99.6971C227.349 99.2124 227.544 98.9421 227.861 98.8861L227.825 98.7291L227.488 98.4617C227.735 98.4182 227.81 97.7877 227.713 96.5702C227.988 96.4855 228.188 96.1597 228.314 95.5928C228.208 95.6115 228.143 95.5684 228.119 95.4638C228.462 95.0402 228.755 93.8447 229 91.8771L229.158 91.8492C229.218 91.9476 229.3 91.9875 229.406 91.9689C229.271 91.7022 229.248 90.962 229.335 89.7483L229.246 89.6006ZM254.676 88.1667L254.993 88.1108L255.118 88.4155L254.801 88.4715L254.676 88.1667ZM254.395 88.3797L254.678 88.6565C254.754 88.8247 254.671 89.0209 254.429 89.2452L254.27 89.2731L253.955 88.6207C254.096 88.5958 254.242 88.5155 254.395 88.3797ZM255.931 88.599L256.249 88.543L256.285 88.7L255.967 88.756L255.931 88.599ZM257.011 89.2255L257.381 89.1602L257.471 89.3079L257.153 89.3639L257.011 89.2255ZM253.302 90.8055L253.444 90.9439L253.92 90.8599L253.831 90.7122L253.302 90.8055ZM253.052 91.3942L253.41 91.2766L253.232 90.9812C253.029 91.0534 252.969 91.1911 253.052 91.3942ZM250.126 95.1782L250.443 95.1223C250.367 94.954 250.679 94.5541 251.378 93.9226L251.661 94.1993C251.274 94.2677 251.18 94.7381 251.381 95.6105C252.182 94.3073 252.723 93.6309 253.005 93.5811L252.88 93.2764L252.668 93.3137C252.269 93.493 252.145 93.7509 252.296 94.0874L252.138 94.1154C251.996 94.1403 251.766 94.0175 251.447 93.7469L252.524 92.6856L252.35 92.1715C250.784 93.9729 250.042 94.9751 250.126 95.1782ZM254.344 91.9835L254.241 92.4919L254.277 92.6489L254.647 92.5836C254.52 92.3518 254.472 92.1424 254.502 91.9555L254.344 91.9835ZM252.613 92.8333L252.649 92.9903L253.356 93.1925L253.178 92.8971C253.037 92.922 252.849 92.9007 252.613 92.8333ZM253.337 92.8691L253.515 93.1645L253.673 93.1365L253.495 92.8411L253.337 92.8691ZM250.287 95.64L250.566 96.1354L250.883 96.0795C251.016 96.0197 251.1 95.8235 251.133 95.4908L251.097 95.3337L250.287 95.64Z" fill="#EB838B"/>
<path d="M270.998 80.1688L271.828 80.1859C271.804 80.0813 271.845 80.0196 271.95 80.0009C271.966 80.0707 272.144 80.2029 272.482 80.3974L272.578 80.8161C272.896 80.7602 273.451 81.2613 274.246 82.3195C274.104 83.6154 273.764 84.9281 273.226 86.2575C273.159 86.9229 272.914 87.2929 272.491 87.3675L272.332 87.3955L272.563 87.6816L272.671 88.1527C272.354 88.2086 272.171 88.7674 272.122 89.8291C271.699 89.9037 271.507 90.0283 271.547 90.2027L271.865 90.1468L271.656 90.6738C271.68 90.7785 271.745 90.8215 271.851 90.8029C271.806 91.2465 271.696 91.4838 271.519 91.5149L271.447 91.2008L271.288 91.2288C271.336 91.4382 271.308 91.5522 271.202 91.5709L271.433 91.8569C271.361 92.3416 270.978 92.9901 270.285 93.8023L270.566 93.5893L270.883 93.5334L270.919 93.6904C270.967 93.8998 270.886 94.0231 270.674 94.0604C270.65 93.9557 270.585 93.9127 270.479 93.9314L270.698 94.1651L270.771 94.4791L270.295 94.5631L270.526 94.8491L270.317 95.3762C270.422 95.3575 270.487 95.4005 270.512 95.5052C270.229 95.555 270.121 95.7194 270.185 95.9986C270.255 95.9861 270.303 96.0323 270.327 96.1369C270.158 96.2029 270.094 96.3231 270.135 96.4976L270.243 96.9687C272.586 95.0306 274.313 93.2916 275.427 91.7518L275.965 91.2212L278.466 88.2202C278.491 88.3249 278.556 88.3679 278.661 88.3492C279.231 87.1594 280.188 85.974 281.53 84.7932C282.107 84.1105 282.367 83.6471 282.311 83.4028L282.665 83.5039C283.169 82.5072 283.541 81.9696 283.779 81.8912L283.816 82.0482C283.944 82.6065 283.377 83.6506 282.115 85.1803L282.274 85.1524L283.064 84.5227L283.418 84.6238C283.329 84.24 283.391 84.0294 283.603 83.9921L283.761 83.9641L283.858 84.3828L284.016 84.3549C283.88 83.7617 283.917 83.4464 284.129 83.4091L284.201 83.7231L284.307 83.7045C284.211 83.2858 284.374 83.0391 284.797 82.9645L284.833 83.1215C284.813 83.6698 284.714 83.9595 284.538 83.9906L284.757 84.2243C284.445 85.2597 284.148 85.8023 283.866 85.852L284.097 86.1381C283.901 86.2452 283.751 86.308 283.645 86.3267L283.876 86.6128C283.724 86.7485 283.524 86.8382 283.277 86.8817L283.508 87.1678C283.269 87.2462 283.083 87.5514 282.949 88.0835C282.807 88.1083 282.558 88.4609 282.201 89.1412C278.996 93.2285 276.909 95.7206 275.942 96.6175C274.575 98.4924 273.033 99.7629 271.315 100.429C269.517 100.746 268.317 100.159 267.717 98.6669L267.875 98.6389C267.422 98.1016 267.146 97.6237 267.05 97.2049C266.841 96.2977 267.783 92.8999 269.877 87.0115L269.718 87.0394C269.758 87.2139 268.843 88.3376 266.972 90.4104L263.514 94.9962C262.96 95.457 261.539 97.178 259.254 100.159C258.411 100.961 257.813 101.394 257.461 101.456L256.244 101.67C255.186 101.857 254.274 101.164 253.509 99.5926L253.668 99.5646C253.384 99.2879 253.21 99.0099 253.145 98.7308C253.121 98.6261 253.162 98.5644 253.268 98.5458L253.037 98.2597C252.872 96.1101 252.948 94.6079 253.265 93.7532C253.159 93.7718 253.094 93.7288 253.07 93.6241C253.427 92.9439 253.755 91.5789 254.054 89.5291C253.893 88.8313 254.099 88.0506 254.67 87.1873C254.965 87.3531 255.184 87.4236 255.325 87.3987L255.361 87.5558L255.315 87.8361L255.421 87.8175C255.397 87.7128 255.438 87.6511 255.544 87.6325C256.047 87.9068 256.676 88.4858 257.43 89.3696C257.275 90.4499 257.151 91.1072 257.058 91.3415L256.899 91.3694L257.13 91.6555C256.989 91.6804 256.879 91.9177 256.799 92.3675L257.03 92.6536C256.958 93.1383 256.82 93.4168 256.617 93.489L256.795 93.7844L256.394 94.6721C256.54 94.8279 256.625 94.9582 256.649 95.0628C256.305 95.9587 256.148 96.9487 256.177 98.0328C257.242 97.0824 258.129 96.0727 258.837 95.0038L259.743 93.9181C259.637 93.9368 259.572 93.8938 259.548 93.7891C260.098 93.1476 260.443 92.8143 260.584 92.7895L261.576 91.3618C261.6 91.4665 261.665 91.5095 261.771 91.4908C262.609 90.5079 263.004 89.9118 262.956 89.7024L262.919 89.5454L263.22 89.6558C264.335 87.6437 265.844 85.8343 267.75 84.2275C268.61 83.0228 269.163 82.3987 269.41 82.3552L270.244 80.9555C270.843 80.8498 271.095 80.5875 270.998 80.1688ZM264.586 89.8507L264.622 90.0077L264.939 89.9518L264.903 89.7947L264.586 89.8507ZM271.573 89.599L271.61 89.756L271.927 89.7001L271.891 89.543L271.573 89.599ZM271.107 90.4437L271.144 90.6007L271.461 90.5448L271.425 90.3877L271.107 90.4437ZM280.531 90.2527L280.591 90.5144L280.75 90.4864L280.689 90.2247L280.531 90.2527ZM269.775 94.219L270.357 94.1164C270.309 93.907 270.179 93.821 269.967 93.8583C269.799 93.9243 269.735 94.0445 269.775 94.219Z" fill="#EB838B"/>
<path d="M290.146 76.7925C290.816 76.6744 291.709 77.4429 292.824 79.0982C292.856 79.2377 292.819 79.3169 292.713 79.3355L293.065 80.145L293.258 80.9825C293.459 81.8548 292.522 83.3635 290.447 85.5086C290.2 85.5521 289.695 85.9862 288.93 86.8109L285.382 88.8526L285.017 88.6992C284.696 88.9009 284.548 89.0542 284.572 89.1588L284.219 89.0578L283.108 89.2536C282.685 89.3282 282.359 90.7836 282.132 93.6197C282.286 93.8104 282.375 93.9581 282.399 94.0628C282.195 94.135 282.118 94.2757 282.166 94.4851C282.377 94.4478 282.677 94.7943 283.066 95.5247C284.177 95.7282 284.758 95.8618 284.809 95.9253L285.09 95.7123L285.567 95.6284L285.53 95.4714L285.884 95.5724C285.99 95.5538 286.031 95.4921 286.006 95.3874C286.112 95.3688 286.177 95.4118 286.201 95.5165C288.166 94.8069 289.949 93.7845 291.55 92.4492L291.586 92.6063C292.254 92.1616 292.56 91.8172 292.504 91.5729L292.869 91.7263L293.028 91.6984C292.899 91.14 293.276 90.7832 294.158 90.6277C294.093 90.3486 294.383 89.9343 295.027 89.385C295.051 89.4897 295.116 89.5327 295.222 89.5141C295.557 89.0556 295.704 88.7392 295.664 88.5647L295.823 88.5367L296.188 88.6901C296.108 88.3412 296.896 87.6212 298.553 86.5302C300.476 84.5209 301.436 83.353 301.434 83.0265C301.787 82.9644 303.187 81.5555 305.635 78.8L305.989 78.901L306.063 78.5067C305.957 78.5253 305.892 78.4823 305.868 78.3776L306.447 77.7853L306.483 77.9423L306.397 78.2844C306.503 78.2657 306.568 78.3087 306.592 78.4134C306.416 78.4445 306.161 78.8525 305.828 79.6374C305.969 79.6126 306.14 79.6369 306.34 79.7105L306.304 79.5535L307.064 79.7463C307.24 79.7152 307.533 79.5546 307.944 79.2644L308.37 79.6795C307.582 81.1982 306.315 82.9467 304.568 84.9249C301.023 89.29 296.81 93.301 291.927 96.9578C290.14 97.9628 288.824 98.5399 287.978 98.6891C284.98 99.2176 282.784 98.443 281.388 96.3652C281.141 96.4087 280.684 95.3818 280.018 93.2843L280.177 93.2563C279.99 92.9261 279.844 92.7702 279.739 92.7889C279.76 90.9696 280.21 89.0202 281.089 86.9407L280.981 86.4697L281.139 86.4417L281.493 86.5427L281.262 86.2567L281.214 86.0473L281.579 86.2007C284.54 80.4136 287.396 77.2775 290.146 76.7925ZM286.523 82.3333L286.754 82.6194C286.515 82.6978 286.078 83.4285 285.443 84.8114C285.255 84.9534 285.108 85.0338 285.003 85.0524L285.039 85.2094L285.198 85.1815C287.625 83.773 289.549 81.9269 290.968 79.6433L290.847 79.1199C290.799 78.9105 290.669 78.8245 290.458 78.8618L289.929 78.9551C289.364 79.0546 288.524 79.9471 287.408 81.6327C287.44 81.7723 287.145 82.0058 286.523 82.3333ZM285.625 80.5853L285.698 80.8994C285.874 80.8683 285.992 80.6658 286.053 80.292C285.874 80.4689 285.731 80.5667 285.625 80.5853ZM284.938 81.9047C284.962 82.0094 284.685 82.4759 284.105 83.3044L284.141 83.4614C284.635 83.3744 284.953 82.8461 285.097 81.8767L284.938 81.9047ZM307.19 78.1445L307.508 78.0885L307.544 78.2455C307.6 78.4898 307.523 78.6306 307.311 78.6679L307.19 78.1445ZM306.676 78.7798L306.749 79.0938L306.431 79.1498C306.383 78.9404 306.465 78.8171 306.676 78.7798ZM306.871 78.9088L307.188 78.8529C307.213 78.9576 307.172 79.0192 307.066 79.0379L307.309 79.3763L307.345 79.5333L307.028 79.5893L306.871 78.9088ZM307.506 78.7969L307.823 78.741L307.859 78.898L307.542 78.9539L307.506 78.7969ZM306.061 79.2151L306.431 79.1498L306.479 79.3592L306.109 79.4245L306.061 79.2151ZM307.54 79.6624L307.466 80.0567L307.538 80.3708C307.75 80.3335 307.831 80.2101 307.783 80.0008C307.677 80.0194 307.608 79.959 307.576 79.8194C307.682 79.8007 307.723 79.7391 307.699 79.6344L307.54 79.6624ZM283.646 84.4201L283.168 85.2125C283.606 84.8812 283.835 84.6046 283.858 84.3828L283.646 84.4201ZM306.781 80.6677L307.098 80.6117L307.026 80.2977C306.822 80.3699 306.74 80.4932 306.781 80.6677ZM306.976 80.7967L307.06 81.1631L307.219 81.1352L307.134 80.7688L306.976 80.7967ZM279.919 89.2712L279.992 89.5852L279.674 89.6412C279.661 89.4256 279.743 89.3023 279.919 89.2712ZM279.709 90.5066L279.757 90.716C279.744 91.2992 279.65 91.6063 279.474 91.6374L279.425 91.428C279.438 90.8448 279.532 90.5377 279.709 90.5066Z" fill="#EB838B"/>
<path d="M307.566 74.7558L307.936 74.6905L308.55 74.9636L308.761 74.9263L309.03 74.661C309.087 74.9052 309.406 75.1758 309.988 75.4725L310.024 75.6296L309.95 76.0239C310.161 75.9866 310.406 76.2521 310.683 76.8205C310.591 77.0547 310.576 77.3114 310.641 77.5906C310.782 77.5657 310.864 77.6056 310.888 77.7103C310.183 77.8346 309.255 78.7427 308.103 80.4345C308.087 81.1635 307.991 81.5435 307.815 81.5746C308.799 82.8174 310.523 84.3289 312.987 86.1092C315.076 87.8471 316.278 88.688 316.596 88.6321C321.042 84.8342 323.839 82.1623 324.988 80.6163C326.128 79.0354 326.668 78.0325 326.607 77.6075C326.551 77.3633 327.054 76.8388 328.116 76.0342L327.82 75.7051L328.032 75.6678C328.506 75.6568 328.764 75.7385 328.804 75.913C329.781 75.3775 330.535 75.0631 331.063 74.9699L330.924 75.3212L331.057 75.897L331.918 76.2898L332.038 76.8132C332.191 77.4762 330.899 79.3561 328.163 82.453C325.462 85.5436 322.481 88.375 319.22 90.947C319.277 91.1913 319.111 91.3476 318.723 91.416C318.968 91.8448 319.259 92.2293 319.594 92.5696L319.382 92.6069C319.968 93.5567 320.541 94.6902 321.101 96.0076L321.342 97.0544C321.374 97.194 321.338 97.2731 321.232 97.2917C321.394 97.5174 321.487 97.6825 321.511 97.7872C321.656 98.4153 321.537 99.2532 321.154 100.301C321.295 100.276 321.378 100.316 321.402 100.421C321.011 100.635 320.765 101.241 320.665 102.239C320.202 102.938 319.563 103.668 318.747 104.429C318.295 105.017 317.805 105.358 317.276 105.451L317.312 105.608L317.555 105.947L317.221 106.169L317.137 105.802L316.608 105.896C316.672 106.175 315.922 106.743 314.358 107.6L314.005 107.499L312.856 108.246L312.82 108.089C312.597 108.237 312.415 108.324 312.274 108.348C311.075 108.56 310.435 108.491 310.355 108.142L310.021 108.364L309.862 108.392C309.814 108.183 309.569 107.918 309.128 107.596L309.287 107.568L308.553 106.771L308.384 106.039L308.755 105.973C308.706 105.764 308.488 105.693 308.101 105.762L308.016 105.395L308.386 105.33L307.689 104.691C307.391 103.4 307.541 102.139 308.139 100.908C308.163 101.012 308.228 101.055 308.333 101.037C308.492 100.609 308.547 100.291 308.499 100.082C308.393 100.1 308.328 100.057 308.304 99.9525C309.22 98.9921 309.923 97.7425 310.413 96.2037C310.589 96.1726 310.891 95.8107 311.319 95.1181L311.403 95.4844L311.774 95.4192C311.75 95.3145 311.667 95.2746 311.526 95.2994C311.454 94.9854 311.888 94.4005 312.828 93.5448L314.714 90.9791L313.733 90.0628C313.839 90.0442 313.875 89.965 313.843 89.8255C313.596 89.869 312.545 89.1284 310.69 87.6037C307.838 85.4195 306.244 83.5946 305.906 82.1291C305.956 81.8662 305.969 81.6824 305.944 81.5777L305.786 81.6057C305.835 81.3428 305.844 81.1415 305.812 81.0019C305.731 80.653 305.5 80.2037 305.116 79.654C304.787 78.2233 305.603 76.5906 307.566 74.7558ZM325.949 78.8129C326.752 78.635 327.129 78.4414 327.081 78.232L326.922 78.26C326.591 78.5726 326.266 78.757 325.949 78.8129ZM316.318 94.8357L316.794 94.7518L316.83 94.9088C316.208 95.2363 315.809 95.4156 315.633 95.4467L315.864 95.7328C315.439 96.2797 314.998 96.5935 314.54 96.6744L314.576 96.8314L314.807 97.1175C314.278 97.2107 313.697 97.876 313.065 99.1131C311.428 101.726 310.722 103.52 310.947 104.497L311.105 104.469C313.925 103.646 315.276 102.899 315.158 102.23L315.512 102.331C316.082 101.94 316.339 101.622 316.283 101.378L316.69 101.47L316.776 101.128C316.67 101.146 316.605 101.103 316.581 100.999C317.36 100.716 317.958 99.6482 318.375 97.7954C318.343 97.6558 318.341 97.1661 318.367 96.3262C317.834 94.9678 317.438 94.2025 317.178 94.0304C316.565 94.3928 316.278 94.6613 316.318 94.8357ZM307.773 105.057L307.932 105.029L308.016 105.395L307.857 105.423L307.773 105.057Z" fill="#EB838B"/>
<path d="M441.948 3.62043L443.246 3.28258L444.381 3.1914L444.268 2.93902C446.228 2.84751 448.471 3.50503 450.997 4.91156C453.354 6.38407 454.965 8.27875 455.828 10.5956L456.043 11.048L456.154 12.0088L456.471 11.9528L456.404 12.6182L457.43 15.1607C457.521 15.3987 457.536 15.5414 457.473 15.5888C457.576 15.7159 457.683 15.8605 457.793 16.0225C458.048 18.0837 458.065 19.3516 457.844 19.8263C457.844 19.8263 457.998 19.7809 458.308 19.69C458.073 20.4214 458.03 20.9554 458.181 21.2919L457.135 21.5307L456.847 21.4727L456.811 21.3157C457.046 21.383 457.407 21.3558 457.893 21.2338L458.369 22.348C457.584 22.1234 457.156 22.0174 457.085 22.0298C456.909 22.0609 456.858 22.3967 456.932 23.0372L456.944 23.0896L456.85 23.1606L456.559 22.6128L457.189 22.7196C457.138 22.656 457.337 22.5663 457.788 22.4506L458.127 23.2077C458.294 23.614 458.117 23.8813 457.596 24.0094L457.572 23.9047C457.917 23.8077 458.117 23.8813 458.173 24.1255C458.373 25.4702 458.23 26.2034 457.744 26.3254C457.258 26.4473 456.95 26.3021 456.818 25.8895L456.705 25.6372C456.991 24.9693 457.069 24.4292 456.937 24.0167L456.86 23.9213C456.833 23.9624 456.627 26.1773 456.244 30.566L456.219 30.4613L456.688 30.1064C456.744 30.3506 456.874 30.4366 457.078 30.3644C457.059 31.2392 456.807 31.7376 456.321 31.8595C456.289 31.7199 456.273 31.6501 456.273 31.6501C455.849 32.197 455.692 32.5515 455.802 32.7135L455.925 32.5285L456.401 32.4446L456.644 32.783C456.455 33.3973 456.475 33.8839 456.705 34.2428L455.51 34.0723L455.589 33.4593L455.702 33.7116C455.383 34.2399 455.206 34.5071 455.171 34.5133L455.585 34.8761C455.205 34.9794 454.747 36.2584 454.211 38.713L452.833 41.5705L453.35 41.4249L453.583 42.2007L453.067 42.3463L452.501 42.2825L452.465 42.1255L453.088 41.9612L452.718 43.2247L452.023 43.0749C452.056 43.2145 451.717 44.0548 451.008 45.596L451.335 46.3008C450.301 46.592 449.755 47.0878 449.696 47.7881L450.119 47.7135L450.362 48.0519C450.364 48.3784 449.301 50.0546 447.172 53.0807L446.436 52.9926C446.26 53.0237 446.128 53.2467 446.04 53.6616C446.11 53.6492 446.203 53.8143 446.319 54.157L445.516 54.7343L445.492 54.6296L444.476 55.9526C444.508 56.0922 444.014 56.5787 442.995 57.4119C442.106 58.3312 441.661 58.7909 441.661 58.7909C441.865 58.7187 442.025 58.854 442.14 59.1967L440.215 61.1156L440.018 60.4969C439.92 60.5504 439.893 60.5915 439.936 60.6202C440.077 60.5953 440.209 60.7717 440.333 61.1493C439.918 61.2588 438.891 62.0572 437.252 63.5445C436.684 63.7898 436.519 64.1093 436.757 64.5032L435.797 64.4001C435.727 64.4125 435.318 64.8659 434.57 65.7604L434.468 65.5603C433.688 66.3152 432.603 67.1784 431.212 68.1498L429.181 70.0874C428.734 70.0574 428.422 70.0579 428.246 70.089C427.866 70.1923 427.777 70.4439 427.979 70.844C427.529 70.9597 427.287 70.9478 427.255 70.8082C427.15 70.8269 426.177 71.5431 424.337 72.9567L423.772 72.893C422.415 73.5318 421.383 74.1495 420.676 74.7461L420.575 74.5461C420.341 74.8052 418.633 75.4332 415.45 76.4302C415.307 76.1286 415.187 76.0046 415.089 76.0581L415.027 76.5048C408.307 77.7622 404.195 77.4343 402.691 75.5209C401.989 74.2285 401.533 73.6009 401.321 73.6382C401.417 72.4594 401.69 71.8121 402.14 71.6964C403.514 73.996 405.415 74.8409 407.843 74.2312C408.71 74.3324 409.855 74.2032 411.276 73.8436L413.556 73.2239C421.044 71.3225 429.415 65.9249 438.669 57.0309C442.349 52.9325 445.497 48.8371 448.115 44.7445C455.032 31.76 456.583 20.4844 452.765 10.9179L452.454 10.0467C451.246 7.02818 448.823 5.74879 445.186 6.20854C444.771 6.31805 444.388 6.33099 444.039 6.24738C440.075 7.99924 437.743 9.26383 437.041 10.0412C436.922 9.84422 436.898 9.73954 436.969 9.7271C437.128 10.0985 435.871 11.1734 433.198 12.9519C433.298 13.2249 432.847 13.74 431.847 14.4973C431.99 14.7989 431.747 15.096 431.117 15.3886C431.165 15.598 430.775 15.9754 429.947 16.5209C429.898 16.3115 429.91 16.2006 429.98 16.1882C430.123 16.4898 429.336 17.373 427.618 18.8378L422.522 26.109C422.45 25.7949 422.449 25.6317 422.519 25.6192C422.678 25.9906 421.442 27.9516 418.81 31.5021C418.746 31.2229 418.749 31.0771 418.819 31.0647C419.094 31.7788 418.582 32.9039 417.285 34.4398C416.446 36.6938 415.452 38.5937 414.304 40.1398C414.245 40.8401 413.99 41.2481 413.54 41.3638C413.338 40.9637 413.051 40.5966 412.681 40.2625C413.272 40.1219 413.513 39.9706 413.402 39.8086L413.467 39.8516C413.135 40.1643 412.891 40.6975 412.734 41.4514L412.576 41.4793C412.888 41.2427 413.252 41.0696 413.667 40.9601C413.271 43.0634 411.978 45.815 409.788 49.2148C410.012 49.8654 409.655 50.3095 408.719 50.5472L409.044 50.7623C408.51 52.7446 407.898 53.8329 407.209 54.027L407.132 53.9317L407.913 53.7394C407.255 55.3442 406.992 56.3528 407.124 56.7654L406.083 57.9837C406.027 57.7394 406.016 57.6142 406.052 57.608L405.872 58.021C405.872 58.021 405.996 58.1625 406.245 58.4454C405.881 58.6185 405.288 60.2663 404.466 63.3888C403.476 65.3062 402.83 66.9633 402.528 68.3601C401.535 70.4233 400.8 72.5682 400.322 74.7948L399.361 76.5982C399.452 76.8363 398.683 79.1507 397.052 83.5414C397.302 84.1508 396.87 85.4616 395.755 87.4737L393.445 96.3234C391.962 99.9254 390.663 104.639 389.545 110.464C388.766 112.018 388.129 115.071 387.637 119.624C387.219 120.678 386.533 121.525 385.58 122.166L385.003 122.05L384.546 122.457C383.834 122.074 383.131 121.49 382.436 120.705C382.683 120.661 382.832 120.671 382.883 120.735C382.539 120.832 382.245 120.593 382.003 120.019C384.55 111.799 386.464 103.455 387.743 94.9867C388.304 92.9632 389.062 88.7629 390.015 82.3856C389.892 82.008 390.336 78.6797 391.349 72.4009C391.325 72.2962 391.891 69.2553 393.046 63.2781L395.173 48.8507C395.074 48.5778 395.271 46.328 395.766 42.1013L395.501 42.1479C395.738 38.8745 395.406 36.1553 394.504 33.9905C394.364 33.5431 393.722 33.384 392.577 33.5132C387.721 34.7326 376.574 43.452 359.135 59.6714C348.436 69.6191 338.128 75.8484 328.211 78.3595C325.712 78.9817 324.087 78.3786 323.336 76.5503C323.16 76.5814 322.976 76.3414 322.785 75.8304L323.208 75.7558L325.389 75.4258L325.341 75.2164C325.756 75.1069 325.975 75.1045 326 75.2092L327.05 74.7516L328.56 74.3764C331.368 73.6634 333.278 72.8728 334.289 72.0046C334.633 71.9076 334.818 71.9114 334.842 72.0161C338.837 70.4038 344.724 66.1704 352.503 59.3158C372.688 41.1597 385.085 31.4936 389.695 30.3177C393.165 29.4517 396.154 30.9581 398.662 34.8369C399.3 37.4477 399.519 39.1157 399.319 39.8409L399.667 40.1606L399.93 40.8224C399.507 40.897 399.458 41.7226 399.785 43.299L398.918 46.2296L398.76 46.2576L398.772 46.3099C398.78 46.3448 398.907 46.3405 399.154 46.297C399.298 48.9949 398.569 54.5155 396.968 62.8589C396.968 62.8589 397.074 62.8403 397.285 62.803C397.297 63.4908 397.116 64.14 396.743 64.7505C396.252 64.6917 396.007 64.6623 396.007 64.6623L396.825 65.8253C396.481 65.9223 396.282 66.1752 396.229 66.5839C396.229 66.5839 396.349 66.5447 396.588 66.4663C396.148 68.5409 395.721 69.633 395.305 69.7425C395.273 69.6029 395.345 69.5176 395.522 69.4865L395.781 69.6586L395.955 70.1727C395.646 71.0623 395.303 73.3195 394.927 76.9443C394.645 76.9941 394.555 77.3186 394.656 77.9181C394.851 77.811 395.284 76.2641 395.954 73.2774C398.896 65.4964 400.818 60.8547 401.72 59.3522C402.262 57.4047 403.907 53.3928 406.654 47.3165C406.479 46.8753 407.104 45.6033 408.528 43.5003L411.453 37.32C412.473 36.0145 413.762 33.6448 415.32 30.2111C417.157 27.6721 418.741 25.3051 420.07 23.1099C423.594 18.4943 425.29 15.9803 425.159 15.5678L425.894 15.6559C425.979 15.3867 427.517 13.6994 430.508 10.5939L431.578 9.2616L432.167 9.43004C435.703 6.30107 438.963 4.36454 441.948 3.62043ZM442.078 4.9046C442.165 4.96196 442.222 4.97008 442.249 4.92896L442.225 4.82428L442.078 4.9046ZM432.639 10.7629L433.829 9.95401C433.772 9.70975 434.215 9.32299 435.158 8.79373C435.241 8.99688 435.265 9.10156 435.23 9.10778C435.079 8.77127 435.831 8.13042 437.484 7.18521L437.412 6.87116L438.299 6.66027L438.425 6.96499C438.549 6.87033 438.612 6.823 438.612 6.823L438.316 6.49392L439.754 5.80471L439.778 5.90939L439.737 5.97106C435.971 7.9423 433.605 9.5396 432.639 10.7629ZM437.389 7.96462L437.365 7.85994L437.523 7.83196L437.547 7.93664L437.389 7.96462ZM432.336 10.1628L432.319 10.3292L432.107 10.3665L432.136 10.2525L432.336 10.1628ZM431.216 11.9942L431.322 11.9756L431.245 11.8802C431.147 11.9337 431.138 11.9717 431.216 11.9942ZM429.836 12.4554L429.807 12.5694L429.661 12.6497L429.677 12.4834L429.836 12.4554ZM430.62 12.7529L430.596 12.6482L430.69 12.5772L430.726 12.7342L430.62 12.7529ZM427.883 15.6865L427.619 15.7331C428.252 15.2947 428.506 14.8867 428.383 14.5091L429.183 14.6402C429.512 14.4734 429.741 14.0336 429.87 13.3208C429.183 13.8415 428.52 14.63 427.883 15.6865ZM428.505 14.3241L429.392 14.1132L429.724 14.5993L428.849 14.8625L428.505 14.3241ZM426.006 17.8148L426.259 17.7158C426.243 17.646 426.257 17.3894 426.302 16.9457L427.143 17.0152C426.976 16.6089 427.136 16.3448 427.621 16.2229L427.698 16.3182L427.181 16.4638C426.532 16.8324 426.141 17.2828 426.006 17.8148ZM427.029 18.6694L427.094 18.7124C427.164 18.7 427.175 18.5891 427.127 18.3797L427.062 18.3367C427.008 18.4189 426.997 18.5298 427.029 18.6694ZM424.673 19.1938L424.701 19.0798C424.701 19.0798 424.754 19.0704 424.86 19.0518L424.884 19.1565L424.673 19.1938ZM423.475 19.7317L423.447 19.8457L423.3 19.926L423.317 19.7597L423.475 19.7317ZM422.798 20.6137L422.774 20.509L423.132 20.3914L423.168 20.5484L422.798 20.6137ZM423.423 20.9391L423.553 21.0252L423.394 21.0531L423.317 20.9578L423.423 20.9391ZM422.664 21.9445L423.181 21.7989L423.003 21.5035L422.95 21.5128C422.782 21.5788 422.686 21.7227 422.664 21.9445ZM421.174 23.8412L420.551 24.0054L420.602 23.5064L420.813 23.4691C420.988 23.9103 420.762 24.2043 420.136 24.3511L420.581 25.0896L420.728 25.0092C420.512 24.3936 420.869 23.7133 421.799 22.9685C421.89 23.2065 421.883 23.3349 421.777 23.3535L421.515 22.6917L422.138 22.5275L422.352 22.9799L422.193 23.0079C421.925 22.8009 421.783 22.6626 421.767 22.5928L421.174 23.8412ZM424.381 21.7507L424.434 21.7414C424.672 21.663 424.748 21.5951 424.662 21.5377L424.609 21.547C424.413 21.6541 424.337 21.722 424.381 21.7507ZM419.816 25.1154C419.924 25.4233 419.925 25.5865 419.819 25.6052C419.992 25.7199 420.104 25.809 420.156 25.8726L420.396 25.7213C420.045 25.3112 419.852 25.1092 419.816 25.1154ZM422.396 24.6061L422.449 24.5968C422.688 24.5183 422.782 24.4474 422.73 24.3838L422.677 24.3931C422.482 24.5002 422.388 24.5712 422.396 24.6061ZM456.368 16.7641L456.57 17.1641L457.017 17.1942L456.888 17.1082C456.578 17.199 456.374 17.108 456.274 16.8351L456.368 16.7641ZM418.416 27.1598L418.635 27.3935C418.814 27.2167 419.129 27.0704 419.579 26.9546L419.555 26.8499L419.25 26.9582C419.179 26.9707 419.186 27.0785 419.269 27.2816L418.416 27.1598ZM420.664 27.3625L420.676 27.4148L420.876 27.3252C420.741 27.0585 420.846 26.8766 421.19 26.7795L421.166 26.6748L421.06 26.6935C420.892 26.7595 420.76 26.9825 420.664 27.3625ZM456.602 18.738L456.908 18.6297C457.119 18.5924 457.205 18.4865 457.165 18.312C456.782 18.5611 456.594 18.7031 456.602 18.738ZM417.626 28.9876L417.597 29.1016L417.45 29.1819L417.467 29.0156L417.626 28.9876ZM456.937 19.7138L456.908 19.8278L456.697 19.8651L456.726 19.7511L456.937 19.7138ZM415.894 32.9421L415.983 33.0898L415.824 33.1178L415.8 33.0131L415.894 32.9421ZM413.026 37.6963L413.204 37.9917C413.239 37.9855 413.318 37.7718 413.442 37.3506L413.6 37.3227C413.288 37.5593 413.096 37.6838 413.026 37.6963ZM458.004 26.4975C457.842 27.0706 457.807 27.4762 457.899 27.7142L457.423 27.7982C456.972 27.9139 456.673 27.7306 456.525 27.2483C456.729 27.1761 457.222 26.9258 458.004 26.4975ZM410.943 40.8414L410.967 40.946L411.073 40.9274C410.931 40.1535 411.227 39.6838 411.959 39.5183L411.882 39.423L411.776 39.4416C411.671 39.4603 411.442 39.9001 411.089 40.761L410.943 40.8414ZM457.028 27.7588L457.661 28.3553L456.964 28.9139L456.278 28.3268L457.028 27.7588ZM411.563 41.3855L411.535 41.4995L411.429 41.5182L411.458 41.4042L411.563 41.3855ZM409.891 43.2055L409.915 43.3102C410.021 43.2915 410.066 43.2473 410.05 43.1775L409.891 43.2055ZM397.639 46.8908L397.692 46.8815C397.904 46.8442 397.984 46.7937 397.933 46.7302L397.88 46.7395C397.676 46.8117 397.596 46.8621 397.639 46.8908ZM456.554 31.4372L456.797 31.7756C456.929 32.1881 456.699 32.4646 456.108 32.6052L455.97 32.2482C455.874 31.8294 456.069 31.5591 456.554 31.4372ZM409.675 44.6596L409.598 44.5643L409.704 44.5456L409.781 44.641L409.675 44.6596ZM408.03 48.2721C408.101 48.2597 408.11 48.2217 408.059 48.1581C407.883 48.1892 407.737 48.0334 407.621 47.6907C407.966 47.5936 408.1 47.4609 408.025 47.2927C407.794 47.406 407.796 47.7325 408.03 48.2721ZM409.934 46.7382C409.982 46.9476 409.796 47.4161 409.377 48.1437C409.412 48.1374 409.545 47.6783 409.775 46.7662L409.934 46.7382ZM455.195 34.618L455.871 34.4444L456.157 35.2109L455.535 35.3751L455.195 34.618ZM455.82 34.9435L455.917 35.3622C455.812 36.1796 455.559 36.678 455.16 36.8573L454.59 37.0122C454.925 35.755 455.335 35.0654 455.82 34.9435ZM452.768 37.2246C452.824 37.4689 452.625 37.9579 452.17 38.6917L452.081 38.544C452.528 37.7753 452.8 37.3642 452.898 37.3107L452.874 37.206L452.768 37.2246ZM407.071 49.3671C407.096 49.4718 406.858 50.1129 406.358 51.2903L406.305 51.2996C406.169 50.7064 406.432 50.3333 407.094 50.1802C407.161 50.3136 407.106 50.3958 406.93 50.4269L406.553 50.2212C406.809 49.7403 406.933 49.4824 406.925 49.4475L406.913 49.3951L407.071 49.3671ZM408.731 49.4014C408.747 49.4712 408.735 49.5821 408.697 49.7341C408.909 49.6968 408.959 49.5971 408.848 49.4351L408.836 49.3827L408.731 49.4014ZM455.237 36.9526L455.435 37.5714C455.594 37.9428 455.381 38.2162 454.798 38.3917L454.495 37.7916C454.434 37.3667 454.681 37.087 455.237 36.9526ZM406.433 52.094L406.51 52.1894L406.405 52.208L406.275 52.122L406.433 52.094ZM454.185 39.3167L454.347 39.7785C454.153 40.2121 454.11 40.5828 454.218 40.8906L453.225 41.1202C453.333 40.1569 453.653 39.5558 454.185 39.3167ZM404.478 54.8354L404.53 54.8261C404.699 54.7601 404.802 54.6511 404.84 54.4991C404.52 54.7008 404.399 54.813 404.478 54.8354ZM406.185 55.079C406.185 55.079 406.255 55.0666 406.397 55.0417L406.267 54.9557C406.231 54.9619 406.204 55.003 406.185 55.079ZM452.386 42.7386L452.714 43.4434C452.837 43.821 452.674 44.0676 452.224 44.1834L451.76 44.3197L451.675 43.9533C451.532 43.6517 451.769 43.2468 452.386 42.7386ZM404.293 56.6653L404.37 56.7606L404.517 56.6803L404.387 56.5943L404.293 56.6653ZM451.219 44.3606L451.894 44.187L452.181 44.9535L451.546 45.0654L451.219 44.3606ZM396.535 59.0681L396.466 59.2438L396.307 59.2718L396.336 59.1577L396.535 59.0681ZM403.765 57.9567L403.635 57.8706L403.794 57.8427L403.871 57.938L403.765 57.9567ZM396.632 60.685L396.721 60.8327C396.819 60.7791 396.825 60.7237 396.738 60.6663L396.632 60.685ZM450.794 46.3418L450.878 46.7081C451.081 47.1082 450.868 47.3817 450.242 47.5285L450.157 47.1621C450.026 46.7496 450.238 46.4761 450.794 46.3418ZM448.483 49.6905L448.495 49.7428C448.565 49.7304 448.581 49.6369 448.54 49.4625L448.528 49.4101C448.395 49.4699 448.38 49.5633 448.483 49.6905ZM402.867 63.6162L402.944 63.7116L402.838 63.7302L402.761 63.6349L402.867 63.6162ZM393.198 80.1904L393.174 80.0858L393.332 80.0578L393.356 80.1625L393.198 80.1904Z" fill="#EB838B"/>
<path d="M464.159 38.6474L464.296 39.0045C464.404 39.3123 464.246 39.5036 463.823 39.5782L463.912 39.7259L464.229 39.6699L464.196 40.0026C464.302 39.984 464.472 40.0083 464.708 40.0757C464.617 39.8376 464.845 39.634 465.393 39.4647L465.677 39.7415C465.571 39.7601 465.53 39.8218 465.554 39.9265L465.713 39.8985C465.665 39.6891 465.729 39.5689 465.905 39.5378C465.989 39.7409 466.136 39.8239 466.348 39.7866L466.651 40.3867C465.643 41.1091 464.29 42.564 462.592 44.7516C462.708 45.0943 462.314 45.4543 461.41 45.8316L461.251 45.8595C460.796 45.7946 460.389 45.5396 460.029 45.0946L460.311 44.8816L459.459 44.0514L459.37 43.9037C458.842 42.7259 460.438 40.9738 464.159 38.6474ZM456.694 49.4953L457.012 49.4393C457.117 49.4207 457.2 49.4606 457.259 49.5591L457.488 49.3554L457.699 49.3181C457.775 49.4864 458.224 49.8429 459.046 50.3878C458.905 50.4126 458.882 50.4712 458.977 50.5634L459.874 51.1133C459.946 51.4273 459.819 51.831 459.492 52.3244C459.635 52.626 459.488 53.7412 459.052 55.67C457.743 59.3867 457.406 63.0228 458.041 66.5782L458.2 66.5502L458.145 67.268C458.562 68.2837 459.37 68.6859 460.569 68.4744L460.658 68.6221L460.939 68.4092L461.245 68.3009C461.35 68.2822 461.433 68.3221 461.492 68.4206L461.721 68.2169L462.127 68.3086C465.103 66.7309 467.416 65.1429 469.066 63.5448C470.616 62.1459 473.557 58.5046 477.89 52.6207L478.296 52.7125C478.137 52.3411 478.524 51.7101 479.457 50.8194L479.987 50.0177L480.341 50.1188C480.658 50.0628 480.73 49.8143 480.555 49.3731L480.908 49.4741L480.624 49.1974C480.576 48.988 480.64 48.8678 480.816 48.8367L480.975 48.8087L481.526 49.5286L481.562 49.6856L481.209 49.5845C481.284 49.7528 481.266 49.992 481.154 50.3023L481.243 50.45C481.692 50.0078 482.069 49.4147 482.374 48.6709L482.533 48.6429L482.5 48.9756L482.658 48.9477C482.599 48.8492 482.622 48.7906 482.728 48.772L483.065 49.0394C482.755 49.1302 482.602 49.3389 482.603 49.6654C482.357 49.7089 482.18 49.9762 482.072 50.4671C481.755 50.523 481.638 50.6526 481.722 50.8557C481.827 50.8371 481.91 50.877 481.969 50.9755L481.212 51.2724C481.339 51.5042 481.486 51.5871 481.655 51.5211L481.529 51.2164L481.688 51.1884C481.794 51.1698 481.877 51.2097 481.936 51.3082L482.885 50.6506L482.536 50.3308C482.642 50.3121 482.894 50.0499 483.291 49.5442L483.416 49.8489L483.575 49.8209C483.317 49.1766 483.675 48.8228 484.652 48.7596C484.475 48.7907 484.253 48.9389 483.983 49.2042L484.267 49.481L484.356 49.6286L483.755 49.4079L483.892 49.7649L484.198 49.6566C484.183 49.9133 484.188 50.094 484.212 50.1987L483.736 50.2826L483.383 50.1816L483.349 50.5143L483.825 50.4303C483.901 50.5986 483.818 50.7948 483.576 51.019L483.385 50.6713L483.227 50.6993C483.067 50.8002 483.024 50.9347 483.1 51.103L483.258 51.075C483.241 51.4775 482.853 52.1814 482.093 53.1867L481.634 53.1043L481.901 53.5474L481.531 53.6127L481.564 53.28L481.475 53.1323L481.158 53.1883L481.442 53.465C481.124 53.521 480.995 53.5982 481.055 53.6967C481.244 53.8811 481.351 54.0257 481.375 54.1304C479.739 56.2707 476.633 60.2316 472.057 66.0131C468.466 69.2243 465.617 71.0339 463.509 71.4419L463.05 71.3595C462.944 71.3781 462.921 71.4367 462.98 71.5352C461.542 71.825 459.879 71.3739 457.99 70.1819C457.778 70.2192 457.585 70.0173 457.41 69.5761L457.569 69.5481C456.642 68.5497 455.849 67.4185 455.191 66.1547C454.48 64.5009 454.373 62.5226 454.87 60.22L455.063 59.8593L454.726 59.5919C454.798 59.1072 454.992 58.8368 455.31 58.7809L455.274 58.6238L454.937 58.3564C455.184 58.3129 455.259 57.6824 455.162 56.4649C455.436 56.3803 455.636 56.0545 455.762 55.4875C455.656 55.5062 455.592 55.4632 455.567 55.3585C455.91 54.935 456.204 53.7394 456.448 51.7719L456.607 51.7439C456.666 51.8424 456.749 51.8823 456.854 51.8636C456.72 51.5969 456.696 50.8567 456.783 49.643L456.694 49.4953ZM482.124 48.0615L482.441 48.0055L482.567 48.3102L482.249 48.3662L482.124 48.0615ZM481.843 48.2745L482.127 48.5512C482.202 48.7195 482.119 48.9157 481.877 49.1399L481.718 49.1679L481.403 48.5154C481.544 48.4906 481.691 48.4102 481.843 48.2745ZM483.379 48.4937L483.697 48.4377L483.733 48.5948L483.416 48.6507L483.379 48.4937ZM484.459 49.1203L484.83 49.055L484.919 49.2027L484.601 49.2586L484.459 49.1203ZM480.75 50.7003L480.892 50.8386L481.368 50.7547L481.279 50.607L480.75 50.7003ZM480.5 51.289L480.859 51.1713L480.68 50.8759C480.477 50.9481 480.417 51.0858 480.5 51.289ZM477.574 55.073L477.891 55.017C477.816 54.8488 478.127 54.4489 478.826 53.8173L479.11 54.0941C478.722 54.1625 478.628 54.6329 478.829 55.5052C479.63 54.2021 480.171 53.5256 480.454 53.4759L480.328 53.1712L480.117 53.2085C479.718 53.3878 479.594 53.6457 479.744 53.9822L479.586 54.0101C479.445 54.035 479.215 53.9122 478.895 53.6417L479.972 52.5804L479.799 52.0663C478.232 53.8676 477.49 54.8698 477.574 55.073ZM481.792 51.8782L481.689 52.3866L481.725 52.5436L482.095 52.4783C481.969 52.2465 481.92 52.0371 481.951 51.8502L481.792 51.8782ZM480.061 52.7281L480.097 52.8851L480.804 53.0872L480.626 52.7918C480.485 52.8167 480.297 52.7954 480.061 52.7281ZM480.785 52.7638L480.963 53.0592L481.122 53.0313L480.944 52.7359L480.785 52.7638ZM477.735 55.5347L478.014 56.0302L478.332 55.9742C478.465 55.9144 478.548 55.7182 478.581 55.3855L478.545 55.2285L477.735 55.5347Z" fill="#EB838B"/>
<path d="M498.446 40.0636L499.276 40.0807C499.252 39.976 499.293 39.9143 499.399 39.8957C499.415 39.9655 499.592 40.0976 499.93 40.2921L500.027 40.7109C500.344 40.6549 500.9 41.156 501.694 42.2143C501.552 43.5102 501.212 44.8228 500.674 46.1523C500.607 46.8177 500.362 47.1877 499.939 47.2623L499.78 47.2903L500.011 47.5763L500.12 48.0474C499.802 48.1034 499.619 48.6622 499.57 49.7239C499.147 49.7985 498.955 49.923 498.996 50.0975L499.313 50.0415L499.104 50.5686C499.128 50.6732 499.193 50.7163 499.299 50.6976C499.254 51.1412 499.144 51.3785 498.967 51.4096L498.895 51.0956L498.736 51.1236C498.785 51.3329 498.756 51.4469 498.65 51.4656L498.881 51.7517C498.809 52.2364 498.426 52.8848 497.733 53.6971L498.014 53.4841L498.331 53.4281L498.368 53.5851C498.416 53.7945 498.334 53.9178 498.122 53.9551C498.098 53.8505 498.033 53.8074 497.928 53.8261L498.147 54.0598L498.219 54.3739L497.743 54.4578L497.974 54.7439L497.765 55.2709C497.871 55.2523 497.936 55.2953 497.96 55.4C497.678 55.4497 497.569 55.6142 497.633 55.8933C497.704 55.8809 497.751 55.927 497.775 56.0317C497.607 56.0977 497.543 56.2179 497.583 56.3924L497.691 56.8634C500.034 54.9253 501.762 53.1864 502.875 51.6466L503.413 51.1159L505.915 48.1149C505.939 48.2196 506.004 48.2626 506.11 48.244C506.68 47.0541 507.636 45.8688 508.979 44.688C509.555 44.0053 509.816 43.5418 509.759 43.2976L510.113 43.3986C510.617 42.4019 510.989 41.8644 511.228 41.7859L511.264 41.943C511.392 42.5013 510.825 43.5453 509.563 45.0751L509.722 45.0471L510.513 44.4175L510.866 44.5185C510.778 44.1347 510.839 43.9241 511.051 43.8868L511.21 43.8588L511.306 44.2776L511.465 44.2496C511.328 43.6564 511.366 43.3411 511.577 43.3038L511.649 43.6179L511.755 43.5992C511.659 43.1805 511.822 42.9338 512.245 42.8592L512.282 43.0162C512.261 43.5645 512.163 43.8542 511.986 43.8853L512.205 44.119C511.893 45.1544 511.596 45.697 511.314 45.7467L511.545 46.0328C511.35 46.1399 511.199 46.2028 511.093 46.2214L511.324 46.5075C511.172 46.6433 510.972 46.7329 510.725 46.7764L510.956 47.0625C510.718 47.1409 510.531 47.4462 510.397 47.9782C510.256 48.0031 510.007 48.3556 509.65 49.0359C506.444 53.1232 504.358 55.6154 503.39 56.5122C502.024 58.3871 500.481 59.6576 498.763 60.3237C496.965 60.6408 495.765 60.0534 495.165 58.5616L495.324 58.5336C494.87 57.9964 494.595 57.5184 494.498 57.0997C494.289 56.1924 495.232 52.7946 497.325 46.9062L497.166 46.9342C497.206 47.1086 496.291 48.2323 494.42 50.3052L490.962 54.8909C490.408 55.3518 488.988 57.0728 486.702 60.0539C485.859 60.8561 485.261 61.2883 484.909 61.3504L483.692 61.565C482.634 61.7515 481.723 61.059 480.957 59.4873L481.116 59.4593C480.832 59.1826 480.658 58.9047 480.593 58.6255C480.569 58.5208 480.61 58.4592 480.716 58.4405L480.485 58.1544C480.32 56.0048 480.396 54.5027 480.713 53.6479C480.608 53.6666 480.543 53.6236 480.518 53.5189C480.876 52.8386 481.203 51.4736 481.502 49.4239C481.341 48.726 481.547 47.9454 482.119 47.082C482.414 47.2479 482.632 47.3184 482.773 47.2935L482.809 47.4505L482.763 47.7309L482.869 47.7122C482.845 47.6075 482.886 47.5459 482.992 47.5272C483.495 47.8015 484.124 48.3806 484.878 49.2643C484.723 50.3447 484.599 51.002 484.506 51.2362L484.348 51.2642L484.579 51.5502C484.438 51.5751 484.327 51.8125 484.247 52.2623L484.478 52.5483C484.406 53.0331 484.269 53.3115 484.065 53.3837L484.243 53.6791L483.842 54.5668C483.988 54.7226 484.073 54.8529 484.097 54.9576C483.753 55.8534 483.596 56.8434 483.625 57.9275C484.691 56.9771 485.577 55.9675 486.285 54.8985L487.191 53.8129C487.085 53.8315 487.021 53.7885 486.996 53.6838C487.546 53.0423 487.891 52.7091 488.032 52.6842L489.025 51.2565C489.049 51.3612 489.114 51.4042 489.219 51.3856C490.057 50.4027 490.452 49.8065 490.404 49.5972L490.368 49.4402L490.668 49.5506C491.783 47.5385 493.293 45.729 495.198 44.1222C496.058 42.9175 496.611 42.2934 496.858 42.2499L497.692 40.8502C498.291 40.7445 498.543 40.4823 498.446 40.0636ZM492.034 49.7454L492.07 49.9025L492.388 49.8465L492.352 49.6895L492.034 49.7454ZM499.022 49.4937L499.058 49.6508L499.375 49.5948L499.339 49.4378L499.022 49.4937ZM498.556 50.3384L498.592 50.4955L498.909 50.4395L498.873 50.2825L498.556 50.3384ZM507.979 50.1475L508.039 50.4092L508.198 50.3812L508.138 50.1195L507.979 50.1475ZM497.223 54.1137L497.805 54.0111C497.757 53.8017 497.627 53.7157 497.415 53.753C497.247 53.819 497.183 53.9392 497.223 54.1137Z" fill="#EB838B"/>
<path d="M517.563 11.6926C517.604 11.8671 518.014 11.9763 518.795 12.0202L520.173 13.4655L520.222 13.6749C520.018 15.8169 519.736 17.3009 519.375 18.127L519.217 18.155L519.513 18.484C519.243 20.0204 519.019 20.8041 518.843 20.8352L519.086 21.1736C518.95 21.3792 518.553 23.3193 517.894 26.9938C517.897 28.1191 517.686 28.719 517.263 28.7936L517.506 29.132L517.595 29.2797L517.383 29.317C517.113 29.2559 516.924 29.2346 516.818 29.2533L516.903 29.6196L517.199 29.9487C517.058 29.9736 516.999 30.0384 517.023 30.1431C517.164 30.1182 517.251 30.1755 517.283 30.3151C517.036 30.3586 516.986 30.8577 517.132 31.8123L516.974 31.8403L516.567 31.7485C516.591 31.8532 516.533 31.918 516.392 31.9428L516.688 32.2719L516.613 32.6663C516.719 32.6476 516.802 32.6876 516.861 32.786C516.622 32.8644 516.527 33.0083 516.575 33.2177L516.734 33.1897C516.656 33.966 516.529 34.3697 516.352 34.4008L516.215 34.0437L516.056 34.0717L516.177 34.5951L516.389 34.5578C516.25 35.7079 516.092 36.2985 515.916 36.3296C515.892 36.2249 515.827 36.1819 515.721 36.2006C515.777 36.4448 515.735 36.5794 515.594 36.6043L515.89 36.9334L515.926 37.0904C516.001 37.2586 515.812 37.4735 515.359 37.7351L515.655 38.0641L515.739 38.4305L515.369 38.4958L515.665 38.8249C515.073 38.9655 514.814 39.1928 514.886 39.5069L515.256 39.4416L515.394 39.7986C515.45 40.0429 515.355 40.1868 515.108 40.2303C515.084 40.1256 515.019 40.0826 514.913 40.1013L514.774 40.4526L515.07 40.7817L514.511 44.0937L514.04 43.9589L514.141 44.159L514.3 44.131C514.415 44.4737 514.226 44.6886 513.732 44.7756L513.781 44.985L514.31 44.8917L514.435 45.1965L514.065 45.2618L513.658 45.17L514 46.4169L513.63 46.4822L513.926 46.8112L514.01 47.1776C514.067 47.4219 513.989 47.5627 513.777 47.6C513.71 47.4666 513.623 47.4093 513.518 47.4279C513.715 47.6473 513.83 47.8268 513.862 47.9664L513.701 48.7028L513.86 48.6748C515.744 46.8175 516.65 45.7318 516.577 45.4178C516.521 45.1735 516.938 44.5918 517.827 43.6724L518.951 41.6224L520.584 37.9575C522.243 37.9917 523.237 38.561 523.564 39.6651C523.67 39.6465 523.785 39.826 523.908 40.2036C522.904 42.3777 522.314 43.4803 522.138 43.5114C521.824 44.2203 521.709 44.6763 521.793 44.8795L521.374 44.7354L520.087 47.0322C520.062 46.9275 519.98 46.8876 519.839 46.9124C519.914 47.0807 519.737 47.3479 519.308 47.7141L518.901 47.6224L519.197 47.9515L519.234 48.1085L517.741 49.5155C517.554 49.6574 517.319 49.7533 517.037 49.8031L517.333 50.1321C515.498 51.7265 514.334 52.5672 513.84 52.6543L514.014 53.1683C514.472 53.0875 514.747 53.1661 514.839 53.4042C514.927 53.788 516.836 54.2684 520.565 54.8455C521.424 54.9118 522.522 54.8998 523.859 54.8093C529.476 54.182 534.077 49.0678 537.664 39.4665L539.407 37.4708L539.443 37.6278C538.559 39.5266 538.011 40.4946 537.8 40.532L537.848 40.7413L538.059 40.704C537.976 40.5009 538.161 40.2685 538.615 40.007C538.706 40.245 538.858 40.3454 539.069 40.3081C538.921 39.8258 539.23 39.3356 539.996 38.8374C540.275 38.9335 540.485 38.969 540.627 38.9442L540.699 39.2582L540.625 39.6526L540.995 39.5873L541.079 39.9537L540.92 39.9817C540.65 39.9205 540.444 39.9024 540.302 39.9272L540.339 40.0843C540.43 40.3223 540.652 40.4102 541.005 40.3481L541.041 40.5051C540.522 41.7585 539.332 44.2378 537.47 47.9431C535.607 51.6484 532.58 54.5969 528.388 56.7885L527.167 57.2217C527.134 57.0821 527.048 57.0248 526.907 57.0497C527.03 57.4273 526.722 57.6814 525.981 57.812C525.949 57.6724 525.88 57.6119 525.775 57.6306L525.823 57.8399L525.404 57.6959C525.19 57.879 525.029 57.9798 524.924 57.9985L524.452 57.8637C524.273 58.0406 524.112 58.1415 523.971 58.1664L523.147 57.9306L523.183 58.0876L522.776 57.9958C522.67 58.0145 522.63 58.0762 522.654 58.1808C519.515 57.9355 516.091 56.8507 512.382 54.9267C512.261 56.473 512.042 57.2742 511.725 57.3302L512.02 57.6593L511.463 59.0647L511.584 59.5881C511.231 59.6503 511.083 59.8035 511.139 60.0477L511.435 60.3768C511.442 60.884 511.269 61.1687 510.916 61.2309C510.941 61.3355 511.005 61.3785 511.111 61.3599C510.016 66.1645 508.918 69.0452 507.817 70.0018C507.327 69.943 506.834 69.9572 506.341 70.0442L506.427 69.7022L506.343 69.3358L505.972 69.4011C505.94 69.2615 505.977 69.1824 506.083 69.1638C505.558 68.639 505.25 68.2575 505.159 68.0195C505.127 67.8799 505.358 67.5305 505.853 66.9711C506.496 64.8243 506.766 63.5241 506.661 63.0705L507.032 63.0052L506.736 62.6761C507.018 62.6263 507.336 61.6987 507.691 59.8932C507.903 59.8559 507.977 59.4616 507.914 58.7101L507.703 58.7474C507.622 58.3985 507.758 58.1929 508.111 58.1307L507.868 57.7923C508.119 57.1307 508.333 56.7844 508.509 56.7533C508.485 56.6486 508.403 56.6087 508.262 56.6336C508.682 55.4337 508.949 53.8799 509.06 51.9722C508.741 51.7016 508.577 51.5489 508.569 51.514C509.486 51.3524 509.866 50.2142 509.709 48.0995C509.78 48.087 510.018 47.6092 510.425 46.6661L510.129 46.337C510.089 46.1625 510.665 43.8823 511.856 39.4964C511.808 39.2871 511.978 38.5127 512.367 37.1732L512.071 36.8441C512.41 35.7676 512.534 35.1103 512.443 34.8723L512.861 35.0164L512.618 34.678C512.768 33.4169 512.958 32.5665 513.187 32.1267L513.028 32.1547C513.622 30.2708 514.061 28.1962 514.347 25.9308C514.445 25.8773 514.768 24.3316 515.316 21.2938C515.74 19.9481 516.072 18.2012 516.311 16.053C516.558 16.0094 516.687 15.2967 516.699 13.9148C517.029 12.4769 517.317 11.7362 517.563 11.6926ZM539.904 41.3047L539.993 41.4524L540.311 41.3964L540.274 41.2394L539.904 41.3047Z" fill="#EB838B"/>
</svg>
