<svg width="215" height="55" viewBox="0 0 215 55" fill="none" xmlns="http://www.w3.org/2000/svg">
<path d="M15.8644 10.3561C15.8644 9.87106 15.8319 9.54772 15.7342 8.99805H19.4777L19.4452 9.20822L19.4126 9.41839C19.3638 9.74173 19.3312 10.0651 19.3312 10.3399V12.8296H27.5995C28.0716 12.8296 28.4947 12.7811 28.9667 12.7003V14.0583C28.4134 13.9451 28.0878 13.929 27.5995 13.929H19.3312V16.6127C22.6841 16.6127 24.5233 16.9037 26.3788 17.8252C29.1621 19.1832 30.7246 21.5759 30.7246 24.389C30.7246 26.9919 29.4876 29.1097 27.2089 30.4677C25.4348 31.5186 23.4328 32.0198 20.4706 32.1168C19.9986 32.1168 19.787 32.1491 19.3312 32.2461L19.0545 31.1144C19.3801 31.1629 19.6568 31.1629 20.3892 31.1629C22.4888 30.8881 23.7746 30.3546 24.9465 29.3522C26.3626 28.1235 27.0787 26.426 27.0787 24.2758C27.0787 21.5598 26.151 19.8622 23.97 18.5204C22.0656 22.4004 19.6242 25.844 16.841 28.6732C14.9529 30.5486 13.8299 31.2276 12.5278 31.2276C9.8585 31.2276 8.01929 28.8996 8.01929 25.5045C8.01929 22.7885 9.38649 20.3472 11.8116 18.6982C13.0161 17.906 14.0578 17.4857 15.8807 17.0169V13.929H9.5818C9.10979 13.929 8.70289 13.9775 8.2146 14.0583V12.7003C8.65406 12.7811 9.14235 12.8296 9.5818 12.8296H15.8644V10.3561ZM15.7179 26.0218C15.8319 25.4237 15.8481 25.1488 15.8481 24.6638V18.2294C12.8208 19.6359 11.1769 22.2711 11.1769 25.6823C11.1769 28.0912 11.9419 29.8534 13.0324 29.8534C14.1229 29.8534 16.0109 28.366 17.9478 26.0057H15.7179V26.0218ZM19.3312 24.2273C20.6496 22.4166 21.9843 20.1532 23.0259 18.1C22.0494 17.7282 20.9426 17.5504 19.3312 17.5504V24.2273Z" fill="#484848"/>
<path d="M43.1758 11.5504C42.6062 11.5504 42.1992 11.5827 41.8086 11.6636V10.3379L42.0202 10.3702L42.2318 10.4026C42.5573 10.4511 42.8829 10.4834 43.1595 10.4834H57.6617V11.7606L48.433 18.6315C49.67 18.3082 51.0861 18.1465 52.5509 18.1465C57.7919 18.1465 61.0959 20.5554 61.0959 24.4193C61.0959 29.2209 57.5803 31.7429 50.8582 31.7429C46.9031 31.7429 44.3314 30.0292 44.3314 27.4263C44.3314 25.5833 45.78 24.3385 47.961 24.3385C50.907 24.3385 53.1694 25.939 55.0086 29.3017C56.506 28.1862 57.271 26.4887 57.271 24.3708C57.271 21.1212 55.0575 19.1327 51.4279 19.1327C49.3282 19.1327 47.6355 19.6177 46.0404 20.6524C45.0801 21.2829 43.1758 22.7703 42.183 23.6918C42.183 23.6918 42.0528 23.805 41.7761 24.0475L41.418 24.4031L39.3184 21.7194C39.53 21.6386 39.8066 21.4769 40.1973 21.1697L52.616 11.5989H43.1758V11.5504ZM47.5704 25.4702C46.2032 25.4702 45.3243 26.23 45.3243 27.3455C45.3243 29.2694 47.5378 30.6597 50.6466 30.6597C51.0861 30.6597 51.5743 30.6274 52.0138 30.5466C52.0952 30.5142 52.0952 30.5142 52.2579 30.4981C51.2325 27.2 49.5887 25.4702 47.5704 25.4702Z" fill="#484848"/>
<path d="M91.1582 21.1858C90.9629 21.5576 90.8815 21.8325 90.8326 21.9941C90.0188 24.985 89.0911 26.8281 87.6425 28.4286C85.787 30.4333 83.4107 31.4356 80.4321 31.4356C78.1046 31.4356 76.2329 30.9183 74.947 29.9645C73.4171 28.7681 72.8474 27.2807 72.8474 24.403C72.8474 23.1905 72.8474 23.1905 73.0427 15.1232L73.0916 13.0538C73.1241 12.1808 73.1404 11.6635 73.1404 11.5341V11.2916C73.1404 10.9198 73.1078 10.5641 73.0102 9.93359H76.9979C76.7212 11.0976 76.5584 16.6267 76.5584 23.7078C76.5584 26.1976 76.7212 26.9574 77.4373 27.9113C78.2511 28.9621 79.5695 29.5118 81.2948 29.5118C84.5663 29.5118 87.2682 27.5071 88.9609 23.821C89.5957 22.4306 89.8398 21.59 89.9212 20.62L91.1582 21.1858ZM84.8267 10.8713V14.234H83.1828V10.8713H84.8267ZM88.0169 10.8713V14.234H86.373V10.8713H88.0169Z" fill="#484848"/>
<path d="M99.2963 21.1373L99.573 21.1696C99.7032 21.1696 99.8985 21.1373 100.289 21.0564L103.642 20.3289L103.43 19.5691C103.056 18.0817 102.991 17.8392 102.861 17.4027C102.779 17.1925 102.698 16.9339 102.584 16.6429L105.335 15.9315C105.367 16.2872 105.611 17.3219 106.262 19.7631L109.567 19.0356C111.731 18.5667 112.154 18.4859 112.838 18.4859C115.572 18.4859 117.184 19.9571 117.184 22.4791C117.184 25.0012 115.491 26.6825 112.919 26.6825C112.073 26.6825 111.357 26.5694 110.266 26.2137C110.071 26.1652 109.778 26.1005 109.371 26.0035L109.648 25.0335C110.332 25.3892 111.21 25.5994 111.992 25.5994C113.44 25.5994 114.319 24.4353 114.319 22.4791C114.319 20.6846 113.391 19.7954 111.503 19.7954C111.015 19.7954 110.494 19.8763 108.492 20.3128L106.507 20.7493C108.069 26.7472 108.443 28.2346 108.916 30.5141C108.964 30.789 109.078 31.2255 109.16 31.4033L106.181 32.1146C106.1 30.9021 105.221 26.7149 103.886 21.3151L100.468 22.0426C100.11 22.1235 99.7846 22.2366 99.4591 22.3983L99.1824 21.1534H99.2963V21.1373ZM111.292 18.1141C109.892 16.7237 107.906 15.5435 106.344 15.1878L107.027 14.0562C107.272 14.1693 107.402 14.2178 107.923 14.331C108.899 14.5735 110.511 15.1232 111.52 15.5758C111.682 15.6567 111.813 15.7052 111.959 15.7699C112.285 15.8992 112.317 15.9315 112.643 16.0932L111.292 18.1141Z" fill="#484848"/>
<path d="M125.957 29.2207C128.805 23.821 133.053 14.2501 134.616 9.82039C134.697 9.61022 134.778 9.35155 134.86 9.10904C134.892 9.06054 134.892 9.02821 134.909 8.91504L138.457 10.3539C138.05 10.9844 138.05 11.0006 137.659 11.9059C136.536 14.5573 134.73 18.3889 133.753 20.1834C134.892 18.9871 136.211 18.4212 137.79 18.4212C140.215 18.4212 141.81 20.0217 141.728 22.4145L141.598 27.1029C141.566 28.4124 142.2 29.1076 143.421 29.1076C144.707 29.1076 145.911 28.3154 146.839 26.8604C147.685 25.5347 148.369 23.7886 148.646 22.3336C148.727 21.7678 148.76 21.7031 148.76 21.4444L149.997 21.8486C149.801 22.172 149.72 22.4145 149.557 23.1258C148.32 28.6064 145.7 31.5973 142.184 31.5973C139.564 31.5973 138.001 29.9968 138.082 27.3939L138.213 22.3175C138.262 20.6038 137.724 19.7469 136.601 19.7469C135.397 19.7469 134.274 20.5391 133.297 22.0588C132.532 23.2551 131.328 25.7449 129.277 30.3848C129.163 30.6273 128.984 31.1123 128.919 31.3063L125.696 29.5926L125.957 29.2207Z" fill="#484848"/>
<path d="M170.065 10.4654C170.065 9.94811 170.033 9.6571 169.935 9.10742H173.792C173.711 9.54393 173.662 10.0289 173.662 10.4654V13.3108H178.789C179.229 13.3108 179.717 13.2623 180.156 13.1815V14.5395C179.603 14.4264 179.278 14.4102 178.789 14.4102H173.662V23.0272C173.711 28.2976 170.277 31.3047 163.148 32.2262C162.79 32.2747 162.513 32.3555 162.22 32.501L161.862 31.3855C166.452 31.1915 169.837 28.2329 170.163 24.1427C169.316 25.4199 168.031 26.0181 166.224 26.0181C163.083 26.0181 161.064 24.1427 161.064 21.2488C161.064 18.4519 163.164 16.4149 166.11 16.4149C167.917 16.4149 169.251 17.0454 170.179 18.3064L170.13 14.394H158.167C157.695 14.394 157.288 14.4425 156.8 14.5234V13.1653C157.24 13.2462 157.728 13.2947 158.167 13.2947H170.098L170.065 10.4654ZM163.88 21.265C163.88 23.4637 165.085 24.8702 166.989 24.8702C168.812 24.8702 170.179 23.3182 170.179 21.265C170.179 19.0986 168.861 17.5466 167.038 17.5466C165.215 17.5466 163.88 19.0986 163.88 21.265Z" fill="#484848"/>
<path d="M211 21.1858C210.365 21.0727 210.105 21.0565 209.747 21.0565H190.72C190.199 21.0565 189.743 21.105 189.499 21.1858V19.1812C189.711 19.262 190.297 19.3105 190.72 19.3105H209.747C210.105 19.3105 210.593 19.262 211 19.1812V21.1858Z" fill="#484848"/>
<path d="M32.7754 43.0596V42.4775H39.3022V43.0596H32.7754Z" fill="#484848"/>
<path d="M179.05 43.0596V42.4775H185.576V43.0596H179.05Z" fill="#484848"/>
<path d="M45.4709 39.7302V46.0838H44.0223V39.7302H41.5972V39.3745H47.8798V39.7302H45.4709Z" fill="#484848"/>
<path d="M57.027 42.7199C57.027 44.9186 55.7086 46.1958 53.3811 46.1958C51.0699 46.1958 49.719 44.9025 49.719 42.7038C49.719 40.6021 51.135 39.2764 53.3811 39.2764C55.611 39.2764 57.027 40.6182 57.027 42.7199ZM51.2978 42.7199C51.2978 44.5953 52.1441 45.8402 53.3974 45.8402C54.667 45.8402 55.4645 44.6115 55.4645 42.7199C55.4645 40.9254 54.6019 39.632 53.3974 39.632C52.1441 39.632 51.2978 40.8931 51.2978 42.7199Z" fill="#484848"/>
<path d="M62.7561 39.7302V46.0838H61.3075V39.7302H58.8823V39.3745H65.1649V39.7302H62.7561Z" fill="#484848"/>
<path d="M70.3896 39.3746L73.1891 46.0839H71.529L70.6012 43.6588H67.6389L66.8088 45.712C66.76 45.8575 66.7112 45.9869 66.7112 46.0677H66.2229L68.9573 39.3584H70.3896V39.3746ZM67.7691 43.3193H70.4873L69.1689 39.8596L67.7691 43.3193Z" fill="#484848"/>
<path d="M75.7283 46.0838V39.3745H77.128V45.7281H80.66V46.0838H75.7283Z" fill="#484848"/>
<path d="M89.026 39.3745C89.6445 39.3745 90.1653 39.4392 90.5071 39.5523C91.2721 39.811 91.6628 40.3122 91.6628 41.0074C91.6628 41.9451 91.1094 42.4462 89.9212 42.5594C91.3698 42.6887 92.086 43.2869 92.086 44.3216C92.086 45.1623 91.5814 45.712 90.5885 45.9383C90.1816 46.0353 89.6282 46.0838 88.9609 46.0838H86.5032V39.3745H89.026ZM88.7981 42.4139C89.7747 42.4139 90.2304 41.9774 90.2304 41.0559C90.2304 40.5062 90.0351 40.1182 89.6771 39.908C89.4655 39.7787 89.1888 39.7302 88.7656 39.7302H87.8541V42.4139H88.7981ZM88.847 45.7281C90.0677 45.7281 90.6374 45.2755 90.6374 44.2893C90.6374 43.2707 90.0351 42.7534 88.8307 42.7534H87.8541V45.712H88.847V45.7281Z" fill="#484848"/>
<path d="M94.4458 46.0838V39.3745H99.4914V39.7302H95.8293V42.4139H99.1496V42.7696H95.8293V45.7281H99.7844V46.0838H94.4458Z" fill="#484848"/>
<path d="M105.546 39.3746L108.346 46.0839H106.702L105.774 43.6588H102.812L101.982 45.712C101.933 45.8575 101.884 45.9869 101.884 46.0677H101.396L104.13 39.3584H105.546V39.3746ZM102.942 43.3193H105.66L104.342 39.8596L102.942 43.3193Z" fill="#484848"/>
<path d="M116.012 43.4648C116.012 44.1761 115.963 44.5318 115.784 44.9198C115.41 45.7766 114.612 46.197 113.359 46.197C112.04 46.197 111.145 45.8575 110.69 45.1461C110.397 44.6935 110.315 44.3701 110.315 43.4324V39.3745H111.699V43.4324C111.699 43.9821 111.731 44.2408 111.829 44.548C112.089 45.3563 112.74 45.8251 113.603 45.8251C114.58 45.8251 115.279 45.3078 115.491 44.4025C115.54 44.1761 115.572 43.8689 115.572 43.4648V39.3745H116.012V43.4648V43.4648Z" fill="#484848"/>
<path d="M121.871 39.7302V46.0838H120.423V39.7302H117.998V39.3745H124.28V39.7302H121.871Z" fill="#484848"/>
<path d="M129.993 42.8504V46.1H128.61V43.2869L125.859 39.3745H127.503L129.716 42.5756L131.539 39.6493C131.588 39.5685 131.621 39.5038 131.637 39.3745H132.19L129.993 42.8504Z" fill="#484848"/>
<path d="M142.428 40.7475C142.038 40.0362 141.338 39.6158 140.524 39.6158C139.678 39.6158 139.092 40.0685 139.092 40.7313C139.092 41.3619 139.498 41.6852 140.703 41.9762C142.591 42.4289 143.405 43.1079 143.405 44.2396C143.405 45.5329 142.412 46.212 140.54 46.212C139.433 46.212 138.554 46.0341 137.773 45.6461L138.327 44.6276C138.961 45.4198 139.759 45.8563 140.573 45.8563C141.5 45.8563 142.119 45.3874 142.119 44.7084C142.119 44.0294 141.614 43.6414 140.345 43.3181C139.547 43.1241 139.124 42.9462 138.75 42.6875C138.229 42.3319 137.985 41.863 137.985 41.2325C137.985 40.02 138.961 39.2925 140.573 39.2925C141.452 39.2925 142.2 39.4541 142.982 39.8098L142.428 40.7475Z" fill="#484848"/>
<path d="M149.476 39.3746L152.275 46.0839H150.615L149.687 43.6588H146.741L145.911 45.712C145.862 45.8575 145.813 45.9869 145.813 46.0677H145.325L148.06 39.3584H149.476V39.3746ZM146.855 43.3193H149.573L148.255 39.8596L146.855 43.3193Z" fill="#484848"/>
<path d="M154.424 46.0838V39.3745H155.823V45.7281H159.355V46.0838H154.424Z" fill="#484848"/>
<path d="M168.063 42.7199C168.063 44.9186 166.745 46.1958 164.417 46.1958C162.106 46.1958 160.755 44.9025 160.755 42.7038C160.755 40.6021 162.171 39.2764 164.417 39.2764C166.647 39.2764 168.063 40.6182 168.063 42.7199ZM162.334 42.7199C162.334 44.5953 163.18 45.8402 164.434 45.8402C165.703 45.8402 166.501 44.6115 166.501 42.7199C166.501 40.9254 165.638 39.632 164.434 39.632C163.18 39.632 162.334 40.8931 162.334 42.7199Z" fill="#484848"/>
<path d="M175.924 46.0838L171.074 40.1505V46.0838H170.635V39.3745H172.116L175.876 43.8528V39.3745H176.315V46.0838H175.924Z" fill="#484848"/>
</svg>
