<svg width="215" height="55" viewBox="0 0 215 55" fill="none" xmlns="http://www.w3.org/2000/svg">
<path d="M15.8647 10.3561C15.8647 9.87106 15.8321 9.54772 15.7344 8.99805H19.478L19.4454 9.20822L19.4129 9.41839C19.364 9.74173 19.3315 10.0651 19.3315 10.3399V12.8296H27.5998C28.0718 12.8296 28.495 12.7811 28.967 12.7003V14.0583C28.4136 13.9451 28.0881 13.929 27.5998 13.929H19.3315V16.6127C22.6844 16.6127 24.5236 16.9037 26.3791 17.8252C29.1623 19.1832 30.7248 21.5759 30.7248 24.389C30.7248 26.9919 29.4878 29.1097 27.2092 30.4677C25.4351 31.5186 23.4331 32.0198 20.4708 32.1168C19.9988 32.1168 19.7872 32.1491 19.3315 32.2461L19.0548 31.1144C19.3803 31.1629 19.657 31.1629 20.3894 31.1629C22.4891 30.8881 23.7749 30.3546 24.9468 29.3522C26.3628 28.1235 27.079 26.426 27.079 24.2758C27.079 21.5598 26.1512 19.8622 23.9702 18.5204C22.0659 22.4004 19.6245 25.844 16.8412 28.6732C14.9532 30.5486 13.8301 31.2276 12.528 31.2276C9.85874 31.2276 8.01953 28.8996 8.01953 25.5045C8.01953 22.7885 9.38673 20.3472 11.8119 18.6982C13.0163 17.906 14.058 17.4857 15.8809 17.0169V13.929H9.58205C9.11004 13.929 8.70313 13.9775 8.21485 14.0583V12.7003C8.6543 12.7811 9.14259 12.8296 9.58205 12.8296H15.8647V10.3561ZM15.7182 26.0218C15.8321 25.4237 15.8484 25.1488 15.8484 24.6638V18.2294C12.821 19.6359 11.1771 22.2711 11.1771 25.6823C11.1771 28.0912 11.9421 29.8534 13.0326 29.8534C14.1231 29.8534 16.0111 28.366 17.948 26.0057H15.7182V26.0218ZM19.3315 24.2273C20.6499 22.4166 21.9845 20.1532 23.0262 18.1C22.0496 17.7282 20.9428 17.5504 19.3315 17.5504V24.2273Z" fill="#FFFCF9"/>
<path d="M43.1763 11.5504C42.6066 11.5504 42.1997 11.5827 41.8091 11.6636V10.3379L42.0207 10.3702L42.2323 10.4026C42.5578 10.4511 42.8833 10.4834 43.16 10.4834H57.6621V11.7606L48.4335 18.6315C49.6705 18.3082 51.0865 18.1465 52.5514 18.1465C57.7923 18.1465 61.0964 20.5554 61.0964 24.4193C61.0964 29.2209 57.5808 31.7429 50.8587 31.7429C46.9036 31.7429 44.3319 30.0292 44.3319 27.4263C44.3319 25.5833 45.7805 24.3385 47.9615 24.3385C50.9075 24.3385 53.1699 25.939 55.0091 29.3017C56.5065 28.1862 57.2715 26.4887 57.2715 24.3708C57.2715 21.1212 55.0579 19.1327 51.4283 19.1327C49.3287 19.1327 47.636 19.6177 46.0409 20.6524C45.0806 21.2829 43.1763 22.7703 42.1835 23.6918C42.1835 23.6918 42.0533 23.805 41.7766 24.0475L41.4185 24.4031L39.3188 21.7194C39.5304 21.6386 39.8071 21.4769 40.1978 21.1697L52.6165 11.5989H43.1763V11.5504ZM47.5709 25.4702C46.2037 25.4702 45.3248 26.23 45.3248 27.3455C45.3248 29.2694 47.5383 30.6597 50.6471 30.6597C51.0865 30.6597 51.5748 30.6274 52.0143 30.5466C52.0957 30.5142 52.0957 30.5142 52.2584 30.4981C51.233 27.2 49.5891 25.4702 47.5709 25.4702Z" fill="#FFFCF9"/>
<path d="M91.1584 21.1858C90.9631 21.5576 90.8817 21.8325 90.8329 21.9941C90.0191 24.985 89.0913 26.8281 87.6428 28.4286C85.7873 30.4333 83.4109 31.4356 80.4324 31.4356C78.1049 31.4356 76.2331 30.9183 74.9473 29.9645C73.4173 28.7681 72.8477 27.2807 72.8477 24.403C72.8477 23.1905 72.8477 23.1905 73.043 15.1232L73.0918 13.0538C73.1244 12.1808 73.1406 11.6635 73.1406 11.5341V11.2916C73.1406 10.9198 73.1081 10.5641 73.0104 9.93359H76.9981C76.7214 11.0976 76.5586 16.6267 76.5586 23.7078C76.5586 26.1976 76.7214 26.9574 77.4376 27.9113C78.2514 28.9621 79.5697 29.5118 81.295 29.5118C84.5665 29.5118 87.2684 27.5071 88.9611 23.821C89.5959 22.4306 89.84 21.59 89.9214 20.62L91.1584 21.1858ZM84.827 10.8713V14.234H83.1831V10.8713H84.827ZM88.0171 10.8713V14.234H86.3732V10.8713H88.0171Z" fill="#FFFCF9"/>
<path d="M99.2966 21.1373L99.5732 21.1696C99.7035 21.1696 99.8988 21.1373 100.289 21.0564L103.642 20.3289L103.431 19.5691C103.056 18.0817 102.991 17.8392 102.861 17.4027C102.78 17.1925 102.698 16.9339 102.584 16.6429L105.335 15.9315C105.368 16.2872 105.612 17.3219 106.263 19.7631L109.567 19.0356C111.732 18.5667 112.155 18.4859 112.838 18.4859C115.573 18.4859 117.184 19.9571 117.184 22.4791C117.184 25.0012 115.491 26.6825 112.92 26.6825C112.073 26.6825 111.357 26.5694 110.267 26.2137C110.071 26.1652 109.778 26.1005 109.371 26.0035L109.648 25.0335C110.332 25.3892 111.211 25.5994 111.992 25.5994C113.441 25.5994 114.319 24.4353 114.319 22.4791C114.319 20.6846 113.392 19.7954 111.504 19.7954C111.015 19.7954 110.495 19.8763 108.493 20.3128L106.507 20.7493C108.069 26.7472 108.444 28.2346 108.916 30.5141C108.965 30.789 109.079 31.2255 109.16 31.4033L106.181 32.1146C106.1 30.9021 105.221 26.7149 103.886 21.3151L100.468 22.0426C100.11 22.1235 99.7848 22.2366 99.4593 22.3983L99.1826 21.1534H99.2966V21.1373ZM111.292 18.1141C109.892 16.7237 107.907 15.5435 106.344 15.1878L107.028 14.0562C107.272 14.1693 107.402 14.2178 107.923 14.331C108.899 14.5735 110.511 15.1232 111.52 15.5758C111.683 15.6567 111.813 15.7052 111.959 15.7699C112.285 15.8992 112.317 15.9315 112.643 16.0932L111.292 18.1141Z" fill="#FFFCF9"/>
<path d="M125.957 29.2207C128.805 23.821 133.053 14.2501 134.616 9.82039C134.697 9.61022 134.778 9.35155 134.86 9.10904C134.892 9.06054 134.892 9.02821 134.909 8.91504L138.457 10.3539C138.05 10.9844 138.05 11.0006 137.659 11.9059C136.536 14.5573 134.73 18.3889 133.753 20.1834C134.892 18.9871 136.211 18.4212 137.79 18.4212C140.215 18.4212 141.81 20.0217 141.728 22.4145L141.598 27.1029C141.566 28.4124 142.2 29.1076 143.421 29.1076C144.707 29.1076 145.911 28.3154 146.839 26.8604C147.685 25.5347 148.369 23.7886 148.646 22.3336C148.727 21.7678 148.76 21.7031 148.76 21.4444L149.997 21.8486C149.801 22.172 149.72 22.4145 149.557 23.1258C148.32 28.6064 145.7 31.5973 142.184 31.5973C139.564 31.5973 138.001 29.9968 138.082 27.3939L138.213 22.3175C138.262 20.6038 137.724 19.7469 136.601 19.7469C135.397 19.7469 134.274 20.5391 133.297 22.0588C132.532 23.2551 131.328 25.7449 129.277 30.3848C129.163 30.6273 128.984 31.1123 128.919 31.3063L125.696 29.5926L125.957 29.2207Z" fill="#FFFCF9"/>
<path d="M170.065 10.4654C170.065 9.94811 170.033 9.6571 169.935 9.10742H173.793C173.711 9.54393 173.662 10.0289 173.662 10.4654V13.3108H178.789C179.229 13.3108 179.717 13.2623 180.157 13.1815V14.5395C179.603 14.4264 179.278 14.4102 178.789 14.4102H173.662V23.0272C173.711 28.2976 170.277 31.3047 163.148 32.2262C162.79 32.2747 162.513 32.3555 162.22 32.501L161.862 31.3855C166.452 31.1915 169.838 28.2329 170.163 24.1427C169.317 25.4199 168.031 26.0181 166.224 26.0181C163.083 26.0181 161.065 24.1427 161.065 21.2488C161.065 18.4519 163.164 16.4149 166.11 16.4149C167.917 16.4149 169.252 17.0454 170.179 18.3064L170.131 14.394H158.168C157.695 14.394 157.289 14.4425 156.8 14.5234V13.1653C157.24 13.2462 157.728 13.2947 158.168 13.2947H170.098L170.065 10.4654ZM163.88 21.265C163.88 23.4637 165.085 24.8702 166.989 24.8702C168.812 24.8702 170.179 23.3182 170.179 21.265C170.179 19.0986 168.861 17.5466 167.038 17.5466C165.215 17.5466 163.88 19.0986 163.88 21.265Z" fill="#FFFCF9"/>
<path d="M211 21.1858C210.365 21.0727 210.105 21.0565 209.747 21.0565H190.72C190.199 21.0565 189.743 21.105 189.499 21.1858V19.1812C189.711 19.262 190.297 19.3105 190.72 19.3105H209.747C210.105 19.3105 210.593 19.262 211 19.1812V21.1858Z" fill="#FFFCF9"/>
<path d="M32.7759 43.0596V42.4775H39.3027V43.0596H32.7759Z" fill="#FFFCF9"/>
<path d="M179.05 43.0596V42.4775H185.577V43.0596H179.05Z" fill="#FFFCF9"/>
<path d="M45.4714 39.7302V46.0838H44.0228V39.7302H41.5977V39.3745H47.8803V39.7302H45.4714Z" fill="#FFFCF9"/>
<path d="M57.0273 42.7199C57.0273 44.9186 55.7089 46.1958 53.3814 46.1958C51.0702 46.1958 49.7192 44.9025 49.7192 42.7038C49.7192 40.6021 51.1353 39.2764 53.3814 39.2764C55.6112 39.2764 57.0273 40.6182 57.0273 42.7199ZM51.298 42.7199C51.298 44.5953 52.1444 45.8402 53.3977 45.8402C54.6672 45.8402 55.4647 44.6115 55.4647 42.7199C55.4647 40.9254 54.6021 39.632 53.3977 39.632C52.1444 39.632 51.298 40.8931 51.298 42.7199Z" fill="#FFFCF9"/>
<path d="M62.7566 39.7302V46.0838H61.308V39.7302H58.8828V39.3745H65.1654V39.7302H62.7566Z" fill="#FFFCF9"/>
<path d="M70.3904 39.3746L73.1899 46.0839H71.5297L70.6019 43.6588H67.6397L66.8096 45.712C66.7608 45.8575 66.7119 45.9869 66.7119 46.0677H66.2236L68.958 39.3584H70.3904V39.3746ZM67.7699 43.3193H70.488L69.1696 39.8596L67.7699 43.3193Z" fill="#FFFCF9"/>
<path d="M75.729 46.0838V39.3745H77.1288V45.7281H80.6607V46.0838H75.729Z" fill="#FFFCF9"/>
<path d="M89.0262 39.3745C89.6447 39.3745 90.1656 39.4392 90.5074 39.5523C91.2724 39.811 91.663 40.3122 91.663 41.0074C91.663 41.9451 91.1096 42.4462 89.9214 42.5594C91.37 42.6887 92.0862 43.2869 92.0862 44.3216C92.0862 45.1623 91.5816 45.712 90.5888 45.9383C90.1819 46.0353 89.6285 46.0838 88.9611 46.0838H86.5034V39.3745H89.0262ZM88.7984 42.4139C89.775 42.4139 90.2307 41.9774 90.2307 41.0559C90.2307 40.5062 90.0354 40.1182 89.6773 39.908C89.4657 39.7787 89.189 39.7302 88.7658 39.7302H87.8544V42.4139H88.7984ZM88.8472 45.7281C90.0679 45.7281 90.6376 45.2755 90.6376 44.2893C90.6376 43.2707 90.0354 42.7534 88.8309 42.7534H87.8544V45.712H88.8472V45.7281Z" fill="#FFFCF9"/>
<path d="M94.4463 46.0838V39.3745H99.4919V39.7302H95.8298V42.4139H99.1501V42.7696H95.8298V45.7281H99.7849V46.0838H94.4463Z" fill="#FFFCF9"/>
<path d="M105.547 39.3746L108.346 46.0839H106.703L105.775 43.6588H102.813L101.982 45.712C101.934 45.8575 101.885 45.9869 101.885 46.0677H101.396L104.131 39.3584H105.547V39.3746ZM102.943 43.3193H105.661L104.342 39.8596L102.943 43.3193Z" fill="#FFFCF9"/>
<path d="M116.012 43.4648C116.012 44.1761 115.963 44.5318 115.784 44.9198C115.41 45.7766 114.612 46.197 113.359 46.197C112.041 46.197 111.146 45.8575 110.69 45.1461C110.397 44.6935 110.315 44.3701 110.315 43.4324V39.3745H111.699V43.4324C111.699 43.9821 111.731 44.2408 111.829 44.548C112.09 45.3563 112.741 45.8251 113.603 45.8251C114.58 45.8251 115.28 45.3078 115.491 44.4025C115.54 44.1761 115.573 43.8689 115.573 43.4648V39.3745H116.012V43.4648V43.4648Z" fill="#FFFCF9"/>
<path d="M121.872 39.7302V46.0838H120.423V39.7302H117.998V39.3745H124.281V39.7302H121.872Z" fill="#FFFCF9"/>
<path d="M129.994 42.8504V46.1H128.61V43.2869L125.859 39.3745H127.503L129.717 42.5756L131.54 39.6493C131.589 39.5685 131.621 39.5038 131.637 39.3745H132.191L129.994 42.8504Z" fill="#FFFCF9"/>
<path d="M142.428 40.7475C142.038 40.0362 141.338 39.6158 140.524 39.6158C139.678 39.6158 139.092 40.0685 139.092 40.7313C139.092 41.3619 139.499 41.6852 140.703 41.9762C142.591 42.4289 143.405 43.1079 143.405 44.2396C143.405 45.5329 142.412 46.212 140.54 46.212C139.434 46.212 138.555 46.0341 137.773 45.6461L138.327 44.6276C138.962 45.4198 139.759 45.8563 140.573 45.8563C141.501 45.8563 142.119 45.3874 142.119 44.7084C142.119 44.0294 141.615 43.6414 140.345 43.3181C139.548 43.1241 139.124 42.9462 138.75 42.6875C138.229 42.3319 137.985 41.863 137.985 41.2325C137.985 40.02 138.962 39.2925 140.573 39.2925C141.452 39.2925 142.201 39.4541 142.982 39.8098L142.428 40.7475Z" fill="#FFFCF9"/>
<path d="M149.476 39.3746L152.276 46.0839H150.615L149.688 43.6588H146.742L145.912 45.712C145.863 45.8575 145.814 45.9869 145.814 46.0677H145.326L148.06 39.3584H149.476V39.3746ZM146.856 43.3193H149.574L148.255 39.8596L146.856 43.3193Z" fill="#FFFCF9"/>
<path d="M154.424 46.0838V39.3745H155.824V45.7281H159.356V46.0838H154.424Z" fill="#FFFCF9"/>
<path d="M168.063 42.7199C168.063 44.9186 166.745 46.1958 164.418 46.1958C162.106 46.1958 160.755 44.9025 160.755 42.7038C160.755 40.6021 162.171 39.2764 164.418 39.2764C166.647 39.2764 168.063 40.6182 168.063 42.7199ZM162.334 42.7199C162.334 44.5953 163.181 45.8402 164.434 45.8402C165.703 45.8402 166.501 44.6115 166.501 42.7199C166.501 40.9254 165.638 39.632 164.434 39.632C163.181 39.632 162.334 40.8931 162.334 42.7199Z" fill="#FFFCF9"/>
<path d="M175.925 46.0838L171.075 40.1505V46.0838H170.635V39.3745H172.116L175.876 43.8528V39.3745H176.315V46.0838H175.925Z" fill="#FFFCF9"/>
</svg>
