<svg width="663" height="56" viewBox="0 0 663 56" fill="none" xmlns="http://www.w3.org/2000/svg">
<g clip-path="url(#clip0)">
<path d="M30.1144 55.0396L23.2861 46.7277C23.2861 46.7277 24.6868 33.4641 51.9999 29.5734C51.9999 29.3965 29.7642 35.7631 30.1144 55.0396Z" fill="#FFFCF9"/>
<path d="M30.1144 0.0400391L23.2861 8.35194C23.2861 8.35194 24.6868 21.6156 51.9999 25.5063C51.9999 25.5063 29.7642 19.1397 30.1144 0.0400391Z" fill="#FFFCF9"/>
<path d="M0 27.4516L11.5556 33.1107L38.8687 27.4516L11.5556 21.9692L0 27.4516Z" fill="#FFFCF9"/>
</g>
<path d="M80.122 25.542C79.762 24.93 79.222 24.048 78.502 22.896C77.818 21.708 77.044 20.412 76.18 19.008C75.352 17.568 74.47 16.074 73.534 14.526C72.598 12.942 71.698 11.448 70.834 10.044C70.006 8.604 69.25 7.326 68.566 6.21C67.882 5.058 67.36 4.194 67 3.618C67.504 3.69 67.99 3.762 68.458 3.834C68.962 3.87 69.466 3.888 69.97 3.888C70.474 3.888 70.96 3.87 71.428 3.834C71.932 3.762 72.436 3.69 72.94 3.618C74.56 6.75 76.198 9.828 77.854 12.852C79.546 15.876 81.328 19.026 83.2 22.302C84.028 21.006 84.892 19.584 85.792 18.036C86.692 16.488 87.592 14.904 88.492 13.284C89.392 11.664 90.256 10.044 91.084 8.424C91.912 6.768 92.686 5.166 93.406 3.618C94.306 3.798 95.008 3.888 95.512 3.888C96.016 3.888 96.718 3.798 97.618 3.618C95.89 6.246 94.342 8.622 92.974 10.746C91.606 12.87 90.4 14.796 89.356 16.524C88.312 18.252 87.394 19.818 86.602 21.222C85.81 22.59 85.126 23.832 84.55 24.948C84.55 26.28 84.55 27.702 84.55 29.214C84.586 30.726 84.622 32.22 84.658 33.696C84.694 35.136 84.73 36.486 84.766 37.746C84.838 38.97 84.91 39.96 84.982 40.716C84.154 40.644 83.272 40.608 82.336 40.608C81.4 40.608 80.518 40.644 79.69 40.716C79.906 38.844 80.032 36.576 80.068 33.912C80.104 31.248 80.122 28.458 80.122 25.542Z" fill="#FFFCF9"/>
<path d="M99.0448 27.972C99.0448 29.484 99.1708 30.942 99.4228 32.346C99.7108 33.75 100.179 35.01 100.827 36.126C101.475 37.206 102.339 38.07 103.419 38.718C104.499 39.366 105.831 39.69 107.415 39.69C108.999 39.69 110.331 39.366 111.411 38.718C112.491 38.07 113.355 37.206 114.003 36.126C114.651 35.01 115.101 33.75 115.353 32.346C115.641 30.942 115.785 29.484 115.785 27.972C115.785 26.46 115.641 25.002 115.353 23.598C115.101 22.194 114.651 20.952 114.003 19.872C113.355 18.756 112.491 17.874 111.411 17.226C110.331 16.578 108.999 16.254 107.415 16.254C105.831 16.254 104.499 16.578 103.419 17.226C102.339 17.874 101.475 18.756 100.827 19.872C100.179 20.952 99.7108 22.194 99.4228 23.598C99.1708 25.002 99.0448 26.46 99.0448 27.972ZM94.2928 27.972C94.2928 25.524 94.6708 23.454 95.4268 21.762C96.2188 20.034 97.2448 18.648 98.5048 17.604C99.7648 16.524 101.169 15.75 102.717 15.282C104.301 14.778 105.867 14.526 107.415 14.526C108.999 14.526 110.565 14.778 112.113 15.282C113.661 15.75 115.065 16.524 116.325 17.604C117.585 18.648 118.593 20.034 119.349 21.762C120.141 23.454 120.537 25.524 120.537 27.972C120.537 30.42 120.141 32.508 119.349 34.236C118.593 35.928 117.585 37.314 116.325 38.394C115.065 39.438 113.661 40.176 112.113 40.608C110.565 41.04 108.999 41.256 107.415 41.256C105.867 41.256 104.301 41.04 102.717 40.608C101.169 40.176 99.7648 39.438 98.5048 38.394C97.2448 37.314 96.2188 35.928 95.4268 34.236C94.6708 32.508 94.2928 30.42 94.2928 27.972Z" fill="#FFFCF9"/>
<path d="M127.053 32.562C127.053 30.654 127.071 29.034 127.107 27.702C127.179 26.334 127.215 24.984 127.215 23.652C127.215 22.392 127.197 21.024 127.161 19.548C127.161 18.072 127.143 16.578 127.107 15.066C128.007 15.246 128.763 15.336 129.375 15.336C129.951 15.336 130.689 15.246 131.589 15.066C131.409 17.226 131.265 19.602 131.157 22.194C131.085 24.75 131.049 27.378 131.049 30.078C131.049 31.95 131.211 33.39 131.535 34.398C131.859 35.37 132.255 36.108 132.723 36.612C133.227 37.188 133.857 37.674 134.613 38.07C135.405 38.43 136.323 38.61 137.367 38.61C138.879 38.61 140.139 38.286 141.147 37.638C142.155 36.954 142.893 36.126 143.361 35.154C143.613 34.542 143.811 34.02 143.955 33.588C144.099 33.156 144.207 32.58 144.279 31.86C144.387 31.14 144.441 30.168 144.441 28.944C144.477 27.72 144.495 26.046 144.495 23.922V19.386C144.495 18.594 144.477 17.838 144.441 17.118C144.441 16.398 144.423 15.714 144.387 15.066C144.783 15.138 145.161 15.21 145.521 15.282C145.881 15.318 146.259 15.336 146.655 15.336C147.051 15.336 147.429 15.318 147.789 15.282C148.149 15.21 148.509 15.138 148.869 15.066C148.689 17.874 148.581 20.592 148.545 23.22C148.509 25.812 148.491 28.566 148.491 31.482C148.491 33.102 148.509 34.686 148.545 36.234C148.581 37.782 148.635 39.276 148.707 40.716C147.987 40.644 147.285 40.608 146.601 40.608C145.917 40.608 145.215 40.644 144.495 40.716C144.531 40.392 144.549 40.05 144.549 39.69C144.585 39.33 144.603 38.952 144.603 38.556V36.234H144.495C143.559 37.962 142.353 39.24 140.877 40.068C139.401 40.86 137.799 41.256 136.071 41.256C133.263 41.256 131.049 40.518 129.429 39.042C127.845 37.53 127.053 35.37 127.053 32.562Z" fill="#FFFCF9"/>
<path d="M202.274 38.502C201.95 38.79 201.428 39.114 200.708 39.474C200.024 39.798 199.178 40.104 198.17 40.392C197.198 40.644 196.1 40.878 194.876 41.094C193.652 41.31 192.374 41.418 191.042 41.418C188.198 41.418 185.57 41.022 183.158 40.23C180.746 39.402 178.658 38.16 176.894 36.504C175.166 34.848 173.798 32.832 172.79 30.456C171.818 28.044 171.332 25.308 171.332 22.248C171.332 19.188 171.818 16.47 172.79 14.094C173.798 11.682 175.184 9.648 176.948 7.992C178.748 6.336 180.89 5.076 183.374 4.212C185.858 3.348 188.594 2.916 191.582 2.916C193.958 2.916 196.118 3.168 198.062 3.672C200.042 4.14 201.788 4.716 203.3 5.4C203.012 5.904 202.778 6.588 202.598 7.452C202.418 8.316 202.274 9.036 202.166 9.612L201.842 9.72C201.482 9.288 200.978 8.802 200.33 8.262C199.682 7.722 198.926 7.2 198.062 6.696C197.198 6.192 196.226 5.778 195.146 5.454C194.066 5.094 192.878 4.914 191.582 4.914C189.458 4.914 187.478 5.256 185.642 5.94C183.842 6.624 182.258 7.686 180.89 9.126C179.558 10.53 178.514 12.33 177.758 14.526C177.002 16.686 176.624 19.26 176.624 22.248C176.624 25.236 177.002 27.828 177.758 30.024C178.514 32.184 179.558 33.984 180.89 35.424C182.258 36.828 183.842 37.872 185.642 38.556C187.478 39.24 189.458 39.582 191.582 39.582C192.878 39.582 194.066 39.42 195.146 39.096C196.262 38.772 197.27 38.394 198.17 37.962C199.106 37.494 199.934 37.008 200.654 36.504C201.41 35.964 202.04 35.496 202.544 35.1L202.76 35.316L202.274 38.502Z" fill="#FFFCF9"/>
<path d="M223.603 27.27C222.991 27.486 222.271 27.666 221.443 27.81C220.651 27.954 219.841 28.116 219.013 28.296C218.185 28.44 217.357 28.638 216.529 28.89C215.737 29.142 215.017 29.484 214.369 29.916C213.757 30.348 213.253 30.888 212.857 31.536C212.497 32.184 212.317 33.012 212.317 34.02C212.317 35.712 212.803 36.99 213.775 37.854C214.747 38.718 215.827 39.15 217.015 39.15C218.383 39.15 219.625 38.772 220.741 38.016C221.893 37.26 222.775 36.378 223.387 35.37L223.603 27.27ZM210.265 17.658C211.885 16.434 213.379 15.606 214.747 15.174C216.115 14.742 217.519 14.526 218.959 14.526C220.255 14.526 221.443 14.724 222.523 15.12C223.603 15.48 224.521 16.02 225.277 16.74C226.033 17.424 226.627 18.27 227.059 19.278C227.491 20.25 227.707 21.33 227.707 22.518C227.707 24.57 227.671 26.622 227.599 28.674C227.527 30.69 227.491 32.832 227.491 35.1C227.491 35.532 227.491 36 227.491 36.504C227.527 36.972 227.617 37.404 227.761 37.8C227.905 38.16 228.103 38.466 228.355 38.718C228.643 38.97 229.057 39.096 229.597 39.096C229.777 39.096 229.957 39.096 230.137 39.096C230.353 39.06 230.551 38.988 230.731 38.88V40.068C230.335 40.248 229.831 40.392 229.219 40.5C228.643 40.608 227.995 40.662 227.275 40.662C226.123 40.662 225.241 40.374 224.629 39.798C224.017 39.186 223.657 38.412 223.549 37.476C222.253 38.772 220.975 39.726 219.715 40.338C218.455 40.95 216.907 41.256 215.071 41.256C214.171 41.256 213.289 41.13 212.425 40.878C211.561 40.626 210.787 40.212 210.103 39.636C209.455 39.06 208.915 38.376 208.483 37.584C208.087 36.756 207.889 35.82 207.889 34.776C207.889 32.616 208.555 30.942 209.887 29.754C211.255 28.566 213.127 27.774 215.503 27.378C217.447 27.054 218.959 26.784 220.039 26.568C221.155 26.316 221.965 26.064 222.469 25.812C223.009 25.56 223.333 25.272 223.441 24.948C223.549 24.588 223.603 24.138 223.603 23.598C223.603 22.698 223.495 21.834 223.279 21.006C223.063 20.178 222.721 19.458 222.253 18.846C221.785 18.234 221.173 17.748 220.417 17.388C219.661 16.992 218.743 16.794 217.663 16.794C216.223 16.794 214.873 17.118 213.613 17.766C212.389 18.414 211.471 19.314 210.859 20.466L210.265 20.466V17.658Z" fill="#FFFCF9"/>
<path d="M254.869 25.542C254.869 22.842 254.347 20.808 253.303 19.44C252.259 18.036 250.819 17.334 248.983 17.334C246.463 17.334 244.609 18.108 243.421 19.656C242.269 21.204 241.693 23.382 241.693 26.19V30.78C241.693 32.4 241.711 34.11 241.747 35.91C241.819 37.674 241.945 39.276 242.125 40.716C241.297 40.644 240.487 40.608 239.695 40.608C238.903 40.608 238.093 40.644 237.265 40.716C237.445 39.276 237.553 37.674 237.589 35.91C237.661 34.11 237.697 32.4 237.697 30.78V25.164C237.697 23.544 237.661 21.852 237.589 20.088C237.553 18.288 237.445 16.614 237.265 15.066C238.273 15.246 239.083 15.336 239.695 15.336C239.983 15.336 240.289 15.318 240.613 15.282C240.973 15.21 241.387 15.138 241.855 15.066C241.747 16.506 241.693 17.946 241.693 19.386H241.801C242.809 17.838 244.015 16.65 245.419 15.822C246.823 14.958 248.497 14.526 250.441 14.526C251.449 14.526 252.457 14.67 253.465 14.958C254.509 15.246 255.445 15.75 256.273 16.47C257.101 17.154 257.767 18.108 258.271 19.332C258.811 20.52 259.081 22.05 259.081 23.922C259.081 25.47 259.045 27.072 258.973 28.728C258.901 30.348 258.865 32.076 258.865 33.912V37.422C258.865 37.998 258.865 38.574 258.865 39.15C258.901 39.69 258.937 40.212 258.973 40.716C258.253 40.644 257.497 40.608 256.705 40.608C255.949 40.608 255.211 40.644 254.491 40.716C254.563 38.844 254.635 36.918 254.707 34.938C254.815 32.958 254.869 30.924 254.869 28.836V25.542Z" fill="#FFFCF9"/>
<path d="M288.997 27.702C288.997 29.538 289.033 31.356 289.105 33.156C289.177 34.956 289.249 36.774 289.321 38.61C290.005 38.682 290.815 38.754 291.751 38.826C292.687 38.862 293.641 38.88 294.613 38.88C295.765 38.88 296.863 38.682 297.907 38.286C298.987 37.89 299.923 37.314 300.715 36.558C301.507 35.766 302.137 34.812 302.605 33.696C303.073 32.544 303.307 31.248 303.307 29.808C303.307 28.26 303.019 27 302.443 26.028C301.903 25.02 301.111 24.246 300.067 23.706C299.023 23.13 297.763 22.734 296.287 22.518C294.847 22.302 293.227 22.194 291.427 22.194H288.997V27.702ZM291.913 20.196C293.173 20.196 294.415 20.07 295.639 19.818C296.899 19.566 298.015 19.152 298.987 18.576C299.959 17.964 300.733 17.172 301.309 16.2C301.921 15.192 302.227 13.932 302.227 12.42C302.227 10.944 301.957 9.774 301.417 8.91C300.877 8.01 300.193 7.326 299.365 6.858C298.537 6.354 297.601 6.03 296.557 5.886C295.513 5.706 294.469 5.616 293.425 5.616C292.489 5.616 291.697 5.652 291.049 5.724C290.401 5.76 289.825 5.814 289.321 5.886C289.249 7.614 289.177 9.324 289.105 11.016C289.033 12.708 288.997 14.418 288.997 16.146V20.196H291.913ZM284.569 17.55C284.569 15.174 284.515 12.834 284.407 10.53C284.335 8.226 284.245 5.922 284.137 3.618C285.073 3.69 286.027 3.762 286.999 3.834C287.971 3.87 288.925 3.888 289.861 3.888C290.797 3.888 291.751 3.852 292.723 3.78C293.695 3.672 294.649 3.618 295.585 3.618C297.133 3.618 298.591 3.744 299.959 3.996C301.327 4.212 302.533 4.626 303.577 5.238C304.621 5.814 305.449 6.606 306.061 7.614C306.673 8.622 306.979 9.882 306.979 11.394C306.979 14.058 306.133 16.146 304.441 17.658C302.785 19.17 300.607 20.232 297.907 20.844V20.952C301.111 21.096 303.631 21.87 305.467 23.274C307.339 24.678 308.275 26.928 308.275 30.024C308.275 32.04 307.861 33.732 307.033 35.1C306.205 36.468 305.125 37.584 303.793 38.448C302.461 39.276 300.985 39.87 299.365 40.23C297.781 40.554 296.197 40.716 294.613 40.716C293.749 40.716 292.867 40.698 291.967 40.662C291.103 40.626 290.239 40.608 289.375 40.608C288.511 40.608 287.629 40.608 286.729 40.608C285.865 40.608 285.001 40.644 284.137 40.716C284.245 38.412 284.335 36.126 284.407 33.858C284.515 31.554 284.569 29.214 284.569 26.838V17.55Z" fill="#FFFCF9"/>
<path d="M327.192 16.254C325.86 16.254 324.726 16.56 323.79 17.172C322.89 17.784 322.134 18.558 321.522 19.494C320.946 20.394 320.496 21.402 320.172 22.518C319.884 23.598 319.704 24.624 319.632 25.596C320.748 25.632 321.9 25.668 323.088 25.704C324.312 25.74 325.5 25.758 326.652 25.758C327.84 25.758 329.046 25.74 330.27 25.704C331.494 25.668 332.682 25.632 333.834 25.596C333.834 24.624 333.744 23.598 333.564 22.518C333.42 21.438 333.096 20.43 332.592 19.494C332.124 18.558 331.458 17.784 330.594 17.172C329.73 16.56 328.596 16.254 327.192 16.254ZM314.718 28.728C314.718 24.3 315.762 20.826 317.85 18.306C319.974 15.786 323.052 14.526 327.084 14.526C328.992 14.526 330.63 14.832 331.998 15.444C333.402 16.02 334.572 16.812 335.508 17.82C336.444 18.792 337.128 19.944 337.56 21.276C338.028 22.608 338.262 24.03 338.262 25.542C338.262 25.902 338.244 26.262 338.208 26.622C338.208 26.946 338.19 27.288 338.154 27.648C336.21 27.612 334.284 27.576 332.376 27.54C330.468 27.504 328.542 27.486 326.598 27.486C325.41 27.486 324.222 27.504 323.034 27.54C321.882 27.576 320.712 27.612 319.524 27.648C319.488 27.828 319.47 28.098 319.47 28.458V29.16C319.47 30.564 319.668 31.878 320.064 33.102C320.496 34.326 321.108 35.388 321.9 36.288C322.692 37.152 323.664 37.854 324.816 38.394C325.968 38.898 327.3 39.15 328.812 39.15C329.532 39.15 330.27 39.06 331.026 38.88C331.782 38.664 332.52 38.394 333.24 38.07C333.96 37.71 334.626 37.296 335.238 36.828C335.886 36.36 336.444 35.856 336.912 35.316L337.182 35.478L336.858 38.124C335.778 38.988 334.428 39.726 332.808 40.338C331.224 40.95 329.568 41.256 327.84 41.256C325.896 41.256 324.114 40.968 322.494 40.392C320.91 39.78 319.524 38.916 318.336 37.8C317.184 36.648 316.284 35.298 315.636 33.75C315.024 32.202 314.718 30.528 314.718 28.728Z" fill="#FFFCF9"/>
<path d="M365.112 23.922C366.048 23.922 367.02 23.94 368.028 23.976C369.036 24.012 370.008 24.03 370.944 24.03C371.952 24.03 372.96 24.03 373.968 24.03C374.976 23.994 375.984 23.958 376.992 23.922L370.998 10.206L365.112 23.922ZM389.034 40.716C388.53 40.644 388.044 40.608 387.576 40.608C387.144 40.608 386.676 40.608 386.172 40.608C385.668 40.608 385.182 40.608 384.714 40.608C384.282 40.608 383.814 40.644 383.31 40.716C383.058 39.888 382.716 38.898 382.284 37.746C381.852 36.558 381.366 35.334 380.826 34.074C380.322 32.778 379.8 31.482 379.26 30.186C378.72 28.854 378.216 27.594 377.748 26.406C376.596 26.37 375.426 26.352 374.238 26.352C373.05 26.316 371.862 26.298 370.674 26.298C369.558 26.298 368.46 26.316 367.38 26.352C366.3 26.352 365.202 26.37 364.086 26.406C362.934 29.214 361.89 31.896 360.954 34.452C360.018 36.972 359.316 39.06 358.848 40.716C358.236 40.644 357.57 40.608 356.85 40.608C356.13 40.608 355.464 40.644 354.852 40.716C357.768 34.416 360.612 28.152 363.384 21.924C366.156 15.696 368.946 9.36 371.754 2.916L372.78 2.916C373.644 5.004 374.58 7.272 375.588 9.72C376.596 12.132 377.622 14.58 378.666 17.064C379.71 19.548 380.754 22.014 381.798 24.462C382.842 26.91 383.814 29.196 384.714 31.32C385.65 33.408 386.478 35.28 387.198 36.936C387.954 38.592 388.566 39.852 389.034 40.716Z" fill="#FFFCF9"/>
<path d="M412.199 25.542C412.199 22.842 411.677 20.808 410.633 19.44C409.589 18.036 408.149 17.334 406.313 17.334C403.793 17.334 401.939 18.108 400.751 19.656C399.599 21.204 399.023 23.382 399.023 26.19V30.78C399.023 32.4 399.041 34.11 399.077 35.91C399.149 37.674 399.275 39.276 399.455 40.716C398.627 40.644 397.817 40.608 397.025 40.608C396.233 40.608 395.423 40.644 394.595 40.716C394.775 39.276 394.883 37.674 394.919 35.91C394.991 34.11 395.027 32.4 395.027 30.78V25.164C395.027 23.544 394.991 21.852 394.919 20.088C394.883 18.288 394.775 16.614 394.595 15.066C395.603 15.246 396.413 15.336 397.025 15.336C397.313 15.336 397.619 15.318 397.943 15.282C398.303 15.21 398.717 15.138 399.185 15.066C399.077 16.506 399.023 17.946 399.023 19.386H399.131C400.139 17.838 401.345 16.65 402.749 15.822C404.153 14.958 405.827 14.526 407.771 14.526C408.779 14.526 409.787 14.67 410.795 14.958C411.839 15.246 412.775 15.75 413.603 16.47C414.431 17.154 415.097 18.108 415.601 19.332C416.141 20.52 416.411 22.05 416.411 23.922C416.411 25.47 416.375 27.072 416.303 28.728C416.231 30.348 416.195 32.076 416.195 33.912V37.422C416.195 37.998 416.195 38.574 416.195 39.15C416.231 39.69 416.267 40.212 416.303 40.716C415.583 40.644 414.827 40.608 414.035 40.608C413.279 40.608 412.541 40.644 411.821 40.716C411.893 38.844 411.965 36.918 412.037 34.938C412.145 32.958 412.199 30.924 412.199 28.836V25.542Z" fill="#FFFCF9"/>
<path d="M432.076 40.77C431.68 39.798 431.158 38.538 430.51 36.99C429.898 35.442 429.232 33.822 428.512 32.13C427.792 30.402 427.054 28.656 426.298 26.892C425.542 25.092 424.822 23.418 424.138 21.87C423.49 20.286 422.914 18.9 422.41 17.712C421.906 16.524 421.528 15.642 421.276 15.066C421.744 15.138 422.176 15.21 422.572 15.282C422.968 15.318 423.364 15.336 423.76 15.336C424.156 15.336 424.552 15.318 424.948 15.282C425.344 15.21 425.776 15.138 426.244 15.066C427.36 18.522 428.602 21.942 429.97 25.326C431.338 28.71 432.778 32.202 434.29 35.802C435.802 32.634 437.242 29.25 438.61 25.65C440.014 22.05 441.256 18.522 442.336 15.066C443.056 15.246 443.65 15.336 444.118 15.336C444.586 15.336 445.18 15.246 445.9 15.066C445.648 15.57 445.234 16.434 444.658 17.658C444.118 18.846 443.452 20.286 442.66 21.978C441.904 23.634 441.058 25.488 440.122 27.54C439.222 29.556 438.286 31.644 437.314 33.804C436.378 35.928 435.442 38.052 434.506 40.176C433.57 42.264 432.706 44.244 431.914 46.116C431.122 48.024 430.42 49.734 429.808 51.246C429.232 52.794 428.8 54.018 428.512 54.918C427.792 54.738 427.18 54.648 426.676 54.648C426.172 54.648 425.56 54.738 424.84 54.918C427.684 50.202 430.096 45.486 432.076 40.77Z" fill="#FFFCF9"/>
<path d="M456.646 7.83C456.538 9.198 456.448 10.548 456.376 11.88C456.34 13.176 456.286 14.49 456.214 15.822C456.61 15.822 457.348 15.822 458.428 15.822C459.508 15.786 460.678 15.732 461.938 15.66C461.902 15.768 461.884 15.966 461.884 16.254V16.794V17.388C461.884 17.64 461.902 17.82 461.938 17.928C461.47 17.892 460.984 17.874 460.48 17.874C459.976 17.838 459.436 17.82 458.86 17.82H456.214C456.178 17.964 456.124 18.54 456.052 19.548C456.016 20.556 455.98 21.762 455.944 23.166C455.908 24.534 455.872 25.974 455.836 27.486C455.836 28.998 455.836 30.348 455.836 31.536C455.836 32.544 455.854 33.534 455.89 34.506C455.962 35.478 456.142 36.36 456.43 37.152C456.718 37.908 457.15 38.52 457.726 38.988C458.302 39.456 459.13 39.69 460.21 39.69C460.498 39.69 460.876 39.654 461.344 39.582C461.848 39.51 462.28 39.42 462.64 39.312V40.608C462.028 40.716 461.344 40.842 460.588 40.986C459.868 41.166 459.166 41.256 458.482 41.256C456.214 41.256 454.54 40.698 453.46 39.582C452.38 38.466 451.84 36.828 451.84 34.668C451.84 33.696 451.858 32.652 451.894 31.536C451.93 30.384 451.966 29.142 452.002 27.81C452.074 26.442 452.128 24.948 452.164 23.328C452.2 21.672 452.218 19.836 452.218 17.82H450.49C450.202 17.82 449.896 17.838 449.572 17.874C449.248 17.874 448.906 17.892 448.546 17.928C448.582 17.712 448.6 17.514 448.6 17.334C448.636 17.118 448.654 16.902 448.654 16.686C448.654 16.506 448.636 16.326 448.6 16.146C448.6 15.966 448.582 15.786 448.546 15.606C450.166 15.714 451.354 15.768 452.11 15.768C452.074 15.048 452.038 14.148 452.002 13.068C452.002 11.988 451.966 10.872 451.894 9.72L456.376 7.83L456.646 7.83Z" fill="#FFFCF9"/>
<path d="M467.733 15.552C467.733 14.328 467.715 12.996 467.679 11.556C467.679 10.116 467.661 8.694 467.625 7.29C467.589 5.886 467.535 4.554 467.463 3.294C467.427 1.998 467.373 0.899999 467.301 0C468.309 0.18 469.119 0.27 469.731 0.27C470.343 0.27 471.153 0.18 472.161 0C472.089 0.899999 472.017 1.98 471.945 3.24C471.909 4.5 471.873 5.832 471.837 7.236C471.801 8.604 471.765 9.99 471.729 11.394C471.729 12.798 471.729 14.094 471.729 15.282V19.386H471.837C472.845 17.838 474.051 16.65 475.455 15.822C476.859 14.958 478.533 14.526 480.477 14.526C481.485 14.526 482.493 14.67 483.501 14.958C484.545 15.246 485.481 15.75 486.309 16.47C487.137 17.154 487.803 18.108 488.307 19.332C488.847 20.52 489.117 22.05 489.117 23.922C489.117 25.47 489.081 27.072 489.009 28.728C488.937 30.348 488.901 32.076 488.901 33.912V37.422C488.901 37.998 488.901 38.574 488.901 39.15C488.937 39.69 488.973 40.212 489.009 40.716C488.289 40.644 487.533 40.608 486.741 40.608C485.985 40.608 485.247 40.644 484.527 40.716C484.599 38.844 484.671 36.918 484.743 34.938C484.851 32.958 484.905 30.924 484.905 28.836V25.542C484.905 22.842 484.383 20.808 483.339 19.44C482.295 18.036 480.855 17.334 479.019 17.334C476.499 17.334 474.645 18.108 473.457 19.656C472.305 21.204 471.729 23.382 471.729 26.19C471.729 27.198 471.729 28.368 471.729 29.7C471.765 31.032 471.801 32.382 471.837 33.75C471.873 35.082 471.909 36.378 471.945 37.638C472.017 38.898 472.089 39.924 472.161 40.716C471.333 40.644 470.523 40.608 469.731 40.608C468.939 40.608 468.129 40.644 467.301 40.716C467.373 39.888 467.427 38.844 467.463 37.584C467.535 36.324 467.589 34.992 467.625 33.588C467.661 32.184 467.679 30.762 467.679 29.322C467.715 27.882 467.733 26.55 467.733 25.326V15.552Z" fill="#FFFCF9"/>
<path d="M498.495 5.67C498.495 4.914 498.765 4.266 499.305 3.726C499.845 3.186 500.493 2.916 501.249 2.916C502.005 2.916 502.653 3.186 503.193 3.726C503.733 4.266 504.003 4.914 504.003 5.67C504.003 6.426 503.733 7.074 503.193 7.614C502.653 8.154 502.005 8.424 501.249 8.424C500.493 8.424 499.845 8.154 499.305 7.614C498.765 7.074 498.495 6.426 498.495 5.67ZM499.251 25.164C499.251 23.544 499.215 21.852 499.143 20.088C499.107 18.288 498.999 16.614 498.819 15.066C499.827 15.246 500.637 15.336 501.249 15.336C501.861 15.336 502.671 15.246 503.679 15.066C503.499 16.614 503.373 18.288 503.301 20.088C503.265 21.852 503.247 23.544 503.247 25.164V30.78C503.247 32.4 503.265 34.11 503.301 35.91C503.373 37.674 503.499 39.276 503.679 40.716C502.851 40.644 502.041 40.608 501.249 40.608C500.457 40.608 499.647 40.644 498.819 40.716C498.999 39.276 499.107 37.674 499.143 35.91C499.215 34.11 499.251 32.4 499.251 30.78V25.164Z" fill="#FFFCF9"/>
<path d="M531.02 25.542C531.02 22.842 530.498 20.808 529.454 19.44C528.41 18.036 526.97 17.334 525.134 17.334C522.614 17.334 520.76 18.108 519.572 19.656C518.42 21.204 517.844 23.382 517.844 26.19V30.78C517.844 32.4 517.862 34.11 517.898 35.91C517.97 37.674 518.096 39.276 518.276 40.716C517.448 40.644 516.638 40.608 515.846 40.608C515.054 40.608 514.244 40.644 513.416 40.716C513.596 39.276 513.704 37.674 513.74 35.91C513.812 34.11 513.848 32.4 513.848 30.78V25.164C513.848 23.544 513.812 21.852 513.74 20.088C513.704 18.288 513.596 16.614 513.416 15.066C514.424 15.246 515.234 15.336 515.846 15.336C516.134 15.336 516.44 15.318 516.764 15.282C517.124 15.21 517.538 15.138 518.006 15.066C517.898 16.506 517.844 17.946 517.844 19.386H517.952C518.96 17.838 520.166 16.65 521.57 15.822C522.974 14.958 524.648 14.526 526.592 14.526C527.6 14.526 528.608 14.67 529.616 14.958C530.66 15.246 531.596 15.75 532.424 16.47C533.252 17.154 533.918 18.108 534.422 19.332C534.962 20.52 535.232 22.05 535.232 23.922C535.232 25.47 535.196 27.072 535.124 28.728C535.052 30.348 535.016 32.076 535.016 33.912V37.422C535.016 37.998 535.016 38.574 535.016 39.15C535.052 39.69 535.088 40.212 535.124 40.716C534.404 40.644 533.648 40.608 532.856 40.608C532.1 40.608 531.362 40.644 530.642 40.716C530.714 38.844 530.786 36.918 530.858 34.938C530.966 32.958 531.02 30.924 531.02 28.836V25.542Z" fill="#FFFCF9"/>
<path d="M561.728 46.44C561.728 44.28 561.098 42.768 559.838 41.904C558.578 41.04 556.49 40.608 553.574 40.608C550.874 40.608 548.786 41.04 547.31 41.904C545.834 42.804 545.096 44.406 545.096 46.71C545.096 47.934 545.294 48.978 545.69 49.842C546.122 50.706 546.68 51.408 547.364 51.948C548.084 52.488 548.93 52.884 549.902 53.136C550.874 53.388 551.918 53.514 553.034 53.514C554.114 53.514 555.176 53.37 556.22 53.082C557.264 52.794 558.182 52.362 558.974 51.786C559.802 51.21 560.468 50.472 560.972 49.572C561.476 48.708 561.728 47.664 561.728 46.44ZM558.812 23.058C558.812 20.79 558.272 19.062 557.192 17.874C556.112 16.686 554.69 16.092 552.926 16.092C550.982 16.092 549.47 16.758 548.39 18.09C547.31 19.386 546.77 21.132 546.77 23.328C546.77 25.596 547.256 27.396 548.228 28.728C549.236 30.024 550.784 30.672 552.872 30.672C553.916 30.672 554.798 30.474 555.518 30.078C556.274 29.646 556.886 29.088 557.354 28.404C557.858 27.684 558.218 26.874 558.434 25.974C558.686 25.038 558.812 24.066 558.812 23.058ZM542.558 23.328C542.558 21.816 542.828 20.52 543.368 19.44C543.908 18.324 544.646 17.406 545.582 16.686C546.554 15.966 547.652 15.426 548.876 15.066C550.136 14.706 551.468 14.526 552.872 14.526C553.556 14.526 554.204 14.544 554.816 14.58C555.464 14.616 556.274 14.67 557.246 14.742C558.074 14.814 558.812 14.868 559.46 14.904C560.108 14.94 560.63 14.958 561.026 14.958C563.042 14.958 564.5 14.868 565.4 14.688C565.364 14.868 565.328 15.066 565.292 15.282C565.292 15.462 565.292 15.642 565.292 15.822C565.292 16.002 565.292 16.2 565.292 16.416C565.328 16.596 565.364 16.776 565.4 16.956C564.356 16.884 563.33 16.812 562.322 16.74C561.35 16.632 560.378 16.56 559.406 16.524L559.298 16.632C560.414 17.244 561.314 18.198 561.998 19.494C562.682 20.754 563.024 22.068 563.024 23.436C563.024 26.136 562.106 28.26 560.27 29.808C558.47 31.32 556.04 32.076 552.98 32.076C552.476 32.076 551.972 32.058 551.468 32.022C551 31.986 550.514 31.968 550.01 31.968C549.362 31.968 548.75 32.202 548.174 32.67C547.634 33.138 547.364 33.732 547.364 34.452C547.364 35.388 547.58 36.072 548.012 36.504C548.48 36.936 549.326 37.17 550.55 37.206C551.558 37.242 552.548 37.278 553.52 37.314C554.492 37.314 555.482 37.332 556.49 37.368C558.146 37.404 559.55 37.602 560.702 37.962C561.89 38.322 562.844 38.808 563.564 39.42C564.32 40.032 564.86 40.734 565.184 41.526C565.544 42.318 565.724 43.182 565.724 44.118C565.724 45.378 565.472 46.656 564.968 47.952C564.5 49.248 563.744 50.418 562.7 51.462C561.692 52.506 560.378 53.37 558.758 54.054C557.138 54.738 555.194 55.08 552.926 55.08C549.434 55.08 546.68 54.378 544.664 52.974C542.648 51.606 541.64 49.716 541.64 47.304C541.64 46.368 541.802 45.504 542.126 44.712C542.486 43.92 542.936 43.218 543.476 42.606C544.016 41.994 544.628 41.508 545.312 41.148C545.996 40.788 546.698 40.518 547.418 40.338V40.23C546.302 39.906 545.456 39.366 544.88 38.61C544.304 37.854 544.016 36.954 544.016 35.91C544.016 35.298 544.124 34.74 544.34 34.236C544.592 33.732 544.898 33.282 545.258 32.886C545.618 32.49 546.032 32.166 546.5 31.914C546.968 31.662 547.418 31.5 547.85 31.428V31.32C546.194 30.6 544.898 29.592 543.962 28.296C543.026 26.964 542.558 25.308 542.558 23.328Z" fill="#FFFCF9"/>
<path d="M588.907 38.178C588.907 37.35 589.213 36.63 589.825 36.018C590.437 35.406 591.157 35.1 591.985 35.1C592.813 35.1 593.533 35.406 594.145 36.018C594.757 36.63 595.063 37.35 595.063 38.178C595.063 39.006 594.757 39.708 594.145 40.284C593.533 40.824 592.813 41.094 591.985 41.094C591.157 41.094 590.437 40.824 589.825 40.284C589.213 39.708 588.907 39.006 588.907 38.178ZM591.445 31.374C591.301 29.682 591.139 27.9 590.959 26.028C590.815 24.12 590.653 22.248 590.473 20.412C590.329 18.54 590.185 16.758 590.041 15.066C589.933 13.374 589.825 11.862 589.717 10.53C589.609 9.162 589.519 8.046 589.447 7.182C589.375 6.282 589.339 5.742 589.339 5.562C589.339 4.59 589.609 3.906 590.149 3.51C590.689 3.114 591.301 2.916 591.985 2.916C592.669 2.916 593.281 3.114 593.821 3.51C594.361 3.906 594.631 4.59 594.631 5.562C594.631 5.85 594.559 6.876 594.415 8.64C594.271 10.404 594.091 12.546 593.875 15.066C593.695 17.586 593.479 20.304 593.227 23.22C592.975 26.1 592.741 28.818 592.525 31.374H591.445Z" fill="#FFFCF9"/>
<g clip-path="url(#clip1)">
<path d="M631.949 0.0404493L638.777 8.35235C638.777 8.35235 637.377 21.616 610.064 25.5067C610.064 25.6835 632.299 19.317 631.949 0.0404493Z" fill="#FFFCF9"/>
<path d="M631.949 55.04L638.777 46.7281C638.777 46.7281 637.377 33.4645 610.064 29.5738C610.064 29.5738 632.299 35.9404 631.949 55.04Z" fill="#FFFCF9"/>
<path d="M662.063 27.6285L650.508 21.9694L623.195 27.6285L650.508 33.1108L662.063 27.6285Z" fill="#FFFCF9"/>
</g>
<defs>
<clipPath id="clip0">
<rect width="52" height="55" fill="white" transform="translate(0 0.0400391)"/>
</clipPath>
<clipPath id="clip1">
<rect width="52" height="55" fill="white" transform="translate(662.063 55.04) rotate(-180)"/>
</clipPath>
</defs>
</svg>
